<?xml version="1.0" encoding="UTF-8" standalone="no"?><svg xmlns="http://www.w3.org/2000/svg" xmlns:xlink="http://www.w3.org/1999/xlink" clip-rule="evenodd" stroke-miterlimit="10" viewBox="0 0 1024 768"><desc>SVG generated by Keynote</desc><defs></defs><g transform="matrix(1.00, 0.00, -0.00, -1.00, 0.0, 768.0)"><g><clipPath id="clip0x6080024acba0"><path d="M 0.0 768.0 L 1024.0 768.0 L 1024.0 0.0 L 0.0 0.0 Z M 0.0 768.0 "></path></clipPath><g clip-path="url(#clip0x6080024acba0)"><image xlink:href="../../384E26B0-0AD0-495F-BA75-267B55ABD0BD/assets/31D284A5C75E14674D2A89FDB99F8048.jpeg" width="2048.00" height="1536.00" transform="matrix(0.50, 0.00, -0.00, -0.50, 0.0, 768.0)"></image></g></g><g><clipPath id="clip0x6000022bd8e0"><path d="M -1.0 -2.0 L 1025.0 -2.0 L 1025.0 770.0 L -1.0 770.0 Z M -1.0 -2.0 "></path></clipPath><g clip-path="url(#clip0x6000022bd8e0)"><path d="M -1.0 770.0 L 1025.0 770.0 L 1025.0 -2.0 L -1.0 -2.0 Z M -1.0 770.0 " fill="#FEFFFF" fill-opacity="0.00"></path></g></g><g><clipPath id="clip0x6000026a0f60"><path d="M 0.4 768.6 L 512.0 768.6 L 512.0 384.5 L 0.4 384.5 Z M 0.4 768.6 "></path></clipPath><g clip-path="url(#clip0x6000026a0f60)"><g><clipPath id="clip0x6000024be000"><path d="M 0.4 384.5 L 512.0 384.5 L 512.0 768.6 L 0.4 768.6 Z M 0.4 384.5 "></path></clipPath><g clip-path="url(#clip0x6000024be000)"><image xlink:href="../../D7E3FCB2-B7E0-4F4E-B9ED-DD27228EF147/assets/7C8785493C735CE8110121A03443B24F.jpeg" width="1050.00" height="788.00" transform="matrix(0.49, 0.00, -0.00, -0.49, 0.4, 768.6)"></image></g></g></g></g><g><clipPath id="clip0x6080024b2ea0"><path d="M -1.0 -2.0 L 1025.0 -2.0 L 1025.0 770.0 L -1.0 770.0 Z M -1.0 -2.0 "></path></clipPath><g clip-path="url(#clip0x6080024b2ea0)"><path d="M -6350.0 -6350.0 L 4578350.0 -6350.0 L 4578350.0 3436938.0 L -6350.0 3436938.0 Z M -6350.0 -6350.0 " fill="none" stroke="#4248A9" stroke-width="12700.00" transform="matrix(0.00, 0.00, 0.00, -0.00, 0.4, 768.6)"></path></g></g><g><clipPath id="clip0x6080024b3ec0"><path d="M 512.0 768.6 L 1023.6 768.6 L 1023.6 384.5 L 512.0 384.5 Z M 512.0 768.6 "></path></clipPath><g clip-path="url(#clip0x6080024b3ec0)"><g><clipPath id="clip0x6080020bbd80"><path d="M 512.0 384.5 L 1023.6 384.5 L 1023.6 768.6 L 512.0 768.6 Z M 512.0 384.5 "></path></clipPath><g clip-path="url(#clip0x6080020bbd80)"><image xlink:href="../../D7E3FCB2-B7E0-4F4E-B9ED-DD27228EF147/assets/5561D27916D559265CCAD28A2C0DBC8F.jpeg" width="1050.00" height="788.00" transform="matrix(0.49, 0.00, -0.00, -0.49, 512.0, 768.6)"></image></g></g></g></g><g><clipPath id="clip0x6000024ba040"><path d="M -1.0 -2.0 L 1025.0 -2.0 L 1025.0 770.0 L -1.0 770.0 Z M -1.0 -2.0 "></path></clipPath><g clip-path="url(#clip0x6000024ba040)"><path d="M -6350.0 -6350.0 L 4578350.0 -6350.0 L 4578350.0 3436938.0 L -6350.0 3436938.0 Z M -6350.0 -6350.0 " fill="none" stroke="#4248A9" stroke-width="12700.00" transform="matrix(0.00, 0.00, 0.00, -0.00, 512.0, 768.6)"></path></g></g><g><clipPath id="clip0x6000026a3a80"><path d="M 0.4 384.7 L 512.0 384.7 L 512.0 0.7 L 0.4 0.7 Z M 0.4 384.7 "></path></clipPath><g clip-path="url(#clip0x6000026a3a80)"><g><clipPath id="clip0x6000024bdc40"><path d="M 0.4 0.7 L 512.0 0.7 L 512.0 384.7 L 0.4 384.7 Z M 0.4 0.7 "></path></clipPath><g clip-path="url(#clip0x6000024bdc40)"><image xlink:href="../../D7E3FCB2-B7E0-4F4E-B9ED-DD27228EF147/assets/4DD750FEF1467BAD0B1561CA69CA26CB.png" width="360.00" height="270.00" transform="matrix(1.42, 0.00, -0.00, -1.42, 0.4, 384.7)"></image></g></g></g></g><g><clipPath id="clip0x6000026acc60"><path d="M -1.0 -2.0 L 1025.0 -2.0 L 1025.0 770.0 L -1.0 770.0 Z M -1.0 -2.0 "></path></clipPath><g clip-path="url(#clip0x6000026acc60)"><path d="M -6350.0 -6350.0 L 4578350.0 -6350.0 L 4578350.0 3436938.0 L -6350.0 3436938.0 Z M -6350.0 -6350.0 " fill="none" stroke="#4248A9" stroke-width="12700.00" transform="matrix(0.00, 0.00, 0.00, -0.00, 0.4, 384.7)"></path></g></g><g><clipPath id="clip0x6000024a3d80"><path d="M 512.0 384.7 L 1023.6 384.7 L 1023.6 0.7 L 512.0 0.7 Z M 512.0 384.7 "></path></clipPath><g clip-path="url(#clip0x6000024a3d80)"><g><clipPath id="clip0x6000026ab0a0"><path d="M 512.0 0.7 L 1023.6 0.7 L 1023.6 384.7 L 512.0 384.7 Z M 512.0 0.7 "></path></clipPath><g clip-path="url(#clip0x6000026ab0a0)"><image xlink:href="../../D7E3FCB2-B7E0-4F4E-B9ED-DD27228EF147/assets/F967A52C9AEC768F2E8CE1C39A397BDF.jpeg" width="1050.00" height="788.00" transform="matrix(0.49, 0.00, -0.00, -0.49, 512.0, 384.7)"></image></g></g></g></g><g><clipPath id="clip0x6080024a36c0"><path d="M -1.0 -2.0 L 1025.0 -2.0 L 1025.0 770.0 L -1.0 770.0 Z M -1.0 -2.0 "></path></clipPath><g clip-path="url(#clip0x6080024a36c0)"><path d="M -6350.0 -6350.0 L 4578350.0 -6350.0 L 4578350.0 3436938.0 L -6350.0 3436938.0 Z M -6350.0 -6350.0 " fill="none" stroke="#4248A9" stroke-width="12700.00" transform="matrix(0.00, 0.00, 0.00, -0.00, 512.0, 384.7)"></path></g></g></g></svg>