<?xml version="1.0" encoding="UTF-8" standalone="no"?><svg xmlns="http://www.w3.org/2000/svg" xmlns:xlink="http://www.w3.org/1999/xlink" clip-rule="evenodd" stroke-miterlimit="4.00" viewBox="0 0 982 331"><desc>SVG generated by Keynote</desc><defs></defs><g transform="matrix(1.00, 0.00, -0.00, -1.00, 0.0, 331.0)"><g><clipPath id="clip-195"><path d="M 0.3 140.3 L 981.7 140.3 L 981.7 202.9 L 0.3 202.9 Z M 0.3 140.3 "></path></clipPath><g clip-path="url(#clip-195)"><path d="M 938.3 141.3 L 938.3 141.3 L 980.7 171.6 L 938.3 201.9 L 938.3 201.9 L 1.3 201.9 L 1.3 141.3 Z M 938.3 141.3 " fill="#325D6A"></path></g></g><g><clipPath id="clip-196"><path d="M -5.3 138.3 L 980.7 138.3 L 980.7 203.5 L -5.3 203.5 Z M -5.3 138.3 "></path></clipPath><g clip-path="url(#clip-196)"><text xml:space="preserve" font-family="HelveticaNeue-Light" font-size="36.0" fill="#FFFFFF" transform="matrix(1.00, 0.00, -0.00, -1.00, 5.0, 158.0)">-</text><text xml:space="preserve" font-family="HelveticaNeue-Light" font-size="36.0" fill="#FFFFFF" transform="matrix(1.00, 0.00, -0.00, -1.00, 18.3, 158.0)">3</text><text xml:space="preserve" font-family="HelveticaNeue-Light" font-size="36.0" fill="#FFFFFF" transform="matrix(1.00, 0.00, -0.00, -1.00, 38.3, 158.0)"> </text><text xml:space="preserve" font-family="HelveticaNeue-Light" font-size="36.0" fill="#FFFFFF" transform="matrix(1.00, 0.00, -0.00, -1.00, 48.3, 158.0)"> </text><text xml:space="preserve" font-family="HelveticaNeue-Light" font-size="36.0" fill="#FFFFFF" transform="matrix(1.00, 0.00, -0.00, -1.00, 58.4, 158.0)">-</text><text xml:space="preserve" font-family="HelveticaNeue-Light" font-size="36.0" fill="#FFFFFF" transform="matrix(1.00, 0.00, -0.00, -1.00, 71.7, 158.0)">2</text><text xml:space="preserve" font-family="HelveticaNeue-Light" font-size="36.0" fill="#FFFFFF" transform="matrix(1.00, 0.00, -0.00, -1.00, 91.7, 158.0)"> </text><text xml:space="preserve" font-family="HelveticaNeue-Light" font-size="36.0" fill="#FFFFFF" transform="matrix(1.00, 0.00, -0.00, -1.00, 101.7, 158.0)"> </text><text xml:space="preserve" font-family="HelveticaNeue-Light" font-size="36.0" fill="#FFFFFF" transform="matrix(1.00, 0.00, -0.00, -1.00, 111.7, 158.0)">-</text><text xml:space="preserve" font-family="HelveticaNeue-Light" font-size="36.0" fill="#FFFFFF" transform="matrix(1.00, 0.00, -0.00, -1.00, 125.0, 158.0)">1</text><text xml:space="preserve" font-family="HelveticaNeue-Light" font-size="36.0" fill="#FFFFFF" transform="matrix(1.00, 0.00, -0.00, -1.00, 145.0, 158.0)"> </text><text xml:space="preserve" font-family="HelveticaNeue-Light" font-size="36.0" fill="#FFFFFF" transform="matrix(1.00, 0.00, -0.00, -1.00, 155.0, 158.0)"> </text><text xml:space="preserve" font-family="HelveticaNeue-Light" font-size="36.0" fill="#FFFFFF" transform="matrix(1.00, 0.00, -0.00, -1.00, 165.1, 158.0)">•</text><text xml:space="preserve" font-family="HelveticaNeue-Light" font-size="36.0" fill="#FFFFFF" transform="matrix(1.00, 0.00, -0.00, -1.00, 183.1, 158.0)">0</text><text xml:space="preserve" font-family="HelveticaNeue-Light" font-size="36.0" fill="#FFFFFF" transform="matrix(1.00, 0.00, -0.00, -1.00, 203.1, 158.0)"> </text><text xml:space="preserve" font-family="HelveticaNeue-Light" font-size="36.0" fill="#FFFFFF" transform="matrix(1.00, 0.00, -0.00, -1.00, 213.1, 158.0)"> </text><text xml:space="preserve" font-family="HelveticaNeue-Light" font-size="36.0" fill="#FFFFFF" transform="matrix(1.00, 0.00, -0.00, -1.00, 223.1, 158.0)">+</text><text xml:space="preserve" font-family="HelveticaNeue-Light" font-size="36.0" fill="#FFFFFF" transform="matrix(1.00, 0.00, -0.00, -1.00, 244.7, 158.0)">1</text><text xml:space="preserve" font-family="HelveticaNeue-Light" font-size="36.0" fill="#FFFFFF" transform="matrix(1.00, 0.00, -0.00, -1.00, 264.7, 158.0)"> </text><text xml:space="preserve" font-family="HelveticaNeue-Light" font-size="36.0" fill="#FFFFFF" transform="matrix(1.00, 0.00, -0.00, -1.00, 274.7, 158.0)"> </text><text xml:space="preserve" font-family="HelveticaNeue-Light" font-size="36.0" fill="#FFFFFF" transform="matrix(1.00, 0.00, -0.00, -1.00, 284.7, 158.0)">+</text><text xml:space="preserve" font-family="HelveticaNeue-Light" font-size="36.0" fill="#FFFFFF" transform="matrix(1.00, 0.00, -0.00, -1.00, 306.3, 158.0)">2</text><text xml:space="preserve" font-family="HelveticaNeue-Light" font-size="36.0" fill="#FFFFFF" transform="matrix(1.00, 0.00, -0.00, -1.00, 326.3, 158.0)"> </text><text xml:space="preserve" font-family="HelveticaNeue-Light" font-size="36.0" fill="#FFFFFF" transform="matrix(1.00, 0.00, -0.00, -1.00, 336.3, 158.0)"> </text><text xml:space="preserve" font-family="HelveticaNeue-Light" font-size="36.0" fill="#FFFFFF" transform="matrix(1.00, 0.00, -0.00, -1.00, 346.4, 158.0)"> </text><text xml:space="preserve" font-family="HelveticaNeue-Light" font-size="36.0" fill="#FFFFFF" transform="matrix(1.00, 0.00, -0.00, -1.00, 356.4, 158.0)"> </text><text xml:space="preserve" font-family="HelveticaNeue-Light" font-size="36.0" fill="#FFFFFF" transform="matrix(1.00, 0.00, -0.00, -1.00, 366.4, 158.0)"> </text><text xml:space="preserve" font-family="HelveticaNeue-Light" font-size="36.0" fill="#FFFFFF" transform="matrix(1.00, 0.00, -0.00, -1.00, 376.4, 158.0)"> </text><text xml:space="preserve" font-family="HelveticaNeue-Light" font-size="36.0" fill="#FFFFFF" transform="matrix(1.00, 0.00, -0.00, -1.00, 386.4, 158.0)"> </text><text xml:space="preserve" font-family="HelveticaNeue-Light" font-size="36.0" fill="#FFFFFF" transform="matrix(1.00, 0.00, -0.00, -1.00, 396.4, 158.0)"> </text><text xml:space="preserve" font-family="HelveticaNeue-Light" font-size="36.0" fill="#FFFFFF" transform="matrix(1.00, 0.00, -0.00, -1.00, 406.4, 158.0)"> </text><text xml:space="preserve" font-family="HelveticaNeue-Light" font-size="36.0" fill="#FFFFFF" transform="matrix(1.00, 0.00, -0.00, -1.00, 416.4, 158.0)"> </text><text xml:space="preserve" font-family="HelveticaNeue-Light" font-size="36.0" fill="#FFFFFF" transform="matrix(1.00, 0.00, -0.00, -1.00, 426.4, 158.0)"> </text><text xml:space="preserve" font-family="HelveticaNeue-Light" font-size="36.0" fill="#FFFFFF" transform="matrix(1.00, 0.00, -0.00, -1.00, 436.4, 158.0)">2</text><text xml:space="preserve" font-family="HelveticaNeue-Light" font-size="36.0" fill="#FFFFFF" transform="matrix(1.00, 0.00, -0.00, -1.00, 456.4, 158.0)">-</text><text xml:space="preserve" font-family="HelveticaNeue-Light" font-size="36.0" fill="#FFFFFF" transform="matrix(1.00, 0.00, -0.00, -1.00, 469.8, 158.0)">4</text><text xml:space="preserve" font-family="HelveticaNeue-Light" font-size="36.0" fill="#FFFFFF" transform="matrix(1.00, 0.00, -0.00, -1.00, 489.8, 158.0)"> </text><text xml:space="preserve" font-family="HelveticaNeue-Light" font-size="36.0" fill="#FFFFFF" transform="matrix(1.00, 0.00, -0.00, -1.00, 499.8, 158.0)">m</text><text xml:space="preserve" font-family="HelveticaNeue-Light" font-size="36.0" fill="#FFFFFF" transform="matrix(1.00, 0.00, -0.00, -1.00, 529.8, 158.0)">o</text></g></g><g><clipPath id="clip-197"><path d="M 472.8 250.0 L 472.8 93.2 L 253.1 93.2 L 253.1 250.0 Z M 472.8 250.0 "></path></clipPath><g clip-path="url(#clip-197)"><text xml:space="preserve" font-family="AppleSymbols" font-size="150.0" fill="#FEFFFE" transform="matrix(0.00, -1.00, -1.00, -0.00, 337.0, 215.0)">⌁</text></g></g><g><clipPath id="clip-198"><path d="M 686.1 250.0 L 686.1 93.2 L 466.3 93.2 L 466.3 250.0 Z M 686.1 250.0 "></path></clipPath><g clip-path="url(#clip-198)"><text xml:space="preserve" font-family="AppleSymbols" font-size="150.0" fill="#FEFFFE" transform="matrix(0.00, -1.00, -1.00, -0.00, 551.0, 215.0)">⌁</text></g></g><g><clipPath id="clip-199"><path d="M 172.6 65.0 L 172.6 141.1 L 211.7 141.1 L 211.7 65.0 Z M 172.6 65.0 "></path></clipPath><g clip-path="url(#clip-199)"><path d="M 198.8 112.2 L 208.8 112.2 L 192.1 138.2 L 175.4 112.2 L 185.5 112.2 L 185.5 67.0 L 198.8 67.0 Z M 198.8 112.2 " fill="#FEFB00"></path><path d="M 45.1 23.4 L 45.1 33.4 L 71.2 16.7 L 45.1 0.0 L 45.1 10.1 L 0.0 10.1 L 0.0 23.4 Z M 45.1 23.4 " fill="none" stroke="#000000" stroke-width="2.00" transform="matrix(0.00, 1.00, 1.00, 0.00, 175.4, 67.0)"></path></g></g><g><clipPath id="clip-200"><path d="M 155.3 -12.9 L 229.0 -12.9 L 229.0 74.6 L 155.3 74.6 Z M 155.3 -12.9 "></path></clipPath><g clip-path="url(#clip-200)"><text xml:space="preserve" font-family="AppleSymbols" font-size="60.0" fill="#000000" transform="matrix(1.00, 0.00, -0.00, -1.00, 170.0, 21.0)">☢</text></g></g><g><clipPath id="clip-201"><path d="M 211.7 278.1 L 211.7 202.1 L 172.6 202.1 L 172.6 278.1 Z M 211.7 278.1 "></path></clipPath><g clip-path="url(#clip-201)"><path d="M 185.5 231.0 L 175.4 231.0 L 192.1 204.9 L 208.8 231.0 L 198.8 231.0 L 198.8 276.1 L 185.5 276.1 Z M 185.5 231.0 " fill="#FF2600"></path><path d="M 45.1 23.4 L 45.1 33.4 L 71.2 16.7 L 45.1 0.0 L 45.1 10.1 L 0.0 10.1 L 0.0 23.4 Z M 45.1 23.4 " fill="none" stroke="#163D40" stroke-width="2.00" transform="matrix(0.00, -1.00, -1.00, 0.00, 208.8, 276.1)"></path></g></g><g><clipPath id="clip-202"><path d="M 141.1 270.5 L 243.2 270.5 L 243.2 336.0 L 141.1 336.0 Z M 141.1 270.5 "></path></clipPath><g clip-path="url(#clip-202)"><text xml:space="preserve" font-family="HelveticaNeue-Bold" font-weight="bold" font-size="36.0" fill="#000000" transform="matrix(1.00, 0.00, -0.00, -1.00, 152.0, 290.0)">±</text><text xml:space="preserve" font-family="HelveticaNeue-Bold" font-weight="bold" font-size="36.0" fill="#000000" transform="matrix(1.00, 0.00, -0.00, -1.00, 173.6, 290.0)">B</text><text xml:space="preserve" font-family="HelveticaNeue-Bold" font-weight="bold" font-size="36.0" fill="#000000" transform="matrix(1.00, 0.00, -0.00, -1.00, 198.9, 290.0)">M</text></g></g></g></svg>