<?xml version="1.0" encoding="UTF-8" standalone="no"?><svg xmlns="http://www.w3.org/2000/svg" xmlns:xlink="http://www.w3.org/1999/xlink" clip-rule="evenodd" stroke-miterlimit="4.00" viewBox="0 0 40 129"><desc>SVG generated by Keynote</desc><defs></defs><g transform="matrix(1.00, 0.00, -0.00, -1.00, 0.0, 129.0)"><g><clipPath id="clip-189"><path d="M 39.9 76.1 L 39.9 0.0 L 0.8 0.0 L 0.8 76.1 Z M 39.9 76.1 "></path></clipPath><g clip-path="url(#clip-189)"><path d="M 13.7 28.9 L 3.6 28.9 L 20.3 2.9 L 37.0 28.9 L 27.0 28.9 L 27.0 74.1 L 13.7 74.1 Z M 13.7 28.9 " fill="#86889B"></path><path d="M 45.1 23.4 L 45.1 33.4 L 71.2 16.7 L 45.1 0.0 L 45.1 10.1 L 0.0 10.1 L 0.0 23.4 Z M 45.1 23.4 " fill="none" stroke="#163D40" stroke-width="2.00" transform="matrix(0.00, -1.00, -1.00, 0.00, 37.0, 74.1)"></path></g></g><g><clipPath id="clip-190"><path d="M -3.2 68.9 L 43.9 68.9 L 43.9 134.4 L -3.2 134.4 Z M -3.2 68.9 "></path></clipPath><g clip-path="url(#clip-190)"><text xml:space="preserve" font-family="HelveticaNeue-Bold" font-weight="bold" font-size="36.0" fill="#000000" transform="matrix(1.00, 0.00, -0.00, -1.00, 8.0, 88.0)">A</text></g></g></g></svg>