<?xml version="1.0" encoding="UTF-8" standalone="no"?><svg xmlns="http://www.w3.org/2000/svg" xmlns:xlink="http://www.w3.org/1999/xlink" clip-rule="evenodd" stroke-miterlimit="4.00" viewBox="0 0 1024 768"><desc>SVG generated by Keynote</desc><defs></defs><g transform="matrix(1.00, 0.00, -0.00, -1.00, 0.0, 768.0)"><path d="M 0.0 768.0 L 1024.0 768.0 L 1024.0 0.0 L 0.0 0.0 Z M 0.0 768.0 " fill="#FEFFFE"></path><text xml:space="preserve" font-family="HelveticaNeue-Light" font-size="40.0" fill="#747373" transform="matrix(1.00, 0.00, -0.00, -1.00, 418.0, 387.0)">T</text><text xml:space="preserve" font-family="HelveticaNeue-Light" font-size="40.0" fill="#747373" transform="matrix(1.00, 0.00, -0.00, -1.00, 440.2, 387.0)">h</text><text xml:space="preserve" font-family="HelveticaNeue-Light" font-size="40.0" fill="#747373" transform="matrix(1.00, 0.00, -0.00, -1.00, 461.7, 387.0)">a</text><text xml:space="preserve" font-family="HelveticaNeue-Light" font-size="40.0" fill="#747373" transform="matrix(1.00, 0.00, -0.00, -1.00, 482.5, 387.0)">n</text><text xml:space="preserve" font-family="HelveticaNeue-Light" font-size="40.0" fill="#747373" transform="matrix(1.00, 0.00, -0.00, -1.00, 504.0, 387.0)">k</text><text xml:space="preserve" font-family="HelveticaNeue-Light" font-size="40.0" fill="#747373" transform="matrix(1.00, 0.00, -0.00, -1.00, 524.0, 387.0)"> </text><text xml:space="preserve" font-family="HelveticaNeue-Light" font-size="40.0" fill="#747373" transform="matrix(1.00, 0.00, -0.00, -1.00, 535.1, 387.0)">y</text><text xml:space="preserve" font-family="HelveticaNeue-Light" font-size="40.0" fill="#747373" transform="matrix(1.00, 0.00, -0.00, -1.00, 553.6, 387.0)">o</text><text xml:space="preserve" font-family="HelveticaNeue-Light" font-size="40.0" fill="#747373" transform="matrix(1.00, 0.00, -0.00, -1.00, 575.8, 387.0)">u</text><text xml:space="preserve" font-family="HelveticaNeue-Light" font-size="40.0" fill="#747373" transform="matrix(1.00, 0.00, -0.00, -1.00, 597.3, 387.0)">!</text></g></svg>