<?xml version="1.0" encoding="UTF-8" standalone="no"?><svg xmlns="http://www.w3.org/2000/svg" xmlns:xlink="http://www.w3.org/1999/xlink" clip-rule="evenodd" stroke-miterlimit="10" viewBox="0 0 1024 768"><desc>SVG generated by Keynote</desc><defs></defs><g transform="matrix(1.00, 0.00, -0.00, -1.00, 0.0, 768.0)"><path d="M 0.0 768.0 L 1024.0 768.0 L 1024.0 0.0 L 0.0 0.0 Z M 0.0 768.0 " fill="#000000"></path><image xlink:href="../../A0EEFD94-0412-47FE-895E-B9099E2DA879/assets/C74D2A6E53B334D102F0982DBF7231E0.png" width="695.00" height="55.00" transform="matrix(1.00, 0.00, -0.00, -1.00, 166.0, 479.0)"></image><text xml:space="preserve" font-family="Chalkduster,Chalkduster" font-size="38.0" fill="#FEE55E" transform="matrix(1.00, 0.00, -0.00, -1.00, 168.8, 444.0)">P</text><text xml:space="preserve" font-family="Chalkduster,Chalkduster" font-size="38.0" fill="#FEE55E" transform="matrix(1.00, 0.00, -0.00, -1.00, 193.1, 444.0)">o</text><text xml:space="preserve" font-family="Chalkduster,Chalkduster" font-size="38.0" fill="#FEE55E" transform="matrix(1.00, 0.00, -0.00, -1.00, 220.8, 444.0)">s</text><text xml:space="preserve" font-family="Chalkduster,Chalkduster" font-size="38.0" fill="#FEE55E" transform="matrix(1.00, 0.00, -0.00, -1.00, 241.1, 444.0)">t</text><text xml:space="preserve" font-family="Chalkduster,Chalkduster" font-size="38.0" fill="#FEE55E" transform="matrix(1.00, 0.00, -0.00, -1.00, 255.3, 444.0)">-</text><text xml:space="preserve" font-family="Chalkduster,Chalkduster" font-size="38.0" fill="#FEE55E" transform="matrix(1.00, 0.00, -0.00, -1.00, 278.3, 444.0)">r</text><text xml:space="preserve" font-family="Chalkduster,Chalkduster" font-size="38.0" fill="#FEE55E" transform="matrix(1.00, 0.00, -0.00, -1.00, 298.3, 444.0)">a</text><text xml:space="preserve" font-family="Chalkduster,Chalkduster" font-size="38.0" fill="#FEE55E" transform="matrix(1.00, 0.00, -0.00, -1.00, 323.3, 444.0)">d</text><text xml:space="preserve" font-family="Chalkduster,Chalkduster" font-size="38.0" fill="#FEE55E" transform="matrix(1.00, 0.00, -0.00, -1.00, 354.5, 444.0)">i</text><text xml:space="preserve" font-family="Chalkduster,Chalkduster" font-size="38.0" fill="#FEE55E" transform="matrix(1.00, 0.00, -0.00, -1.00, 369.9, 444.0)">a</text><text xml:space="preserve" font-family="Chalkduster,Chalkduster" font-size="38.0" fill="#FEE55E" transform="matrix(1.00, 0.00, -0.00, -1.00, 393.5, 444.0)">t</text><text xml:space="preserve" font-family="Chalkduster,Chalkduster" font-size="38.0" fill="#FEE55E" transform="matrix(1.00, 0.00, -0.00, -1.00, 411.0, 444.0)">i</text><text xml:space="preserve" font-family="Chalkduster,Chalkduster" font-size="38.0" fill="#FEE55E" transform="matrix(1.00, 0.00, -0.00, -1.00, 426.0, 444.0)">o</text><text xml:space="preserve" font-family="Chalkduster,Chalkduster" font-size="38.0" fill="#FEE55E" transform="matrix(1.00, 0.00, -0.00, -1.00, 454.3, 444.0)">n</text><text xml:space="preserve" font-family="Chalkduster,Chalkduster" font-size="38.0" fill="#FEE55E" transform="matrix(1.00, 0.00, -0.00, -1.00, 482.2, 444.0)"> </text><text xml:space="preserve" font-family="Chalkduster,Chalkduster" font-size="38.0" fill="#FEE55E" transform="matrix(1.00, 0.00, -0.00, -1.00, 501.1, 444.0)">i</text><text xml:space="preserve" font-family="Chalkduster,Chalkduster" font-size="38.0" fill="#FEE55E" transform="matrix(1.00, 0.00, -0.00, -1.00, 516.1, 444.0)">m</text><text xml:space="preserve" font-family="Chalkduster,Chalkduster" font-size="38.0" fill="#FEE55E" transform="matrix(1.00, 0.00, -0.00, -1.00, 554.6, 444.0)">a</text><text xml:space="preserve" font-family="Chalkduster,Chalkduster" font-size="38.0" fill="#FEE55E" transform="matrix(1.00, 0.00, -0.00, -1.00, 578.8, 444.0)">g</text><text xml:space="preserve" font-family="Chalkduster,Chalkduster" font-size="38.0" fill="#FEE55E" transform="matrix(1.00, 0.00, -0.00, -1.00, 605.3, 444.0)">e</text><text xml:space="preserve" font-family="Chalkduster,Chalkduster" font-size="38.0" fill="#FEE55E" transform="matrix(1.00, 0.00, -0.00, -1.00, 629.7, 444.0)">s</text><text xml:space="preserve" font-family="Chalkduster,Chalkduster" font-size="38.0" fill="#FEE55E" transform="matrix(1.00, 0.00, -0.00, -1.00, 648.9, 444.0)"> </text><text xml:space="preserve" font-family="Chalkduster,Chalkduster" font-size="38.0" fill="#FEE55E" transform="matrix(1.00, 0.00, -0.00, -1.00, 667.8, 444.0)">r</text><text xml:space="preserve" font-family="Chalkduster,Chalkduster" font-size="38.0" fill="#FEE55E" transform="matrix(1.00, 0.00, -0.00, -1.00, 687.0, 444.0)">e</text><text xml:space="preserve" font-family="Chalkduster,Chalkduster" font-size="38.0" fill="#FEE55E" transform="matrix(1.00, 0.00, -0.00, -1.00, 710.6, 444.0)">m</text><text xml:space="preserve" font-family="Chalkduster,Chalkduster" font-size="38.0" fill="#FEE55E" transform="matrix(1.00, 0.00, -0.00, -1.00, 749.0, 444.0)">o</text><text xml:space="preserve" font-family="Chalkduster,Chalkduster" font-size="38.0" fill="#FEE55E" transform="matrix(1.00, 0.00, -0.00, -1.00, 777.5, 444.0)">v</text><text xml:space="preserve" font-family="Chalkduster,Chalkduster" font-size="38.0" fill="#FEE55E" transform="matrix(1.00, 0.00, -0.00, -1.00, 800.9, 444.0)">e</text><text xml:space="preserve" font-family="Chalkduster,Chalkduster" font-size="38.0" fill="#FEE55E" transform="matrix(1.00, 0.00, -0.00, -1.00, 825.6, 444.0)">d</text><text xml:space="preserve" font-family="Chalkduster,Chalkduster" font-size="38.0" fill="#FEE55E" transform="matrix(1.00, 0.00, -0.00, -1.00, 855.3, 444.0)"> </text><image xlink:href="../../A0EEFD94-0412-47FE-895E-B9099E2DA879/assets/962FB19D5C43ED28DF8105FA85B6945C.png" width="409.00" height="60.00" transform="matrix(1.00, 0.00, -0.00, -1.00, 307.0, 379.0)"></image><text xml:space="preserve" font-family="Chalkduster,Chalkduster" font-size="38.0" fill="#FEE55E" transform="matrix(1.00, 0.00, -0.00, -1.00, 310.6, 346.0)">P</text><text xml:space="preserve" font-family="Chalkduster,Chalkduster" font-size="38.0" fill="#FEE55E" transform="matrix(1.00, 0.00, -0.00, -1.00, 334.8, 346.0)">o</text><text xml:space="preserve" font-family="Chalkduster,Chalkduster" font-size="38.0" fill="#FEE55E" transform="matrix(1.00, 0.00, -0.00, -1.00, 362.5, 346.0)">r</text><text xml:space="preserve" font-family="Chalkduster,Chalkduster" font-size="38.0" fill="#FEE55E" transform="matrix(1.00, 0.00, -0.00, -1.00, 382.6, 346.0)">t</text><text xml:space="preserve" font-family="Chalkduster,Chalkduster" font-size="38.0" fill="#FEE55E" transform="matrix(1.00, 0.00, -0.00, -1.00, 399.5, 346.0)">a</text><text xml:space="preserve" font-family="Chalkduster,Chalkduster" font-size="38.0" fill="#FEE55E" transform="matrix(1.00, 0.00, -0.00, -1.00, 425.7, 346.0)"> </text><text xml:space="preserve" font-family="Chalkduster,Chalkduster" font-size="38.0" fill="#FEE55E" transform="matrix(1.00, 0.00, -0.00, -1.00, 444.6, 346.0)">h</text><text xml:space="preserve" font-family="Chalkduster,Chalkduster" font-size="38.0" fill="#FEE55E" transform="matrix(1.00, 0.00, -0.00, -1.00, 468.1, 346.0)">e</text><text xml:space="preserve" font-family="Chalkduster,Chalkduster" font-size="38.0" fill="#FEE55E" transform="matrix(1.00, 0.00, -0.00, -1.00, 492.3, 346.0)">p</text><text xml:space="preserve" font-family="Chalkduster,Chalkduster" font-size="38.0" fill="#FEE55E" transform="matrix(1.00, 0.00, -0.00, -1.00, 515.7, 346.0)">a</text><text xml:space="preserve" font-family="Chalkduster,Chalkduster" font-size="38.0" fill="#FEE55E" transform="matrix(1.00, 0.00, -0.00, -1.00, 539.3, 346.0)">t</text><text xml:space="preserve" font-family="Chalkduster,Chalkduster" font-size="38.0" fill="#FEE55E" transform="matrix(1.00, 0.00, -0.00, -1.00, 556.9, 346.0)">i</text><text xml:space="preserve" font-family="Chalkduster,Chalkduster" font-size="38.0" fill="#FEE55E" transform="matrix(1.00, 0.00, -0.00, -1.00, 571.9, 346.0)">s</text><text xml:space="preserve" font-family="Chalkduster,Chalkduster" font-size="38.0" fill="#FEE55E" transform="matrix(1.00, 0.00, -0.00, -1.00, 591.1, 346.0)"> </text><text xml:space="preserve" font-family="Chalkduster,Chalkduster" font-size="38.0" fill="#FEE55E" transform="matrix(1.00, 0.00, -0.00, -1.00, 610.0, 346.0)">m</text><text xml:space="preserve" font-family="Chalkduster,Chalkduster" font-size="38.0" fill="#FEE55E" transform="matrix(1.00, 0.00, -0.00, -1.00, 648.4, 346.0)">a</text><text xml:space="preserve" font-family="Chalkduster,Chalkduster" font-size="38.0" fill="#FEE55E" transform="matrix(1.00, 0.00, -0.00, -1.00, 675.1, 346.0)">s</text><text xml:space="preserve" font-family="Chalkduster,Chalkduster" font-size="38.0" fill="#FEE55E" transform="matrix(1.00, 0.00, -0.00, -1.00, 694.3, 346.0)">s</text><text xml:space="preserve" font-family=".HelveticaNeueDeskInterface-Regular,.Helvetica Neue DeskInterface" font-size="38.0" fill="#FEE55E" transform="matrix(1.00, 0.00, -0.00, -1.00, 713.4, 346.0)"> </text><image xlink:href="../../A0EEFD94-0412-47FE-895E-B9099E2DA879/assets/1B7A1D2C84C42C91E4D8043BF3A88685.png" width="453.00" height="66.00" transform="matrix(1.00, 0.00, -0.00, -1.00, 286.0, 336.0)"></image><text xml:space="preserve" font-family="Chalkduster,Chalkduster" font-size="38.0" fill="#FEE55E" transform="matrix(1.00, 0.00, -0.00, -1.00, 288.8, 297.0)">s</text><text xml:space="preserve" font-family="Chalkduster,Chalkduster" font-size="38.0" fill="#FEE55E" transform="matrix(1.00, 0.00, -0.00, -1.00, 308.0, 297.0)">i</text><text xml:space="preserve" font-family="Chalkduster,Chalkduster" font-size="38.0" fill="#FEE55E" transform="matrix(1.00, 0.00, -0.00, -1.00, 323.0, 297.0)">g</text><text xml:space="preserve" font-family="Chalkduster,Chalkduster" font-size="38.0" fill="#FEE55E" transform="matrix(1.00, 0.00, -0.00, -1.00, 349.4, 297.0)">n</text><text xml:space="preserve" font-family="Chalkduster,Chalkduster" font-size="38.0" fill="#FEE55E" transform="matrix(1.00, 0.00, -0.00, -1.00, 378.0, 297.0)">i</text><text xml:space="preserve" font-family="Chalkduster,Chalkduster" font-size="38.0" fill="#FEE55E" transform="matrix(1.00, 0.00, -0.00, -1.00, 391.2, 297.0)">f</text><text xml:space="preserve" font-family="Chalkduster,Chalkduster" font-size="38.0" fill="#FEE55E" transform="matrix(1.00, 0.00, -0.00, -1.00, 411.4, 297.0)">i</text><text xml:space="preserve" font-family="Chalkduster,Chalkduster" font-size="38.0" fill="#FEE55E" transform="matrix(1.00, 0.00, -0.00, -1.00, 426.8, 297.0)">c</text><text xml:space="preserve" font-family="Chalkduster,Chalkduster" font-size="38.0" fill="#FEE55E" transform="matrix(1.00, 0.00, -0.00, -1.00, 449.3, 297.0)">a</text><text xml:space="preserve" font-family="Chalkduster,Chalkduster" font-size="38.0" fill="#FEE55E" transform="matrix(1.00, 0.00, -0.00, -1.00, 475.5, 297.0)">n</text><text xml:space="preserve" font-family="Chalkduster,Chalkduster" font-size="38.0" fill="#FEE55E" transform="matrix(1.00, 0.00, -0.00, -1.00, 501.9, 297.0)">t</text><text xml:space="preserve" font-family="Chalkduster,Chalkduster" font-size="38.0" fill="#FEE55E" transform="matrix(1.00, 0.00, -0.00, -1.00, 519.3, 297.0)">l</text><text xml:space="preserve" font-family="Chalkduster,Chalkduster" font-size="38.0" fill="#FEE55E" transform="matrix(1.00, 0.00, -0.00, -1.00, 534.7, 297.0)">y</text><text xml:space="preserve" font-family="Chalkduster,Chalkduster" font-size="38.0" fill="#FEE55E" transform="matrix(1.00, 0.00, -0.00, -1.00, 557.8, 297.0)"> </text><text xml:space="preserve" font-family="Chalkduster,Chalkduster" font-size="38.0" fill="#FEE55E" transform="matrix(1.00, 0.00, -0.00, -1.00, 576.7, 297.0)">s</text><text xml:space="preserve" font-family="Chalkduster,Chalkduster" font-size="38.0" fill="#FEE55E" transform="matrix(1.00, 0.00, -0.00, -1.00, 595.9, 297.0)">m</text><text xml:space="preserve" font-family="Chalkduster,Chalkduster" font-size="38.0" fill="#FEE55E" transform="matrix(1.00, 0.00, -0.00, -1.00, 634.4, 297.0)">a</text><text xml:space="preserve" font-family="Chalkduster,Chalkduster" font-size="38.0" fill="#FEE55E" transform="matrix(1.00, 0.00, -0.00, -1.00, 659.0, 297.0)">l</text><text xml:space="preserve" font-family="Chalkduster,Chalkduster" font-size="38.0" fill="#FEE55E" transform="matrix(1.00, 0.00, -0.00, -1.00, 676.2, 297.0)">l</text><text xml:space="preserve" font-family="Chalkduster,Chalkduster" font-size="38.0" fill="#FEE55E" transform="matrix(1.00, 0.00, -0.00, -1.00, 692.0, 297.0)">e</text><text xml:space="preserve" font-family="Chalkduster,Chalkduster" font-size="38.0" fill="#FEE55E" transform="matrix(1.00, 0.00, -0.00, -1.00, 715.1, 297.0)">r</text></g></svg>