<?xml version="1.0" encoding="UTF-8" standalone="no"?><svg xmlns="http://www.w3.org/2000/svg" xmlns:xlink="http://www.w3.org/1999/xlink" clip-rule="evenodd" stroke-miterlimit="4.00" viewBox="0 0 1024 768"><desc>SVG generated by Keynote</desc><defs></defs><g transform="matrix(1.00, 0.00, -0.00, -1.00, 0.0, 768.0)"><path d="M 0.0 768.0 L 1024.0 768.0 L 1024.0 0.0 L 0.0 0.0 Z M 0.0 768.0 " fill="#FEFFFE"></path><g><clipPath id="clip-301"><path d="M 0.0 725.0 L 1024.0 725.0 L 1024.0 760.0 L 0.0 760.0 Z M 0.0 725.0 "></path></clipPath><g clip-path="url(#clip-301)"><image xlink:href="../../7DADF203-883D-48A2-9CE7-D05C13A32AE8/assets/13517D532614FE47B4EEB7D34090B065.png" width="2432.00" height="82.00" transform="matrix(0.42, 0.00, -0.00, -0.43, 0.0, 760.0)"></image></g></g><g><clipPath id="clip-302"><path d="M 1.0 760.0 L 621.0 760.0 L 621.0 728.0 L 1.0 728.0 Z M 1.3 760.4 "></path></clipPath><g clip-path="url(#clip-302)"><g><clipPath id="clip-303"><path d="M 1.0 721.0 L 1025.0 721.0 L 1025.0 884.0 L 1.0 884.0 Z M 1.0 721.0 "></path></clipPath><g clip-path="url(#clip-303)"><image xlink:href="../../7DADF203-883D-48A2-9CE7-D05C13A32AE8/assets/D4B75FC0E8ED425EAB0316F8DF7E9B2A.png" width="2438.00" height="388.00" transform="matrix(0.42, 0.00, -0.00, -0.42, 1.0, 884.0)"></image></g></g></g></g><g><clipPath id="clip-304"><path d="M 0.0 241.0 L 1024.0 241.0 L 1024.0 712.0 L 0.0 712.0 Z M 0.0 241.0 "></path></clipPath><g clip-path="url(#clip-304)"><image xlink:href="010A93DFA3252E9446011AFBEA70EB75.png" width="2454.00" height="1128.00" transform="matrix(0.42, 0.00, -0.00, -0.42, 0.0, 712.0)"></image></g></g></g></svg>