<?xml version="1.0" encoding="UTF-8" standalone="no"?><svg xmlns="http://www.w3.org/2000/svg" xmlns:xlink="http://www.w3.org/1999/xlink" clip-rule="evenodd" stroke-miterlimit="4.00" viewBox="0 0 392 143"><desc>SVG generated by Keynote</desc><defs></defs><g transform="matrix(1.00, 0.00, -0.00, -1.00, 0.0, 143.0)"><g><clipPath id="clip-260"><path d="M 9.6 66.5 L 9.6 142.5 L 48.7 142.5 L 48.7 66.5 Z M 9.6 66.5 "></path></clipPath><g clip-path="url(#clip-260)"><path d="M 35.8 113.6 L 45.9 113.6 L 29.2 139.7 L 12.4 113.6 L 22.5 113.6 L 22.5 68.5 L 35.8 68.5 Z M 35.8 113.6 " fill="#A85648"></path><path d="M 45.1 23.4 L 45.1 33.4 L 71.2 16.7 L 45.1 0.0 L 45.1 10.1 L 0.0 10.1 L 0.0 23.4 Z M 45.1 23.4 " fill="none" stroke="#763A33" stroke-width="2.00" transform="matrix(0.00, 1.00, 1.00, 0.00, 12.4, 68.5)"></path></g></g><g><clipPath id="clip-261"><path d="M -4.8 5.6 L 63.1 5.6 L 63.1 71.1 L -4.8 71.1 Z M -4.8 5.6 "></path></clipPath><g clip-path="url(#clip-261)"><text xml:space="preserve" font-family="HelveticaNeue-Bold" font-weight="bold" font-size="36.0" fill="#000000" transform="matrix(1.00, 0.00, -0.00, -1.00, 6.0, 25.0)">C</text><text xml:space="preserve" font-family="HelveticaNeue-Bold" font-weight="bold" font-size="36.0" fill="#000000" transform="matrix(1.00, 0.00, -0.00, -1.00, 32.7, 25.0)">y</text></g></g><g><clipPath id="clip-262"><path d="M 344.2 66.5 L 344.2 142.5 L 383.3 142.5 L 383.3 66.5 Z M 344.2 66.5 "></path></clipPath><g clip-path="url(#clip-262)"><path d="M 370.4 113.6 L 380.5 113.6 L 363.8 139.7 L 347.1 113.6 L 357.1 113.6 L 357.1 68.5 L 370.4 68.5 Z M 370.4 113.6 " fill="#A85648"></path><path d="M 45.1 23.4 L 45.1 33.4 L 71.2 16.7 L 45.1 0.0 L 45.1 10.1 L 0.0 10.1 L 0.0 23.4 Z M 45.1 23.4 " fill="none" stroke="#763A33" stroke-width="2.00" transform="matrix(0.00, 1.00, 1.00, 0.00, 347.1, 68.5)"></path></g></g><g><clipPath id="clip-263"><path d="M 329.9 5.6 L 397.7 5.6 L 397.7 71.1 L 329.9 71.1 Z M 329.9 5.6 "></path></clipPath><g clip-path="url(#clip-263)"><text xml:space="preserve" font-family="HelveticaNeue-Bold" font-weight="bold" font-size="36.0" fill="#000000" transform="matrix(1.00, 0.00, -0.00, -1.00, 341.0, 25.0)">C</text><text xml:space="preserve" font-family="HelveticaNeue-Bold" font-weight="bold" font-size="36.0" fill="#000000" transform="matrix(1.00, 0.00, -0.00, -1.00, 367.7, 25.0)">y</text></g></g><g><clipPath id="clip-264"><path d="M 119.9 66.5 L 119.9 142.5 L 158.9 142.5 L 158.9 66.5 Z M 119.9 66.5 "></path></clipPath><g clip-path="url(#clip-264)"><path d="M 146.0 113.6 L 156.1 113.6 L 139.4 139.7 L 122.7 113.6 L 132.8 113.6 L 132.8 68.5 L 146.0 68.5 Z M 146.0 113.6 " fill="#FEFB00"></path><path d="M 45.1 23.4 L 45.1 33.4 L 71.2 16.7 L 45.1 0.0 L 45.1 10.1 L 0.0 10.1 L 0.0 23.4 Z M 45.1 23.4 " fill="none" stroke="#000000" stroke-width="2.00" transform="matrix(0.00, 1.00, 1.00, 0.00, 122.7, 68.5)"></path></g></g><g><clipPath id="clip-265"><path d="M 102.5 -13.4 L 176.3 -13.4 L 176.3 74.1 L 102.5 74.1 Z M 102.5 -13.4 "></path></clipPath><g clip-path="url(#clip-265)"><text xml:space="preserve" font-family="AppleSymbols" font-size="60.0" fill="#000000" transform="matrix(1.00, 0.00, -0.00, -1.00, 117.0, 20.0)">☢</text></g></g><g><clipPath id="clip-266"><path d="M 176.9 66.5 L 176.9 142.5 L 216.0 142.5 L 216.0 66.5 Z M 176.9 66.5 "></path></clipPath><g clip-path="url(#clip-266)"><path d="M 203.1 113.6 L 213.2 113.6 L 196.5 139.7 L 179.7 113.6 L 189.8 113.6 L 189.8 68.5 L 203.1 68.5 Z M 203.1 113.6 " fill="#FF2600"></path><path d="M 45.1 23.4 L 45.1 33.4 L 71.2 16.7 L 45.1 0.0 L 45.1 10.1 L 0.0 10.1 L 0.0 23.4 Z M 45.1 23.4 " fill="none" stroke="#163D40" stroke-width="2.00" transform="matrix(0.00, 1.00, 1.00, 0.00, 179.7, 68.5)"></path></g></g></g></svg>