<?xml version="1.0" encoding="UTF-8" standalone="no"?><svg xmlns="http://www.w3.org/2000/svg" xmlns:xlink="http://www.w3.org/1999/xlink" clip-rule="evenodd" stroke-miterlimit="4.00" viewBox="0 0 1024 768"><desc>SVG generated by Keynote</desc><defs></defs><g transform="matrix(1.00, 0.00, -0.00, -1.00, 0.0, 768.0)"><path d="M 0.0 768.0 L 1024.0 768.0 L 1024.0 0.0 L 0.0 0.0 Z M 0.0 768.0 " fill="#FEFFFE"></path><g><clipPath id="clip-64"><path d="M 558.0 562.0 L 958.0 562.0 L 958.0 322.0 L 558.0 322.0 Z M 558.1 561.8 "></path></clipPath><g clip-path="url(#clip-64)"><image xlink:href="927D540BF1FFA82AE02191CE307875C2.png" width="400.00" height="400.00" transform="matrix(1.00, 0.00, -0.00, -1.00, 558.0, 646.0)"></image></g></g><path d="M 562.5 540.5 L 562.5 506.5 L 626.5 556.5 L 562.5 606.5 L 562.5 572.5 L 219.0 572.5 L 219.0 540.5 Z M 562.5 540.5 " fill="#325D6A"></path><g><clipPath id="clip-65"><path d="M 669.0 745.0 L 883.0 745.0 L 883.0 565.0 L 669.0 565.0 Z M 669.0 744.8 "></path></clipPath><g clip-path="url(#clip-65)"><image xlink:href="1772D26EE6459D1F5AB207EDCA18956E.png" width="249.00" height="249.00" transform="matrix(1.00, 0.00, -0.00, -1.00, 652.0, 779.0)"></image></g></g><text xml:space="preserve" font-family="HelveticaNeue-Light" font-size="36.0" fill="#000000" transform="matrix(1.00, 0.00, -0.00, -1.00, 78.0, 385.0)">a</text><text xml:space="preserve" font-family="HelveticaNeue-Light" font-size="36.0" fill="#000000" transform="matrix(1.00, 0.00, -0.00, -1.00, 96.7, 385.0)">l</text><text xml:space="preserve" font-family="HelveticaNeue-Light" font-size="36.0" fill="#000000" transform="matrix(1.00, 0.00, -0.00, -1.00, 103.3, 385.0)">d</text><text xml:space="preserve" font-family="HelveticaNeue-Light" font-size="36.0" fill="#000000" transform="matrix(1.00, 0.00, -0.00, -1.00, 124.0, 385.0)">o</text><text xml:space="preserve" font-family="HelveticaNeue-Light" font-size="36.0" fill="#000000" transform="matrix(1.00, 0.00, -0.00, -1.00, 144.0, 385.0)">p</text><text xml:space="preserve" font-family="HelveticaNeue-Light" font-size="36.0" fill="#000000" transform="matrix(1.00, 0.00, -0.00, -1.00, 164.7, 385.0)">h</text><text xml:space="preserve" font-family="HelveticaNeue-Light" font-size="36.0" fill="#000000" transform="matrix(1.00, 0.00, -0.00, -1.00, 184.0, 385.0)">o</text><text xml:space="preserve" font-family="HelveticaNeue-Light" font-size="36.0" fill="#000000" transform="matrix(1.00, 0.00, -0.00, -1.00, 204.0, 385.0)">s</text><text xml:space="preserve" font-family="HelveticaNeue-Light" font-size="36.0" fill="#000000" transform="matrix(1.00, 0.00, -0.00, -1.00, 221.4, 385.0)">p</text><text xml:space="preserve" font-family="HelveticaNeue-Light" font-size="36.0" fill="#000000" transform="matrix(1.00, 0.00, -0.00, -1.00, 242.0, 385.0)">h</text><text xml:space="preserve" font-family="HelveticaNeue-Light" font-size="36.0" fill="#000000" transform="matrix(1.00, 0.00, -0.00, -1.00, 261.3, 385.0)">a</text><text xml:space="preserve" font-family="HelveticaNeue-Light" font-size="36.0" fill="#000000" transform="matrix(1.00, 0.00, -0.00, -1.00, 280.0, 385.0)">m</text><text xml:space="preserve" font-family="HelveticaNeue-Light" font-size="36.0" fill="#000000" transform="matrix(1.00, 0.00, -0.00, -1.00, 310.0, 385.0)">i</text><text xml:space="preserve" font-family="HelveticaNeue-Light" font-size="36.0" fill="#000000" transform="matrix(1.00, 0.00, -0.00, -1.00, 316.7, 385.0)">d</text><text xml:space="preserve" font-family="HelveticaNeue-Light" font-size="36.0" fill="#000000" transform="matrix(1.00, 0.00, -0.00, -1.00, 337.3, 385.0)">e</text><g><clipPath id="clip-66"><path d="M 31.0 742.0 L 431.0 742.0 L 431.0 435.0 L 31.0 435.0 Z M 30.7 741.5 "></path></clipPath><g clip-path="url(#clip-66)"><image xlink:href="DEFA7DE147E45776627C0E92248AC95C.png" width="400.00" height="400.00" transform="matrix(1.00, 0.00, -0.00, -1.00, 31.0, 788.0)"></image></g></g><text xml:space="preserve" font-family="HelveticaNeue-Light" font-size="36.0" fill="#000000" transform="matrix(1.00, 0.00, -0.00, -1.00, 637.0, 716.0)">a</text><text xml:space="preserve" font-family="HelveticaNeue-Light" font-size="36.0" fill="#000000" transform="matrix(1.00, 0.00, -0.00, -1.00, 655.7, 716.0)">c</text><text xml:space="preserve" font-family="HelveticaNeue-Light" font-size="36.0" fill="#000000" transform="matrix(1.00, 0.00, -0.00, -1.00, 674.4, 716.0)">r</text><text xml:space="preserve" font-family="HelveticaNeue-Light" font-size="36.0" fill="#000000" transform="matrix(1.00, 0.00, -0.00, -1.00, 685.1, 716.0)">o</text><text xml:space="preserve" font-family="HelveticaNeue-Light" font-size="36.0" fill="#000000" transform="matrix(1.00, 0.00, -0.00, -1.00, 705.1, 716.0)">l</text><text xml:space="preserve" font-family="HelveticaNeue-Light" font-size="36.0" fill="#000000" transform="matrix(1.00, 0.00, -0.00, -1.00, 711.7, 716.0)">e</text><text xml:space="preserve" font-family="HelveticaNeue-Light" font-size="36.0" fill="#000000" transform="matrix(1.00, 0.00, -0.00, -1.00, 730.4, 716.0)">i</text><text xml:space="preserve" font-family="HelveticaNeue-Light" font-size="36.0" fill="#000000" transform="matrix(1.00, 0.00, -0.00, -1.00, 737.1, 716.0)">n</text><text xml:space="preserve" font-family="HelveticaNeue-Bold" font-weight="bold" font-size="36.0" fill="#763A33" transform="matrix(1.00, 0.00, -0.00, -1.00, 547.0, 291.0)">p</text><text xml:space="preserve" font-family="HelveticaNeue-Bold" font-weight="bold" font-size="36.0" fill="#763A33" transform="matrix(1.00, 0.00, -0.00, -1.00, 569.0, 291.0)">h</text><text xml:space="preserve" font-family="HelveticaNeue-Bold" font-weight="bold" font-size="36.0" fill="#763A33" transform="matrix(1.00, 0.00, -0.00, -1.00, 590.3, 291.0)">o</text><text xml:space="preserve" font-family="HelveticaNeue-Bold" font-weight="bold" font-size="36.0" fill="#763A33" transform="matrix(1.00, 0.00, -0.00, -1.00, 612.3, 291.0)">s</text><text xml:space="preserve" font-family="HelveticaNeue-Bold" font-weight="bold" font-size="36.0" fill="#763A33" transform="matrix(1.00, 0.00, -0.00, -1.00, 631.7, 291.0)">p</text><text xml:space="preserve" font-family="HelveticaNeue-Bold" font-weight="bold" font-size="36.0" fill="#763A33" transform="matrix(1.00, 0.00, -0.00, -1.00, 653.7, 291.0)">h</text><text xml:space="preserve" font-family="HelveticaNeue-Bold" font-weight="bold" font-size="36.0" fill="#763A33" transform="matrix(1.00, 0.00, -0.00, -1.00, 675.0, 291.0)">o</text><text xml:space="preserve" font-family="HelveticaNeue-Bold" font-weight="bold" font-size="36.0" fill="#763A33" transform="matrix(1.00, 0.00, -0.00, -1.00, 697.0, 291.0)">r</text><text xml:space="preserve" font-family="HelveticaNeue-Bold" font-weight="bold" font-size="36.0" fill="#763A33" transform="matrix(1.00, 0.00, -0.00, -1.00, 711.0, 291.0)">a</text><text xml:space="preserve" font-family="HelveticaNeue-Bold" font-weight="bold" font-size="36.0" fill="#763A33" transform="matrix(1.00, 0.00, -0.00, -1.00, 731.7, 291.0)">m</text><text xml:space="preserve" font-family="HelveticaNeue-Bold" font-weight="bold" font-size="36.0" fill="#763A33" transform="matrix(1.00, 0.00, -0.00, -1.00, 764.3, 291.0)">i</text><text xml:space="preserve" font-family="HelveticaNeue-Bold" font-weight="bold" font-size="36.0" fill="#763A33" transform="matrix(1.00, 0.00, -0.00, -1.00, 773.6, 291.0)">d</text><text xml:space="preserve" font-family="HelveticaNeue-Bold" font-weight="bold" font-size="36.0" fill="#763A33" transform="matrix(1.00, 0.00, -0.00, -1.00, 795.6, 291.0)">e</text><text xml:space="preserve" font-family="HelveticaNeue-Bold" font-weight="bold" font-size="36.0" fill="#763A33" transform="matrix(1.00, 0.00, -0.00, -1.00, 816.2, 291.0)"> </text><text xml:space="preserve" font-family="HelveticaNeue-Bold" font-weight="bold" font-size="36.0" fill="#763A33" transform="matrix(1.00, 0.00, -0.00, -1.00, 826.3, 291.0)">m</text><text xml:space="preserve" font-family="HelveticaNeue-Bold" font-weight="bold" font-size="36.0" fill="#763A33" transform="matrix(1.00, 0.00, -0.00, -1.00, 858.9, 291.0)">u</text><text xml:space="preserve" font-family="HelveticaNeue-Bold" font-weight="bold" font-size="36.0" fill="#763A33" transform="matrix(1.00, 0.00, -0.00, -1.00, 880.2, 291.0)">s</text><text xml:space="preserve" font-family="HelveticaNeue-Bold" font-weight="bold" font-size="36.0" fill="#763A33" transform="matrix(1.00, 0.00, -0.00, -1.00, 899.5, 291.0)">t</text><text xml:space="preserve" font-family="HelveticaNeue-Bold" font-weight="bold" font-size="36.0" fill="#763A33" transform="matrix(1.00, 0.00, -0.00, -1.00, 912.2, 291.0)">a</text><text xml:space="preserve" font-family="HelveticaNeue-Bold" font-weight="bold" font-size="36.0" fill="#763A33" transform="matrix(1.00, 0.00, -0.00, -1.00, 932.9, 291.0)">r</text><text xml:space="preserve" font-family="HelveticaNeue-Bold" font-weight="bold" font-size="36.0" fill="#763A33" transform="matrix(1.00, 0.00, -0.00, -1.00, 946.2, 291.0)">d</text></g></svg>