<?xml version="1.0" encoding="UTF-8" standalone="no"?><svg xmlns="http://www.w3.org/2000/svg" xmlns:xlink="http://www.w3.org/1999/xlink" clip-rule="evenodd" stroke-miterlimit="10" viewBox="0 0 1024 768"><desc>SVG generated by Keynote</desc><defs></defs><g transform="matrix(1.00, 0.00, -0.00, -1.00, 0.0, 768.0)"><g><clipPath id="clip0x7fba7dd4dec0"><path d="M 0.0 768.0 L 1024.0 768.0 L 1024.0 0.0 L 0.0 0.0 Z M 0.0 768.0 "></path></clipPath><g clip-path="url(#clip0x7fba7dd4dec0)"><image xlink:href="../../384E26B0-0AD0-495F-BA75-267B55ABD0BD/assets/31D284A5C75E14674D2A89FDB99F8048.jpeg" width="2048.00" height="1536.00" transform="matrix(0.50, 0.00, -0.00, -0.50, 0.0, 768.0)"></image></g></g><image xlink:href="../../4F04C137-1FFB-4AD3-9412-C3125C298134/assets/E13B3B8E14176A38262F724C31B8FCB7.png" width="287.00" height="32.00" transform="matrix(1.00, 0.00, -0.00, -1.00, 716.0, 224.0)"></image><text xml:space="preserve" font-family="HelveticaNeue-Medium,Helvetica Neue" font-size="26.0" fill="#EAEAEA" transform="matrix(1.00, 0.00, -0.00, -1.00, 718.6, 203.0)">D</text><text xml:space="preserve" font-family="HelveticaNeue-Medium,Helvetica Neue" font-size="26.0" fill="#EAEAEA" transform="matrix(1.00, 0.00, -0.00, -1.00, 737.4, 203.0)">o</text><text xml:space="preserve" font-family="HelveticaNeue-Medium,Helvetica Neue" font-size="26.0" fill="#EAEAEA" transform="matrix(1.00, 0.00, -0.00, -1.00, 752.8, 203.0)">w</text><text xml:space="preserve" font-family="HelveticaNeue-Medium,Helvetica Neue" font-size="26.0" fill="#EAEAEA" transform="matrix(1.00, 0.00, -0.00, -1.00, 773.0, 203.0)">s</text><text xml:space="preserve" font-family="HelveticaNeue-Medium,Helvetica Neue" font-size="26.0" fill="#EAEAEA" transform="matrix(1.00, 0.00, -0.00, -1.00, 786.5, 203.0)">e</text><text xml:space="preserve" font-family="HelveticaNeue-Medium,Helvetica Neue" font-size="26.0" fill="#EAEAEA" transform="matrix(1.00, 0.00, -0.00, -1.00, 801.0, 203.0)">t</text><text xml:space="preserve" font-family="HelveticaNeue-Medium,Helvetica Neue" font-size="26.0" fill="#EAEAEA" transform="matrix(1.00, 0.00, -0.00, -1.00, 809.6, 203.0)">t</text><text xml:space="preserve" font-family="HelveticaNeue-Medium,Helvetica Neue" font-size="26.0" fill="#EAEAEA" transform="matrix(1.00, 0.00, -0.00, -1.00, 818.3, 203.0)"> </text><text xml:space="preserve" font-family="HelveticaNeue-Medium,Helvetica Neue" font-size="26.0" fill="#EAEAEA" transform="matrix(1.00, 0.00, -0.00, -1.00, 825.5, 203.0)">M</text><text xml:space="preserve" font-family="HelveticaNeue-Medium,Helvetica Neue" font-size="26.0" fill="#EAEAEA" transform="matrix(1.00, 0.00, -0.00, -1.00, 848.6, 203.0)">,</text><text xml:space="preserve" font-family="HelveticaNeue-Medium,Helvetica Neue" font-size="26.0" fill="#EAEAEA" transform="matrix(1.00, 0.00, -0.00, -1.00, 855.8, 203.0)"> </text><text xml:space="preserve" font-family="HelveticaNeue-Medium,Helvetica Neue" font-size="26.0" fill="#EAEAEA" transform="matrix(1.00, 0.00, -0.00, -1.00, 863.1, 203.0)">e</text><text xml:space="preserve" font-family="HelveticaNeue-Medium,Helvetica Neue" font-size="26.0" fill="#EAEAEA" transform="matrix(1.00, 0.00, -0.00, -1.00, 877.5, 203.0)">t</text><text xml:space="preserve" font-family="HelveticaNeue-Medium,Helvetica Neue" font-size="26.0" fill="#EAEAEA" transform="matrix(1.00, 0.00, -0.00, -1.00, 886.2, 203.0)"> </text><text xml:space="preserve" font-family="HelveticaNeue-Medium,Helvetica Neue" font-size="26.0" fill="#EAEAEA" transform="matrix(1.00, 0.00, -0.00, -1.00, 893.4, 203.0)">a</text><text xml:space="preserve" font-family="HelveticaNeue-Medium,Helvetica Neue" font-size="26.0" fill="#EAEAEA" transform="matrix(1.00, 0.00, -0.00, -1.00, 907.9, 203.0)">l</text><text xml:space="preserve" font-family="HelveticaNeue-Medium,Helvetica Neue" font-size="26.0" fill="#EAEAEA" transform="matrix(1.00, 0.00, -0.00, -1.00, 914.1, 203.0)">.</text><text xml:space="preserve" font-family="HelveticaNeue-Medium,Helvetica Neue" font-size="26.0" fill="#EAEAEA" transform="matrix(1.00, 0.00, -0.00, -1.00, 921.4, 203.0)"> </text><text xml:space="preserve" font-family="HelveticaNeue-Medium,Helvetica Neue" font-size="26.0" fill="#EAEAEA" transform="matrix(1.00, 0.00, -0.00, -1.00, 928.6, 203.0)">M</text><text xml:space="preserve" font-family="HelveticaNeue-Medium,Helvetica Neue" font-size="26.0" fill="#EAEAEA" transform="matrix(1.00, 0.00, -0.00, -1.00, 951.7, 203.0)">e</text><text xml:space="preserve" font-family="HelveticaNeue-Medium,Helvetica Neue" font-size="26.0" fill="#EAEAEA" transform="matrix(1.00, 0.00, -0.00, -1.00, 966.2, 203.0)">t</text><text xml:space="preserve" font-family="HelveticaNeue-Medium,Helvetica Neue" font-size="26.0" fill="#EAEAEA" transform="matrix(1.00, 0.00, -0.00, -1.00, 974.8, 203.0)">a</text><text xml:space="preserve" font-family="HelveticaNeue-Medium,Helvetica Neue" font-size="26.0" fill="#EAEAEA" transform="matrix(1.00, 0.00, -0.00, -1.00, 989.3, 203.0)">-</text><image xlink:href="../../4F04C137-1FFB-4AD3-9412-C3125C298134/assets/9C6E8C2FAAA365A1E02D2C07D99C775B.png" width="318.00" height="33.00" transform="matrix(1.00, 0.00, -0.00, -1.00, 700.0, 192.0)"></image><text xml:space="preserve" font-family="HelveticaNeue-Medium,Helvetica Neue" font-size="26.0" fill="#EAEAEA" transform="matrix(1.00, 0.00, -0.00, -1.00, 704.3, 171.0)">A</text><text xml:space="preserve" font-family="HelveticaNeue-Medium,Helvetica Neue" font-size="26.0" fill="#EAEAEA" transform="matrix(1.00, 0.00, -0.00, -1.00, 721.7, 171.0)">n</text><text xml:space="preserve" font-family="HelveticaNeue-Medium,Helvetica Neue" font-size="26.0" fill="#EAEAEA" transform="matrix(1.00, 0.00, -0.00, -1.00, 736.6, 171.0)">a</text><text xml:space="preserve" font-family="HelveticaNeue-Medium,Helvetica Neue" font-size="26.0" fill="#EAEAEA" transform="matrix(1.00, 0.00, -0.00, -1.00, 751.1, 171.0)">l</text><text xml:space="preserve" font-family="HelveticaNeue-Medium,Helvetica Neue" font-size="26.0" fill="#EAEAEA" transform="matrix(1.00, 0.00, -0.00, -1.00, 757.3, 171.0)">y</text><text xml:space="preserve" font-family="HelveticaNeue-Medium,Helvetica Neue" font-size="26.0" fill="#EAEAEA" transform="matrix(1.00, 0.00, -0.00, -1.00, 770.8, 171.0)">s</text><text xml:space="preserve" font-family="HelveticaNeue-Medium,Helvetica Neue" font-size="26.0" fill="#EAEAEA" transform="matrix(1.00, 0.00, -0.00, -1.00, 784.3, 171.0)">i</text><text xml:space="preserve" font-family="HelveticaNeue-Medium,Helvetica Neue" font-size="26.0" fill="#EAEAEA" transform="matrix(1.00, 0.00, -0.00, -1.00, 790.6, 171.0)">s</text><text xml:space="preserve" font-family="HelveticaNeue-Medium,Helvetica Neue" font-size="26.0" fill="#EAEAEA" transform="matrix(1.00, 0.00, -0.00, -1.00, 804.1, 171.0)"> </text><text xml:space="preserve" font-family="HelveticaNeue-Medium,Helvetica Neue" font-size="26.0" fill="#EAEAEA" transform="matrix(1.00, 0.00, -0.00, -1.00, 811.3, 171.0)">o</text><text xml:space="preserve" font-family="HelveticaNeue-Medium,Helvetica Neue" font-size="26.0" fill="#EAEAEA" transform="matrix(1.00, 0.00, -0.00, -1.00, 826.7, 171.0)">f</text><text xml:space="preserve" font-family="HelveticaNeue-Medium,Helvetica Neue" font-size="26.0" fill="#EAEAEA" transform="matrix(1.00, 0.00, -0.00, -1.00, 834.9, 171.0)"> </text><text xml:space="preserve" font-family="HelveticaNeue-Medium,Helvetica Neue" font-size="26.0" fill="#EAEAEA" transform="matrix(1.00, 0.00, -0.00, -1.00, 842.1, 171.0)">B</text><text xml:space="preserve" font-family="HelveticaNeue-Medium,Helvetica Neue" font-size="26.0" fill="#EAEAEA" transform="matrix(1.00, 0.00, -0.00, -1.00, 860.4, 171.0)">r</text><text xml:space="preserve" font-family="HelveticaNeue-Medium,Helvetica Neue" font-size="26.0" fill="#EAEAEA" transform="matrix(1.00, 0.00, -0.00, -1.00, 869.1, 171.0)">e</text><text xml:space="preserve" font-family="HelveticaNeue-Medium,Helvetica Neue" font-size="26.0" fill="#EAEAEA" transform="matrix(1.00, 0.00, -0.00, -1.00, 883.6, 171.0)">a</text><text xml:space="preserve" font-family="HelveticaNeue-Medium,Helvetica Neue" font-size="26.0" fill="#EAEAEA" transform="matrix(1.00, 0.00, -0.00, -1.00, 898.0, 171.0)">s</text><text xml:space="preserve" font-family="HelveticaNeue-Medium,Helvetica Neue" font-size="26.0" fill="#EAEAEA" transform="matrix(1.00, 0.00, -0.00, -1.00, 911.5, 171.0)">t</text><text xml:space="preserve" font-family="HelveticaNeue-Medium,Helvetica Neue" font-size="26.0" fill="#EAEAEA" transform="matrix(1.00, 0.00, -0.00, -1.00, 920.2, 171.0)"> </text><text xml:space="preserve" font-family="HelveticaNeue-Medium,Helvetica Neue" font-size="26.0" fill="#EAEAEA" transform="matrix(1.00, 0.00, -0.00, -1.00, 927.4, 171.0)">C</text><text xml:space="preserve" font-family="HelveticaNeue-Medium,Helvetica Neue" font-size="26.0" fill="#EAEAEA" transform="matrix(1.00, 0.00, -0.00, -1.00, 946.2, 171.0)">a</text><text xml:space="preserve" font-family="HelveticaNeue-Medium,Helvetica Neue" font-size="26.0" fill="#EAEAEA" transform="matrix(1.00, 0.00, -0.00, -1.00, 960.7, 171.0)">n</text><text xml:space="preserve" font-family="HelveticaNeue-Medium,Helvetica Neue" font-size="26.0" fill="#EAEAEA" transform="matrix(1.00, 0.00, -0.00, -1.00, 975.6, 171.0)">c</text><text xml:space="preserve" font-family="HelveticaNeue-Medium,Helvetica Neue" font-size="26.0" fill="#EAEAEA" transform="matrix(1.00, 0.00, -0.00, -1.00, 990.0, 171.0)">e</text><text xml:space="preserve" font-family="HelveticaNeue-Medium,Helvetica Neue" font-size="26.0" fill="#EAEAEA" transform="matrix(1.00, 0.00, -0.00, -1.00, 1004.5, 171.0)">r</text><text xml:space="preserve" font-family="HelveticaNeue-Medium,Helvetica Neue" font-size="26.0" fill="#EAEAEA" transform="matrix(1.00, 0.00, -0.00, -1.00, 1013.6, 171.0)"> </text><image xlink:href="../../4F04C137-1FFB-4AD3-9412-C3125C298134/assets/A3828DE8170484C0992BA99399C65754.png" width="273.00" height="33.00" transform="matrix(1.00, 0.00, -0.00, -1.00, 723.0, 160.0)"></image><text xml:space="preserve" font-family="HelveticaNeue-Medium,Helvetica Neue" font-size="26.0" fill="#EAEAEA" transform="matrix(1.00, 0.00, -0.00, -1.00, 726.3, 139.0)">O</text><text xml:space="preserve" font-family="HelveticaNeue-Medium,Helvetica Neue" font-size="26.0" fill="#EAEAEA" transform="matrix(1.00, 0.00, -0.00, -1.00, 746.1, 139.0)">u</text><text xml:space="preserve" font-family="HelveticaNeue-Medium,Helvetica Neue" font-size="26.0" fill="#EAEAEA" transform="matrix(1.00, 0.00, -0.00, -1.00, 761.0, 139.0)">t</text><text xml:space="preserve" font-family="HelveticaNeue-Medium,Helvetica Neue" font-size="26.0" fill="#EAEAEA" transform="matrix(1.00, 0.00, -0.00, -1.00, 769.6, 139.0)">c</text><text xml:space="preserve" font-family="HelveticaNeue-Medium,Helvetica Neue" font-size="26.0" fill="#EAEAEA" transform="matrix(1.00, 0.00, -0.00, -1.00, 784.1, 139.0)">o</text><text xml:space="preserve" font-family="HelveticaNeue-Medium,Helvetica Neue" font-size="26.0" fill="#EAEAEA" transform="matrix(1.00, 0.00, -0.00, -1.00, 799.5, 139.0)">m</text><text xml:space="preserve" font-family="HelveticaNeue-Medium,Helvetica Neue" font-size="26.0" fill="#EAEAEA" transform="matrix(1.00, 0.00, -0.00, -1.00, 822.1, 139.0)">e</text><text xml:space="preserve" font-family="HelveticaNeue-Medium,Helvetica Neue" font-size="26.0" fill="#EAEAEA" transform="matrix(1.00, 0.00, -0.00, -1.00, 836.6, 139.0)">s</text><text xml:space="preserve" font-family="HelveticaNeue-Medium,Helvetica Neue" font-size="26.0" fill="#EAEAEA" transform="matrix(1.00, 0.00, -0.00, -1.00, 850.1, 139.0)"> </text><text xml:space="preserve" font-family="HelveticaNeue-Medium,Helvetica Neue" font-size="26.0" fill="#EAEAEA" transform="matrix(1.00, 0.00, -0.00, -1.00, 857.3, 139.0)">i</text><text xml:space="preserve" font-family="HelveticaNeue-Medium,Helvetica Neue" font-size="26.0" fill="#EAEAEA" transform="matrix(1.00, 0.00, -0.00, -1.00, 863.6, 139.0)">n</text><text xml:space="preserve" font-family="HelveticaNeue-Medium,Helvetica Neue" font-size="26.0" fill="#EAEAEA" transform="matrix(1.00, 0.00, -0.00, -1.00, 878.5, 139.0)"> </text><text xml:space="preserve" font-family="HelveticaNeue-Medium,Helvetica Neue" font-size="26.0" fill="#EAEAEA" transform="matrix(1.00, 0.00, -0.00, -1.00, 885.7, 139.0)">A</text><text xml:space="preserve" font-family="HelveticaNeue-Medium,Helvetica Neue" font-size="26.0" fill="#EAEAEA" transform="matrix(1.00, 0.00, -0.00, -1.00, 903.1, 139.0)">d</text><text xml:space="preserve" font-family="HelveticaNeue-Medium,Helvetica Neue" font-size="26.0" fill="#EAEAEA" transform="matrix(1.00, 0.00, -0.00, -1.00, 919.0, 139.0)">j</text><text xml:space="preserve" font-family="HelveticaNeue-Medium,Helvetica Neue" font-size="26.0" fill="#EAEAEA" transform="matrix(1.00, 0.00, -0.00, -1.00, 925.2, 139.0)">u</text><text xml:space="preserve" font-family="HelveticaNeue-Medium,Helvetica Neue" font-size="26.0" fill="#EAEAEA" transform="matrix(1.00, 0.00, -0.00, -1.00, 940.2, 139.0)">v</text><text xml:space="preserve" font-family="HelveticaNeue-Medium,Helvetica Neue" font-size="26.0" fill="#EAEAEA" transform="matrix(1.00, 0.00, -0.00, -1.00, 953.6, 139.0)">a</text><text xml:space="preserve" font-family="HelveticaNeue-Medium,Helvetica Neue" font-size="26.0" fill="#EAEAEA" transform="matrix(1.00, 0.00, -0.00, -1.00, 968.1, 139.0)">n</text><text xml:space="preserve" font-family="HelveticaNeue-Medium,Helvetica Neue" font-size="26.0" fill="#EAEAEA" transform="matrix(1.00, 0.00, -0.00, -1.00, 983.0, 139.0)">t</text><text xml:space="preserve" font-family="HelveticaNeue-Medium,Helvetica Neue" font-size="26.0" fill="#EAEAEA" transform="matrix(1.00, 0.00, -0.00, -1.00, 991.7, 139.0)"> </text><image xlink:href="../../4F04C137-1FFB-4AD3-9412-C3125C298134/assets/9FDDD0A50D490B8B4DA51BBAD0864A7F.png" width="238.00" height="28.00" transform="matrix(1.00, 0.00, -0.00, -1.00, 740.0, 128.0)"></image><text xml:space="preserve" font-family="HelveticaNeue-Medium,Helvetica Neue" font-size="26.0" fill="#EAEAEA" transform="matrix(1.00, 0.00, -0.00, -1.00, 743.8, 107.0)">T</text><text xml:space="preserve" font-family="HelveticaNeue-Medium,Helvetica Neue" font-size="26.0" fill="#EAEAEA" transform="matrix(1.00, 0.00, -0.00, -1.00, 756.9, 107.0)">r</text><text xml:space="preserve" font-family="HelveticaNeue-Medium,Helvetica Neue" font-size="26.0" fill="#EAEAEA" transform="matrix(1.00, 0.00, -0.00, -1.00, 766.0, 107.0)">i</text><text xml:space="preserve" font-family="HelveticaNeue-Medium,Helvetica Neue" font-size="26.0" fill="#EAEAEA" transform="matrix(1.00, 0.00, -0.00, -1.00, 772.3, 107.0)">a</text><text xml:space="preserve" font-family="HelveticaNeue-Medium,Helvetica Neue" font-size="26.0" fill="#EAEAEA" transform="matrix(1.00, 0.00, -0.00, -1.00, 786.7, 107.0)">l</text><text xml:space="preserve" font-family="HelveticaNeue-Medium,Helvetica Neue" font-size="26.0" fill="#EAEAEA" transform="matrix(1.00, 0.00, -0.00, -1.00, 793.0, 107.0)">s</text><text xml:space="preserve" font-family="HelveticaNeue-Medium,Helvetica Neue" font-size="26.0" fill="#EAEAEA" transform="matrix(1.00, 0.00, -0.00, -1.00, 806.5, 107.0)"> </text><text xml:space="preserve" font-family="HelveticaNeue-Medium,Helvetica Neue" font-size="26.0" fill="#EAEAEA" transform="matrix(1.00, 0.00, -0.00, -1.00, 813.7, 107.0)">o</text><text xml:space="preserve" font-family="HelveticaNeue-Medium,Helvetica Neue" font-size="26.0" fill="#EAEAEA" transform="matrix(1.00, 0.00, -0.00, -1.00, 829.1, 107.0)">f</text><text xml:space="preserve" font-family="HelveticaNeue-Medium,Helvetica Neue" font-size="26.0" fill="#EAEAEA" transform="matrix(1.00, 0.00, -0.00, -1.00, 837.3, 107.0)"> </text><text xml:space="preserve" font-family="HelveticaNeue-Medium,Helvetica Neue" font-size="26.0" fill="#EAEAEA" transform="matrix(1.00, 0.00, -0.00, -1.00, 844.6, 107.0)">A</text><text xml:space="preserve" font-family="HelveticaNeue-Medium,Helvetica Neue" font-size="26.0" fill="#EAEAEA" transform="matrix(1.00, 0.00, -0.00, -1.00, 861.9, 107.0)">r</text><text xml:space="preserve" font-family="HelveticaNeue-Medium,Helvetica Neue" font-size="26.0" fill="#EAEAEA" transform="matrix(1.00, 0.00, -0.00, -1.00, 870.6, 107.0)">o</text><text xml:space="preserve" font-family="HelveticaNeue-Medium,Helvetica Neue" font-size="26.0" fill="#EAEAEA" transform="matrix(1.00, 0.00, -0.00, -1.00, 886.0, 107.0)">m</text><text xml:space="preserve" font-family="HelveticaNeue-Medium,Helvetica Neue" font-size="26.0" fill="#EAEAEA" transform="matrix(1.00, 0.00, -0.00, -1.00, 908.6, 107.0)">a</text><text xml:space="preserve" font-family="HelveticaNeue-Medium,Helvetica Neue" font-size="26.0" fill="#EAEAEA" transform="matrix(1.00, 0.00, -0.00, -1.00, 923.1, 107.0)">t</text><text xml:space="preserve" font-family="HelveticaNeue-Medium,Helvetica Neue" font-size="26.0" fill="#EAEAEA" transform="matrix(1.00, 0.00, -0.00, -1.00, 931.7, 107.0)">a</text><text xml:space="preserve" font-family="HelveticaNeue-Medium,Helvetica Neue" font-size="26.0" fill="#EAEAEA" transform="matrix(1.00, 0.00, -0.00, -1.00, 946.2, 107.0)">s</text><text xml:space="preserve" font-family="HelveticaNeue-Medium,Helvetica Neue" font-size="26.0" fill="#EAEAEA" transform="matrix(1.00, 0.00, -0.00, -1.00, 959.7, 107.0)">e</text><text xml:space="preserve" font-family="HelveticaNeue-Medium,Helvetica Neue" font-size="26.0" fill="#EAEAEA" transform="matrix(1.00, 0.00, -0.00, -1.00, 974.1, 107.0)"> </text><image xlink:href="../../4F04C137-1FFB-4AD3-9412-C3125C298134/assets/61CC2324EDF9353175F930D92DD43652.png" width="205.00" height="28.00" transform="matrix(1.00, 0.00, -0.00, -1.00, 757.0, 96.0)"></image><text xml:space="preserve" font-family="HelveticaNeue-Medium,Helvetica Neue" font-size="26.0" fill="#EAEAEA" transform="matrix(1.00, 0.00, -0.00, -1.00, 759.3, 75.0)">I</text><text xml:space="preserve" font-family="HelveticaNeue-Medium,Helvetica Neue" font-size="26.0" fill="#EAEAEA" transform="matrix(1.00, 0.00, -0.00, -1.00, 766.5, 75.0)">n</text><text xml:space="preserve" font-family="HelveticaNeue-Medium,Helvetica Neue" font-size="26.0" fill="#EAEAEA" transform="matrix(1.00, 0.00, -0.00, -1.00, 781.4, 75.0)">h</text><text xml:space="preserve" font-family="HelveticaNeue-Medium,Helvetica Neue" font-size="26.0" fill="#EAEAEA" transform="matrix(1.00, 0.00, -0.00, -1.00, 796.4, 75.0)">i</text><text xml:space="preserve" font-family="HelveticaNeue-Medium,Helvetica Neue" font-size="26.0" fill="#EAEAEA" transform="matrix(1.00, 0.00, -0.00, -1.00, 802.6, 75.0)">b</text><text xml:space="preserve" font-family="HelveticaNeue-Medium,Helvetica Neue" font-size="26.0" fill="#EAEAEA" transform="matrix(1.00, 0.00, -0.00, -1.00, 818.5, 75.0)">i</text><text xml:space="preserve" font-family="HelveticaNeue-Medium,Helvetica Neue" font-size="26.0" fill="#EAEAEA" transform="matrix(1.00, 0.00, -0.00, -1.00, 824.8, 75.0)">t</text><text xml:space="preserve" font-family="HelveticaNeue-Medium,Helvetica Neue" font-size="26.0" fill="#EAEAEA" transform="matrix(1.00, 0.00, -0.00, -1.00, 833.4, 75.0)">o</text><text xml:space="preserve" font-family="HelveticaNeue-Medium,Helvetica Neue" font-size="26.0" fill="#EAEAEA" transform="matrix(1.00, 0.00, -0.00, -1.00, 848.9, 75.0)">r</text><text xml:space="preserve" font-family="HelveticaNeue-Medium,Helvetica Neue" font-size="26.0" fill="#EAEAEA" transform="matrix(1.00, 0.00, -0.00, -1.00, 858.0, 75.0)">s</text><text xml:space="preserve" font-family="HelveticaNeue-Medium,Helvetica Neue" font-size="26.0" fill="#EAEAEA" transform="matrix(1.00, 0.00, -0.00, -1.00, 871.5, 75.0)"> </text><text xml:space="preserve" font-family="HelveticaNeue-Medium,Helvetica Neue" font-size="26.0" fill="#EAEAEA" transform="matrix(1.00, 0.00, -0.00, -1.00, 878.7, 75.0)">V</text><text xml:space="preserve" font-family="HelveticaNeue-Medium,Helvetica Neue" font-size="26.0" fill="#EAEAEA" transform="matrix(1.00, 0.00, -0.00, -1.00, 893.2, 75.0)">e</text><text xml:space="preserve" font-family="HelveticaNeue-Medium,Helvetica Neue" font-size="26.0" fill="#EAEAEA" transform="matrix(1.00, 0.00, -0.00, -1.00, 907.6, 75.0)">r</text><text xml:space="preserve" font-family="HelveticaNeue-Medium,Helvetica Neue" font-size="26.0" fill="#EAEAEA" transform="matrix(1.00, 0.00, -0.00, -1.00, 916.8, 75.0)">s</text><text xml:space="preserve" font-family="HelveticaNeue-Medium,Helvetica Neue" font-size="26.0" fill="#EAEAEA" transform="matrix(1.00, 0.00, -0.00, -1.00, 930.3, 75.0)">u</text><text xml:space="preserve" font-family="HelveticaNeue-Medium,Helvetica Neue" font-size="26.0" fill="#EAEAEA" transform="matrix(1.00, 0.00, -0.00, -1.00, 945.2, 75.0)">s</text><text xml:space="preserve" font-family="HelveticaNeue-Medium,Helvetica Neue" font-size="26.0" fill="#EAEAEA" transform="matrix(1.00, 0.00, -0.00, -1.00, 958.7, 75.0)"> </text><image xlink:href="../../4F04C137-1FFB-4AD3-9412-C3125C298134/assets/4B9474C96F3239A8AABEA678C8CC43D6.png" width="320.00" height="28.00" transform="matrix(1.00, 0.00, -0.00, -1.00, 698.0, 64.0)"></image><text xml:space="preserve" font-family="HelveticaNeue-Medium,Helvetica Neue" font-size="26.0" fill="#EAEAEA" transform="matrix(1.00, 0.00, -0.00, -1.00, 702.5, 43.0)">T</text><text xml:space="preserve" font-family="HelveticaNeue-Medium,Helvetica Neue" font-size="26.0" fill="#EAEAEA" transform="matrix(1.00, 0.00, -0.00, -1.00, 715.4, 43.0)">a</text><text xml:space="preserve" font-family="HelveticaNeue-Medium,Helvetica Neue" font-size="26.0" fill="#EAEAEA" transform="matrix(1.00, 0.00, -0.00, -1.00, 729.8, 43.0)">m</text><text xml:space="preserve" font-family="HelveticaNeue-Medium,Helvetica Neue" font-size="26.0" fill="#EAEAEA" transform="matrix(1.00, 0.00, -0.00, -1.00, 752.4, 43.0)">o</text><text xml:space="preserve" font-family="HelveticaNeue-Medium,Helvetica Neue" font-size="26.0" fill="#EAEAEA" transform="matrix(1.00, 0.00, -0.00, -1.00, 767.8, 43.0)">x</text><text xml:space="preserve" font-family="HelveticaNeue-Medium,Helvetica Neue" font-size="26.0" fill="#EAEAEA" transform="matrix(1.00, 0.00, -0.00, -1.00, 781.8, 43.0)">i</text><text xml:space="preserve" font-family="HelveticaNeue-Medium,Helvetica Neue" font-size="26.0" fill="#EAEAEA" transform="matrix(1.00, 0.00, -0.00, -1.00, 788.1, 43.0)">f</text><text xml:space="preserve" font-family="HelveticaNeue-Medium,Helvetica Neue" font-size="26.0" fill="#EAEAEA" transform="matrix(1.00, 0.00, -0.00, -1.00, 796.3, 43.0)">e</text><text xml:space="preserve" font-family="HelveticaNeue-Medium,Helvetica Neue" font-size="26.0" fill="#EAEAEA" transform="matrix(1.00, 0.00, -0.00, -1.00, 810.7, 43.0)">n</text><text xml:space="preserve" font-family="HelveticaNeue-Medium,Helvetica Neue" font-size="26.0" fill="#EAEAEA" transform="matrix(1.00, 0.00, -0.00, -1.00, 825.6, 43.0)">.</text><text xml:space="preserve" font-family="HelveticaNeue-Medium,Helvetica Neue" font-size="26.0" fill="#EAEAEA" transform="matrix(1.00, 0.00, -0.00, -1.00, 832.9, 43.0)"> </text><text xml:space="preserve" font-family="HelveticaNeue-Medium,Helvetica Neue" font-size="26.0" fill="#EAEAEA" transform="matrix(1.00, 0.00, -0.00, -1.00, 840.1, 43.0)">J</text><text xml:space="preserve" font-family="HelveticaNeue-Medium,Helvetica Neue" font-size="26.0" fill="#EAEAEA" transform="matrix(1.00, 0.00, -0.00, -1.00, 854.1, 43.0)">C</text><text xml:space="preserve" font-family="HelveticaNeue-Medium,Helvetica Neue" font-size="26.0" fill="#EAEAEA" transform="matrix(1.00, 0.00, -0.00, -1.00, 872.8, 43.0)">O</text><text xml:space="preserve" font-family="HelveticaNeue-Medium,Helvetica Neue" font-size="26.0" fill="#EAEAEA" transform="matrix(1.00, 0.00, -0.00, -1.00, 892.6, 43.0)">.</text><text xml:space="preserve" font-family="HelveticaNeue-Medium,Helvetica Neue" font-size="26.0" fill="#EAEAEA" transform="matrix(1.00, 0.00, -0.00, -1.00, 899.8, 43.0)"> </text><text xml:space="preserve" font-family="HelveticaNeue-Medium,Helvetica Neue" font-size="26.0" fill="#EAEAEA" transform="matrix(1.00, 0.00, -0.00, -1.00, 907.1, 43.0)">2</text><text xml:space="preserve" font-family="HelveticaNeue-Medium,Helvetica Neue" font-size="26.0" fill="#EAEAEA" transform="matrix(1.00, 0.00, -0.00, -1.00, 921.5, 43.0)">0</text><text xml:space="preserve" font-family="HelveticaNeue-Medium,Helvetica Neue" font-size="26.0" fill="#EAEAEA" transform="matrix(1.00, 0.00, -0.00, -1.00, 936.0, 43.0)">1</text><text xml:space="preserve" font-family="HelveticaNeue-Medium,Helvetica Neue" font-size="26.0" fill="#EAEAEA" transform="matrix(1.00, 0.00, -0.00, -1.00, 950.4, 43.0)">0</text><text xml:space="preserve" font-family="HelveticaNeue-Medium,Helvetica Neue" font-size="26.0" fill="#EAEAEA" transform="matrix(1.00, 0.00, -0.00, -1.00, 964.9, 43.0)"> </text><text xml:space="preserve" font-family="HelveticaNeue-Medium,Helvetica Neue" font-size="26.0" fill="#EAEAEA" transform="matrix(1.00, 0.00, -0.00, -1.00, 972.1, 43.0)">J</text><text xml:space="preserve" font-family="HelveticaNeue-Medium,Helvetica Neue" font-size="26.0" fill="#EAEAEA" transform="matrix(1.00, 0.00, -0.00, -1.00, 986.1, 43.0)">a</text><text xml:space="preserve" font-family="HelveticaNeue-Medium,Helvetica Neue" font-size="26.0" fill="#EAEAEA" transform="matrix(1.00, 0.00, -0.00, -1.00, 1000.5, 43.0)">n</text><text xml:space="preserve" font-family="HelveticaNeue-Medium,Helvetica Neue" font-size="26.0" fill="#EAEAEA" transform="matrix(1.00, 0.00, -0.00, -1.00, 1015.4, 43.0)"> </text><image xlink:href="../../4F04C137-1FFB-4AD3-9412-C3125C298134/assets/E99DDB63A771B96F1BE18B25A3AFD964.png" width="200.00" height="32.00" transform="matrix(1.00, 0.00, -0.00, -1.00, 759.0, 32.0)"></image><text xml:space="preserve" font-family="HelveticaNeue-Medium,Helvetica Neue" font-size="26.0" fill="#EAEAEA" transform="matrix(1.00, 0.00, -0.00, -1.00, 762.1, 11.0)">2</text><text xml:space="preserve" font-family="HelveticaNeue-Medium,Helvetica Neue" font-size="26.0" fill="#EAEAEA" transform="matrix(1.00, 0.00, -0.00, -1.00, 776.6, 11.0)">0</text><text xml:space="preserve" font-family="HelveticaNeue-Medium,Helvetica Neue" font-size="26.0" fill="#EAEAEA" transform="matrix(1.00, 0.00, -0.00, -1.00, 791.1, 11.0)">;</text><text xml:space="preserve" font-family="HelveticaNeue-Medium,Helvetica Neue" font-size="26.0" fill="#EAEAEA" transform="matrix(1.00, 0.00, -0.00, -1.00, 798.3, 11.0)">2</text><text xml:space="preserve" font-family="HelveticaNeue-Medium,Helvetica Neue" font-size="26.0" fill="#EAEAEA" transform="matrix(1.00, 0.00, -0.00, -1.00, 812.7, 11.0)">8</text><text xml:space="preserve" font-family="HelveticaNeue-Medium,Helvetica Neue" font-size="26.0" fill="#EAEAEA" transform="matrix(1.00, 0.00, -0.00, -1.00, 827.2, 11.0)">(</text><text xml:space="preserve" font-family="HelveticaNeue-Medium,Helvetica Neue" font-size="26.0" fill="#EAEAEA" transform="matrix(1.00, 0.00, -0.00, -1.00, 834.4, 11.0)">3</text><text xml:space="preserve" font-family="HelveticaNeue-Medium,Helvetica Neue" font-size="26.0" fill="#EAEAEA" transform="matrix(1.00, 0.00, -0.00, -1.00, 848.9, 11.0)">)</text><text xml:space="preserve" font-family="HelveticaNeue-Medium,Helvetica Neue" font-size="26.0" fill="#EAEAEA" transform="matrix(1.00, 0.00, -0.00, -1.00, 856.1, 11.0)">:</text><text xml:space="preserve" font-family="HelveticaNeue-Medium,Helvetica Neue" font-size="26.0" fill="#EAEAEA" transform="matrix(1.00, 0.00, -0.00, -1.00, 863.3, 11.0)">5</text><text xml:space="preserve" font-family="HelveticaNeue-Medium,Helvetica Neue" font-size="26.0" fill="#EAEAEA" transform="matrix(1.00, 0.00, -0.00, -1.00, 877.8, 11.0)">0</text><text xml:space="preserve" font-family="HelveticaNeue-Medium,Helvetica Neue" font-size="26.0" fill="#EAEAEA" transform="matrix(1.00, 0.00, -0.00, -1.00, 892.2, 11.0)">9</text><text xml:space="preserve" font-family="HelveticaNeue-Medium,Helvetica Neue" font-size="26.0" fill="#EAEAEA" transform="matrix(1.00, 0.00, -0.00, -1.00, 906.7, 11.0)">–</text><text xml:space="preserve" font-family="HelveticaNeue-Medium,Helvetica Neue" font-size="26.0" fill="#EAEAEA" transform="matrix(1.00, 0.00, -0.00, -1.00, 919.7, 11.0)">1</text><text xml:space="preserve" font-family="HelveticaNeue-Medium,Helvetica Neue" font-size="26.0" fill="#EAEAEA" transform="matrix(1.00, 0.00, -0.00, -1.00, 934.2, 11.0)">8</text><text xml:space="preserve" font-family="HelveticaNeue-Medium,Helvetica Neue" font-size="26.0" fill="#EAEAEA" transform="matrix(1.00, 0.00, -0.00, -1.00, 948.6, 11.0)">.</text><image xlink:href="../../D711A780-A498-46E3-9CD7-EA47D555C935/assets/1D801D18CB663E13FD9230023744E50A.png" width="1158.00" height="1282.00" transform="matrix(0.60, 0.00, -0.00, -0.60, -2.0, 767.0)"></image><image xlink:href="../../D711A780-A498-46E3-9CD7-EA47D555C935/assets/469738D975F46E1B6EC4C619E8FF56D6.png" width="738.00" height="818.00" transform="matrix(1.00, 0.00, -0.00, 1.00, -24.0, -25.0)"></image></g></svg>