<?xml version="1.0" encoding="UTF-8" standalone="no"?><svg xmlns="http://www.w3.org/2000/svg" xmlns:xlink="http://www.w3.org/1999/xlink" clip-rule="evenodd" stroke-miterlimit="10" viewBox="0 0 1024 768"><desc>SVG generated by Keynote</desc><defs></defs><g transform="matrix(1.00, 0.00, -0.00, -1.00, 0.0, 768.0)"><g><clipPath id="clip0x6080024afcc0"><path d="M 0.0 768.0 L 1024.0 768.0 L 1024.0 0.0 L 0.0 0.0 Z M 0.0 768.0 "></path></clipPath><g clip-path="url(#clip0x6080024afcc0)"><image xlink:href="../../384E26B0-0AD0-495F-BA75-267B55ABD0BD/assets/31D284A5C75E14674D2A89FDB99F8048.jpeg" width="2048.00" height="1536.00" transform="matrix(0.50, 0.00, -0.00, -0.50, 0.0, 768.0)"></image></g></g><g><clipPath id="clip0x6080022ade60"><path d="M -1.0 -2.0 L 1025.0 -2.0 L 1025.0 770.0 L -1.0 770.0 Z M -1.0 -2.0 "></path></clipPath><g clip-path="url(#clip0x6080022ade60)"><path d="M -1.0 770.0 L 1025.0 770.0 L 1025.0 -2.0 L -1.0 -2.0 Z M -1.0 770.0 " fill="#FEFFFF" fill-opacity="0.00"></path></g></g><g><clipPath id="clip0x6080024a7860"><path d="M 0.4 768.6 L 512.0 768.6 L 512.0 384.5 L 0.4 384.5 Z M 0.4 768.6 "></path></clipPath><g clip-path="url(#clip0x6080024a7860)"><g><clipPath id="clip0x6080020bbc60"><path d="M 0.4 384.5 L 512.0 384.5 L 512.0 768.6 L 0.4 768.6 Z M 0.4 384.5 "></path></clipPath><g clip-path="url(#clip0x6080020bbc60)"><image xlink:href="7C8785493C735CE8110121A03443B24F.jpeg" width="1050.00" height="788.00" transform="matrix(0.49, 0.00, -0.00, -0.49, 0.4, 768.6)"></image></g></g></g></g><g><clipPath id="clip0x6080022b0a40"><path d="M -1.0 -2.0 L 1025.0 -2.0 L 1025.0 770.0 L -1.0 770.0 Z M -1.0 -2.0 "></path></clipPath><g clip-path="url(#clip0x6080022b0a40)"><path d="M -6350.0 -6350.0 L 4578350.0 -6350.0 L 4578350.0 3436938.0 L -6350.0 3436938.0 Z M -6350.0 -6350.0 " fill="none" stroke="#4248A9" stroke-width="12700.00" transform="matrix(0.00, 0.00, 0.00, -0.00, 0.4, 768.6)"></path></g></g><g><clipPath id="clip0x6080024aa8c0"><path d="M 512.0 768.6 L 1023.6 768.6 L 1023.6 384.5 L 512.0 384.5 Z M 512.0 768.6 "></path></clipPath><g clip-path="url(#clip0x6080024aa8c0)"><g><clipPath id="clip0x6080024ae160"><path d="M 512.0 384.5 L 1023.6 384.5 L 1023.6 768.6 L 512.0 768.6 Z M 512.0 384.5 "></path></clipPath><g clip-path="url(#clip0x6080024ae160)"><image xlink:href="5561D27916D559265CCAD28A2C0DBC8F.jpeg" width="1050.00" height="788.00" transform="matrix(0.49, 0.00, -0.00, -0.49, 512.0, 768.6)"></image></g></g></g></g><g><clipPath id="clip0x6080024a5e20"><path d="M -1.0 -2.0 L 1025.0 -2.0 L 1025.0 770.0 L -1.0 770.0 Z M -1.0 -2.0 "></path></clipPath><g clip-path="url(#clip0x6080024a5e20)"><path d="M -6350.0 -6350.0 L 4578350.0 -6350.0 L 4578350.0 3436938.0 L -6350.0 3436938.0 Z M -6350.0 -6350.0 " fill="none" stroke="#4248A9" stroke-width="12700.00" transform="matrix(0.00, 0.00, 0.00, -0.00, 512.0, 768.6)"></path></g></g><g><clipPath id="clip0x6080024b1ee0"><path d="M 0.4 384.7 L 512.0 384.7 L 512.0 0.7 L 0.4 0.7 Z M 0.4 384.7 "></path></clipPath><g clip-path="url(#clip0x6080024b1ee0)"><g><clipPath id="clip0x6080022bb6c0"><path d="M 0.4 0.7 L 512.0 0.7 L 512.0 384.7 L 0.4 384.7 Z M 0.4 0.7 "></path></clipPath><g clip-path="url(#clip0x6080022bb6c0)"><image xlink:href="4DD750FEF1467BAD0B1561CA69CA26CB.png" width="360.00" height="270.00" transform="matrix(1.42, 0.00, -0.00, -1.42, 0.4, 384.7)"></image></g></g></g></g><g><clipPath id="clip0x6080022acd20"><path d="M -1.0 -2.0 L 1025.0 -2.0 L 1025.0 770.0 L -1.0 770.0 Z M -1.0 -2.0 "></path></clipPath><g clip-path="url(#clip0x6080022acd20)"><path d="M -6350.0 -6350.0 L 4578350.0 -6350.0 L 4578350.0 3436938.0 L -6350.0 3436938.0 Z M -6350.0 -6350.0 " fill="none" stroke="#4248A9" stroke-width="12700.00" transform="matrix(0.00, 0.00, 0.00, -0.00, 0.4, 384.7)"></path></g></g><g><clipPath id="clip0x608001cb9f80"><path d="M 512.0 384.7 L 1023.6 384.7 L 1023.6 0.7 L 512.0 0.7 Z M 512.0 384.7 "></path></clipPath><g clip-path="url(#clip0x608001cb9f80)"><g><clipPath id="clip0x6080022b6980"><path d="M 512.0 0.7 L 1023.6 0.7 L 1023.6 384.7 L 512.0 384.7 Z M 512.0 0.7 "></path></clipPath><g clip-path="url(#clip0x6080022b6980)"><image xlink:href="F967A52C9AEC768F2E8CE1C39A397BDF.jpeg" width="1050.00" height="788.00" transform="matrix(0.49, 0.00, -0.00, -0.49, 512.0, 384.7)"></image></g></g></g></g><g><clipPath id="clip0x6080022a2340"><path d="M -1.0 -2.0 L 1025.0 -2.0 L 1025.0 770.0 L -1.0 770.0 Z M -1.0 -2.0 "></path></clipPath><g clip-path="url(#clip0x6080022a2340)"><path d="M -6350.0 -6350.0 L 4578350.0 -6350.0 L 4578350.0 3436938.0 L -6350.0 3436938.0 Z M -6350.0 -6350.0 " fill="none" stroke="#4248A9" stroke-width="12700.00" transform="matrix(0.00, 0.00, 0.00, -0.00, 512.0, 384.7)"></path></g></g></g></svg>