<?xml version="1.0" encoding="UTF-8" standalone="no"?><svg xmlns="http://www.w3.org/2000/svg" xmlns:xlink="http://www.w3.org/1999/xlink" clip-rule="evenodd" stroke-miterlimit="4.00" viewBox="0 0 1024 768"><desc>SVG generated by Keynote</desc><defs></defs><g transform="matrix(1.00, 0.00, -0.00, -1.00, 0.0, 768.0)"><path d="M 0.0 768.0 L 1024.0 768.0 L 1024.0 0.0 L 0.0 0.0 Z M 0.0 768.0 " fill="#FEFFFE"></path><path d="M 0.0 0.0 L 934.5 0.0 " fill="none" stroke="#9A9A9A" stroke-width="1.00" transform="matrix(1.00, 0.00, 0.00, -1.00, 45.0, 613.0)"></path><text xml:space="preserve" font-family="HelveticaNeue-Light" font-size="38.6" fill="#000000" transform="matrix(1.00, 0.00, -0.00, -1.00, 49.0, 690.0)">D</text><text xml:space="preserve" font-family="HelveticaNeue-Light" font-size="38.6" fill="#000000" transform="matrix(1.00, 0.00, -0.00, -1.00, 75.5, 690.0)">o</text><text xml:space="preserve" font-family="HelveticaNeue-Light" font-size="38.6" fill="#000000" transform="matrix(1.00, 0.00, -0.00, -1.00, 97.0, 690.0)">n</text><text xml:space="preserve" font-family="HelveticaNeue-Light" font-size="38.6" fill="#000000" transform="matrix(1.00, 0.00, -0.00, -1.00, 117.7, 690.0)">o</text><text xml:space="preserve" font-family="HelveticaNeue-Light" font-size="38.6" fill="#000000" transform="matrix(1.00, 0.00, -0.00, -1.00, 139.2, 690.0)">r</text><text xml:space="preserve" font-family="HelveticaNeue-Light" font-size="38.6" fill="#000000" transform="matrix(1.00, 0.00, -0.00, -1.00, 151.4, 690.0)"> </text><text xml:space="preserve" font-family="HelveticaNeue-Light" font-size="38.6" fill="#000000" transform="matrix(1.00, 0.00, -0.00, -1.00, 162.1, 690.0)">c</text><text xml:space="preserve" font-family="HelveticaNeue-Light" font-size="38.6" fill="#000000" transform="matrix(1.00, 0.00, -0.00, -1.00, 182.2, 690.0)">h</text><text xml:space="preserve" font-family="HelveticaNeue-Light" font-size="38.6" fill="#000000" transform="matrix(1.00, 0.00, -0.00, -1.00, 202.9, 690.0)">i</text><text xml:space="preserve" font-family="HelveticaNeue-Light" font-size="38.6" fill="#000000" transform="matrix(1.00, 0.00, -0.00, -1.00, 210.1, 690.0)">m</text><text xml:space="preserve" font-family="HelveticaNeue-Light" font-size="38.6" fill="#000000" transform="matrix(1.00, 0.00, -0.00, -1.00, 242.2, 690.0)">e</text><text xml:space="preserve" font-family="HelveticaNeue-Light" font-size="38.6" fill="#000000" transform="matrix(1.00, 0.00, -0.00, -1.00, 262.3, 690.0)">r</text><text xml:space="preserve" font-family="HelveticaNeue-Light" font-size="38.6" fill="#000000" transform="matrix(1.00, 0.00, -0.00, -1.00, 274.5, 690.0)">i</text><text xml:space="preserve" font-family="HelveticaNeue-Light" font-size="38.6" fill="#000000" transform="matrix(1.00, 0.00, -0.00, -1.00, 281.6, 690.0)">s</text><text xml:space="preserve" font-family="HelveticaNeue-Light" font-size="38.6" fill="#000000" transform="matrix(1.00, 0.00, -0.00, -1.00, 300.2, 690.0)">m</text><text xml:space="preserve" font-family="HelveticaNeue-Light" font-size="38.6" fill="#000000" transform="matrix(1.00, 0.00, -0.00, -1.00, 332.4, 690.0)"> </text><text xml:space="preserve" font-family="HelveticaNeue-Light" font-size="38.6" fill="#000000" transform="matrix(1.00, 0.00, -0.00, -1.00, 343.1, 690.0)">a</text><text xml:space="preserve" font-family="HelveticaNeue-Light" font-size="38.6" fill="#000000" transform="matrix(1.00, 0.00, -0.00, -1.00, 363.2, 690.0)">f</text><text xml:space="preserve" font-family="HelveticaNeue-Light" font-size="38.6" fill="#000000" transform="matrix(1.00, 0.00, -0.00, -1.00, 373.2, 690.0)">t</text><text xml:space="preserve" font-family="HelveticaNeue-Light" font-size="38.6" fill="#000000" transform="matrix(1.00, 0.00, -0.00, -1.00, 384.6, 690.0)">e</text><text xml:space="preserve" font-family="HelveticaNeue-Light" font-size="38.6" fill="#000000" transform="matrix(1.00, 0.00, -0.00, -1.00, 404.7, 690.0)">r</text><text xml:space="preserve" font-family="HelveticaNeue-Light" font-size="38.6" fill="#000000" transform="matrix(1.00, 0.00, -0.00, -1.00, 416.9, 690.0)"> </text><text xml:space="preserve" font-family="HelveticaNeue-Light" font-size="38.6" fill="#000000" transform="matrix(1.00, 0.00, -0.00, -1.00, 427.6, 690.0)">n</text><text xml:space="preserve" font-family="HelveticaNeue-Light" font-size="38.6" fill="#000000" transform="matrix(1.00, 0.00, -0.00, -1.00, 448.3, 690.0)">o</text><text xml:space="preserve" font-family="HelveticaNeue-Light" font-size="38.6" fill="#000000" transform="matrix(1.00, 0.00, -0.00, -1.00, 469.8, 690.0)">n</text><text xml:space="preserve" font-family="HelveticaNeue-Light" font-size="38.6" fill="#000000" transform="matrix(1.00, 0.00, -0.00, -1.00, 490.6, 690.0)">m</text><text xml:space="preserve" font-family="HelveticaNeue-Light" font-size="38.6" fill="#000000" transform="matrix(1.00, 0.00, -0.00, -1.00, 522.8, 690.0)">y</text><text xml:space="preserve" font-family="HelveticaNeue-Light" font-size="38.6" fill="#000000" transform="matrix(1.00, 0.00, -0.00, -1.00, 540.7, 690.0)">e</text><text xml:space="preserve" font-family="HelveticaNeue-Light" font-size="38.6" fill="#000000" transform="matrix(1.00, 0.00, -0.00, -1.00, 560.7, 690.0)">l</text><text xml:space="preserve" font-family="HelveticaNeue-Light" font-size="38.6" fill="#000000" transform="matrix(1.00, 0.00, -0.00, -1.00, 567.9, 690.0)">o</text><text xml:space="preserve" font-family="HelveticaNeue-Light" font-size="38.6" fill="#000000" transform="matrix(1.00, 0.00, -0.00, -1.00, 589.3, 690.0)">a</text><text xml:space="preserve" font-family="HelveticaNeue-Light" font-size="38.6" fill="#000000" transform="matrix(1.00, 0.00, -0.00, -1.00, 609.4, 690.0)">b</text><text xml:space="preserve" font-family="HelveticaNeue-Light" font-size="38.6" fill="#000000" transform="matrix(1.00, 0.00, -0.00, -1.00, 631.6, 690.0)">l</text><text xml:space="preserve" font-family="HelveticaNeue-Light" font-size="38.6" fill="#000000" transform="matrix(1.00, 0.00, -0.00, -1.00, 638.7, 690.0)">a</text><text xml:space="preserve" font-family="HelveticaNeue-Light" font-size="38.6" fill="#000000" transform="matrix(1.00, 0.00, -0.00, -1.00, 658.8, 690.0)">t</text><text xml:space="preserve" font-family="HelveticaNeue-Light" font-size="38.6" fill="#000000" transform="matrix(1.00, 0.00, -0.00, -1.00, 670.2, 690.0)">i</text><text xml:space="preserve" font-family="HelveticaNeue-Light" font-size="38.6" fill="#000000" transform="matrix(1.00, 0.00, -0.00, -1.00, 677.4, 690.0)">v</text><text xml:space="preserve" font-family="HelveticaNeue-Light" font-size="38.6" fill="#000000" transform="matrix(1.00, 0.00, -0.00, -1.00, 695.3, 690.0)">e</text><text xml:space="preserve" font-family="HelveticaNeue-Light" font-size="38.6" fill="#000000" transform="matrix(1.00, 0.00, -0.00, -1.00, 715.3, 690.0)"> </text><text xml:space="preserve" font-family="HelveticaNeue-Light" font-size="38.6" fill="#000000" transform="matrix(1.00, 0.00, -0.00, -1.00, 726.1, 690.0)">c</text><text xml:space="preserve" font-family="HelveticaNeue-Light" font-size="38.6" fill="#000000" transform="matrix(1.00, 0.00, -0.00, -1.00, 746.1, 690.0)">o</text><text xml:space="preserve" font-family="HelveticaNeue-Light" font-size="38.6" fill="#000000" transform="matrix(1.00, 0.00, -0.00, -1.00, 767.6, 690.0)">n</text><text xml:space="preserve" font-family="HelveticaNeue-Light" font-size="38.6" fill="#000000" transform="matrix(1.00, 0.00, -0.00, -1.00, 788.3, 690.0)">d</text><text xml:space="preserve" font-family="HelveticaNeue-Light" font-size="38.6" fill="#000000" transform="matrix(1.00, 0.00, -0.00, -1.00, 810.5, 690.0)">i</text><text xml:space="preserve" font-family="HelveticaNeue-Light" font-size="38.6" fill="#000000" transform="matrix(1.00, 0.00, -0.00, -1.00, 817.7, 690.0)">t</text><text xml:space="preserve" font-family="HelveticaNeue-Light" font-size="38.6" fill="#000000" transform="matrix(1.00, 0.00, -0.00, -1.00, 829.1, 690.0)">i</text><text xml:space="preserve" font-family="HelveticaNeue-Light" font-size="38.6" fill="#000000" transform="matrix(1.00, 0.00, -0.00, -1.00, 836.3, 690.0)">o</text><text xml:space="preserve" font-family="HelveticaNeue-Light" font-size="38.6" fill="#000000" transform="matrix(1.00, 0.00, -0.00, -1.00, 857.7, 690.0)">n</text><text xml:space="preserve" font-family="HelveticaNeue-Light" font-size="38.6" fill="#000000" transform="matrix(1.00, 0.00, -0.00, -1.00, 878.5, 690.0)">i</text><text xml:space="preserve" font-family="HelveticaNeue-Light" font-size="38.6" fill="#000000" transform="matrix(1.00, 0.00, -0.00, -1.00, 885.6, 690.0)">n</text><text xml:space="preserve" font-family="HelveticaNeue-Light" font-size="38.6" fill="#000000" transform="matrix(1.00, 0.00, -0.00, -1.00, 906.4, 690.0)">g</text><text xml:space="preserve" font-family="HelveticaNeue-Light" font-size="38.6" fill="#000000" transform="matrix(1.00, 0.00, -0.00, -1.00, 927.9, 690.0)"> </text><text xml:space="preserve" font-family="HelveticaNeue-Light" font-size="38.6" fill="#000000" transform="matrix(1.00, 0.00, -0.00, -1.00, 938.6, 690.0)">i</text><text xml:space="preserve" font-family="HelveticaNeue-Light" font-size="38.6" fill="#000000" transform="matrix(1.00, 0.00, -0.00, -1.00, 945.8, 690.0)">s</text><text xml:space="preserve" font-family="HelveticaNeue-Light" font-size="38.6" fill="#000000" transform="matrix(1.00, 0.00, -0.00, -1.00, 964.3, 690.0)"> </text><text xml:space="preserve" font-family="HelveticaNeue-Light" font-size="38.6" fill="#000000" transform="matrix(1.00, 0.00, -0.00, -1.00, 49.0, 644.0)">a</text><text xml:space="preserve" font-family="HelveticaNeue-Light" font-size="38.6" fill="#000000" transform="matrix(1.00, 0.00, -0.00, -1.00, 69.1, 644.0)">s</text><text xml:space="preserve" font-family="HelveticaNeue-Light" font-size="38.6" fill="#000000" transform="matrix(1.00, 0.00, -0.00, -1.00, 87.6, 644.0)">s</text><text xml:space="preserve" font-family="HelveticaNeue-Light" font-size="38.6" fill="#000000" transform="matrix(1.00, 0.00, -0.00, -1.00, 106.2, 644.0)">o</text><text xml:space="preserve" font-family="HelveticaNeue-Light" font-size="38.6" fill="#000000" transform="matrix(1.00, 0.00, -0.00, -1.00, 127.7, 644.0)">c</text><text xml:space="preserve" font-family="HelveticaNeue-Light" font-size="38.6" fill="#000000" transform="matrix(1.00, 0.00, -0.00, -1.00, 147.8, 644.0)">i</text><text xml:space="preserve" font-family="HelveticaNeue-Light" font-size="38.6" fill="#000000" transform="matrix(1.00, 0.00, -0.00, -1.00, 154.9, 644.0)">a</text><text xml:space="preserve" font-family="HelveticaNeue-Light" font-size="38.6" fill="#000000" transform="matrix(1.00, 0.00, -0.00, -1.00, 175.0, 644.0)">t</text><text xml:space="preserve" font-family="HelveticaNeue-Light" font-size="38.6" fill="#000000" transform="matrix(1.00, 0.00, -0.00, -1.00, 186.4, 644.0)">e</text><text xml:space="preserve" font-family="HelveticaNeue-Light" font-size="38.6" fill="#000000" transform="matrix(1.00, 0.00, -0.00, -1.00, 206.5, 644.0)">d</text><text xml:space="preserve" font-family="HelveticaNeue-Light" font-size="38.6" fill="#000000" transform="matrix(1.00, 0.00, -0.00, -1.00, 228.6, 644.0)"> </text><text xml:space="preserve" font-family="HelveticaNeue-Light" font-size="38.6" fill="#000000" transform="matrix(1.00, 0.00, -0.00, -1.00, 239.4, 644.0)">w</text><text xml:space="preserve" font-family="HelveticaNeue-Light" font-size="38.6" fill="#000000" transform="matrix(1.00, 0.00, -0.00, -1.00, 268.0, 644.0)">i</text><text xml:space="preserve" font-family="HelveticaNeue-Light" font-size="38.6" fill="#000000" transform="matrix(1.00, 0.00, -0.00, -1.00, 275.2, 644.0)">t</text><text xml:space="preserve" font-family="HelveticaNeue-Light" font-size="38.6" fill="#000000" transform="matrix(1.00, 0.00, -0.00, -1.00, 286.6, 644.0)">h</text><text xml:space="preserve" font-family="HelveticaNeue-Light" font-size="38.6" fill="#000000" transform="matrix(1.00, 0.00, -0.00, -1.00, 307.3, 644.0)"> </text><text xml:space="preserve" font-family="HelveticaNeue-Light" font-size="38.6" fill="#000000" transform="matrix(1.00, 0.00, -0.00, -1.00, 318.1, 644.0)">d</text><text xml:space="preserve" font-family="HelveticaNeue-Light" font-size="38.6" fill="#000000" transform="matrix(1.00, 0.00, -0.00, -1.00, 340.3, 644.0)">o</text><text xml:space="preserve" font-family="HelveticaNeue-Light" font-size="38.6" fill="#000000" transform="matrix(1.00, 0.00, -0.00, -1.00, 361.8, 644.0)">n</text><text xml:space="preserve" font-family="HelveticaNeue-Light" font-size="38.6" fill="#000000" transform="matrix(1.00, 0.00, -0.00, -1.00, 382.5, 644.0)">o</text><text xml:space="preserve" font-family="HelveticaNeue-Light" font-size="38.6" fill="#000000" transform="matrix(1.00, 0.00, -0.00, -1.00, 404.0, 644.0)">r</text><text xml:space="preserve" font-family="HelveticaNeue-Light" font-size="38.6" fill="#000000" transform="matrix(1.00, 0.00, -0.00, -1.00, 414.0, 644.0)">-</text><text xml:space="preserve" font-family="HelveticaNeue-Light" font-size="38.6" fill="#000000" transform="matrix(1.00, 0.00, -0.00, -1.00, 428.3, 644.0)">s</text><text xml:space="preserve" font-family="HelveticaNeue-Light" font-size="38.6" fill="#000000" transform="matrix(1.00, 0.00, -0.00, -1.00, 446.9, 644.0)">p</text><text xml:space="preserve" font-family="HelveticaNeue-Light" font-size="38.6" fill="#000000" transform="matrix(1.00, 0.00, -0.00, -1.00, 469.1, 644.0)">e</text><text xml:space="preserve" font-family="HelveticaNeue-Light" font-size="38.6" fill="#000000" transform="matrix(1.00, 0.00, -0.00, -1.00, 489.1, 644.0)">c</text><text xml:space="preserve" font-family="HelveticaNeue-Light" font-size="38.6" fill="#000000" transform="matrix(1.00, 0.00, -0.00, -1.00, 509.2, 644.0)">i</text><text xml:space="preserve" font-family="HelveticaNeue-Light" font-size="38.6" fill="#000000" transform="matrix(1.00, 0.00, -0.00, -1.00, 516.4, 644.0)">ï¬</text><text xml:space="preserve" font-family="HelveticaNeue-Light" font-size="38.6" fill="#000000" transform="matrix(1.00, 0.00, -0.00, -1.00, 533.5, 644.0)">c</text><text xml:space="preserve" font-family="HelveticaNeue-Light" font-size="38.6" fill="#000000" transform="matrix(1.00, 0.00, -0.00, -1.00, 553.6, 644.0)"> </text><text xml:space="preserve" font-family="HelveticaNeue-Light" font-size="38.6" fill="#000000" transform="matrix(1.00, 0.00, -0.00, -1.00, 564.3, 644.0)">t</text><text xml:space="preserve" font-family="HelveticaNeue-Light" font-size="38.6" fill="#000000" transform="matrix(1.00, 0.00, -0.00, -1.00, 575.7, 644.0)">o</text><text xml:space="preserve" font-family="HelveticaNeue-Light" font-size="38.6" fill="#000000" transform="matrix(1.00, 0.00, -0.00, -1.00, 597.2, 644.0)">l</text><text xml:space="preserve" font-family="HelveticaNeue-Light" font-size="38.6" fill="#000000" transform="matrix(1.00, 0.00, -0.00, -1.00, 604.4, 644.0)">e</text><text xml:space="preserve" font-family="HelveticaNeue-Light" font-size="38.6" fill="#000000" transform="matrix(1.00, 0.00, -0.00, -1.00, 624.4, 644.0)">r</text><text xml:space="preserve" font-family="HelveticaNeue-Light" font-size="38.6" fill="#000000" transform="matrix(1.00, 0.00, -0.00, -1.00, 636.6, 644.0)">a</text><text xml:space="preserve" font-family="HelveticaNeue-Light" font-size="38.6" fill="#000000" transform="matrix(1.00, 0.00, -0.00, -1.00, 656.7, 644.0)">n</text><text xml:space="preserve" font-family="HelveticaNeue-Light" font-size="38.6" fill="#000000" transform="matrix(1.00, 0.00, -0.00, -1.00, 677.4, 644.0)">c</text><text xml:space="preserve" font-family="HelveticaNeue-Light" font-size="38.6" fill="#000000" transform="matrix(1.00, 0.00, -0.00, -1.00, 697.5, 644.0)">e</text><text xml:space="preserve" font-family="HelveticaNeue-Light" font-size="38.6" fill="#000000" transform="matrix(1.00, 0.00, -0.00, -1.00, 717.5, 644.0)"> </text><text xml:space="preserve" font-family="HelveticaNeue-Light" font-size="38.6" fill="#000000" transform="matrix(1.00, 0.00, -0.00, -1.00, 728.3, 644.0)">a</text><text xml:space="preserve" font-family="HelveticaNeue-Light" font-size="38.6" fill="#000000" transform="matrix(1.00, 0.00, -0.00, -1.00, 748.3, 644.0)">f</text><text xml:space="preserve" font-family="HelveticaNeue-Light" font-size="38.6" fill="#000000" transform="matrix(1.00, 0.00, -0.00, -1.00, 758.3, 644.0)">t</text><text xml:space="preserve" font-family="HelveticaNeue-Light" font-size="38.6" fill="#000000" transform="matrix(1.00, 0.00, -0.00, -1.00, 769.8, 644.0)">e</text><text xml:space="preserve" font-family="HelveticaNeue-Light" font-size="38.6" fill="#000000" transform="matrix(1.00, 0.00, -0.00, -1.00, 789.8, 644.0)">r</text><text xml:space="preserve" font-family="HelveticaNeue-Light" font-size="38.6" fill="#000000" transform="matrix(1.00, 0.00, -0.00, -1.00, 802.0, 644.0)"> </text><text xml:space="preserve" font-family="HelveticaNeue-Light" font-size="38.6" fill="#000000" transform="matrix(1.00, 0.00, -0.00, -1.00, 812.7, 644.0)">6</text><text xml:space="preserve" font-family="HelveticaNeue-Light" font-size="38.6" fill="#000000" transform="matrix(1.00, 0.00, -0.00, -1.00, 834.2, 644.0)"> </text><text xml:space="preserve" font-family="HelveticaNeue-Light" font-size="38.6" fill="#000000" transform="matrix(1.00, 0.00, -0.00, -1.00, 844.9, 644.0)">m</text><text xml:space="preserve" font-family="HelveticaNeue-Light" font-size="38.6" fill="#000000" transform="matrix(1.00, 0.00, -0.00, -1.00, 877.1, 644.0)">o</text><text xml:space="preserve" font-family="HelveticaNeue-Light" font-size="38.6" fill="#000000" transform="matrix(1.00, 0.00, -0.00, -1.00, 898.6, 644.0)">n</text><text xml:space="preserve" font-family="HelveticaNeue-Light" font-size="38.6" fill="#000000" transform="matrix(1.00, 0.00, -0.00, -1.00, 919.4, 644.0)">t</text><text xml:space="preserve" font-family="HelveticaNeue-Light" font-size="38.6" fill="#000000" transform="matrix(1.00, 0.00, -0.00, -1.00, 930.8, 644.0)">h</text><text xml:space="preserve" font-family="HelveticaNeue-Light" font-size="38.6" fill="#000000" transform="matrix(1.00, 0.00, -0.00, -1.00, 951.6, 644.0)">s</text><g><clipPath id="clip-332"><path d="M 0.0 -3.0 L 1024.0 -3.0 L 1024.0 32.0 L 0.0 32.0 Z M 0.0 -3.0 "></path></clipPath><g clip-path="url(#clip-332)"><image xlink:href="../../7DADF203-883D-48A2-9CE7-D05C13A32AE8/assets/13517D532614FE47B4EEB7D34090B065.png" width="2432.00" height="82.00" transform="matrix(0.42, 0.00, -0.00, -0.43, 0.0, 32.0)"></image></g></g><g><clipPath id="clip-333"><path d="M 1.0 33.0 L 621.0 33.0 L 621.0 1.0 L 1.0 1.0 Z M 1.3 32.5 "></path></clipPath><g clip-path="url(#clip-333)"><g><clipPath id="clip-334"><path d="M 1.0 -7.0 L 1025.0 -7.0 L 1025.0 156.0 L 1.0 156.0 Z M 1.0 -7.0 "></path></clipPath><g clip-path="url(#clip-334)"><image xlink:href="../../7DADF203-883D-48A2-9CE7-D05C13A32AE8/assets/D4B75FC0E8ED425EAB0316F8DF7E9B2A.png" width="2438.00" height="388.00" transform="matrix(0.42, 0.00, -0.00, -0.42, 1.0, 156.0)"></image></g></g></g></g><g><clipPath id="clip-335"><path d="M 16.0 552.0 L 1008.0 552.0 L 1008.0 108.0 L 16.0 108.0 Z M 16.0 551.9 "></path></clipPath><g clip-path="url(#clip-335)"><g><clipPath id="clip-336"><path d="M 16.0 -148.0 L 1008.0 -148.0 L 1008.0 552.0 L 16.0 552.0 Z M 16.0 -148.0 "></path></clipPath><g clip-path="url(#clip-336)"><image xlink:href="../../9C5AFD0D-6251-4DCD-8236-04E2744D9018/assets/5867B0A12B0459D0B7F8129ED1082B6D.png" width="1244.00" height="878.00" transform="matrix(0.80, 0.00, -0.00, -0.80, 16.0, 552.0)"></image></g></g></g></g></g></svg>