<?xml version="1.0" encoding="UTF-8" standalone="no"?><svg xmlns="http://www.w3.org/2000/svg" xmlns:xlink="http://www.w3.org/1999/xlink" clip-rule="evenodd" stroke-miterlimit="10" viewBox="0 0 1024 768"><desc>SVG generated by Keynote</desc><defs></defs><g transform="matrix(1.00, 0.00, -0.00, -1.00, 0.0, 768.0)"><g><clipPath id="clip0x6080012a6960"><path d="M 0.0 768.0 L 1024.0 768.0 L 1024.0 0.0 L 0.0 0.0 Z M 0.0 768.0 "></path></clipPath><g clip-path="url(#clip0x6080012a6960)"><image xlink:href="../../51F4F382-6FD0-4C4F-A665-17FD47C04DD6/assets/5732106E1A276CE8744A133DC1FC1EF1.jpeg" width="2048.00" height="1536.00" transform="matrix(0.50, 0.00, -0.00, -0.50, 0.0, 768.0)"></image></g></g><image xlink:href="../../13440194-2B8E-4458-B858-8FC499737231/assets/9121E5FB3C823CCE21D2978BF0636772.png" width="333.00" height="164.00" transform="matrix(1.00, 0.00, -0.00, -1.00, -7.6, 776.0)" opacity="0.70"></image><image xlink:href="../../13440194-2B8E-4458-B858-8FC499737231/assets/9FE575249F266FF5E2CAE16D9B94E2AC.png" width="458.00" height="172.00" transform="matrix(0.61, 0.00, -0.00, -0.61, 17.4, 747.8)"></image><image xlink:href="../../13440194-2B8E-4458-B858-8FC499737231/assets/29FBFB9467DD20FDDBFAE3E7FFFEA00B.png" width="325.00" height="156.00" transform="matrix(1.00, 0.00, -0.00, 1.00, -4.6, 618.2)"></image><image xlink:href="../../13440194-2B8E-4458-B858-8FC499737231/assets/00ACBDF0CC5224A16D37A51D92EF9964.png" width="1088.00" height="246.00" transform="matrix(0.70, 0.00, -0.00, -0.70, 129.6, 626.7)"></image><image xlink:href="../../13440194-2B8E-4458-B858-8FC499737231/assets/2BC089E79F8B6E24F1B5CE182160B5A8.png" width="809.00" height="223.00" transform="matrix(1.00, 0.00, -0.00, 1.00, 107.6, 429.8)"></image><image xlink:href="../../13440194-2B8E-4458-B858-8FC499737231/assets/690B72B7DE41B9192C2FD606D83DB1E2.png" width="1196.00" height="802.00" transform="matrix(0.51, 0.00, -0.00, -0.51, 384.8, 433.1)"></image><image xlink:href="../../13440194-2B8E-4458-B858-8FC499737231/assets/EC44B076BA2745FC1546FDC719C971E2.png" width="657.00" height="461.00" transform="matrix(1.00, 0.00, -0.00, 1.00, 362.8, -1.8)"></image></g></svg>