<?xml version="1.0" encoding="UTF-8" standalone="no"?><svg xmlns="http://www.w3.org/2000/svg" xmlns:xlink="http://www.w3.org/1999/xlink" clip-rule="evenodd" stroke-miterlimit="4.00" viewBox="0 0 1024 768"><desc>SVG generated by Keynote</desc><defs></defs><g transform="matrix(1.00, 0.00, -0.00, -1.00, 0.0, 768.0)"><path d="M 0.0 768.0 L 1024.0 768.0 L 1024.0 0.0 L 0.0 0.0 Z M 0.0 768.0 " fill="#FEFFFE"></path><g><clipPath id="clip-725"><path d="M 198.0 698.0 L 826.0 698.0 L 826.0 70.0 L 198.0 70.0 Z M 197.6 697.9 "></path></clipPath><g clip-path="url(#clip-725)"><g><clipPath id="clip-726"><path d="M 198.0 70.0 L 1152.0 70.0 L 1152.0 698.0 L 198.0 698.0 Z M 198.0 70.0 "></path></clipPath><g clip-path="url(#clip-726)"><image xlink:href="../../B4A4EA6B-5842-4706-BFD7-8B80FB32DE74/assets/8CD06CD1C677E8FFC6BC72D0E8CB319B.png" width="2302.00" height="1514.00" transform="matrix(0.41, 0.00, -0.00, -0.41, 198.0, 698.0)"></image></g></g></g></g><text xml:space="preserve" font-family="HelveticaNeue-Light" font-size="42.0" fill="#000000" transform="matrix(1.00, 0.00, -0.00, -1.00, 49.0, 710.0)">L</text><text xml:space="preserve" font-family="HelveticaNeue-Light" font-size="42.0" fill="#000000" transform="matrix(1.00, 0.00, -0.00, -1.00, 71.6, 710.0)">o</text><text xml:space="preserve" font-family="HelveticaNeue-Light" font-size="42.0" fill="#000000" transform="matrix(1.00, 0.00, -0.00, -1.00, 94.9, 710.0)">n</text><text xml:space="preserve" font-family="HelveticaNeue-Light" font-size="42.0" fill="#000000" transform="matrix(1.00, 0.00, -0.00, -1.00, 117.5, 710.0)">g</text><text xml:space="preserve" font-family="HelveticaNeue-Light" font-size="42.0" fill="#000000" transform="matrix(1.00, 0.00, -0.00, -1.00, 140.8, 710.0)">-</text><text xml:space="preserve" font-family="HelveticaNeue-Light" font-size="42.0" fill="#000000" transform="matrix(1.00, 0.00, -0.00, -1.00, 156.4, 710.0)">t</text><text xml:space="preserve" font-family="HelveticaNeue-Light" font-size="42.0" fill="#000000" transform="matrix(1.00, 0.00, -0.00, -1.00, 168.8, 710.0)">e</text><text xml:space="preserve" font-family="HelveticaNeue-Light" font-size="42.0" fill="#000000" transform="matrix(1.00, 0.00, -0.00, -1.00, 190.6, 710.0)">r</text><text xml:space="preserve" font-family="HelveticaNeue-Light" font-size="42.0" fill="#000000" transform="matrix(1.00, 0.00, -0.00, -1.00, 203.8, 710.0)">m</text><text xml:space="preserve" font-family="HelveticaNeue-Light" font-size="42.0" fill="#000000" transform="matrix(1.00, 0.00, -0.00, -1.00, 238.8, 710.0)"> </text><text xml:space="preserve" font-family="HelveticaNeue-Light" font-size="42.0" fill="#000000" transform="matrix(1.00, 0.00, -0.00, -1.00, 250.5, 710.0)">r</text><text xml:space="preserve" font-family="HelveticaNeue-Light" font-size="42.0" fill="#000000" transform="matrix(1.00, 0.00, -0.00, -1.00, 263.7, 710.0)">i</text><text xml:space="preserve" font-family="HelveticaNeue-Light" font-size="42.0" fill="#000000" transform="matrix(1.00, 0.00, -0.00, -1.00, 271.5, 710.0)">s</text><text xml:space="preserve" font-family="HelveticaNeue-Light" font-size="42.0" fill="#000000" transform="matrix(1.00, 0.00, -0.00, -1.00, 291.7, 710.0)">k</text><text xml:space="preserve" font-family="HelveticaNeue-Light" font-size="42.0" fill="#000000" transform="matrix(1.00, 0.00, -0.00, -1.00, 312.7, 710.0)">-</text><text xml:space="preserve" font-family="HelveticaNeue-Light" font-size="42.0" fill="#000000" transform="matrix(1.00, 0.00, -0.00, -1.00, 328.2, 710.0)">s</text><text xml:space="preserve" font-family="HelveticaNeue-Light" font-size="42.0" fill="#000000" transform="matrix(1.00, 0.00, -0.00, -1.00, 348.4, 710.0)">t</text><text xml:space="preserve" font-family="HelveticaNeue-Light" font-size="42.0" fill="#000000" transform="matrix(1.00, 0.00, -0.00, -1.00, 360.9, 710.0)">r</text><text xml:space="preserve" font-family="HelveticaNeue-Light" font-size="42.0" fill="#000000" transform="matrix(1.00, 0.00, -0.00, -1.00, 374.1, 710.0)">a</text><text xml:space="preserve" font-family="HelveticaNeue-Light" font-size="42.0" fill="#000000" transform="matrix(1.00, 0.00, -0.00, -1.00, 395.9, 710.0)">t</text><text xml:space="preserve" font-family="HelveticaNeue-Light" font-size="42.0" fill="#000000" transform="matrix(1.00, 0.00, -0.00, -1.00, 408.3, 710.0)">i</text><text xml:space="preserve" font-family="HelveticaNeue-Light" font-size="42.0" fill="#000000" transform="matrix(1.00, 0.00, -0.00, -1.00, 416.1, 710.0)">ﬁ</text><text xml:space="preserve" font-family="HelveticaNeue-Light" font-size="42.0" fill="#000000" transform="matrix(1.00, 0.00, -0.00, -1.00, 434.7, 710.0)">e</text><text xml:space="preserve" font-family="HelveticaNeue-Light" font-size="42.0" fill="#000000" transform="matrix(1.00, 0.00, -0.00, -1.00, 456.5, 710.0)">d</text><text xml:space="preserve" font-family="HelveticaNeue-Light" font-size="42.0" fill="#000000" transform="matrix(1.00, 0.00, -0.00, -1.00, 480.6, 710.0)"> </text><text xml:space="preserve" font-family="HelveticaNeue-Light" font-size="42.0" fill="#000000" transform="matrix(1.00, 0.00, -0.00, -1.00, 492.3, 710.0)">o</text><text xml:space="preserve" font-family="HelveticaNeue-Light" font-size="42.0" fill="#000000" transform="matrix(1.00, 0.00, -0.00, -1.00, 515.7, 710.0)">u</text><text xml:space="preserve" font-family="HelveticaNeue-Light" font-size="42.0" fill="#000000" transform="matrix(1.00, 0.00, -0.00, -1.00, 538.2, 710.0)">t</text><text xml:space="preserve" font-family="HelveticaNeue-Light" font-size="42.0" fill="#000000" transform="matrix(1.00, 0.00, -0.00, -1.00, 550.6, 710.0)">c</text><text xml:space="preserve" font-family="HelveticaNeue-Light" font-size="42.0" fill="#000000" transform="matrix(1.00, 0.00, -0.00, -1.00, 572.4, 710.0)">o</text><text xml:space="preserve" font-family="HelveticaNeue-Light" font-size="42.0" fill="#000000" transform="matrix(1.00, 0.00, -0.00, -1.00, 595.8, 710.0)">m</text><text xml:space="preserve" font-family="HelveticaNeue-Light" font-size="42.0" fill="#000000" transform="matrix(1.00, 0.00, -0.00, -1.00, 630.8, 710.0)">e</text><text xml:space="preserve" font-family="HelveticaNeue-Light" font-size="42.0" fill="#000000" transform="matrix(1.00, 0.00, -0.00, -1.00, 652.6, 710.0)">s</text><text xml:space="preserve" font-family="HelveticaNeue-Light" font-size="22.0" fill="#000000" transform="matrix(1.00, 0.00, -0.00, -1.00, 20.7, 40.0)">M</text><text xml:space="preserve" font-family="HelveticaNeue-Light" font-size="22.0" fill="#000000" transform="matrix(1.00, 0.00, -0.00, -1.00, 38.8, 40.0)">c</text><text xml:space="preserve" font-family="HelveticaNeue-Light" font-size="22.0" fill="#000000" transform="matrix(1.00, 0.00, -0.00, -1.00, 50.2, 40.0)">C</text><text xml:space="preserve" font-family="HelveticaNeue-Light" font-size="22.0" fill="#000000" transform="matrix(1.00, 0.00, -0.00, -1.00, 65.7, 40.0)">u</text><text xml:space="preserve" font-family="HelveticaNeue-Light" font-size="22.0" fill="#000000" transform="matrix(1.00, 0.00, -0.00, -1.00, 77.5, 40.0)">r</text><text xml:space="preserve" font-family="HelveticaNeue-Light" font-size="22.0" fill="#000000" transform="matrix(1.00, 0.00, -0.00, -1.00, 84.1, 40.0)">d</text><text xml:space="preserve" font-family="HelveticaNeue-Light" font-size="22.0" fill="#000000" transform="matrix(1.00, 0.00, -0.00, -1.00, 96.7, 40.0)">y</text><text xml:space="preserve" font-family="HelveticaNeue-Light" font-size="22.0" fill="#000000" transform="matrix(1.00, 0.00, -0.00, -1.00, 106.9, 40.0)"> </text><text xml:space="preserve" font-family="HelveticaNeue-Light" font-size="22.0" fill="#000000" transform="matrix(1.00, 0.00, -0.00, -1.00, 113.0, 40.0)">S</text><text xml:space="preserve" font-family="HelveticaNeue-Light" font-size="22.0" fill="#000000" transform="matrix(1.00, 0.00, -0.00, -1.00, 126.8, 40.0)">R</text><text xml:space="preserve" font-family="HelveticaNeue-Light" font-size="22.0" fill="#000000" transform="matrix(1.00, 0.00, -0.00, -1.00, 141.5, 40.0)">,</text><text xml:space="preserve" font-family="HelveticaNeue-Light" font-size="22.0" fill="#000000" transform="matrix(1.00, 0.00, -0.00, -1.00, 147.6, 40.0)"> </text><text xml:space="preserve" font-family="HelveticaNeue-Light" font-size="22.0" fill="#000000" transform="matrix(1.00, 0.00, -0.00, -1.00, 153.7, 40.0)">e</text><text xml:space="preserve" font-family="HelveticaNeue-Light" font-size="22.0" fill="#000000" transform="matrix(1.00, 0.00, -0.00, -1.00, 165.2, 40.0)">t</text><text xml:space="preserve" font-family="HelveticaNeue-Light" font-size="22.0" fill="#000000" transform="matrix(1.00, 0.00, -0.00, -1.00, 171.7, 40.0)"> </text><text xml:space="preserve" font-family="HelveticaNeue-Light" font-size="22.0" fill="#000000" transform="matrix(1.00, 0.00, -0.00, -1.00, 177.8, 40.0)">a</text><text xml:space="preserve" font-family="HelveticaNeue-Light" font-size="22.0" fill="#000000" transform="matrix(1.00, 0.00, -0.00, -1.00, 189.2, 40.0)">l</text><text xml:space="preserve" font-family="HelveticaNeue-Light" font-size="22.0" fill="#000000" transform="matrix(1.00, 0.00, -0.00, -1.00, 193.3, 40.0)">.</text><text xml:space="preserve" font-family="HelveticaNeue-Light" font-size="22.0" fill="#000000" transform="matrix(1.00, 0.00, -0.00, -1.00, 199.4, 40.0)"> </text><text xml:space="preserve" font-family="HelveticaNeue-Light" font-size="22.0" fill="#000000" transform="matrix(1.00, 0.00, -0.00, -1.00, 205.5, 40.0)">R</text><text xml:space="preserve" font-family="HelveticaNeue-Light" font-size="22.0" fill="#000000" transform="matrix(1.00, 0.00, -0.00, -1.00, 220.2, 40.0)">i</text><text xml:space="preserve" font-family="HelveticaNeue-Light" font-size="22.0" fill="#000000" transform="matrix(1.00, 0.00, -0.00, -1.00, 224.3, 40.0)">s</text><text xml:space="preserve" font-family="HelveticaNeue-Light" font-size="22.0" fill="#000000" transform="matrix(1.00, 0.00, -0.00, -1.00, 234.8, 40.0)">k</text><text xml:space="preserve" font-family="HelveticaNeue-Light" font-size="22.0" fill="#000000" transform="matrix(1.00, 0.00, -0.00, -1.00, 245.8, 40.0)">-</text><text xml:space="preserve" font-family="HelveticaNeue-Light" font-size="22.0" fill="#000000" transform="matrix(1.00, 0.00, -0.00, -1.00, 254.0, 40.0)">s</text><text xml:space="preserve" font-family="HelveticaNeue-Light" font-size="22.0" fill="#000000" transform="matrix(1.00, 0.00, -0.00, -1.00, 264.6, 40.0)">t</text><text xml:space="preserve" font-family="HelveticaNeue-Light" font-size="22.0" fill="#000000" transform="matrix(1.00, 0.00, -0.00, -1.00, 271.1, 40.0)">r</text><text xml:space="preserve" font-family="HelveticaNeue-Light" font-size="22.0" fill="#000000" transform="matrix(1.00, 0.00, -0.00, -1.00, 278.0, 40.0)">a</text><text xml:space="preserve" font-family="HelveticaNeue-Light" font-size="22.0" fill="#000000" transform="matrix(1.00, 0.00, -0.00, -1.00, 289.4, 40.0)">t</text><text xml:space="preserve" font-family="HelveticaNeue-Light" font-size="22.0" fill="#000000" transform="matrix(1.00, 0.00, -0.00, -1.00, 295.9, 40.0)">i</text><text xml:space="preserve" font-family="HelveticaNeue-Light" font-size="22.0" fill="#000000" transform="matrix(1.00, 0.00, -0.00, -1.00, 300.0, 40.0)">ﬁ</text><text xml:space="preserve" font-family="HelveticaNeue-Light" font-size="22.0" fill="#000000" transform="matrix(1.00, 0.00, -0.00, -1.00, 309.8, 40.0)">e</text><text xml:space="preserve" font-family="HelveticaNeue-Light" font-size="22.0" fill="#000000" transform="matrix(1.00, 0.00, -0.00, -1.00, 321.2, 40.0)">d</text><text xml:space="preserve" font-family="HelveticaNeue-Light" font-size="22.0" fill="#000000" transform="matrix(1.00, 0.00, -0.00, -1.00, 333.8, 40.0)"> </text><text xml:space="preserve" font-family="HelveticaNeue-Light" font-size="22.0" fill="#000000" transform="matrix(1.00, 0.00, -0.00, -1.00, 339.9, 40.0)">o</text><text xml:space="preserve" font-family="HelveticaNeue-Light" font-size="22.0" fill="#000000" transform="matrix(1.00, 0.00, -0.00, -1.00, 352.2, 40.0)">u</text><text xml:space="preserve" font-family="HelveticaNeue-Light" font-size="22.0" fill="#000000" transform="matrix(1.00, 0.00, -0.00, -1.00, 364.0, 40.0)">t</text><text xml:space="preserve" font-family="HelveticaNeue-Light" font-size="22.0" fill="#000000" transform="matrix(1.00, 0.00, -0.00, -1.00, 370.5, 40.0)">c</text><text xml:space="preserve" font-family="HelveticaNeue-Light" font-size="22.0" fill="#000000" transform="matrix(1.00, 0.00, -0.00, -1.00, 381.9, 40.0)">o</text><text xml:space="preserve" font-family="HelveticaNeue-Light" font-size="22.0" fill="#000000" transform="matrix(1.00, 0.00, -0.00, -1.00, 394.1, 40.0)">m</text><text xml:space="preserve" font-family="HelveticaNeue-Light" font-size="22.0" fill="#000000" transform="matrix(1.00, 0.00, -0.00, -1.00, 412.5, 40.0)">e</text><text xml:space="preserve" font-family="HelveticaNeue-Light" font-size="22.0" fill="#000000" transform="matrix(1.00, 0.00, -0.00, -1.00, 423.9, 40.0)">s</text><text xml:space="preserve" font-family="HelveticaNeue-Light" font-size="22.0" fill="#000000" transform="matrix(1.00, 0.00, -0.00, -1.00, 434.5, 40.0)"> </text><text xml:space="preserve" font-family="HelveticaNeue-Light" font-size="22.0" fill="#000000" transform="matrix(1.00, 0.00, -0.00, -1.00, 440.6, 40.0)">o</text><text xml:space="preserve" font-family="HelveticaNeue-Light" font-size="22.0" fill="#000000" transform="matrix(1.00, 0.00, -0.00, -1.00, 452.8, 40.0)">f</text><text xml:space="preserve" font-family="HelveticaNeue-Light" font-size="22.0" fill="#000000" transform="matrix(1.00, 0.00, -0.00, -1.00, 458.5, 40.0)"> </text><text xml:space="preserve" font-family="HelveticaNeue-Light" font-size="22.0" fill="#000000" transform="matrix(1.00, 0.00, -0.00, -1.00, 464.6, 40.0)">n</text><text xml:space="preserve" font-family="HelveticaNeue-Light" font-size="22.0" fill="#000000" transform="matrix(1.00, 0.00, -0.00, -1.00, 476.4, 40.0)">o</text><text xml:space="preserve" font-family="HelveticaNeue-Light" font-size="22.0" fill="#000000" transform="matrix(1.00, 0.00, -0.00, -1.00, 488.7, 40.0)">n</text><text xml:space="preserve" font-family="HelveticaNeue-Light" font-size="22.0" fill="#000000" transform="matrix(1.00, 0.00, -0.00, -1.00, 500.5, 40.0)">m</text><text xml:space="preserve" font-family="HelveticaNeue-Light" font-size="22.0" fill="#000000" transform="matrix(1.00, 0.00, -0.00, -1.00, 518.8, 40.0)">y</text><text xml:space="preserve" font-family="HelveticaNeue-Light" font-size="22.0" fill="#000000" transform="matrix(1.00, 0.00, -0.00, -1.00, 529.0, 40.0)">e</text><text xml:space="preserve" font-family="HelveticaNeue-Light" font-size="22.0" fill="#000000" transform="matrix(1.00, 0.00, -0.00, -1.00, 540.4, 40.0)">l</text><text xml:space="preserve" font-family="HelveticaNeue-Light" font-size="22.0" fill="#000000" transform="matrix(1.00, 0.00, -0.00, -1.00, 544.5, 40.0)">o</text><text xml:space="preserve" font-family="HelveticaNeue-Light" font-size="22.0" fill="#000000" transform="matrix(1.00, 0.00, -0.00, -1.00, 556.7, 40.0)">a</text><text xml:space="preserve" font-family="HelveticaNeue-Light" font-size="22.0" fill="#000000" transform="matrix(1.00, 0.00, -0.00, -1.00, 568.1, 40.0)">b</text><text xml:space="preserve" font-family="HelveticaNeue-Light" font-size="22.0" fill="#000000" transform="matrix(1.00, 0.00, -0.00, -1.00, 580.8, 40.0)">l</text><text xml:space="preserve" font-family="HelveticaNeue-Light" font-size="22.0" fill="#000000" transform="matrix(1.00, 0.00, -0.00, -1.00, 584.8, 40.0)">a</text><text xml:space="preserve" font-family="HelveticaNeue-Light" font-size="22.0" fill="#000000" transform="matrix(1.00, 0.00, -0.00, -1.00, 596.3, 40.0)">t</text><text xml:space="preserve" font-family="HelveticaNeue-Light" font-size="22.0" fill="#000000" transform="matrix(1.00, 0.00, -0.00, -1.00, 602.8, 40.0)">i</text><text xml:space="preserve" font-family="HelveticaNeue-Light" font-size="22.0" fill="#000000" transform="matrix(1.00, 0.00, -0.00, -1.00, 606.8, 40.0)">v</text><text xml:space="preserve" font-family="HelveticaNeue-Light" font-size="22.0" fill="#000000" transform="matrix(1.00, 0.00, -0.00, -1.00, 617.0, 40.0)">e</text><text xml:space="preserve" font-family="HelveticaNeue-Light" font-size="22.0" fill="#000000" transform="matrix(1.00, 0.00, -0.00, -1.00, 628.4, 40.0)"> </text><text xml:space="preserve" font-family="HelveticaNeue-Light" font-size="22.0" fill="#000000" transform="matrix(1.00, 0.00, -0.00, -1.00, 634.6, 40.0)">H</text><text xml:space="preserve" font-family="HelveticaNeue-Light" font-size="22.0" fill="#000000" transform="matrix(1.00, 0.00, -0.00, -1.00, 650.0, 40.0)">L</text><text xml:space="preserve" font-family="HelveticaNeue-Light" font-size="22.0" fill="#000000" transform="matrix(1.00, 0.00, -0.00, -1.00, 661.9, 40.0)">A</text><text xml:space="preserve" font-family="HelveticaNeue-Light" font-size="22.0" fill="#000000" transform="matrix(1.00, 0.00, -0.00, -1.00, 675.7, 40.0)">-</text><text xml:space="preserve" font-family="HelveticaNeue-Light" font-size="22.0" fill="#000000" transform="matrix(1.00, 0.00, -0.00, -1.00, 683.9, 40.0)">h</text><text xml:space="preserve" font-family="HelveticaNeue-Light" font-size="22.0" fill="#000000" transform="matrix(1.00, 0.00, -0.00, -1.00, 695.7, 40.0)">a</text><text xml:space="preserve" font-family="HelveticaNeue-Light" font-size="22.0" fill="#000000" transform="matrix(1.00, 0.00, -0.00, -1.00, 707.1, 40.0)">p</text><text xml:space="preserve" font-family="HelveticaNeue-Light" font-size="22.0" fill="#000000" transform="matrix(1.00, 0.00, -0.00, -1.00, 719.7, 40.0)">l</text><text xml:space="preserve" font-family="HelveticaNeue-Light" font-size="22.0" fill="#000000" transform="matrix(1.00, 0.00, -0.00, -1.00, 723.8, 40.0)">o</text><text xml:space="preserve" font-family="HelveticaNeue-Light" font-size="22.0" fill="#000000" transform="matrix(1.00, 0.00, -0.00, -1.00, 736.0, 40.0)">i</text><text xml:space="preserve" font-family="HelveticaNeue-Light" font-size="22.0" fill="#000000" transform="matrix(1.00, 0.00, -0.00, -1.00, 740.1, 40.0)">d</text><text xml:space="preserve" font-family="HelveticaNeue-Light" font-size="22.0" fill="#000000" transform="matrix(1.00, 0.00, -0.00, -1.00, 752.7, 40.0)">e</text><text xml:space="preserve" font-family="HelveticaNeue-Light" font-size="22.0" fill="#000000" transform="matrix(1.00, 0.00, -0.00, -1.00, 764.1, 40.0)">n</text><text xml:space="preserve" font-family="HelveticaNeue-Light" font-size="22.0" fill="#000000" transform="matrix(1.00, 0.00, -0.00, -1.00, 776.0, 40.0)">t</text><text xml:space="preserve" font-family="HelveticaNeue-Light" font-size="22.0" fill="#000000" transform="matrix(1.00, 0.00, -0.00, -1.00, 782.5, 40.0)">i</text><text xml:space="preserve" font-family="HelveticaNeue-Light" font-size="22.0" fill="#000000" transform="matrix(1.00, 0.00, -0.00, -1.00, 786.5, 40.0)">c</text><text xml:space="preserve" font-family="HelveticaNeue-Light" font-size="22.0" fill="#000000" transform="matrix(1.00, 0.00, -0.00, -1.00, 798.0, 40.0)">a</text><text xml:space="preserve" font-family="HelveticaNeue-Light" font-size="22.0" fill="#000000" transform="matrix(1.00, 0.00, -0.00, -1.00, 809.4, 40.0)">l</text><text xml:space="preserve" font-family="HelveticaNeue-Light" font-size="22.0" fill="#000000" transform="matrix(1.00, 0.00, -0.00, -1.00, 813.4, 40.0)"> </text><text xml:space="preserve" font-family="HelveticaNeue-Light" font-size="22.0" fill="#000000" transform="matrix(1.00, 0.00, -0.00, -1.00, 819.6, 40.0)">B</text><text xml:space="preserve" font-family="HelveticaNeue-Light" font-size="22.0" fill="#000000" transform="matrix(1.00, 0.00, -0.00, -1.00, 834.2, 40.0)">M</text><text xml:space="preserve" font-family="HelveticaNeue-Light" font-size="22.0" fill="#000000" transform="matrix(1.00, 0.00, -0.00, -1.00, 852.3, 40.0)">T</text><text xml:space="preserve" font-family="HelveticaNeue-Light" font-size="22.0" fill="#000000" transform="matrix(1.00, 0.00, -0.00, -1.00, 864.5, 40.0)"> </text><text xml:space="preserve" font-family="HelveticaNeue-Light" font-size="22.0" fill="#000000" transform="matrix(1.00, 0.00, -0.00, -1.00, 870.6, 40.0)">w</text><text xml:space="preserve" font-family="HelveticaNeue-Light" font-size="22.0" fill="#000000" transform="matrix(1.00, 0.00, -0.00, -1.00, 886.9, 40.0)">i</text><text xml:space="preserve" font-family="HelveticaNeue-Light" font-size="22.0" fill="#000000" transform="matrix(1.00, 0.00, -0.00, -1.00, 891.0, 40.0)">t</text><text xml:space="preserve" font-family="HelveticaNeue-Light" font-size="22.0" fill="#000000" transform="matrix(1.00, 0.00, -0.00, -1.00, 897.5, 40.0)">h</text><text xml:space="preserve" font-family="HelveticaNeue-Light" font-size="22.0" fill="#000000" transform="matrix(1.00, 0.00, -0.00, -1.00, 909.3, 40.0)"> </text><text xml:space="preserve" font-family="HelveticaNeue-Light" font-size="22.0" fill="#000000" transform="matrix(1.00, 0.00, -0.00, -1.00, 915.5, 40.0)">h</text><text xml:space="preserve" font-family="HelveticaNeue-Light" font-size="22.0" fill="#000000" transform="matrix(1.00, 0.00, -0.00, -1.00, 927.3, 40.0)">i</text><text xml:space="preserve" font-family="HelveticaNeue-Light" font-size="22.0" fill="#000000" transform="matrix(1.00, 0.00, -0.00, -1.00, 931.3, 40.0)">g</text><text xml:space="preserve" font-family="HelveticaNeue-Light" font-size="22.0" fill="#000000" transform="matrix(1.00, 0.00, -0.00, -1.00, 943.6, 40.0)">h</text><text xml:space="preserve" font-family="HelveticaNeue-Light" font-size="22.0" fill="#000000" transform="matrix(1.00, 0.00, -0.00, -1.00, 955.4, 40.0)">-</text><text xml:space="preserve" font-family="HelveticaNeue-Light" font-size="22.0" fill="#000000" transform="matrix(1.00, 0.00, -0.00, -1.00, 963.5, 40.0)">d</text><text xml:space="preserve" font-family="HelveticaNeue-Light" font-size="22.0" fill="#000000" transform="matrix(1.00, 0.00, -0.00, -1.00, 976.2, 40.0)">o</text><text xml:space="preserve" font-family="HelveticaNeue-Light" font-size="22.0" fill="#000000" transform="matrix(1.00, 0.00, -0.00, -1.00, 988.4, 40.0)">s</text><text xml:space="preserve" font-family="HelveticaNeue-Light" font-size="22.0" fill="#000000" transform="matrix(1.00, 0.00, -0.00, -1.00, 999.0, 40.0)">e</text><text xml:space="preserve" font-family="HelveticaNeue-Light" font-size="22.0" fill="#000000" transform="matrix(1.00, 0.00, -0.00, -1.00, 1010.4, 40.0)"> </text><text xml:space="preserve" font-family="HelveticaNeue-Light" font-size="22.0" fill="#000000" transform="matrix(1.00, 0.00, -0.00, -1.00, 275.8, 13.0)">p</text><text xml:space="preserve" font-family="HelveticaNeue-Light" font-size="22.0" fill="#000000" transform="matrix(1.00, 0.00, -0.00, -1.00, 288.5, 13.0)">o</text><text xml:space="preserve" font-family="HelveticaNeue-Light" font-size="22.0" fill="#000000" transform="matrix(1.00, 0.00, -0.00, -1.00, 300.7, 13.0)">s</text><text xml:space="preserve" font-family="HelveticaNeue-Light" font-size="22.0" fill="#000000" transform="matrix(1.00, 0.00, -0.00, -1.00, 311.3, 13.0)">t</text><text xml:space="preserve" font-family="HelveticaNeue-Light" font-size="22.0" fill="#000000" transform="matrix(1.00, 0.00, -0.00, -1.00, 317.8, 13.0)">t</text><text xml:space="preserve" font-family="HelveticaNeue-Light" font-size="22.0" fill="#000000" transform="matrix(1.00, 0.00, -0.00, -1.00, 324.3, 13.0)">r</text><text xml:space="preserve" font-family="HelveticaNeue-Light" font-size="22.0" fill="#000000" transform="matrix(1.00, 0.00, -0.00, -1.00, 331.2, 13.0)">a</text><text xml:space="preserve" font-family="HelveticaNeue-Light" font-size="22.0" fill="#000000" transform="matrix(1.00, 0.00, -0.00, -1.00, 342.6, 13.0)">n</text><text xml:space="preserve" font-family="HelveticaNeue-Light" font-size="22.0" fill="#000000" transform="matrix(1.00, 0.00, -0.00, -1.00, 354.5, 13.0)">s</text><text xml:space="preserve" font-family="HelveticaNeue-Light" font-size="22.0" fill="#000000" transform="matrix(1.00, 0.00, -0.00, -1.00, 365.0, 13.0)">p</text><text xml:space="preserve" font-family="HelveticaNeue-Light" font-size="22.0" fill="#000000" transform="matrix(1.00, 0.00, -0.00, -1.00, 377.7, 13.0)">l</text><text xml:space="preserve" font-family="HelveticaNeue-Light" font-size="22.0" fill="#000000" transform="matrix(1.00, 0.00, -0.00, -1.00, 381.7, 13.0)">a</text><text xml:space="preserve" font-family="HelveticaNeue-Light" font-size="22.0" fill="#000000" transform="matrix(1.00, 0.00, -0.00, -1.00, 393.1, 13.0)">n</text><text xml:space="preserve" font-family="HelveticaNeue-Light" font-size="22.0" fill="#000000" transform="matrix(1.00, 0.00, -0.00, -1.00, 405.0, 13.0)">t</text><text xml:space="preserve" font-family="HelveticaNeue-Light" font-size="22.0" fill="#000000" transform="matrix(1.00, 0.00, -0.00, -1.00, 411.5, 13.0)">a</text><text xml:space="preserve" font-family="HelveticaNeue-Light" font-size="22.0" fill="#000000" transform="matrix(1.00, 0.00, -0.00, -1.00, 422.9, 13.0)">t</text><text xml:space="preserve" font-family="HelveticaNeue-Light" font-size="22.0" fill="#000000" transform="matrix(1.00, 0.00, -0.00, -1.00, 429.4, 13.0)">i</text><text xml:space="preserve" font-family="HelveticaNeue-Light" font-size="22.0" fill="#000000" transform="matrix(1.00, 0.00, -0.00, -1.00, 433.5, 13.0)">o</text><text xml:space="preserve" font-family="HelveticaNeue-Light" font-size="22.0" fill="#000000" transform="matrix(1.00, 0.00, -0.00, -1.00, 445.7, 13.0)">n</text><text xml:space="preserve" font-family="HelveticaNeue-Light" font-size="22.0" fill="#000000" transform="matrix(1.00, 0.00, -0.00, -1.00, 457.5, 13.0)"> </text><text xml:space="preserve" font-family="HelveticaNeue-Light" font-size="22.0" fill="#000000" transform="matrix(1.00, 0.00, -0.00, -1.00, 463.6, 13.0)">c</text><text xml:space="preserve" font-family="HelveticaNeue-Light" font-size="22.0" fill="#000000" transform="matrix(1.00, 0.00, -0.00, -1.00, 475.1, 13.0)">y</text><text xml:space="preserve" font-family="HelveticaNeue-Light" font-size="22.0" fill="#000000" transform="matrix(1.00, 0.00, -0.00, -1.00, 485.2, 13.0)">c</text><text xml:space="preserve" font-family="HelveticaNeue-Light" font-size="22.0" fill="#000000" transform="matrix(1.00, 0.00, -0.00, -1.00, 496.7, 13.0)">l</text><text xml:space="preserve" font-family="HelveticaNeue-Light" font-size="22.0" fill="#000000" transform="matrix(1.00, 0.00, -0.00, -1.00, 500.7, 13.0)">o</text><text xml:space="preserve" font-family="HelveticaNeue-Light" font-size="22.0" fill="#000000" transform="matrix(1.00, 0.00, -0.00, -1.00, 513.0, 13.0)">p</text><text xml:space="preserve" font-family="HelveticaNeue-Light" font-size="22.0" fill="#000000" transform="matrix(1.00, 0.00, -0.00, -1.00, 525.6, 13.0)">h</text><text xml:space="preserve" font-family="HelveticaNeue-Light" font-size="22.0" fill="#000000" transform="matrix(1.00, 0.00, -0.00, -1.00, 537.4, 13.0)">o</text><text xml:space="preserve" font-family="HelveticaNeue-Light" font-size="22.0" fill="#000000" transform="matrix(1.00, 0.00, -0.00, -1.00, 549.6, 13.0)">s</text><text xml:space="preserve" font-family="HelveticaNeue-Light" font-size="22.0" fill="#000000" transform="matrix(1.00, 0.00, -0.00, -1.00, 560.2, 13.0)">p</text><text xml:space="preserve" font-family="HelveticaNeue-Light" font-size="22.0" fill="#000000" transform="matrix(1.00, 0.00, -0.00, -1.00, 572.8, 13.0)">h</text><text xml:space="preserve" font-family="HelveticaNeue-Light" font-size="22.0" fill="#000000" transform="matrix(1.00, 0.00, -0.00, -1.00, 584.7, 13.0)">a</text><text xml:space="preserve" font-family="HelveticaNeue-Light" font-size="22.0" fill="#000000" transform="matrix(1.00, 0.00, -0.00, -1.00, 596.1, 13.0)">m</text><text xml:space="preserve" font-family="HelveticaNeue-Light" font-size="22.0" fill="#000000" transform="matrix(1.00, 0.00, -0.00, -1.00, 614.4, 13.0)">i</text><text xml:space="preserve" font-family="HelveticaNeue-Light" font-size="22.0" fill="#000000" transform="matrix(1.00, 0.00, -0.00, -1.00, 618.5, 13.0)">d</text><text xml:space="preserve" font-family="HelveticaNeue-Light" font-size="22.0" fill="#000000" transform="matrix(1.00, 0.00, -0.00, -1.00, 631.1, 13.0)">e</text><text xml:space="preserve" font-family="HelveticaNeue-Light" font-size="22.0" fill="#000000" transform="matrix(1.00, 0.00, -0.00, -1.00, 642.5, 13.0)">.</text><text xml:space="preserve" font-family="HelveticaNeue-Light" font-size="22.0" fill="#000000" transform="matrix(1.00, 0.00, -0.00, -1.00, 648.6, 13.0)"> </text><text xml:space="preserve" font-family="HelveticaNeue-Light" font-size="22.0" fill="#000000" transform="matrix(1.00, 0.00, -0.00, -1.00, 654.8, 13.0)">B</text><text xml:space="preserve" font-family="HelveticaNeue-Light" font-size="22.0" fill="#000000" transform="matrix(1.00, 0.00, -0.00, -1.00, 669.4, 13.0)">l</text><text xml:space="preserve" font-family="HelveticaNeue-Light" font-size="22.0" fill="#000000" transform="matrix(1.00, 0.00, -0.00, -1.00, 673.5, 13.0)">o</text><text xml:space="preserve" font-family="HelveticaNeue-Light" font-size="22.0" fill="#000000" transform="matrix(1.00, 0.00, -0.00, -1.00, 685.7, 13.0)">o</text><text xml:space="preserve" font-family="HelveticaNeue-Light" font-size="22.0" fill="#000000" transform="matrix(1.00, 0.00, -0.00, -1.00, 698.0, 13.0)">d</text><text xml:space="preserve" font-family="HelveticaNeue-Light" font-size="22.0" fill="#000000" transform="matrix(1.00, 0.00, -0.00, -1.00, 710.6, 13.0)">.</text><text xml:space="preserve" font-family="HelveticaNeue-Light" font-size="22.0" fill="#000000" transform="matrix(1.00, 0.00, -0.00, -1.00, 716.7, 13.0)"> </text><text xml:space="preserve" font-family="HelveticaNeue-Light" font-size="22.0" fill="#000000" transform="matrix(1.00, 0.00, -0.00, -1.00, 722.8, 13.0)">2</text><text xml:space="preserve" font-family="HelveticaNeue-Light" font-size="22.0" fill="#000000" transform="matrix(1.00, 0.00, -0.00, -1.00, 735.1, 13.0)">0</text><text xml:space="preserve" font-family="HelveticaNeue-Light" font-size="22.0" fill="#000000" transform="matrix(1.00, 0.00, -0.00, -1.00, 747.3, 13.0)">1</text><text xml:space="preserve" font-family="HelveticaNeue-Light" font-size="22.0" fill="#000000" transform="matrix(1.00, 0.00, -0.00, -1.00, 759.5, 13.0)">5</text><text xml:space="preserve" font-family="HelveticaNeue-Light" font-size="22.0" fill="#000000" transform="matrix(1.00, 0.00, -0.00, -1.00, 771.7, 13.0)"> </text><text xml:space="preserve" font-family="HelveticaNeue-Light" font-size="22.0" fill="#000000" transform="matrix(1.00, 0.00, -0.00, -1.00, 777.9, 13.0)">M</text><text xml:space="preserve" font-family="HelveticaNeue-Light" font-size="22.0" fill="#000000" transform="matrix(1.00, 0.00, -0.00, -1.00, 795.9, 13.0)">a</text><text xml:space="preserve" font-family="HelveticaNeue-Light" font-size="22.0" fill="#000000" transform="matrix(1.00, 0.00, -0.00, -1.00, 807.3, 13.0)">y</text><text xml:space="preserve" font-family="HelveticaNeue-Light" font-size="22.0" fill="#000000" transform="matrix(1.00, 0.00, -0.00, -1.00, 817.5, 13.0)"> </text><text xml:space="preserve" font-family="HelveticaNeue-Light" font-size="22.0" fill="#000000" transform="matrix(1.00, 0.00, -0.00, -1.00, 823.6, 13.0)">7</text><text xml:space="preserve" font-family="HelveticaNeue-Light" font-size="22.0" fill="#000000" transform="matrix(1.00, 0.00, -0.00, -1.00, 835.9, 13.0)">;</text><text xml:space="preserve" font-family="HelveticaNeue-Light" font-size="22.0" fill="#000000" transform="matrix(1.00, 0.00, -0.00, -1.00, 842.0, 13.0)">1</text><text xml:space="preserve" font-family="HelveticaNeue-Light" font-size="22.0" fill="#000000" transform="matrix(1.00, 0.00, -0.00, -1.00, 854.2, 13.0)">2</text><text xml:space="preserve" font-family="HelveticaNeue-Light" font-size="22.0" fill="#000000" transform="matrix(1.00, 0.00, -0.00, -1.00, 866.5, 13.0)">5</text><text xml:space="preserve" font-family="HelveticaNeue-Light" font-size="22.0" fill="#000000" transform="matrix(1.00, 0.00, -0.00, -1.00, 878.7, 13.0)">(</text><text xml:space="preserve" font-family="HelveticaNeue-Light" font-size="22.0" fill="#000000" transform="matrix(1.00, 0.00, -0.00, -1.00, 884.0, 13.0)">1</text><text xml:space="preserve" font-family="HelveticaNeue-Light" font-size="22.0" fill="#000000" transform="matrix(1.00, 0.00, -0.00, -1.00, 896.2, 13.0)">9</text><text xml:space="preserve" font-family="HelveticaNeue-Light" font-size="22.0" fill="#000000" transform="matrix(1.00, 0.00, -0.00, -1.00, 908.5, 13.0)">)</text><text xml:space="preserve" font-family="HelveticaNeue-Light" font-size="22.0" fill="#000000" transform="matrix(1.00, 0.00, -0.00, -1.00, 913.8, 13.0)">:</text><text xml:space="preserve" font-family="HelveticaNeue-Light" font-size="22.0" fill="#000000" transform="matrix(1.00, 0.00, -0.00, -1.00, 919.9, 13.0)">3</text><text xml:space="preserve" font-family="HelveticaNeue-Light" font-size="22.0" fill="#000000" transform="matrix(1.00, 0.00, -0.00, -1.00, 932.1, 13.0)">0</text><text xml:space="preserve" font-family="HelveticaNeue-Light" font-size="22.0" fill="#000000" transform="matrix(1.00, 0.00, -0.00, -1.00, 944.3, 13.0)">2</text><text xml:space="preserve" font-family="HelveticaNeue-Light" font-size="22.0" fill="#000000" transform="matrix(1.00, 0.00, -0.00, -1.00, 956.6, 13.0)">4</text><text xml:space="preserve" font-family="HelveticaNeue-Light" font-size="22.0" fill="#000000" transform="matrix(1.00, 0.00, -0.00, -1.00, 968.8, 13.0)">–</text><text xml:space="preserve" font-family="HelveticaNeue-Light" font-size="22.0" fill="#000000" transform="matrix(1.00, 0.00, -0.00, -1.00, 979.8, 13.0)">3</text><text xml:space="preserve" font-family="HelveticaNeue-Light" font-size="22.0" fill="#000000" transform="matrix(1.00, 0.00, -0.00, -1.00, 992.0, 13.0)">1</text><text xml:space="preserve" font-family="HelveticaNeue-Light" font-size="22.0" fill="#000000" transform="matrix(1.00, 0.00, -0.00, -1.00, 1004.3, 13.0)">.</text></g></svg>