<?xml version="1.0" encoding="UTF-8" standalone="no"?><svg xmlns="http://www.w3.org/2000/svg" xmlns:xlink="http://www.w3.org/1999/xlink" clip-rule="evenodd" stroke-miterlimit="10" viewBox="0 0 1024 768"><desc>SVG generated by Keynote</desc><defs></defs><g transform="matrix(1.00, 0.00, -0.00, -1.00, 0.0, 768.0)"><g><clipPath id="clip0x6000006b5960"><path d="M 0.0 768.0 L 1024.0 768.0 L 1024.0 0.0 L 0.0 0.0 Z M 0.0 768.0 "></path></clipPath><g clip-path="url(#clip0x6000006b5960)"><image xlink:href="31D284A5C75E14674D2A89FDB99F8048.jpeg" width="2048.00" height="1536.00" transform="matrix(0.50, 0.00, -0.00, -0.50, 0.0, 768.0)"></image></g></g><image xlink:href="D8B02036E6E65B8138E43945FE3748E6.png" width="899.00" height="56.00" transform="matrix(1.00, 0.00, -0.00, -1.00, 63.0, 557.0)"></image><text xml:space="preserve" font-family="HelveticaNeue-Bold,Helvetica Neue" font-weight="bold" font-size="52.5" fill="#FEFFFE" transform="matrix(1.00, 0.00, -0.00, -1.00, 64.1, 516.9)">P</text><text xml:space="preserve" font-family="HelveticaNeue-Bold,Helvetica Neue" font-weight="bold" font-size="52.5" fill="#FEFFFE" transform="matrix(1.00, 0.00, -0.00, -1.00, 99.1, 516.9)">o</text><text xml:space="preserve" font-family="HelveticaNeue-Bold,Helvetica Neue" font-weight="bold" font-size="52.5" fill="#FEFFFE" transform="matrix(1.00, 0.00, -0.00, -1.00, 131.2, 516.9)">r</text><text xml:space="preserve" font-family="HelveticaNeue-Bold,Helvetica Neue" font-weight="bold" font-size="52.5" fill="#FEFFFE" transform="matrix(1.00, 0.00, -0.00, -1.00, 151.6, 516.9)">t</text><text xml:space="preserve" font-family="HelveticaNeue-Bold,Helvetica Neue" font-weight="bold" font-size="52.5" fill="#FEFFFE" transform="matrix(1.00, 0.00, -0.00, -1.00, 170.0, 516.9)">a</text><text xml:space="preserve" font-family="HelveticaNeue-Bold,Helvetica Neue" font-weight="bold" font-size="52.5" fill="#FEFFFE" transform="matrix(1.00, 0.00, -0.00, -1.00, 200.2, 516.9)"> </text><text xml:space="preserve" font-family="HelveticaNeue-Bold,Helvetica Neue" font-weight="bold" font-size="52.5" fill="#FEFFFE" transform="matrix(1.00, 0.00, -0.00, -1.00, 214.8, 516.9)">h</text><text xml:space="preserve" font-family="HelveticaNeue-Bold,Helvetica Neue" font-weight="bold" font-size="52.5" fill="#FEFFFE" transform="matrix(1.00, 0.00, -0.00, -1.00, 245.9, 516.9)">e</text><text xml:space="preserve" font-family="HelveticaNeue-Bold,Helvetica Neue" font-weight="bold" font-size="52.5" fill="#FEFFFE" transform="matrix(1.00, 0.00, -0.00, -1.00, 276.0, 516.9)">p</text><text xml:space="preserve" font-family="HelveticaNeue-Bold,Helvetica Neue" font-weight="bold" font-size="52.5" fill="#FEFFFE" transform="matrix(1.00, 0.00, -0.00, -1.00, 308.1, 516.9)">a</text><text xml:space="preserve" font-family="HelveticaNeue-Bold,Helvetica Neue" font-weight="bold" font-size="52.5" fill="#FEFFFE" transform="matrix(1.00, 0.00, -0.00, -1.00, 338.2, 516.9)">t</text><text xml:space="preserve" font-family="HelveticaNeue-Bold,Helvetica Neue" font-weight="bold" font-size="52.5" fill="#FEFFFE" transform="matrix(1.00, 0.00, -0.00, -1.00, 356.7, 516.9)">i</text><text xml:space="preserve" font-family="HelveticaNeue-Bold,Helvetica Neue" font-weight="bold" font-size="52.5" fill="#FEFFFE" transform="matrix(1.00, 0.00, -0.00, -1.00, 370.2, 516.9)">s</text><text xml:space="preserve" font-family="HelveticaNeue-Bold,Helvetica Neue" font-weight="bold" font-size="52.5" fill="#FEFFFE" transform="matrix(1.00, 0.00, -0.00, -1.00, 398.4, 516.9)"> </text><text xml:space="preserve" font-family="HelveticaNeue-Bold,Helvetica Neue" font-weight="bold" font-size="52.5" fill="#FEFFFE" transform="matrix(1.00, 0.00, -0.00, -1.00, 413.0, 516.9)">m</text><text xml:space="preserve" font-family="HelveticaNeue-Bold,Helvetica Neue" font-weight="bold" font-size="52.5" fill="#FEFFFE" transform="matrix(1.00, 0.00, -0.00, -1.00, 460.5, 516.9)">a</text><text xml:space="preserve" font-family="HelveticaNeue-Bold,Helvetica Neue" font-weight="bold" font-size="52.5" fill="#FEFFFE" transform="matrix(1.00, 0.00, -0.00, -1.00, 490.6, 516.9)">s</text><text xml:space="preserve" font-family="HelveticaNeue-Bold,Helvetica Neue" font-weight="bold" font-size="52.5" fill="#FEFFFE" transform="matrix(1.00, 0.00, -0.00, -1.00, 518.8, 516.9)">s</text><text xml:space="preserve" font-family="HelveticaNeue-Bold,Helvetica Neue" font-weight="bold" font-size="52.5" fill="#FEFFFE" transform="matrix(1.00, 0.00, -0.00, -1.00, 547.0, 516.9)"> </text><text xml:space="preserve" font-family="HelveticaNeue-Bold,Helvetica Neue" font-weight="bold" font-size="52.5" fill="#FEFFFE" transform="matrix(1.00, 0.00, -0.00, -1.00, 561.6, 516.9)">i</text><text xml:space="preserve" font-family="HelveticaNeue-Bold,Helvetica Neue" font-weight="bold" font-size="52.5" fill="#FEFFFE" transform="matrix(1.00, 0.00, -0.00, -1.00, 575.1, 516.9)">n</text><text xml:space="preserve" font-family="HelveticaNeue-Bold,Helvetica Neue" font-weight="bold" font-size="52.5" fill="#FEFFFE" transform="matrix(1.00, 0.00, -0.00, -1.00, 606.3, 516.9)"> </text><text xml:space="preserve" font-family="HelveticaNeue-Bold,Helvetica Neue" font-weight="bold" font-size="52.5" fill="#FEFFFE" transform="matrix(1.00, 0.00, -0.00, -1.00, 620.8, 516.9)">a</text><text xml:space="preserve" font-family="HelveticaNeue-Bold,Helvetica Neue" font-weight="bold" font-size="52.5" fill="#FEFFFE" transform="matrix(1.00, 0.00, -0.00, -1.00, 651.0, 516.9)"> </text><text xml:space="preserve" font-family="HelveticaNeue-Bold,Helvetica Neue" font-weight="bold" font-size="52.5" fill="#FEFFFE" transform="matrix(1.00, 0.00, -0.00, -1.00, 665.6, 516.9)">p</text><text xml:space="preserve" font-family="HelveticaNeue-Bold,Helvetica Neue" font-weight="bold" font-size="52.5" fill="#FEFFFE" transform="matrix(1.00, 0.00, -0.00, -1.00, 697.6, 516.9)">a</text><text xml:space="preserve" font-family="HelveticaNeue-Bold,Helvetica Neue" font-weight="bold" font-size="52.5" fill="#FEFFFE" transform="matrix(1.00, 0.00, -0.00, -1.00, 727.7, 516.9)">t</text><text xml:space="preserve" font-family="HelveticaNeue-Bold,Helvetica Neue" font-weight="bold" font-size="52.5" fill="#FEFFFE" transform="matrix(1.00, 0.00, -0.00, -1.00, 746.2, 516.9)">i</text><text xml:space="preserve" font-family="HelveticaNeue-Bold,Helvetica Neue" font-weight="bold" font-size="52.5" fill="#FEFFFE" transform="matrix(1.00, 0.00, -0.00, -1.00, 759.8, 516.9)">e</text><text xml:space="preserve" font-family="HelveticaNeue-Bold,Helvetica Neue" font-weight="bold" font-size="52.5" fill="#FEFFFE" transform="matrix(1.00, 0.00, -0.00, -1.00, 789.9, 516.9)">n</text><text xml:space="preserve" font-family="HelveticaNeue-Bold,Helvetica Neue" font-weight="bold" font-size="52.5" fill="#FEFFFE" transform="matrix(1.00, 0.00, -0.00, -1.00, 821.0, 516.9)">t</text><text xml:space="preserve" font-family="HelveticaNeue-Bold,Helvetica Neue" font-weight="bold" font-size="52.5" fill="#FEFFFE" transform="matrix(1.00, 0.00, -0.00, -1.00, 839.5, 516.9)"> </text><text xml:space="preserve" font-family="HelveticaNeue-Bold,Helvetica Neue" font-weight="bold" font-size="52.5" fill="#FEFFFE" transform="matrix(1.00, 0.00, -0.00, -1.00, 854.1, 516.9)">w</text><text xml:space="preserve" font-family="HelveticaNeue-Bold,Helvetica Neue" font-weight="bold" font-size="52.5" fill="#FEFFFE" transform="matrix(1.00, 0.00, -0.00, -1.00, 896.8, 516.9)">i</text><text xml:space="preserve" font-family="HelveticaNeue-Bold,Helvetica Neue" font-weight="bold" font-size="52.5" fill="#FEFFFE" transform="matrix(1.00, 0.00, -0.00, -1.00, 910.3, 516.9)">t</text><text xml:space="preserve" font-family="HelveticaNeue-Bold,Helvetica Neue" font-weight="bold" font-size="52.5" fill="#FEFFFE" transform="matrix(1.00, 0.00, -0.00, -1.00, 928.8, 516.9)">h</text><text xml:space="preserve" font-family="HelveticaNeue-Bold,Helvetica Neue" font-weight="bold" font-size="52.5" fill="#FEFFFE" transform="matrix(1.00, 0.00, -0.00, -1.00, 959.9, 516.9)"> </text><image xlink:href="45C7C6802A8D95E70953CBE6AA43F666.png" width="822.00" height="57.00" transform="matrix(1.00, 0.00, -0.00, -1.00, 102.0, 494.0)"></image><text xml:space="preserve" font-family="HelveticaNeue-Bold,Helvetica Neue" font-weight="bold" font-size="52.5" fill="#FEFFFE" transform="matrix(1.00, 0.00, -0.00, -1.00, 103.3, 452.9)">M</text><text xml:space="preserve" font-family="HelveticaNeue-Bold,Helvetica Neue" font-weight="bold" font-size="52.5" fill="#FEFFFE" transform="matrix(1.00, 0.00, -0.00, -1.00, 150.9, 452.9)">o</text><text xml:space="preserve" font-family="HelveticaNeue-Bold,Helvetica Neue" font-weight="bold" font-size="52.5" fill="#FEFFFE" transform="matrix(1.00, 0.00, -0.00, -1.00, 182.9, 452.9)">n</text><text xml:space="preserve" font-family="HelveticaNeue-Bold,Helvetica Neue" font-weight="bold" font-size="52.5" fill="#FEFFFE" transform="matrix(1.00, 0.00, -0.00, -1.00, 214.0, 452.9)">o</text><text xml:space="preserve" font-family="HelveticaNeue-Bold,Helvetica Neue" font-weight="bold" font-size="52.5" fill="#FEFFFE" transform="matrix(1.00, 0.00, -0.00, -1.00, 246.1, 452.9)">M</text><text xml:space="preserve" font-family="HelveticaNeue-Bold,Helvetica Neue" font-weight="bold" font-size="52.5" fill="#FEFFFE" transform="matrix(1.00, 0.00, -0.00, -1.00, 293.7, 452.9)">A</text><text xml:space="preserve" font-family="HelveticaNeue-Bold,Helvetica Neue" font-weight="bold" font-size="52.5" fill="#FEFFFE" transform="matrix(1.00, 0.00, -0.00, -1.00, 329.7, 452.9)">C</text><text xml:space="preserve" font-family="HelveticaNeue-Bold,Helvetica Neue" font-weight="bold" font-size="52.5" fill="#FEFFFE" transform="matrix(1.00, 0.00, -0.00, -1.00, 368.5, 452.9)"> </text><text xml:space="preserve" font-family="HelveticaNeue-Bold,Helvetica Neue" font-weight="bold" font-size="52.5" fill="#FEFFFE" transform="matrix(1.00, 0.00, -0.00, -1.00, 383.1, 452.9)">a</text><text xml:space="preserve" font-family="HelveticaNeue-Bold,Helvetica Neue" font-weight="bold" font-size="52.5" fill="#FEFFFE" transform="matrix(1.00, 0.00, -0.00, -1.00, 413.3, 452.9)">n</text><text xml:space="preserve" font-family="HelveticaNeue-Bold,Helvetica Neue" font-weight="bold" font-size="52.5" fill="#FEFFFE" transform="matrix(1.00, 0.00, -0.00, -1.00, 444.4, 452.9)">d</text><text xml:space="preserve" font-family="HelveticaNeue-Bold,Helvetica Neue" font-weight="bold" font-size="52.5" fill="#FEFFFE" transform="matrix(1.00, 0.00, -0.00, -1.00, 476.4, 452.9)"> </text><text xml:space="preserve" font-family="HelveticaNeue-Bold,Helvetica Neue" font-weight="bold" font-size="52.5" fill="#FEFFFE" transform="matrix(1.00, 0.00, -0.00, -1.00, 491.0, 452.9)">M</text><text xml:space="preserve" font-family="HelveticaNeue-Bold,Helvetica Neue" font-weight="bold" font-size="52.5" fill="#FEFFFE" transform="matrix(1.00, 0.00, -0.00, -1.00, 538.6, 452.9)">D</text><text xml:space="preserve" font-family="HelveticaNeue-Bold,Helvetica Neue" font-weight="bold" font-size="52.5" fill="#FEFFFE" transform="matrix(1.00, 0.00, -0.00, -1.00, 577.5, 452.9)">S</text><text xml:space="preserve" font-family="HelveticaNeue-Bold,Helvetica Neue" font-weight="bold" font-size="52.5" fill="#FEFFFE" transform="matrix(1.00, 0.00, -0.00, -1.00, 611.6, 452.9)">,</text><text xml:space="preserve" font-family="HelveticaNeue-Bold,Helvetica Neue" font-weight="bold" font-size="52.5" fill="#FEFFFE" transform="matrix(1.00, 0.00, -0.00, -1.00, 626.2, 452.9)"> </text><text xml:space="preserve" font-family="HelveticaNeue-Bold,Helvetica Neue" font-weight="bold" font-size="52.5" fill="#FEFFFE" transform="matrix(1.00, 0.00, -0.00, -1.00, 640.8, 452.9)">t</text><text xml:space="preserve" font-family="HelveticaNeue-Bold,Helvetica Neue" font-weight="bold" font-size="52.5" fill="#FEFFFE" transform="matrix(1.00, 0.00, -0.00, -1.00, 659.2, 452.9)">h</text><text xml:space="preserve" font-family="HelveticaNeue-Bold,Helvetica Neue" font-weight="bold" font-size="52.5" fill="#FEFFFE" transform="matrix(1.00, 0.00, -0.00, -1.00, 690.4, 452.9)">r</text><text xml:space="preserve" font-family="HelveticaNeue-Bold,Helvetica Neue" font-weight="bold" font-size="52.5" fill="#FEFFFE" transform="matrix(1.00, 0.00, -0.00, -1.00, 709.8, 452.9)">e</text><text xml:space="preserve" font-family="HelveticaNeue-Bold,Helvetica Neue" font-weight="bold" font-size="52.5" fill="#FEFFFE" transform="matrix(1.00, 0.00, -0.00, -1.00, 739.9, 452.9)">e</text><text xml:space="preserve" font-family="HelveticaNeue-Bold,Helvetica Neue" font-weight="bold" font-size="52.5" fill="#FEFFFE" transform="matrix(1.00, 0.00, -0.00, -1.00, 770.1, 452.9)"> </text><text xml:space="preserve" font-family="HelveticaNeue-Bold,Helvetica Neue" font-weight="bold" font-size="52.5" fill="#FEFFFE" transform="matrix(1.00, 0.00, -0.00, -1.00, 784.7, 452.9)">y</text><text xml:space="preserve" font-family="HelveticaNeue-Bold,Helvetica Neue" font-weight="bold" font-size="52.5" fill="#FEFFFE" transform="matrix(1.00, 0.00, -0.00, -1.00, 811.9, 452.9)">e</text><text xml:space="preserve" font-family="HelveticaNeue-Bold,Helvetica Neue" font-weight="bold" font-size="52.5" fill="#FEFFFE" transform="matrix(1.00, 0.00, -0.00, -1.00, 842.0, 452.9)">a</text><text xml:space="preserve" font-family="HelveticaNeue-Bold,Helvetica Neue" font-weight="bold" font-size="52.5" fill="#FEFFFE" transform="matrix(1.00, 0.00, -0.00, -1.00, 872.1, 452.9)">r</text><text xml:space="preserve" font-family="HelveticaNeue-Bold,Helvetica Neue" font-weight="bold" font-size="52.5" fill="#FEFFFE" transform="matrix(1.00, 0.00, -0.00, -1.00, 892.6, 452.9)">s</text><text xml:space="preserve" font-family="HelveticaNeue-Bold,Helvetica Neue" font-weight="bold" font-size="52.5" fill="#FEFFFE" transform="matrix(1.00, 0.00, -0.00, -1.00, 920.7, 452.9)"> </text><image xlink:href="B3292CADF295E023DE5BA3FFD0869361.png" width="391.00" height="56.00" transform="matrix(1.00, 0.00, -0.00, -1.00, 317.0, 429.0)"></image><text xml:space="preserve" font-family="HelveticaNeue-Bold,Helvetica Neue" font-weight="bold" font-size="52.5" fill="#FEFFFE" transform="matrix(1.00, 0.00, -0.00, -1.00, 319.6, 388.9)">a</text><text xml:space="preserve" font-family="HelveticaNeue-Bold,Helvetica Neue" font-weight="bold" font-size="52.5" fill="#FEFFFE" transform="matrix(1.00, 0.00, -0.00, -1.00, 349.7, 388.9)">f</text><text xml:space="preserve" font-family="HelveticaNeue-Bold,Helvetica Neue" font-weight="bold" font-size="52.5" fill="#FEFFFE" transform="matrix(1.00, 0.00, -0.00, -1.00, 367.2, 388.9)">t</text><text xml:space="preserve" font-family="HelveticaNeue-Bold,Helvetica Neue" font-weight="bold" font-size="52.5" fill="#FEFFFE" transform="matrix(1.00, 0.00, -0.00, -1.00, 385.7, 388.9)">e</text><text xml:space="preserve" font-family="HelveticaNeue-Bold,Helvetica Neue" font-weight="bold" font-size="52.5" fill="#FEFFFE" transform="matrix(1.00, 0.00, -0.00, -1.00, 415.8, 388.9)">r</text><text xml:space="preserve" font-family="HelveticaNeue-Bold,Helvetica Neue" font-weight="bold" font-size="52.5" fill="#FEFFFE" transform="matrix(1.00, 0.00, -0.00, -1.00, 436.2, 388.9)"> </text><text xml:space="preserve" font-family="HelveticaNeue-Bold,Helvetica Neue" font-weight="bold" font-size="52.5" fill="#FEFFFE" transform="matrix(1.00, 0.00, -0.00, -1.00, 450.8, 388.9)">t</text><text xml:space="preserve" font-family="HelveticaNeue-Bold,Helvetica Neue" font-weight="bold" font-size="52.5" fill="#FEFFFE" transform="matrix(1.00, 0.00, -0.00, -1.00, 469.3, 388.9)">r</text><text xml:space="preserve" font-family="HelveticaNeue-Bold,Helvetica Neue" font-weight="bold" font-size="52.5" fill="#FEFFFE" transform="matrix(1.00, 0.00, -0.00, -1.00, 489.7, 388.9)">a</text><text xml:space="preserve" font-family="HelveticaNeue-Bold,Helvetica Neue" font-weight="bold" font-size="52.5" fill="#FEFFFE" transform="matrix(1.00, 0.00, -0.00, -1.00, 519.8, 388.9)">n</text><text xml:space="preserve" font-family="HelveticaNeue-Bold,Helvetica Neue" font-weight="bold" font-size="52.5" fill="#FEFFFE" transform="matrix(1.00, 0.00, -0.00, -1.00, 550.9, 388.9)">s</text><text xml:space="preserve" font-family="HelveticaNeue-Bold,Helvetica Neue" font-weight="bold" font-size="52.5" fill="#FEFFFE" transform="matrix(1.00, 0.00, -0.00, -1.00, 579.1, 388.9)">p</text><text xml:space="preserve" font-family="HelveticaNeue-Bold,Helvetica Neue" font-weight="bold" font-size="52.5" fill="#FEFFFE" transform="matrix(1.00, 0.00, -0.00, -1.00, 611.2, 388.9)">l</text><text xml:space="preserve" font-family="HelveticaNeue-Bold,Helvetica Neue" font-weight="bold" font-size="52.5" fill="#FEFFFE" transform="matrix(1.00, 0.00, -0.00, -1.00, 624.7, 388.9)">a</text><text xml:space="preserve" font-family="HelveticaNeue-Bold,Helvetica Neue" font-weight="bold" font-size="52.5" fill="#FEFFFE" transform="matrix(1.00, 0.00, -0.00, -1.00, 654.8, 388.9)">n</text><text xml:space="preserve" font-family="HelveticaNeue-Bold,Helvetica Neue" font-weight="bold" font-size="52.5" fill="#FEFFFE" transform="matrix(1.00, 0.00, -0.00, -1.00, 685.9, 388.9)">t</text><image xlink:href="2E6AF18E5598BB7F06604272592B636B.png" width="170.00" height="32.00" transform="matrix(1.00, 0.00, -0.00, -1.00, 376.0, 355.0)"></image><text xml:space="preserve" font-family="HelveticaNeue-Medium,Helvetica Neue" font-size="24.0" fill="#FEFFFE" transform="matrix(1.00, 0.00, -0.00, -1.00, 379.1, 334.9)">M</text><text xml:space="preserve" font-family="HelveticaNeue-Medium,Helvetica Neue" font-size="24.0" fill="#FEFFFE" transform="matrix(1.00, 0.00, -0.00, -1.00, 400.4, 334.9)">i</text><text xml:space="preserve" font-family="HelveticaNeue-Medium,Helvetica Neue" font-size="24.0" fill="#FEFFFE" transform="matrix(1.00, 0.00, -0.00, -1.00, 406.2, 334.9)">l</text><text xml:space="preserve" font-family="HelveticaNeue-Medium,Helvetica Neue" font-size="24.0" fill="#FEFFFE" transform="matrix(1.00, 0.00, -0.00, -1.00, 412.0, 334.9)">o</text><text xml:space="preserve" font-family="HelveticaNeue-Medium,Helvetica Neue" font-size="24.0" fill="#FEFFFE" transform="matrix(1.00, 0.00, -0.00, -1.00, 426.2, 334.9)">š</text><text xml:space="preserve" font-family="HelveticaNeue-Medium,Helvetica Neue" font-size="24.0" fill="#FEFFFE" transform="matrix(1.00, 0.00, -0.00, -1.00, 438.6, 334.9)"> </text><text xml:space="preserve" font-family="HelveticaNeue-Medium,Helvetica Neue" font-size="24.0" fill="#FEFFFE" transform="matrix(1.00, 0.00, -0.00, -1.00, 445.3, 334.9)">M</text><text xml:space="preserve" font-family="HelveticaNeue-Medium,Helvetica Neue" font-size="24.0" fill="#FEFFFE" transform="matrix(1.00, 0.00, -0.00, -1.00, 466.7, 334.9)">i</text><text xml:space="preserve" font-family="HelveticaNeue-Medium,Helvetica Neue" font-size="24.0" fill="#FEFFFE" transform="matrix(1.00, 0.00, -0.00, -1.00, 472.4, 334.9)">l</text><text xml:space="preserve" font-family="HelveticaNeue-Medium,Helvetica Neue" font-size="24.0" fill="#FEFFFE" transform="matrix(1.00, 0.00, -0.00, -1.00, 478.2, 334.9)">j</text><text xml:space="preserve" font-family="HelveticaNeue-Medium,Helvetica Neue" font-size="24.0" fill="#FEFFFE" transform="matrix(1.00, 0.00, -0.00, -1.00, 484.0, 334.9)">k</text><text xml:space="preserve" font-family="HelveticaNeue-Medium,Helvetica Neue" font-size="24.0" fill="#FEFFFE" transform="matrix(1.00, 0.00, -0.00, -1.00, 496.9, 334.9)">o</text><text xml:space="preserve" font-family="HelveticaNeue-Medium,Helvetica Neue" font-size="24.0" fill="#FEFFFE" transform="matrix(1.00, 0.00, -0.00, -1.00, 511.1, 334.9)">v</text><text xml:space="preserve" font-family="HelveticaNeue-Medium,Helvetica Neue" font-size="24.0" fill="#FEFFFE" transform="matrix(1.00, 0.00, -0.00, -1.00, 523.6, 334.9)">i</text><text xml:space="preserve" font-family="HelveticaNeue-Medium,Helvetica Neue" font-size="24.0" fill="#FEFFFE" transform="matrix(1.00, 0.00, -0.00, -1.00, 529.4, 334.9)">ć</text><image xlink:href="5C0F916ED0FDAAE0F4BBB3713668D637.png" width="102.00" height="27.00" transform="matrix(1.00, 0.00, -0.00, -1.00, 547.0, 355.0)"></image><text xml:space="preserve" font-family="HelveticaNeue-Medium,Helvetica Neue" font-size="24.0" fill="#FEFFFE" transform="matrix(1.00, 0.00, -0.00, -1.00, 542.7, 334.9)"> </text><text xml:space="preserve" font-family="HelveticaNeue-Medium,Helvetica Neue" font-size="24.0" fill="#FEFFFE" transform="matrix(1.00, 0.00, -0.00, -1.00, 549.4, 334.9)">M</text><text xml:space="preserve" font-family="HelveticaNeue-Medium,Helvetica Neue" font-size="24.0" fill="#FEFFFE" transform="matrix(1.00, 0.00, -0.00, -1.00, 570.7, 334.9)">D</text><text xml:space="preserve" font-family="HelveticaNeue-Medium,Helvetica Neue" font-size="24.0" fill="#FEFFFE" transform="matrix(1.00, 0.00, -0.00, -1.00, 588.0, 334.9)"> </text><text xml:space="preserve" font-family="HelveticaNeue-Medium,Helvetica Neue" font-size="24.0" fill="#FEFFFE" transform="matrix(1.00, 0.00, -0.00, -1.00, 594.7, 334.9)">M</text><text xml:space="preserve" font-family="HelveticaNeue-Medium,Helvetica Neue" font-size="24.0" fill="#FEFFFE" transform="matrix(1.00, 0.00, -0.00, -1.00, 616.1, 334.9)">S</text><text xml:space="preserve" font-family="HelveticaNeue-Medium,Helvetica Neue" font-size="24.0" fill="#FEFFFE" transform="matrix(1.00, 0.00, -0.00, -1.00, 631.6, 334.9)">c</text></g></svg>