<?xml version="1.0" encoding="UTF-8" standalone="no"?><svg xmlns="http://www.w3.org/2000/svg" xmlns:xlink="http://www.w3.org/1999/xlink" clip-rule="evenodd" stroke-miterlimit="10" viewBox="0 0 1024 768"><desc>SVG generated by Keynote</desc><defs></defs><g transform="matrix(1.00, 0.00, -0.00, -1.00, 0.0, 768.0)"><g><clipPath id="clip0x6080006b2900"><path d="M 0.0 768.0 L 1024.0 768.0 L 1024.0 0.0 L 0.0 0.0 Z M 0.0 768.0 "></path></clipPath><g clip-path="url(#clip0x6080006b2900)"><image xlink:href="../../BE4D2DDB-FBE4-467E-AE38-B34F9028D09E/assets/31D284A5C75E14674D2A89FDB99F8048.jpeg" width="2048.00" height="1536.00" transform="matrix(0.50, 0.00, -0.00, -0.50, 0.0, 768.0)"></image></g></g><image xlink:href="B4DE10CF20E305EDBBE1D4F5187AFAC8.png" width="213.00" height="56.00" transform="matrix(1.00, 0.00, -0.00, -1.00, 406.0, 689.0)"></image><text xml:space="preserve" font-family="HelveticaNeue-Bold,Helvetica Neue" font-weight="bold" font-size="64.0" fill="#FEFFFE" transform="matrix(1.00, 0.00, -0.00, -1.00, 406.5, 640.7)">M</text><text xml:space="preserve" font-family="HelveticaNeue-Bold,Helvetica Neue" font-weight="bold" font-size="64.0" fill="#FEFFFE" transform="matrix(1.00, 0.00, -0.00, -1.00, 464.5, 640.7)">s</text><text xml:space="preserve" font-family="HelveticaNeue-Bold,Helvetica Neue" font-weight="bold" font-size="64.0" fill="#FEFFFE" transform="matrix(1.00, 0.00, -0.00, -1.00, 498.9, 640.7)">.</text><text xml:space="preserve" font-family="HelveticaNeue-Bold,Helvetica Neue" font-weight="bold" font-size="64.0" fill="#FEFFFE" transform="matrix(1.00, 0.00, -0.00, -1.00, 516.7, 640.7)"> </text><text xml:space="preserve" font-family="HelveticaNeue-Bold,Helvetica Neue" font-weight="bold" font-size="64.0" fill="#FEFFFE" transform="matrix(1.00, 0.00, -0.00, -1.00, 534.5, 640.7)">J</text><text xml:space="preserve" font-family="HelveticaNeue-Bold,Helvetica Neue" font-weight="bold" font-size="64.0" fill="#FEFFFE" transform="matrix(1.00, 0.00, -0.00, -1.00, 570.1, 640.7)">D</text><image xlink:href="13ABAA1531A9A9065153F5F3090EA525.png" width="774.00" height="40.00" transform="matrix(1.00, 0.00, -0.00, -1.00, 62.0, 466.0)"></image><text xml:space="preserve" font-family="HelveticaNeue-Medium,Helvetica Neue" font-size="34.0" fill="#EAEAEA" transform="matrix(1.00, 0.00, -0.00, -1.00, 64.0, 439.4)">E</text><text xml:space="preserve" font-family="HelveticaNeue-Medium,Helvetica Neue" font-size="34.0" fill="#EAEAEA" transform="matrix(1.00, 0.00, -0.00, -1.00, 85.4, 439.4)">l</text><text xml:space="preserve" font-family="HelveticaNeue-Medium,Helvetica Neue" font-size="34.0" fill="#EAEAEA" transform="matrix(1.00, 0.00, -0.00, -1.00, 93.6, 439.4)">d</text><text xml:space="preserve" font-family="HelveticaNeue-Medium,Helvetica Neue" font-size="34.0" fill="#EAEAEA" transform="matrix(1.00, 0.00, -0.00, -1.00, 114.4, 439.4)">e</text><text xml:space="preserve" font-family="HelveticaNeue-Medium,Helvetica Neue" font-size="34.0" fill="#EAEAEA" transform="matrix(1.00, 0.00, -0.00, -1.00, 133.3, 439.4)">r</text><text xml:space="preserve" font-family="HelveticaNeue-Medium,Helvetica Neue" font-size="34.0" fill="#EAEAEA" transform="matrix(1.00, 0.00, -0.00, -1.00, 145.3, 439.4)">l</text><text xml:space="preserve" font-family="HelveticaNeue-Medium,Helvetica Neue" font-size="34.0" fill="#EAEAEA" transform="matrix(1.00, 0.00, -0.00, -1.00, 153.5, 439.4)">y</text><text xml:space="preserve" font-family="HelveticaNeue-Medium,Helvetica Neue" font-size="34.0" fill="#EAEAEA" transform="matrix(1.00, 0.00, -0.00, -1.00, 171.1, 439.4)"> </text><text xml:space="preserve" font-family="HelveticaNeue-Medium,Helvetica Neue" font-size="34.0" fill="#EAEAEA" transform="matrix(1.00, 0.00, -0.00, -1.00, 180.6, 439.4)">w</text><text xml:space="preserve" font-family="HelveticaNeue-Medium,Helvetica Neue" font-size="34.0" fill="#EAEAEA" transform="matrix(1.00, 0.00, -0.00, -1.00, 207.0, 439.4)">o</text><text xml:space="preserve" font-family="HelveticaNeue-Medium,Helvetica Neue" font-size="34.0" fill="#EAEAEA" transform="matrix(1.00, 0.00, -0.00, -1.00, 227.2, 439.4)">m</text><text xml:space="preserve" font-family="HelveticaNeue-Medium,Helvetica Neue" font-size="34.0" fill="#EAEAEA" transform="matrix(1.00, 0.00, -0.00, -1.00, 256.7, 439.4)">a</text><text xml:space="preserve" font-family="HelveticaNeue-Medium,Helvetica Neue" font-size="34.0" fill="#EAEAEA" transform="matrix(1.00, 0.00, -0.00, -1.00, 275.7, 439.4)">n</text><text xml:space="preserve" font-family="HelveticaNeue-Medium,Helvetica Neue" font-size="34.0" fill="#EAEAEA" transform="matrix(1.00, 0.00, -0.00, -1.00, 295.2, 439.4)"> </text><text xml:space="preserve" font-family="HelveticaNeue-Medium,Helvetica Neue" font-size="34.0" fill="#EAEAEA" transform="matrix(1.00, 0.00, -0.00, -1.00, 304.6, 439.4)">p</text><text xml:space="preserve" font-family="HelveticaNeue-Medium,Helvetica Neue" font-size="34.0" fill="#EAEAEA" transform="matrix(1.00, 0.00, -0.00, -1.00, 325.4, 439.4)">r</text><text xml:space="preserve" font-family="HelveticaNeue-Medium,Helvetica Neue" font-size="34.0" fill="#EAEAEA" transform="matrix(1.00, 0.00, -0.00, -1.00, 336.7, 439.4)">e</text><text xml:space="preserve" font-family="HelveticaNeue-Medium,Helvetica Neue" font-size="34.0" fill="#EAEAEA" transform="matrix(1.00, 0.00, -0.00, -1.00, 355.7, 439.4)">s</text><text xml:space="preserve" font-family="HelveticaNeue-Medium,Helvetica Neue" font-size="34.0" fill="#EAEAEA" transform="matrix(1.00, 0.00, -0.00, -1.00, 373.3, 439.4)">e</text><text xml:space="preserve" font-family="HelveticaNeue-Medium,Helvetica Neue" font-size="34.0" fill="#EAEAEA" transform="matrix(1.00, 0.00, -0.00, -1.00, 392.2, 439.4)">n</text><text xml:space="preserve" font-family="HelveticaNeue-Medium,Helvetica Neue" font-size="34.0" fill="#EAEAEA" transform="matrix(1.00, 0.00, -0.00, -1.00, 411.7, 439.4)">t</text><text xml:space="preserve" font-family="HelveticaNeue-Medium,Helvetica Neue" font-size="34.0" fill="#EAEAEA" transform="matrix(1.00, 0.00, -0.00, -1.00, 423.0, 439.4)">s</text><text xml:space="preserve" font-family="HelveticaNeue-Medium,Helvetica Neue" font-size="34.0" fill="#EAEAEA" transform="matrix(1.00, 0.00, -0.00, -1.00, 440.7, 439.4)"> </text><text xml:space="preserve" font-family="HelveticaNeue-Medium,Helvetica Neue" font-size="34.0" fill="#EAEAEA" transform="matrix(1.00, 0.00, -0.00, -1.00, 450.1, 439.4)">w</text><text xml:space="preserve" font-family="HelveticaNeue-Medium,Helvetica Neue" font-size="34.0" fill="#EAEAEA" transform="matrix(1.00, 0.00, -0.00, -1.00, 476.6, 439.4)">i</text><text xml:space="preserve" font-family="HelveticaNeue-Medium,Helvetica Neue" font-size="34.0" fill="#EAEAEA" transform="matrix(1.00, 0.00, -0.00, -1.00, 484.8, 439.4)">t</text><text xml:space="preserve" font-family="HelveticaNeue-Medium,Helvetica Neue" font-size="34.0" fill="#EAEAEA" transform="matrix(1.00, 0.00, -0.00, -1.00, 496.1, 439.4)">h</text><text xml:space="preserve" font-family="HelveticaNeue-Medium,Helvetica Neue" font-size="34.0" fill="#EAEAEA" transform="matrix(1.00, 0.00, -0.00, -1.00, 515.6, 439.4)"> </text><text xml:space="preserve" font-family="HelveticaNeue-Medium,Helvetica Neue" font-size="34.0" fill="#EAEAEA" transform="matrix(1.00, 0.00, -0.00, -1.00, 525.1, 439.4)">a</text><text xml:space="preserve" font-family="HelveticaNeue-Medium,Helvetica Neue" font-size="34.0" fill="#EAEAEA" transform="matrix(1.00, 0.00, -0.00, -1.00, 544.0, 439.4)"> </text><text xml:space="preserve" font-family="HelveticaNeue-Medium,Helvetica Neue" font-size="34.0" fill="#EAEAEA" transform="matrix(1.00, 0.00, -0.00, -1.00, 553.4, 439.4)">2</text><text xml:space="preserve" font-family="HelveticaNeue-Medium,Helvetica Neue" font-size="34.0" fill="#EAEAEA" transform="matrix(1.00, 0.00, -0.00, -1.00, 572.3, 439.4)">-</text><text xml:space="preserve" font-family="HelveticaNeue-Medium,Helvetica Neue" font-size="34.0" fill="#EAEAEA" transform="matrix(1.00, 0.00, -0.00, -1.00, 585.6, 439.4)">w</text><text xml:space="preserve" font-family="HelveticaNeue-Medium,Helvetica Neue" font-size="34.0" fill="#EAEAEA" transform="matrix(1.00, 0.00, -0.00, -1.00, 612.0, 439.4)">e</text><text xml:space="preserve" font-family="HelveticaNeue-Medium,Helvetica Neue" font-size="34.0" fill="#EAEAEA" transform="matrix(1.00, 0.00, -0.00, -1.00, 630.9, 439.4)">e</text><text xml:space="preserve" font-family="HelveticaNeue-Medium,Helvetica Neue" font-size="34.0" fill="#EAEAEA" transform="matrix(1.00, 0.00, -0.00, -1.00, 649.8, 439.4)">k</text><text xml:space="preserve" font-family="HelveticaNeue-Medium,Helvetica Neue" font-size="34.0" fill="#EAEAEA" transform="matrix(1.00, 0.00, -0.00, -1.00, 668.1, 439.4)"> </text><text xml:space="preserve" font-family="HelveticaNeue-Medium,Helvetica Neue" font-size="34.0" fill="#EAEAEA" transform="matrix(1.00, 0.00, -0.00, -1.00, 677.5, 439.4)">h</text><text xml:space="preserve" font-family="HelveticaNeue-Medium,Helvetica Neue" font-size="34.0" fill="#EAEAEA" transform="matrix(1.00, 0.00, -0.00, -1.00, 697.0, 439.4)">i</text><text xml:space="preserve" font-family="HelveticaNeue-Medium,Helvetica Neue" font-size="34.0" fill="#EAEAEA" transform="matrix(1.00, 0.00, -0.00, -1.00, 705.2, 439.4)">s</text><text xml:space="preserve" font-family="HelveticaNeue-Medium,Helvetica Neue" font-size="34.0" fill="#EAEAEA" transform="matrix(1.00, 0.00, -0.00, -1.00, 722.9, 439.4)">t</text><text xml:space="preserve" font-family="HelveticaNeue-Medium,Helvetica Neue" font-size="34.0" fill="#EAEAEA" transform="matrix(1.00, 0.00, -0.00, -1.00, 734.2, 439.4)">o</text><text xml:space="preserve" font-family="HelveticaNeue-Medium,Helvetica Neue" font-size="34.0" fill="#EAEAEA" transform="matrix(1.00, 0.00, -0.00, -1.00, 754.4, 439.4)">r</text><text xml:space="preserve" font-family="HelveticaNeue-Medium,Helvetica Neue" font-size="34.0" fill="#EAEAEA" transform="matrix(1.00, 0.00, -0.00, -1.00, 766.3, 439.4)">y</text><text xml:space="preserve" font-family="HelveticaNeue-Medium,Helvetica Neue" font-size="34.0" fill="#EAEAEA" transform="matrix(1.00, 0.00, -0.00, -1.00, 784.0, 439.4)"> </text><text xml:space="preserve" font-family="HelveticaNeue-Medium,Helvetica Neue" font-size="34.0" fill="#EAEAEA" transform="matrix(1.00, 0.00, -0.00, -1.00, 793.4, 439.4)">o</text><text xml:space="preserve" font-family="HelveticaNeue-Medium,Helvetica Neue" font-size="34.0" fill="#EAEAEA" transform="matrix(1.00, 0.00, -0.00, -1.00, 813.6, 439.4)">f</text><text xml:space="preserve" font-family="HelveticaNeue-Medium,Helvetica Neue" font-size="34.0" fill="#EAEAEA" transform="matrix(1.00, 0.00, -0.00, -1.00, 824.3, 439.4)">:</text><text xml:space="preserve" font-family="HelveticaNeue-Medium,Helvetica Neue" font-size="34.0" fill="#EAEAEA" transform="matrix(1.00, 0.00, -0.00, -1.00, 833.8, 439.4)"> </text><image xlink:href="22338A021207344BFFC0BA20AE086817.png" width="18.00" height="18.00" transform="matrix(1.00, 0.00, -0.00, -1.00, 61.0, 375.0)"></image><text xml:space="preserve" font-family="HelveticaNeue-Medium,Helvetica Neue" font-size="25.5" fill="#EAEAEA" transform="matrix(1.00, 0.00, -0.00, -1.00, 64.0, 358.9)">•</text><image xlink:href="E33F50092F9D71E3341A9E15501D6937.png" width="115.00" height="40.00" transform="matrix(1.00, 0.00, -0.00, -1.00, 92.0, 383.0)"></image><text xml:space="preserve" font-family="HelveticaNeue-Medium,Helvetica Neue" font-size="34.0" fill="#EAEAEA" transform="matrix(1.00, 0.00, -0.00, -1.00, 96.0, 356.4)">f</text><text xml:space="preserve" font-family="HelveticaNeue-Medium,Helvetica Neue" font-size="34.0" fill="#EAEAEA" transform="matrix(1.00, 0.00, -0.00, -1.00, 106.7, 356.4)">a</text><text xml:space="preserve" font-family="HelveticaNeue-Medium,Helvetica Neue" font-size="34.0" fill="#EAEAEA" transform="matrix(1.00, 0.00, -0.00, -1.00, 125.6, 356.4)">t</text><text xml:space="preserve" font-family="HelveticaNeue-Medium,Helvetica Neue" font-size="34.0" fill="#EAEAEA" transform="matrix(1.00, 0.00, -0.00, -1.00, 136.9, 356.4)">i</text><text xml:space="preserve" font-family="HelveticaNeue-Medium,Helvetica Neue" font-size="34.0" fill="#EAEAEA" transform="matrix(1.00, 0.00, -0.00, -1.00, 145.1, 356.4)">g</text><text xml:space="preserve" font-family="HelveticaNeue-Medium,Helvetica Neue" font-size="34.0" fill="#EAEAEA" transform="matrix(1.00, 0.00, -0.00, -1.00, 165.3, 356.4)">u</text><text xml:space="preserve" font-family="HelveticaNeue-Medium,Helvetica Neue" font-size="34.0" fill="#EAEAEA" transform="matrix(1.00, 0.00, -0.00, -1.00, 184.8, 356.4)">e</text><text xml:space="preserve" font-family="HelveticaNeue-Medium,Helvetica Neue" font-size="34.0" fill="#EAEAEA" transform="matrix(1.00, 0.00, -0.00, -1.00, 203.7, 356.4)"> </text><image xlink:href="../../BE4D2DDB-FBE4-467E-AE38-B34F9028D09E/assets/22338A021207344BFFC0BA20AE086817.png" width="18.00" height="18.00" transform="matrix(1.00, 0.00, -0.00, -1.00, 61.0, 292.0)"></image><text xml:space="preserve" font-family="HelveticaNeue-Medium,Helvetica Neue" font-size="25.5" fill="#EAEAEA" transform="matrix(1.00, 0.00, -0.00, -1.00, 64.0, 275.9)">•</text><image xlink:href="00F33213B8CC8EAE0F44D4D56938501D.png" width="110.00" height="40.00" transform="matrix(1.00, 0.00, -0.00, -1.00, 94.0, 300.0)"></image><text xml:space="preserve" font-family="HelveticaNeue-Medium,Helvetica Neue" font-size="34.0" fill="#EAEAEA" transform="matrix(1.00, 0.00, -0.00, -1.00, 96.0, 273.4)">i</text><text xml:space="preserve" font-family="HelveticaNeue-Medium,Helvetica Neue" font-size="34.0" fill="#EAEAEA" transform="matrix(1.00, 0.00, -0.00, -1.00, 104.2, 273.4)">t</text><text xml:space="preserve" font-family="HelveticaNeue-Medium,Helvetica Neue" font-size="34.0" fill="#EAEAEA" transform="matrix(1.00, 0.00, -0.00, -1.00, 115.5, 273.4)">c</text><text xml:space="preserve" font-family="HelveticaNeue-Medium,Helvetica Neue" font-size="34.0" fill="#EAEAEA" transform="matrix(1.00, 0.00, -0.00, -1.00, 134.4, 273.4)">h</text><text xml:space="preserve" font-family="HelveticaNeue-Medium,Helvetica Neue" font-size="34.0" fill="#EAEAEA" transform="matrix(1.00, 0.00, -0.00, -1.00, 153.9, 273.4)">i</text><text xml:space="preserve" font-family="HelveticaNeue-Medium,Helvetica Neue" font-size="34.0" fill="#EAEAEA" transform="matrix(1.00, 0.00, -0.00, -1.00, 162.1, 273.4)">n</text><text xml:space="preserve" font-family="HelveticaNeue-Medium,Helvetica Neue" font-size="34.0" fill="#EAEAEA" transform="matrix(1.00, 0.00, -0.00, -1.00, 181.6, 273.4)">g</text><text xml:space="preserve" font-family="HelveticaNeue-Medium,Helvetica Neue" font-size="34.0" fill="#EAEAEA" transform="matrix(1.00, 0.00, -0.00, -1.00, 201.8, 273.4)"> </text><image xlink:href="../../BE4D2DDB-FBE4-467E-AE38-B34F9028D09E/assets/22338A021207344BFFC0BA20AE086817.png" width="18.00" height="18.00" transform="matrix(1.00, 0.00, -0.00, -1.00, 61.0, 209.0)"></image><text xml:space="preserve" font-family="HelveticaNeue-Medium,Helvetica Neue" font-size="25.5" fill="#EAEAEA" transform="matrix(1.00, 0.00, -0.00, -1.00, 64.0, 192.9)">•</text><image xlink:href="B7EA6879D24F99D668626A7D7B9C6F5D.png" width="141.00" height="40.00" transform="matrix(1.00, 0.00, -0.00, -1.00, 91.0, 217.0)"></image><text xml:space="preserve" font-family="HelveticaNeue-Medium,Helvetica Neue" font-size="34.0" fill="#EAEAEA" transform="matrix(1.00, 0.00, -0.00, -1.00, 96.0, 190.4)">j</text><text xml:space="preserve" font-family="HelveticaNeue-Medium,Helvetica Neue" font-size="34.0" fill="#EAEAEA" transform="matrix(1.00, 0.00, -0.00, -1.00, 104.2, 190.4)">a</text><text xml:space="preserve" font-family="HelveticaNeue-Medium,Helvetica Neue" font-size="34.0" fill="#EAEAEA" transform="matrix(1.00, 0.00, -0.00, -1.00, 123.1, 190.4)">u</text><text xml:space="preserve" font-family="HelveticaNeue-Medium,Helvetica Neue" font-size="34.0" fill="#EAEAEA" transform="matrix(1.00, 0.00, -0.00, -1.00, 142.6, 190.4)">n</text><text xml:space="preserve" font-family="HelveticaNeue-Medium,Helvetica Neue" font-size="34.0" fill="#EAEAEA" transform="matrix(1.00, 0.00, -0.00, -1.00, 162.1, 190.4)">d</text><text xml:space="preserve" font-family="HelveticaNeue-Medium,Helvetica Neue" font-size="34.0" fill="#EAEAEA" transform="matrix(1.00, 0.00, -0.00, -1.00, 182.9, 190.4)">i</text><text xml:space="preserve" font-family="HelveticaNeue-Medium,Helvetica Neue" font-size="34.0" fill="#EAEAEA" transform="matrix(1.00, 0.00, -0.00, -1.00, 191.1, 190.4)">c</text><text xml:space="preserve" font-family="HelveticaNeue-Medium,Helvetica Neue" font-size="34.0" fill="#EAEAEA" transform="matrix(1.00, 0.00, -0.00, -1.00, 210.0, 190.4)">e</text></g></svg>