<?xml version="1.0" encoding="UTF-8" standalone="no"?><svg xmlns="http://www.w3.org/2000/svg" xmlns:xlink="http://www.w3.org/1999/xlink" clip-rule="evenodd" stroke-miterlimit="10" viewBox="0 0 300 488"><desc>SVG generated by Keynote</desc><defs></defs><g transform="matrix(1.00, 0.00, -0.00, -1.00, 0.0, 488.0)"><image xlink:href="../../93B0D003-3A18-4B66-A724-EED7A6E4441C/assets/68519F8B80883CF1B5883C8E3F0B5045.png" width="113.00" height="31.00" transform="matrix(1.00, 0.00, -0.00, -1.00, 1.0, 487.0)"></image><text xml:space="preserve" font-family="HelveticaNeue-Medium,Helvetica Neue" font-size="30.6" fill="#EAEAEA" transform="matrix(1.00, 0.00, -0.00, -1.00, 3.0, 462.5)">R</text><text xml:space="preserve" font-family="HelveticaNeue-Medium,Helvetica Neue" font-size="30.6" fill="#EAEAEA" transform="matrix(1.00, 0.00, -0.00, -1.00, 24.5, 462.5)">e</text><text xml:space="preserve" font-family="HelveticaNeue-Medium,Helvetica Neue" font-size="30.6" fill="#EAEAEA" transform="matrix(1.00, 0.00, -0.00, -1.00, 41.6, 462.5)">l</text><text xml:space="preserve" font-family="HelveticaNeue-Medium,Helvetica Neue" font-size="30.6" fill="#EAEAEA" transform="matrix(1.00, 0.00, -0.00, -1.00, 48.9, 462.5)">a</text><text xml:space="preserve" font-family="HelveticaNeue-Medium,Helvetica Neue" font-size="30.6" fill="#EAEAEA" transform="matrix(1.00, 0.00, -0.00, -1.00, 65.9, 462.5)">t</text><text xml:space="preserve" font-family="HelveticaNeue-Medium,Helvetica Neue" font-size="30.6" fill="#EAEAEA" transform="matrix(1.00, 0.00, -0.00, -1.00, 76.1, 462.5)">e</text><text xml:space="preserve" font-family="HelveticaNeue-Medium,Helvetica Neue" font-size="30.6" fill="#EAEAEA" transform="matrix(1.00, 0.00, -0.00, -1.00, 93.1, 462.5)">d</text><text xml:space="preserve" font-family="HelveticaNeue-Medium,Helvetica Neue" font-size="30.6" fill="#EAEAEA" transform="matrix(1.00, 0.00, -0.00, -1.00, 111.8, 462.5)"> </text><image xlink:href="../../93B0D003-3A18-4B66-A724-EED7A6E4441C/assets/69D2949BC79757B8AE3182B301DFA02D.png" width="17.00" height="17.00" transform="matrix(1.00, 0.00, -0.00, -1.00, 32.0, 405.0)"></image><text xml:space="preserve" font-family="HelveticaNeue-Medium,Helvetica Neue" font-size="22.9" fill="#EAEAEA" transform="matrix(1.00, 0.00, -0.00, -1.00, 35.0, 390.0)">•</text><image xlink:href="../../93B0D003-3A18-4B66-A724-EED7A6E4441C/assets/1F6119B81D3C5835656C5BD5B1081A25.png" width="129.00" height="31.00" transform="matrix(1.00, 0.00, -0.00, -1.00, 61.0, 411.0)"></image><text xml:space="preserve" font-family="HelveticaNeue-Medium,Helvetica Neue" font-size="30.6" fill="#EAEAEA" transform="matrix(1.00, 0.00, -0.00, -1.00, 63.8, 386.7)">m</text><text xml:space="preserve" font-family="HelveticaNeue-Medium,Helvetica Neue" font-size="30.6" fill="#EAEAEA" transform="matrix(1.00, 0.00, -0.00, -1.00, 90.4, 386.7)">a</text><text xml:space="preserve" font-family="HelveticaNeue-Medium,Helvetica Neue" font-size="30.6" fill="#EAEAEA" transform="matrix(1.00, 0.00, -0.00, -1.00, 107.4, 386.7)">t</text><text xml:space="preserve" font-family="HelveticaNeue-Medium,Helvetica Neue" font-size="30.6" fill="#EAEAEA" transform="matrix(1.00, 0.00, -0.00, -1.00, 117.6, 386.7)">c</text><text xml:space="preserve" font-family="HelveticaNeue-Medium,Helvetica Neue" font-size="30.6" fill="#EAEAEA" transform="matrix(1.00, 0.00, -0.00, -1.00, 134.6, 386.7)">h</text><text xml:space="preserve" font-family="HelveticaNeue-Medium,Helvetica Neue" font-size="30.6" fill="#EAEAEA" transform="matrix(1.00, 0.00, -0.00, -1.00, 152.2, 386.7)">e</text><text xml:space="preserve" font-family="HelveticaNeue-Medium,Helvetica Neue" font-size="30.6" fill="#EAEAEA" transform="matrix(1.00, 0.00, -0.00, -1.00, 169.2, 386.7)">d</text><text xml:space="preserve" font-family="HelveticaNeue-Medium,Helvetica Neue" font-size="30.6" fill="#EAEAEA" transform="matrix(1.00, 0.00, -0.00, -1.00, 187.9, 386.7)"> </text><image xlink:href="../../93B0D003-3A18-4B66-A724-EED7A6E4441C/assets/2281F2DD04C9961F1182D1358E8720E5.png" width="17.00" height="17.00" transform="matrix(1.00, 0.00, -0.00, -1.00, 32.0, 329.0)"></image><text xml:space="preserve" font-family="HelveticaNeue-Medium,Helvetica Neue" font-size="22.9" fill="#EAEAEA" transform="matrix(1.00, 0.00, -0.00, -1.00, 35.0, 314.2)">•</text><image xlink:href="../../93B0D003-3A18-4B66-A724-EED7A6E4441C/assets/CD6B191CBD16839714FAB4695F6BAD83.png" width="204.00" height="36.00" transform="matrix(1.00, 0.00, -0.00, -1.00, 61.0, 335.0)"></image><text xml:space="preserve" font-family="HelveticaNeue-Medium,Helvetica Neue" font-size="30.6" fill="#EAEAEA" transform="matrix(1.00, 0.00, -0.00, -1.00, 63.8, 310.9)">h</text><text xml:space="preserve" font-family="HelveticaNeue-Medium,Helvetica Neue" font-size="30.6" fill="#EAEAEA" transform="matrix(1.00, 0.00, -0.00, -1.00, 81.4, 310.9)">a</text><text xml:space="preserve" font-family="HelveticaNeue-Medium,Helvetica Neue" font-size="30.6" fill="#EAEAEA" transform="matrix(1.00, 0.00, -0.00, -1.00, 98.4, 310.9)">p</text><text xml:space="preserve" font-family="HelveticaNeue-Medium,Helvetica Neue" font-size="30.6" fill="#EAEAEA" transform="matrix(1.00, 0.00, -0.00, -1.00, 117.1, 310.9)">l</text><text xml:space="preserve" font-family="HelveticaNeue-Medium,Helvetica Neue" font-size="30.6" fill="#EAEAEA" transform="matrix(1.00, 0.00, -0.00, -1.00, 124.4, 310.9)">o</text><text xml:space="preserve" font-family="HelveticaNeue-Medium,Helvetica Neue" font-size="30.6" fill="#EAEAEA" transform="matrix(1.00, 0.00, -0.00, -1.00, 142.6, 310.9)">i</text><text xml:space="preserve" font-family="HelveticaNeue-Medium,Helvetica Neue" font-size="30.6" fill="#EAEAEA" transform="matrix(1.00, 0.00, -0.00, -1.00, 150.0, 310.9)">d</text><text xml:space="preserve" font-family="HelveticaNeue-Medium,Helvetica Neue" font-size="30.6" fill="#EAEAEA" transform="matrix(1.00, 0.00, -0.00, -1.00, 168.7, 310.9)">e</text><text xml:space="preserve" font-family="HelveticaNeue-Medium,Helvetica Neue" font-size="30.6" fill="#EAEAEA" transform="matrix(1.00, 0.00, -0.00, -1.00, 185.7, 310.9)">n</text><text xml:space="preserve" font-family="HelveticaNeue-Medium,Helvetica Neue" font-size="30.6" fill="#EAEAEA" transform="matrix(1.00, 0.00, -0.00, -1.00, 203.2, 310.9)">t</text><text xml:space="preserve" font-family="HelveticaNeue-Medium,Helvetica Neue" font-size="30.6" fill="#EAEAEA" transform="matrix(1.00, 0.00, -0.00, -1.00, 213.4, 310.9)">i</text><text xml:space="preserve" font-family="HelveticaNeue-Medium,Helvetica Neue" font-size="30.6" fill="#EAEAEA" transform="matrix(1.00, 0.00, -0.00, -1.00, 220.8, 310.9)">c</text><text xml:space="preserve" font-family="HelveticaNeue-Medium,Helvetica Neue" font-size="30.6" fill="#EAEAEA" transform="matrix(1.00, 0.00, -0.00, -1.00, 237.8, 310.9)">a</text><text xml:space="preserve" font-family="HelveticaNeue-Medium,Helvetica Neue" font-size="30.6" fill="#EAEAEA" transform="matrix(1.00, 0.00, -0.00, -1.00, 254.8, 310.9)">l</text><text xml:space="preserve" font-family="HelveticaNeue-Medium,Helvetica Neue" font-size="30.6" fill="#EAEAEA" transform="matrix(1.00, 0.00, -0.00, -1.00, 262.2, 310.9)"> </text><image xlink:href="../../93B0D003-3A18-4B66-A724-EED7A6E4441C/assets/85BEBA10349F8EA84ABCC992EA916499.png" width="142.00" height="31.00" transform="matrix(1.00, 0.00, -0.00, -1.00, 1.0, 259.0)"></image><text xml:space="preserve" font-family="HelveticaNeue-Medium,Helvetica Neue" font-size="30.6" fill="#EAEAEA" transform="matrix(1.00, 0.00, -0.00, -1.00, 3.0, 235.1)">U</text><text xml:space="preserve" font-family="HelveticaNeue-Medium,Helvetica Neue" font-size="30.6" fill="#EAEAEA" transform="matrix(1.00, 0.00, -0.00, -1.00, 25.1, 235.1)">n</text><text xml:space="preserve" font-family="HelveticaNeue-Medium,Helvetica Neue" font-size="30.6" fill="#EAEAEA" transform="matrix(1.00, 0.00, -0.00, -1.00, 42.7, 235.1)">r</text><text xml:space="preserve" font-family="HelveticaNeue-Medium,Helvetica Neue" font-size="30.6" fill="#EAEAEA" transform="matrix(1.00, 0.00, -0.00, -1.00, 52.9, 235.1)">e</text><text xml:space="preserve" font-family="HelveticaNeue-Medium,Helvetica Neue" font-size="30.6" fill="#EAEAEA" transform="matrix(1.00, 0.00, -0.00, -1.00, 69.9, 235.1)">l</text><text xml:space="preserve" font-family="HelveticaNeue-Medium,Helvetica Neue" font-size="30.6" fill="#EAEAEA" transform="matrix(1.00, 0.00, -0.00, -1.00, 77.3, 235.1)">a</text><text xml:space="preserve" font-family="HelveticaNeue-Medium,Helvetica Neue" font-size="30.6" fill="#EAEAEA" transform="matrix(1.00, 0.00, -0.00, -1.00, 94.3, 235.1)">t</text><text xml:space="preserve" font-family="HelveticaNeue-Medium,Helvetica Neue" font-size="30.6" fill="#EAEAEA" transform="matrix(1.00, 0.00, -0.00, -1.00, 104.5, 235.1)">e</text><text xml:space="preserve" font-family="HelveticaNeue-Medium,Helvetica Neue" font-size="30.6" fill="#EAEAEA" transform="matrix(1.00, 0.00, -0.00, -1.00, 121.5, 235.1)">d</text><text xml:space="preserve" font-family="HelveticaNeue-Medium,Helvetica Neue" font-size="30.6" fill="#EAEAEA" transform="matrix(1.00, 0.00, -0.00, -1.00, 140.2, 235.1)"> </text><image xlink:href="../../93B0D003-3A18-4B66-A724-EED7A6E4441C/assets/DF8626B5CA192092A3CB7F64F6A28A67.png" width="17.00" height="17.00" transform="matrix(1.00, 0.00, -0.00, -1.00, 32.0, 177.0)"></image><text xml:space="preserve" font-family="HelveticaNeue-Medium,Helvetica Neue" font-size="22.9" fill="#EAEAEA" transform="matrix(1.00, 0.00, -0.00, -1.00, 35.0, 162.6)">•</text><image xlink:href="../../93B0D003-3A18-4B66-A724-EED7A6E4441C/assets/204134B240D890C817845828D01CC1AE.png" width="129.00" height="32.00" transform="matrix(1.00, 0.00, -0.00, -1.00, 61.0, 184.0)"></image><text xml:space="preserve" font-family="HelveticaNeue-Medium,Helvetica Neue" font-size="30.6" fill="#EAEAEA" transform="matrix(1.00, 0.00, -0.00, -1.00, 63.8, 159.3)">m</text><text xml:space="preserve" font-family="HelveticaNeue-Medium,Helvetica Neue" font-size="30.6" fill="#EAEAEA" transform="matrix(1.00, 0.00, -0.00, -1.00, 90.4, 159.3)">a</text><text xml:space="preserve" font-family="HelveticaNeue-Medium,Helvetica Neue" font-size="30.6" fill="#EAEAEA" transform="matrix(1.00, 0.00, -0.00, -1.00, 107.4, 159.3)">t</text><text xml:space="preserve" font-family="HelveticaNeue-Medium,Helvetica Neue" font-size="30.6" fill="#EAEAEA" transform="matrix(1.00, 0.00, -0.00, -1.00, 117.6, 159.3)">c</text><text xml:space="preserve" font-family="HelveticaNeue-Medium,Helvetica Neue" font-size="30.6" fill="#EAEAEA" transform="matrix(1.00, 0.00, -0.00, -1.00, 134.6, 159.3)">h</text><text xml:space="preserve" font-family="HelveticaNeue-Medium,Helvetica Neue" font-size="30.6" fill="#EAEAEA" transform="matrix(1.00, 0.00, -0.00, -1.00, 152.2, 159.3)">e</text><text xml:space="preserve" font-family="HelveticaNeue-Medium,Helvetica Neue" font-size="30.6" fill="#EAEAEA" transform="matrix(1.00, 0.00, -0.00, -1.00, 169.2, 159.3)">d</text><text xml:space="preserve" font-family="HelveticaNeue-Medium,Helvetica Neue" font-size="30.6" fill="#EAEAEA" transform="matrix(1.00, 0.00, -0.00, -1.00, 187.9, 159.3)"> </text><image xlink:href="../../93B0D003-3A18-4B66-A724-EED7A6E4441C/assets/AC8EDD8DBCC5E6B914523EBFA44276DF.png" width="17.00" height="18.00" transform="matrix(1.00, 0.00, -0.00, -1.00, 32.0, 102.0)"></image><text xml:space="preserve" font-family="HelveticaNeue-Medium,Helvetica Neue" font-size="22.9" fill="#EAEAEA" transform="matrix(1.00, 0.00, -0.00, -1.00, 35.0, 86.8)">•</text><image xlink:href="../../93B0D003-3A18-4B66-A724-EED7A6E4441C/assets/6C939166CF1BA3E2A6E24AA1F648C19C.png" width="179.00" height="31.00" transform="matrix(1.00, 0.00, -0.00, -1.00, 61.0, 108.0)"></image><text xml:space="preserve" font-family="HelveticaNeue-Medium,Helvetica Neue" font-size="30.6" fill="#EAEAEA" transform="matrix(1.00, 0.00, -0.00, -1.00, 63.8, 83.5)">m</text><text xml:space="preserve" font-family="HelveticaNeue-Medium,Helvetica Neue" font-size="30.6" fill="#EAEAEA" transform="matrix(1.00, 0.00, -0.00, -1.00, 90.4, 83.5)">i</text><text xml:space="preserve" font-family="HelveticaNeue-Medium,Helvetica Neue" font-size="30.6" fill="#EAEAEA" transform="matrix(1.00, 0.00, -0.00, -1.00, 97.8, 83.5)">s</text><text xml:space="preserve" font-family="HelveticaNeue-Medium,Helvetica Neue" font-size="30.6" fill="#EAEAEA" transform="matrix(1.00, 0.00, -0.00, -1.00, 113.7, 83.5)">m</text><text xml:space="preserve" font-family="HelveticaNeue-Medium,Helvetica Neue" font-size="30.6" fill="#EAEAEA" transform="matrix(1.00, 0.00, -0.00, -1.00, 140.3, 83.5)">a</text><text xml:space="preserve" font-family="HelveticaNeue-Medium,Helvetica Neue" font-size="30.6" fill="#EAEAEA" transform="matrix(1.00, 0.00, -0.00, -1.00, 157.3, 83.5)">t</text><text xml:space="preserve" font-family="HelveticaNeue-Medium,Helvetica Neue" font-size="30.6" fill="#EAEAEA" transform="matrix(1.00, 0.00, -0.00, -1.00, 167.5, 83.5)">c</text><text xml:space="preserve" font-family="HelveticaNeue-Medium,Helvetica Neue" font-size="30.6" fill="#EAEAEA" transform="matrix(1.00, 0.00, -0.00, -1.00, 184.5, 83.5)">h</text><text xml:space="preserve" font-family="HelveticaNeue-Medium,Helvetica Neue" font-size="30.6" fill="#EAEAEA" transform="matrix(1.00, 0.00, -0.00, -1.00, 202.1, 83.5)">e</text><text xml:space="preserve" font-family="HelveticaNeue-Medium,Helvetica Neue" font-size="30.6" fill="#EAEAEA" transform="matrix(1.00, 0.00, -0.00, -1.00, 219.1, 83.5)">d</text><text xml:space="preserve" font-family="HelveticaNeue-Medium,Helvetica Neue" font-size="30.6" fill="#EAEAEA" transform="matrix(1.00, 0.00, -0.00, -1.00, 237.8, 83.5)"> </text><image xlink:href="../../93B0D003-3A18-4B66-A724-EED7A6E4441C/assets/5630F057ACB5AEC8044341E876033A68.png" width="298.00" height="31.00" transform="matrix(1.00, 0.00, -0.00, -1.00, 1.0, 32.0)"></image><text xml:space="preserve" font-family="HelveticaNeue-Medium,Helvetica Neue" font-size="30.6" fill="#EAEAEA" transform="matrix(1.00, 0.00, -0.00, -1.00, 3.0, 7.7)">U</text><text xml:space="preserve" font-family="HelveticaNeue-Medium,Helvetica Neue" font-size="30.6" fill="#EAEAEA" transform="matrix(1.00, 0.00, -0.00, -1.00, 25.1, 7.7)">m</text><text xml:space="preserve" font-family="HelveticaNeue-Medium,Helvetica Neue" font-size="30.6" fill="#EAEAEA" transform="matrix(1.00, 0.00, -0.00, -1.00, 51.7, 7.7)">b</text><text xml:space="preserve" font-family="HelveticaNeue-Medium,Helvetica Neue" font-size="30.6" fill="#EAEAEA" transform="matrix(1.00, 0.00, -0.00, -1.00, 70.4, 7.7)">i</text><text xml:space="preserve" font-family="HelveticaNeue-Medium,Helvetica Neue" font-size="30.6" fill="#EAEAEA" transform="matrix(1.00, 0.00, -0.00, -1.00, 77.8, 7.7)">l</text><text xml:space="preserve" font-family="HelveticaNeue-Medium,Helvetica Neue" font-size="30.6" fill="#EAEAEA" transform="matrix(1.00, 0.00, -0.00, -1.00, 85.2, 7.7)">i</text><text xml:space="preserve" font-family="HelveticaNeue-Medium,Helvetica Neue" font-size="30.6" fill="#EAEAEA" transform="matrix(1.00, 0.00, -0.00, -1.00, 92.5, 7.7)">c</text><text xml:space="preserve" font-family="HelveticaNeue-Medium,Helvetica Neue" font-size="30.6" fill="#EAEAEA" transform="matrix(1.00, 0.00, -0.00, -1.00, 109.5, 7.7)">a</text><text xml:space="preserve" font-family="HelveticaNeue-Medium,Helvetica Neue" font-size="30.6" fill="#EAEAEA" transform="matrix(1.00, 0.00, -0.00, -1.00, 126.6, 7.7)">l</text><text xml:space="preserve" font-family="HelveticaNeue-Medium,Helvetica Neue" font-size="30.6" fill="#EAEAEA" transform="matrix(1.00, 0.00, -0.00, -1.00, 133.9, 7.7)"> </text><text xml:space="preserve" font-family="HelveticaNeue-Medium,Helvetica Neue" font-size="30.6" fill="#EAEAEA" transform="matrix(1.00, 0.00, -0.00, -1.00, 142.4, 7.7)">c</text><text xml:space="preserve" font-family="HelveticaNeue-Medium,Helvetica Neue" font-size="30.6" fill="#EAEAEA" transform="matrix(1.00, 0.00, -0.00, -1.00, 159.5, 7.7)">o</text><text xml:space="preserve" font-family="HelveticaNeue-Medium,Helvetica Neue" font-size="30.6" fill="#EAEAEA" transform="matrix(1.00, 0.00, -0.00, -1.00, 177.6, 7.7)">r</text><text xml:space="preserve" font-family="HelveticaNeue-Medium,Helvetica Neue" font-size="30.6" fill="#EAEAEA" transform="matrix(1.00, 0.00, -0.00, -1.00, 187.8, 7.7)">d</text><text xml:space="preserve" font-family="HelveticaNeue-Medium,Helvetica Neue" font-size="30.6" fill="#EAEAEA" transform="matrix(1.00, 0.00, -0.00, -1.00, 206.5, 7.7)"> </text><text xml:space="preserve" font-family="HelveticaNeue-Medium,Helvetica Neue" font-size="30.6" fill="#EAEAEA" transform="matrix(1.00, 0.00, -0.00, -1.00, 215.0, 7.7)">b</text><text xml:space="preserve" font-family="HelveticaNeue-Medium,Helvetica Neue" font-size="30.6" fill="#EAEAEA" transform="matrix(1.00, 0.00, -0.00, -1.00, 233.7, 7.7)">l</text><text xml:space="preserve" font-family="HelveticaNeue-Medium,Helvetica Neue" font-size="30.6" fill="#EAEAEA" transform="matrix(1.00, 0.00, -0.00, -1.00, 241.1, 7.7)">o</text><text xml:space="preserve" font-family="HelveticaNeue-Medium,Helvetica Neue" font-size="30.6" fill="#EAEAEA" transform="matrix(1.00, 0.00, -0.00, -1.00, 259.2, 7.7)">o</text><text xml:space="preserve" font-family="HelveticaNeue-Medium,Helvetica Neue" font-size="30.6" fill="#EAEAEA" transform="matrix(1.00, 0.00, -0.00, -1.00, 277.4, 7.7)">d</text></g></svg>