<?xml version="1.0" encoding="UTF-8" standalone="no"?><svg xmlns="http://www.w3.org/2000/svg" xmlns:xlink="http://www.w3.org/1999/xlink" clip-rule="evenodd" stroke-miterlimit="10" viewBox="0 0 1024 768"><desc>SVG generated by Keynote</desc><defs></defs><g transform="matrix(1.00, 0.00, -0.00, -1.00, 0.0, 768.0)"><g><clipPath id="clip0x6000018a5220"><path d="M 0.0 768.0 L 1024.0 768.0 L 1024.0 0.0 L 0.0 0.0 Z M 0.0 768.0 "></path></clipPath><g clip-path="url(#clip0x6000018a5220)"><image xlink:href="../../BE4D2DDB-FBE4-467E-AE38-B34F9028D09E/assets/9397CAD6F20342ACC2646ABBCA758461.jpeg" width="2048.00" height="1536.00" transform="matrix(0.50, 0.00, -0.00, -0.50, 0.0, 768.0)"></image></g></g><g><clipPath id="clip0x6080010b7400"><path d="M 22.0 745.0 L 1002.0 745.0 L 1002.0 99.0 L 22.0 99.0 Z M 22.0 744.6 "></path></clipPath><g clip-path="url(#clip0x6080010b7400)"><image xlink:href="0CA4AF0478F3745A674CE30F623AC938.png" width="2194.00" height="1442.00" transform="matrix(0.45, 0.00, -0.00, -0.45, 22.0, 744.1)"></image></g></g><image xlink:href="2278BCD125E7C3E5593DA42D878D25DA.png" width="1024.00" height="695.00" transform="matrix(1.00, 0.00, -0.00, 1.00, 0.0, 75.4)"></image><image xlink:href="6DAA9D25A53DF1B81DC5A5B5F4FB3E9C.png" width="1003.00" height="32.00" transform="matrix(1.00, 0.00, -0.00, -1.00, 10.0, 79.0)"></image><text xml:space="preserve" font-family="HelveticaNeue-Medium,Helvetica Neue" font-size="24.0" fill="#EAEAEA" transform="matrix(1.00, 0.00, -0.00, -1.00, 13.8, 58.9)">G</text><text xml:space="preserve" font-family="HelveticaNeue-Medium,Helvetica Neue" font-size="24.0" fill="#EAEAEA" transform="matrix(1.00, 0.00, -0.00, -1.00, 32.0, 58.9)">r</text><text xml:space="preserve" font-family="HelveticaNeue-Medium,Helvetica Neue" font-size="24.0" fill="#EAEAEA" transform="matrix(1.00, 0.00, -0.00, -1.00, 40.5, 58.9)">a</text><text xml:space="preserve" font-family="HelveticaNeue-Medium,Helvetica Neue" font-size="24.0" fill="#EAEAEA" transform="matrix(1.00, 0.00, -0.00, -1.00, 53.8, 58.9)">g</text><text xml:space="preserve" font-family="HelveticaNeue-Medium,Helvetica Neue" font-size="24.0" fill="#EAEAEA" transform="matrix(1.00, 0.00, -0.00, -1.00, 68.1, 58.9)">e</text><text xml:space="preserve" font-family="HelveticaNeue-Medium,Helvetica Neue" font-size="24.0" fill="#EAEAEA" transform="matrix(1.00, 0.00, -0.00, -1.00, 81.4, 58.9)">r</text><text xml:space="preserve" font-family="HelveticaNeue-Medium,Helvetica Neue" font-size="24.0" fill="#EAEAEA" transform="matrix(1.00, 0.00, -0.00, -1.00, 89.9, 58.9)">t</text><text xml:space="preserve" font-family="HelveticaNeue-Medium,Helvetica Neue" font-size="24.0" fill="#EAEAEA" transform="matrix(1.00, 0.00, -0.00, -1.00, 97.9, 58.9)"> </text><text xml:space="preserve" font-family="HelveticaNeue-Medium,Helvetica Neue" font-size="24.0" fill="#EAEAEA" transform="matrix(1.00, 0.00, -0.00, -1.00, 104.5, 58.9)">L</text><text xml:space="preserve" font-family="HelveticaNeue-Medium,Helvetica Neue" font-size="24.0" fill="#EAEAEA" transform="matrix(1.00, 0.00, -0.00, -1.00, 118.3, 58.9)">,</text><text xml:space="preserve" font-family="HelveticaNeue-Medium,Helvetica Neue" font-size="24.0" fill="#EAEAEA" transform="matrix(1.00, 0.00, -0.00, -1.00, 125.0, 58.9)"> </text><text xml:space="preserve" font-family="HelveticaNeue-Medium,Helvetica Neue" font-size="24.0" fill="#EAEAEA" transform="matrix(1.00, 0.00, -0.00, -1.00, 131.6, 58.9)">E</text><text xml:space="preserve" font-family="HelveticaNeue-Medium,Helvetica Neue" font-size="24.0" fill="#EAEAEA" transform="matrix(1.00, 0.00, -0.00, -1.00, 146.8, 58.9)">a</text><text xml:space="preserve" font-family="HelveticaNeue-Medium,Helvetica Neue" font-size="24.0" fill="#EAEAEA" transform="matrix(1.00, 0.00, -0.00, -1.00, 160.1, 58.9)">p</text><text xml:space="preserve" font-family="HelveticaNeue-Medium,Helvetica Neue" font-size="24.0" fill="#EAEAEA" transform="matrix(1.00, 0.00, -0.00, -1.00, 174.8, 58.9)">e</text><text xml:space="preserve" font-family="HelveticaNeue-Medium,Helvetica Neue" font-size="24.0" fill="#EAEAEA" transform="matrix(1.00, 0.00, -0.00, -1.00, 188.1, 58.9)">n</text><text xml:space="preserve" font-family="HelveticaNeue-Medium,Helvetica Neue" font-size="24.0" fill="#EAEAEA" transform="matrix(1.00, 0.00, -0.00, -1.00, 201.9, 58.9)"> </text><text xml:space="preserve" font-family="HelveticaNeue-Medium,Helvetica Neue" font-size="24.0" fill="#EAEAEA" transform="matrix(1.00, 0.00, -0.00, -1.00, 208.6, 58.9)">M</text><text xml:space="preserve" font-family="HelveticaNeue-Medium,Helvetica Neue" font-size="24.0" fill="#EAEAEA" transform="matrix(1.00, 0.00, -0.00, -1.00, 229.9, 58.9)">,</text><text xml:space="preserve" font-family="HelveticaNeue-Medium,Helvetica Neue" font-size="24.0" fill="#EAEAEA" transform="matrix(1.00, 0.00, -0.00, -1.00, 236.6, 58.9)"> </text><text xml:space="preserve" font-family="HelveticaNeue-Medium,Helvetica Neue" font-size="24.0" fill="#EAEAEA" transform="matrix(1.00, 0.00, -0.00, -1.00, 243.2, 58.9)">W</text><text xml:space="preserve" font-family="HelveticaNeue-Medium,Helvetica Neue" font-size="24.0" fill="#EAEAEA" transform="matrix(1.00, 0.00, -0.00, -1.00, 265.9, 58.9)">i</text><text xml:space="preserve" font-family="HelveticaNeue-Medium,Helvetica Neue" font-size="24.0" fill="#EAEAEA" transform="matrix(1.00, 0.00, -0.00, -1.00, 271.7, 58.9)">l</text><text xml:space="preserve" font-family="HelveticaNeue-Medium,Helvetica Neue" font-size="24.0" fill="#EAEAEA" transform="matrix(1.00, 0.00, -0.00, -1.00, 277.5, 58.9)">l</text><text xml:space="preserve" font-family="HelveticaNeue-Medium,Helvetica Neue" font-size="24.0" fill="#EAEAEA" transform="matrix(1.00, 0.00, -0.00, -1.00, 283.3, 58.9)">i</text><text xml:space="preserve" font-family="HelveticaNeue-Medium,Helvetica Neue" font-size="24.0" fill="#EAEAEA" transform="matrix(1.00, 0.00, -0.00, -1.00, 289.0, 58.9)">a</text><text xml:space="preserve" font-family="HelveticaNeue-Medium,Helvetica Neue" font-size="24.0" fill="#EAEAEA" transform="matrix(1.00, 0.00, -0.00, -1.00, 302.4, 58.9)">m</text><text xml:space="preserve" font-family="HelveticaNeue-Medium,Helvetica Neue" font-size="24.0" fill="#EAEAEA" transform="matrix(1.00, 0.00, -0.00, -1.00, 323.3, 58.9)">s</text><text xml:space="preserve" font-family="HelveticaNeue-Medium,Helvetica Neue" font-size="24.0" fill="#EAEAEA" transform="matrix(1.00, 0.00, -0.00, -1.00, 335.7, 58.9)"> </text><text xml:space="preserve" font-family="HelveticaNeue-Medium,Helvetica Neue" font-size="24.0" fill="#EAEAEA" transform="matrix(1.00, 0.00, -0.00, -1.00, 342.4, 58.9)">E</text><text xml:space="preserve" font-family="HelveticaNeue-Medium,Helvetica Neue" font-size="24.0" fill="#EAEAEA" transform="matrix(1.00, 0.00, -0.00, -1.00, 357.5, 58.9)">,</text><text xml:space="preserve" font-family="HelveticaNeue-Medium,Helvetica Neue" font-size="24.0" fill="#EAEAEA" transform="matrix(1.00, 0.00, -0.00, -1.00, 364.2, 58.9)"> </text><text xml:space="preserve" font-family="HelveticaNeue-Medium,Helvetica Neue" font-size="24.0" fill="#EAEAEA" transform="matrix(1.00, 0.00, -0.00, -1.00, 370.9, 58.9)">e</text><text xml:space="preserve" font-family="HelveticaNeue-Medium,Helvetica Neue" font-size="24.0" fill="#EAEAEA" transform="matrix(1.00, 0.00, -0.00, -1.00, 384.2, 58.9)">t</text><text xml:space="preserve" font-family="HelveticaNeue-Medium,Helvetica Neue" font-size="24.0" fill="#EAEAEA" transform="matrix(1.00, 0.00, -0.00, -1.00, 392.2, 58.9)"> </text><text xml:space="preserve" font-family="HelveticaNeue-Medium,Helvetica Neue" font-size="24.0" fill="#EAEAEA" transform="matrix(1.00, 0.00, -0.00, -1.00, 398.9, 58.9)">a</text><text xml:space="preserve" font-family="HelveticaNeue-Medium,Helvetica Neue" font-size="24.0" fill="#EAEAEA" transform="matrix(1.00, 0.00, -0.00, -1.00, 412.2, 58.9)">l</text><text xml:space="preserve" font-family="HelveticaNeue-Medium,Helvetica Neue" font-size="24.0" fill="#EAEAEA" transform="matrix(1.00, 0.00, -0.00, -1.00, 418.0, 58.9)">.</text><text xml:space="preserve" font-family="HelveticaNeue-Medium,Helvetica Neue" font-size="24.0" fill="#EAEAEA" transform="matrix(1.00, 0.00, -0.00, -1.00, 424.7, 58.9)"> </text><text xml:space="preserve" font-family="HelveticaNeue-Medium,Helvetica Neue" font-size="24.0" fill="#EAEAEA" transform="matrix(1.00, 0.00, -0.00, -1.00, 431.3, 58.9)">H</text><text xml:space="preserve" font-family="HelveticaNeue-Medium,Helvetica Neue" font-size="24.0" fill="#EAEAEA" transform="matrix(1.00, 0.00, -0.00, -1.00, 448.7, 58.9)">L</text><text xml:space="preserve" font-family="HelveticaNeue-Medium,Helvetica Neue" font-size="24.0" fill="#EAEAEA" transform="matrix(1.00, 0.00, -0.00, -1.00, 462.4, 58.9)">A</text><text xml:space="preserve" font-family="HelveticaNeue-Medium,Helvetica Neue" font-size="24.0" fill="#EAEAEA" transform="matrix(1.00, 0.00, -0.00, -1.00, 478.4, 58.9)"> </text><text xml:space="preserve" font-family="HelveticaNeue-Medium,Helvetica Neue" font-size="24.0" fill="#EAEAEA" transform="matrix(1.00, 0.00, -0.00, -1.00, 485.1, 58.9)">M</text><text xml:space="preserve" font-family="HelveticaNeue-Medium,Helvetica Neue" font-size="24.0" fill="#EAEAEA" transform="matrix(1.00, 0.00, -0.00, -1.00, 506.5, 58.9)">a</text><text xml:space="preserve" font-family="HelveticaNeue-Medium,Helvetica Neue" font-size="24.0" fill="#EAEAEA" transform="matrix(1.00, 0.00, -0.00, -1.00, 519.8, 58.9)">t</text><text xml:space="preserve" font-family="HelveticaNeue-Medium,Helvetica Neue" font-size="24.0" fill="#EAEAEA" transform="matrix(1.00, 0.00, -0.00, -1.00, 527.8, 58.9)">c</text><text xml:space="preserve" font-family="HelveticaNeue-Medium,Helvetica Neue" font-size="24.0" fill="#EAEAEA" transform="matrix(1.00, 0.00, -0.00, -1.00, 541.1, 58.9)">h</text><text xml:space="preserve" font-family="HelveticaNeue-Medium,Helvetica Neue" font-size="24.0" fill="#EAEAEA" transform="matrix(1.00, 0.00, -0.00, -1.00, 554.9, 58.9)"> </text><text xml:space="preserve" font-family="HelveticaNeue-Medium,Helvetica Neue" font-size="24.0" fill="#EAEAEA" transform="matrix(1.00, 0.00, -0.00, -1.00, 561.6, 58.9)">L</text><text xml:space="preserve" font-family="HelveticaNeue-Medium,Helvetica Neue" font-size="24.0" fill="#EAEAEA" transform="matrix(1.00, 0.00, -0.00, -1.00, 575.4, 58.9)">i</text><text xml:space="preserve" font-family="HelveticaNeue-Medium,Helvetica Neue" font-size="24.0" fill="#EAEAEA" transform="matrix(1.00, 0.00, -0.00, -1.00, 581.1, 58.9)">k</text><text xml:space="preserve" font-family="HelveticaNeue-Medium,Helvetica Neue" font-size="24.0" fill="#EAEAEA" transform="matrix(1.00, 0.00, -0.00, -1.00, 594.0, 58.9)">e</text><text xml:space="preserve" font-family="HelveticaNeue-Medium,Helvetica Neue" font-size="24.0" fill="#EAEAEA" transform="matrix(1.00, 0.00, -0.00, -1.00, 607.4, 58.9)">l</text><text xml:space="preserve" font-family="HelveticaNeue-Medium,Helvetica Neue" font-size="24.0" fill="#EAEAEA" transform="matrix(1.00, 0.00, -0.00, -1.00, 613.2, 58.9)">i</text><text xml:space="preserve" font-family="HelveticaNeue-Medium,Helvetica Neue" font-size="24.0" fill="#EAEAEA" transform="matrix(1.00, 0.00, -0.00, -1.00, 618.9, 58.9)">h</text><text xml:space="preserve" font-family="HelveticaNeue-Medium,Helvetica Neue" font-size="24.0" fill="#EAEAEA" transform="matrix(1.00, 0.00, -0.00, -1.00, 632.7, 58.9)">o</text><text xml:space="preserve" font-family="HelveticaNeue-Medium,Helvetica Neue" font-size="24.0" fill="#EAEAEA" transform="matrix(1.00, 0.00, -0.00, -1.00, 647.0, 58.9)">o</text><text xml:space="preserve" font-family="HelveticaNeue-Medium,Helvetica Neue" font-size="24.0" fill="#EAEAEA" transform="matrix(1.00, 0.00, -0.00, -1.00, 661.2, 58.9)">d</text><text xml:space="preserve" font-family="HelveticaNeue-Medium,Helvetica Neue" font-size="24.0" fill="#EAEAEA" transform="matrix(1.00, 0.00, -0.00, -1.00, 675.8, 58.9)">s</text><text xml:space="preserve" font-family="HelveticaNeue-Medium,Helvetica Neue" font-size="24.0" fill="#EAEAEA" transform="matrix(1.00, 0.00, -0.00, -1.00, 688.3, 58.9)"> </text><text xml:space="preserve" font-family="HelveticaNeue-Medium,Helvetica Neue" font-size="24.0" fill="#EAEAEA" transform="matrix(1.00, 0.00, -0.00, -1.00, 695.0, 58.9)">f</text><text xml:space="preserve" font-family="HelveticaNeue-Medium,Helvetica Neue" font-size="24.0" fill="#EAEAEA" transform="matrix(1.00, 0.00, -0.00, -1.00, 702.5, 58.9)">o</text><text xml:space="preserve" font-family="HelveticaNeue-Medium,Helvetica Neue" font-size="24.0" fill="#EAEAEA" transform="matrix(1.00, 0.00, -0.00, -1.00, 716.8, 58.9)">r</text><text xml:space="preserve" font-family="HelveticaNeue-Medium,Helvetica Neue" font-size="24.0" fill="#EAEAEA" transform="matrix(1.00, 0.00, -0.00, -1.00, 725.2, 58.9)"> </text><text xml:space="preserve" font-family="HelveticaNeue-Medium,Helvetica Neue" font-size="24.0" fill="#EAEAEA" transform="matrix(1.00, 0.00, -0.00, -1.00, 731.9, 58.9)">H</text><text xml:space="preserve" font-family="HelveticaNeue-Medium,Helvetica Neue" font-size="24.0" fill="#EAEAEA" transform="matrix(1.00, 0.00, -0.00, -1.00, 749.2, 58.9)">e</text><text xml:space="preserve" font-family="HelveticaNeue-Medium,Helvetica Neue" font-size="24.0" fill="#EAEAEA" transform="matrix(1.00, 0.00, -0.00, -1.00, 762.6, 58.9)">m</text><text xml:space="preserve" font-family="HelveticaNeue-Medium,Helvetica Neue" font-size="24.0" fill="#EAEAEA" transform="matrix(1.00, 0.00, -0.00, -1.00, 783.4, 58.9)">a</text><text xml:space="preserve" font-family="HelveticaNeue-Medium,Helvetica Neue" font-size="24.0" fill="#EAEAEA" transform="matrix(1.00, 0.00, -0.00, -1.00, 796.8, 58.9)">t</text><text xml:space="preserve" font-family="HelveticaNeue-Medium,Helvetica Neue" font-size="24.0" fill="#EAEAEA" transform="matrix(1.00, 0.00, -0.00, -1.00, 804.8, 58.9)">o</text><text xml:space="preserve" font-family="HelveticaNeue-Medium,Helvetica Neue" font-size="24.0" fill="#EAEAEA" transform="matrix(1.00, 0.00, -0.00, -1.00, 819.0, 58.9)">p</text><text xml:space="preserve" font-family="HelveticaNeue-Medium,Helvetica Neue" font-size="24.0" fill="#EAEAEA" transform="matrix(1.00, 0.00, -0.00, -1.00, 833.7, 58.9)">o</text><text xml:space="preserve" font-family="HelveticaNeue-Medium,Helvetica Neue" font-size="24.0" fill="#EAEAEA" transform="matrix(1.00, 0.00, -0.00, -1.00, 847.9, 58.9)">i</text><text xml:space="preserve" font-family="HelveticaNeue-Medium,Helvetica Neue" font-size="24.0" fill="#EAEAEA" transform="matrix(1.00, 0.00, -0.00, -1.00, 853.7, 58.9)">e</text><text xml:space="preserve" font-family="HelveticaNeue-Medium,Helvetica Neue" font-size="24.0" fill="#EAEAEA" transform="matrix(1.00, 0.00, -0.00, -1.00, 867.0, 58.9)">t</text><text xml:space="preserve" font-family="HelveticaNeue-Medium,Helvetica Neue" font-size="24.0" fill="#EAEAEA" transform="matrix(1.00, 0.00, -0.00, -1.00, 875.0, 58.9)">i</text><text xml:space="preserve" font-family="HelveticaNeue-Medium,Helvetica Neue" font-size="24.0" fill="#EAEAEA" transform="matrix(1.00, 0.00, -0.00, -1.00, 880.8, 58.9)">c</text><text xml:space="preserve" font-family="HelveticaNeue-Medium,Helvetica Neue" font-size="24.0" fill="#EAEAEA" transform="matrix(1.00, 0.00, -0.00, -1.00, 894.2, 58.9)"> </text><text xml:space="preserve" font-family="HelveticaNeue-Medium,Helvetica Neue" font-size="24.0" fill="#EAEAEA" transform="matrix(1.00, 0.00, -0.00, -1.00, 900.8, 58.9)">S</text><text xml:space="preserve" font-family="HelveticaNeue-Medium,Helvetica Neue" font-size="24.0" fill="#EAEAEA" transform="matrix(1.00, 0.00, -0.00, -1.00, 916.4, 58.9)">t</text><text xml:space="preserve" font-family="HelveticaNeue-Medium,Helvetica Neue" font-size="24.0" fill="#EAEAEA" transform="matrix(1.00, 0.00, -0.00, -1.00, 924.4, 58.9)">e</text><text xml:space="preserve" font-family="HelveticaNeue-Medium,Helvetica Neue" font-size="24.0" fill="#EAEAEA" transform="matrix(1.00, 0.00, -0.00, -1.00, 937.7, 58.9)">m</text><text xml:space="preserve" font-family="HelveticaNeue-Medium,Helvetica Neue" font-size="24.0" fill="#EAEAEA" transform="matrix(1.00, 0.00, -0.00, -1.00, 958.6, 58.9)">-</text><text xml:space="preserve" font-family="HelveticaNeue-Medium,Helvetica Neue" font-size="24.0" fill="#EAEAEA" transform="matrix(1.00, 0.00, -0.00, -1.00, 967.9, 58.9)">C</text><text xml:space="preserve" font-family="HelveticaNeue-Medium,Helvetica Neue" font-size="24.0" fill="#EAEAEA" transform="matrix(1.00, 0.00, -0.00, -1.00, 985.3, 58.9)">e</text><text xml:space="preserve" font-family="HelveticaNeue-Medium,Helvetica Neue" font-size="24.0" fill="#EAEAEA" transform="matrix(1.00, 0.00, -0.00, -1.00, 998.6, 58.9)">l</text><text xml:space="preserve" font-family="HelveticaNeue-Medium,Helvetica Neue" font-size="24.0" fill="#EAEAEA" transform="matrix(1.00, 0.00, -0.00, -1.00, 1004.4, 58.9)">l</text><text xml:space="preserve" font-family="HelveticaNeue-Medium,Helvetica Neue" font-size="24.0" fill="#EAEAEA" transform="matrix(1.00, 0.00, -0.00, -1.00, 1010.2, 58.9)"> </text><image xlink:href="0F6EAFBB36F427B59A8E13F59D18C714.png" width="909.00" height="32.00" transform="matrix(1.00, 0.00, -0.00, -1.00, 57.0, 50.0)"></image><text xml:space="preserve" font-family="HelveticaNeue-Medium,Helvetica Neue" font-size="24.0" fill="#EAEAEA" transform="matrix(1.00, 0.00, -0.00, -1.00, 60.5, 29.9)">G</text><text xml:space="preserve" font-family="HelveticaNeue-Medium,Helvetica Neue" font-size="24.0" fill="#EAEAEA" transform="matrix(1.00, 0.00, -0.00, -1.00, 78.7, 29.9)">r</text><text xml:space="preserve" font-family="HelveticaNeue-Medium,Helvetica Neue" font-size="24.0" fill="#EAEAEA" transform="matrix(1.00, 0.00, -0.00, -1.00, 87.1, 29.9)">a</text><text xml:space="preserve" font-family="HelveticaNeue-Medium,Helvetica Neue" font-size="24.0" fill="#EAEAEA" transform="matrix(1.00, 0.00, -0.00, -1.00, 100.5, 29.9)">f</text><text xml:space="preserve" font-family="HelveticaNeue-Medium,Helvetica Neue" font-size="24.0" fill="#EAEAEA" transform="matrix(1.00, 0.00, -0.00, -1.00, 108.0, 29.9)">t</text><text xml:space="preserve" font-family="HelveticaNeue-Medium,Helvetica Neue" font-size="24.0" fill="#EAEAEA" transform="matrix(1.00, 0.00, -0.00, -1.00, 116.0, 29.9)">s</text><text xml:space="preserve" font-family="HelveticaNeue-Medium,Helvetica Neue" font-size="24.0" fill="#EAEAEA" transform="matrix(1.00, 0.00, -0.00, -1.00, 128.5, 29.9)"> </text><text xml:space="preserve" font-family="HelveticaNeue-Medium,Helvetica Neue" font-size="24.0" fill="#EAEAEA" transform="matrix(1.00, 0.00, -0.00, -1.00, 135.1, 29.9)">i</text><text xml:space="preserve" font-family="HelveticaNeue-Medium,Helvetica Neue" font-size="24.0" fill="#EAEAEA" transform="matrix(1.00, 0.00, -0.00, -1.00, 140.9, 29.9)">n</text><text xml:space="preserve" font-family="HelveticaNeue-Medium,Helvetica Neue" font-size="24.0" fill="#EAEAEA" transform="matrix(1.00, 0.00, -0.00, -1.00, 154.7, 29.9)"> </text><text xml:space="preserve" font-family="HelveticaNeue-Medium,Helvetica Neue" font-size="24.0" fill="#EAEAEA" transform="matrix(1.00, 0.00, -0.00, -1.00, 161.4, 29.9)">t</text><text xml:space="preserve" font-family="HelveticaNeue-Medium,Helvetica Neue" font-size="24.0" fill="#EAEAEA" transform="matrix(1.00, 0.00, -0.00, -1.00, 169.4, 29.9)">h</text><text xml:space="preserve" font-family="HelveticaNeue-Medium,Helvetica Neue" font-size="24.0" fill="#EAEAEA" transform="matrix(1.00, 0.00, -0.00, -1.00, 183.1, 29.9)">e</text><text xml:space="preserve" font-family="HelveticaNeue-Medium,Helvetica Neue" font-size="24.0" fill="#EAEAEA" transform="matrix(1.00, 0.00, -0.00, -1.00, 196.5, 29.9)"> </text><text xml:space="preserve" font-family="HelveticaNeue-Medium,Helvetica Neue" font-size="24.0" fill="#EAEAEA" transform="matrix(1.00, 0.00, -0.00, -1.00, 203.2, 29.9)">U</text><text xml:space="preserve" font-family="HelveticaNeue-Medium,Helvetica Neue" font-size="24.0" fill="#EAEAEA" transform="matrix(1.00, 0.00, -0.00, -1.00, 220.5, 29.9)">.</text><text xml:space="preserve" font-family="HelveticaNeue-Medium,Helvetica Neue" font-size="24.0" fill="#EAEAEA" transform="matrix(1.00, 0.00, -0.00, -1.00, 227.2, 29.9)">S</text><text xml:space="preserve" font-family="HelveticaNeue-Medium,Helvetica Neue" font-size="24.0" fill="#EAEAEA" transform="matrix(1.00, 0.00, -0.00, -1.00, 242.7, 29.9)">.</text><text xml:space="preserve" font-family="HelveticaNeue-Medium,Helvetica Neue" font-size="24.0" fill="#EAEAEA" transform="matrix(1.00, 0.00, -0.00, -1.00, 249.4, 29.9)"> </text><text xml:space="preserve" font-family="HelveticaNeue-Medium,Helvetica Neue" font-size="24.0" fill="#EAEAEA" transform="matrix(1.00, 0.00, -0.00, -1.00, 256.1, 29.9)">R</text><text xml:space="preserve" font-family="HelveticaNeue-Medium,Helvetica Neue" font-size="24.0" fill="#EAEAEA" transform="matrix(1.00, 0.00, -0.00, -1.00, 272.9, 29.9)">e</text><text xml:space="preserve" font-family="HelveticaNeue-Medium,Helvetica Neue" font-size="24.0" fill="#EAEAEA" transform="matrix(1.00, 0.00, -0.00, -1.00, 286.3, 29.9)">g</text><text xml:space="preserve" font-family="HelveticaNeue-Medium,Helvetica Neue" font-size="24.0" fill="#EAEAEA" transform="matrix(1.00, 0.00, -0.00, -1.00, 300.5, 29.9)">i</text><text xml:space="preserve" font-family="HelveticaNeue-Medium,Helvetica Neue" font-size="24.0" fill="#EAEAEA" transform="matrix(1.00, 0.00, -0.00, -1.00, 306.3, 29.9)">s</text><text xml:space="preserve" font-family="HelveticaNeue-Medium,Helvetica Neue" font-size="24.0" fill="#EAEAEA" transform="matrix(1.00, 0.00, -0.00, -1.00, 318.8, 29.9)">t</text><text xml:space="preserve" font-family="HelveticaNeue-Medium,Helvetica Neue" font-size="24.0" fill="#EAEAEA" transform="matrix(1.00, 0.00, -0.00, -1.00, 326.8, 29.9)">r</text><text xml:space="preserve" font-family="HelveticaNeue-Medium,Helvetica Neue" font-size="24.0" fill="#EAEAEA" transform="matrix(1.00, 0.00, -0.00, -1.00, 335.2, 29.9)">y</text><text xml:space="preserve" font-family="HelveticaNeue-Medium,Helvetica Neue" font-size="24.0" fill="#EAEAEA" transform="matrix(1.00, 0.00, -0.00, -1.00, 345.5, 29.9)">.</text><text xml:space="preserve" font-family="HelveticaNeue-Medium,Helvetica Neue" font-size="24.0" fill="#EAEAEA" transform="matrix(1.00, 0.00, -0.00, -1.00, 352.1, 29.9)"> </text><text xml:space="preserve" font-family="HelveticaNeue-Medium,Helvetica Neue" font-size="24.0" fill="#EAEAEA" transform="matrix(1.00, 0.00, -0.00, -1.00, 358.8, 29.9)">N</text><text xml:space="preserve" font-family="HelveticaNeue-Medium,Helvetica Neue" font-size="24.0" fill="#EAEAEA" transform="matrix(1.00, 0.00, -0.00, -1.00, 376.1, 29.9)">e</text><text xml:space="preserve" font-family="HelveticaNeue-Medium,Helvetica Neue" font-size="24.0" fill="#EAEAEA" transform="matrix(1.00, 0.00, -0.00, -1.00, 389.5, 29.9)">w</text><text xml:space="preserve" font-family="HelveticaNeue-Medium,Helvetica Neue" font-size="24.0" fill="#EAEAEA" transform="matrix(1.00, 0.00, -0.00, -1.00, 408.1, 29.9)"> </text><text xml:space="preserve" font-family="HelveticaNeue-Medium,Helvetica Neue" font-size="24.0" fill="#EAEAEA" transform="matrix(1.00, 0.00, -0.00, -1.00, 414.8, 29.9)">E</text><text xml:space="preserve" font-family="HelveticaNeue-Medium,Helvetica Neue" font-size="24.0" fill="#EAEAEA" transform="matrix(1.00, 0.00, -0.00, -1.00, 429.9, 29.9)">n</text><text xml:space="preserve" font-family="HelveticaNeue-Medium,Helvetica Neue" font-size="24.0" fill="#EAEAEA" transform="matrix(1.00, 0.00, -0.00, -1.00, 443.7, 29.9)">g</text><text xml:space="preserve" font-family="HelveticaNeue-Medium,Helvetica Neue" font-size="24.0" fill="#EAEAEA" transform="matrix(1.00, 0.00, -0.00, -1.00, 457.9, 29.9)">l</text><text xml:space="preserve" font-family="HelveticaNeue-Medium,Helvetica Neue" font-size="24.0" fill="#EAEAEA" transform="matrix(1.00, 0.00, -0.00, -1.00, 463.7, 29.9)">a</text><text xml:space="preserve" font-family="HelveticaNeue-Medium,Helvetica Neue" font-size="24.0" fill="#EAEAEA" transform="matrix(1.00, 0.00, -0.00, -1.00, 477.1, 29.9)">n</text><text xml:space="preserve" font-family="HelveticaNeue-Medium,Helvetica Neue" font-size="24.0" fill="#EAEAEA" transform="matrix(1.00, 0.00, -0.00, -1.00, 490.8, 29.9)">d</text><text xml:space="preserve" font-family="HelveticaNeue-Medium,Helvetica Neue" font-size="24.0" fill="#EAEAEA" transform="matrix(1.00, 0.00, -0.00, -1.00, 505.5, 29.9)"> </text><text xml:space="preserve" font-family="HelveticaNeue-Medium,Helvetica Neue" font-size="24.0" fill="#EAEAEA" transform="matrix(1.00, 0.00, -0.00, -1.00, 512.2, 29.9)">J</text><text xml:space="preserve" font-family="HelveticaNeue-Medium,Helvetica Neue" font-size="24.0" fill="#EAEAEA" transform="matrix(1.00, 0.00, -0.00, -1.00, 525.1, 29.9)">o</text><text xml:space="preserve" font-family="HelveticaNeue-Medium,Helvetica Neue" font-size="24.0" fill="#EAEAEA" transform="matrix(1.00, 0.00, -0.00, -1.00, 539.3, 29.9)">u</text><text xml:space="preserve" font-family="HelveticaNeue-Medium,Helvetica Neue" font-size="24.0" fill="#EAEAEA" transform="matrix(1.00, 0.00, -0.00, -1.00, 553.1, 29.9)">r</text><text xml:space="preserve" font-family="HelveticaNeue-Medium,Helvetica Neue" font-size="24.0" fill="#EAEAEA" transform="matrix(1.00, 0.00, -0.00, -1.00, 562.0, 29.9)">n</text><text xml:space="preserve" font-family="HelveticaNeue-Medium,Helvetica Neue" font-size="24.0" fill="#EAEAEA" transform="matrix(1.00, 0.00, -0.00, -1.00, 575.7, 29.9)">a</text><text xml:space="preserve" font-family="HelveticaNeue-Medium,Helvetica Neue" font-size="24.0" fill="#EAEAEA" transform="matrix(1.00, 0.00, -0.00, -1.00, 589.1, 29.9)">l</text><text xml:space="preserve" font-family="HelveticaNeue-Medium,Helvetica Neue" font-size="24.0" fill="#EAEAEA" transform="matrix(1.00, 0.00, -0.00, -1.00, 594.9, 29.9)"> </text><text xml:space="preserve" font-family="HelveticaNeue-Medium,Helvetica Neue" font-size="24.0" fill="#EAEAEA" transform="matrix(1.00, 0.00, -0.00, -1.00, 601.5, 29.9)">o</text><text xml:space="preserve" font-family="HelveticaNeue-Medium,Helvetica Neue" font-size="24.0" fill="#EAEAEA" transform="matrix(1.00, 0.00, -0.00, -1.00, 615.8, 29.9)">f</text><text xml:space="preserve" font-family="HelveticaNeue-Medium,Helvetica Neue" font-size="24.0" fill="#EAEAEA" transform="matrix(1.00, 0.00, -0.00, -1.00, 623.3, 29.9)"> </text><text xml:space="preserve" font-family="HelveticaNeue-Medium,Helvetica Neue" font-size="24.0" fill="#EAEAEA" transform="matrix(1.00, 0.00, -0.00, -1.00, 630.0, 29.9)">M</text><text xml:space="preserve" font-family="HelveticaNeue-Medium,Helvetica Neue" font-size="24.0" fill="#EAEAEA" transform="matrix(1.00, 0.00, -0.00, -1.00, 651.3, 29.9)">e</text><text xml:space="preserve" font-family="HelveticaNeue-Medium,Helvetica Neue" font-size="24.0" fill="#EAEAEA" transform="matrix(1.00, 0.00, -0.00, -1.00, 664.7, 29.9)">d</text><text xml:space="preserve" font-family="HelveticaNeue-Medium,Helvetica Neue" font-size="24.0" fill="#EAEAEA" transform="matrix(1.00, 0.00, -0.00, -1.00, 679.3, 29.9)">i</text><text xml:space="preserve" font-family="HelveticaNeue-Medium,Helvetica Neue" font-size="24.0" fill="#EAEAEA" transform="matrix(1.00, 0.00, -0.00, -1.00, 685.1, 29.9)">c</text><text xml:space="preserve" font-family="HelveticaNeue-Medium,Helvetica Neue" font-size="24.0" fill="#EAEAEA" transform="matrix(1.00, 0.00, -0.00, -1.00, 698.5, 29.9)">i</text><text xml:space="preserve" font-family="HelveticaNeue-Medium,Helvetica Neue" font-size="24.0" fill="#EAEAEA" transform="matrix(1.00, 0.00, -0.00, -1.00, 704.3, 29.9)">n</text><text xml:space="preserve" font-family="HelveticaNeue-Medium,Helvetica Neue" font-size="24.0" fill="#EAEAEA" transform="matrix(1.00, 0.00, -0.00, -1.00, 718.0, 29.9)">e</text><text xml:space="preserve" font-family="HelveticaNeue-Medium,Helvetica Neue" font-size="24.0" fill="#EAEAEA" transform="matrix(1.00, 0.00, -0.00, -1.00, 731.4, 29.9)">.</text><text xml:space="preserve" font-family="HelveticaNeue-Medium,Helvetica Neue" font-size="24.0" fill="#EAEAEA" transform="matrix(1.00, 0.00, -0.00, -1.00, 738.0, 29.9)"> </text><text xml:space="preserve" font-family="HelveticaNeue-Medium,Helvetica Neue" font-size="24.0" fill="#EAEAEA" transform="matrix(1.00, 0.00, -0.00, -1.00, 744.7, 29.9)">2</text><text xml:space="preserve" font-family="HelveticaNeue-Medium,Helvetica Neue" font-size="24.0" fill="#EAEAEA" transform="matrix(1.00, 0.00, -0.00, -1.00, 758.1, 29.9)">0</text><text xml:space="preserve" font-family="HelveticaNeue-Medium,Helvetica Neue" font-size="24.0" fill="#EAEAEA" transform="matrix(1.00, 0.00, -0.00, -1.00, 771.4, 29.9)">1</text><text xml:space="preserve" font-family="HelveticaNeue-Medium,Helvetica Neue" font-size="24.0" fill="#EAEAEA" transform="matrix(1.00, 0.00, -0.00, -1.00, 784.7, 29.9)">4</text><text xml:space="preserve" font-family="HelveticaNeue-Medium,Helvetica Neue" font-size="24.0" fill="#EAEAEA" transform="matrix(1.00, 0.00, -0.00, -1.00, 798.1, 29.9)">;</text><text xml:space="preserve" font-family="HelveticaNeue-Medium,Helvetica Neue" font-size="24.0" fill="#EAEAEA" transform="matrix(1.00, 0.00, -0.00, -1.00, 804.8, 29.9)">3</text><text xml:space="preserve" font-family="HelveticaNeue-Medium,Helvetica Neue" font-size="24.0" fill="#EAEAEA" transform="matrix(1.00, 0.00, -0.00, -1.00, 818.1, 29.9)">7</text><text xml:space="preserve" font-family="HelveticaNeue-Medium,Helvetica Neue" font-size="24.0" fill="#EAEAEA" transform="matrix(1.00, 0.00, -0.00, -1.00, 831.5, 29.9)">1</text><text xml:space="preserve" font-family="HelveticaNeue-Medium,Helvetica Neue" font-size="24.0" fill="#EAEAEA" transform="matrix(1.00, 0.00, -0.00, -1.00, 844.8, 29.9)">(</text><text xml:space="preserve" font-family="HelveticaNeue-Medium,Helvetica Neue" font-size="24.0" fill="#EAEAEA" transform="matrix(1.00, 0.00, -0.00, -1.00, 851.5, 29.9)">4</text><text xml:space="preserve" font-family="HelveticaNeue-Medium,Helvetica Neue" font-size="24.0" fill="#EAEAEA" transform="matrix(1.00, 0.00, -0.00, -1.00, 864.8, 29.9)">)</text><text xml:space="preserve" font-family="HelveticaNeue-Medium,Helvetica Neue" font-size="24.0" fill="#EAEAEA" transform="matrix(1.00, 0.00, -0.00, -1.00, 871.5, 29.9)">:</text><text xml:space="preserve" font-family="HelveticaNeue-Medium,Helvetica Neue" font-size="24.0" fill="#EAEAEA" transform="matrix(1.00, 0.00, -0.00, -1.00, 878.2, 29.9)">3</text><text xml:space="preserve" font-family="HelveticaNeue-Medium,Helvetica Neue" font-size="24.0" fill="#EAEAEA" transform="matrix(1.00, 0.00, -0.00, -1.00, 891.5, 29.9)">3</text><text xml:space="preserve" font-family="HelveticaNeue-Medium,Helvetica Neue" font-size="24.0" fill="#EAEAEA" transform="matrix(1.00, 0.00, -0.00, -1.00, 904.8, 29.9)">9</text><text xml:space="preserve" font-family="HelveticaNeue-Medium,Helvetica Neue" font-size="24.0" fill="#EAEAEA" transform="matrix(1.00, 0.00, -0.00, -1.00, 918.2, 29.9)">–</text><text xml:space="preserve" font-family="HelveticaNeue-Medium,Helvetica Neue" font-size="24.0" fill="#EAEAEA" transform="matrix(1.00, 0.00, -0.00, -1.00, 930.2, 29.9)">4</text><text xml:space="preserve" font-family="HelveticaNeue-Medium,Helvetica Neue" font-size="24.0" fill="#EAEAEA" transform="matrix(1.00, 0.00, -0.00, -1.00, 943.5, 29.9)">8</text><text xml:space="preserve" font-family="HelveticaNeue-Medium,Helvetica Neue" font-size="24.0" fill="#EAEAEA" transform="matrix(1.00, 0.00, -0.00, -1.00, 956.9, 29.9)">.</text><text xml:space="preserve" font-family="HelveticaNeue-Medium,Helvetica Neue" font-size="24.0" fill="#EAEAEA" transform="matrix(1.00, 0.00, -0.00, -1.00, 963.5, 29.9)"> </text></g></svg>