<?xml version="1.0" encoding="UTF-8" standalone="no"?><svg xmlns="http://www.w3.org/2000/svg" xmlns:xlink="http://www.w3.org/1999/xlink" clip-rule="evenodd" stroke-miterlimit="10" viewBox="0 0 1024 768"><desc>SVG generated by Keynote</desc><defs></defs><g transform="matrix(1.00, 0.00, -0.00, -1.00, 0.0, 768.0)"><g><clipPath id="clip0x7fba7deee450"><path d="M 0.0 768.0 L 1024.0 768.0 L 1024.0 0.0 L 0.0 0.0 Z M 0.0 768.0 "></path></clipPath><g clip-path="url(#clip0x7fba7deee450)"><image xlink:href="../../384E26B0-0AD0-495F-BA75-267B55ABD0BD/assets/31D284A5C75E14674D2A89FDB99F8048.jpeg" width="2048.00" height="1536.00" transform="matrix(0.50, 0.00, -0.00, -0.50, 0.0, 768.0)"></image></g></g><image xlink:href="E2D78029DD95DAC025EA33B97CA4C8E3.png" width="959.00" height="32.00" transform="matrix(1.00, 0.00, -0.00, -1.00, 33.0, 95.0)"></image><text xml:space="preserve" font-family="HelveticaNeue-Medium,Helvetica Neue" font-size="26.0" fill="#EAEAEA" transform="matrix(1.00, 0.00, -0.00, -1.00, 35.4, 74.4)">R</text><text xml:space="preserve" font-family="HelveticaNeue-Medium,Helvetica Neue" font-size="26.0" fill="#EAEAEA" transform="matrix(1.00, 0.00, -0.00, -1.00, 53.7, 74.4)">e</text><text xml:space="preserve" font-family="HelveticaNeue-Medium,Helvetica Neue" font-size="26.0" fill="#EAEAEA" transform="matrix(1.00, 0.00, -0.00, -1.00, 68.2, 74.4)">g</text><text xml:space="preserve" font-family="HelveticaNeue-Medium,Helvetica Neue" font-size="26.0" fill="#EAEAEA" transform="matrix(1.00, 0.00, -0.00, -1.00, 83.6, 74.4)">a</text><text xml:space="preserve" font-family="HelveticaNeue-Medium,Helvetica Neue" font-size="26.0" fill="#EAEAEA" transform="matrix(1.00, 0.00, -0.00, -1.00, 98.0, 74.4)">n</text><text xml:space="preserve" font-family="HelveticaNeue-Medium,Helvetica Neue" font-size="26.0" fill="#EAEAEA" transform="matrix(1.00, 0.00, -0.00, -1.00, 113.0, 74.4)"> </text><text xml:space="preserve" font-family="HelveticaNeue-Medium,Helvetica Neue" font-size="26.0" fill="#EAEAEA" transform="matrix(1.00, 0.00, -0.00, -1.00, 120.2, 74.4)">M</text><text xml:space="preserve" font-family="HelveticaNeue-Medium,Helvetica Neue" font-size="26.0" fill="#EAEAEA" transform="matrix(1.00, 0.00, -0.00, -1.00, 143.3, 74.4)">M</text><text xml:space="preserve" font-family="HelveticaNeue-Medium,Helvetica Neue" font-size="26.0" fill="#EAEAEA" transform="matrix(1.00, 0.00, -0.00, -1.00, 166.4, 74.4)">,</text><text xml:space="preserve" font-family="HelveticaNeue-Medium,Helvetica Neue" font-size="26.0" fill="#EAEAEA" transform="matrix(1.00, 0.00, -0.00, -1.00, 173.6, 74.4)"> </text><text xml:space="preserve" font-family="HelveticaNeue-Medium,Helvetica Neue" font-size="26.0" fill="#EAEAEA" transform="matrix(1.00, 0.00, -0.00, -1.00, 180.9, 74.4)">e</text><text xml:space="preserve" font-family="HelveticaNeue-Medium,Helvetica Neue" font-size="26.0" fill="#EAEAEA" transform="matrix(1.00, 0.00, -0.00, -1.00, 195.3, 74.4)">t</text><text xml:space="preserve" font-family="HelveticaNeue-Medium,Helvetica Neue" font-size="26.0" fill="#EAEAEA" transform="matrix(1.00, 0.00, -0.00, -1.00, 204.0, 74.4)"> </text><text xml:space="preserve" font-family="HelveticaNeue-Medium,Helvetica Neue" font-size="26.0" fill="#EAEAEA" transform="matrix(1.00, 0.00, -0.00, -1.00, 211.2, 74.4)">a</text><text xml:space="preserve" font-family="HelveticaNeue-Medium,Helvetica Neue" font-size="26.0" fill="#EAEAEA" transform="matrix(1.00, 0.00, -0.00, -1.00, 225.7, 74.4)">l</text><text xml:space="preserve" font-family="HelveticaNeue-Medium,Helvetica Neue" font-size="26.0" fill="#EAEAEA" transform="matrix(1.00, 0.00, -0.00, -1.00, 231.9, 74.4)">.</text><text xml:space="preserve" font-family="HelveticaNeue-Medium,Helvetica Neue" font-size="26.0" fill="#EAEAEA" transform="matrix(1.00, 0.00, -0.00, -1.00, 239.2, 74.4)"> </text><text xml:space="preserve" font-family="HelveticaNeue-Medium,Helvetica Neue" font-size="26.0" fill="#EAEAEA" transform="matrix(1.00, 0.00, -0.00, -1.00, 246.4, 74.4)">A</text><text xml:space="preserve" font-family="HelveticaNeue-Medium,Helvetica Neue" font-size="26.0" fill="#EAEAEA" transform="matrix(1.00, 0.00, -0.00, -1.00, 263.7, 74.4)">d</text><text xml:space="preserve" font-family="HelveticaNeue-Medium,Helvetica Neue" font-size="26.0" fill="#EAEAEA" transform="matrix(1.00, 0.00, -0.00, -1.00, 279.6, 74.4)">j</text><text xml:space="preserve" font-family="HelveticaNeue-Medium,Helvetica Neue" font-size="26.0" fill="#EAEAEA" transform="matrix(1.00, 0.00, -0.00, -1.00, 285.9, 74.4)">u</text><text xml:space="preserve" font-family="HelveticaNeue-Medium,Helvetica Neue" font-size="26.0" fill="#EAEAEA" transform="matrix(1.00, 0.00, -0.00, -1.00, 300.8, 74.4)">v</text><text xml:space="preserve" font-family="HelveticaNeue-Medium,Helvetica Neue" font-size="26.0" fill="#EAEAEA" transform="matrix(1.00, 0.00, -0.00, -1.00, 314.3, 74.4)">a</text><text xml:space="preserve" font-family="HelveticaNeue-Medium,Helvetica Neue" font-size="26.0" fill="#EAEAEA" transform="matrix(1.00, 0.00, -0.00, -1.00, 328.8, 74.4)">n</text><text xml:space="preserve" font-family="HelveticaNeue-Medium,Helvetica Neue" font-size="26.0" fill="#EAEAEA" transform="matrix(1.00, 0.00, -0.00, -1.00, 343.7, 74.4)">t</text><text xml:space="preserve" font-family="HelveticaNeue-Medium,Helvetica Neue" font-size="26.0" fill="#EAEAEA" transform="matrix(1.00, 0.00, -0.00, -1.00, 352.3, 74.4)"> </text><text xml:space="preserve" font-family="HelveticaNeue-Medium,Helvetica Neue" font-size="26.0" fill="#EAEAEA" transform="matrix(1.00, 0.00, -0.00, -1.00, 359.6, 74.4)">t</text><text xml:space="preserve" font-family="HelveticaNeue-Medium,Helvetica Neue" font-size="26.0" fill="#EAEAEA" transform="matrix(1.00, 0.00, -0.00, -1.00, 368.2, 74.4)">r</text><text xml:space="preserve" font-family="HelveticaNeue-Medium,Helvetica Neue" font-size="26.0" fill="#EAEAEA" transform="matrix(1.00, 0.00, -0.00, -1.00, 376.9, 74.4)">e</text><text xml:space="preserve" font-family="HelveticaNeue-Medium,Helvetica Neue" font-size="26.0" fill="#EAEAEA" transform="matrix(1.00, 0.00, -0.00, -1.00, 391.4, 74.4)">a</text><text xml:space="preserve" font-family="HelveticaNeue-Medium,Helvetica Neue" font-size="26.0" fill="#EAEAEA" transform="matrix(1.00, 0.00, -0.00, -1.00, 405.8, 74.4)">t</text><text xml:space="preserve" font-family="HelveticaNeue-Medium,Helvetica Neue" font-size="26.0" fill="#EAEAEA" transform="matrix(1.00, 0.00, -0.00, -1.00, 414.5, 74.4)">m</text><text xml:space="preserve" font-family="HelveticaNeue-Medium,Helvetica Neue" font-size="26.0" fill="#EAEAEA" transform="matrix(1.00, 0.00, -0.00, -1.00, 437.1, 74.4)">e</text><text xml:space="preserve" font-family="HelveticaNeue-Medium,Helvetica Neue" font-size="26.0" fill="#EAEAEA" transform="matrix(1.00, 0.00, -0.00, -1.00, 451.6, 74.4)">n</text><text xml:space="preserve" font-family="HelveticaNeue-Medium,Helvetica Neue" font-size="26.0" fill="#EAEAEA" transform="matrix(1.00, 0.00, -0.00, -1.00, 466.5, 74.4)">t</text><text xml:space="preserve" font-family="HelveticaNeue-Medium,Helvetica Neue" font-size="26.0" fill="#EAEAEA" transform="matrix(1.00, 0.00, -0.00, -1.00, 475.1, 74.4)"> </text><text xml:space="preserve" font-family="HelveticaNeue-Medium,Helvetica Neue" font-size="26.0" fill="#EAEAEA" transform="matrix(1.00, 0.00, -0.00, -1.00, 482.4, 74.4)">o</text><text xml:space="preserve" font-family="HelveticaNeue-Medium,Helvetica Neue" font-size="26.0" fill="#EAEAEA" transform="matrix(1.00, 0.00, -0.00, -1.00, 497.8, 74.4)">f</text><text xml:space="preserve" font-family="HelveticaNeue-Medium,Helvetica Neue" font-size="26.0" fill="#EAEAEA" transform="matrix(1.00, 0.00, -0.00, -1.00, 506.0, 74.4)"> </text><text xml:space="preserve" font-family="HelveticaNeue-Medium,Helvetica Neue" font-size="26.0" fill="#EAEAEA" transform="matrix(1.00, 0.00, -0.00, -1.00, 513.2, 74.4)">p</text><text xml:space="preserve" font-family="HelveticaNeue-Medium,Helvetica Neue" font-size="26.0" fill="#EAEAEA" transform="matrix(1.00, 0.00, -0.00, -1.00, 529.1, 74.4)">r</text><text xml:space="preserve" font-family="HelveticaNeue-Medium,Helvetica Neue" font-size="26.0" fill="#EAEAEA" transform="matrix(1.00, 0.00, -0.00, -1.00, 537.8, 74.4)">e</text><text xml:space="preserve" font-family="HelveticaNeue-Medium,Helvetica Neue" font-size="26.0" fill="#EAEAEA" transform="matrix(1.00, 0.00, -0.00, -1.00, 552.2, 74.4)">m</text><text xml:space="preserve" font-family="HelveticaNeue-Medium,Helvetica Neue" font-size="26.0" fill="#EAEAEA" transform="matrix(1.00, 0.00, -0.00, -1.00, 574.9, 74.4)">e</text><text xml:space="preserve" font-family="HelveticaNeue-Medium,Helvetica Neue" font-size="26.0" fill="#EAEAEA" transform="matrix(1.00, 0.00, -0.00, -1.00, 589.3, 74.4)">n</text><text xml:space="preserve" font-family="HelveticaNeue-Medium,Helvetica Neue" font-size="26.0" fill="#EAEAEA" transform="matrix(1.00, 0.00, -0.00, -1.00, 604.2, 74.4)">o</text><text xml:space="preserve" font-family="HelveticaNeue-Medium,Helvetica Neue" font-size="26.0" fill="#EAEAEA" transform="matrix(1.00, 0.00, -0.00, -1.00, 619.7, 74.4)">p</text><text xml:space="preserve" font-family="HelveticaNeue-Medium,Helvetica Neue" font-size="26.0" fill="#EAEAEA" transform="matrix(1.00, 0.00, -0.00, -1.00, 635.5, 74.4)">a</text><text xml:space="preserve" font-family="HelveticaNeue-Medium,Helvetica Neue" font-size="26.0" fill="#EAEAEA" transform="matrix(1.00, 0.00, -0.00, -1.00, 650.0, 74.4)">u</text><text xml:space="preserve" font-family="HelveticaNeue-Medium,Helvetica Neue" font-size="26.0" fill="#EAEAEA" transform="matrix(1.00, 0.00, -0.00, -1.00, 664.9, 74.4)">s</text><text xml:space="preserve" font-family="HelveticaNeue-Medium,Helvetica Neue" font-size="26.0" fill="#EAEAEA" transform="matrix(1.00, 0.00, -0.00, -1.00, 678.4, 74.4)">a</text><text xml:space="preserve" font-family="HelveticaNeue-Medium,Helvetica Neue" font-size="26.0" fill="#EAEAEA" transform="matrix(1.00, 0.00, -0.00, -1.00, 692.9, 74.4)">l</text><text xml:space="preserve" font-family="HelveticaNeue-Medium,Helvetica Neue" font-size="26.0" fill="#EAEAEA" transform="matrix(1.00, 0.00, -0.00, -1.00, 699.1, 74.4)"> </text><text xml:space="preserve" font-family="HelveticaNeue-Medium,Helvetica Neue" font-size="26.0" fill="#EAEAEA" transform="matrix(1.00, 0.00, -0.00, -1.00, 706.4, 74.4)">w</text><text xml:space="preserve" font-family="HelveticaNeue-Medium,Helvetica Neue" font-size="26.0" fill="#EAEAEA" transform="matrix(1.00, 0.00, -0.00, -1.00, 726.6, 74.4)">o</text><text xml:space="preserve" font-family="HelveticaNeue-Medium,Helvetica Neue" font-size="26.0" fill="#EAEAEA" transform="matrix(1.00, 0.00, -0.00, -1.00, 742.0, 74.4)">m</text><text xml:space="preserve" font-family="HelveticaNeue-Medium,Helvetica Neue" font-size="26.0" fill="#EAEAEA" transform="matrix(1.00, 0.00, -0.00, -1.00, 764.6, 74.4)">e</text><text xml:space="preserve" font-family="HelveticaNeue-Medium,Helvetica Neue" font-size="26.0" fill="#EAEAEA" transform="matrix(1.00, 0.00, -0.00, -1.00, 779.1, 74.4)">n</text><text xml:space="preserve" font-family="HelveticaNeue-Medium,Helvetica Neue" font-size="26.0" fill="#EAEAEA" transform="matrix(1.00, 0.00, -0.00, -1.00, 794.0, 74.4)"> </text><text xml:space="preserve" font-family="HelveticaNeue-Medium,Helvetica Neue" font-size="26.0" fill="#EAEAEA" transform="matrix(1.00, 0.00, -0.00, -1.00, 801.2, 74.4)">w</text><text xml:space="preserve" font-family="HelveticaNeue-Medium,Helvetica Neue" font-size="26.0" fill="#EAEAEA" transform="matrix(1.00, 0.00, -0.00, -1.00, 821.5, 74.4)">i</text><text xml:space="preserve" font-family="HelveticaNeue-Medium,Helvetica Neue" font-size="26.0" fill="#EAEAEA" transform="matrix(1.00, 0.00, -0.00, -1.00, 827.7, 74.4)">t</text><text xml:space="preserve" font-family="HelveticaNeue-Medium,Helvetica Neue" font-size="26.0" fill="#EAEAEA" transform="matrix(1.00, 0.00, -0.00, -1.00, 836.4, 74.4)">h</text><text xml:space="preserve" font-family="HelveticaNeue-Medium,Helvetica Neue" font-size="26.0" fill="#EAEAEA" transform="matrix(1.00, 0.00, -0.00, -1.00, 851.3, 74.4)"> </text><text xml:space="preserve" font-family="HelveticaNeue-Medium,Helvetica Neue" font-size="26.0" fill="#EAEAEA" transform="matrix(1.00, 0.00, -0.00, -1.00, 858.5, 74.4)">e</text><text xml:space="preserve" font-family="HelveticaNeue-Medium,Helvetica Neue" font-size="26.0" fill="#EAEAEA" transform="matrix(1.00, 0.00, -0.00, -1.00, 873.0, 74.4)">n</text><text xml:space="preserve" font-family="HelveticaNeue-Medium,Helvetica Neue" font-size="26.0" fill="#EAEAEA" transform="matrix(1.00, 0.00, -0.00, -1.00, 887.9, 74.4)">d</text><text xml:space="preserve" font-family="HelveticaNeue-Medium,Helvetica Neue" font-size="26.0" fill="#EAEAEA" transform="matrix(1.00, 0.00, -0.00, -1.00, 903.8, 74.4)">o</text><text xml:space="preserve" font-family="HelveticaNeue-Medium,Helvetica Neue" font-size="26.0" fill="#EAEAEA" transform="matrix(1.00, 0.00, -0.00, -1.00, 919.2, 74.4)">c</text><text xml:space="preserve" font-family="HelveticaNeue-Medium,Helvetica Neue" font-size="26.0" fill="#EAEAEA" transform="matrix(1.00, 0.00, -0.00, -1.00, 933.7, 74.4)">r</text><text xml:space="preserve" font-family="HelveticaNeue-Medium,Helvetica Neue" font-size="26.0" fill="#EAEAEA" transform="matrix(1.00, 0.00, -0.00, -1.00, 942.8, 74.4)">i</text><text xml:space="preserve" font-family="HelveticaNeue-Medium,Helvetica Neue" font-size="26.0" fill="#EAEAEA" transform="matrix(1.00, 0.00, -0.00, -1.00, 949.1, 74.4)">n</text><text xml:space="preserve" font-family="HelveticaNeue-Medium,Helvetica Neue" font-size="26.0" fill="#EAEAEA" transform="matrix(1.00, 0.00, -0.00, -1.00, 964.0, 74.4)">e</text><text xml:space="preserve" font-family="HelveticaNeue-Medium,Helvetica Neue" font-size="26.0" fill="#EAEAEA" transform="matrix(1.00, 0.00, -0.00, -1.00, 978.5, 74.4)">-</text><image xlink:href="2EB5D36FF9D534BC7A2813A0546C80FC.png" width="963.00" height="33.00" transform="matrix(1.00, 0.00, -0.00, -1.00, 30.0, 64.0)"></image><text xml:space="preserve" font-family="HelveticaNeue-Medium,Helvetica Neue" font-size="26.0" fill="#EAEAEA" transform="matrix(1.00, 0.00, -0.00, -1.00, 33.4, 42.4)">r</text><text xml:space="preserve" font-family="HelveticaNeue-Medium,Helvetica Neue" font-size="26.0" fill="#EAEAEA" transform="matrix(1.00, 0.00, -0.00, -1.00, 42.1, 42.4)">e</text><text xml:space="preserve" font-family="HelveticaNeue-Medium,Helvetica Neue" font-size="26.0" fill="#EAEAEA" transform="matrix(1.00, 0.00, -0.00, -1.00, 56.5, 42.4)">s</text><text xml:space="preserve" font-family="HelveticaNeue-Medium,Helvetica Neue" font-size="26.0" fill="#EAEAEA" transform="matrix(1.00, 0.00, -0.00, -1.00, 70.0, 42.4)">p</text><text xml:space="preserve" font-family="HelveticaNeue-Medium,Helvetica Neue" font-size="26.0" fill="#EAEAEA" transform="matrix(1.00, 0.00, -0.00, -1.00, 85.9, 42.4)">o</text><text xml:space="preserve" font-family="HelveticaNeue-Medium,Helvetica Neue" font-size="26.0" fill="#EAEAEA" transform="matrix(1.00, 0.00, -0.00, -1.00, 101.3, 42.4)">n</text><text xml:space="preserve" font-family="HelveticaNeue-Medium,Helvetica Neue" font-size="26.0" fill="#EAEAEA" transform="matrix(1.00, 0.00, -0.00, -1.00, 116.2, 42.4)">s</text><text xml:space="preserve" font-family="HelveticaNeue-Medium,Helvetica Neue" font-size="26.0" fill="#EAEAEA" transform="matrix(1.00, 0.00, -0.00, -1.00, 129.7, 42.4)">i</text><text xml:space="preserve" font-family="HelveticaNeue-Medium,Helvetica Neue" font-size="26.0" fill="#EAEAEA" transform="matrix(1.00, 0.00, -0.00, -1.00, 136.0, 42.4)">v</text><text xml:space="preserve" font-family="HelveticaNeue-Medium,Helvetica Neue" font-size="26.0" fill="#EAEAEA" transform="matrix(1.00, 0.00, -0.00, -1.00, 149.5, 42.4)">e</text><text xml:space="preserve" font-family="HelveticaNeue-Medium,Helvetica Neue" font-size="26.0" fill="#EAEAEA" transform="matrix(1.00, 0.00, -0.00, -1.00, 164.0, 42.4)"> </text><text xml:space="preserve" font-family="HelveticaNeue-Medium,Helvetica Neue" font-size="26.0" fill="#EAEAEA" transform="matrix(1.00, 0.00, -0.00, -1.00, 171.2, 42.4)">e</text><text xml:space="preserve" font-family="HelveticaNeue-Medium,Helvetica Neue" font-size="26.0" fill="#EAEAEA" transform="matrix(1.00, 0.00, -0.00, -1.00, 185.6, 42.4)">a</text><text xml:space="preserve" font-family="HelveticaNeue-Medium,Helvetica Neue" font-size="26.0" fill="#EAEAEA" transform="matrix(1.00, 0.00, -0.00, -1.00, 200.1, 42.4)">r</text><text xml:space="preserve" font-family="HelveticaNeue-Medium,Helvetica Neue" font-size="26.0" fill="#EAEAEA" transform="matrix(1.00, 0.00, -0.00, -1.00, 209.2, 42.4)">l</text><text xml:space="preserve" font-family="HelveticaNeue-Medium,Helvetica Neue" font-size="26.0" fill="#EAEAEA" transform="matrix(1.00, 0.00, -0.00, -1.00, 215.5, 42.4)">y</text><text xml:space="preserve" font-family="HelveticaNeue-Medium,Helvetica Neue" font-size="26.0" fill="#EAEAEA" transform="matrix(1.00, 0.00, -0.00, -1.00, 229.0, 42.4)"> </text><text xml:space="preserve" font-family="HelveticaNeue-Medium,Helvetica Neue" font-size="26.0" fill="#EAEAEA" transform="matrix(1.00, 0.00, -0.00, -1.00, 236.2, 42.4)">b</text><text xml:space="preserve" font-family="HelveticaNeue-Medium,Helvetica Neue" font-size="26.0" fill="#EAEAEA" transform="matrix(1.00, 0.00, -0.00, -1.00, 252.1, 42.4)">r</text><text xml:space="preserve" font-family="HelveticaNeue-Medium,Helvetica Neue" font-size="26.0" fill="#EAEAEA" transform="matrix(1.00, 0.00, -0.00, -1.00, 260.8, 42.4)">e</text><text xml:space="preserve" font-family="HelveticaNeue-Medium,Helvetica Neue" font-size="26.0" fill="#EAEAEA" transform="matrix(1.00, 0.00, -0.00, -1.00, 275.3, 42.4)">a</text><text xml:space="preserve" font-family="HelveticaNeue-Medium,Helvetica Neue" font-size="26.0" fill="#EAEAEA" transform="matrix(1.00, 0.00, -0.00, -1.00, 289.7, 42.4)">s</text><text xml:space="preserve" font-family="HelveticaNeue-Medium,Helvetica Neue" font-size="26.0" fill="#EAEAEA" transform="matrix(1.00, 0.00, -0.00, -1.00, 303.2, 42.4)">t</text><text xml:space="preserve" font-family="HelveticaNeue-Medium,Helvetica Neue" font-size="26.0" fill="#EAEAEA" transform="matrix(1.00, 0.00, -0.00, -1.00, 311.9, 42.4)"> </text><text xml:space="preserve" font-family="HelveticaNeue-Medium,Helvetica Neue" font-size="26.0" fill="#EAEAEA" transform="matrix(1.00, 0.00, -0.00, -1.00, 319.1, 42.4)">c</text><text xml:space="preserve" font-family="HelveticaNeue-Medium,Helvetica Neue" font-size="26.0" fill="#EAEAEA" transform="matrix(1.00, 0.00, -0.00, -1.00, 333.5, 42.4)">a</text><text xml:space="preserve" font-family="HelveticaNeue-Medium,Helvetica Neue" font-size="26.0" fill="#EAEAEA" transform="matrix(1.00, 0.00, -0.00, -1.00, 348.0, 42.4)">n</text><text xml:space="preserve" font-family="HelveticaNeue-Medium,Helvetica Neue" font-size="26.0" fill="#EAEAEA" transform="matrix(1.00, 0.00, -0.00, -1.00, 362.9, 42.4)">c</text><text xml:space="preserve" font-family="HelveticaNeue-Medium,Helvetica Neue" font-size="26.0" fill="#EAEAEA" transform="matrix(1.00, 0.00, -0.00, -1.00, 377.4, 42.4)">e</text><text xml:space="preserve" font-family="HelveticaNeue-Medium,Helvetica Neue" font-size="26.0" fill="#EAEAEA" transform="matrix(1.00, 0.00, -0.00, -1.00, 391.8, 42.4)">r</text><text xml:space="preserve" font-family="HelveticaNeue-Medium,Helvetica Neue" font-size="26.0" fill="#EAEAEA" transform="matrix(1.00, 0.00, -0.00, -1.00, 401.0, 42.4)">:</text><text xml:space="preserve" font-family="HelveticaNeue-Medium,Helvetica Neue" font-size="26.0" fill="#EAEAEA" transform="matrix(1.00, 0.00, -0.00, -1.00, 408.2, 42.4)"> </text><text xml:space="preserve" font-family="HelveticaNeue-Medium,Helvetica Neue" font-size="26.0" fill="#EAEAEA" transform="matrix(1.00, 0.00, -0.00, -1.00, 415.4, 42.4)">D</text><text xml:space="preserve" font-family="HelveticaNeue-Medium,Helvetica Neue" font-size="26.0" fill="#EAEAEA" transform="matrix(1.00, 0.00, -0.00, -1.00, 434.2, 42.4)">e</text><text xml:space="preserve" font-family="HelveticaNeue-Medium,Helvetica Neue" font-size="26.0" fill="#EAEAEA" transform="matrix(1.00, 0.00, -0.00, -1.00, 448.7, 42.4)">s</text><text xml:space="preserve" font-family="HelveticaNeue-Medium,Helvetica Neue" font-size="26.0" fill="#EAEAEA" transform="matrix(1.00, 0.00, -0.00, -1.00, 462.2, 42.4)">i</text><text xml:space="preserve" font-family="HelveticaNeue-Medium,Helvetica Neue" font-size="26.0" fill="#EAEAEA" transform="matrix(1.00, 0.00, -0.00, -1.00, 468.4, 42.4)">g</text><text xml:space="preserve" font-family="HelveticaNeue-Medium,Helvetica Neue" font-size="26.0" fill="#EAEAEA" transform="matrix(1.00, 0.00, -0.00, -1.00, 483.9, 42.4)">n</text><text xml:space="preserve" font-family="HelveticaNeue-Medium,Helvetica Neue" font-size="26.0" fill="#EAEAEA" transform="matrix(1.00, 0.00, -0.00, -1.00, 498.8, 42.4)"> </text><text xml:space="preserve" font-family="HelveticaNeue-Medium,Helvetica Neue" font-size="26.0" fill="#EAEAEA" transform="matrix(1.00, 0.00, -0.00, -1.00, 506.0, 42.4)">o</text><text xml:space="preserve" font-family="HelveticaNeue-Medium,Helvetica Neue" font-size="26.0" fill="#EAEAEA" transform="matrix(1.00, 0.00, -0.00, -1.00, 521.4, 42.4)">f</text><text xml:space="preserve" font-family="HelveticaNeue-Medium,Helvetica Neue" font-size="26.0" fill="#EAEAEA" transform="matrix(1.00, 0.00, -0.00, -1.00, 529.6, 42.4)"> </text><text xml:space="preserve" font-family="HelveticaNeue-Medium,Helvetica Neue" font-size="26.0" fill="#EAEAEA" transform="matrix(1.00, 0.00, -0.00, -1.00, 536.8, 42.4)">t</text><text xml:space="preserve" font-family="HelveticaNeue-Medium,Helvetica Neue" font-size="26.0" fill="#EAEAEA" transform="matrix(1.00, 0.00, -0.00, -1.00, 545.5, 42.4)">h</text><text xml:space="preserve" font-family="HelveticaNeue-Medium,Helvetica Neue" font-size="26.0" fill="#EAEAEA" transform="matrix(1.00, 0.00, -0.00, -1.00, 560.4, 42.4)">e</text><text xml:space="preserve" font-family="HelveticaNeue-Medium,Helvetica Neue" font-size="26.0" fill="#EAEAEA" transform="matrix(1.00, 0.00, -0.00, -1.00, 574.9, 42.4)"> </text><text xml:space="preserve" font-family="HelveticaNeue-Medium,Helvetica Neue" font-size="26.0" fill="#EAEAEA" transform="matrix(1.00, 0.00, -0.00, -1.00, 582.1, 42.4)">T</text><text xml:space="preserve" font-family="HelveticaNeue-Medium,Helvetica Neue" font-size="26.0" fill="#EAEAEA" transform="matrix(1.00, 0.00, -0.00, -1.00, 597.5, 42.4)">E</text><text xml:space="preserve" font-family="HelveticaNeue-Medium,Helvetica Neue" font-size="26.0" fill="#EAEAEA" transform="matrix(1.00, 0.00, -0.00, -1.00, 613.9, 42.4)">X</text><text xml:space="preserve" font-family="HelveticaNeue-Medium,Helvetica Neue" font-size="26.0" fill="#EAEAEA" transform="matrix(1.00, 0.00, -0.00, -1.00, 630.8, 42.4)">T</text><text xml:space="preserve" font-family="HelveticaNeue-Medium,Helvetica Neue" font-size="26.0" fill="#EAEAEA" transform="matrix(1.00, 0.00, -0.00, -1.00, 646.2, 42.4)"> </text><text xml:space="preserve" font-family="HelveticaNeue-Medium,Helvetica Neue" font-size="26.0" fill="#EAEAEA" transform="matrix(1.00, 0.00, -0.00, -1.00, 653.4, 42.4)">a</text><text xml:space="preserve" font-family="HelveticaNeue-Medium,Helvetica Neue" font-size="26.0" fill="#EAEAEA" transform="matrix(1.00, 0.00, -0.00, -1.00, 667.9, 42.4)">n</text><text xml:space="preserve" font-family="HelveticaNeue-Medium,Helvetica Neue" font-size="26.0" fill="#EAEAEA" transform="matrix(1.00, 0.00, -0.00, -1.00, 682.8, 42.4)">d</text><text xml:space="preserve" font-family="HelveticaNeue-Medium,Helvetica Neue" font-size="26.0" fill="#EAEAEA" transform="matrix(1.00, 0.00, -0.00, -1.00, 698.7, 42.4)"> </text><text xml:space="preserve" font-family="HelveticaNeue-Medium,Helvetica Neue" font-size="26.0" fill="#EAEAEA" transform="matrix(1.00, 0.00, -0.00, -1.00, 705.9, 42.4)">S</text><text xml:space="preserve" font-family="HelveticaNeue-Medium,Helvetica Neue" font-size="26.0" fill="#EAEAEA" transform="matrix(1.00, 0.00, -0.00, -1.00, 722.7, 42.4)">O</text><text xml:space="preserve" font-family="HelveticaNeue-Medium,Helvetica Neue" font-size="26.0" fill="#EAEAEA" transform="matrix(1.00, 0.00, -0.00, -1.00, 742.5, 42.4)">F</text><text xml:space="preserve" font-family="HelveticaNeue-Medium,Helvetica Neue" font-size="26.0" fill="#EAEAEA" transform="matrix(1.00, 0.00, -0.00, -1.00, 757.9, 42.4)">T</text><text xml:space="preserve" font-family="HelveticaNeue-Medium,Helvetica Neue" font-size="26.0" fill="#EAEAEA" transform="matrix(1.00, 0.00, -0.00, -1.00, 773.3, 42.4)"> </text><text xml:space="preserve" font-family="HelveticaNeue-Medium,Helvetica Neue" font-size="26.0" fill="#EAEAEA" transform="matrix(1.00, 0.00, -0.00, -1.00, 780.6, 42.4)">t</text><text xml:space="preserve" font-family="HelveticaNeue-Medium,Helvetica Neue" font-size="26.0" fill="#EAEAEA" transform="matrix(1.00, 0.00, -0.00, -1.00, 789.2, 42.4)">r</text><text xml:space="preserve" font-family="HelveticaNeue-Medium,Helvetica Neue" font-size="26.0" fill="#EAEAEA" transform="matrix(1.00, 0.00, -0.00, -1.00, 798.4, 42.4)">i</text><text xml:space="preserve" font-family="HelveticaNeue-Medium,Helvetica Neue" font-size="26.0" fill="#EAEAEA" transform="matrix(1.00, 0.00, -0.00, -1.00, 804.6, 42.4)">a</text><text xml:space="preserve" font-family="HelveticaNeue-Medium,Helvetica Neue" font-size="26.0" fill="#EAEAEA" transform="matrix(1.00, 0.00, -0.00, -1.00, 819.1, 42.4)">l</text><text xml:space="preserve" font-family="HelveticaNeue-Medium,Helvetica Neue" font-size="26.0" fill="#EAEAEA" transform="matrix(1.00, 0.00, -0.00, -1.00, 825.4, 42.4)">s</text><text xml:space="preserve" font-family="HelveticaNeue-Medium,Helvetica Neue" font-size="26.0" fill="#EAEAEA" transform="matrix(1.00, 0.00, -0.00, -1.00, 838.9, 42.4)">.</text><text xml:space="preserve" font-family="HelveticaNeue-Medium,Helvetica Neue" font-size="26.0" fill="#EAEAEA" transform="matrix(1.00, 0.00, -0.00, -1.00, 846.1, 42.4)"> </text><text xml:space="preserve" font-family="HelveticaNeue-Medium,Helvetica Neue" font-size="26.0" fill="#EAEAEA" transform="matrix(1.00, 0.00, -0.00, -1.00, 853.3, 42.4)">T</text><text xml:space="preserve" font-family="HelveticaNeue-Medium,Helvetica Neue" font-size="26.0" fill="#EAEAEA" transform="matrix(1.00, 0.00, -0.00, -1.00, 868.7, 42.4)">h</text><text xml:space="preserve" font-family="HelveticaNeue-Medium,Helvetica Neue" font-size="26.0" fill="#EAEAEA" transform="matrix(1.00, 0.00, -0.00, -1.00, 883.7, 42.4)">e</text><text xml:space="preserve" font-family="HelveticaNeue-Medium,Helvetica Neue" font-size="26.0" fill="#EAEAEA" transform="matrix(1.00, 0.00, -0.00, -1.00, 898.1, 42.4)"> </text><text xml:space="preserve" font-family="HelveticaNeue-Medium,Helvetica Neue" font-size="26.0" fill="#EAEAEA" transform="matrix(1.00, 0.00, -0.00, -1.00, 905.3, 42.4)">B</text><text xml:space="preserve" font-family="HelveticaNeue-Medium,Helvetica Neue" font-size="26.0" fill="#EAEAEA" transform="matrix(1.00, 0.00, -0.00, -1.00, 923.6, 42.4)">r</text><text xml:space="preserve" font-family="HelveticaNeue-Medium,Helvetica Neue" font-size="26.0" fill="#EAEAEA" transform="matrix(1.00, 0.00, -0.00, -1.00, 932.3, 42.4)">e</text><text xml:space="preserve" font-family="HelveticaNeue-Medium,Helvetica Neue" font-size="26.0" fill="#EAEAEA" transform="matrix(1.00, 0.00, -0.00, -1.00, 946.8, 42.4)">a</text><text xml:space="preserve" font-family="HelveticaNeue-Medium,Helvetica Neue" font-size="26.0" fill="#EAEAEA" transform="matrix(1.00, 0.00, -0.00, -1.00, 961.2, 42.4)">s</text><text xml:space="preserve" font-family="HelveticaNeue-Medium,Helvetica Neue" font-size="26.0" fill="#EAEAEA" transform="matrix(1.00, 0.00, -0.00, -1.00, 974.7, 42.4)">t</text><text xml:space="preserve" font-family="HelveticaNeue-Medium,Helvetica Neue" font-size="26.0" fill="#EAEAEA" transform="matrix(1.00, 0.00, -0.00, -1.00, 983.4, 42.4)">.</text><text xml:space="preserve" font-family="HelveticaNeue-Medium,Helvetica Neue" font-size="26.0" fill="#EAEAEA" transform="matrix(1.00, 0.00, -0.00, -1.00, 990.6, 42.4)"> </text><image xlink:href="FE3A709EDF418135B1C700037E5BF23B.png" width="313.00" height="33.00" transform="matrix(1.00, 0.00, -0.00, -1.00, 355.0, 32.0)"></image><text xml:space="preserve" font-family="HelveticaNeue-Medium,Helvetica Neue" font-size="26.0" fill="#EAEAEA" transform="matrix(1.00, 0.00, -0.00, -1.00, 358.8, 10.4)">2</text><text xml:space="preserve" font-family="HelveticaNeue-Medium,Helvetica Neue" font-size="26.0" fill="#EAEAEA" transform="matrix(1.00, 0.00, -0.00, -1.00, 373.2, 10.4)">0</text><text xml:space="preserve" font-family="HelveticaNeue-Medium,Helvetica Neue" font-size="26.0" fill="#EAEAEA" transform="matrix(1.00, 0.00, -0.00, -1.00, 387.7, 10.4)">1</text><text xml:space="preserve" font-family="HelveticaNeue-Medium,Helvetica Neue" font-size="26.0" fill="#EAEAEA" transform="matrix(1.00, 0.00, -0.00, -1.00, 402.1, 10.4)">3</text><text xml:space="preserve" font-family="HelveticaNeue-Medium,Helvetica Neue" font-size="26.0" fill="#EAEAEA" transform="matrix(1.00, 0.00, -0.00, -1.00, 416.6, 10.4)"> </text><text xml:space="preserve" font-family="HelveticaNeue-Medium,Helvetica Neue" font-size="26.0" fill="#EAEAEA" transform="matrix(1.00, 0.00, -0.00, -1.00, 423.8, 10.4)">D</text><text xml:space="preserve" font-family="HelveticaNeue-Medium,Helvetica Neue" font-size="26.0" fill="#EAEAEA" transform="matrix(1.00, 0.00, -0.00, -1.00, 442.6, 10.4)">e</text><text xml:space="preserve" font-family="HelveticaNeue-Medium,Helvetica Neue" font-size="26.0" fill="#EAEAEA" transform="matrix(1.00, 0.00, -0.00, -1.00, 457.1, 10.4)">c</text><text xml:space="preserve" font-family="HelveticaNeue-Medium,Helvetica Neue" font-size="26.0" fill="#EAEAEA" transform="matrix(1.00, 0.00, -0.00, -1.00, 471.5, 10.4)">;</text><text xml:space="preserve" font-family="HelveticaNeue-Medium,Helvetica Neue" font-size="26.0" fill="#EAEAEA" transform="matrix(1.00, 0.00, -0.00, -1.00, 478.7, 10.4)">2</text><text xml:space="preserve" font-family="HelveticaNeue-Medium,Helvetica Neue" font-size="26.0" fill="#EAEAEA" transform="matrix(1.00, 0.00, -0.00, -1.00, 493.2, 10.4)">2</text><text xml:space="preserve" font-family="HelveticaNeue-Medium,Helvetica Neue" font-size="26.0" fill="#EAEAEA" transform="matrix(1.00, 0.00, -0.00, -1.00, 507.7, 10.4)">(</text><text xml:space="preserve" font-family="HelveticaNeue-Medium,Helvetica Neue" font-size="26.0" fill="#EAEAEA" transform="matrix(1.00, 0.00, -0.00, -1.00, 514.9, 10.4)">6</text><text xml:space="preserve" font-family="HelveticaNeue-Medium,Helvetica Neue" font-size="26.0" fill="#EAEAEA" transform="matrix(1.00, 0.00, -0.00, -1.00, 529.3, 10.4)">)</text><text xml:space="preserve" font-family="HelveticaNeue-Medium,Helvetica Neue" font-size="26.0" fill="#EAEAEA" transform="matrix(1.00, 0.00, -0.00, -1.00, 536.6, 10.4)">:</text><text xml:space="preserve" font-family="HelveticaNeue-Medium,Helvetica Neue" font-size="26.0" fill="#EAEAEA" transform="matrix(1.00, 0.00, -0.00, -1.00, 543.8, 10.4)">1</text><text xml:space="preserve" font-family="HelveticaNeue-Medium,Helvetica Neue" font-size="26.0" fill="#EAEAEA" transform="matrix(1.00, 0.00, -0.00, -1.00, 558.3, 10.4)">0</text><text xml:space="preserve" font-family="HelveticaNeue-Medium,Helvetica Neue" font-size="26.0" fill="#EAEAEA" transform="matrix(1.00, 0.00, -0.00, -1.00, 572.7, 10.4)">9</text><text xml:space="preserve" font-family="HelveticaNeue-Medium,Helvetica Neue" font-size="26.0" fill="#EAEAEA" transform="matrix(1.00, 0.00, -0.00, -1.00, 587.2, 10.4)">4</text><text xml:space="preserve" font-family="HelveticaNeue-Medium,Helvetica Neue" font-size="26.0" fill="#EAEAEA" transform="matrix(1.00, 0.00, -0.00, -1.00, 601.6, 10.4)">–</text><text xml:space="preserve" font-family="HelveticaNeue-Medium,Helvetica Neue" font-size="26.0" fill="#EAEAEA" transform="matrix(1.00, 0.00, -0.00, -1.00, 614.6, 10.4)">1</text><text xml:space="preserve" font-family="HelveticaNeue-Medium,Helvetica Neue" font-size="26.0" fill="#EAEAEA" transform="matrix(1.00, 0.00, -0.00, -1.00, 629.1, 10.4)">0</text><text xml:space="preserve" font-family="HelveticaNeue-Medium,Helvetica Neue" font-size="26.0" fill="#EAEAEA" transform="matrix(1.00, 0.00, -0.00, -1.00, 643.5, 10.4)">0</text><text xml:space="preserve" font-family="HelveticaNeue-Medium,Helvetica Neue" font-size="26.0" fill="#EAEAEA" transform="matrix(1.00, 0.00, -0.00, -1.00, 658.0, 10.4)">.</text><image xlink:href="33BFCFD53C85B530118F365EE5958CE5.png" width="1466.00" height="1134.00" transform="matrix(0.57, 0.00, -0.00, -0.57, 92.0, 758.0)"></image><image xlink:href="F9A328A87B3779917EF8CF54295DB175.png" width="884.00" height="699.00" transform="matrix(1.00, 0.00, -0.00, 1.00, 70.0, 85.0)"></image></g></svg>