<?xml version="1.0" encoding="UTF-8" standalone="no"?><svg xmlns="http://www.w3.org/2000/svg" xmlns:xlink="http://www.w3.org/1999/xlink" clip-rule="evenodd" stroke-miterlimit="4.00" viewBox="0 0 1024 768"><desc>SVG generated by Keynote</desc><defs></defs><g transform="matrix(1.00, 0.00, -0.00, -1.00, 0.0, 768.0)"><path d="M 0.0 768.0 L 1024.0 768.0 L 1024.0 0.0 L 0.0 0.0 Z M 0.0 768.0 " fill="#FEFFFE"></path><path d="M 0.0 0.0 L 934.5 0.0 " fill="none" stroke="#9A9A9A" stroke-width="1.00" transform="matrix(1.00, 0.00, 0.00, -1.00, 45.0, 613.0)"></path><text xml:space="preserve" font-family="HelveticaNeue-Light" font-size="36.1" fill="#000000" transform="matrix(1.00, 0.00, -0.00, -1.00, 49.0, 688.0)">D</text><text xml:space="preserve" font-family="HelveticaNeue-Light" font-size="36.1" fill="#000000" transform="matrix(1.00, 0.00, -0.00, -1.00, 73.7, 688.0)">o</text><text xml:space="preserve" font-family="HelveticaNeue-Light" font-size="36.1" fill="#000000" transform="matrix(1.00, 0.00, -0.00, -1.00, 93.8, 688.0)">n</text><text xml:space="preserve" font-family="HelveticaNeue-Light" font-size="36.1" fill="#000000" transform="matrix(1.00, 0.00, -0.00, -1.00, 113.2, 688.0)">o</text><text xml:space="preserve" font-family="HelveticaNeue-Light" font-size="36.1" fill="#000000" transform="matrix(1.00, 0.00, -0.00, -1.00, 133.3, 688.0)">r</text><text xml:space="preserve" font-family="HelveticaNeue-Light" font-size="36.1" fill="#000000" transform="matrix(1.00, 0.00, -0.00, -1.00, 144.7, 688.0)"> </text><text xml:space="preserve" font-family="HelveticaNeue-Light" font-size="36.1" fill="#000000" transform="matrix(1.00, 0.00, -0.00, -1.00, 154.7, 688.0)">c</text><text xml:space="preserve" font-family="HelveticaNeue-Light" font-size="36.1" fill="#000000" transform="matrix(1.00, 0.00, -0.00, -1.00, 173.5, 688.0)">h</text><text xml:space="preserve" font-family="HelveticaNeue-Light" font-size="36.1" fill="#000000" transform="matrix(1.00, 0.00, -0.00, -1.00, 192.9, 688.0)">i</text><text xml:space="preserve" font-family="HelveticaNeue-Light" font-size="36.1" fill="#000000" transform="matrix(1.00, 0.00, -0.00, -1.00, 199.5, 688.0)">m</text><text xml:space="preserve" font-family="HelveticaNeue-Light" font-size="36.1" fill="#000000" transform="matrix(1.00, 0.00, -0.00, -1.00, 229.6, 688.0)">e</text><text xml:space="preserve" font-family="HelveticaNeue-Light" font-size="36.1" fill="#000000" transform="matrix(1.00, 0.00, -0.00, -1.00, 248.4, 688.0)">r</text><text xml:space="preserve" font-family="HelveticaNeue-Light" font-size="36.1" fill="#000000" transform="matrix(1.00, 0.00, -0.00, -1.00, 259.8, 688.0)">i</text><text xml:space="preserve" font-family="HelveticaNeue-Light" font-size="36.1" fill="#000000" transform="matrix(1.00, 0.00, -0.00, -1.00, 266.4, 688.0)">s</text><text xml:space="preserve" font-family="HelveticaNeue-Light" font-size="36.1" fill="#000000" transform="matrix(1.00, 0.00, -0.00, -1.00, 283.8, 688.0)">m</text><text xml:space="preserve" font-family="HelveticaNeue-Light" font-size="36.1" fill="#000000" transform="matrix(1.00, 0.00, -0.00, -1.00, 313.9, 688.0)"> </text><text xml:space="preserve" font-family="HelveticaNeue-Light" font-size="36.1" fill="#000000" transform="matrix(1.00, 0.00, -0.00, -1.00, 323.9, 688.0)">a</text><text xml:space="preserve" font-family="HelveticaNeue-Light" font-size="36.1" fill="#000000" transform="matrix(1.00, 0.00, -0.00, -1.00, 342.7, 688.0)">f</text><text xml:space="preserve" font-family="HelveticaNeue-Light" font-size="36.1" fill="#000000" transform="matrix(1.00, 0.00, -0.00, -1.00, 352.0, 688.0)">t</text><text xml:space="preserve" font-family="HelveticaNeue-Light" font-size="36.1" fill="#000000" transform="matrix(1.00, 0.00, -0.00, -1.00, 362.7, 688.0)">e</text><text xml:space="preserve" font-family="HelveticaNeue-Light" font-size="36.1" fill="#000000" transform="matrix(1.00, 0.00, -0.00, -1.00, 381.5, 688.0)">r</text><text xml:space="preserve" font-family="HelveticaNeue-Light" font-size="36.1" fill="#000000" transform="matrix(1.00, 0.00, -0.00, -1.00, 392.9, 688.0)"> </text><text xml:space="preserve" font-family="HelveticaNeue-Light" font-size="36.1" fill="#000000" transform="matrix(1.00, 0.00, -0.00, -1.00, 402.9, 688.0)">F</text><text xml:space="preserve" font-family="HelveticaNeue-Light" font-size="36.1" fill="#000000" transform="matrix(1.00, 0.00, -0.00, -1.00, 422.3, 688.0)">l</text><text xml:space="preserve" font-family="HelveticaNeue-Light" font-size="36.1" fill="#000000" transform="matrix(1.00, 0.00, -0.00, -1.00, 429.0, 688.0)">u</text><text xml:space="preserve" font-family="HelveticaNeue-Light" font-size="36.1" fill="#000000" transform="matrix(1.00, 0.00, -0.00, -1.00, 448.4, 688.0)">-</text><text xml:space="preserve" font-family="HelveticaNeue-Light" font-size="36.1" fill="#000000" transform="matrix(1.00, 0.00, -0.00, -1.00, 461.7, 688.0)">X</text><text xml:space="preserve" font-family="HelveticaNeue-Light" font-size="36.1" fill="#000000" transform="matrix(1.00, 0.00, -0.00, -1.00, 482.5, 688.0)">R</text><text xml:space="preserve" font-family="HelveticaNeue-Light" font-size="36.1" fill="#000000" transform="matrix(1.00, 0.00, -0.00, -1.00, 506.8, 688.0)">T</text><text xml:space="preserve" font-family="HelveticaNeue-Light" font-size="36.1" fill="#000000" transform="matrix(1.00, 0.00, -0.00, -1.00, 522.2, 688.0)">-</text><text xml:space="preserve" font-family="HelveticaNeue-Light" font-size="36.1" fill="#000000" transform="matrix(1.00, 0.00, -0.00, -1.00, 535.6, 688.0)">C</text><text xml:space="preserve" font-family="HelveticaNeue-Light" font-size="36.1" fill="#000000" transform="matrix(1.00, 0.00, -0.00, -1.00, 561.0, 688.0)">y</text><text xml:space="preserve" font-family="HelveticaNeue-Light" font-size="36.1" fill="#000000" transform="matrix(1.00, 0.00, -0.00, -1.00, 577.7, 688.0)"> </text><text xml:space="preserve" font-family="HelveticaNeue-Light" font-size="36.1" fill="#000000" transform="matrix(1.00, 0.00, -0.00, -1.00, 587.8, 688.0)">c</text><text xml:space="preserve" font-family="HelveticaNeue-Light" font-size="36.1" fill="#000000" transform="matrix(1.00, 0.00, -0.00, -1.00, 606.5, 688.0)">o</text><text xml:space="preserve" font-family="HelveticaNeue-Light" font-size="36.1" fill="#000000" transform="matrix(1.00, 0.00, -0.00, -1.00, 626.6, 688.0)">n</text><text xml:space="preserve" font-family="HelveticaNeue-Light" font-size="36.1" fill="#000000" transform="matrix(1.00, 0.00, -0.00, -1.00, 646.0, 688.0)">d</text><text xml:space="preserve" font-family="HelveticaNeue-Light" font-size="36.1" fill="#000000" transform="matrix(1.00, 0.00, -0.00, -1.00, 666.7, 688.0)">i</text><text xml:space="preserve" font-family="HelveticaNeue-Light" font-size="36.1" fill="#000000" transform="matrix(1.00, 0.00, -0.00, -1.00, 673.4, 688.0)">t</text><text xml:space="preserve" font-family="HelveticaNeue-Light" font-size="36.1" fill="#000000" transform="matrix(1.00, 0.00, -0.00, -1.00, 684.1, 688.0)">i</text><text xml:space="preserve" font-family="HelveticaNeue-Light" font-size="36.1" fill="#000000" transform="matrix(1.00, 0.00, -0.00, -1.00, 690.8, 688.0)">o</text><text xml:space="preserve" font-family="HelveticaNeue-Light" font-size="36.1" fill="#000000" transform="matrix(1.00, 0.00, -0.00, -1.00, 710.9, 688.0)">n</text><text xml:space="preserve" font-family="HelveticaNeue-Light" font-size="36.1" fill="#000000" transform="matrix(1.00, 0.00, -0.00, -1.00, 730.3, 688.0)">i</text><text xml:space="preserve" font-family="HelveticaNeue-Light" font-size="36.1" fill="#000000" transform="matrix(1.00, 0.00, -0.00, -1.00, 736.9, 688.0)">n</text><text xml:space="preserve" font-family="HelveticaNeue-Light" font-size="36.1" fill="#000000" transform="matrix(1.00, 0.00, -0.00, -1.00, 756.3, 688.0)">g</text><text xml:space="preserve" font-family="HelveticaNeue-Light" font-size="36.1" fill="#000000" transform="matrix(1.00, 0.00, -0.00, -1.00, 776.4, 688.0)"> </text><text xml:space="preserve" font-family="HelveticaNeue-Light" font-size="36.1" fill="#000000" transform="matrix(1.00, 0.00, -0.00, -1.00, 786.5, 688.0)">w</text><text xml:space="preserve" font-family="HelveticaNeue-Light" font-size="36.1" fill="#000000" transform="matrix(1.00, 0.00, -0.00, -1.00, 813.2, 688.0)">a</text><text xml:space="preserve" font-family="HelveticaNeue-Light" font-size="36.1" fill="#000000" transform="matrix(1.00, 0.00, -0.00, -1.00, 832.0, 688.0)">s</text><text xml:space="preserve" font-family="HelveticaNeue-Light" font-size="36.1" fill="#000000" transform="matrix(1.00, 0.00, -0.00, -1.00, 849.3, 688.0)"> </text><text xml:space="preserve" font-family="HelveticaNeue-Light" font-size="36.1" fill="#000000" transform="matrix(1.00, 0.00, -0.00, -1.00, 49.0, 644.0)">p</text><text xml:space="preserve" font-family="HelveticaNeue-Light" font-size="36.1" fill="#000000" transform="matrix(1.00, 0.00, -0.00, -1.00, 69.7, 644.0)">r</text><text xml:space="preserve" font-family="HelveticaNeue-Light" font-size="36.1" fill="#000000" transform="matrix(1.00, 0.00, -0.00, -1.00, 80.5, 644.0)">o</text><text xml:space="preserve" font-family="HelveticaNeue-Light" font-size="36.1" fill="#000000" transform="matrix(1.00, 0.00, -0.00, -1.00, 100.5, 644.0)">p</text><text xml:space="preserve" font-family="HelveticaNeue-Light" font-size="36.1" fill="#000000" transform="matrix(1.00, 0.00, -0.00, -1.00, 121.3, 644.0)">o</text><text xml:space="preserve" font-family="HelveticaNeue-Light" font-size="36.1" fill="#000000" transform="matrix(1.00, 0.00, -0.00, -1.00, 141.4, 644.0)">r</text><text xml:space="preserve" font-family="HelveticaNeue-Light" font-size="36.1" fill="#000000" transform="matrix(1.00, 0.00, -0.00, -1.00, 152.7, 644.0)">t</text><text xml:space="preserve" font-family="HelveticaNeue-Light" font-size="36.1" fill="#000000" transform="matrix(1.00, 0.00, -0.00, -1.00, 163.4, 644.0)">i</text><text xml:space="preserve" font-family="HelveticaNeue-Light" font-size="36.1" fill="#000000" transform="matrix(1.00, 0.00, -0.00, -1.00, 170.1, 644.0)">o</text><text xml:space="preserve" font-family="HelveticaNeue-Light" font-size="36.1" fill="#000000" transform="matrix(1.00, 0.00, -0.00, -1.00, 190.2, 644.0)">n</text><text xml:space="preserve" font-family="HelveticaNeue-Light" font-size="36.1" fill="#000000" transform="matrix(1.00, 0.00, -0.00, -1.00, 209.6, 644.0)">a</text><text xml:space="preserve" font-family="HelveticaNeue-Light" font-size="36.1" fill="#000000" transform="matrix(1.00, 0.00, -0.00, -1.00, 228.3, 644.0)">l</text><text xml:space="preserve" font-family="HelveticaNeue-Light" font-size="36.1" fill="#000000" transform="matrix(1.00, 0.00, -0.00, -1.00, 235.0, 644.0)"> </text><text xml:space="preserve" font-family="HelveticaNeue-Light" font-size="36.1" fill="#000000" transform="matrix(1.00, 0.00, -0.00, -1.00, 245.1, 644.0)">t</text><text xml:space="preserve" font-family="HelveticaNeue-Light" font-size="36.1" fill="#000000" transform="matrix(1.00, 0.00, -0.00, -1.00, 255.8, 644.0)">o</text><text xml:space="preserve" font-family="HelveticaNeue-Light" font-size="36.1" fill="#000000" transform="matrix(1.00, 0.00, -0.00, -1.00, 275.8, 644.0)"> </text><text xml:space="preserve" font-family="HelveticaNeue-Light" font-size="36.1" fill="#000000" transform="matrix(1.00, 0.00, -0.00, -1.00, 285.9, 644.0)">t</text><text xml:space="preserve" font-family="HelveticaNeue-Light" font-size="36.1" fill="#000000" transform="matrix(1.00, 0.00, -0.00, -1.00, 296.6, 644.0)">h</text><text xml:space="preserve" font-family="HelveticaNeue-Light" font-size="36.1" fill="#000000" transform="matrix(1.00, 0.00, -0.00, -1.00, 316.0, 644.0)">e</text><text xml:space="preserve" font-family="HelveticaNeue-Light" font-size="36.1" fill="#000000" transform="matrix(1.00, 0.00, -0.00, -1.00, 334.7, 644.0)"> </text><text xml:space="preserve" font-family="HelveticaNeue-Light" font-size="36.1" fill="#000000" transform="matrix(1.00, 0.00, -0.00, -1.00, 344.8, 644.0)">d</text><text xml:space="preserve" font-family="HelveticaNeue-Light" font-size="36.1" fill="#000000" transform="matrix(1.00, 0.00, -0.00, -1.00, 365.5, 644.0)">o</text><text xml:space="preserve" font-family="HelveticaNeue-Light" font-size="36.1" fill="#000000" transform="matrix(1.00, 0.00, -0.00, -1.00, 385.6, 644.0)">s</text><text xml:space="preserve" font-family="HelveticaNeue-Light" font-size="36.1" fill="#000000" transform="matrix(1.00, 0.00, -0.00, -1.00, 402.9, 644.0)">e</text><text xml:space="preserve" font-family="HelveticaNeue-Light" font-size="36.1" fill="#000000" transform="matrix(1.00, 0.00, -0.00, -1.00, 421.7, 644.0)"> </text><text xml:space="preserve" font-family="HelveticaNeue-Light" font-size="36.1" fill="#000000" transform="matrix(1.00, 0.00, -0.00, -1.00, 431.7, 644.0)">o</text><text xml:space="preserve" font-family="HelveticaNeue-Light" font-size="36.1" fill="#000000" transform="matrix(1.00, 0.00, -0.00, -1.00, 451.8, 644.0)">f</text><text xml:space="preserve" font-family="HelveticaNeue-Light" font-size="36.1" fill="#000000" transform="matrix(1.00, 0.00, -0.00, -1.00, 461.2, 644.0)"> </text><text xml:space="preserve" font-family="HelveticaNeue-Light" font-size="36.1" fill="#000000" transform="matrix(1.00, 0.00, -0.00, -1.00, 471.2, 644.0)">t</text><text xml:space="preserve" font-family="HelveticaNeue-Light" font-size="36.1" fill="#000000" transform="matrix(1.00, 0.00, -0.00, -1.00, 481.9, 644.0)">r</text><text xml:space="preserve" font-family="HelveticaNeue-Light" font-size="36.1" fill="#000000" transform="matrix(1.00, 0.00, -0.00, -1.00, 493.3, 644.0)">a</text><text xml:space="preserve" font-family="HelveticaNeue-Light" font-size="36.1" fill="#000000" transform="matrix(1.00, 0.00, -0.00, -1.00, 512.0, 644.0)">n</text><text xml:space="preserve" font-family="HelveticaNeue-Light" font-size="36.1" fill="#000000" transform="matrix(1.00, 0.00, -0.00, -1.00, 531.4, 644.0)">s</text><text xml:space="preserve" font-family="HelveticaNeue-Light" font-size="36.1" fill="#000000" transform="matrix(1.00, 0.00, -0.00, -1.00, 548.8, 644.0)">p</text><text xml:space="preserve" font-family="HelveticaNeue-Light" font-size="36.1" fill="#000000" transform="matrix(1.00, 0.00, -0.00, -1.00, 569.5, 644.0)">l</text><text xml:space="preserve" font-family="HelveticaNeue-Light" font-size="36.1" fill="#000000" transform="matrix(1.00, 0.00, -0.00, -1.00, 576.2, 644.0)">a</text><text xml:space="preserve" font-family="HelveticaNeue-Light" font-size="36.1" fill="#000000" transform="matrix(1.00, 0.00, -0.00, -1.00, 595.0, 644.0)">n</text><text xml:space="preserve" font-family="HelveticaNeue-Light" font-size="36.1" fill="#000000" transform="matrix(1.00, 0.00, -0.00, -1.00, 614.4, 644.0)">t</text><text xml:space="preserve" font-family="HelveticaNeue-Light" font-size="36.1" fill="#000000" transform="matrix(1.00, 0.00, -0.00, -1.00, 625.0, 644.0)">e</text><text xml:space="preserve" font-family="HelveticaNeue-Light" font-size="36.1" fill="#000000" transform="matrix(1.00, 0.00, -0.00, -1.00, 643.8, 644.0)">d</text><text xml:space="preserve" font-family="HelveticaNeue-Light" font-size="36.1" fill="#000000" transform="matrix(1.00, 0.00, -0.00, -1.00, 664.5, 644.0)"> </text><text xml:space="preserve" font-family="HelveticaNeue-Light" font-size="36.1" fill="#000000" transform="matrix(1.00, 0.00, -0.00, -1.00, 674.6, 644.0)">m</text><text xml:space="preserve" font-family="HelveticaNeue-Light" font-size="36.1" fill="#000000" transform="matrix(1.00, 0.00, -0.00, -1.00, 704.7, 644.0)">a</text><text xml:space="preserve" font-family="HelveticaNeue-Light" font-size="36.1" fill="#000000" transform="matrix(1.00, 0.00, -0.00, -1.00, 723.4, 644.0)">r</text><text xml:space="preserve" font-family="HelveticaNeue-Light" font-size="36.1" fill="#000000" transform="matrix(1.00, 0.00, -0.00, -1.00, 734.8, 644.0)">r</text><text xml:space="preserve" font-family="HelveticaNeue-Light" font-size="36.1" fill="#000000" transform="matrix(1.00, 0.00, -0.00, -1.00, 745.5, 644.0)">o</text><text xml:space="preserve" font-family="HelveticaNeue-Light" font-size="36.1" fill="#000000" transform="matrix(1.00, 0.00, -0.00, -1.00, 765.6, 644.0)">w</text><text xml:space="preserve" font-family="HelveticaNeue-Light" font-size="36.1" fill="#000000" transform="matrix(1.00, 0.00, -0.00, -1.00, 792.3, 644.0)"> </text><text xml:space="preserve" font-family="HelveticaNeue-Light" font-size="36.1" fill="#000000" transform="matrix(1.00, 0.00, -0.00, -1.00, 802.4, 644.0)">c</text><text xml:space="preserve" font-family="HelveticaNeue-Light" font-size="36.1" fill="#000000" transform="matrix(1.00, 0.00, -0.00, -1.00, 821.1, 644.0)">e</text><text xml:space="preserve" font-family="HelveticaNeue-Light" font-size="36.1" fill="#000000" transform="matrix(1.00, 0.00, -0.00, -1.00, 839.9, 644.0)">l</text><text xml:space="preserve" font-family="HelveticaNeue-Light" font-size="36.1" fill="#000000" transform="matrix(1.00, 0.00, -0.00, -1.00, 846.6, 644.0)">l</text><text xml:space="preserve" font-family="HelveticaNeue-Light" font-size="36.1" fill="#000000" transform="matrix(1.00, 0.00, -0.00, -1.00, 853.2, 644.0)">s</text><text xml:space="preserve" font-family="HelveticaNeue-Light" font-size="36.1" fill="#000000" transform="matrix(1.00, 0.00, -0.00, -1.00, 870.6, 644.0)"> </text><text xml:space="preserve" font-family="HelveticaNeue-Light" font-size="36.1" fill="#000000" transform="matrix(1.00, 0.00, -0.00, -1.00, 880.7, 644.0)">o</text><text xml:space="preserve" font-family="HelveticaNeue-Light" font-size="36.1" fill="#000000" transform="matrix(1.00, 0.00, -0.00, -1.00, 900.7, 644.0)">r</text><text xml:space="preserve" font-family="HelveticaNeue-Light" font-size="36.1" fill="#000000" transform="matrix(1.00, 0.00, -0.00, -1.00, 912.1, 644.0)"> </text><text xml:space="preserve" font-family="HelveticaNeue-Light" font-size="36.1" fill="#000000" transform="matrix(1.00, 0.00, -0.00, -1.00, 922.2, 644.0)">T</text><text xml:space="preserve" font-family="HelveticaNeue-Light" font-size="36.1" fill="#000000" transform="matrix(1.00, 0.00, -0.00, -1.00, 942.2, 644.0)">B</text><text xml:space="preserve" font-family="HelveticaNeue-Light" font-size="36.1" fill="#000000" transform="matrix(1.00, 0.00, -0.00, -1.00, 966.3, 644.0)">I</text><g><clipPath id="clip-313"><path d="M 0.0 -3.0 L 1024.0 -3.0 L 1024.0 32.0 L 0.0 32.0 Z M 0.0 -3.0 "></path></clipPath><g clip-path="url(#clip-313)"><image xlink:href="../../7DADF203-883D-48A2-9CE7-D05C13A32AE8/assets/13517D532614FE47B4EEB7D34090B065.png" width="2432.00" height="82.00" transform="matrix(0.42, 0.00, -0.00, -0.43, 0.0, 32.0)"></image></g></g><g><clipPath id="clip-314"><path d="M 43.0 511.0 L 488.0 511.0 L 488.0 153.0 L 43.0 153.0 Z M 43.2 511.2 "></path></clipPath><g clip-path="url(#clip-314)"><g><clipPath id="clip-315"><path d="M -100.0 -490.0 L 632.0 -490.0 L 632.0 535.0 L -100.0 535.0 Z M -100.0 -490.0 "></path></clipPath><g clip-path="url(#clip-315)"><image xlink:href="67B45971904324B38C293C046FAB194D.png" width="982.00" height="1374.00" transform="matrix(0.75, 0.00, -0.00, -0.75, -100.0, 535.0)"></image></g></g></g></g><g><clipPath id="clip-316"><path d="M 536.0 511.0 L 981.0 511.0 L 981.0 153.0 L 536.0 153.0 Z M 535.6 511.2 "></path></clipPath><g clip-path="url(#clip-316)"><g><clipPath id="clip-317"><path d="M 392.0 -116.0 L 1124.0 -116.0 L 1124.0 909.0 L 392.0 909.0 Z M 392.0 -116.0 "></path></clipPath><g clip-path="url(#clip-317)"><image xlink:href="../../32A8D44B-6944-4CC8-9C83-BE172823B1AC/assets/67B45971904324B38C293C046FAB194D.png" width="982.00" height="1374.00" transform="matrix(0.75, 0.00, -0.00, -0.75, 392.0, 909.0)"></image></g></g></g></g><g><clipPath id="clip-318"><path d="M 1.0 33.0 L 621.0 33.0 L 621.0 1.0 L 1.0 1.0 Z M 1.3 32.5 "></path></clipPath><g clip-path="url(#clip-318)"><g><clipPath id="clip-319"><path d="M 1.0 -7.0 L 1025.0 -7.0 L 1025.0 156.0 L 1.0 156.0 Z M 1.0 -7.0 "></path></clipPath><g clip-path="url(#clip-319)"><image xlink:href="../../7DADF203-883D-48A2-9CE7-D05C13A32AE8/assets/D4B75FC0E8ED425EAB0316F8DF7E9B2A.png" width="2438.00" height="388.00" transform="matrix(0.42, 0.00, -0.00, -0.42, 1.0, 156.0)"></image></g></g></g></g></g></svg>