<?xml version="1.0" encoding="UTF-8" standalone="no"?><svg xmlns="http://www.w3.org/2000/svg" xmlns:xlink="http://www.w3.org/1999/xlink" clip-rule="evenodd" stroke-miterlimit="4.00" viewBox="0 0 917 41"><desc>SVG generated by Keynote</desc><defs></defs><g transform="matrix(1.00, 0.00, -0.00, -1.00, 0.0, 41.0)"><text xml:space="preserve" font-family="HelveticaNeue-Light" font-size="41.2" fill="#000000" transform="matrix(1.00, 0.00, -0.00, -1.00, -1.0, 10.0)">P</text><text xml:space="preserve" font-family="HelveticaNeue-Light" font-size="41.2" fill="#000000" transform="matrix(1.00, 0.00, -0.00, -1.00, 24.9, 10.0)">o</text><text xml:space="preserve" font-family="HelveticaNeue-Light" font-size="41.2" fill="#000000" transform="matrix(1.00, 0.00, -0.00, -1.00, 47.8, 10.0)">s</text><text xml:space="preserve" font-family="HelveticaNeue-Light" font-size="41.2" fill="#000000" transform="matrix(1.00, 0.00, -0.00, -1.00, 67.6, 10.0)">t</text><text xml:space="preserve" font-family="HelveticaNeue-Light" font-size="41.2" fill="#000000" transform="matrix(1.00, 0.00, -0.00, -1.00, 79.8, 10.0)">-</text><text xml:space="preserve" font-family="HelveticaNeue-Light" font-size="41.2" fill="#000000" transform="matrix(1.00, 0.00, -0.00, -1.00, 95.0, 10.0)">t</text><text xml:space="preserve" font-family="HelveticaNeue-Light" font-size="41.2" fill="#000000" transform="matrix(1.00, 0.00, -0.00, -1.00, 107.2, 10.0)">r</text><text xml:space="preserve" font-family="HelveticaNeue-Light" font-size="41.2" fill="#000000" transform="matrix(1.00, 0.00, -0.00, -1.00, 120.2, 10.0)">a</text><text xml:space="preserve" font-family="HelveticaNeue-Light" font-size="41.2" fill="#000000" transform="matrix(1.00, 0.00, -0.00, -1.00, 141.5, 10.0)">n</text><text xml:space="preserve" font-family="HelveticaNeue-Light" font-size="41.2" fill="#000000" transform="matrix(1.00, 0.00, -0.00, -1.00, 163.6, 10.0)">s</text><text xml:space="preserve" font-family="HelveticaNeue-Light" font-size="41.2" fill="#000000" transform="matrix(1.00, 0.00, -0.00, -1.00, 183.4, 10.0)">p</text><text xml:space="preserve" font-family="HelveticaNeue-Light" font-size="41.2" fill="#000000" transform="matrix(1.00, 0.00, -0.00, -1.00, 207.1, 10.0)">l</text><text xml:space="preserve" font-family="HelveticaNeue-Light" font-size="41.2" fill="#000000" transform="matrix(1.00, 0.00, -0.00, -1.00, 214.7, 10.0)">a</text><text xml:space="preserve" font-family="HelveticaNeue-Light" font-size="41.2" fill="#000000" transform="matrix(1.00, 0.00, -0.00, -1.00, 236.0, 10.0)">n</text><text xml:space="preserve" font-family="HelveticaNeue-Light" font-size="41.2" fill="#000000" transform="matrix(1.00, 0.00, -0.00, -1.00, 258.1, 10.0)">t</text><text xml:space="preserve" font-family="HelveticaNeue-Light" font-size="41.2" fill="#000000" transform="matrix(1.00, 0.00, -0.00, -1.00, 270.3, 10.0)">a</text><text xml:space="preserve" font-family="HelveticaNeue-Light" font-size="41.2" fill="#000000" transform="matrix(1.00, 0.00, -0.00, -1.00, 291.7, 10.0)">t</text><text xml:space="preserve" font-family="HelveticaNeue-Light" font-size="41.2" fill="#000000" transform="matrix(1.00, 0.00, -0.00, -1.00, 303.9, 10.0)">i</text><text xml:space="preserve" font-family="HelveticaNeue-Light" font-size="41.2" fill="#000000" transform="matrix(1.00, 0.00, -0.00, -1.00, 311.5, 10.0)">o</text><text xml:space="preserve" font-family="HelveticaNeue-Light" font-size="41.2" fill="#000000" transform="matrix(1.00, 0.00, -0.00, -1.00, 334.4, 10.0)">n</text><text xml:space="preserve" font-family="HelveticaNeue-Light" font-size="41.2" fill="#000000" transform="matrix(1.00, 0.00, -0.00, -1.00, 356.5, 10.0)"> </text><text xml:space="preserve" font-family="HelveticaNeue-Light" font-size="41.2" fill="#000000" transform="matrix(1.00, 0.00, -0.00, -1.00, 367.9, 10.0)">C</text><text xml:space="preserve" font-family="HelveticaNeue-Light" font-size="41.2" fill="#000000" transform="matrix(1.00, 0.00, -0.00, -1.00, 396.9, 10.0)">y</text><text xml:space="preserve" font-family="HelveticaNeue-Light" font-size="41.2" fill="#000000" transform="matrix(1.00, 0.00, -0.00, -1.00, 416.0, 10.0)"> </text><text xml:space="preserve" font-family="HelveticaNeue-Light" font-size="41.2" fill="#000000" transform="matrix(1.00, 0.00, -0.00, -1.00, 427.4, 10.0)">a</text><text xml:space="preserve" font-family="HelveticaNeue-Light" font-size="41.2" fill="#000000" transform="matrix(1.00, 0.00, -0.00, -1.00, 448.8, 10.0)">s</text><text xml:space="preserve" font-family="HelveticaNeue-Light" font-size="41.2" fill="#000000" transform="matrix(1.00, 0.00, -0.00, -1.00, 468.6, 10.0)">s</text><text xml:space="preserve" font-family="HelveticaNeue-Light" font-size="41.2" fill="#000000" transform="matrix(1.00, 0.00, -0.00, -1.00, 488.4, 10.0)">o</text><text xml:space="preserve" font-family="HelveticaNeue-Light" font-size="41.2" fill="#000000" transform="matrix(1.00, 0.00, -0.00, -1.00, 511.2, 10.0)">c</text><text xml:space="preserve" font-family="HelveticaNeue-Light" font-size="41.2" fill="#000000" transform="matrix(1.00, 0.00, -0.00, -1.00, 532.6, 10.0)">i</text><text xml:space="preserve" font-family="HelveticaNeue-Light" font-size="41.2" fill="#000000" transform="matrix(1.00, 0.00, -0.00, -1.00, 540.2, 10.0)">a</text><text xml:space="preserve" font-family="HelveticaNeue-Light" font-size="41.2" fill="#000000" transform="matrix(1.00, 0.00, -0.00, -1.00, 561.6, 10.0)">t</text><text xml:space="preserve" font-family="HelveticaNeue-Light" font-size="41.2" fill="#000000" transform="matrix(1.00, 0.00, -0.00, -1.00, 573.8, 10.0)">e</text><text xml:space="preserve" font-family="HelveticaNeue-Light" font-size="41.2" fill="#000000" transform="matrix(1.00, 0.00, -0.00, -1.00, 595.1, 10.0)">d</text><text xml:space="preserve" font-family="HelveticaNeue-Light" font-size="41.2" fill="#000000" transform="matrix(1.00, 0.00, -0.00, -1.00, 618.7, 10.0)"> </text><text xml:space="preserve" font-family="HelveticaNeue-Light" font-size="41.2" fill="#000000" transform="matrix(1.00, 0.00, -0.00, -1.00, 630.2, 10.0)">w</text><text xml:space="preserve" font-family="HelveticaNeue-Light" font-size="41.2" fill="#000000" transform="matrix(1.00, 0.00, -0.00, -1.00, 660.7, 10.0)">i</text><text xml:space="preserve" font-family="HelveticaNeue-Light" font-size="41.2" fill="#000000" transform="matrix(1.00, 0.00, -0.00, -1.00, 668.3, 10.0)">t</text><text xml:space="preserve" font-family="HelveticaNeue-Light" font-size="41.2" fill="#000000" transform="matrix(1.00, 0.00, -0.00, -1.00, 680.5, 10.0)">h</text><text xml:space="preserve" font-family="HelveticaNeue-Light" font-size="41.2" fill="#000000" transform="matrix(1.00, 0.00, -0.00, -1.00, 702.6, 10.0)"> </text><text xml:space="preserve" font-family="HelveticaNeue-Light" font-size="41.2" fill="#000000" transform="matrix(1.00, 0.00, -0.00, -1.00, 714.0, 10.0)">s</text><text xml:space="preserve" font-family="HelveticaNeue-Light" font-size="41.2" fill="#000000" transform="matrix(1.00, 0.00, -0.00, -1.00, 733.8, 10.0)">i</text><text xml:space="preserve" font-family="HelveticaNeue-Light" font-size="41.2" fill="#000000" transform="matrix(1.00, 0.00, -0.00, -1.00, 741.4, 10.0)">g</text><text xml:space="preserve" font-family="HelveticaNeue-Light" font-size="41.2" fill="#000000" transform="matrix(1.00, 0.00, -0.00, -1.00, 764.3, 10.0)">n</text><text xml:space="preserve" font-family="HelveticaNeue-Light" font-size="41.2" fill="#000000" transform="matrix(1.00, 0.00, -0.00, -1.00, 786.4, 10.0)">i</text><text xml:space="preserve" font-family="HelveticaNeue-Light" font-size="41.2" fill="#000000" transform="matrix(1.00, 0.00, -0.00, -1.00, 794.0, 10.0)">ï¬</text><text xml:space="preserve" font-family="HelveticaNeue-Light" font-size="41.2" fill="#000000" transform="matrix(1.00, 0.00, -0.00, -1.00, 812.3, 10.0)">c</text><text xml:space="preserve" font-family="HelveticaNeue-Light" font-size="41.2" fill="#000000" transform="matrix(1.00, 0.00, -0.00, -1.00, 833.7, 10.0)">a</text><text xml:space="preserve" font-family="HelveticaNeue-Light" font-size="41.2" fill="#000000" transform="matrix(1.00, 0.00, -0.00, -1.00, 855.0, 10.0)">n</text><text xml:space="preserve" font-family="HelveticaNeue-Light" font-size="41.2" fill="#000000" transform="matrix(1.00, 0.00, -0.00, -1.00, 877.1, 10.0)">t</text><text xml:space="preserve" font-family="HelveticaNeue-Light" font-size="41.2" fill="#000000" transform="matrix(1.00, 0.00, -0.00, -1.00, 889.3, 10.0)">l</text><text xml:space="preserve" font-family="HelveticaNeue-Light" font-size="41.2" fill="#000000" transform="matrix(1.00, 0.00, -0.00, -1.00, 896.9, 10.0)">y</text></g></svg>