<?xml version="1.0" encoding="UTF-8" standalone="no"?><svg xmlns="http://www.w3.org/2000/svg" xmlns:xlink="http://www.w3.org/1999/xlink" clip-rule="evenodd" stroke-miterlimit="4.00" viewBox="0 0 885 40"><desc>SVG generated by Keynote</desc><defs></defs><g transform="matrix(1.00, 0.00, -0.00, -1.00, 0.0, 40.0)"><text xml:space="preserve" font-family="HelveticaNeue-Light" font-size="41.2" fill="#000000" transform="matrix(1.00, 0.00, -0.00, -1.00, -1.0, 9.0)">l</text><text xml:space="preserve" font-family="HelveticaNeue-Light" font-size="41.2" fill="#000000" transform="matrix(1.00, 0.00, -0.00, -1.00, 6.6, 9.0)">o</text><text xml:space="preserve" font-family="HelveticaNeue-Light" font-size="41.2" fill="#000000" transform="matrix(1.00, 0.00, -0.00, -1.00, 29.5, 9.0)">w</text><text xml:space="preserve" font-family="HelveticaNeue-Light" font-size="41.2" fill="#000000" transform="matrix(1.00, 0.00, -0.00, -1.00, 60.0, 9.0)">e</text><text xml:space="preserve" font-family="HelveticaNeue-Light" font-size="41.2" fill="#000000" transform="matrix(1.00, 0.00, -0.00, -1.00, 81.4, 9.0)">r</text><text xml:space="preserve" font-family="HelveticaNeue-Light" font-size="41.2" fill="#000000" transform="matrix(1.00, 0.00, -0.00, -1.00, 94.3, 9.0)"> </text><text xml:space="preserve" font-family="HelveticaNeue-Light" font-size="41.2" fill="#000000" transform="matrix(1.00, 0.00, -0.00, -1.00, 105.8, 9.0)">l</text><text xml:space="preserve" font-family="HelveticaNeue-Light" font-size="41.2" fill="#000000" transform="matrix(1.00, 0.00, -0.00, -1.00, 113.4, 9.0)">e</text><text xml:space="preserve" font-family="HelveticaNeue-Light" font-size="41.2" fill="#000000" transform="matrix(1.00, 0.00, -0.00, -1.00, 134.7, 9.0)">v</text><text xml:space="preserve" font-family="HelveticaNeue-Light" font-size="41.2" fill="#000000" transform="matrix(1.00, 0.00, -0.00, -1.00, 153.8, 9.0)">e</text><text xml:space="preserve" font-family="HelveticaNeue-Light" font-size="41.2" fill="#000000" transform="matrix(1.00, 0.00, -0.00, -1.00, 175.2, 9.0)">l</text><text xml:space="preserve" font-family="HelveticaNeue-Light" font-size="41.2" fill="#000000" transform="matrix(1.00, 0.00, -0.00, -1.00, 182.8, 9.0)">s</text><text xml:space="preserve" font-family="HelveticaNeue-Light" font-size="41.2" fill="#000000" transform="matrix(1.00, 0.00, -0.00, -1.00, 202.6, 9.0)"> </text><text xml:space="preserve" font-family="HelveticaNeue-Light" font-size="41.2" fill="#000000" transform="matrix(1.00, 0.00, -0.00, -1.00, 214.0, 9.0)">o</text><text xml:space="preserve" font-family="HelveticaNeue-Light" font-size="41.2" fill="#000000" transform="matrix(1.00, 0.00, -0.00, -1.00, 236.9, 9.0)">f</text><text xml:space="preserve" font-family="HelveticaNeue-Light" font-size="41.2" fill="#000000" transform="matrix(1.00, 0.00, -0.00, -1.00, 247.6, 9.0)"> </text><text xml:space="preserve" font-family="HelveticaNeue-Light" font-size="41.2" fill="#000000" transform="matrix(1.00, 0.00, -0.00, -1.00, 259.0, 9.0)">d</text><text xml:space="preserve" font-family="HelveticaNeue-Light" font-size="41.2" fill="#000000" transform="matrix(1.00, 0.00, -0.00, -1.00, 282.6, 9.0)">o</text><text xml:space="preserve" font-family="HelveticaNeue-Light" font-size="41.2" fill="#000000" transform="matrix(1.00, 0.00, -0.00, -1.00, 305.5, 9.0)">n</text><text xml:space="preserve" font-family="HelveticaNeue-Light" font-size="41.2" fill="#000000" transform="matrix(1.00, 0.00, -0.00, -1.00, 327.6, 9.0)">o</text><text xml:space="preserve" font-family="HelveticaNeue-Light" font-size="41.2" fill="#000000" transform="matrix(1.00, 0.00, -0.00, -1.00, 350.5, 9.0)">r</text><text xml:space="preserve" font-family="HelveticaNeue-Light" font-size="41.2" fill="#000000" transform="matrix(1.00, 0.00, -0.00, -1.00, 363.5, 9.0)"> </text><text xml:space="preserve" font-family="HelveticaNeue-Light" font-size="41.2" fill="#000000" transform="matrix(1.00, 0.00, -0.00, -1.00, 374.9, 9.0)">T</text><text xml:space="preserve" font-family="HelveticaNeue-Light" font-size="41.2" fill="#000000" transform="matrix(1.00, 0.00, -0.00, -1.00, 397.8, 9.0)"> </text><text xml:space="preserve" font-family="HelveticaNeue-Light" font-size="41.2" fill="#000000" transform="matrix(1.00, 0.00, -0.00, -1.00, 409.2, 9.0)">c</text><text xml:space="preserve" font-family="HelveticaNeue-Light" font-size="41.2" fill="#000000" transform="matrix(1.00, 0.00, -0.00, -1.00, 430.6, 9.0)">e</text><text xml:space="preserve" font-family="HelveticaNeue-Light" font-size="41.2" fill="#000000" transform="matrix(1.00, 0.00, -0.00, -1.00, 452.0, 9.0)">l</text><text xml:space="preserve" font-family="HelveticaNeue-Light" font-size="41.2" fill="#000000" transform="matrix(1.00, 0.00, -0.00, -1.00, 459.6, 9.0)">l</text><text xml:space="preserve" font-family="HelveticaNeue-Light" font-size="41.2" fill="#000000" transform="matrix(1.00, 0.00, -0.00, -1.00, 467.2, 9.0)"> </text><text xml:space="preserve" font-family="HelveticaNeue-Light" font-size="41.2" fill="#000000" transform="matrix(1.00, 0.00, -0.00, -1.00, 478.6, 9.0)">a</text><text xml:space="preserve" font-family="HelveticaNeue-Light" font-size="41.2" fill="#000000" transform="matrix(1.00, 0.00, -0.00, -1.00, 500.0, 9.0)">n</text><text xml:space="preserve" font-family="HelveticaNeue-Light" font-size="41.2" fill="#000000" transform="matrix(1.00, 0.00, -0.00, -1.00, 522.1, 9.0)">d</text><text xml:space="preserve" font-family="HelveticaNeue-Light" font-size="41.2" fill="#000000" transform="matrix(1.00, 0.00, -0.00, -1.00, 545.7, 9.0)"> </text><text xml:space="preserve" font-family="HelveticaNeue-Light" font-size="41.2" fill="#000000" transform="matrix(1.00, 0.00, -0.00, -1.00, 557.2, 9.0)">m</text><text xml:space="preserve" font-family="HelveticaNeue-Light" font-size="41.2" fill="#000000" transform="matrix(1.00, 0.00, -0.00, -1.00, 591.5, 9.0)">y</text><text xml:space="preserve" font-family="HelveticaNeue-Light" font-size="41.2" fill="#000000" transform="matrix(1.00, 0.00, -0.00, -1.00, 610.5, 9.0)">e</text><text xml:space="preserve" font-family="HelveticaNeue-Light" font-size="41.2" fill="#000000" transform="matrix(1.00, 0.00, -0.00, -1.00, 631.9, 9.0)">l</text><text xml:space="preserve" font-family="HelveticaNeue-Light" font-size="41.2" fill="#000000" transform="matrix(1.00, 0.00, -0.00, -1.00, 639.5, 9.0)">o</text><text xml:space="preserve" font-family="HelveticaNeue-Light" font-size="41.2" fill="#000000" transform="matrix(1.00, 0.00, -0.00, -1.00, 662.4, 9.0)">i</text><text xml:space="preserve" font-family="HelveticaNeue-Light" font-size="41.2" fill="#000000" transform="matrix(1.00, 0.00, -0.00, -1.00, 670.0, 9.0)">d</text><text xml:space="preserve" font-family="HelveticaNeue-Light" font-size="41.2" fill="#000000" transform="matrix(1.00, 0.00, -0.00, -1.00, 693.6, 9.0)"> </text><text xml:space="preserve" font-family="HelveticaNeue-Light" font-size="41.2" fill="#000000" transform="matrix(1.00, 0.00, -0.00, -1.00, 705.1, 9.0)">c</text><text xml:space="preserve" font-family="HelveticaNeue-Light" font-size="41.2" fill="#000000" transform="matrix(1.00, 0.00, -0.00, -1.00, 726.4, 9.0)">h</text><text xml:space="preserve" font-family="HelveticaNeue-Light" font-size="41.2" fill="#000000" transform="matrix(1.00, 0.00, -0.00, -1.00, 748.5, 9.0)">i</text><text xml:space="preserve" font-family="HelveticaNeue-Light" font-size="41.2" fill="#000000" transform="matrix(1.00, 0.00, -0.00, -1.00, 756.1, 9.0)">m</text><text xml:space="preserve" font-family="HelveticaNeue-Light" font-size="41.2" fill="#000000" transform="matrix(1.00, 0.00, -0.00, -1.00, 790.4, 9.0)">e</text><text xml:space="preserve" font-family="HelveticaNeue-Light" font-size="41.2" fill="#000000" transform="matrix(1.00, 0.00, -0.00, -1.00, 811.8, 9.0)">r</text><text xml:space="preserve" font-family="HelveticaNeue-Light" font-size="41.2" fill="#000000" transform="matrix(1.00, 0.00, -0.00, -1.00, 824.8, 9.0)">i</text><text xml:space="preserve" font-family="HelveticaNeue-Light" font-size="41.2" fill="#000000" transform="matrix(1.00, 0.00, -0.00, -1.00, 832.4, 9.0)">s</text><text xml:space="preserve" font-family="HelveticaNeue-Light" font-size="41.2" fill="#000000" transform="matrix(1.00, 0.00, -0.00, -1.00, 852.2, 9.0)">m</text></g></svg>