<?xml version="1.0" encoding="UTF-8" standalone="no"?><svg xmlns="http://www.w3.org/2000/svg" xmlns:xlink="http://www.w3.org/1999/xlink" clip-rule="evenodd" stroke-miterlimit="4.00" viewBox="0 0 918 90"><desc>SVG generated by Keynote</desc><defs></defs><g transform="matrix(1.00, 0.00, -0.00, -1.00, 0.0, 90.0)"><text xml:space="preserve" font-family="HelveticaNeue-Light" font-size="41.2" fill="#000000" transform="matrix(1.00, 0.00, -0.00, -1.00, -1.0, 59.0)">P</text><text xml:space="preserve" font-family="HelveticaNeue-Light" font-size="41.2" fill="#000000" transform="matrix(1.00, 0.00, -0.00, -1.00, 24.9, 59.0)">o</text><text xml:space="preserve" font-family="HelveticaNeue-Light" font-size="41.2" fill="#000000" transform="matrix(1.00, 0.00, -0.00, -1.00, 47.8, 59.0)">s</text><text xml:space="preserve" font-family="HelveticaNeue-Light" font-size="41.2" fill="#000000" transform="matrix(1.00, 0.00, -0.00, -1.00, 67.6, 59.0)">t</text><text xml:space="preserve" font-family="HelveticaNeue-Light" font-size="41.2" fill="#000000" transform="matrix(1.00, 0.00, -0.00, -1.00, 79.8, 59.0)">-</text><text xml:space="preserve" font-family="HelveticaNeue-Light" font-size="41.2" fill="#000000" transform="matrix(1.00, 0.00, -0.00, -1.00, 95.0, 59.0)">t</text><text xml:space="preserve" font-family="HelveticaNeue-Light" font-size="41.2" fill="#000000" transform="matrix(1.00, 0.00, -0.00, -1.00, 107.2, 59.0)">r</text><text xml:space="preserve" font-family="HelveticaNeue-Light" font-size="41.2" fill="#000000" transform="matrix(1.00, 0.00, -0.00, -1.00, 120.2, 59.0)">a</text><text xml:space="preserve" font-family="HelveticaNeue-Light" font-size="41.2" fill="#000000" transform="matrix(1.00, 0.00, -0.00, -1.00, 141.5, 59.0)">n</text><text xml:space="preserve" font-family="HelveticaNeue-Light" font-size="41.2" fill="#000000" transform="matrix(1.00, 0.00, -0.00, -1.00, 163.6, 59.0)">s</text><text xml:space="preserve" font-family="HelveticaNeue-Light" font-size="41.2" fill="#000000" transform="matrix(1.00, 0.00, -0.00, -1.00, 183.4, 59.0)">p</text><text xml:space="preserve" font-family="HelveticaNeue-Light" font-size="41.2" fill="#000000" transform="matrix(1.00, 0.00, -0.00, -1.00, 207.1, 59.0)">l</text><text xml:space="preserve" font-family="HelveticaNeue-Light" font-size="41.2" fill="#000000" transform="matrix(1.00, 0.00, -0.00, -1.00, 214.7, 59.0)">a</text><text xml:space="preserve" font-family="HelveticaNeue-Light" font-size="41.2" fill="#000000" transform="matrix(1.00, 0.00, -0.00, -1.00, 236.0, 59.0)">n</text><text xml:space="preserve" font-family="HelveticaNeue-Light" font-size="41.2" fill="#000000" transform="matrix(1.00, 0.00, -0.00, -1.00, 258.1, 59.0)">t</text><text xml:space="preserve" font-family="HelveticaNeue-Light" font-size="41.2" fill="#000000" transform="matrix(1.00, 0.00, -0.00, -1.00, 270.3, 59.0)">a</text><text xml:space="preserve" font-family="HelveticaNeue-Light" font-size="41.2" fill="#000000" transform="matrix(1.00, 0.00, -0.00, -1.00, 291.7, 59.0)">t</text><text xml:space="preserve" font-family="HelveticaNeue-Light" font-size="41.2" fill="#000000" transform="matrix(1.00, 0.00, -0.00, -1.00, 303.9, 59.0)">i</text><text xml:space="preserve" font-family="HelveticaNeue-Light" font-size="41.2" fill="#000000" transform="matrix(1.00, 0.00, -0.00, -1.00, 311.5, 59.0)">o</text><text xml:space="preserve" font-family="HelveticaNeue-Light" font-size="41.2" fill="#000000" transform="matrix(1.00, 0.00, -0.00, -1.00, 334.4, 59.0)">n</text><text xml:space="preserve" font-family="HelveticaNeue-Light" font-size="41.2" fill="#000000" transform="matrix(1.00, 0.00, -0.00, -1.00, 356.5, 59.0)"> </text><text xml:space="preserve" font-family="HelveticaNeue-Light" font-size="41.2" fill="#000000" transform="matrix(1.00, 0.00, -0.00, -1.00, 367.9, 59.0)">C</text><text xml:space="preserve" font-family="HelveticaNeue-Light" font-size="41.2" fill="#000000" transform="matrix(1.00, 0.00, -0.00, -1.00, 396.9, 59.0)">y</text><text xml:space="preserve" font-family="HelveticaNeue-Light" font-size="41.2" fill="#000000" transform="matrix(1.00, 0.00, -0.00, -1.00, 416.0, 59.0)"> </text><text xml:space="preserve" font-family="HelveticaNeue-Light" font-size="41.2" fill="#000000" transform="matrix(1.00, 0.00, -0.00, -1.00, 427.4, 59.0)">a</text><text xml:space="preserve" font-family="HelveticaNeue-Light" font-size="41.2" fill="#000000" transform="matrix(1.00, 0.00, -0.00, -1.00, 448.8, 59.0)">s</text><text xml:space="preserve" font-family="HelveticaNeue-Light" font-size="41.2" fill="#000000" transform="matrix(1.00, 0.00, -0.00, -1.00, 468.6, 59.0)">s</text><text xml:space="preserve" font-family="HelveticaNeue-Light" font-size="41.2" fill="#000000" transform="matrix(1.00, 0.00, -0.00, -1.00, 488.4, 59.0)">o</text><text xml:space="preserve" font-family="HelveticaNeue-Light" font-size="41.2" fill="#000000" transform="matrix(1.00, 0.00, -0.00, -1.00, 511.2, 59.0)">c</text><text xml:space="preserve" font-family="HelveticaNeue-Light" font-size="41.2" fill="#000000" transform="matrix(1.00, 0.00, -0.00, -1.00, 532.6, 59.0)">i</text><text xml:space="preserve" font-family="HelveticaNeue-Light" font-size="41.2" fill="#000000" transform="matrix(1.00, 0.00, -0.00, -1.00, 540.2, 59.0)">a</text><text xml:space="preserve" font-family="HelveticaNeue-Light" font-size="41.2" fill="#000000" transform="matrix(1.00, 0.00, -0.00, -1.00, 561.6, 59.0)">t</text><text xml:space="preserve" font-family="HelveticaNeue-Light" font-size="41.2" fill="#000000" transform="matrix(1.00, 0.00, -0.00, -1.00, 573.8, 59.0)">e</text><text xml:space="preserve" font-family="HelveticaNeue-Light" font-size="41.2" fill="#000000" transform="matrix(1.00, 0.00, -0.00, -1.00, 595.1, 59.0)">d</text><text xml:space="preserve" font-family="HelveticaNeue-Light" font-size="41.2" fill="#000000" transform="matrix(1.00, 0.00, -0.00, -1.00, 618.7, 59.0)"> </text><text xml:space="preserve" font-family="HelveticaNeue-Light" font-size="41.2" fill="#000000" transform="matrix(1.00, 0.00, -0.00, -1.00, 630.2, 59.0)">w</text><text xml:space="preserve" font-family="HelveticaNeue-Light" font-size="41.2" fill="#000000" transform="matrix(1.00, 0.00, -0.00, -1.00, 660.7, 59.0)">i</text><text xml:space="preserve" font-family="HelveticaNeue-Light" font-size="41.2" fill="#000000" transform="matrix(1.00, 0.00, -0.00, -1.00, 668.3, 59.0)">t</text><text xml:space="preserve" font-family="HelveticaNeue-Light" font-size="41.2" fill="#000000" transform="matrix(1.00, 0.00, -0.00, -1.00, 680.5, 59.0)">h</text><text xml:space="preserve" font-family="HelveticaNeue-Light" font-size="41.2" fill="#000000" transform="matrix(1.00, 0.00, -0.00, -1.00, 702.6, 59.0)"> </text><text xml:space="preserve" font-family="HelveticaNeue-Light" font-size="41.2" fill="#000000" transform="matrix(1.00, 0.00, -0.00, -1.00, 714.0, 59.0)">s</text><text xml:space="preserve" font-family="HelveticaNeue-Light" font-size="41.2" fill="#000000" transform="matrix(1.00, 0.00, -0.00, -1.00, 733.8, 59.0)">i</text><text xml:space="preserve" font-family="HelveticaNeue-Light" font-size="41.2" fill="#000000" transform="matrix(1.00, 0.00, -0.00, -1.00, 741.4, 59.0)">g</text><text xml:space="preserve" font-family="HelveticaNeue-Light" font-size="41.2" fill="#000000" transform="matrix(1.00, 0.00, -0.00, -1.00, 764.3, 59.0)">n</text><text xml:space="preserve" font-family="HelveticaNeue-Light" font-size="41.2" fill="#000000" transform="matrix(1.00, 0.00, -0.00, -1.00, 786.4, 59.0)">i</text><text xml:space="preserve" font-family="HelveticaNeue-Light" font-size="41.2" fill="#000000" transform="matrix(1.00, 0.00, -0.00, -1.00, 794.0, 59.0)">ï¬</text><text xml:space="preserve" font-family="HelveticaNeue-Light" font-size="41.2" fill="#000000" transform="matrix(1.00, 0.00, -0.00, -1.00, 812.3, 59.0)">c</text><text xml:space="preserve" font-family="HelveticaNeue-Light" font-size="41.2" fill="#000000" transform="matrix(1.00, 0.00, -0.00, -1.00, 833.7, 59.0)">a</text><text xml:space="preserve" font-family="HelveticaNeue-Light" font-size="41.2" fill="#000000" transform="matrix(1.00, 0.00, -0.00, -1.00, 855.0, 59.0)">n</text><text xml:space="preserve" font-family="HelveticaNeue-Light" font-size="41.2" fill="#000000" transform="matrix(1.00, 0.00, -0.00, -1.00, 877.1, 59.0)">t</text><text xml:space="preserve" font-family="HelveticaNeue-Light" font-size="41.2" fill="#000000" transform="matrix(1.00, 0.00, -0.00, -1.00, 889.3, 59.0)">l</text><text xml:space="preserve" font-family="HelveticaNeue-Light" font-size="41.2" fill="#000000" transform="matrix(1.00, 0.00, -0.00, -1.00, 896.9, 59.0)">y</text><text xml:space="preserve" font-family="HelveticaNeue-Light" font-size="41.2" fill="#000000" transform="matrix(1.00, 0.00, -0.00, -1.00, 916.0, 59.0)"> </text><text xml:space="preserve" font-family="HelveticaNeue-Light" font-size="41.2" fill="#000000" transform="matrix(1.00, 0.00, -0.00, -1.00, -1.0, 9.0)">l</text><text xml:space="preserve" font-family="HelveticaNeue-Light" font-size="41.2" fill="#000000" transform="matrix(1.00, 0.00, -0.00, -1.00, 6.6, 9.0)">o</text><text xml:space="preserve" font-family="HelveticaNeue-Light" font-size="41.2" fill="#000000" transform="matrix(1.00, 0.00, -0.00, -1.00, 29.5, 9.0)">w</text><text xml:space="preserve" font-family="HelveticaNeue-Light" font-size="41.2" fill="#000000" transform="matrix(1.00, 0.00, -0.00, -1.00, 60.0, 9.0)">e</text><text xml:space="preserve" font-family="HelveticaNeue-Light" font-size="41.2" fill="#000000" transform="matrix(1.00, 0.00, -0.00, -1.00, 81.4, 9.0)">r</text><text xml:space="preserve" font-family="HelveticaNeue-Light" font-size="41.2" fill="#000000" transform="matrix(1.00, 0.00, -0.00, -1.00, 94.3, 9.0)"> </text><text xml:space="preserve" font-family="HelveticaNeue-Light" font-size="41.2" fill="#000000" transform="matrix(1.00, 0.00, -0.00, -1.00, 105.8, 9.0)">l</text><text xml:space="preserve" font-family="HelveticaNeue-Light" font-size="41.2" fill="#000000" transform="matrix(1.00, 0.00, -0.00, -1.00, 113.4, 9.0)">e</text><text xml:space="preserve" font-family="HelveticaNeue-Light" font-size="41.2" fill="#000000" transform="matrix(1.00, 0.00, -0.00, -1.00, 134.7, 9.0)">v</text><text xml:space="preserve" font-family="HelveticaNeue-Light" font-size="41.2" fill="#000000" transform="matrix(1.00, 0.00, -0.00, -1.00, 153.8, 9.0)">e</text><text xml:space="preserve" font-family="HelveticaNeue-Light" font-size="41.2" fill="#000000" transform="matrix(1.00, 0.00, -0.00, -1.00, 175.2, 9.0)">l</text><text xml:space="preserve" font-family="HelveticaNeue-Light" font-size="41.2" fill="#000000" transform="matrix(1.00, 0.00, -0.00, -1.00, 182.8, 9.0)">s</text><text xml:space="preserve" font-family="HelveticaNeue-Light" font-size="41.2" fill="#000000" transform="matrix(1.00, 0.00, -0.00, -1.00, 202.6, 9.0)"> </text><text xml:space="preserve" font-family="HelveticaNeue-Light" font-size="41.2" fill="#000000" transform="matrix(1.00, 0.00, -0.00, -1.00, 214.0, 9.0)">o</text><text xml:space="preserve" font-family="HelveticaNeue-Light" font-size="41.2" fill="#000000" transform="matrix(1.00, 0.00, -0.00, -1.00, 236.9, 9.0)">f</text><text xml:space="preserve" font-family="HelveticaNeue-Light" font-size="41.2" fill="#000000" transform="matrix(1.00, 0.00, -0.00, -1.00, 247.6, 9.0)"> </text><text xml:space="preserve" font-family="HelveticaNeue-Light" font-size="41.2" fill="#000000" transform="matrix(1.00, 0.00, -0.00, -1.00, 259.0, 9.0)">d</text><text xml:space="preserve" font-family="HelveticaNeue-Light" font-size="41.2" fill="#000000" transform="matrix(1.00, 0.00, -0.00, -1.00, 282.6, 9.0)">o</text><text xml:space="preserve" font-family="HelveticaNeue-Light" font-size="41.2" fill="#000000" transform="matrix(1.00, 0.00, -0.00, -1.00, 305.5, 9.0)">n</text><text xml:space="preserve" font-family="HelveticaNeue-Light" font-size="41.2" fill="#000000" transform="matrix(1.00, 0.00, -0.00, -1.00, 327.6, 9.0)">o</text><text xml:space="preserve" font-family="HelveticaNeue-Light" font-size="41.2" fill="#000000" transform="matrix(1.00, 0.00, -0.00, -1.00, 350.5, 9.0)">r</text><text xml:space="preserve" font-family="HelveticaNeue-Light" font-size="41.2" fill="#000000" transform="matrix(1.00, 0.00, -0.00, -1.00, 363.5, 9.0)"> </text><text xml:space="preserve" font-family="HelveticaNeue-Light" font-size="41.2" fill="#000000" transform="matrix(1.00, 0.00, -0.00, -1.00, 374.9, 9.0)">T</text><text xml:space="preserve" font-family="HelveticaNeue-Light" font-size="41.2" fill="#000000" transform="matrix(1.00, 0.00, -0.00, -1.00, 397.8, 9.0)"> </text><text xml:space="preserve" font-family="HelveticaNeue-Light" font-size="41.2" fill="#000000" transform="matrix(1.00, 0.00, -0.00, -1.00, 409.2, 9.0)">c</text><text xml:space="preserve" font-family="HelveticaNeue-Light" font-size="41.2" fill="#000000" transform="matrix(1.00, 0.00, -0.00, -1.00, 430.6, 9.0)">e</text><text xml:space="preserve" font-family="HelveticaNeue-Light" font-size="41.2" fill="#000000" transform="matrix(1.00, 0.00, -0.00, -1.00, 452.0, 9.0)">l</text><text xml:space="preserve" font-family="HelveticaNeue-Light" font-size="41.2" fill="#000000" transform="matrix(1.00, 0.00, -0.00, -1.00, 459.6, 9.0)">l</text><text xml:space="preserve" font-family="HelveticaNeue-Light" font-size="41.2" fill="#000000" transform="matrix(1.00, 0.00, -0.00, -1.00, 467.2, 9.0)"> </text><text xml:space="preserve" font-family="HelveticaNeue-Light" font-size="41.2" fill="#000000" transform="matrix(1.00, 0.00, -0.00, -1.00, 478.6, 9.0)">a</text><text xml:space="preserve" font-family="HelveticaNeue-Light" font-size="41.2" fill="#000000" transform="matrix(1.00, 0.00, -0.00, -1.00, 500.0, 9.0)">n</text><text xml:space="preserve" font-family="HelveticaNeue-Light" font-size="41.2" fill="#000000" transform="matrix(1.00, 0.00, -0.00, -1.00, 522.1, 9.0)">d</text><text xml:space="preserve" font-family="HelveticaNeue-Light" font-size="41.2" fill="#000000" transform="matrix(1.00, 0.00, -0.00, -1.00, 545.7, 9.0)"> </text><text xml:space="preserve" font-family="HelveticaNeue-Light" font-size="41.2" fill="#000000" transform="matrix(1.00, 0.00, -0.00, -1.00, 557.2, 9.0)">m</text><text xml:space="preserve" font-family="HelveticaNeue-Light" font-size="41.2" fill="#000000" transform="matrix(1.00, 0.00, -0.00, -1.00, 591.5, 9.0)">y</text><text xml:space="preserve" font-family="HelveticaNeue-Light" font-size="41.2" fill="#000000" transform="matrix(1.00, 0.00, -0.00, -1.00, 610.5, 9.0)">e</text><text xml:space="preserve" font-family="HelveticaNeue-Light" font-size="41.2" fill="#000000" transform="matrix(1.00, 0.00, -0.00, -1.00, 631.9, 9.0)">l</text><text xml:space="preserve" font-family="HelveticaNeue-Light" font-size="41.2" fill="#000000" transform="matrix(1.00, 0.00, -0.00, -1.00, 639.5, 9.0)">o</text><text xml:space="preserve" font-family="HelveticaNeue-Light" font-size="41.2" fill="#000000" transform="matrix(1.00, 0.00, -0.00, -1.00, 662.4, 9.0)">i</text><text xml:space="preserve" font-family="HelveticaNeue-Light" font-size="41.2" fill="#000000" transform="matrix(1.00, 0.00, -0.00, -1.00, 670.0, 9.0)">d</text><text xml:space="preserve" font-family="HelveticaNeue-Light" font-size="41.2" fill="#000000" transform="matrix(1.00, 0.00, -0.00, -1.00, 693.6, 9.0)"> </text><text xml:space="preserve" font-family="HelveticaNeue-Light" font-size="41.2" fill="#000000" transform="matrix(1.00, 0.00, -0.00, -1.00, 705.1, 9.0)">c</text><text xml:space="preserve" font-family="HelveticaNeue-Light" font-size="41.2" fill="#000000" transform="matrix(1.00, 0.00, -0.00, -1.00, 726.4, 9.0)">h</text><text xml:space="preserve" font-family="HelveticaNeue-Light" font-size="41.2" fill="#000000" transform="matrix(1.00, 0.00, -0.00, -1.00, 748.5, 9.0)">i</text><text xml:space="preserve" font-family="HelveticaNeue-Light" font-size="41.2" fill="#000000" transform="matrix(1.00, 0.00, -0.00, -1.00, 756.1, 9.0)">m</text><text xml:space="preserve" font-family="HelveticaNeue-Light" font-size="41.2" fill="#000000" transform="matrix(1.00, 0.00, -0.00, -1.00, 790.4, 9.0)">e</text><text xml:space="preserve" font-family="HelveticaNeue-Light" font-size="41.2" fill="#000000" transform="matrix(1.00, 0.00, -0.00, -1.00, 811.8, 9.0)">r</text><text xml:space="preserve" font-family="HelveticaNeue-Light" font-size="41.2" fill="#000000" transform="matrix(1.00, 0.00, -0.00, -1.00, 824.8, 9.0)">i</text><text xml:space="preserve" font-family="HelveticaNeue-Light" font-size="41.2" fill="#000000" transform="matrix(1.00, 0.00, -0.00, -1.00, 832.4, 9.0)">s</text><text xml:space="preserve" font-family="HelveticaNeue-Light" font-size="41.2" fill="#000000" transform="matrix(1.00, 0.00, -0.00, -1.00, 852.2, 9.0)">m</text></g></svg>