<?xml version="1.0" encoding="UTF-8" standalone="no"?><svg xmlns="http://www.w3.org/2000/svg" xmlns:xlink="http://www.w3.org/1999/xlink" clip-rule="evenodd" stroke-miterlimit="4.00" viewBox="0 0 984 238"><desc>SVG generated by Keynote</desc><defs><linearGradient id="gradSh1.0" x1="0.0" y1="0.0" x2="100.0" y2="0.0" gradientUnits="userSpaceOnUse" gradientTransform="matrix(3.25, 0.00, 0.00, -1.55, 1.3, 159.5)"><stop offset="0.00000" stop-color="#325D6B"></stop><stop offset="0.00073" stop-color="#325D6A"></stop><stop offset="0.06525" stop-color="#406864"></stop><stop offset="0.06598" stop-color="#406863"></stop><stop offset="0.21701" stop-color="#5F8053"></stop><stop offset="0.22141" stop-color="#608053"></stop><stop offset="0.40396" stop-color="#859D3F"></stop><stop offset="0.40689" stop-color="#869E3F"></stop><stop offset="0.70455" stop-color="#C2CD1F"></stop><stop offset="0.70528" stop-color="#C3CD1F"></stop><stop offset="0.85484" stop-color="#E1E40F"></stop><stop offset="0.85631" stop-color="#E1E50F"></stop><stop offset="0.92962" stop-color="#F0F007"></stop><stop offset="0.93035" stop-color="#F1F007"></stop><stop offset="0.96774" stop-color="#F8F603"></stop><stop offset="0.96921" stop-color="#F9F603"></stop><stop offset="0.98607" stop-color="#FCF901"></stop><stop offset="0.98900" stop-color="#FDFA01"></stop><stop offset="0.99560" stop-color="#FEFB00"></stop><stop offset="0.99853" stop-color="#FFFB00"></stop><stop offset="1.00000" stop-color="#FFFB00"></stop></linearGradient></defs><g transform="matrix(1.00, 0.00, -0.00, -1.00, 0.0, 238.0)"><g><clipPath id="clip-387"><path d="M 38.3 236.0 L 289.7 236.0 C 300.0 236.0 305.3 236.0 310.8 234.2 C 316.9 232.0 321.8 227.2 324.0 221.1 C 325.8 215.5 325.8 210.2 325.8 199.7 L 325.8 119.0 C 325.8 108.7 325.8 103.4 324.0 97.8 C 321.8 91.7 316.9 86.9 310.8 84.7 C 305.3 82.9 300.0 82.9 289.5 82.9 L 38.3 82.9 C 28.0 82.9 22.7 82.9 17.2 84.7 C 11.1 86.9 6.3 91.7 4.0 97.8 C 2.3 103.4 2.3 108.7 2.3 119.2 L 2.3 199.9 C 2.3 210.2 2.3 215.5 4.0 221.1 C 6.3 227.2 11.1 232.0 17.2 234.2 C 22.7 236.0 28.0 236.0 38.5 236.0 Z M 38.3 236.0 "></path></clipPath><g clip-path="url(#clip-387)"><g><clipPath id="clip-388"><path d="M 0.8 81.4 L 327.3 81.4 L 327.3 237.5 L 0.8 237.5 Z M 0.8 81.4 "></path></clipPath><g clip-path="url(#clip-388)"><path d="M 0.8 81.4 L 327.3 81.4 L 327.3 237.5 L 0.8 237.5 Z M 0.8 81.4 " fill="url(#gradSh1.0)"></path></g></g></g></g><g><clipPath id="clip-389"><path d="M 0.8 81.4 L 327.3 81.4 L 327.3 237.5 L 0.8 237.5 Z M 0.8 81.4 "></path></clipPath><g clip-path="url(#clip-389)"><path d="M 36.1 0.0 L 287.4 0.0 C 297.7 0.0 303.0 0.0 308.6 1.8 C 314.7 4.0 319.5 8.8 321.7 14.9 C 323.5 20.5 323.5 25.7 323.5 36.2 L 323.5 117.0 C 323.5 127.3 323.5 132.6 321.7 138.2 C 319.5 144.3 314.7 149.1 308.6 151.3 C 303.0 153.1 297.7 153.1 287.2 153.1 L 36.1 153.1 C 25.7 153.1 20.5 153.1 14.9 151.3 C 8.8 149.1 4.0 144.3 1.8 138.2 C 0.0 132.6 0.0 127.3 0.0 116.8 L 0.0 36.1 C 0.0 25.7 0.0 20.5 1.8 14.9 C 4.0 8.8 8.8 4.0 14.9 1.8 C 20.5 0.0 25.7 0.0 36.2 0.0 Z M 36.1 0.0 " fill="none" stroke="#9A9A9A" stroke-width="1.10" transform="matrix(1.00, 0.00, 0.00, -1.00, 2.3, 236.0)"></path></g></g><g><clipPath id="clip-390"><path d="M 275.0 84.8 L 322.6 84.8 L 322.6 234.1 L 275.0 234.1 Z M 275.0 84.8 "></path></clipPath><g clip-path="url(#clip-390)"><g opacity="0.30"><g><clipPath id="clip-391"><path d="M 275.0 85.0 L 322.0 85.0 L 322.0 234.0 L 275.0 234.0 Z M 275.0 85.0 "></path></clipPath><g clip-path="url(#clip-391)"><path d="M 298.8 232.6 C 298.8 232.6 299.0 232.6 299.5 232.6 C 311.4 232.4 320.9 222.9 321.1 211.1 C 321.1 210.5 321.1 210.3 321.1 210.3 L 321.1 108.6 C 321.1 108.6 321.1 108.4 321.1 107.8 C 320.9 96.0 311.4 86.5 299.5 86.3 C 299.0 86.3 298.8 86.3 298.8 86.3 C 298.8 86.3 298.6 86.3 298.0 86.3 C 286.2 86.5 276.7 96.0 276.5 107.8 C 276.5 108.4 276.5 108.6 276.5 108.6 L 276.5 210.3 C 276.5 210.3 276.5 210.5 276.5 211.1 C 276.7 222.9 286.2 232.4 298.0 232.6 C 298.6 232.6 298.8 232.6 298.8 232.6 Z M 298.8 232.6 " fill="#FEFB00"></path><path d="M 22.3 0.0 C 22.3 0.0 22.5 0.0 23.1 0.0 C 34.9 0.2 44.4 9.7 44.6 21.5 C 44.6 22.1 44.6 22.3 44.6 22.3 L 44.6 124.0 C 44.6 124.0 44.6 124.2 44.6 124.8 C 44.4 136.6 34.9 146.1 23.1 146.3 C 22.5 146.3 22.3 146.3 22.3 146.3 C 22.3 146.3 22.1 146.3 21.5 146.3 C 9.7 146.1 0.2 136.6 0.0 124.8 C 0.0 124.2 0.0 124.0 0.0 124.0 L 0.0 22.3 C 0.0 22.3 0.0 22.1 0.0 21.5 C 0.2 9.7 9.7 0.2 21.5 0.0 C 22.1 0.0 22.3 0.0 22.3 0.0 Z M 22.3 0.0 " fill="none" stroke="#9A9A9A" stroke-width="1.10" transform="matrix(1.00, 0.00, 0.00, -1.00, 276.5, 232.6)"></path></g></g></g></g></g><g><clipPath id="clip-392"><path d="M 3.7 84.8 L 271.6 84.8 L 271.6 234.1 L 3.7 234.1 Z M 3.7 84.8 "></path></clipPath><g clip-path="url(#clip-392)"><g opacity="0.30"><g><clipPath id="clip-393"><path d="M 4.0 85.0 L 271.0 85.0 L 271.0 234.0 L 4.0 234.0 Z M 4.0 85.0 "></path></clipPath><g clip-path="url(#clip-393)"><path d="M 38.8 232.6 L 236.6 232.6 C 246.2 232.6 251.1 232.6 256.3 231.0 C 261.9 228.9 266.4 224.4 268.5 218.8 C 270.1 213.6 270.1 208.7 270.1 198.9 L 270.1 119.8 C 270.1 110.2 270.1 105.3 268.5 100.1 C 266.4 94.5 261.9 90.0 256.3 87.9 C 251.1 86.3 246.2 86.3 236.4 86.3 L 38.8 86.3 C 29.2 86.3 24.3 86.3 19.1 87.9 C 13.4 90.0 8.9 94.5 6.9 100.1 C 5.2 105.3 5.2 110.2 5.2 120.0 L 5.2 199.1 C 5.2 208.7 5.2 213.6 6.9 218.8 C 8.9 224.4 13.4 228.9 19.1 231.0 C 24.3 232.6 29.2 232.6 38.9 232.6 Z M 38.8 232.6 " fill="#265564"></path><path d="M 33.6 0.0 L 231.4 0.0 C 241.0 0.0 245.9 0.0 251.1 1.6 C 256.7 3.7 261.2 8.2 263.3 13.9 C 264.9 19.1 264.9 23.9 264.9 33.7 L 264.9 112.8 C 264.9 122.4 264.9 127.3 263.3 132.5 C 261.2 138.2 256.7 142.6 251.1 144.7 C 245.9 146.3 241.0 146.3 231.2 146.3 L 33.6 146.3 C 23.9 146.3 19.1 146.3 13.9 144.7 C 8.2 142.6 3.7 138.2 1.6 132.5 C 0.0 127.3 0.0 122.4 0.0 112.6 L 0.0 33.6 C 0.0 23.9 0.0 19.1 1.6 13.9 C 3.7 8.2 8.2 3.7 13.9 1.6 C 19.1 0.0 23.9 0.0 33.7 0.0 Z M 33.6 0.0 " fill="none" stroke="#9A9A9A" stroke-width="1.10" transform="matrix(1.00, 0.00, 0.00, -1.00, 5.2, 232.6)"></path></g></g></g></g></g><g><clipPath id="clip-394"><path d="M 1.7 18.6 L 983.0 18.6 L 983.0 81.2 L 1.7 81.2 Z M 1.7 18.6 "></path></clipPath><g clip-path="url(#clip-394)"><path d="M 939.7 19.6 L 939.7 19.6 L 982.0 49.9 L 939.7 80.2 L 939.7 80.2 L 2.7 80.2 L 2.7 19.6 Z M 939.7 19.6 " fill="#325D6A"></path></g></g><g><clipPath id="clip-395"><path d="M -3.9 16.6 L 982.0 16.6 L 982.0 81.8 L -3.9 81.8 Z M -3.9 16.6 "></path></clipPath><g clip-path="url(#clip-395)"><text xml:space="preserve" font-family="HelveticaNeue-Light" font-size="36.0" fill="#FFFFFF" transform="matrix(1.00, 0.00, -0.00, -1.00, 7.0, 36.0)">-</text><text xml:space="preserve" font-family="HelveticaNeue-Light" font-size="36.0" fill="#FFFFFF" transform="matrix(1.00, 0.00, -0.00, -1.00, 20.3, 36.0)">6</text><text xml:space="preserve" font-family="HelveticaNeue-Light" font-size="36.0" fill="#FFFFFF" transform="matrix(1.00, 0.00, -0.00, -1.00, 40.3, 36.0)"> </text><text xml:space="preserve" font-family="HelveticaNeue-Light" font-size="36.0" fill="#FFFFFF" transform="matrix(1.00, 0.00, -0.00, -1.00, 50.3, 36.0)"> </text><text xml:space="preserve" font-family="HelveticaNeue-Light" font-size="36.0" fill="#FFFFFF" transform="matrix(1.00, 0.00, -0.00, -1.00, 60.4, 36.0)">-</text><text xml:space="preserve" font-family="HelveticaNeue-Light" font-size="36.0" fill="#FFFFFF" transform="matrix(1.00, 0.00, -0.00, -1.00, 73.7, 36.0)">5</text><text xml:space="preserve" font-family="HelveticaNeue-Light" font-size="36.0" fill="#FFFFFF" transform="matrix(1.00, 0.00, -0.00, -1.00, 93.7, 36.0)"> </text><text xml:space="preserve" font-family="HelveticaNeue-Light" font-size="36.0" fill="#FFFFFF" transform="matrix(1.00, 0.00, -0.00, -1.00, 103.7, 36.0)"> </text><text xml:space="preserve" font-family="HelveticaNeue-Light" font-size="36.0" fill="#FFFFFF" transform="matrix(1.00, 0.00, -0.00, -1.00, 113.7, 36.0)">-</text><text xml:space="preserve" font-family="HelveticaNeue-Light" font-size="36.0" fill="#FFFFFF" transform="matrix(1.00, 0.00, -0.00, -1.00, 127.0, 36.0)">4</text><text xml:space="preserve" font-family="HelveticaNeue-Light" font-size="36.0" fill="#FFFFFF" transform="matrix(1.00, 0.00, -0.00, -1.00, 147.0, 36.0)"> </text><text xml:space="preserve" font-family="HelveticaNeue-Light" font-size="36.0" fill="#FFFFFF" transform="matrix(1.00, 0.00, -0.00, -1.00, 157.0, 36.0)"> </text><text xml:space="preserve" font-family="HelveticaNeue-Light" font-size="36.0" fill="#FFFFFF" transform="matrix(1.00, 0.00, -0.00, -1.00, 167.1, 36.0)">-</text><text xml:space="preserve" font-family="HelveticaNeue-Light" font-size="36.0" fill="#FFFFFF" transform="matrix(1.00, 0.00, -0.00, -1.00, 180.4, 36.0)">3</text><text xml:space="preserve" font-family="HelveticaNeue-Light" font-size="36.0" fill="#FFFFFF" transform="matrix(1.00, 0.00, -0.00, -1.00, 200.4, 36.0)"> </text><text xml:space="preserve" font-family="HelveticaNeue-Light" font-size="36.0" fill="#FFFFFF" transform="matrix(1.00, 0.00, -0.00, -1.00, 210.4, 36.0)"> </text><text xml:space="preserve" font-family="HelveticaNeue-Light" font-size="36.0" fill="#FFFFFF" transform="matrix(1.00, 0.00, -0.00, -1.00, 220.4, 36.0)">-</text><text xml:space="preserve" font-family="HelveticaNeue-Light" font-size="36.0" fill="#FFFFFF" transform="matrix(1.00, 0.00, -0.00, -1.00, 233.7, 36.0)">2</text><text xml:space="preserve" font-family="HelveticaNeue-Light" font-size="36.0" fill="#FFFFFF" transform="matrix(1.00, 0.00, -0.00, -1.00, 253.7, 36.0)"> </text><text xml:space="preserve" font-family="HelveticaNeue-Light" font-size="36.0" fill="#FFFFFF" transform="matrix(1.00, 0.00, -0.00, -1.00, 263.8, 36.0)"> </text><text xml:space="preserve" font-family="HelveticaNeue-Light" font-size="36.0" fill="#FFFFFF" transform="matrix(1.00, 0.00, -0.00, -1.00, 273.8, 36.0)">-</text><text xml:space="preserve" font-family="HelveticaNeue-Light" font-size="36.0" fill="#FFFFFF" transform="matrix(1.00, 0.00, -0.00, -1.00, 287.1, 36.0)">1</text><text xml:space="preserve" font-family="HelveticaNeue-Light" font-size="36.0" fill="#FFFFFF" transform="matrix(1.00, 0.00, -0.00, -1.00, 307.1, 36.0)"> </text><text xml:space="preserve" font-family="HelveticaNeue-Light" font-size="36.0" fill="#FFFFFF" transform="matrix(1.00, 0.00, -0.00, -1.00, 317.1, 36.0)"> </text><text xml:space="preserve" font-family="HelveticaNeue-Light" font-size="36.0" fill="#FFFFFF" transform="matrix(1.00, 0.00, -0.00, -1.00, 327.1, 36.0)">•</text><text xml:space="preserve" font-family="HelveticaNeue-Light" font-size="36.0" fill="#FFFFFF" transform="matrix(1.00, 0.00, -0.00, -1.00, 345.1, 36.0)">0</text><text xml:space="preserve" font-family="HelveticaNeue-Light" font-size="36.0" fill="#FFFFFF" transform="matrix(1.00, 0.00, -0.00, -1.00, 365.1, 36.0)"> </text><text xml:space="preserve" font-family="HelveticaNeue-Light" font-size="36.0" fill="#FFFFFF" transform="matrix(1.00, 0.00, -0.00, -1.00, 375.1, 36.0)"> </text><text xml:space="preserve" font-family="HelveticaNeue-Light" font-size="36.0" fill="#FFFFFF" transform="matrix(1.00, 0.00, -0.00, -1.00, 385.1, 36.0)">+</text><text xml:space="preserve" font-family="HelveticaNeue-Light" font-size="36.0" fill="#FFFFFF" transform="matrix(1.00, 0.00, -0.00, -1.00, 406.7, 36.0)">1</text><text xml:space="preserve" font-family="HelveticaNeue-Light" font-size="36.0" fill="#FFFFFF" transform="matrix(1.00, 0.00, -0.00, -1.00, 426.8, 36.0)"> </text><text xml:space="preserve" font-family="HelveticaNeue-Light" font-size="36.0" fill="#FFFFFF" transform="matrix(1.00, 0.00, -0.00, -1.00, 436.8, 36.0)"> </text><text xml:space="preserve" font-family="HelveticaNeue-Light" font-size="36.0" fill="#FFFFFF" transform="matrix(1.00, 0.00, -0.00, -1.00, 446.8, 36.0)">+</text><text xml:space="preserve" font-family="HelveticaNeue-Light" font-size="36.0" fill="#FFFFFF" transform="matrix(1.00, 0.00, -0.00, -1.00, 468.4, 36.0)">2</text><text xml:space="preserve" font-family="HelveticaNeue-Light" font-size="36.0" fill="#FFFFFF" transform="matrix(1.00, 0.00, -0.00, -1.00, 488.4, 36.0)"> </text><text xml:space="preserve" font-family="HelveticaNeue-Light" font-size="36.0" fill="#FFFFFF" transform="matrix(1.00, 0.00, -0.00, -1.00, 498.4, 36.0)"> </text><text xml:space="preserve" font-family="HelveticaNeue-Light" font-size="36.0" fill="#FFFFFF" transform="matrix(1.00, 0.00, -0.00, -1.00, 508.4, 36.0)">+</text><text xml:space="preserve" font-family="HelveticaNeue-Light" font-size="36.0" fill="#FFFFFF" transform="matrix(1.00, 0.00, -0.00, -1.00, 530.0, 36.0)">3</text><text xml:space="preserve" font-family="HelveticaNeue-Light" font-size="36.0" fill="#FFFFFF" transform="matrix(1.00, 0.00, -0.00, -1.00, 550.0, 36.0)"> </text><text xml:space="preserve" font-family="HelveticaNeue-Light" font-size="36.0" fill="#FFFFFF" transform="matrix(1.00, 0.00, -0.00, -1.00, 560.0, 36.0)"> </text><text xml:space="preserve" font-family="HelveticaNeue-Light" font-size="36.0" fill="#FFFFFF" transform="matrix(1.00, 0.00, -0.00, -1.00, 570.0, 36.0)">+</text><text xml:space="preserve" font-family="HelveticaNeue-Light" font-size="36.0" fill="#FFFFFF" transform="matrix(1.00, 0.00, -0.00, -1.00, 591.6, 36.0)">4</text><text xml:space="preserve" font-family="HelveticaNeue-Light" font-size="36.0" fill="#FFFFFF" transform="matrix(1.00, 0.00, -0.00, -1.00, 611.7, 36.0)"> </text><text xml:space="preserve" font-family="HelveticaNeue-Light" font-size="36.0" fill="#FFFFFF" transform="matrix(1.00, 0.00, -0.00, -1.00, 621.7, 36.0)"> </text><text xml:space="preserve" font-family="HelveticaNeue-Light" font-size="36.0" fill="#FFFFFF" transform="matrix(1.00, 0.00, -0.00, -1.00, 631.7, 36.0)">+</text><text xml:space="preserve" font-family="HelveticaNeue-Light" font-size="36.0" fill="#FFFFFF" transform="matrix(1.00, 0.00, -0.00, -1.00, 653.3, 36.0)">5</text><text xml:space="preserve" font-family="HelveticaNeue-Light" font-size="36.0" fill="#FFFFFF" transform="matrix(1.00, 0.00, -0.00, -1.00, 673.3, 36.0)"> </text><text xml:space="preserve" font-family="HelveticaNeue-Light" font-size="36.0" fill="#FFFFFF" transform="matrix(1.00, 0.00, -0.00, -1.00, 683.3, 36.0)"> </text><text xml:space="preserve" font-family="HelveticaNeue-Light" font-size="36.0" fill="#FFFFFF" transform="matrix(1.00, 0.00, -0.00, -1.00, 693.3, 36.0)"> </text><text xml:space="preserve" font-family="HelveticaNeue-Light" font-size="36.0" fill="#FFFFFF" transform="matrix(1.00, 0.00, -0.00, -1.00, 703.3, 36.0)"> </text><text xml:space="preserve" font-family="HelveticaNeue-Light" font-size="36.0" fill="#FFFFFF" transform="matrix(1.00, 0.00, -0.00, -1.00, 713.3, 36.0)"> </text><text xml:space="preserve" font-family="HelveticaNeue-Light" font-size="36.0" fill="#FFFFFF" transform="matrix(1.00, 0.00, -0.00, -1.00, 723.3, 36.0)"> </text><text xml:space="preserve" font-family="HelveticaNeue-Light" font-size="36.0" fill="#FFFFFF" transform="matrix(1.00, 0.00, -0.00, -1.00, 733.3, 36.0)"> </text><text xml:space="preserve" font-family="HelveticaNeue-Light" font-size="36.0" fill="#FFFFFF" transform="matrix(1.00, 0.00, -0.00, -1.00, 743.3, 36.0)"> </text><text xml:space="preserve" font-family="HelveticaNeue-Light" font-size="36.0" fill="#FFFFFF" transform="matrix(1.00, 0.00, -0.00, -1.00, 753.4, 36.0)"> </text><text xml:space="preserve" font-family="HelveticaNeue-Light" font-size="36.0" fill="#FFFFFF" transform="matrix(1.00, 0.00, -0.00, -1.00, 763.4, 36.0)">4</text><text xml:space="preserve" font-family="HelveticaNeue-Light" font-size="36.0" fill="#FFFFFF" transform="matrix(1.00, 0.00, -0.00, -1.00, 783.4, 36.0)">w</text><text xml:space="preserve" font-family="HelveticaNeue-Light" font-size="36.0" fill="#FFFFFF" transform="matrix(1.00, 0.00, -0.00, -1.00, 810.1, 36.0)"> </text><text xml:space="preserve" font-family="HelveticaNeue-Light" font-size="36.0" fill="#FFFFFF" transform="matrix(1.00, 0.00, -0.00, -1.00, 820.1, 36.0)"> </text><text xml:space="preserve" font-family="HelveticaNeue-Light" font-size="36.0" fill="#FFFFFF" transform="matrix(1.00, 0.00, -0.00, -1.00, 830.1, 36.0)"> </text><text xml:space="preserve" font-family="HelveticaNeue-Light" font-size="36.0" fill="#FFFFFF" transform="matrix(1.00, 0.00, -0.00, -1.00, 840.1, 36.0)"> </text><text xml:space="preserve" font-family="HelveticaNeue-Light" font-size="36.0" fill="#FFFFFF" transform="matrix(1.00, 0.00, -0.00, -1.00, 850.1, 36.0)"> </text><text xml:space="preserve" font-family="HelveticaNeue-Light" font-size="36.0" fill="#FFFFFF" transform="matrix(1.00, 0.00, -0.00, -1.00, 860.1, 36.0)"> </text><text xml:space="preserve" font-family="HelveticaNeue-Light" font-size="36.0" fill="#FFFFFF" transform="matrix(1.00, 0.00, -0.00, -1.00, 870.1, 36.0)"> </text><text xml:space="preserve" font-family="HelveticaNeue-Light" font-size="36.0" fill="#FFFFFF" transform="matrix(1.00, 0.00, -0.00, -1.00, 880.1, 36.0)">2</text><text xml:space="preserve" font-family="HelveticaNeue-Light" font-size="36.0" fill="#FFFFFF" transform="matrix(1.00, 0.00, -0.00, -1.00, 900.1, 36.0)">m</text></g></g><g><clipPath id="clip-396"><path d="M 806.3 128.3 L 806.3 -28.5 L 586.6 -28.5 L 586.6 128.3 Z M 806.3 128.3 "></path></clipPath><g clip-path="url(#clip-396)"><text xml:space="preserve" font-family="AppleSymbols" font-size="150.0" fill="#FEFFFE" transform="matrix(0.00, -1.00, -1.00, -0.00, 671.0, 93.0)">⌁</text></g></g><g><clipPath id="clip-397"><path d="M 51.2 169.9 L 51.2 93.8 L 12.2 93.8 L 12.2 169.9 Z M 51.2 169.9 "></path></clipPath><g clip-path="url(#clip-397)"><path d="M 25.1 122.7 L 15.0 122.7 L 31.7 96.7 L 48.4 122.7 L 38.3 122.7 L 38.3 167.9 L 25.1 167.9 Z M 25.1 122.7 " fill="#FEFFFE"></path><path d="M 45.1 23.4 L 45.1 33.4 L 71.2 16.7 L 45.1 0.0 L 45.1 10.1 L 0.0 10.1 L 0.0 23.4 Z M 45.1 23.4 " fill="none" stroke="#163D40" stroke-width="2.00" transform="matrix(0.00, -1.00, -1.00, 0.00, 48.4, 167.9)"></path></g></g><g><clipPath id="clip-398"><path d="M 9.8 174.4 L 53.6 174.4 L 53.6 239.9 L 9.8 239.9 Z M 9.8 174.4 "></path></clipPath><g clip-path="url(#clip-398)"><text xml:space="preserve" font-family="HelveticaNeue-Bold" font-weight="bold" font-size="36.0" fill="#000000" transform="matrix(1.00, 0.00, -0.00, -1.00, 21.0, 194.0)">F</text></g></g><g><clipPath id="clip-399"><path d="M 102.1 169.9 L 102.1 93.8 L 63.0 93.8 L 63.0 169.9 Z M 102.1 169.9 "></path></clipPath><g clip-path="url(#clip-399)"><path d="M 75.9 122.7 L 65.8 122.7 L 82.6 96.7 L 99.3 122.7 L 89.2 122.7 L 89.2 167.9 L 75.9 167.9 Z M 75.9 122.7 " fill="#FEFFFE"></path><path d="M 45.1 23.4 L 45.1 33.4 L 71.2 16.7 L 45.1 0.0 L 45.1 10.1 L 0.0 10.1 L 0.0 23.4 Z M 45.1 23.4 " fill="none" stroke="#163D40" stroke-width="2.00" transform="matrix(0.00, -1.00, -1.00, 0.00, 99.3, 167.9)"></path></g></g><g><clipPath id="clip-400"><path d="M 60.6 174.4 L 104.5 174.4 L 104.5 239.9 L 60.6 239.9 Z M 60.6 174.4 "></path></clipPath><g clip-path="url(#clip-400)"><text xml:space="preserve" font-family="HelveticaNeue-Bold" font-weight="bold" font-size="36.0" fill="#000000" transform="matrix(1.00, 0.00, -0.00, -1.00, 72.0, 194.0)">F</text></g></g><g><clipPath id="clip-401"><path d="M 157.2 169.9 L 157.2 93.8 L 118.1 93.8 L 118.1 169.9 Z M 157.2 169.9 "></path></clipPath><g clip-path="url(#clip-401)"><path d="M 131.0 122.7 L 121.0 122.7 L 137.7 96.7 L 154.4 122.7 L 144.3 122.7 L 144.3 167.9 L 131.0 167.9 Z M 131.0 122.7 " fill="#FEFFFE"></path><path d="M 45.1 23.4 L 45.1 33.4 L 71.2 16.7 L 45.1 0.0 L 45.1 10.1 L 0.0 10.1 L 0.0 23.4 Z M 45.1 23.4 " fill="none" stroke="#163D40" stroke-width="2.00" transform="matrix(0.00, -1.00, -1.00, 0.00, 154.4, 167.9)"></path></g></g><g><clipPath id="clip-402"><path d="M 115.8 174.4 L 159.6 174.4 L 159.6 239.9 L 115.8 239.9 Z M 115.8 174.4 "></path></clipPath><g clip-path="url(#clip-402)"><text xml:space="preserve" font-family="HelveticaNeue-Bold" font-weight="bold" font-size="36.0" fill="#000000" transform="matrix(1.00, 0.00, -0.00, -1.00, 127.0, 194.0)">F</text></g></g><g><clipPath id="clip-403"><path d="M 208.1 169.9 L 208.1 93.8 L 169.0 93.8 L 169.0 169.9 Z M 208.1 169.9 "></path></clipPath><g clip-path="url(#clip-403)"><path d="M 181.9 122.7 L 171.8 122.7 L 188.5 96.7 L 205.2 122.7 L 195.2 122.7 L 195.2 167.9 L 181.9 167.9 Z M 181.9 122.7 " fill="#FEFFFE"></path><path d="M 45.1 23.4 L 45.1 33.4 L 71.2 16.7 L 45.1 0.0 L 45.1 10.1 L 0.0 10.1 L 0.0 23.4 Z M 45.1 23.4 " fill="none" stroke="#163D40" stroke-width="2.00" transform="matrix(0.00, -1.00, -1.00, 0.00, 205.2, 167.9)"></path></g></g><g><clipPath id="clip-404"><path d="M 166.6 174.4 L 210.4 174.4 L 210.4 239.9 L 166.6 239.9 Z M 166.6 174.4 "></path></clipPath><g clip-path="url(#clip-404)"><text xml:space="preserve" font-family="HelveticaNeue-Bold" font-weight="bold" font-size="36.0" fill="#000000" transform="matrix(1.00, 0.00, -0.00, -1.00, 178.0, 194.0)">F</text></g></g><g><clipPath id="clip-405"><path d="M 263.2 169.9 L 263.2 93.8 L 224.1 93.8 L 224.1 169.9 Z M 263.2 169.9 "></path></clipPath><g clip-path="url(#clip-405)"><path d="M 237.0 122.7 L 226.9 122.7 L 243.7 96.7 L 260.4 122.7 L 250.3 122.7 L 250.3 167.9 L 237.0 167.9 Z M 237.0 122.7 " fill="#FEFFFE"></path><path d="M 45.1 23.4 L 45.1 33.4 L 71.2 16.7 L 45.1 0.0 L 45.1 10.1 L 0.0 10.1 L 0.0 23.4 Z M 45.1 23.4 " fill="none" stroke="#163D40" stroke-width="2.00" transform="matrix(0.00, -1.00, -1.00, 0.00, 260.4, 167.9)"></path></g></g><g><clipPath id="clip-406"><path d="M 221.7 174.4 L 265.6 174.4 L 265.6 239.9 L 221.7 239.9 Z M 221.7 174.4 "></path></clipPath><g clip-path="url(#clip-406)"><text xml:space="preserve" font-family="HelveticaNeue-Bold" font-weight="bold" font-size="36.0" fill="#000000" transform="matrix(1.00, 0.00, -0.00, -1.00, 233.0, 194.0)">F</text></g></g><g><clipPath id="clip-407"><path d="M 318.3 169.9 L 318.3 93.8 L 279.2 93.8 L 279.2 169.9 Z M 318.3 169.9 "></path></clipPath><g clip-path="url(#clip-407)"><path d="M 292.1 122.7 L 282.1 122.7 L 298.8 96.7 L 315.5 122.7 L 305.4 122.7 L 305.4 167.9 L 292.1 167.9 Z M 292.1 122.7 " fill="#FEFB00"></path><path d="M 45.1 23.4 L 45.1 33.4 L 71.2 16.7 L 45.1 0.0 L 45.1 10.1 L 0.0 10.1 L 0.0 23.4 Z M 45.1 23.4 " fill="none" stroke="#000000" stroke-width="2.00" transform="matrix(0.00, -1.00, -1.00, 0.00, 315.5, 167.9)"></path></g></g><g><clipPath id="clip-408"><path d="M 261.9 154.1 L 335.6 154.1 L 335.6 241.5 L 261.9 241.5 Z M 261.9 154.1 "></path></clipPath><g clip-path="url(#clip-408)"><text xml:space="preserve" font-family="AppleSymbols" font-size="60.0" fill="#000000" transform="matrix(1.00, 0.00, -0.00, -1.00, 276.0, 188.0)">☢</text></g></g><g><clipPath id="clip-409"><path d="M 542.7 169.9 L 542.7 93.8 L 503.6 93.8 L 503.6 169.9 Z M 542.7 169.9 "></path></clipPath><g clip-path="url(#clip-409)"><path d="M 516.5 122.7 L 506.4 122.7 L 523.1 96.7 L 539.9 122.7 L 529.8 122.7 L 529.8 167.9 L 516.5 167.9 Z M 516.5 122.7 " fill="#A85648"></path><path d="M 45.1 23.4 L 45.1 33.4 L 71.2 16.7 L 45.1 0.0 L 45.1 10.1 L 0.0 10.1 L 0.0 23.4 Z M 45.1 23.4 " fill="none" stroke="#763A33" stroke-width="2.00" transform="matrix(0.00, -1.00, -1.00, 0.00, 539.9, 167.9)"></path></g></g><g><clipPath id="clip-410"><path d="M 489.2 174.4 L 557.1 174.4 L 557.1 239.9 L 489.2 239.9 Z M 489.2 174.4 "></path></clipPath><g clip-path="url(#clip-410)"><text xml:space="preserve" font-family="HelveticaNeue-Bold" font-weight="bold" font-size="36.0" fill="#000000" transform="matrix(1.00, 0.00, -0.00, -1.00, 500.0, 194.0)">C</text><text xml:space="preserve" font-family="HelveticaNeue-Bold" font-weight="bold" font-size="36.0" fill="#000000" transform="matrix(1.00, 0.00, -0.00, -1.00, 526.7, 194.0)">y</text></g></g><g><clipPath id="clip-411"><path d="M 373.4 169.0 L 373.4 92.9 L 334.4 92.9 L 334.4 169.0 Z M 373.4 169.0 "></path></clipPath><g clip-path="url(#clip-411)"><path d="M 347.3 121.8 L 337.2 121.8 L 353.9 95.8 L 370.6 121.8 L 360.5 121.8 L 360.5 167.0 L 347.3 167.0 Z M 347.3 121.8 " fill="#FF2600"></path><path d="M 45.1 23.4 L 45.1 33.4 L 71.2 16.7 L 45.1 0.0 L 45.1 10.1 L 0.0 10.1 L 0.0 23.4 Z M 45.1 23.4 " fill="none" stroke="#163D40" stroke-width="2.00" transform="matrix(0.00, -1.00, -1.00, 0.00, 370.6, 167.0)"></path></g></g><g><clipPath id="clip-412"><path d="M 937.4 128.3 L 937.4 -28.5 L 717.7 -28.5 L 717.7 128.3 Z M 937.4 128.3 "></path></clipPath><g clip-path="url(#clip-412)"><text xml:space="preserve" font-family="AppleSymbols" font-size="150.0" fill="#FEFFFE" transform="matrix(0.00, -1.00, -1.00, -0.00, 802.0, 93.0)">⌁</text></g></g></g></svg>