<?xml version="1.0" encoding="UTF-8" standalone="no"?><svg xmlns="http://www.w3.org/2000/svg" xmlns:xlink="http://www.w3.org/1999/xlink" clip-rule="evenodd" stroke-miterlimit="4.00" viewBox="0 0 441 635"><desc>SVG generated by Keynote</desc><defs></defs><g transform="matrix(1.00, 0.00, -0.00, -1.00, 0.0, 635.0)"><g><clipPath id="clip-1481"><path d="M 1.0 635.0 L 302.0 635.0 L 302.0 1.0 L 1.0 1.0 Z M 0.6 635.0 "></path></clipPath><g clip-path="url(#clip-1481)"><g><clipPath id="clip-1482"><path d="M 1.0 1.0 L 302.1 1.0 L 302.1 635.0 L 1.0 635.0 Z M 1.0 1.0 "></path></clipPath><g clip-path="url(#clip-1482)"><image xlink:href="../../57464DE1-CC46-46EE-A7FF-E8E560F50476/assets/62D30805596030BF6FD9A32739027EC5.png" width="1104.00" height="1110.00" transform="matrix(0.57, 0.00, -0.00, -0.57, 1.0, 635.0)"></image></g></g></g></g><g><clipPath id="clip-1483"><path d="M 282.0 635.0 L 440.0 635.0 L 440.0 1.0 L 282.0 1.0 Z M 281.9 635.0 "></path></clipPath><g clip-path="url(#clip-1483)"><g><clipPath id="clip-1484"><path d="M 281.9 1.0 L 440.1 1.0 L 440.1 635.0 L 281.9 635.0 Z M 281.9 1.0 "></path></clipPath><g clip-path="url(#clip-1484)"><image xlink:href="../../57464DE1-CC46-46EE-A7FF-E8E560F50476/assets/62D30805596030BF6FD9A32739027EC5.png" width="1104.00" height="1110.00" transform="matrix(0.57, 0.00, -0.00, -0.57, -184.0, 635.0)"></image></g></g></g></g></g></svg>