<?xml version="1.0" encoding="UTF-8" standalone="no"?><svg xmlns="http://www.w3.org/2000/svg" xmlns:xlink="http://www.w3.org/1999/xlink" clip-rule="evenodd" stroke-miterlimit="4.00" viewBox="0 0 527 427"><desc>SVG generated by Keynote</desc><defs></defs><g transform="matrix(1.00, 0.00, -0.00, -1.00, 0.0, 427.0)"><g><clipPath id="clip-1485"><path d="M 0.0 427.0 L 283.0 427.0 L 283.0 0.0 L 0.0 0.0 Z M 0.4 426.6 "></path></clipPath><g clip-path="url(#clip-1485)"><g><clipPath id="clip-1486"><path d="M 0.4 0.1 L 282.7 0.1 L 282.7 426.6 L 0.4 426.6 Z M 0.4 0.1 "></path></clipPath><g clip-path="url(#clip-1486)"><image xlink:href="../../57464DE1-CC46-46EE-A7FF-E8E560F50476/assets/90B639E927F21C03D9ED6343FB6917C6.png" width="1094.00" height="762.00" transform="matrix(0.56, 0.00, -0.00, -0.56, 0.0, 427.0)"></image></g></g></g></g><g><clipPath id="clip-1487"><path d="M 275.0 427.0 L 527.0 427.0 L 527.0 0.0 L 275.0 0.0 Z M 274.8 426.6 "></path></clipPath><g clip-path="url(#clip-1487)"><g><clipPath id="clip-1488"><path d="M 274.8 0.1 L 526.0 0.1 L 526.0 426.6 L 274.8 426.6 Z M 274.8 0.1 "></path></clipPath><g clip-path="url(#clip-1488)"><image xlink:href="../../57464DE1-CC46-46EE-A7FF-E8E560F50476/assets/90B639E927F21C03D9ED6343FB6917C6.png" width="1094.00" height="762.00" transform="matrix(0.56, 0.00, -0.00, -0.56, -87.0, 427.0)"></image></g></g></g></g></g></svg>