<?xml version="1.0" encoding="UTF-8" standalone="no"?><svg xmlns="http://www.w3.org/2000/svg" xmlns:xlink="http://www.w3.org/1999/xlink" clip-rule="evenodd" stroke-miterlimit="10" viewBox="0 0 1024 768"><desc>SVG generated by Keynote</desc><defs></defs><g transform="matrix(1.00, 0.00, -0.00, -1.00, 0.0, 768.0)"><g><clipPath id="clip0x7fba7d9590c0"><path d="M 0.0 768.0 L 1024.0 768.0 L 1024.0 0.0 L 0.0 0.0 Z M 0.0 768.0 "></path></clipPath><g clip-path="url(#clip0x7fba7d9590c0)"><image xlink:href="../../384E26B0-0AD0-495F-BA75-267B55ABD0BD/assets/31D284A5C75E14674D2A89FDB99F8048.jpeg" width="2048.00" height="1536.00" transform="matrix(0.50, 0.00, -0.00, -0.50, 0.0, 768.0)"></image></g></g><image xlink:href="../../E61FA3BF-4367-4D1B-A204-D6F0670C07A4/assets/2D325C27910C1BCF1F96BAA8FD0B51F5.png" width="783.00" height="60.00" transform="matrix(1.00, 0.00, -0.00, -1.00, 121.0, 475.0)"></image><text xml:space="preserve" font-family="HelveticaNeue-Bold,Helvetica Neue" font-weight="bold" font-size="56.3" fill="#FEFFFE" transform="matrix(1.00, 0.00, -0.00, -1.00, 121.5, 431.9)">F</text><text xml:space="preserve" font-family="HelveticaNeue-Bold,Helvetica Neue" font-weight="bold" font-size="56.3" fill="#FEFFFE" transform="matrix(1.00, 0.00, -0.00, -1.00, 154.9, 431.9)">o</text><text xml:space="preserve" font-family="HelveticaNeue-Bold,Helvetica Neue" font-weight="bold" font-size="56.3" fill="#FEFFFE" transform="matrix(1.00, 0.00, -0.00, -1.00, 189.3, 431.9)">r</text><text xml:space="preserve" font-family="HelveticaNeue-Bold,Helvetica Neue" font-weight="bold" font-size="56.3" fill="#FEFFFE" transform="matrix(1.00, 0.00, -0.00, -1.00, 211.2, 431.9)"> </text><text xml:space="preserve" font-family="HelveticaNeue-Bold,Helvetica Neue" font-weight="bold" font-size="56.3" fill="#FEFFFE" transform="matrix(1.00, 0.00, -0.00, -1.00, 226.9, 431.9)">p</text><text xml:space="preserve" font-family="HelveticaNeue-Bold,Helvetica Neue" font-weight="bold" font-size="56.3" fill="#FEFFFE" transform="matrix(1.00, 0.00, -0.00, -1.00, 261.3, 431.9)">o</text><text xml:space="preserve" font-family="HelveticaNeue-Bold,Helvetica Neue" font-weight="bold" font-size="56.3" fill="#FEFFFE" transform="matrix(1.00, 0.00, -0.00, -1.00, 295.7, 431.9)">s</text><text xml:space="preserve" font-family="HelveticaNeue-Bold,Helvetica Neue" font-weight="bold" font-size="56.3" fill="#FEFFFE" transform="matrix(1.00, 0.00, -0.00, -1.00, 325.9, 431.9)">t</text><text xml:space="preserve" font-family="HelveticaNeue-Bold,Helvetica Neue" font-weight="bold" font-size="56.3" fill="#FEFFFE" transform="matrix(1.00, 0.00, -0.00, -1.00, 345.8, 431.9)">m</text><text xml:space="preserve" font-family="HelveticaNeue-Bold,Helvetica Neue" font-weight="bold" font-size="56.3" fill="#FEFFFE" transform="matrix(1.00, 0.00, -0.00, -1.00, 396.8, 431.9)">e</text><text xml:space="preserve" font-family="HelveticaNeue-Bold,Helvetica Neue" font-weight="bold" font-size="56.3" fill="#FEFFFE" transform="matrix(1.00, 0.00, -0.00, -1.00, 429.1, 431.9)">n</text><text xml:space="preserve" font-family="HelveticaNeue-Bold,Helvetica Neue" font-weight="bold" font-size="56.3" fill="#FEFFFE" transform="matrix(1.00, 0.00, -0.00, -1.00, 462.5, 431.9)">o</text><text xml:space="preserve" font-family="HelveticaNeue-Bold,Helvetica Neue" font-weight="bold" font-size="56.3" fill="#FEFFFE" transform="matrix(1.00, 0.00, -0.00, -1.00, 496.9, 431.9)">p</text><text xml:space="preserve" font-family="HelveticaNeue-Bold,Helvetica Neue" font-weight="bold" font-size="56.3" fill="#FEFFFE" transform="matrix(1.00, 0.00, -0.00, -1.00, 531.3, 431.9)">a</text><text xml:space="preserve" font-family="HelveticaNeue-Bold,Helvetica Neue" font-weight="bold" font-size="56.3" fill="#FEFFFE" transform="matrix(1.00, 0.00, -0.00, -1.00, 563.7, 431.9)">u</text><text xml:space="preserve" font-family="HelveticaNeue-Bold,Helvetica Neue" font-weight="bold" font-size="56.3" fill="#FEFFFE" transform="matrix(1.00, 0.00, -0.00, -1.00, 597.1, 431.9)">s</text><text xml:space="preserve" font-family="HelveticaNeue-Bold,Helvetica Neue" font-weight="bold" font-size="56.3" fill="#FEFFFE" transform="matrix(1.00, 0.00, -0.00, -1.00, 627.3, 431.9)">a</text><text xml:space="preserve" font-family="HelveticaNeue-Bold,Helvetica Neue" font-weight="bold" font-size="56.3" fill="#FEFFFE" transform="matrix(1.00, 0.00, -0.00, -1.00, 659.6, 431.9)">l</text><text xml:space="preserve" font-family="HelveticaNeue-Bold,Helvetica Neue" font-weight="bold" font-size="56.3" fill="#FEFFFE" transform="matrix(1.00, 0.00, -0.00, -1.00, 674.2, 431.9)"> </text><text xml:space="preserve" font-family="HelveticaNeue-Bold,Helvetica Neue" font-weight="bold" font-size="56.3" fill="#FEFFFE" transform="matrix(1.00, 0.00, -0.00, -1.00, 689.8, 431.9)">w</text><text xml:space="preserve" font-family="HelveticaNeue-Bold,Helvetica Neue" font-weight="bold" font-size="56.3" fill="#FEFFFE" transform="matrix(1.00, 0.00, -0.00, -1.00, 735.7, 431.9)">o</text><text xml:space="preserve" font-family="HelveticaNeue-Bold,Helvetica Neue" font-weight="bold" font-size="56.3" fill="#FEFFFE" transform="matrix(1.00, 0.00, -0.00, -1.00, 770.1, 431.9)">m</text><text xml:space="preserve" font-family="HelveticaNeue-Bold,Helvetica Neue" font-weight="bold" font-size="56.3" fill="#FEFFFE" transform="matrix(1.00, 0.00, -0.00, -1.00, 821.1, 431.9)">e</text><text xml:space="preserve" font-family="HelveticaNeue-Bold,Helvetica Neue" font-weight="bold" font-size="56.3" fill="#FEFFFE" transform="matrix(1.00, 0.00, -0.00, -1.00, 853.4, 431.9)">n</text><text xml:space="preserve" font-family="HelveticaNeue-Bold,Helvetica Neue" font-weight="bold" font-size="56.3" fill="#FEFFFE" transform="matrix(1.00, 0.00, -0.00, -1.00, 886.8, 431.9)">,</text><text xml:space="preserve" font-family="HelveticaNeue-Bold,Helvetica Neue" font-weight="bold" font-size="56.3" fill="#FEFFFE" transform="matrix(1.00, 0.00, -0.00, -1.00, 902.5, 431.9)"> </text><image xlink:href="../../E61FA3BF-4367-4D1B-A204-D6F0670C07A4/assets/5DE741EB144221E0D006C6DD73F5EB02.png" width="716.00" height="52.00" transform="matrix(1.00, 0.00, -0.00, -1.00, 119.0, 407.0)"></image><text xml:space="preserve" font-family="HelveticaNeue-Bold,Helvetica Neue" font-weight="bold" font-size="56.3" fill="#FEFFFE" transform="matrix(1.00, 0.00, -0.00, -1.00, 124.0, 362.9)">A</text><text xml:space="preserve" font-family="HelveticaNeue-Bold,Helvetica Neue" font-weight="bold" font-size="56.3" fill="#FEFFFE" transform="matrix(1.00, 0.00, -0.00, -1.00, 162.6, 362.9)">I</text><text xml:space="preserve" font-family="HelveticaNeue-Bold,Helvetica Neue" font-weight="bold" font-size="56.3" fill="#FEFFFE" transform="matrix(1.00, 0.00, -0.00, -1.00, 179.2, 362.9)">s</text><text xml:space="preserve" font-family="HelveticaNeue-Bold,Helvetica Neue" font-weight="bold" font-size="56.3" fill="#FEFFFE" transform="matrix(1.00, 0.00, -0.00, -1.00, 209.4, 362.9)"> </text><text xml:space="preserve" font-family="HelveticaNeue-Bold,Helvetica Neue" font-weight="bold" font-size="56.3" fill="#FEFFFE" transform="matrix(1.00, 0.00, -0.00, -1.00, 225.1, 362.9)">a</text><text xml:space="preserve" font-family="HelveticaNeue-Bold,Helvetica Neue" font-weight="bold" font-size="56.3" fill="#FEFFFE" transform="matrix(1.00, 0.00, -0.00, -1.00, 257.4, 362.9)">r</text><text xml:space="preserve" font-family="HelveticaNeue-Bold,Helvetica Neue" font-weight="bold" font-size="56.3" fill="#FEFFFE" transform="matrix(1.00, 0.00, -0.00, -1.00, 278.3, 362.9)">e</text><text xml:space="preserve" font-family="HelveticaNeue-Bold,Helvetica Neue" font-weight="bold" font-size="56.3" fill="#FEFFFE" transform="matrix(1.00, 0.00, -0.00, -1.00, 310.6, 362.9)"> </text><text xml:space="preserve" font-family="HelveticaNeue-Bold,Helvetica Neue" font-weight="bold" font-size="56.3" fill="#FEFFFE" transform="matrix(1.00, 0.00, -0.00, -1.00, 326.3, 362.9)">b</text><text xml:space="preserve" font-family="HelveticaNeue-Bold,Helvetica Neue" font-weight="bold" font-size="56.3" fill="#FEFFFE" transform="matrix(1.00, 0.00, -0.00, -1.00, 360.7, 362.9)">e</text><text xml:space="preserve" font-family="HelveticaNeue-Bold,Helvetica Neue" font-weight="bold" font-size="56.3" fill="#FEFFFE" transform="matrix(1.00, 0.00, -0.00, -1.00, 393.0, 362.9)">t</text><text xml:space="preserve" font-family="HelveticaNeue-Bold,Helvetica Neue" font-weight="bold" font-size="56.3" fill="#FEFFFE" transform="matrix(1.00, 0.00, -0.00, -1.00, 412.8, 362.9)">t</text><text xml:space="preserve" font-family="HelveticaNeue-Bold,Helvetica Neue" font-weight="bold" font-size="56.3" fill="#FEFFFE" transform="matrix(1.00, 0.00, -0.00, -1.00, 432.7, 362.9)">e</text><text xml:space="preserve" font-family="HelveticaNeue-Bold,Helvetica Neue" font-weight="bold" font-size="56.3" fill="#FEFFFE" transform="matrix(1.00, 0.00, -0.00, -1.00, 465.0, 362.9)">r</text><text xml:space="preserve" font-family="HelveticaNeue-Bold,Helvetica Neue" font-weight="bold" font-size="56.3" fill="#FEFFFE" transform="matrix(1.00, 0.00, -0.00, -1.00, 486.9, 362.9)"> </text><text xml:space="preserve" font-family="HelveticaNeue-Bold,Helvetica Neue" font-weight="bold" font-size="56.3" fill="#FEFFFE" transform="matrix(1.00, 0.00, -0.00, -1.00, 502.6, 362.9)">t</text><text xml:space="preserve" font-family="HelveticaNeue-Bold,Helvetica Neue" font-weight="bold" font-size="56.3" fill="#FEFFFE" transform="matrix(1.00, 0.00, -0.00, -1.00, 522.4, 362.9)">h</text><text xml:space="preserve" font-family="HelveticaNeue-Bold,Helvetica Neue" font-weight="bold" font-size="56.3" fill="#FEFFFE" transform="matrix(1.00, 0.00, -0.00, -1.00, 555.8, 362.9)">a</text><text xml:space="preserve" font-family="HelveticaNeue-Bold,Helvetica Neue" font-weight="bold" font-size="56.3" fill="#FEFFFE" transform="matrix(1.00, 0.00, -0.00, -1.00, 588.1, 362.9)">n</text><text xml:space="preserve" font-family="HelveticaNeue-Bold,Helvetica Neue" font-weight="bold" font-size="56.3" fill="#FEFFFE" transform="matrix(1.00, 0.00, -0.00, -1.00, 621.5, 362.9)"> </text><text xml:space="preserve" font-family="HelveticaNeue-Bold,Helvetica Neue" font-weight="bold" font-size="56.3" fill="#FEFFFE" transform="matrix(1.00, 0.00, -0.00, -1.00, 637.2, 362.9)">S</text><text xml:space="preserve" font-family="HelveticaNeue-Bold,Helvetica Neue" font-weight="bold" font-size="56.3" fill="#FEFFFE" transform="matrix(1.00, 0.00, -0.00, -1.00, 673.7, 362.9)">E</text><text xml:space="preserve" font-family="HelveticaNeue-Bold,Helvetica Neue" font-weight="bold" font-size="56.3" fill="#FEFFFE" transform="matrix(1.00, 0.00, -0.00, -1.00, 710.2, 362.9)">R</text><text xml:space="preserve" font-family="HelveticaNeue-Bold,Helvetica Neue" font-weight="bold" font-size="56.3" fill="#FEFFFE" transform="matrix(1.00, 0.00, -0.00, -1.00, 750.9, 362.9)">M</text><text xml:space="preserve" font-family="HelveticaNeue-Bold,Helvetica Neue" font-weight="bold" font-size="56.3" fill="#FEFFFE" transform="matrix(1.00, 0.00, -0.00, -1.00, 802.0, 362.9)">s</text><image xlink:href="../../E61FA3BF-4367-4D1B-A204-D6F0670C07A4/assets/0C46D87EA4FA3743E5E69A1A71870DA7.png" width="59.00" height="47.00" transform="matrix(1.00, 0.00, -0.00, -1.00, 845.0, 403.0)"></image><text xml:space="preserve" font-family="HelveticaNeue-Bold,Helvetica Neue" font-weight="bold" font-size="56.3" fill="#FEFFFE" transform="matrix(1.00, 0.00, -0.00, -1.00, 832.2, 362.9)"> </text><text xml:space="preserve" font-family="HelveticaNeue-Bold,Helvetica Neue" font-weight="bold" font-size="56.3" fill="#FEFFFE" transform="matrix(1.00, 0.00, -0.00, -1.00, 847.9, 362.9)">a</text><text xml:space="preserve" font-family="HelveticaNeue-Bold,Helvetica Neue" font-weight="bold" font-size="56.3" fill="#FEFFFE" transform="matrix(1.00, 0.00, -0.00, -1.00, 880.2, 362.9)">t</text><text xml:space="preserve" font-family="HelveticaNeue-Bold,Helvetica Neue" font-weight="bold" font-size="56.3" fill="#FEFFFE" transform="matrix(1.00, 0.00, -0.00, -1.00, 900.0, 362.9)"> </text><image xlink:href="../../E61FA3BF-4367-4D1B-A204-D6F0670C07A4/assets/7F165927FB0BBE01710B01583F20BFA3.png" width="597.00" height="61.00" transform="matrix(1.00, 0.00, -0.00, -1.00, 214.0, 337.0)"></image><text xml:space="preserve" font-family="HelveticaNeue-Bold,Helvetica Neue" font-weight="bold" font-size="56.3" fill="#FEFFFE" transform="matrix(1.00, 0.00, -0.00, -1.00, 215.7, 293.9)">p</text><text xml:space="preserve" font-family="HelveticaNeue-Bold,Helvetica Neue" font-weight="bold" font-size="56.3" fill="#FEFFFE" transform="matrix(1.00, 0.00, -0.00, -1.00, 250.1, 293.9)">r</text><text xml:space="preserve" font-family="HelveticaNeue-Bold,Helvetica Neue" font-weight="bold" font-size="56.3" fill="#FEFFFE" transform="matrix(1.00, 0.00, -0.00, -1.00, 271.0, 293.9)">e</text><text xml:space="preserve" font-family="HelveticaNeue-Bold,Helvetica Neue" font-weight="bold" font-size="56.3" fill="#FEFFFE" transform="matrix(1.00, 0.00, -0.00, -1.00, 303.3, 293.9)">v</text><text xml:space="preserve" font-family="HelveticaNeue-Bold,Helvetica Neue" font-weight="bold" font-size="56.3" fill="#FEFFFE" transform="matrix(1.00, 0.00, -0.00, -1.00, 332.6, 293.9)">e</text><text xml:space="preserve" font-family="HelveticaNeue-Bold,Helvetica Neue" font-weight="bold" font-size="56.3" fill="#FEFFFE" transform="matrix(1.00, 0.00, -0.00, -1.00, 364.9, 293.9)">n</text><text xml:space="preserve" font-family="HelveticaNeue-Bold,Helvetica Neue" font-weight="bold" font-size="56.3" fill="#FEFFFE" transform="matrix(1.00, 0.00, -0.00, -1.00, 398.3, 293.9)">t</text><text xml:space="preserve" font-family="HelveticaNeue-Bold,Helvetica Neue" font-weight="bold" font-size="56.3" fill="#FEFFFE" transform="matrix(1.00, 0.00, -0.00, -1.00, 418.2, 293.9)">i</text><text xml:space="preserve" font-family="HelveticaNeue-Bold,Helvetica Neue" font-weight="bold" font-size="56.3" fill="#FEFFFE" transform="matrix(1.00, 0.00, -0.00, -1.00, 432.7, 293.9)">n</text><text xml:space="preserve" font-family="HelveticaNeue-Bold,Helvetica Neue" font-weight="bold" font-size="56.3" fill="#FEFFFE" transform="matrix(1.00, 0.00, -0.00, -1.00, 466.1, 293.9)">g</text><text xml:space="preserve" font-family="HelveticaNeue-Bold,Helvetica Neue" font-weight="bold" font-size="56.3" fill="#FEFFFE" transform="matrix(1.00, 0.00, -0.00, -1.00, 500.5, 293.9)"> </text><text xml:space="preserve" font-family="HelveticaNeue-Bold,Helvetica Neue" font-weight="bold" font-size="56.3" fill="#FEFFFE" transform="matrix(1.00, 0.00, -0.00, -1.00, 516.2, 293.9)">r</text><text xml:space="preserve" font-family="HelveticaNeue-Bold,Helvetica Neue" font-weight="bold" font-size="56.3" fill="#FEFFFE" transform="matrix(1.00, 0.00, -0.00, -1.00, 537.1, 293.9)">e</text><text xml:space="preserve" font-family="HelveticaNeue-Bold,Helvetica Neue" font-weight="bold" font-size="56.3" fill="#FEFFFE" transform="matrix(1.00, 0.00, -0.00, -1.00, 569.4, 293.9)">c</text><text xml:space="preserve" font-family="HelveticaNeue-Bold,Helvetica Neue" font-weight="bold" font-size="56.3" fill="#FEFFFE" transform="matrix(1.00, 0.00, -0.00, -1.00, 601.7, 293.9)">u</text><text xml:space="preserve" font-family="HelveticaNeue-Bold,Helvetica Neue" font-weight="bold" font-size="56.3" fill="#FEFFFE" transform="matrix(1.00, 0.00, -0.00, -1.00, 635.1, 293.9)">r</text><text xml:space="preserve" font-family="HelveticaNeue-Bold,Helvetica Neue" font-weight="bold" font-size="56.3" fill="#FEFFFE" transform="matrix(1.00, 0.00, -0.00, -1.00, 657.0, 293.9)">r</text><text xml:space="preserve" font-family="HelveticaNeue-Bold,Helvetica Neue" font-weight="bold" font-size="56.3" fill="#FEFFFE" transform="matrix(1.00, 0.00, -0.00, -1.00, 677.9, 293.9)">e</text><text xml:space="preserve" font-family="HelveticaNeue-Bold,Helvetica Neue" font-weight="bold" font-size="56.3" fill="#FEFFFE" transform="matrix(1.00, 0.00, -0.00, -1.00, 710.2, 293.9)">n</text><text xml:space="preserve" font-family="HelveticaNeue-Bold,Helvetica Neue" font-weight="bold" font-size="56.3" fill="#FEFFFE" transform="matrix(1.00, 0.00, -0.00, -1.00, 743.6, 293.9)">c</text><text xml:space="preserve" font-family="HelveticaNeue-Bold,Helvetica Neue" font-weight="bold" font-size="56.3" fill="#FEFFFE" transform="matrix(1.00, 0.00, -0.00, -1.00, 776.0, 293.9)">e</text></g></svg>