<?xml version="1.0" encoding="UTF-8" standalone="no"?><svg xmlns="http://www.w3.org/2000/svg" xmlns:xlink="http://www.w3.org/1999/xlink" clip-rule="evenodd" stroke-miterlimit="4.00" viewBox="0 0 1024 768"><desc>SVG generated by Keynote</desc><defs></defs><g transform="matrix(1.00, 0.00, -0.00, -1.00, 0.0, 768.0)"><path d="M 0.0 768.0 L 1024.0 768.0 L 1024.0 0.0 L 0.0 0.0 Z M 0.0 768.0 " fill="#FEFFFE"></path><path d="M 0.0 0.0 L 934.5 0.0 " fill="none" stroke="#9A9A9A" stroke-width="1.00" transform="matrix(1.00, 0.00, 0.00, -1.00, 45.0, 613.0)"></path><text xml:space="preserve" font-family="HelveticaNeue-Light" font-size="42.0" fill="#000000" transform="matrix(1.00, 0.00, -0.00, -1.00, 49.0, 645.0)">L</text><text xml:space="preserve" font-family="HelveticaNeue-Light" font-size="42.0" fill="#000000" transform="matrix(1.00, 0.00, -0.00, -1.00, 71.6, 645.0)">o</text><text xml:space="preserve" font-family="HelveticaNeue-Light" font-size="42.0" fill="#000000" transform="matrix(1.00, 0.00, -0.00, -1.00, 94.9, 645.0)">w</text><text xml:space="preserve" font-family="HelveticaNeue-Light" font-size="42.0" fill="#000000" transform="matrix(1.00, 0.00, -0.00, -1.00, 126.0, 645.0)"> </text><text xml:space="preserve" font-family="HelveticaNeue-Light" font-size="42.0" fill="#000000" transform="matrix(1.00, 0.00, -0.00, -1.00, 137.7, 645.0)">n</text><text xml:space="preserve" font-family="HelveticaNeue-Light" font-size="42.0" fill="#000000" transform="matrix(1.00, 0.00, -0.00, -1.00, 160.3, 645.0)">o</text><text xml:space="preserve" font-family="HelveticaNeue-Light" font-size="42.0" fill="#000000" transform="matrix(1.00, 0.00, -0.00, -1.00, 183.6, 645.0)">n</text><text xml:space="preserve" font-family="HelveticaNeue-Light" font-size="42.0" fill="#000000" transform="matrix(1.00, 0.00, -0.00, -1.00, 206.2, 645.0)">-</text><text xml:space="preserve" font-family="HelveticaNeue-Light" font-size="42.0" fill="#000000" transform="matrix(1.00, 0.00, -0.00, -1.00, 221.7, 645.0)">r</text><text xml:space="preserve" font-family="HelveticaNeue-Light" font-size="42.0" fill="#000000" transform="matrix(1.00, 0.00, -0.00, -1.00, 234.2, 645.0)">e</text><text xml:space="preserve" font-family="HelveticaNeue-Light" font-size="42.0" fill="#000000" transform="matrix(1.00, 0.00, -0.00, -1.00, 256.0, 645.0)">l</text><text xml:space="preserve" font-family="HelveticaNeue-Light" font-size="42.0" fill="#000000" transform="matrix(1.00, 0.00, -0.00, -1.00, 263.7, 645.0)">a</text><text xml:space="preserve" font-family="HelveticaNeue-Light" font-size="42.0" fill="#000000" transform="matrix(1.00, 0.00, -0.00, -1.00, 285.5, 645.0)">p</text><text xml:space="preserve" font-family="HelveticaNeue-Light" font-size="42.0" fill="#000000" transform="matrix(1.00, 0.00, -0.00, -1.00, 309.7, 645.0)">s</text><text xml:space="preserve" font-family="HelveticaNeue-Light" font-size="42.0" fill="#000000" transform="matrix(1.00, 0.00, -0.00, -1.00, 329.9, 645.0)">e</text><text xml:space="preserve" font-family="HelveticaNeue-Light" font-size="42.0" fill="#000000" transform="matrix(1.00, 0.00, -0.00, -1.00, 351.7, 645.0)"> </text><text xml:space="preserve" font-family="HelveticaNeue-Light" font-size="42.0" fill="#000000" transform="matrix(1.00, 0.00, -0.00, -1.00, 363.3, 645.0)">m</text><text xml:space="preserve" font-family="HelveticaNeue-Light" font-size="42.0" fill="#000000" transform="matrix(1.00, 0.00, -0.00, -1.00, 398.3, 645.0)">o</text><text xml:space="preserve" font-family="HelveticaNeue-Light" font-size="42.0" fill="#000000" transform="matrix(1.00, 0.00, -0.00, -1.00, 421.7, 645.0)">r</text><text xml:space="preserve" font-family="HelveticaNeue-Light" font-size="42.0" fill="#000000" transform="matrix(1.00, 0.00, -0.00, -1.00, 434.9, 645.0)">t</text><text xml:space="preserve" font-family="HelveticaNeue-Light" font-size="42.0" fill="#000000" transform="matrix(1.00, 0.00, -0.00, -1.00, 447.3, 645.0)">a</text><text xml:space="preserve" font-family="HelveticaNeue-Light" font-size="42.0" fill="#000000" transform="matrix(1.00, 0.00, -0.00, -1.00, 469.1, 645.0)">l</text><text xml:space="preserve" font-family="HelveticaNeue-Light" font-size="42.0" fill="#000000" transform="matrix(1.00, 0.00, -0.00, -1.00, 476.9, 645.0)">i</text><text xml:space="preserve" font-family="HelveticaNeue-Light" font-size="42.0" fill="#000000" transform="matrix(1.00, 0.00, -0.00, -1.00, 484.7, 645.0)">t</text><text xml:space="preserve" font-family="HelveticaNeue-Light" font-size="42.0" fill="#000000" transform="matrix(1.00, 0.00, -0.00, -1.00, 497.1, 645.0)">y</text><text xml:space="preserve" font-family="HelveticaNeue-Light" font-size="42.0" fill="#000000" transform="matrix(1.00, 0.00, -0.00, -1.00, 516.5, 645.0)"> </text><text xml:space="preserve" font-family="HelveticaNeue-Light" font-size="42.0" fill="#000000" transform="matrix(1.00, 0.00, -0.00, -1.00, 528.2, 645.0)">f</text><text xml:space="preserve" font-family="HelveticaNeue-Light" font-size="42.0" fill="#000000" transform="matrix(1.00, 0.00, -0.00, -1.00, 539.1, 645.0)">o</text><text xml:space="preserve" font-family="HelveticaNeue-Light" font-size="42.0" fill="#000000" transform="matrix(1.00, 0.00, -0.00, -1.00, 562.4, 645.0)">r</text><text xml:space="preserve" font-family="HelveticaNeue-Light" font-size="42.0" fill="#000000" transform="matrix(1.00, 0.00, -0.00, -1.00, 575.7, 645.0)"> </text><text xml:space="preserve" font-family="HelveticaNeue-Light" font-size="42.0" fill="#000000" transform="matrix(1.00, 0.00, -0.00, -1.00, 587.4, 645.0)">b</text><text xml:space="preserve" font-family="HelveticaNeue-Light" font-size="42.0" fill="#000000" transform="matrix(1.00, 0.00, -0.00, -1.00, 611.5, 645.0)">o</text><text xml:space="preserve" font-family="HelveticaNeue-Light" font-size="42.0" fill="#000000" transform="matrix(1.00, 0.00, -0.00, -1.00, 634.8, 645.0)">t</text><text xml:space="preserve" font-family="HelveticaNeue-Light" font-size="42.0" fill="#000000" transform="matrix(1.00, 0.00, -0.00, -1.00, 647.2, 645.0)">h</text><text xml:space="preserve" font-family="HelveticaNeue-Light" font-size="42.0" fill="#000000" transform="matrix(1.00, 0.00, -0.00, -1.00, 669.8, 645.0)"> </text><text xml:space="preserve" font-family="HelveticaNeue-Light" font-size="42.0" fill="#000000" transform="matrix(1.00, 0.00, -0.00, -1.00, 681.5, 645.0)">M</text><text xml:space="preserve" font-family="HelveticaNeue-Light" font-size="42.0" fill="#000000" transform="matrix(1.00, 0.00, -0.00, -1.00, 716.0, 645.0)">R</text><text xml:space="preserve" font-family="HelveticaNeue-Light" font-size="42.0" fill="#000000" transform="matrix(1.00, 0.00, -0.00, -1.00, 744.0, 645.0)">D</text><text xml:space="preserve" font-family="HelveticaNeue-Light" font-size="42.0" fill="#000000" transform="matrix(1.00, 0.00, -0.00, -1.00, 772.7, 645.0)"> </text><text xml:space="preserve" font-family="HelveticaNeue-Light" font-size="42.0" fill="#000000" transform="matrix(1.00, 0.00, -0.00, -1.00, 784.4, 645.0)">a</text><text xml:space="preserve" font-family="HelveticaNeue-Light" font-size="42.0" fill="#000000" transform="matrix(1.00, 0.00, -0.00, -1.00, 806.2, 645.0)">n</text><text xml:space="preserve" font-family="HelveticaNeue-Light" font-size="42.0" fill="#000000" transform="matrix(1.00, 0.00, -0.00, -1.00, 828.8, 645.0)">d</text><text xml:space="preserve" font-family="HelveticaNeue-Light" font-size="42.0" fill="#000000" transform="matrix(1.00, 0.00, -0.00, -1.00, 852.9, 645.0)"> </text><text xml:space="preserve" font-family="HelveticaNeue-Light" font-size="42.0" fill="#000000" transform="matrix(1.00, 0.00, -0.00, -1.00, 864.6, 645.0)">M</text><text xml:space="preserve" font-family="HelveticaNeue-Light" font-size="42.0" fill="#000000" transform="matrix(1.00, 0.00, -0.00, -1.00, 899.0, 645.0)">U</text><text xml:space="preserve" font-family="HelveticaNeue-Light" font-size="42.0" fill="#000000" transform="matrix(1.00, 0.00, -0.00, -1.00, 927.8, 645.0)">D</text><g><clipPath id="clip-1342"><path d="M 182.0 71.0 L 842.0 71.0 L 842.0 592.0 L 182.0 592.0 Z M 182.0 71.0 "></path></clipPath><g clip-path="url(#clip-1342)"><image xlink:href="004C2787A73EF981CD1ADCDC76D6B624.png" width="1856.00" height="1466.00" transform="matrix(0.36, 0.00, -0.00, -0.36, 182.0, 592.0)"></image></g></g><text xml:space="preserve" font-family="HelveticaNeue-Light" font-size="22.0" fill="#000000" transform="matrix(1.00, 0.00, -0.00, -1.00, 414.0, 337.0)">1</text><text xml:space="preserve" font-family="HelveticaNeue-Light" font-size="22.0" fill="#000000" transform="matrix(1.00, 0.00, -0.00, -1.00, 426.2, 337.0)">0</text><text xml:space="preserve" font-family="HelveticaNeue-Light" font-size="22.0" fill="#000000" transform="matrix(1.00, 0.00, -0.00, -1.00, 438.5, 337.0)">0</text><text xml:space="preserve" font-family="HelveticaNeue-Light" font-size="22.0" fill="#000000" transform="matrix(1.00, 0.00, -0.00, -1.00, 450.7, 337.0)">d</text><text xml:space="preserve" font-family="HelveticaNeue-Light" font-size="22.0" fill="#000000" transform="matrix(1.00, 0.00, -0.00, -1.00, 463.3, 337.0)"> </text><text xml:space="preserve" font-family="HelveticaNeue-Bold" font-weight="bold" font-size="22.0" fill="#000000" transform="matrix(1.00, 0.00, -0.00, -1.00, 421.0, 310.0)">9</text><text xml:space="preserve" font-family="HelveticaNeue-Bold" font-weight="bold" font-size="22.0" fill="#000000" transform="matrix(1.00, 0.00, -0.00, -1.00, 433.2, 310.0)">%</text><text xml:space="preserve" font-family="HelveticaNeue-Light" font-size="22.0" fill="#000000" transform="matrix(1.00, 0.00, -0.00, -1.00, 753.0, 337.0)">1</text><text xml:space="preserve" font-family="HelveticaNeue-Light" font-size="22.0" fill="#000000" transform="matrix(1.00, 0.00, -0.00, -1.00, 765.2, 337.0)">y</text><text xml:space="preserve" font-family="HelveticaNeue-Light" font-size="22.0" fill="#000000" transform="matrix(1.00, 0.00, -0.00, -1.00, 775.4, 337.0)"> </text><text xml:space="preserve" font-family="HelveticaNeue-Bold" font-weight="bold" font-size="22.0" fill="#000000" transform="matrix(1.00, 0.00, -0.00, -1.00, 741.0, 310.0)">1</text><text xml:space="preserve" font-family="HelveticaNeue-Bold" font-weight="bold" font-size="22.0" fill="#000000" transform="matrix(1.00, 0.00, -0.00, -1.00, 753.2, 310.0)">6</text><text xml:space="preserve" font-family="HelveticaNeue-Bold" font-weight="bold" font-size="22.0" fill="#000000" transform="matrix(1.00, 0.00, -0.00, -1.00, 765.5, 310.0)">%</text><g><clipPath id="clip-1343"><path d="M -1.0 28.0 L 407.0 28.0 L 407.0 4.0 L -1.0 4.0 Z M -0.6 28.3 "></path></clipPath><g clip-path="url(#clip-1343)"><g><clipPath id="clip-1344"><path d="M -253.0 -20.0 L 771.0 -20.0 L 771.0 400.0 L -253.0 400.0 Z M -253.0 -20.0 "></path></clipPath><g clip-path="url(#clip-1344)"><image xlink:href="../../1A125B58-79F8-4AAE-B93F-62EA3D8F2646/assets/3098EE97F28A71B0052C05FDC0C77FDD.png" width="2582.00" height="1058.00" transform="matrix(0.40, 0.00, -0.00, -0.40, -253.0, 400.0)"></image></g></g></g></g><g><clipPath id="clip-1345"><path d="M 792.0 4.0 L 1025.0 4.0 L 1025.0 29.0 L 792.0 29.0 Z M 792.0 4.0 "></path></clipPath><g clip-path="url(#clip-1345)"><image xlink:href="../../1A125B58-79F8-4AAE-B93F-62EA3D8F2646/assets/9499503848631FC8D35B85ECA2A674A4.png" width="576.00" height="62.00" transform="matrix(0.40, 0.00, -0.00, -0.40, 792.0, 29.0)"></image></g></g></g></svg>