<?xml version="1.0" encoding="UTF-8" standalone="no"?><svg xmlns="http://www.w3.org/2000/svg" xmlns:xlink="http://www.w3.org/1999/xlink" clip-rule="evenodd" stroke-miterlimit="4.00" viewBox="0 0 560 119"><desc>SVG generated by Keynote</desc><defs></defs><g transform="matrix(1.00, 0.00, -0.00, -1.00, 0.0, 119.0)"><path d="M 18.5 0.0 L 532.5 0.0 C 537.8 0.0 540.5 0.0 543.4 0.9 C 546.5 2.0 549.0 4.5 550.1 7.6 C 551.0 10.5 551.0 13.2 551.0 18.5 L 551.0 92.4 C 551.0 97.7 551.0 100.4 550.1 103.2 C 549.0 106.4 546.5 108.8 543.4 110.0 C 540.5 110.9 537.8 110.9 532.5 110.9 L 18.5 110.9 C 13.2 110.9 10.5 110.9 7.6 110.0 C 4.5 108.8 2.0 106.4 0.9 103.2 C 0.0 100.4 0.0 97.7 0.0 92.3 L 0.0 18.5 C 0.0 13.2 0.0 10.5 0.9 7.6 C 2.0 4.5 4.5 2.0 7.6 0.9 C 10.5 0.0 13.2 0.0 18.5 0.0 Z M 18.5 0.0 " fill="none" stroke="#FF2600" stroke-width="6.00" transform="matrix(1.00, 0.00, 0.00, -1.00, 4.2, 115.0)"></path></g></svg>