<?xml version="1.0" encoding="UTF-8" standalone="no"?><svg xmlns="http://www.w3.org/2000/svg" xmlns:xlink="http://www.w3.org/1999/xlink" clip-rule="evenodd" stroke-miterlimit="4.00" viewBox="0 0 1024 768"><desc>SVG generated by Keynote</desc><defs></defs><g transform="matrix(1.00, 0.00, -0.00, -1.00, 0.0, 768.0)"><path d="M 0.0 768.0 L 1024.0 768.0 L 1024.0 0.0 L 0.0 0.0 Z M 0.0 768.0 " fill="#FEFFFE"></path><g><clipPath id="clip-1338"><path d="M 234.0 58.0 L 791.0 58.0 L 791.0 762.0 L 234.0 762.0 Z M 234.0 58.0 "></path></clipPath><g clip-path="url(#clip-1338)"><image xlink:href="../../3AB35FAA-A90B-48C9-8BF2-D69244D5360B/assets/C93EB16CC68253F1641BA528579B6FD7.png" width="1114.00" height="1408.00" transform="matrix(0.50, 0.00, -0.00, -0.50, 234.0, 762.0)"></image></g></g><g><clipPath id="clip-1339"><path d="M -1.0 28.0 L 407.0 28.0 L 407.0 4.0 L -1.0 4.0 Z M -0.6 28.3 "></path></clipPath><g clip-path="url(#clip-1339)"><g><clipPath id="clip-1340"><path d="M -253.0 -20.0 L 771.0 -20.0 L 771.0 400.0 L -253.0 400.0 Z M -253.0 -20.0 "></path></clipPath><g clip-path="url(#clip-1340)"><image xlink:href="../../1A125B58-79F8-4AAE-B93F-62EA3D8F2646/assets/3098EE97F28A71B0052C05FDC0C77FDD.png" width="2582.00" height="1058.00" transform="matrix(0.40, 0.00, -0.00, -0.40, -253.0, 400.0)"></image></g></g></g></g><g><clipPath id="clip-1341"><path d="M 792.0 4.0 L 1025.0 4.0 L 1025.0 29.0 L 792.0 29.0 Z M 792.0 4.0 "></path></clipPath><g clip-path="url(#clip-1341)"><image xlink:href="../../1A125B58-79F8-4AAE-B93F-62EA3D8F2646/assets/9499503848631FC8D35B85ECA2A674A4.png" width="576.00" height="62.00" transform="matrix(0.40, 0.00, -0.00, -0.40, 792.0, 29.0)"></image></g></g><path d="M 18.5 0.0 L 532.5 0.0 C 537.8 0.0 540.5 0.0 543.4 0.9 C 546.5 2.0 549.0 4.5 550.1 7.6 C 551.0 10.5 551.0 13.2 551.0 18.5 L 551.0 92.4 C 551.0 97.7 551.0 100.4 550.1 103.2 C 549.0 106.4 546.5 108.8 543.4 110.0 C 540.5 110.9 537.8 110.9 532.5 110.9 L 18.5 110.9 C 13.2 110.9 10.5 110.9 7.6 110.0 C 4.5 108.8 2.0 106.4 0.9 103.2 C 0.0 100.4 0.0 97.7 0.0 92.3 L 0.0 18.5 C 0.0 13.2 0.0 10.5 0.9 7.6 C 2.0 4.5 4.5 2.0 7.6 0.9 C 10.5 0.0 13.2 0.0 18.5 0.0 Z M 18.5 0.0 " fill="none" stroke="#FF2600" stroke-width="6.00" transform="matrix(1.00, 0.00, 0.00, -1.00, 231.2, 285.0)"></path></g></svg>