<?xml version="1.0" encoding="UTF-8" standalone="no"?><svg xmlns="http://www.w3.org/2000/svg" xmlns:xlink="http://www.w3.org/1999/xlink" clip-rule="evenodd" stroke-miterlimit="4.00" viewBox="0 0 920 83"><desc>SVG generated by Keynote</desc><defs></defs><g transform="matrix(1.00, 0.00, -0.00, -1.00, 0.0, 83.0)"><text xml:space="preserve" font-family="HelveticaNeue-Light" font-size="39.1" fill="#000000" transform="matrix(1.00, 0.00, -0.00, -1.00, -1.0, 53.0)">D</text><text xml:space="preserve" font-family="HelveticaNeue-Light" font-size="39.1" fill="#000000" transform="matrix(1.00, 0.00, -0.00, -1.00, 25.8, 53.0)">o</text><text xml:space="preserve" font-family="HelveticaNeue-Light" font-size="39.1" fill="#000000" transform="matrix(1.00, 0.00, -0.00, -1.00, 47.5, 53.0)">n</text><text xml:space="preserve" font-family="HelveticaNeue-Light" font-size="39.1" fill="#000000" transform="matrix(1.00, 0.00, -0.00, -1.00, 68.4, 53.0)">o</text><text xml:space="preserve" font-family="HelveticaNeue-Light" font-size="39.1" fill="#000000" transform="matrix(1.00, 0.00, -0.00, -1.00, 90.2, 53.0)">r</text><text xml:space="preserve" font-family="HelveticaNeue-Light" font-size="39.1" fill="#000000" transform="matrix(1.00, 0.00, -0.00, -1.00, 102.5, 53.0)"> </text><text xml:space="preserve" font-family="HelveticaNeue-Light" font-size="39.1" fill="#000000" transform="matrix(1.00, 0.00, -0.00, -1.00, 113.3, 53.0)">s</text><text xml:space="preserve" font-family="HelveticaNeue-Light" font-size="39.1" fill="#000000" transform="matrix(1.00, 0.00, -0.00, -1.00, 132.1, 53.0)">p</text><text xml:space="preserve" font-family="HelveticaNeue-Light" font-size="39.1" fill="#000000" transform="matrix(1.00, 0.00, -0.00, -1.00, 154.5, 53.0)">l</text><text xml:space="preserve" font-family="HelveticaNeue-Light" font-size="39.1" fill="#000000" transform="matrix(1.00, 0.00, -0.00, -1.00, 161.8, 53.0)">e</text><text xml:space="preserve" font-family="HelveticaNeue-Light" font-size="39.1" fill="#000000" transform="matrix(1.00, 0.00, -0.00, -1.00, 182.0, 53.0)">e</text><text xml:space="preserve" font-family="HelveticaNeue-Light" font-size="39.1" fill="#000000" transform="matrix(1.00, 0.00, -0.00, -1.00, 202.3, 53.0)">n</text><text xml:space="preserve" font-family="HelveticaNeue-Light" font-size="39.1" fill="#000000" transform="matrix(1.00, 0.00, -0.00, -1.00, 223.3, 53.0)"> </text><text xml:space="preserve" font-family="HelveticaNeue-Light" font-size="39.1" fill="#000000" transform="matrix(1.00, 0.00, -0.00, -1.00, 234.1, 53.0)">c</text><text xml:space="preserve" font-family="HelveticaNeue-Light" font-size="39.1" fill="#000000" transform="matrix(1.00, 0.00, -0.00, -1.00, 254.4, 53.0)">e</text><text xml:space="preserve" font-family="HelveticaNeue-Light" font-size="39.1" fill="#000000" transform="matrix(1.00, 0.00, -0.00, -1.00, 274.7, 53.0)">l</text><text xml:space="preserve" font-family="HelveticaNeue-Light" font-size="39.1" fill="#000000" transform="matrix(1.00, 0.00, -0.00, -1.00, 281.9, 53.0)">l</text><text xml:space="preserve" font-family="HelveticaNeue-Light" font-size="39.1" fill="#000000" transform="matrix(1.00, 0.00, -0.00, -1.00, 289.1, 53.0)"> </text><text xml:space="preserve" font-family="HelveticaNeue-Light" font-size="39.1" fill="#000000" transform="matrix(1.00, 0.00, -0.00, -1.00, 300.0, 53.0)">i</text><text xml:space="preserve" font-family="HelveticaNeue-Light" font-size="39.1" fill="#000000" transform="matrix(1.00, 0.00, -0.00, -1.00, 307.2, 53.0)">n</text><text xml:space="preserve" font-family="HelveticaNeue-Light" font-size="39.1" fill="#000000" transform="matrix(1.00, 0.00, -0.00, -1.00, 328.2, 53.0)">f</text><text xml:space="preserve" font-family="HelveticaNeue-Light" font-size="39.1" fill="#000000" transform="matrix(1.00, 0.00, -0.00, -1.00, 338.3, 53.0)">u</text><text xml:space="preserve" font-family="HelveticaNeue-Light" font-size="39.1" fill="#000000" transform="matrix(1.00, 0.00, -0.00, -1.00, 359.3, 53.0)">s</text><text xml:space="preserve" font-family="HelveticaNeue-Light" font-size="39.1" fill="#000000" transform="matrix(1.00, 0.00, -0.00, -1.00, 378.1, 53.0)">i</text><text xml:space="preserve" font-family="HelveticaNeue-Light" font-size="39.1" fill="#000000" transform="matrix(1.00, 0.00, -0.00, -1.00, 385.3, 53.0)">o</text><text xml:space="preserve" font-family="HelveticaNeue-Light" font-size="39.1" fill="#000000" transform="matrix(1.00, 0.00, -0.00, -1.00, 407.0, 53.0)">n</text><text xml:space="preserve" font-family="HelveticaNeue-Light" font-size="39.1" fill="#000000" transform="matrix(1.00, 0.00, -0.00, -1.00, 428.0, 53.0)">s</text><text xml:space="preserve" font-family="HelveticaNeue-Light" font-size="39.1" fill="#000000" transform="matrix(1.00, 0.00, -0.00, -1.00, 446.8, 53.0)"> </text><text xml:space="preserve" font-family="HelveticaNeue-Light" font-size="39.1" fill="#000000" transform="matrix(1.00, 0.00, -0.00, -1.00, 457.6, 53.0)">i</text><text xml:space="preserve" font-family="HelveticaNeue-Light" font-size="39.1" fill="#000000" transform="matrix(1.00, 0.00, -0.00, -1.00, 464.9, 53.0)">n</text><text xml:space="preserve" font-family="HelveticaNeue-Light" font-size="39.1" fill="#000000" transform="matrix(1.00, 0.00, -0.00, -1.00, 485.8, 53.0)">d</text><text xml:space="preserve" font-family="HelveticaNeue-Light" font-size="39.1" fill="#000000" transform="matrix(1.00, 0.00, -0.00, -1.00, 508.3, 53.0)">u</text><text xml:space="preserve" font-family="HelveticaNeue-Light" font-size="39.1" fill="#000000" transform="matrix(1.00, 0.00, -0.00, -1.00, 529.2, 53.0)">c</text><text xml:space="preserve" font-family="HelveticaNeue-Light" font-size="39.1" fill="#000000" transform="matrix(1.00, 0.00, -0.00, -1.00, 549.5, 53.0)">e</text><text xml:space="preserve" font-family="HelveticaNeue-Light" font-size="39.1" fill="#000000" transform="matrix(1.00, 0.00, -0.00, -1.00, 569.8, 53.0)">d</text><text xml:space="preserve" font-family="HelveticaNeue-Light" font-size="39.1" fill="#000000" transform="matrix(1.00, 0.00, -0.00, -1.00, 592.2, 53.0)"> </text><text xml:space="preserve" font-family="HelveticaNeue-Light" font-size="39.1" fill="#000000" transform="matrix(1.00, 0.00, -0.00, -1.00, 603.1, 53.0)">p</text><text xml:space="preserve" font-family="HelveticaNeue-Light" font-size="39.1" fill="#000000" transform="matrix(1.00, 0.00, -0.00, -1.00, 625.5, 53.0)">o</text><text xml:space="preserve" font-family="HelveticaNeue-Light" font-size="39.1" fill="#000000" transform="matrix(1.00, 0.00, -0.00, -1.00, 647.2, 53.0)">t</text><text xml:space="preserve" font-family="HelveticaNeue-Light" font-size="39.1" fill="#000000" transform="matrix(1.00, 0.00, -0.00, -1.00, 658.8, 53.0)">e</text><text xml:space="preserve" font-family="HelveticaNeue-Light" font-size="39.1" fill="#000000" transform="matrix(1.00, 0.00, -0.00, -1.00, 679.0, 53.0)">n</text><text xml:space="preserve" font-family="HelveticaNeue-Light" font-size="39.1" fill="#000000" transform="matrix(1.00, 0.00, -0.00, -1.00, 700.0, 53.0)">t</text><text xml:space="preserve" font-family="HelveticaNeue-Light" font-size="39.1" fill="#000000" transform="matrix(1.00, 0.00, -0.00, -1.00, 711.6, 53.0)"> </text><text xml:space="preserve" font-family="HelveticaNeue-Light" font-size="39.1" fill="#000000" transform="matrix(1.00, 0.00, -0.00, -1.00, 722.4, 53.0)">G</text><text xml:space="preserve" font-family="HelveticaNeue-Light" font-size="39.1" fill="#000000" transform="matrix(1.00, 0.00, -0.00, -1.00, 751.4, 53.0)">V</text><text xml:space="preserve" font-family="HelveticaNeue-Light" font-size="39.1" fill="#000000" transform="matrix(1.00, 0.00, -0.00, -1.00, 774.5, 53.0)">L</text><text xml:space="preserve" font-family="HelveticaNeue-Light" font-size="39.1" fill="#000000" transform="matrix(1.00, 0.00, -0.00, -1.00, 795.5, 53.0)"> </text><text xml:space="preserve" font-family="HelveticaNeue-Light" font-size="39.1" fill="#000000" transform="matrix(1.00, 0.00, -0.00, -1.00, 806.4, 53.0)">e</text><text xml:space="preserve" font-family="HelveticaNeue-Light" font-size="39.1" fill="#000000" transform="matrix(1.00, 0.00, -0.00, -1.00, 826.6, 53.0)">f</text><text xml:space="preserve" font-family="HelveticaNeue-Light" font-size="39.1" fill="#000000" transform="matrix(1.00, 0.00, -0.00, -1.00, 836.1, 53.0)">f</text><text xml:space="preserve" font-family="HelveticaNeue-Light" font-size="39.1" fill="#000000" transform="matrix(1.00, 0.00, -0.00, -1.00, 846.2, 53.0)">e</text><text xml:space="preserve" font-family="HelveticaNeue-Light" font-size="39.1" fill="#000000" transform="matrix(1.00, 0.00, -0.00, -1.00, 866.4, 53.0)">c</text><text xml:space="preserve" font-family="HelveticaNeue-Light" font-size="39.1" fill="#000000" transform="matrix(1.00, 0.00, -0.00, -1.00, 886.7, 53.0)">t</text><text xml:space="preserve" font-family="HelveticaNeue-Light" font-size="39.1" fill="#000000" transform="matrix(1.00, 0.00, -0.00, -1.00, 898.3, 53.0)">s</text><text xml:space="preserve" font-family="HelveticaNeue-Light" font-size="39.1" fill="#000000" transform="matrix(1.00, 0.00, -0.00, -1.00, 917.1, 53.0)"> </text><text xml:space="preserve" font-family="HelveticaNeue-Light" font-size="39.1" fill="#000000" transform="matrix(1.00, 0.00, -0.00, -1.00, -1.0, 6.0)">i</text><text xml:space="preserve" font-family="HelveticaNeue-Light" font-size="39.1" fill="#000000" transform="matrix(1.00, 0.00, -0.00, -1.00, 6.2, 6.0)">n</text><text xml:space="preserve" font-family="HelveticaNeue-Light" font-size="39.1" fill="#000000" transform="matrix(1.00, 0.00, -0.00, -1.00, 27.2, 6.0)"> </text><text xml:space="preserve" font-family="HelveticaNeue-Light" font-size="39.1" fill="#000000" transform="matrix(1.00, 0.00, -0.00, -1.00, 38.1, 6.0)">m</text><text xml:space="preserve" font-family="HelveticaNeue-Light" font-size="39.1" fill="#000000" transform="matrix(1.00, 0.00, -0.00, -1.00, 70.6, 6.0)">i</text><text xml:space="preserve" font-family="HelveticaNeue-Light" font-size="39.1" fill="#000000" transform="matrix(1.00, 0.00, -0.00, -1.00, 77.8, 6.0)">x</text><text xml:space="preserve" font-family="HelveticaNeue-Light" font-size="39.1" fill="#000000" transform="matrix(1.00, 0.00, -0.00, -1.00, 96.6, 6.0)">e</text><text xml:space="preserve" font-family="HelveticaNeue-Light" font-size="39.1" fill="#000000" transform="matrix(1.00, 0.00, -0.00, -1.00, 116.9, 6.0)">d</text><text xml:space="preserve" font-family="HelveticaNeue-Light" font-size="39.1" fill="#000000" transform="matrix(1.00, 0.00, -0.00, -1.00, 139.3, 6.0)"> </text><text xml:space="preserve" font-family="HelveticaNeue-Light" font-size="39.1" fill="#000000" transform="matrix(1.00, 0.00, -0.00, -1.00, 150.2, 6.0)">c</text><text xml:space="preserve" font-family="HelveticaNeue-Light" font-size="39.1" fill="#000000" transform="matrix(1.00, 0.00, -0.00, -1.00, 170.4, 6.0)">h</text><text xml:space="preserve" font-family="HelveticaNeue-Light" font-size="39.1" fill="#000000" transform="matrix(1.00, 0.00, -0.00, -1.00, 191.4, 6.0)">i</text><text xml:space="preserve" font-family="HelveticaNeue-Light" font-size="39.1" fill="#000000" transform="matrix(1.00, 0.00, -0.00, -1.00, 198.6, 6.0)">m</text><text xml:space="preserve" font-family="HelveticaNeue-Light" font-size="39.1" fill="#000000" transform="matrix(1.00, 0.00, -0.00, -1.00, 231.2, 6.0)">e</text><text xml:space="preserve" font-family="HelveticaNeue-Light" font-size="39.1" fill="#000000" transform="matrix(1.00, 0.00, -0.00, -1.00, 251.4, 6.0)">r</text><text xml:space="preserve" font-family="HelveticaNeue-Light" font-size="39.1" fill="#000000" transform="matrix(1.00, 0.00, -0.00, -1.00, 263.7, 6.0)">a</text><text xml:space="preserve" font-family="HelveticaNeue-Light" font-size="39.1" fill="#000000" transform="matrix(1.00, 0.00, -0.00, -1.00, 284.0, 6.0)">s</text><text xml:space="preserve" font-family="HelveticaNeue-Light" font-size="39.1" fill="#000000" transform="matrix(1.00, 0.00, -0.00, -1.00, 302.8, 6.0)">,</text><text xml:space="preserve" font-family="HelveticaNeue-Light" font-size="39.1" fill="#000000" transform="matrix(1.00, 0.00, -0.00, -1.00, 313.7, 6.0)"> </text><text xml:space="preserve" font-family="HelveticaNeue-Light" font-size="39.1" fill="#000000" transform="matrix(1.00, 0.00, -0.00, -1.00, 324.5, 6.0)">a</text><text xml:space="preserve" font-family="HelveticaNeue-Light" font-size="39.1" fill="#000000" transform="matrix(1.00, 0.00, -0.00, -1.00, 344.8, 6.0)">n</text><text xml:space="preserve" font-family="HelveticaNeue-Light" font-size="39.1" fill="#000000" transform="matrix(1.00, 0.00, -0.00, -1.00, 365.8, 6.0)">d</text><text xml:space="preserve" font-family="HelveticaNeue-Light" font-size="39.1" fill="#000000" transform="matrix(1.00, 0.00, -0.00, -1.00, 388.2, 6.0)"> </text><text xml:space="preserve" font-family="HelveticaNeue-Light" font-size="39.1" fill="#000000" transform="matrix(1.00, 0.00, -0.00, -1.00, 399.1, 6.0)">r</text><text xml:space="preserve" font-family="HelveticaNeue-Light" font-size="39.1" fill="#000000" transform="matrix(1.00, 0.00, -0.00, -1.00, 410.7, 6.0)">e</text><text xml:space="preserve" font-family="HelveticaNeue-Light" font-size="39.1" fill="#000000" transform="matrix(1.00, 0.00, -0.00, -1.00, 430.9, 6.0)">s</text><text xml:space="preserve" font-family="HelveticaNeue-Light" font-size="39.1" fill="#000000" transform="matrix(1.00, 0.00, -0.00, -1.00, 449.7, 6.0)">u</text><text xml:space="preserve" font-family="HelveticaNeue-Light" font-size="39.1" fill="#000000" transform="matrix(1.00, 0.00, -0.00, -1.00, 470.7, 6.0)">l</text><text xml:space="preserve" font-family="HelveticaNeue-Light" font-size="39.1" fill="#000000" transform="matrix(1.00, 0.00, -0.00, -1.00, 477.9, 6.0)">t</text><text xml:space="preserve" font-family="HelveticaNeue-Light" font-size="39.1" fill="#000000" transform="matrix(1.00, 0.00, -0.00, -1.00, 489.5, 6.0)">e</text><text xml:space="preserve" font-family="HelveticaNeue-Light" font-size="39.1" fill="#000000" transform="matrix(1.00, 0.00, -0.00, -1.00, 509.7, 6.0)">d</text><text xml:space="preserve" font-family="HelveticaNeue-Light" font-size="39.1" fill="#000000" transform="matrix(1.00, 0.00, -0.00, -1.00, 532.2, 6.0)"> </text><text xml:space="preserve" font-family="HelveticaNeue-Light" font-size="39.1" fill="#000000" transform="matrix(1.00, 0.00, -0.00, -1.00, 543.0, 6.0)">i</text><text xml:space="preserve" font-family="HelveticaNeue-Light" font-size="39.1" fill="#000000" transform="matrix(1.00, 0.00, -0.00, -1.00, 550.3, 6.0)">n</text><text xml:space="preserve" font-family="HelveticaNeue-Light" font-size="39.1" fill="#000000" transform="matrix(1.00, 0.00, -0.00, -1.00, 571.2, 6.0)"> </text><text xml:space="preserve" font-family="HelveticaNeue-Light" font-size="39.1" fill="#000000" transform="matrix(1.00, 0.00, -0.00, -1.00, 582.1, 6.0)">f</text><text xml:space="preserve" font-family="HelveticaNeue-Light" font-size="39.1" fill="#000000" transform="matrix(1.00, 0.00, -0.00, -1.00, 592.2, 6.0)">u</text><text xml:space="preserve" font-family="HelveticaNeue-Light" font-size="39.1" fill="#000000" transform="matrix(1.00, 0.00, -0.00, -1.00, 613.2, 6.0)">l</text><text xml:space="preserve" font-family="HelveticaNeue-Light" font-size="39.1" fill="#000000" transform="matrix(1.00, 0.00, -0.00, -1.00, 620.4, 6.0)">l</text><text xml:space="preserve" font-family="HelveticaNeue-Light" font-size="39.1" fill="#000000" transform="matrix(1.00, 0.00, -0.00, -1.00, 627.6, 6.0)"> </text><text xml:space="preserve" font-family="HelveticaNeue-Light" font-size="39.1" fill="#000000" transform="matrix(1.00, 0.00, -0.00, -1.00, 638.5, 6.0)">d</text><text xml:space="preserve" font-family="HelveticaNeue-Light" font-size="39.1" fill="#000000" transform="matrix(1.00, 0.00, -0.00, -1.00, 660.9, 6.0)">o</text><text xml:space="preserve" font-family="HelveticaNeue-Light" font-size="39.1" fill="#000000" transform="matrix(1.00, 0.00, -0.00, -1.00, 682.6, 6.0)">n</text><text xml:space="preserve" font-family="HelveticaNeue-Light" font-size="39.1" fill="#000000" transform="matrix(1.00, 0.00, -0.00, -1.00, 703.6, 6.0)">o</text><text xml:space="preserve" font-family="HelveticaNeue-Light" font-size="39.1" fill="#000000" transform="matrix(1.00, 0.00, -0.00, -1.00, 725.3, 6.0)">r</text><text xml:space="preserve" font-family="HelveticaNeue-Light" font-size="39.1" fill="#000000" transform="matrix(1.00, 0.00, -0.00, -1.00, 737.6, 6.0)"> </text><text xml:space="preserve" font-family="HelveticaNeue-Light" font-size="39.1" fill="#000000" transform="matrix(1.00, 0.00, -0.00, -1.00, 748.5, 6.0)">c</text><text xml:space="preserve" font-family="HelveticaNeue-Light" font-size="39.1" fill="#000000" transform="matrix(1.00, 0.00, -0.00, -1.00, 768.8, 6.0)">h</text><text xml:space="preserve" font-family="HelveticaNeue-Light" font-size="39.1" fill="#000000" transform="matrix(1.00, 0.00, -0.00, -1.00, 789.7, 6.0)">i</text><text xml:space="preserve" font-family="HelveticaNeue-Light" font-size="39.1" fill="#000000" transform="matrix(1.00, 0.00, -0.00, -1.00, 797.0, 6.0)">m</text><text xml:space="preserve" font-family="HelveticaNeue-Light" font-size="39.1" fill="#000000" transform="matrix(1.00, 0.00, -0.00, -1.00, 829.5, 6.0)">e</text><text xml:space="preserve" font-family="HelveticaNeue-Light" font-size="39.1" fill="#000000" transform="matrix(1.00, 0.00, -0.00, -1.00, 849.8, 6.0)">r</text><text xml:space="preserve" font-family="HelveticaNeue-Light" font-size="39.1" fill="#000000" transform="matrix(1.00, 0.00, -0.00, -1.00, 862.1, 6.0)">i</text><text xml:space="preserve" font-family="HelveticaNeue-Light" font-size="39.1" fill="#000000" transform="matrix(1.00, 0.00, -0.00, -1.00, 869.3, 6.0)">s</text><text xml:space="preserve" font-family="HelveticaNeue-Light" font-size="39.1" fill="#000000" transform="matrix(1.00, 0.00, -0.00, -1.00, 888.1, 6.0)">m</text></g></svg>