<?xml version="1.0" encoding="UTF-8" standalone="no"?><svg xmlns="http://www.w3.org/2000/svg" xmlns:xlink="http://www.w3.org/1999/xlink" clip-rule="evenodd" stroke-miterlimit="10" viewBox="0 0 1024 768"><desc>SVG generated by Keynote</desc><defs></defs><g transform="matrix(1.00, 0.00, -0.00, -1.00, 0.0, 768.0)"><g><clipPath id="clip0x6000010b1ee0"><path d="M 0.0 768.0 L 1024.0 768.0 L 1024.0 0.0 L 0.0 0.0 Z M 0.0 768.0 "></path></clipPath><g clip-path="url(#clip0x6000010b1ee0)"><image xlink:href="../../BE4D2DDB-FBE4-467E-AE38-B34F9028D09E/assets/31D284A5C75E14674D2A89FDB99F8048.jpeg" width="2048.00" height="1536.00" transform="matrix(0.50, 0.00, -0.00, -0.50, 0.0, 768.0)"></image></g></g><image xlink:href="13DD8EFF9DF7D914BA40C2B1EA7BAF54.png" width="524.00" height="66.00" transform="matrix(1.00, 0.00, -0.00, -1.00, 251.0, 689.0)"></image><text xml:space="preserve" font-family="HelveticaNeue-Bold,Helvetica Neue" font-weight="bold" font-size="64.0" fill="#FEFFFE" transform="matrix(1.00, 0.00, -0.00, -1.00, 250.8, 640.7)">M</text><text xml:space="preserve" font-family="HelveticaNeue-Bold,Helvetica Neue" font-weight="bold" font-size="64.0" fill="#FEFFFE" transform="matrix(1.00, 0.00, -0.00, -1.00, 308.8, 640.7)">y</text><text xml:space="preserve" font-family="HelveticaNeue-Bold,Helvetica Neue" font-weight="bold" font-size="64.0" fill="#FEFFFE" transform="matrix(1.00, 0.00, -0.00, -1.00, 342.0, 640.7)">e</text><text xml:space="preserve" font-family="HelveticaNeue-Bold,Helvetica Neue" font-weight="bold" font-size="64.0" fill="#FEFFFE" transform="matrix(1.00, 0.00, -0.00, -1.00, 378.8, 640.7)">l</text><text xml:space="preserve" font-family="HelveticaNeue-Bold,Helvetica Neue" font-weight="bold" font-size="64.0" fill="#FEFFFE" transform="matrix(1.00, 0.00, -0.00, -1.00, 395.3, 640.7)">o</text><text xml:space="preserve" font-family="HelveticaNeue-Bold,Helvetica Neue" font-weight="bold" font-size="64.0" fill="#FEFFFE" transform="matrix(1.00, 0.00, -0.00, -1.00, 434.4, 640.7)">i</text><text xml:space="preserve" font-family="HelveticaNeue-Bold,Helvetica Neue" font-weight="bold" font-size="64.0" fill="#FEFFFE" transform="matrix(1.00, 0.00, -0.00, -1.00, 450.9, 640.7)">d</text><text xml:space="preserve" font-family="HelveticaNeue-Bold,Helvetica Neue" font-weight="bold" font-size="64.0" fill="#FEFFFE" transform="matrix(1.00, 0.00, -0.00, -1.00, 490.0, 640.7)"> </text><text xml:space="preserve" font-family="HelveticaNeue-Bold,Helvetica Neue" font-weight="bold" font-size="64.0" fill="#FEFFFE" transform="matrix(1.00, 0.00, -0.00, -1.00, 507.8, 640.7)">s</text><text xml:space="preserve" font-family="HelveticaNeue-Bold,Helvetica Neue" font-weight="bold" font-size="64.0" fill="#FEFFFE" transform="matrix(1.00, 0.00, -0.00, -1.00, 542.2, 640.7)">a</text><text xml:space="preserve" font-family="HelveticaNeue-Bold,Helvetica Neue" font-weight="bold" font-size="64.0" fill="#FEFFFE" transform="matrix(1.00, 0.00, -0.00, -1.00, 578.9, 640.7)">r</text><text xml:space="preserve" font-family="HelveticaNeue-Bold,Helvetica Neue" font-weight="bold" font-size="64.0" fill="#FEFFFE" transform="matrix(1.00, 0.00, -0.00, -1.00, 602.7, 640.7)">c</text><text xml:space="preserve" font-family="HelveticaNeue-Bold,Helvetica Neue" font-weight="bold" font-size="64.0" fill="#FEFFFE" transform="matrix(1.00, 0.00, -0.00, -1.00, 639.4, 640.7)">o</text><text xml:space="preserve" font-family="HelveticaNeue-Bold,Helvetica Neue" font-weight="bold" font-size="64.0" fill="#FEFFFE" transform="matrix(1.00, 0.00, -0.00, -1.00, 678.5, 640.7)">m</text><text xml:space="preserve" font-family="HelveticaNeue-Bold,Helvetica Neue" font-weight="bold" font-size="64.0" fill="#FEFFFE" transform="matrix(1.00, 0.00, -0.00, -1.00, 736.5, 640.7)">a</text><image xlink:href="BB23D32DF1660459EC6A12076C9DD76E.png" width="199.00" height="31.00" transform="matrix(1.00, 0.00, -0.00, -1.00, 252.0, 616.0)"></image><text xml:space="preserve" font-family="HelveticaNeue-Medium,Helvetica Neue" font-size="29.2" fill="#EAEAEA" transform="matrix(1.00, 0.00, -0.00, -1.00, 256.9, 592.0)">A</text><text xml:space="preserve" font-family="HelveticaNeue-Medium,Helvetica Neue" font-size="29.2" fill="#EAEAEA" transform="matrix(1.00, 0.00, -0.00, -1.00, 276.4, 592.0)">K</text><text xml:space="preserve" font-family="HelveticaNeue-Medium,Helvetica Neue" font-size="29.2" fill="#EAEAEA" transform="matrix(1.00, 0.00, -0.00, -1.00, 296.4, 592.0)">A</text><text xml:space="preserve" font-family="HelveticaNeue-Medium,Helvetica Neue" font-size="29.2" fill="#EAEAEA" transform="matrix(1.00, 0.00, -0.00, -1.00, 315.9, 592.0)"> </text><text xml:space="preserve" font-family="HelveticaNeue-Medium,Helvetica Neue" font-size="29.2" fill="#EAEAEA" transform="matrix(1.00, 0.00, -0.00, -1.00, 324.0, 592.0)">G</text><text xml:space="preserve" font-family="HelveticaNeue-Medium,Helvetica Neue" font-size="29.2" fill="#EAEAEA" transform="matrix(1.00, 0.00, -0.00, -1.00, 346.2, 592.0)">r</text><text xml:space="preserve" font-family="HelveticaNeue-Medium,Helvetica Neue" font-size="29.2" fill="#EAEAEA" transform="matrix(1.00, 0.00, -0.00, -1.00, 356.5, 592.0)">a</text><text xml:space="preserve" font-family="HelveticaNeue-Medium,Helvetica Neue" font-size="29.2" fill="#EAEAEA" transform="matrix(1.00, 0.00, -0.00, -1.00, 372.8, 592.0)">n</text><text xml:space="preserve" font-family="HelveticaNeue-Medium,Helvetica Neue" font-size="29.2" fill="#EAEAEA" transform="matrix(1.00, 0.00, -0.00, -1.00, 389.5, 592.0)">u</text><text xml:space="preserve" font-family="HelveticaNeue-Medium,Helvetica Neue" font-size="29.2" fill="#EAEAEA" transform="matrix(1.00, 0.00, -0.00, -1.00, 406.3, 592.0)">l</text><text xml:space="preserve" font-family="HelveticaNeue-Medium,Helvetica Neue" font-size="29.2" fill="#EAEAEA" transform="matrix(1.00, 0.00, -0.00, -1.00, 413.4, 592.0)">o</text><text xml:space="preserve" font-family="HelveticaNeue-Medium,Helvetica Neue" font-size="29.2" fill="#EAEAEA" transform="matrix(1.00, 0.00, -0.00, -1.00, 430.7, 592.0)">c</text><image xlink:href="FCC1ED8E2FD3C29F655FBBFF8CF318D3.png" width="187.00" height="36.00" transform="matrix(1.00, 0.00, -0.00, -1.00, 443.0, 615.0)"></image><text xml:space="preserve" font-family="HelveticaNeue-Medium,Helvetica Neue" font-size="29.2" fill="#FEFFFE" transform="matrix(1.00, 0.00, -0.00, -1.00, 447.0, 592.0)">y</text><text xml:space="preserve" font-family="HelveticaNeue-Medium,Helvetica Neue" font-size="29.2" fill="#FEFFFE" transform="matrix(1.00, 0.00, -0.00, -1.00, 462.1, 592.0)">t</text><text xml:space="preserve" font-family="HelveticaNeue-Medium,Helvetica Neue" font-size="29.2" fill="#FEFFFE" transform="matrix(1.00, 0.00, -0.00, -1.00, 471.9, 592.0)">i</text><text xml:space="preserve" font-family="HelveticaNeue-Medium,Helvetica Neue" font-size="29.2" fill="#FEFFFE" transform="matrix(1.00, 0.00, -0.00, -1.00, 478.9, 592.0)">c</text><text xml:space="preserve" font-family="HelveticaNeue-Medium,Helvetica Neue" font-size="29.2" fill="#FEFFFE" transform="matrix(1.00, 0.00, -0.00, -1.00, 495.2, 592.0)"> </text><text xml:space="preserve" font-family="HelveticaNeue-Medium,Helvetica Neue" font-size="29.2" fill="#FEFFFE" transform="matrix(1.00, 0.00, -0.00, -1.00, 503.3, 592.0)">s</text><text xml:space="preserve" font-family="HelveticaNeue-Medium,Helvetica Neue" font-size="29.2" fill="#FEFFFE" transform="matrix(1.00, 0.00, -0.00, -1.00, 518.5, 592.0)">a</text><text xml:space="preserve" font-family="HelveticaNeue-Medium,Helvetica Neue" font-size="29.2" fill="#FEFFFE" transform="matrix(1.00, 0.00, -0.00, -1.00, 534.7, 592.0)">r</text><text xml:space="preserve" font-family="HelveticaNeue-Medium,Helvetica Neue" font-size="29.2" fill="#FEFFFE" transform="matrix(1.00, 0.00, -0.00, -1.00, 544.5, 592.0)">c</text><text xml:space="preserve" font-family="HelveticaNeue-Medium,Helvetica Neue" font-size="29.2" fill="#FEFFFE" transform="matrix(1.00, 0.00, -0.00, -1.00, 560.8, 592.0)">o</text><text xml:space="preserve" font-family="HelveticaNeue-Medium,Helvetica Neue" font-size="29.2" fill="#FEFFFE" transform="matrix(1.00, 0.00, -0.00, -1.00, 578.1, 592.0)">m</text><text xml:space="preserve" font-family="HelveticaNeue-Medium,Helvetica Neue" font-size="29.2" fill="#FEFFFE" transform="matrix(1.00, 0.00, -0.00, -1.00, 603.6, 592.0)">a</text><text xml:space="preserve" font-family="HelveticaNeue-Medium,Helvetica Neue" font-size="29.2" fill="#FEFFFE" transform="matrix(1.00, 0.00, -0.00, -1.00, 619.8, 592.0)">,</text><text xml:space="preserve" font-family="HelveticaNeue-Medium,Helvetica Neue" font-size="29.2" fill="#FEFFFE" transform="matrix(1.00, 0.00, -0.00, -1.00, 627.9, 592.0)"> </text><image xlink:href="92CC3A6AD6AA697927E34CB67A78DF4A.png" width="138.00" height="31.00" transform="matrix(1.00, 0.00, -0.00, -1.00, 633.0, 616.0)"></image><text xml:space="preserve" font-family="HelveticaNeue-Medium,Helvetica Neue" font-size="29.2" fill="#67F46F" transform="matrix(1.00, 0.00, -0.00, -1.00, 636.1, 592.0)">C</text><text xml:space="preserve" font-family="HelveticaNeue-Medium,Helvetica Neue" font-size="29.2" fill="#67F46F" transform="matrix(1.00, 0.00, -0.00, -1.00, 657.2, 592.0)">h</text><text xml:space="preserve" font-family="HelveticaNeue-Medium,Helvetica Neue" font-size="29.2" fill="#67F46F" transform="matrix(1.00, 0.00, -0.00, -1.00, 674.0, 592.0)">l</text><text xml:space="preserve" font-family="HelveticaNeue-Medium,Helvetica Neue" font-size="29.2" fill="#67F46F" transform="matrix(1.00, 0.00, -0.00, -1.00, 681.0, 592.0)">o</text><text xml:space="preserve" font-family="HelveticaNeue-Medium,Helvetica Neue" font-size="29.2" fill="#67F46F" transform="matrix(1.00, 0.00, -0.00, -1.00, 698.3, 592.0)">r</text><text xml:space="preserve" font-family="HelveticaNeue-Medium,Helvetica Neue" font-size="29.2" fill="#67F46F" transform="matrix(1.00, 0.00, -0.00, -1.00, 708.1, 592.0)">o</text><text xml:space="preserve" font-family="HelveticaNeue-Medium,Helvetica Neue" font-size="29.2" fill="#67F46F" transform="matrix(1.00, 0.00, -0.00, -1.00, 725.5, 592.0)">m</text><text xml:space="preserve" font-family="HelveticaNeue-Medium,Helvetica Neue" font-size="29.2" fill="#67F46F" transform="matrix(1.00, 0.00, -0.00, -1.00, 750.9, 592.0)">a</text><text xml:space="preserve" font-family="HelveticaNeue-Medium,Helvetica Neue" font-size="29.2" fill="#FEFFFE" transform="matrix(1.00, 0.00, -0.00, -1.00, 767.1, 592.0)"> </text><image xlink:href="935682491112CD206B8716E437777CC8.png" width="373.00" height="36.00" transform="matrix(1.00, 0.00, -0.00, -1.00, 61.0, 544.0)"></image><text xml:space="preserve" font-family="HelveticaNeue-Medium,Helvetica Neue" font-size="29.2" fill="#FEFFFE" transform="matrix(1.00, 0.00, -0.00, -1.00, 64.0, 519.9)">2</text><text xml:space="preserve" font-family="HelveticaNeue-Medium,Helvetica Neue" font-size="29.2" fill="#FEFFFE" transform="matrix(1.00, 0.00, -0.00, -1.00, 80.3, 519.9)">-</text><text xml:space="preserve" font-family="HelveticaNeue-Medium,Helvetica Neue" font-size="29.2" fill="#FEFFFE" transform="matrix(1.00, 0.00, -0.00, -1.00, 91.6, 519.9)">8</text><text xml:space="preserve" font-family="HelveticaNeue-Medium,Helvetica Neue" font-size="29.2" fill="#FEFFFE" transform="matrix(1.00, 0.00, -0.00, -1.00, 107.9, 519.9)">%</text><text xml:space="preserve" font-family="HelveticaNeue-Medium,Helvetica Neue" font-size="29.2" fill="#FEFFFE" transform="matrix(1.00, 0.00, -0.00, -1.00, 137.1, 519.9)"> </text><text xml:space="preserve" font-family="HelveticaNeue-Medium,Helvetica Neue" font-size="29.2" fill="#FEFFFE" transform="matrix(1.00, 0.00, -0.00, -1.00, 145.3, 519.9)">o</text><text xml:space="preserve" font-family="HelveticaNeue-Medium,Helvetica Neue" font-size="29.2" fill="#FEFFFE" transform="matrix(1.00, 0.00, -0.00, -1.00, 162.6, 519.9)">f</text><text xml:space="preserve" font-family="HelveticaNeue-Medium,Helvetica Neue" font-size="29.2" fill="#FEFFFE" transform="matrix(1.00, 0.00, -0.00, -1.00, 171.8, 519.9)"> </text><text xml:space="preserve" font-family="HelveticaNeue-Medium,Helvetica Neue" font-size="29.2" fill="#FEFFFE" transform="matrix(1.00, 0.00, -0.00, -1.00, 179.9, 519.9)">p</text><text xml:space="preserve" font-family="HelveticaNeue-Medium,Helvetica Neue" font-size="29.2" fill="#FEFFFE" transform="matrix(1.00, 0.00, -0.00, -1.00, 197.8, 519.9)">a</text><text xml:space="preserve" font-family="HelveticaNeue-Medium,Helvetica Neue" font-size="29.2" fill="#FEFFFE" transform="matrix(1.00, 0.00, -0.00, -1.00, 214.1, 519.9)">t</text><text xml:space="preserve" font-family="HelveticaNeue-Medium,Helvetica Neue" font-size="29.2" fill="#FEFFFE" transform="matrix(1.00, 0.00, -0.00, -1.00, 223.8, 519.9)">i</text><text xml:space="preserve" font-family="HelveticaNeue-Medium,Helvetica Neue" font-size="29.2" fill="#FEFFFE" transform="matrix(1.00, 0.00, -0.00, -1.00, 230.8, 519.9)">e</text><text xml:space="preserve" font-family="HelveticaNeue-Medium,Helvetica Neue" font-size="29.2" fill="#FEFFFE" transform="matrix(1.00, 0.00, -0.00, -1.00, 247.1, 519.9)">n</text><text xml:space="preserve" font-family="HelveticaNeue-Medium,Helvetica Neue" font-size="29.2" fill="#FEFFFE" transform="matrix(1.00, 0.00, -0.00, -1.00, 263.9, 519.9)">t</text><text xml:space="preserve" font-family="HelveticaNeue-Medium,Helvetica Neue" font-size="29.2" fill="#FEFFFE" transform="matrix(1.00, 0.00, -0.00, -1.00, 273.6, 519.9)">s</text><text xml:space="preserve" font-family="HelveticaNeue-Medium,Helvetica Neue" font-size="29.2" fill="#FEFFFE" transform="matrix(1.00, 0.00, -0.00, -1.00, 288.8, 519.9)"> </text><text xml:space="preserve" font-family="HelveticaNeue-Medium,Helvetica Neue" font-size="29.2" fill="#FEFFFE" transform="matrix(1.00, 0.00, -0.00, -1.00, 296.9, 519.9)">w</text><text xml:space="preserve" font-family="HelveticaNeue-Medium,Helvetica Neue" font-size="29.2" fill="#FEFFFE" transform="matrix(1.00, 0.00, -0.00, -1.00, 319.7, 519.9)">i</text><text xml:space="preserve" font-family="HelveticaNeue-Medium,Helvetica Neue" font-size="29.2" fill="#FEFFFE" transform="matrix(1.00, 0.00, -0.00, -1.00, 326.7, 519.9)">t</text><text xml:space="preserve" font-family="HelveticaNeue-Medium,Helvetica Neue" font-size="29.2" fill="#FEFFFE" transform="matrix(1.00, 0.00, -0.00, -1.00, 336.5, 519.9)">h</text><text xml:space="preserve" font-family="HelveticaNeue-Medium,Helvetica Neue" font-size="29.2" fill="#FEFFFE" transform="matrix(1.00, 0.00, -0.00, -1.00, 353.2, 519.9)"> </text><text xml:space="preserve" font-family="HelveticaNeue-Medium,Helvetica Neue" font-size="29.2" fill="#FEFFFE" transform="matrix(1.00, 0.00, -0.00, -1.00, 361.4, 519.9)">A</text><text xml:space="preserve" font-family="HelveticaNeue-Medium,Helvetica Neue" font-size="29.2" fill="#FEFFFE" transform="matrix(1.00, 0.00, -0.00, -1.00, 380.9, 519.9)">M</text><text xml:space="preserve" font-family="HelveticaNeue-Medium,Helvetica Neue" font-size="29.2" fill="#FEFFFE" transform="matrix(1.00, 0.00, -0.00, -1.00, 406.9, 519.9)">L</text><text xml:space="preserve" font-family="HelveticaNeue-Medium,Helvetica Neue" font-size="29.2" fill="#FEFFFE" transform="matrix(1.00, 0.00, -0.00, -1.00, 423.7, 519.9)">:</text><text xml:space="preserve" font-family="HelveticaNeue-Medium,Helvetica Neue" font-size="29.2" fill="#EAEAEA" transform="matrix(1.00, 0.00, -0.00, -1.00, 431.8, 519.9)"> </text><image xlink:href="8DE93E5808AD178E0487834405A4479E.png" width="17.00" height="17.00" transform="matrix(1.00, 0.00, -0.00, -1.00, 61.0, 465.0)"></image><text xml:space="preserve" font-family="HelveticaNeue-Medium,Helvetica Neue" font-size="21.9" fill="#EAEAEA" transform="matrix(1.00, 0.00, -0.00, -1.00, 64.0, 450.5)">•</text><image xlink:href="EB92879B7D32C7E317EF95A59C4DADD3.png" width="176.00" height="30.00" transform="matrix(1.00, 0.00, -0.00, -1.00, 88.0, 471.0)"></image><text xml:space="preserve" font-family="HelveticaNeue-Medium,Helvetica Neue" font-size="29.2" fill="#EAEAEA" transform="matrix(1.00, 0.00, -0.00, -1.00, 91.5, 447.7)">c</text><text xml:space="preserve" font-family="HelveticaNeue-Medium,Helvetica Neue" font-size="29.2" fill="#EAEAEA" transform="matrix(1.00, 0.00, -0.00, -1.00, 107.8, 447.7)">o</text><text xml:space="preserve" font-family="HelveticaNeue-Medium,Helvetica Neue" font-size="29.2" fill="#EAEAEA" transform="matrix(1.00, 0.00, -0.00, -1.00, 125.1, 447.7)">n</text><text xml:space="preserve" font-family="HelveticaNeue-Medium,Helvetica Neue" font-size="29.2" fill="#EAEAEA" transform="matrix(1.00, 0.00, -0.00, -1.00, 141.9, 447.7)">c</text><text xml:space="preserve" font-family="HelveticaNeue-Medium,Helvetica Neue" font-size="29.2" fill="#EAEAEA" transform="matrix(1.00, 0.00, -0.00, -1.00, 158.2, 447.7)">o</text><text xml:space="preserve" font-family="HelveticaNeue-Medium,Helvetica Neue" font-size="29.2" fill="#EAEAEA" transform="matrix(1.00, 0.00, -0.00, -1.00, 175.5, 447.7)">m</text><text xml:space="preserve" font-family="HelveticaNeue-Medium,Helvetica Neue" font-size="29.2" fill="#EAEAEA" transform="matrix(1.00, 0.00, -0.00, -1.00, 200.9, 447.7)">i</text><text xml:space="preserve" font-family="HelveticaNeue-Medium,Helvetica Neue" font-size="29.2" fill="#EAEAEA" transform="matrix(1.00, 0.00, -0.00, -1.00, 208.0, 447.7)">t</text><text xml:space="preserve" font-family="HelveticaNeue-Medium,Helvetica Neue" font-size="29.2" fill="#EAEAEA" transform="matrix(1.00, 0.00, -0.00, -1.00, 217.7, 447.7)">a</text><text xml:space="preserve" font-family="HelveticaNeue-Medium,Helvetica Neue" font-size="29.2" fill="#EAEAEA" transform="matrix(1.00, 0.00, -0.00, -1.00, 234.0, 447.7)">n</text><text xml:space="preserve" font-family="HelveticaNeue-Medium,Helvetica Neue" font-size="29.2" fill="#EAEAEA" transform="matrix(1.00, 0.00, -0.00, -1.00, 250.8, 447.7)">t</text><text xml:space="preserve" font-family="HelveticaNeue-Medium,Helvetica Neue" font-size="29.2" fill="#EAEAEA" transform="matrix(1.00, 0.00, -0.00, -1.00, 260.5, 447.7)"> </text><image xlink:href="A35707430414736FBB8F1807C473EE29.png" width="17.00" height="17.00" transform="matrix(1.00, 0.00, -0.00, -1.00, 61.0, 393.0)"></image><text xml:space="preserve" font-family="HelveticaNeue-Medium,Helvetica Neue" font-size="21.9" fill="#EAEAEA" transform="matrix(1.00, 0.00, -0.00, -1.00, 64.0, 378.4)">•</text><image xlink:href="2DA5E9156F2F389D7C6BF154591F3E74.png" width="357.00" height="36.00" transform="matrix(1.00, 0.00, -0.00, -1.00, 88.0, 399.0)"></image><text xml:space="preserve" font-family="HelveticaNeue-Medium,Helvetica Neue" font-size="29.2" fill="#EAEAEA" transform="matrix(1.00, 0.00, -0.00, -1.00, 91.5, 375.6)">a</text><text xml:space="preserve" font-family="HelveticaNeue-Medium,Helvetica Neue" font-size="29.2" fill="#EAEAEA" transform="matrix(1.00, 0.00, -0.00, -1.00, 107.8, 375.6)">f</text><text xml:space="preserve" font-family="HelveticaNeue-Medium,Helvetica Neue" font-size="29.2" fill="#EAEAEA" transform="matrix(1.00, 0.00, -0.00, -1.00, 117.0, 375.6)">t</text><text xml:space="preserve" font-family="HelveticaNeue-Medium,Helvetica Neue" font-size="29.2" fill="#EAEAEA" transform="matrix(1.00, 0.00, -0.00, -1.00, 126.7, 375.6)">e</text><text xml:space="preserve" font-family="HelveticaNeue-Medium,Helvetica Neue" font-size="29.2" fill="#EAEAEA" transform="matrix(1.00, 0.00, -0.00, -1.00, 143.0, 375.6)">r</text><text xml:space="preserve" font-family="HelveticaNeue-Medium,Helvetica Neue" font-size="29.2" fill="#EAEAEA" transform="matrix(1.00, 0.00, -0.00, -1.00, 153.3, 375.6)"> </text><text xml:space="preserve" font-family="HelveticaNeue-Medium,Helvetica Neue" font-size="29.2" fill="#EAEAEA" transform="matrix(1.00, 0.00, -0.00, -1.00, 161.4, 375.6)">i</text><text xml:space="preserve" font-family="HelveticaNeue-Medium,Helvetica Neue" font-size="29.2" fill="#EAEAEA" transform="matrix(1.00, 0.00, -0.00, -1.00, 168.5, 375.6)">n</text><text xml:space="preserve" font-family="HelveticaNeue-Medium,Helvetica Neue" font-size="29.2" fill="#EAEAEA" transform="matrix(1.00, 0.00, -0.00, -1.00, 185.2, 375.6)">i</text><text xml:space="preserve" font-family="HelveticaNeue-Medium,Helvetica Neue" font-size="29.2" fill="#EAEAEA" transform="matrix(1.00, 0.00, -0.00, -1.00, 192.3, 375.6)">t</text><text xml:space="preserve" font-family="HelveticaNeue-Medium,Helvetica Neue" font-size="29.2" fill="#EAEAEA" transform="matrix(1.00, 0.00, -0.00, -1.00, 202.0, 375.6)">i</text><text xml:space="preserve" font-family="HelveticaNeue-Medium,Helvetica Neue" font-size="29.2" fill="#EAEAEA" transform="matrix(1.00, 0.00, -0.00, -1.00, 209.1, 375.6)">a</text><text xml:space="preserve" font-family="HelveticaNeue-Medium,Helvetica Neue" font-size="29.2" fill="#EAEAEA" transform="matrix(1.00, 0.00, -0.00, -1.00, 225.3, 375.6)">l</text><text xml:space="preserve" font-family="HelveticaNeue-Medium,Helvetica Neue" font-size="29.2" fill="#EAEAEA" transform="matrix(1.00, 0.00, -0.00, -1.00, 232.4, 375.6)"> </text><text xml:space="preserve" font-family="HelveticaNeue-Medium,Helvetica Neue" font-size="29.2" fill="#EAEAEA" transform="matrix(1.00, 0.00, -0.00, -1.00, 240.5, 375.6)">A</text><text xml:space="preserve" font-family="HelveticaNeue-Medium,Helvetica Neue" font-size="29.2" fill="#EAEAEA" transform="matrix(1.00, 0.00, -0.00, -1.00, 260.0, 375.6)">M</text><text xml:space="preserve" font-family="HelveticaNeue-Medium,Helvetica Neue" font-size="29.2" fill="#EAEAEA" transform="matrix(1.00, 0.00, -0.00, -1.00, 286.0, 375.6)">L</text><text xml:space="preserve" font-family="HelveticaNeue-Medium,Helvetica Neue" font-size="29.2" fill="#EAEAEA" transform="matrix(1.00, 0.00, -0.00, -1.00, 302.8, 375.6)"> </text><text xml:space="preserve" font-family="HelveticaNeue-Medium,Helvetica Neue" font-size="29.2" fill="#EAEAEA" transform="matrix(1.00, 0.00, -0.00, -1.00, 310.9, 375.6)">d</text><text xml:space="preserve" font-family="HelveticaNeue-Medium,Helvetica Neue" font-size="29.2" fill="#EAEAEA" transform="matrix(1.00, 0.00, -0.00, -1.00, 328.8, 375.6)">i</text><text xml:space="preserve" font-family="HelveticaNeue-Medium,Helvetica Neue" font-size="29.2" fill="#EAEAEA" transform="matrix(1.00, 0.00, -0.00, -1.00, 335.8, 375.6)">a</text><text xml:space="preserve" font-family="HelveticaNeue-Medium,Helvetica Neue" font-size="29.2" fill="#EAEAEA" transform="matrix(1.00, 0.00, -0.00, -1.00, 352.1, 375.6)">g</text><text xml:space="preserve" font-family="HelveticaNeue-Medium,Helvetica Neue" font-size="29.2" fill="#EAEAEA" transform="matrix(1.00, 0.00, -0.00, -1.00, 369.4, 375.6)">n</text><text xml:space="preserve" font-family="HelveticaNeue-Medium,Helvetica Neue" font-size="29.2" fill="#EAEAEA" transform="matrix(1.00, 0.00, -0.00, -1.00, 386.2, 375.6)">o</text><text xml:space="preserve" font-family="HelveticaNeue-Medium,Helvetica Neue" font-size="29.2" fill="#EAEAEA" transform="matrix(1.00, 0.00, -0.00, -1.00, 403.5, 375.6)">s</text><text xml:space="preserve" font-family="HelveticaNeue-Medium,Helvetica Neue" font-size="29.2" fill="#EAEAEA" transform="matrix(1.00, 0.00, -0.00, -1.00, 418.7, 375.6)">i</text><text xml:space="preserve" font-family="HelveticaNeue-Medium,Helvetica Neue" font-size="29.2" fill="#EAEAEA" transform="matrix(1.00, 0.00, -0.00, -1.00, 425.8, 375.6)">s</text><text xml:space="preserve" font-family="HelveticaNeue-Medium,Helvetica Neue" font-size="29.2" fill="#EAEAEA" transform="matrix(1.00, 0.00, -0.00, -1.00, 440.9, 375.6)"> </text><image xlink:href="FBA02B14650CD0B9175E5D2131EB8818.png" width="17.00" height="17.00" transform="matrix(1.00, 0.00, -0.00, -1.00, 61.0, 321.0)"></image><text xml:space="preserve" font-family="HelveticaNeue-Medium,Helvetica Neue" font-size="21.9" fill="#FEE55E" transform="matrix(1.00, 0.00, -0.00, -1.00, 64.0, 306.3)">•</text><image xlink:href="6BCA66EC2384F74DBBA7B46D0F5C8972.png" width="787.00" height="36.00" transform="matrix(1.00, 0.00, -0.00, -1.00, 89.0, 327.0)"></image><text xml:space="preserve" font-family="HelveticaNeue-Medium,Helvetica Neue" font-size="29.2" fill="#FEE55E" transform="matrix(1.00, 0.00, -0.00, -1.00, 91.5, 303.5)">p</text><text xml:space="preserve" font-family="HelveticaNeue-Medium,Helvetica Neue" font-size="29.2" fill="#FEE55E" transform="matrix(1.00, 0.00, -0.00, -1.00, 109.4, 303.5)">r</text><text xml:space="preserve" font-family="HelveticaNeue-Medium,Helvetica Neue" font-size="29.2" fill="#FEE55E" transform="matrix(1.00, 0.00, -0.00, -1.00, 119.2, 303.5)">e</text><text xml:space="preserve" font-family="HelveticaNeue-Medium,Helvetica Neue" font-size="29.2" fill="#FEE55E" transform="matrix(1.00, 0.00, -0.00, -1.00, 135.4, 303.5)">c</text><text xml:space="preserve" font-family="HelveticaNeue-Medium,Helvetica Neue" font-size="29.2" fill="#FEE55E" transform="matrix(1.00, 0.00, -0.00, -1.00, 151.7, 303.5)">e</text><text xml:space="preserve" font-family="HelveticaNeue-Medium,Helvetica Neue" font-size="29.2" fill="#FEE55E" transform="matrix(1.00, 0.00, -0.00, -1.00, 167.9, 303.5)">d</text><text xml:space="preserve" font-family="HelveticaNeue-Medium,Helvetica Neue" font-size="29.2" fill="#FEE55E" transform="matrix(1.00, 0.00, -0.00, -1.00, 185.8, 303.5)">i</text><text xml:space="preserve" font-family="HelveticaNeue-Medium,Helvetica Neue" font-size="29.2" fill="#FEE55E" transform="matrix(1.00, 0.00, -0.00, -1.00, 192.8, 303.5)">n</text><text xml:space="preserve" font-family="HelveticaNeue-Medium,Helvetica Neue" font-size="29.2" fill="#FEE55E" transform="matrix(1.00, 0.00, -0.00, -1.00, 209.6, 303.5)">g</text><text xml:space="preserve" font-family="HelveticaNeue-Medium,Helvetica Neue" font-size="29.2" fill="#FEE55E" transform="matrix(1.00, 0.00, -0.00, -1.00, 227.0, 303.5)"> </text><text xml:space="preserve" font-family="HelveticaNeue-Medium,Helvetica Neue" font-size="29.2" fill="#FEE55E" transform="matrix(1.00, 0.00, -0.00, -1.00, 235.1, 303.5)">A</text><text xml:space="preserve" font-family="HelveticaNeue-Medium,Helvetica Neue" font-size="29.2" fill="#FEE55E" transform="matrix(1.00, 0.00, -0.00, -1.00, 254.6, 303.5)">M</text><text xml:space="preserve" font-family="HelveticaNeue-Medium,Helvetica Neue" font-size="29.2" fill="#FEE55E" transform="matrix(1.00, 0.00, -0.00, -1.00, 280.6, 303.5)">L</text><text xml:space="preserve" font-family="HelveticaNeue-Medium,Helvetica Neue" font-size="29.2" fill="#FEE55E" transform="matrix(1.00, 0.00, -0.00, -1.00, 297.4, 303.5)">,</text><text xml:space="preserve" font-family="HelveticaNeue-Medium,Helvetica Neue" font-size="29.2" fill="#FEE55E" transform="matrix(1.00, 0.00, -0.00, -1.00, 305.5, 303.5)"> </text><text xml:space="preserve" font-family="HelveticaNeue-Medium,Helvetica Neue" font-size="29.2" fill="#FEE55E" transform="matrix(1.00, 0.00, -0.00, -1.00, 313.6, 303.5)">w</text><text xml:space="preserve" font-family="HelveticaNeue-Medium,Helvetica Neue" font-size="29.2" fill="#FEE55E" transform="matrix(1.00, 0.00, -0.00, -1.00, 336.4, 303.5)">i</text><text xml:space="preserve" font-family="HelveticaNeue-Medium,Helvetica Neue" font-size="29.2" fill="#FEE55E" transform="matrix(1.00, 0.00, -0.00, -1.00, 343.4, 303.5)">t</text><text xml:space="preserve" font-family="HelveticaNeue-Medium,Helvetica Neue" font-size="29.2" fill="#FEE55E" transform="matrix(1.00, 0.00, -0.00, -1.00, 353.2, 303.5)">h</text><text xml:space="preserve" font-family="HelveticaNeue-Medium,Helvetica Neue" font-size="29.2" fill="#FEE55E" transform="matrix(1.00, 0.00, -0.00, -1.00, 369.9, 303.5)"> </text><text xml:space="preserve" font-family="HelveticaNeue-Medium,Helvetica Neue" font-size="29.2" fill="#FEE55E" transform="matrix(1.00, 0.00, -0.00, -1.00, 378.1, 303.5)">o</text><text xml:space="preserve" font-family="HelveticaNeue-Medium,Helvetica Neue" font-size="29.2" fill="#FEE55E" transform="matrix(1.00, 0.00, -0.00, -1.00, 395.4, 303.5)">r</text><text xml:space="preserve" font-family="HelveticaNeue-Medium,Helvetica Neue" font-size="29.2" fill="#FEE55E" transform="matrix(1.00, 0.00, -0.00, -1.00, 405.7, 303.5)"> </text><text xml:space="preserve" font-family="HelveticaNeue-Medium,Helvetica Neue" font-size="29.2" fill="#FEE55E" transform="matrix(1.00, 0.00, -0.00, -1.00, 413.8, 303.5)">w</text><text xml:space="preserve" font-family="HelveticaNeue-Medium,Helvetica Neue" font-size="29.2" fill="#FEE55E" transform="matrix(1.00, 0.00, -0.00, -1.00, 436.6, 303.5)">i</text><text xml:space="preserve" font-family="HelveticaNeue-Medium,Helvetica Neue" font-size="29.2" fill="#FEE55E" transform="matrix(1.00, 0.00, -0.00, -1.00, 443.6, 303.5)">t</text><text xml:space="preserve" font-family="HelveticaNeue-Medium,Helvetica Neue" font-size="29.2" fill="#FEE55E" transform="matrix(1.00, 0.00, -0.00, -1.00, 453.4, 303.5)">h</text><text xml:space="preserve" font-family="HelveticaNeue-Medium,Helvetica Neue" font-size="29.2" fill="#FEE55E" transform="matrix(1.00, 0.00, -0.00, -1.00, 470.1, 303.5)">o</text><text xml:space="preserve" font-family="HelveticaNeue-Medium,Helvetica Neue" font-size="29.2" fill="#FEE55E" transform="matrix(1.00, 0.00, -0.00, -1.00, 487.5, 303.5)">u</text><text xml:space="preserve" font-family="HelveticaNeue-Medium,Helvetica Neue" font-size="29.2" fill="#FEE55E" transform="matrix(1.00, 0.00, -0.00, -1.00, 504.3, 303.5)">t</text><text xml:space="preserve" font-family="HelveticaNeue-Medium,Helvetica Neue" font-size="29.2" fill="#FEE55E" transform="matrix(1.00, 0.00, -0.00, -1.00, 514.0, 303.5)"> </text><text xml:space="preserve" font-family="HelveticaNeue-Medium,Helvetica Neue" font-size="29.2" fill="#FEE55E" transform="matrix(1.00, 0.00, -0.00, -1.00, 522.1, 303.5)">a</text><text xml:space="preserve" font-family="HelveticaNeue-Medium,Helvetica Neue" font-size="29.2" fill="#FEE55E" transform="matrix(1.00, 0.00, -0.00, -1.00, 538.4, 303.5)">n</text><text xml:space="preserve" font-family="HelveticaNeue-Medium,Helvetica Neue" font-size="29.2" fill="#FEE55E" transform="matrix(1.00, 0.00, -0.00, -1.00, 555.2, 303.5)"> </text><text xml:space="preserve" font-family="HelveticaNeue-Medium,Helvetica Neue" font-size="29.2" fill="#FEE55E" transform="matrix(1.00, 0.00, -0.00, -1.00, 563.3, 303.5)">e</text><text xml:space="preserve" font-family="HelveticaNeue-Medium,Helvetica Neue" font-size="29.2" fill="#FEE55E" transform="matrix(1.00, 0.00, -0.00, -1.00, 579.6, 303.5)">x</text><text xml:space="preserve" font-family="HelveticaNeue-Medium,Helvetica Neue" font-size="29.2" fill="#FEE55E" transform="matrix(1.00, 0.00, -0.00, -1.00, 595.3, 303.5)">i</text><text xml:space="preserve" font-family="HelveticaNeue-Medium,Helvetica Neue" font-size="29.2" fill="#FEE55E" transform="matrix(1.00, 0.00, -0.00, -1.00, 602.3, 303.5)">s</text><text xml:space="preserve" font-family="HelveticaNeue-Medium,Helvetica Neue" font-size="29.2" fill="#FEE55E" transform="matrix(1.00, 0.00, -0.00, -1.00, 617.5, 303.5)">t</text><text xml:space="preserve" font-family="HelveticaNeue-Medium,Helvetica Neue" font-size="29.2" fill="#FEE55E" transform="matrix(1.00, 0.00, -0.00, -1.00, 627.2, 303.5)">i</text><text xml:space="preserve" font-family="HelveticaNeue-Medium,Helvetica Neue" font-size="29.2" fill="#FEE55E" transform="matrix(1.00, 0.00, -0.00, -1.00, 634.3, 303.5)">n</text><text xml:space="preserve" font-family="HelveticaNeue-Medium,Helvetica Neue" font-size="29.2" fill="#FEE55E" transform="matrix(1.00, 0.00, -0.00, -1.00, 651.1, 303.5)">g</text><text xml:space="preserve" font-family="HelveticaNeue-Medium,Helvetica Neue" font-size="29.2" fill="#FEE55E" transform="matrix(1.00, 0.00, -0.00, -1.00, 668.4, 303.5)"> </text><text xml:space="preserve" font-family="HelveticaNeue-Medium,Helvetica Neue" font-size="29.2" fill="#FEE55E" transform="matrix(1.00, 0.00, -0.00, -1.00, 676.5, 303.5)">h</text><text xml:space="preserve" font-family="HelveticaNeue-Medium,Helvetica Neue" font-size="29.2" fill="#FEE55E" transform="matrix(1.00, 0.00, -0.00, -1.00, 693.3, 303.5)">e</text><text xml:space="preserve" font-family="HelveticaNeue-Medium,Helvetica Neue" font-size="29.2" fill="#FEE55E" transform="matrix(1.00, 0.00, -0.00, -1.00, 709.6, 303.5)">m</text><text xml:space="preserve" font-family="HelveticaNeue-Medium,Helvetica Neue" font-size="29.2" fill="#FEE55E" transform="matrix(1.00, 0.00, -0.00, -1.00, 735.0, 303.5)">e</text><text xml:space="preserve" font-family="HelveticaNeue-Medium,Helvetica Neue" font-size="29.2" fill="#FEE55E" transform="matrix(1.00, 0.00, -0.00, -1.00, 751.3, 303.5)"> </text><text xml:space="preserve" font-family="HelveticaNeue-Medium,Helvetica Neue" font-size="29.2" fill="#FEE55E" transform="matrix(1.00, 0.00, -0.00, -1.00, 759.4, 303.5)">d</text><text xml:space="preserve" font-family="HelveticaNeue-Medium,Helvetica Neue" font-size="29.2" fill="#FEE55E" transform="matrix(1.00, 0.00, -0.00, -1.00, 777.3, 303.5)">i</text><text xml:space="preserve" font-family="HelveticaNeue-Medium,Helvetica Neue" font-size="29.2" fill="#FEE55E" transform="matrix(1.00, 0.00, -0.00, -1.00, 784.3, 303.5)">s</text><text xml:space="preserve" font-family="HelveticaNeue-Medium,Helvetica Neue" font-size="29.2" fill="#FEE55E" transform="matrix(1.00, 0.00, -0.00, -1.00, 799.5, 303.5)">o</text><text xml:space="preserve" font-family="HelveticaNeue-Medium,Helvetica Neue" font-size="29.2" fill="#FEE55E" transform="matrix(1.00, 0.00, -0.00, -1.00, 816.8, 303.5)">r</text><text xml:space="preserve" font-family="HelveticaNeue-Medium,Helvetica Neue" font-size="29.2" fill="#FEE55E" transform="matrix(1.00, 0.00, -0.00, -1.00, 826.6, 303.5)">d</text><text xml:space="preserve" font-family="HelveticaNeue-Medium,Helvetica Neue" font-size="29.2" fill="#FEE55E" transform="matrix(1.00, 0.00, -0.00, -1.00, 844.4, 303.5)">e</text><text xml:space="preserve" font-family="HelveticaNeue-Medium,Helvetica Neue" font-size="29.2" fill="#FEE55E" transform="matrix(1.00, 0.00, -0.00, -1.00, 860.7, 303.5)">r</text><text xml:space="preserve" font-family="HelveticaNeue-Medium,Helvetica Neue" font-size="29.2" fill="#FEE55E" transform="matrix(1.00, 0.00, -0.00, -1.00, 871.0, 303.5)"> </text><image xlink:href="35B27C3D6E5F2738CD51A78E7155629C.png" width="17.00" height="16.00" transform="matrix(1.00, 0.00, -0.00, -1.00, 93.0, 248.0)"></image><text xml:space="preserve" font-family="HelveticaNeue-Medium,Helvetica Neue" font-size="21.9" fill="#EAEAEA" transform="matrix(1.00, 0.00, -0.00, -1.00, 96.0, 234.2)">•</text><image xlink:href="E0457D15E51878111D95D10EADA4EE34.png" width="72.00" height="31.00" transform="matrix(1.00, 0.00, -0.00, -1.00, 121.0, 255.0)"></image><text xml:space="preserve" font-family="HelveticaNeue-Medium,Helvetica Neue" font-size="29.2" fill="#EAEAEA" transform="matrix(1.00, 0.00, -0.00, -1.00, 123.5, 231.4)">M</text><text xml:space="preserve" font-family="HelveticaNeue-Medium,Helvetica Neue" font-size="29.2" fill="#EAEAEA" transform="matrix(1.00, 0.00, -0.00, -1.00, 149.5, 231.4)">D</text><text xml:space="preserve" font-family="HelveticaNeue-Medium,Helvetica Neue" font-size="29.2" fill="#EAEAEA" transform="matrix(1.00, 0.00, -0.00, -1.00, 170.6, 231.4)">S</text><text xml:space="preserve" font-family="HelveticaNeue-Medium,Helvetica Neue" font-size="29.2" fill="#EAEAEA" transform="matrix(1.00, 0.00, -0.00, -1.00, 189.6, 231.4)"> </text><image xlink:href="8AEF9116B4C358A27D65A08D952C0D4E.png" width="17.00" height="17.00" transform="matrix(1.00, 0.00, -0.00, -1.00, 93.0, 176.0)"></image><text xml:space="preserve" font-family="HelveticaNeue-Medium,Helvetica Neue" font-size="21.9" fill="#EAEAEA" transform="matrix(1.00, 0.00, -0.00, -1.00, 96.0, 162.1)">•</text><image xlink:href="C9265F0F14C740B326744B38D9702E60.png" width="72.00" height="31.00" transform="matrix(1.00, 0.00, -0.00, -1.00, 120.0, 183.0)"></image><text xml:space="preserve" font-family="HelveticaNeue-Medium,Helvetica Neue" font-size="29.2" fill="#EAEAEA" transform="matrix(1.00, 0.00, -0.00, -1.00, 123.5, 159.3)">C</text><text xml:space="preserve" font-family="HelveticaNeue-Medium,Helvetica Neue" font-size="29.2" fill="#EAEAEA" transform="matrix(1.00, 0.00, -0.00, -1.00, 144.6, 159.3)">M</text><text xml:space="preserve" font-family="HelveticaNeue-Medium,Helvetica Neue" font-size="29.2" fill="#EAEAEA" transform="matrix(1.00, 0.00, -0.00, -1.00, 170.6, 159.3)">L</text><text xml:space="preserve" font-family="HelveticaNeue-Medium,Helvetica Neue" font-size="29.2" fill="#EAEAEA" transform="matrix(1.00, 0.00, -0.00, -1.00, 187.4, 159.3)"> </text><image xlink:href="070FE27FFCE27842D27988E5355EDA05.png" width="17.00" height="17.00" transform="matrix(1.00, 0.00, -0.00, -1.00, 93.0, 104.0)"></image><text xml:space="preserve" font-family="HelveticaNeue-Medium,Helvetica Neue" font-size="21.9" fill="#EAEAEA" transform="matrix(1.00, 0.00, -0.00, -1.00, 96.0, 89.9)">•</text><image xlink:href="279649449B1F2A9085F546DA3BAF54F7.png" width="73.00" height="30.00" transform="matrix(1.00, 0.00, -0.00, -1.00, 121.0, 111.0)"></image><text xml:space="preserve" font-family="HelveticaNeue-Medium,Helvetica Neue" font-size="29.2" fill="#EAEAEA" transform="matrix(1.00, 0.00, -0.00, -1.00, 123.5, 87.1)">M</text><text xml:space="preserve" font-family="HelveticaNeue-Medium,Helvetica Neue" font-size="29.2" fill="#EAEAEA" transform="matrix(1.00, 0.00, -0.00, -1.00, 149.5, 87.1)">P</text><text xml:space="preserve" font-family="HelveticaNeue-Medium,Helvetica Neue" font-size="29.2" fill="#EAEAEA" transform="matrix(1.00, 0.00, -0.00, -1.00, 169.0, 87.1)">D</text></g></svg>