<?xml version="1.0" encoding="UTF-8" standalone="no"?><svg xmlns="http://www.w3.org/2000/svg" xmlns:xlink="http://www.w3.org/1999/xlink" clip-rule="evenodd" stroke-miterlimit="10" viewBox="0 0 1024 768"><desc>SVG generated by Keynote</desc><defs></defs><g transform="matrix(1.00, 0.00, -0.00, -1.00, 0.0, 768.0)"><g><clipPath id="clip0x7f8a737c7260"><path d="M 0.0 768.0 L 1024.0 768.0 L 1024.0 0.0 L 0.0 0.0 Z M 0.0 768.0 "></path></clipPath><g clip-path="url(#clip0x7f8a737c7260)"><image xlink:href="../../384E26B0-0AD0-495F-BA75-267B55ABD0BD/assets/31D284A5C75E14674D2A89FDB99F8048.jpeg" width="2048.00" height="1536.00" transform="matrix(0.50, 0.00, -0.00, -0.50, 0.0, 768.0)"></image></g></g><image xlink:href="../../C5677EAA-3B19-4D94-BA0A-73552D068AE4/assets/4BBE19E2F15428306321B07CFD6A9B84.png" width="996.00" height="29.00" transform="matrix(1.00, 0.00, -0.00, -1.00, 14.0, 58.0)"></image><text xml:space="preserve" font-family="HelveticaNeue-Medium,Helvetica Neue" font-size="22.0" fill="#EAEAEA" transform="matrix(1.00, 0.00, -0.00, -1.00, 17.6, 39.5)">C</text><text xml:space="preserve" font-family="HelveticaNeue-Medium,Helvetica Neue" font-size="22.0" fill="#EAEAEA" transform="matrix(1.00, 0.00, -0.00, -1.00, 33.5, 39.5)">h</text><text xml:space="preserve" font-family="HelveticaNeue-Medium,Helvetica Neue" font-size="22.0" fill="#EAEAEA" transform="matrix(1.00, 0.00, -0.00, -1.00, 46.2, 39.5)">a</text><text xml:space="preserve" font-family="HelveticaNeue-Medium,Helvetica Neue" font-size="22.0" fill="#EAEAEA" transform="matrix(1.00, 0.00, -0.00, -1.00, 58.4, 39.5)">p</text><text xml:space="preserve" font-family="HelveticaNeue-Medium,Helvetica Neue" font-size="22.0" fill="#EAEAEA" transform="matrix(1.00, 0.00, -0.00, -1.00, 71.8, 39.5)">m</text><text xml:space="preserve" font-family="HelveticaNeue-Medium,Helvetica Neue" font-size="22.0" fill="#EAEAEA" transform="matrix(1.00, 0.00, -0.00, -1.00, 91.0, 39.5)">a</text><text xml:space="preserve" font-family="HelveticaNeue-Medium,Helvetica Neue" font-size="22.0" fill="#EAEAEA" transform="matrix(1.00, 0.00, -0.00, -1.00, 103.2, 39.5)">n</text><text xml:space="preserve" font-family="HelveticaNeue-Medium,Helvetica Neue" font-size="22.0" fill="#EAEAEA" transform="matrix(1.00, 0.00, -0.00, -1.00, 115.8, 39.5)"> </text><text xml:space="preserve" font-family="HelveticaNeue-Medium,Helvetica Neue" font-size="22.0" fill="#EAEAEA" transform="matrix(1.00, 0.00, -0.00, -1.00, 122.0, 39.5)">P</text><text xml:space="preserve" font-family="HelveticaNeue-Medium,Helvetica Neue" font-size="22.0" fill="#EAEAEA" transform="matrix(1.00, 0.00, -0.00, -1.00, 136.6, 39.5)">B</text><text xml:space="preserve" font-family="HelveticaNeue-Medium,Helvetica Neue" font-size="22.0" fill="#EAEAEA" transform="matrix(1.00, 0.00, -0.00, -1.00, 152.1, 39.5)">,</text><text xml:space="preserve" font-family="HelveticaNeue-Medium,Helvetica Neue" font-size="22.0" fill="#EAEAEA" transform="matrix(1.00, 0.00, -0.00, -1.00, 158.2, 39.5)"> </text><text xml:space="preserve" font-family="HelveticaNeue-Medium,Helvetica Neue" font-size="22.0" fill="#EAEAEA" transform="matrix(1.00, 0.00, -0.00, -1.00, 164.3, 39.5)">H</text><text xml:space="preserve" font-family="HelveticaNeue-Medium,Helvetica Neue" font-size="22.0" fill="#EAEAEA" transform="matrix(1.00, 0.00, -0.00, -1.00, 180.2, 39.5)">a</text><text xml:space="preserve" font-family="HelveticaNeue-Medium,Helvetica Neue" font-size="22.0" fill="#EAEAEA" transform="matrix(1.00, 0.00, -0.00, -1.00, 192.5, 39.5)">u</text><text xml:space="preserve" font-family="HelveticaNeue-Medium,Helvetica Neue" font-size="22.0" fill="#EAEAEA" transform="matrix(1.00, 0.00, -0.00, -1.00, 205.1, 39.5)">s</text><text xml:space="preserve" font-family="HelveticaNeue-Medium,Helvetica Neue" font-size="22.0" fill="#EAEAEA" transform="matrix(1.00, 0.00, -0.00, -1.00, 216.5, 39.5)">c</text><text xml:space="preserve" font-family="HelveticaNeue-Medium,Helvetica Neue" font-size="22.0" fill="#EAEAEA" transform="matrix(1.00, 0.00, -0.00, -1.00, 228.7, 39.5)">h</text><text xml:space="preserve" font-family="HelveticaNeue-Medium,Helvetica Neue" font-size="22.0" fill="#EAEAEA" transform="matrix(1.00, 0.00, -0.00, -1.00, 241.4, 39.5)">i</text><text xml:space="preserve" font-family="HelveticaNeue-Medium,Helvetica Neue" font-size="22.0" fill="#EAEAEA" transform="matrix(1.00, 0.00, -0.00, -1.00, 246.7, 39.5)">l</text><text xml:space="preserve" font-family="HelveticaNeue-Medium,Helvetica Neue" font-size="22.0" fill="#EAEAEA" transform="matrix(1.00, 0.00, -0.00, -1.00, 252.0, 39.5)">d</text><text xml:space="preserve" font-family="HelveticaNeue-Medium,Helvetica Neue" font-size="22.0" fill="#EAEAEA" transform="matrix(1.00, 0.00, -0.00, -1.00, 265.4, 39.5)"> </text><text xml:space="preserve" font-family="HelveticaNeue-Medium,Helvetica Neue" font-size="22.0" fill="#EAEAEA" transform="matrix(1.00, 0.00, -0.00, -1.00, 271.5, 39.5)">A</text><text xml:space="preserve" font-family="HelveticaNeue-Medium,Helvetica Neue" font-size="22.0" fill="#EAEAEA" transform="matrix(1.00, 0.00, -0.00, -1.00, 286.2, 39.5)">,</text><text xml:space="preserve" font-family="HelveticaNeue-Medium,Helvetica Neue" font-size="22.0" fill="#EAEAEA" transform="matrix(1.00, 0.00, -0.00, -1.00, 292.3, 39.5)"> </text><text xml:space="preserve" font-family="HelveticaNeue-Medium,Helvetica Neue" font-size="22.0" fill="#EAEAEA" transform="matrix(1.00, 0.00, -0.00, -1.00, 298.4, 39.5)">R</text><text xml:space="preserve" font-family="HelveticaNeue-Medium,Helvetica Neue" font-size="22.0" fill="#EAEAEA" transform="matrix(1.00, 0.00, -0.00, -1.00, 313.9, 39.5)">o</text><text xml:space="preserve" font-family="HelveticaNeue-Medium,Helvetica Neue" font-size="22.0" fill="#EAEAEA" transform="matrix(1.00, 0.00, -0.00, -1.00, 327.0, 39.5)">b</text><text xml:space="preserve" font-family="HelveticaNeue-Medium,Helvetica Neue" font-size="22.0" fill="#EAEAEA" transform="matrix(1.00, 0.00, -0.00, -1.00, 340.4, 39.5)">e</text><text xml:space="preserve" font-family="HelveticaNeue-Medium,Helvetica Neue" font-size="22.0" fill="#EAEAEA" transform="matrix(1.00, 0.00, -0.00, -1.00, 352.6, 39.5)">r</text><text xml:space="preserve" font-family="HelveticaNeue-Medium,Helvetica Neue" font-size="22.0" fill="#EAEAEA" transform="matrix(1.00, 0.00, -0.00, -1.00, 360.4, 39.5)">t</text><text xml:space="preserve" font-family="HelveticaNeue-Medium,Helvetica Neue" font-size="22.0" fill="#EAEAEA" transform="matrix(1.00, 0.00, -0.00, -1.00, 367.7, 39.5)"> </text><text xml:space="preserve" font-family="HelveticaNeue-Medium,Helvetica Neue" font-size="22.0" fill="#EAEAEA" transform="matrix(1.00, 0.00, -0.00, -1.00, 373.8, 39.5)">C</text><text xml:space="preserve" font-family="HelveticaNeue-Medium,Helvetica Neue" font-size="22.0" fill="#EAEAEA" transform="matrix(1.00, 0.00, -0.00, -1.00, 389.7, 39.5)">,</text><text xml:space="preserve" font-family="HelveticaNeue-Medium,Helvetica Neue" font-size="22.0" fill="#EAEAEA" transform="matrix(1.00, 0.00, -0.00, -1.00, 395.8, 39.5)"> </text><text xml:space="preserve" font-family="HelveticaNeue-Medium,Helvetica Neue" font-size="22.0" fill="#EAEAEA" transform="matrix(1.00, 0.00, -0.00, -1.00, 401.9, 39.5)">e</text><text xml:space="preserve" font-family="HelveticaNeue-Medium,Helvetica Neue" font-size="22.0" fill="#EAEAEA" transform="matrix(1.00, 0.00, -0.00, -1.00, 414.2, 39.5)">t</text><text xml:space="preserve" font-family="HelveticaNeue-Medium,Helvetica Neue" font-size="22.0" fill="#EAEAEA" transform="matrix(1.00, 0.00, -0.00, -1.00, 421.5, 39.5)"> </text><text xml:space="preserve" font-family="HelveticaNeue-Medium,Helvetica Neue" font-size="22.0" fill="#EAEAEA" transform="matrix(1.00, 0.00, -0.00, -1.00, 427.6, 39.5)">a</text><text xml:space="preserve" font-family="HelveticaNeue-Medium,Helvetica Neue" font-size="22.0" fill="#EAEAEA" transform="matrix(1.00, 0.00, -0.00, -1.00, 439.9, 39.5)">l</text><text xml:space="preserve" font-family="HelveticaNeue-Medium,Helvetica Neue" font-size="22.0" fill="#EAEAEA" transform="matrix(1.00, 0.00, -0.00, -1.00, 445.2, 39.5)">.</text><text xml:space="preserve" font-family="HelveticaNeue-Medium,Helvetica Neue" font-size="22.0" fill="#EAEAEA" transform="matrix(1.00, 0.00, -0.00, -1.00, 451.3, 39.5)"> </text><text xml:space="preserve" font-family="HelveticaNeue-Medium,Helvetica Neue" font-size="22.0" fill="#EAEAEA" transform="matrix(1.00, 0.00, -0.00, -1.00, 457.4, 39.5)">I</text><text xml:space="preserve" font-family="HelveticaNeue-Medium,Helvetica Neue" font-size="22.0" fill="#EAEAEA" transform="matrix(1.00, 0.00, -0.00, -1.00, 463.5, 39.5)">m</text><text xml:space="preserve" font-family="HelveticaNeue-Medium,Helvetica Neue" font-size="22.0" fill="#EAEAEA" transform="matrix(1.00, 0.00, -0.00, -1.00, 482.6, 39.5)">p</text><text xml:space="preserve" font-family="HelveticaNeue-Medium,Helvetica Neue" font-size="22.0" fill="#EAEAEA" transform="matrix(1.00, 0.00, -0.00, -1.00, 496.1, 39.5)">r</text><text xml:space="preserve" font-family="HelveticaNeue-Medium,Helvetica Neue" font-size="22.0" fill="#EAEAEA" transform="matrix(1.00, 0.00, -0.00, -1.00, 503.4, 39.5)">o</text><text xml:space="preserve" font-family="HelveticaNeue-Medium,Helvetica Neue" font-size="22.0" fill="#EAEAEA" transform="matrix(1.00, 0.00, -0.00, -1.00, 516.5, 39.5)">v</text><text xml:space="preserve" font-family="HelveticaNeue-Medium,Helvetica Neue" font-size="22.0" fill="#EAEAEA" transform="matrix(1.00, 0.00, -0.00, -1.00, 527.9, 39.5)">e</text><text xml:space="preserve" font-family="HelveticaNeue-Medium,Helvetica Neue" font-size="22.0" fill="#EAEAEA" transform="matrix(1.00, 0.00, -0.00, -1.00, 540.1, 39.5)">d</text><text xml:space="preserve" font-family="HelveticaNeue-Medium,Helvetica Neue" font-size="22.0" fill="#EAEAEA" transform="matrix(1.00, 0.00, -0.00, -1.00, 553.6, 39.5)"> </text><text xml:space="preserve" font-family="HelveticaNeue-Medium,Helvetica Neue" font-size="22.0" fill="#EAEAEA" transform="matrix(1.00, 0.00, -0.00, -1.00, 559.7, 39.5)">S</text><text xml:space="preserve" font-family="HelveticaNeue-Medium,Helvetica Neue" font-size="22.0" fill="#EAEAEA" transform="matrix(1.00, 0.00, -0.00, -1.00, 573.9, 39.5)">u</text><text xml:space="preserve" font-family="HelveticaNeue-Medium,Helvetica Neue" font-size="22.0" fill="#EAEAEA" transform="matrix(1.00, 0.00, -0.00, -1.00, 586.6, 39.5)">r</text><text xml:space="preserve" font-family="HelveticaNeue-Medium,Helvetica Neue" font-size="22.0" fill="#EAEAEA" transform="matrix(1.00, 0.00, -0.00, -1.00, 594.3, 39.5)">v</text><text xml:space="preserve" font-family="HelveticaNeue-Medium,Helvetica Neue" font-size="22.0" fill="#EAEAEA" transform="matrix(1.00, 0.00, -0.00, -1.00, 605.7, 39.5)">i</text><text xml:space="preserve" font-family="HelveticaNeue-Medium,Helvetica Neue" font-size="22.0" fill="#EAEAEA" transform="matrix(1.00, 0.00, -0.00, -1.00, 611.0, 39.5)">v</text><text xml:space="preserve" font-family="HelveticaNeue-Medium,Helvetica Neue" font-size="22.0" fill="#EAEAEA" transform="matrix(1.00, 0.00, -0.00, -1.00, 622.5, 39.5)">a</text><text xml:space="preserve" font-family="HelveticaNeue-Medium,Helvetica Neue" font-size="22.0" fill="#EAEAEA" transform="matrix(1.00, 0.00, -0.00, -1.00, 634.7, 39.5)">l</text><text xml:space="preserve" font-family="HelveticaNeue-Medium,Helvetica Neue" font-size="22.0" fill="#EAEAEA" transform="matrix(1.00, 0.00, -0.00, -1.00, 640.0, 39.5)"> </text><text xml:space="preserve" font-family="HelveticaNeue-Medium,Helvetica Neue" font-size="22.0" fill="#EAEAEA" transform="matrix(1.00, 0.00, -0.00, -1.00, 646.1, 39.5)">w</text><text xml:space="preserve" font-family="HelveticaNeue-Medium,Helvetica Neue" font-size="22.0" fill="#EAEAEA" transform="matrix(1.00, 0.00, -0.00, -1.00, 663.2, 39.5)">i</text><text xml:space="preserve" font-family="HelveticaNeue-Medium,Helvetica Neue" font-size="22.0" fill="#EAEAEA" transform="matrix(1.00, 0.00, -0.00, -1.00, 668.5, 39.5)">t</text><text xml:space="preserve" font-family="HelveticaNeue-Medium,Helvetica Neue" font-size="22.0" fill="#EAEAEA" transform="matrix(1.00, 0.00, -0.00, -1.00, 675.8, 39.5)">h</text><text xml:space="preserve" font-family="HelveticaNeue-Medium,Helvetica Neue" font-size="22.0" fill="#EAEAEA" transform="matrix(1.00, 0.00, -0.00, -1.00, 688.5, 39.5)"> </text><text xml:space="preserve" font-family="HelveticaNeue-Medium,Helvetica Neue" font-size="22.0" fill="#EAEAEA" transform="matrix(1.00, 0.00, -0.00, -1.00, 694.6, 39.5)">V</text><text xml:space="preserve" font-family="HelveticaNeue-Medium,Helvetica Neue" font-size="22.0" fill="#EAEAEA" transform="matrix(1.00, 0.00, -0.00, -1.00, 706.8, 39.5)">e</text><text xml:space="preserve" font-family="HelveticaNeue-Medium,Helvetica Neue" font-size="22.0" fill="#EAEAEA" transform="matrix(1.00, 0.00, -0.00, -1.00, 719.1, 39.5)">m</text><text xml:space="preserve" font-family="HelveticaNeue-Medium,Helvetica Neue" font-size="22.0" fill="#EAEAEA" transform="matrix(1.00, 0.00, -0.00, -1.00, 738.2, 39.5)">u</text><text xml:space="preserve" font-family="HelveticaNeue-Medium,Helvetica Neue" font-size="22.0" fill="#EAEAEA" transform="matrix(1.00, 0.00, -0.00, -1.00, 750.8, 39.5)">r</text><text xml:space="preserve" font-family="HelveticaNeue-Medium,Helvetica Neue" font-size="22.0" fill="#EAEAEA" transform="matrix(1.00, 0.00, -0.00, -1.00, 758.6, 39.5)">a</text><text xml:space="preserve" font-family="HelveticaNeue-Medium,Helvetica Neue" font-size="22.0" fill="#EAEAEA" transform="matrix(1.00, 0.00, -0.00, -1.00, 770.8, 39.5)">f</text><text xml:space="preserve" font-family="HelveticaNeue-Medium,Helvetica Neue" font-size="22.0" fill="#EAEAEA" transform="matrix(1.00, 0.00, -0.00, -1.00, 777.7, 39.5)">e</text><text xml:space="preserve" font-family="HelveticaNeue-Medium,Helvetica Neue" font-size="22.0" fill="#EAEAEA" transform="matrix(1.00, 0.00, -0.00, -1.00, 790.0, 39.5)">n</text><text xml:space="preserve" font-family="HelveticaNeue-Medium,Helvetica Neue" font-size="22.0" fill="#EAEAEA" transform="matrix(1.00, 0.00, -0.00, -1.00, 802.6, 39.5)">i</text><text xml:space="preserve" font-family="HelveticaNeue-Medium,Helvetica Neue" font-size="22.0" fill="#EAEAEA" transform="matrix(1.00, 0.00, -0.00, -1.00, 807.9, 39.5)">b</text><text xml:space="preserve" font-family="HelveticaNeue-Medium,Helvetica Neue" font-size="22.0" fill="#EAEAEA" transform="matrix(1.00, 0.00, -0.00, -1.00, 821.3, 39.5)"> </text><text xml:space="preserve" font-family="HelveticaNeue-Medium,Helvetica Neue" font-size="22.0" fill="#EAEAEA" transform="matrix(1.00, 0.00, -0.00, -1.00, 827.4, 39.5)">i</text><text xml:space="preserve" font-family="HelveticaNeue-Medium,Helvetica Neue" font-size="22.0" fill="#EAEAEA" transform="matrix(1.00, 0.00, -0.00, -1.00, 832.7, 39.5)">n</text><text xml:space="preserve" font-family="HelveticaNeue-Medium,Helvetica Neue" font-size="22.0" fill="#EAEAEA" transform="matrix(1.00, 0.00, -0.00, -1.00, 845.4, 39.5)"> </text><text xml:space="preserve" font-family="HelveticaNeue-Medium,Helvetica Neue" font-size="22.0" fill="#EAEAEA" transform="matrix(1.00, 0.00, -0.00, -1.00, 851.5, 39.5)">M</text><text xml:space="preserve" font-family="HelveticaNeue-Medium,Helvetica Neue" font-size="22.0" fill="#EAEAEA" transform="matrix(1.00, 0.00, -0.00, -1.00, 871.1, 39.5)">e</text><text xml:space="preserve" font-family="HelveticaNeue-Medium,Helvetica Neue" font-size="22.0" fill="#EAEAEA" transform="matrix(1.00, 0.00, -0.00, -1.00, 883.3, 39.5)">l</text><text xml:space="preserve" font-family="HelveticaNeue-Medium,Helvetica Neue" font-size="22.0" fill="#EAEAEA" transform="matrix(1.00, 0.00, -0.00, -1.00, 888.6, 39.5)">a</text><text xml:space="preserve" font-family="HelveticaNeue-Medium,Helvetica Neue" font-size="22.0" fill="#EAEAEA" transform="matrix(1.00, 0.00, -0.00, -1.00, 900.8, 39.5)">n</text><text xml:space="preserve" font-family="HelveticaNeue-Medium,Helvetica Neue" font-size="22.0" fill="#EAEAEA" transform="matrix(1.00, 0.00, -0.00, -1.00, 913.4, 39.5)">o</text><text xml:space="preserve" font-family="HelveticaNeue-Medium,Helvetica Neue" font-size="22.0" fill="#EAEAEA" transform="matrix(1.00, 0.00, -0.00, -1.00, 926.5, 39.5)">m</text><text xml:space="preserve" font-family="HelveticaNeue-Medium,Helvetica Neue" font-size="22.0" fill="#EAEAEA" transform="matrix(1.00, 0.00, -0.00, -1.00, 945.6, 39.5)">a</text><text xml:space="preserve" font-family="HelveticaNeue-Medium,Helvetica Neue" font-size="22.0" fill="#EAEAEA" transform="matrix(1.00, 0.00, -0.00, -1.00, 957.9, 39.5)"> </text><text xml:space="preserve" font-family="HelveticaNeue-Medium,Helvetica Neue" font-size="22.0" fill="#EAEAEA" transform="matrix(1.00, 0.00, -0.00, -1.00, 964.0, 39.5)">w</text><text xml:space="preserve" font-family="HelveticaNeue-Medium,Helvetica Neue" font-size="22.0" fill="#EAEAEA" transform="matrix(1.00, 0.00, -0.00, -1.00, 981.1, 39.5)">i</text><text xml:space="preserve" font-family="HelveticaNeue-Medium,Helvetica Neue" font-size="22.0" fill="#EAEAEA" transform="matrix(1.00, 0.00, -0.00, -1.00, 986.4, 39.5)">t</text><text xml:space="preserve" font-family="HelveticaNeue-Medium,Helvetica Neue" font-size="22.0" fill="#EAEAEA" transform="matrix(1.00, 0.00, -0.00, -1.00, 993.7, 39.5)">h</text><text xml:space="preserve" font-family="HelveticaNeue-Medium,Helvetica Neue" font-size="22.0" fill="#EAEAEA" transform="matrix(1.00, 0.00, -0.00, -1.00, 1006.4, 39.5)"> </text><image xlink:href="../../C5677EAA-3B19-4D94-BA0A-73552D068AE4/assets/EE4DE326A4573A3F896942FCFBCE0D99.png" width="896.00" height="29.00" transform="matrix(1.00, 0.00, -0.00, -1.00, 64.0, 31.0)"></image><text xml:space="preserve" font-family="HelveticaNeue-Medium,Helvetica Neue" font-size="22.0" fill="#EAEAEA" transform="matrix(1.00, 0.00, -0.00, -1.00, 67.1, 12.5)">B</text><text xml:space="preserve" font-family="HelveticaNeue-Medium,Helvetica Neue" font-size="22.0" fill="#EAEAEA" transform="matrix(1.00, 0.00, -0.00, -1.00, 82.6, 12.5)">R</text><text xml:space="preserve" font-family="HelveticaNeue-Medium,Helvetica Neue" font-size="22.0" fill="#EAEAEA" transform="matrix(1.00, 0.00, -0.00, -1.00, 98.1, 12.5)">A</text><text xml:space="preserve" font-family="HelveticaNeue-Medium,Helvetica Neue" font-size="22.0" fill="#EAEAEA" transform="matrix(1.00, 0.00, -0.00, -1.00, 112.8, 12.5)">F</text><text xml:space="preserve" font-family="HelveticaNeue-Medium,Helvetica Neue" font-size="22.0" fill="#EAEAEA" transform="matrix(1.00, 0.00, -0.00, -1.00, 125.8, 12.5)"> </text><text xml:space="preserve" font-family="HelveticaNeue-Medium,Helvetica Neue" font-size="22.0" fill="#EAEAEA" transform="matrix(1.00, 0.00, -0.00, -1.00, 131.9, 12.5)">V</text><text xml:space="preserve" font-family="HelveticaNeue-Medium,Helvetica Neue" font-size="22.0" fill="#EAEAEA" transform="matrix(1.00, 0.00, -0.00, -1.00, 145.4, 12.5)">6</text><text xml:space="preserve" font-family="HelveticaNeue-Medium,Helvetica Neue" font-size="22.0" fill="#EAEAEA" transform="matrix(1.00, 0.00, -0.00, -1.00, 157.6, 12.5)">0</text><text xml:space="preserve" font-family="HelveticaNeue-Medium,Helvetica Neue" font-size="22.0" fill="#EAEAEA" transform="matrix(1.00, 0.00, -0.00, -1.00, 169.8, 12.5)">0</text><text xml:space="preserve" font-family="HelveticaNeue-Medium,Helvetica Neue" font-size="22.0" fill="#EAEAEA" transform="matrix(1.00, 0.00, -0.00, -1.00, 182.1, 12.5)">E</text><text xml:space="preserve" font-family="HelveticaNeue-Medium,Helvetica Neue" font-size="22.0" fill="#EAEAEA" transform="matrix(1.00, 0.00, -0.00, -1.00, 195.9, 12.5)"> </text><text xml:space="preserve" font-family="HelveticaNeue-Medium,Helvetica Neue" font-size="22.0" fill="#EAEAEA" transform="matrix(1.00, 0.00, -0.00, -1.00, 202.0, 12.5)">M</text><text xml:space="preserve" font-family="HelveticaNeue-Medium,Helvetica Neue" font-size="22.0" fill="#EAEAEA" transform="matrix(1.00, 0.00, -0.00, -1.00, 221.6, 12.5)">u</text><text xml:space="preserve" font-family="HelveticaNeue-Medium,Helvetica Neue" font-size="22.0" fill="#EAEAEA" transform="matrix(1.00, 0.00, -0.00, -1.00, 234.2, 12.5)">t</text><text xml:space="preserve" font-family="HelveticaNeue-Medium,Helvetica Neue" font-size="22.0" fill="#EAEAEA" transform="matrix(1.00, 0.00, -0.00, -1.00, 241.5, 12.5)">a</text><text xml:space="preserve" font-family="HelveticaNeue-Medium,Helvetica Neue" font-size="22.0" fill="#EAEAEA" transform="matrix(1.00, 0.00, -0.00, -1.00, 253.8, 12.5)">t</text><text xml:space="preserve" font-family="HelveticaNeue-Medium,Helvetica Neue" font-size="22.0" fill="#EAEAEA" transform="matrix(1.00, 0.00, -0.00, -1.00, 261.1, 12.5)">i</text><text xml:space="preserve" font-family="HelveticaNeue-Medium,Helvetica Neue" font-size="22.0" fill="#EAEAEA" transform="matrix(1.00, 0.00, -0.00, -1.00, 266.4, 12.5)">o</text><text xml:space="preserve" font-family="HelveticaNeue-Medium,Helvetica Neue" font-size="22.0" fill="#EAEAEA" transform="matrix(1.00, 0.00, -0.00, -1.00, 279.4, 12.5)">n</text><text xml:space="preserve" font-family="HelveticaNeue-Medium,Helvetica Neue" font-size="22.0" fill="#EAEAEA" transform="matrix(1.00, 0.00, -0.00, -1.00, 292.1, 12.5)">.</text><text xml:space="preserve" font-family="HelveticaNeue-Medium,Helvetica Neue" font-size="22.0" fill="#EAEAEA" transform="matrix(1.00, 0.00, -0.00, -1.00, 298.2, 12.5)"> </text><text xml:space="preserve" font-family="HelveticaNeue-Medium,Helvetica Neue" font-size="22.0" fill="#EAEAEA" transform="matrix(1.00, 0.00, -0.00, -1.00, 304.3, 12.5)">N</text><text xml:space="preserve" font-family="HelveticaNeue-Medium,Helvetica Neue" font-size="22.0" fill="#EAEAEA" transform="matrix(1.00, 0.00, -0.00, -1.00, 320.2, 12.5)">e</text><text xml:space="preserve" font-family="HelveticaNeue-Medium,Helvetica Neue" font-size="22.0" fill="#EAEAEA" transform="matrix(1.00, 0.00, -0.00, -1.00, 332.4, 12.5)">w</text><text xml:space="preserve" font-family="HelveticaNeue-Medium,Helvetica Neue" font-size="22.0" fill="#EAEAEA" transform="matrix(1.00, 0.00, -0.00, -1.00, 349.5, 12.5)"> </text><text xml:space="preserve" font-family="HelveticaNeue-Medium,Helvetica Neue" font-size="22.0" fill="#EAEAEA" transform="matrix(1.00, 0.00, -0.00, -1.00, 355.7, 12.5)">E</text><text xml:space="preserve" font-family="HelveticaNeue-Medium,Helvetica Neue" font-size="22.0" fill="#EAEAEA" transform="matrix(1.00, 0.00, -0.00, -1.00, 369.5, 12.5)">n</text><text xml:space="preserve" font-family="HelveticaNeue-Medium,Helvetica Neue" font-size="22.0" fill="#EAEAEA" transform="matrix(1.00, 0.00, -0.00, -1.00, 382.1, 12.5)">g</text><text xml:space="preserve" font-family="HelveticaNeue-Medium,Helvetica Neue" font-size="22.0" fill="#EAEAEA" transform="matrix(1.00, 0.00, -0.00, -1.00, 395.2, 12.5)">l</text><text xml:space="preserve" font-family="HelveticaNeue-Medium,Helvetica Neue" font-size="22.0" fill="#EAEAEA" transform="matrix(1.00, 0.00, -0.00, -1.00, 400.5, 12.5)">a</text><text xml:space="preserve" font-family="HelveticaNeue-Medium,Helvetica Neue" font-size="22.0" fill="#EAEAEA" transform="matrix(1.00, 0.00, -0.00, -1.00, 412.7, 12.5)">n</text><text xml:space="preserve" font-family="HelveticaNeue-Medium,Helvetica Neue" font-size="22.0" fill="#EAEAEA" transform="matrix(1.00, 0.00, -0.00, -1.00, 425.4, 12.5)">d</text><text xml:space="preserve" font-family="HelveticaNeue-Medium,Helvetica Neue" font-size="22.0" fill="#EAEAEA" transform="matrix(1.00, 0.00, -0.00, -1.00, 438.8, 12.5)"> </text><text xml:space="preserve" font-family="HelveticaNeue-Medium,Helvetica Neue" font-size="22.0" fill="#EAEAEA" transform="matrix(1.00, 0.00, -0.00, -1.00, 444.9, 12.5)">J</text><text xml:space="preserve" font-family="HelveticaNeue-Medium,Helvetica Neue" font-size="22.0" fill="#EAEAEA" transform="matrix(1.00, 0.00, -0.00, -1.00, 456.7, 12.5)">o</text><text xml:space="preserve" font-family="HelveticaNeue-Medium,Helvetica Neue" font-size="22.0" fill="#EAEAEA" transform="matrix(1.00, 0.00, -0.00, -1.00, 469.8, 12.5)">u</text><text xml:space="preserve" font-family="HelveticaNeue-Medium,Helvetica Neue" font-size="22.0" fill="#EAEAEA" transform="matrix(1.00, 0.00, -0.00, -1.00, 482.4, 12.5)">r</text><text xml:space="preserve" font-family="HelveticaNeue-Medium,Helvetica Neue" font-size="22.0" fill="#EAEAEA" transform="matrix(1.00, 0.00, -0.00, -1.00, 490.5, 12.5)">n</text><text xml:space="preserve" font-family="HelveticaNeue-Medium,Helvetica Neue" font-size="22.0" fill="#EAEAEA" transform="matrix(1.00, 0.00, -0.00, -1.00, 503.2, 12.5)">a</text><text xml:space="preserve" font-family="HelveticaNeue-Medium,Helvetica Neue" font-size="22.0" fill="#EAEAEA" transform="matrix(1.00, 0.00, -0.00, -1.00, 515.4, 12.5)">l</text><text xml:space="preserve" font-family="HelveticaNeue-Medium,Helvetica Neue" font-size="22.0" fill="#EAEAEA" transform="matrix(1.00, 0.00, -0.00, -1.00, 520.7, 12.5)"> </text><text xml:space="preserve" font-family="HelveticaNeue-Medium,Helvetica Neue" font-size="22.0" fill="#EAEAEA" transform="matrix(1.00, 0.00, -0.00, -1.00, 526.8, 12.5)">o</text><text xml:space="preserve" font-family="HelveticaNeue-Medium,Helvetica Neue" font-size="22.0" fill="#EAEAEA" transform="matrix(1.00, 0.00, -0.00, -1.00, 539.9, 12.5)">f</text><text xml:space="preserve" font-family="HelveticaNeue-Medium,Helvetica Neue" font-size="22.0" fill="#EAEAEA" transform="matrix(1.00, 0.00, -0.00, -1.00, 546.8, 12.5)"> </text><text xml:space="preserve" font-family="HelveticaNeue-Medium,Helvetica Neue" font-size="22.0" fill="#EAEAEA" transform="matrix(1.00, 0.00, -0.00, -1.00, 552.9, 12.5)">M</text><text xml:space="preserve" font-family="HelveticaNeue-Medium,Helvetica Neue" font-size="22.0" fill="#EAEAEA" transform="matrix(1.00, 0.00, -0.00, -1.00, 572.5, 12.5)">e</text><text xml:space="preserve" font-family="HelveticaNeue-Medium,Helvetica Neue" font-size="22.0" fill="#EAEAEA" transform="matrix(1.00, 0.00, -0.00, -1.00, 584.7, 12.5)">d</text><text xml:space="preserve" font-family="HelveticaNeue-Medium,Helvetica Neue" font-size="22.0" fill="#EAEAEA" transform="matrix(1.00, 0.00, -0.00, -1.00, 598.1, 12.5)">i</text><text xml:space="preserve" font-family="HelveticaNeue-Medium,Helvetica Neue" font-size="22.0" fill="#EAEAEA" transform="matrix(1.00, 0.00, -0.00, -1.00, 603.4, 12.5)">c</text><text xml:space="preserve" font-family="HelveticaNeue-Medium,Helvetica Neue" font-size="22.0" fill="#EAEAEA" transform="matrix(1.00, 0.00, -0.00, -1.00, 615.7, 12.5)">i</text><text xml:space="preserve" font-family="HelveticaNeue-Medium,Helvetica Neue" font-size="22.0" fill="#EAEAEA" transform="matrix(1.00, 0.00, -0.00, -1.00, 621.0, 12.5)">n</text><text xml:space="preserve" font-family="HelveticaNeue-Medium,Helvetica Neue" font-size="22.0" fill="#EAEAEA" transform="matrix(1.00, 0.00, -0.00, -1.00, 633.6, 12.5)">e</text><text xml:space="preserve" font-family="HelveticaNeue-Medium,Helvetica Neue" font-size="22.0" fill="#EAEAEA" transform="matrix(1.00, 0.00, -0.00, -1.00, 645.8, 12.5)">.</text><text xml:space="preserve" font-family="HelveticaNeue-Medium,Helvetica Neue" font-size="22.0" fill="#EAEAEA" transform="matrix(1.00, 0.00, -0.00, -1.00, 652.0, 12.5)"> </text><text xml:space="preserve" font-family="HelveticaNeue-Medium,Helvetica Neue" font-size="22.0" fill="#EAEAEA" transform="matrix(1.00, 0.00, -0.00, -1.00, 658.1, 12.5)">2</text><text xml:space="preserve" font-family="HelveticaNeue-Medium,Helvetica Neue" font-size="22.0" fill="#EAEAEA" transform="matrix(1.00, 0.00, -0.00, -1.00, 670.3, 12.5)">0</text><text xml:space="preserve" font-family="HelveticaNeue-Medium,Helvetica Neue" font-size="22.0" fill="#EAEAEA" transform="matrix(1.00, 0.00, -0.00, -1.00, 682.5, 12.5)">1</text><text xml:space="preserve" font-family="HelveticaNeue-Medium,Helvetica Neue" font-size="22.0" fill="#EAEAEA" transform="matrix(1.00, 0.00, -0.00, -1.00, 694.8, 12.5)">1</text><text xml:space="preserve" font-family="HelveticaNeue-Medium,Helvetica Neue" font-size="22.0" fill="#EAEAEA" transform="matrix(1.00, 0.00, -0.00, -1.00, 707.0, 12.5)"> </text><text xml:space="preserve" font-family="HelveticaNeue-Medium,Helvetica Neue" font-size="22.0" fill="#EAEAEA" transform="matrix(1.00, 0.00, -0.00, -1.00, 713.1, 12.5)">J</text><text xml:space="preserve" font-family="HelveticaNeue-Medium,Helvetica Neue" font-size="22.0" fill="#EAEAEA" transform="matrix(1.00, 0.00, -0.00, -1.00, 724.9, 12.5)">u</text><text xml:space="preserve" font-family="HelveticaNeue-Medium,Helvetica Neue" font-size="22.0" fill="#EAEAEA" transform="matrix(1.00, 0.00, -0.00, -1.00, 737.6, 12.5)">n</text><text xml:space="preserve" font-family="HelveticaNeue-Medium,Helvetica Neue" font-size="22.0" fill="#EAEAEA" transform="matrix(1.00, 0.00, -0.00, -1.00, 750.2, 12.5)"> </text><text xml:space="preserve" font-family="HelveticaNeue-Medium,Helvetica Neue" font-size="22.0" fill="#EAEAEA" transform="matrix(1.00, 0.00, -0.00, -1.00, 756.3, 12.5)">3</text><text xml:space="preserve" font-family="HelveticaNeue-Medium,Helvetica Neue" font-size="22.0" fill="#EAEAEA" transform="matrix(1.00, 0.00, -0.00, -1.00, 768.5, 12.5)">0</text><text xml:space="preserve" font-family="HelveticaNeue-Medium,Helvetica Neue" font-size="22.0" fill="#EAEAEA" transform="matrix(1.00, 0.00, -0.00, -1.00, 780.8, 12.5)">;</text><text xml:space="preserve" font-family="HelveticaNeue-Medium,Helvetica Neue" font-size="22.0" fill="#EAEAEA" transform="matrix(1.00, 0.00, -0.00, -1.00, 786.9, 12.5)">3</text><text xml:space="preserve" font-family="HelveticaNeue-Medium,Helvetica Neue" font-size="22.0" fill="#EAEAEA" transform="matrix(1.00, 0.00, -0.00, -1.00, 799.1, 12.5)">6</text><text xml:space="preserve" font-family="HelveticaNeue-Medium,Helvetica Neue" font-size="22.0" fill="#EAEAEA" transform="matrix(1.00, 0.00, -0.00, -1.00, 811.3, 12.5)">4</text><text xml:space="preserve" font-family="HelveticaNeue-Medium,Helvetica Neue" font-size="22.0" fill="#EAEAEA" transform="matrix(1.00, 0.00, -0.00, -1.00, 823.6, 12.5)">(</text><text xml:space="preserve" font-family="HelveticaNeue-Medium,Helvetica Neue" font-size="22.0" fill="#EAEAEA" transform="matrix(1.00, 0.00, -0.00, -1.00, 829.7, 12.5)">2</text><text xml:space="preserve" font-family="HelveticaNeue-Medium,Helvetica Neue" font-size="22.0" fill="#EAEAEA" transform="matrix(1.00, 0.00, -0.00, -1.00, 841.9, 12.5)">6</text><text xml:space="preserve" font-family="HelveticaNeue-Medium,Helvetica Neue" font-size="22.0" fill="#EAEAEA" transform="matrix(1.00, 0.00, -0.00, -1.00, 854.2, 12.5)">)</text><text xml:space="preserve" font-family="HelveticaNeue-Medium,Helvetica Neue" font-size="22.0" fill="#EAEAEA" transform="matrix(1.00, 0.00, -0.00, -1.00, 860.3, 12.5)">:</text><text xml:space="preserve" font-family="HelveticaNeue-Medium,Helvetica Neue" font-size="22.0" fill="#EAEAEA" transform="matrix(1.00, 0.00, -0.00, -1.00, 866.4, 12.5)">2</text><text xml:space="preserve" font-family="HelveticaNeue-Medium,Helvetica Neue" font-size="22.0" fill="#EAEAEA" transform="matrix(1.00, 0.00, -0.00, -1.00, 878.6, 12.5)">5</text><text xml:space="preserve" font-family="HelveticaNeue-Medium,Helvetica Neue" font-size="22.0" fill="#EAEAEA" transform="matrix(1.00, 0.00, -0.00, -1.00, 890.9, 12.5)">0</text><text xml:space="preserve" font-family="HelveticaNeue-Medium,Helvetica Neue" font-size="22.0" fill="#EAEAEA" transform="matrix(1.00, 0.00, -0.00, -1.00, 903.1, 12.5)">7</text><text xml:space="preserve" font-family="HelveticaNeue-Medium,Helvetica Neue" font-size="22.0" fill="#EAEAEA" transform="matrix(1.00, 0.00, -0.00, -1.00, 915.3, 12.5)">–</text><text xml:space="preserve" font-family="HelveticaNeue-Medium,Helvetica Neue" font-size="22.0" fill="#EAEAEA" transform="matrix(1.00, 0.00, -0.00, -1.00, 926.3, 12.5)">1</text><text xml:space="preserve" font-family="HelveticaNeue-Medium,Helvetica Neue" font-size="22.0" fill="#EAEAEA" transform="matrix(1.00, 0.00, -0.00, -1.00, 938.5, 12.5)">6</text><text xml:space="preserve" font-family="HelveticaNeue-Medium,Helvetica Neue" font-size="22.0" fill="#EAEAEA" transform="matrix(1.00, 0.00, -0.00, -1.00, 950.8, 12.5)">.</text><image xlink:href="../../A41B91DF-27DF-4472-AB05-60C8C8E2B916/assets/3073C4E3868C15F3CDB6FC5FC6D3B7E6.png" width="2364.00" height="992.00" transform="matrix(0.43, 0.00, -0.00, -0.43, 0.0, 599.0)"></image><image xlink:href="../../8041C5AF-496D-46D2-81E8-AAB87CFF6DA2/assets/4C974CA1E03847D08FB8B89E9B97927B.png" width="1068.00" height="480.00" transform="matrix(1.00, 0.00, -0.00, 1.00, -22.0, 145.0)"></image></g></svg>