<?xml version="1.0" encoding="UTF-8" standalone="no"?><svg xmlns="http://www.w3.org/2000/svg" xmlns:xlink="http://www.w3.org/1999/xlink" clip-rule="evenodd" stroke-miterlimit="10" viewBox="0 0 1024 768"><desc>SVG generated by Keynote</desc><defs></defs><g transform="matrix(1.00, 0.00, -0.00, -1.00, 0.0, 768.0)"><g><clipPath id="clip0x600000ebc8c0"><path d="M 0.0 768.0 L 1024.0 768.0 L 1024.0 0.0 L 0.0 0.0 Z M 0.0 768.0 "></path></clipPath><g clip-path="url(#clip0x600000ebc8c0)"><image xlink:href="../../BE4D2DDB-FBE4-467E-AE38-B34F9028D09E/assets/9397CAD6F20342ACC2646ABBCA758461.jpeg" width="2048.00" height="1536.00" transform="matrix(0.50, 0.00, -0.00, -0.50, 0.0, 768.0)"></image></g></g><image xlink:href="B9945E6F76F4E310D3F0BA3592A2B9C7.png" width="130.00" height="66.00" transform="matrix(1.00, 0.00, -0.00, -1.00, 768.0, 259.0)"></image><text xml:space="preserve" font-family="HelveticaNeue-Bold,Helvetica Neue" font-weight="bold" font-size="64.0" fill="#FEFFFE" transform="matrix(1.00, 0.00, -0.00, -1.00, 768.3, 211.2)">I</text><text xml:space="preserve" font-family="HelveticaNeue-Bold,Helvetica Neue" font-weight="bold" font-size="64.0" fill="#FEFFFE" transform="matrix(1.00, 0.00, -0.00, -1.00, 787.2, 211.2)">p</text><text xml:space="preserve" font-family="HelveticaNeue-Bold,Helvetica Neue" font-weight="bold" font-size="64.0" fill="#FEFFFE" transform="matrix(1.00, 0.00, -0.00, -1.00, 826.3, 211.2)">s</text><text xml:space="preserve" font-family="HelveticaNeue-Bold,Helvetica Neue" font-weight="bold" font-size="64.0" fill="#FEFFFE" transform="matrix(1.00, 0.00, -0.00, -1.00, 860.7, 211.2)">s</text><g><clipPath id="clip0x608000ab1ac0"><path d="M 62.0 732.0 L 942.0 732.0 L 942.0 463.0 L 62.0 463.0 Z M 62.4 732.2 "></path></clipPath><g clip-path="url(#clip0x608000ab1ac0)"><g><clipPath id="clip0x608000ab1c40"><path d="M 40.4 439.3 L 963.6 439.3 L 963.6 758.2 L 40.4 758.2 Z M 40.4 439.3 "></path></clipPath><g clip-path="url(#clip0x608000ab1c40)"><image xlink:href="62D82F1406B2012EF07C7C46A1060FFF.png" width="1322.00" height="822.00" transform="matrix(0.67, 0.00, -0.00, -0.67, 62.4, 732.2)"></image></g></g></g></g><g><clipPath id="clip0x608000ab1e80"><path d="M 40.4 439.3 L 963.6 439.3 L 963.6 758.2 L 40.4 758.2 Z M 40.4 439.3 "></path></clipPath><g clip-path="url(#clip0x608000ab1e80)"><image xlink:href="1CAF32E395EA657E343750CE16DA7597.png" width="923.00" height="319.00" transform="matrix(1.00, 0.00, -0.00, 1.00, 40.4, 439.3)"></image></g></g><g><clipPath id="clip0x600000ebc980"><path d="M 62.0 482.0 L 942.0 482.0 L 942.0 429.0 L 62.0 429.0 Z M 62.4 482.1 "></path></clipPath><g clip-path="url(#clip0x600000ebc980)"><g><clipPath id="clip0x600000ebc4a0"><path d="M 40.4 405.3 L 963.6 405.3 L 963.6 508.1 L 40.4 508.1 Z M 40.4 405.3 "></path></clipPath><g clip-path="url(#clip0x600000ebc4a0)"><image xlink:href="../../EFFF2419-2567-4EBE-8A68-F4F98CA2554D/assets/62D82F1406B2012EF07C7C46A1060FFF.png" width="1322.00" height="822.00" transform="matrix(0.67, 0.00, -0.00, -0.67, 62.4, 967.8)"></image></g></g></g></g><g><clipPath id="clip0x600000ebc560"><path d="M 40.4 405.3 L 963.6 405.3 L 963.6 508.1 L 40.4 508.1 Z M 40.4 405.3 "></path></clipPath><g clip-path="url(#clip0x600000ebc560)"><image xlink:href="B62D8183C10BD08070FAA2CB4F231F30.png" width="923.00" height="103.00" transform="matrix(1.00, 0.00, -0.00, 1.00, 40.4, 405.3)"></image></g></g><image xlink:href="1FAA181F46B1600E644B89F4F1D50208.png" width="1014.00" height="564.00" transform="matrix(0.62, 0.00, -0.00, -0.62, 63.6, 408.4)"></image><image xlink:href="0CA0022BFAFC9E7B534A90BBD10EE7BC.png" width="671.00" height="399.00" transform="matrix(1.00, 0.00, -0.00, 1.00, 41.6, 35.8)"></image></g></svg>