<?xml version="1.0" encoding="UTF-8" standalone="no"?><svg xmlns="http://www.w3.org/2000/svg" xmlns:xlink="http://www.w3.org/1999/xlink" clip-rule="evenodd" stroke-miterlimit="4.00" viewBox="0 0 916 94"><desc>SVG generated by Keynote</desc><defs></defs><g transform="matrix(1.00, 0.00, -0.00, -1.00, 0.0, 94.0)"><text xml:space="preserve" font-family="HelveticaNeue-Light" font-size="27.3" fill="#000000" transform="matrix(1.00, 0.00, -0.00, -1.00, 2.0, 73.0)">M</text><text xml:space="preserve" font-family="HelveticaNeue-Light" font-size="27.3" fill="#000000" transform="matrix(1.00, 0.00, -0.00, -1.00, 24.4, 73.0)">u</text><text xml:space="preserve" font-family="HelveticaNeue-Light" font-size="27.3" fill="#000000" transform="matrix(1.00, 0.00, -0.00, -1.00, 39.1, 73.0)">l</text><text xml:space="preserve" font-family="HelveticaNeue-Light" font-size="27.3" fill="#000000" transform="matrix(1.00, 0.00, -0.00, -1.00, 44.1, 73.0)">t</text><text xml:space="preserve" font-family="HelveticaNeue-Light" font-size="27.3" fill="#000000" transform="matrix(1.00, 0.00, -0.00, -1.00, 52.2, 73.0)">i</text><text xml:space="preserve" font-family="HelveticaNeue-Light" font-size="27.3" fill="#000000" transform="matrix(1.00, 0.00, -0.00, -1.00, 57.3, 73.0)">-</text><text xml:space="preserve" font-family="HelveticaNeue-Light" font-size="27.3" fill="#000000" transform="matrix(1.00, 0.00, -0.00, -1.00, 67.4, 73.0)">I</text><text xml:space="preserve" font-family="HelveticaNeue-Light" font-size="27.3" fill="#000000" transform="matrix(1.00, 0.00, -0.00, -1.00, 73.4, 73.0)">n</text><text xml:space="preserve" font-family="HelveticaNeue-Light" font-size="27.3" fill="#000000" transform="matrix(1.00, 0.00, -0.00, -1.00, 88.1, 73.0)">s</text><text xml:space="preserve" font-family="HelveticaNeue-Light" font-size="27.3" fill="#000000" transform="matrix(1.00, 0.00, -0.00, -1.00, 101.2, 73.0)">t</text><text xml:space="preserve" font-family="HelveticaNeue-Light" font-size="27.3" fill="#000000" transform="matrix(1.00, 0.00, -0.00, -1.00, 109.3, 73.0)">i</text><text xml:space="preserve" font-family="HelveticaNeue-Light" font-size="27.3" fill="#000000" transform="matrix(1.00, 0.00, -0.00, -1.00, 114.3, 73.0)">t</text><text xml:space="preserve" font-family="HelveticaNeue-Light" font-size="27.3" fill="#000000" transform="matrix(1.00, 0.00, -0.00, -1.00, 122.4, 73.0)">u</text><text xml:space="preserve" font-family="HelveticaNeue-Light" font-size="27.3" fill="#000000" transform="matrix(1.00, 0.00, -0.00, -1.00, 137.1, 73.0)">t</text><text xml:space="preserve" font-family="HelveticaNeue-Light" font-size="27.3" fill="#000000" transform="matrix(1.00, 0.00, -0.00, -1.00, 145.2, 73.0)">i</text><text xml:space="preserve" font-family="HelveticaNeue-Light" font-size="27.3" fill="#000000" transform="matrix(1.00, 0.00, -0.00, -1.00, 150.2, 73.0)">o</text><text xml:space="preserve" font-family="HelveticaNeue-Light" font-size="27.3" fill="#000000" transform="matrix(1.00, 0.00, -0.00, -1.00, 165.4, 73.0)">n</text><text xml:space="preserve" font-family="HelveticaNeue-Light" font-size="27.3" fill="#000000" transform="matrix(1.00, 0.00, -0.00, -1.00, 180.1, 73.0)">a</text><text xml:space="preserve" font-family="HelveticaNeue-Light" font-size="27.3" fill="#000000" transform="matrix(1.00, 0.00, -0.00, -1.00, 194.2, 73.0)">l</text><text xml:space="preserve" font-family="HelveticaNeue-Light" font-size="27.3" fill="#000000" transform="matrix(1.00, 0.00, -0.00, -1.00, 199.3, 73.0)"> </text><text xml:space="preserve" font-family="HelveticaNeue-Light" font-size="27.3" fill="#000000" transform="matrix(1.00, 0.00, -0.00, -1.00, 206.9, 73.0)">S</text><text xml:space="preserve" font-family="HelveticaNeue-Light" font-size="27.3" fill="#000000" transform="matrix(1.00, 0.00, -0.00, -1.00, 224.1, 73.0)">t</text><text xml:space="preserve" font-family="HelveticaNeue-Light" font-size="27.3" fill="#000000" transform="matrix(1.00, 0.00, -0.00, -1.00, 232.1, 73.0)">u</text><text xml:space="preserve" font-family="HelveticaNeue-Light" font-size="27.3" fill="#000000" transform="matrix(1.00, 0.00, -0.00, -1.00, 246.8, 73.0)">d</text><text xml:space="preserve" font-family="HelveticaNeue-Light" font-size="27.3" fill="#000000" transform="matrix(1.00, 0.00, -0.00, -1.00, 262.5, 73.0)">y</text><text xml:space="preserve" font-family="HelveticaNeue-Light" font-size="27.3" fill="#000000" transform="matrix(1.00, 0.00, -0.00, -1.00, 275.1, 73.0)"> </text><text xml:space="preserve" font-family="HelveticaNeue-Light" font-size="27.3" fill="#000000" transform="matrix(1.00, 0.00, -0.00, -1.00, 282.7, 73.0)">o</text><text xml:space="preserve" font-family="HelveticaNeue-Light" font-size="27.3" fill="#000000" transform="matrix(1.00, 0.00, -0.00, -1.00, 297.9, 73.0)">f</text><text xml:space="preserve" font-family="HelveticaNeue-Light" font-size="27.3" fill="#000000" transform="matrix(1.00, 0.00, -0.00, -1.00, 304.9, 73.0)"> </text><text xml:space="preserve" font-family="HelveticaNeue-Light" font-size="27.3" fill="#000000" transform="matrix(1.00, 0.00, -0.00, -1.00, 312.5, 73.0)">P</text><text xml:space="preserve" font-family="HelveticaNeue-Light" font-size="27.3" fill="#000000" transform="matrix(1.00, 0.00, -0.00, -1.00, 329.7, 73.0)">o</text><text xml:space="preserve" font-family="HelveticaNeue-Light" font-size="27.3" fill="#000000" transform="matrix(1.00, 0.00, -0.00, -1.00, 344.9, 73.0)">s</text><text xml:space="preserve" font-family="HelveticaNeue-Light" font-size="27.3" fill="#000000" transform="matrix(1.00, 0.00, -0.00, -1.00, 358.0, 73.0)">t</text><text xml:space="preserve" font-family="HelveticaNeue-Light" font-size="27.3" fill="#000000" transform="matrix(1.00, 0.00, -0.00, -1.00, 366.1, 73.0)">-</text><text xml:space="preserve" font-family="HelveticaNeue-Light" font-size="27.3" fill="#000000" transform="matrix(1.00, 0.00, -0.00, -1.00, 376.2, 73.0)">T</text><text xml:space="preserve" font-family="HelveticaNeue-Light" font-size="27.3" fill="#000000" transform="matrix(1.00, 0.00, -0.00, -1.00, 388.9, 73.0)">r</text><text xml:space="preserve" font-family="HelveticaNeue-Light" font-size="27.3" fill="#000000" transform="matrix(1.00, 0.00, -0.00, -1.00, 397.5, 73.0)">a</text><text xml:space="preserve" font-family="HelveticaNeue-Light" font-size="27.3" fill="#000000" transform="matrix(1.00, 0.00, -0.00, -1.00, 411.7, 73.0)">n</text><text xml:space="preserve" font-family="HelveticaNeue-Light" font-size="27.3" fill="#000000" transform="matrix(1.00, 0.00, -0.00, -1.00, 426.3, 73.0)">s</text><text xml:space="preserve" font-family="HelveticaNeue-Light" font-size="27.3" fill="#000000" transform="matrix(1.00, 0.00, -0.00, -1.00, 439.5, 73.0)">p</text><text xml:space="preserve" font-family="HelveticaNeue-Light" font-size="27.3" fill="#000000" transform="matrix(1.00, 0.00, -0.00, -1.00, 455.1, 73.0)">l</text><text xml:space="preserve" font-family="HelveticaNeue-Light" font-size="27.3" fill="#000000" transform="matrix(1.00, 0.00, -0.00, -1.00, 460.2, 73.0)">a</text><text xml:space="preserve" font-family="HelveticaNeue-Light" font-size="27.3" fill="#000000" transform="matrix(1.00, 0.00, -0.00, -1.00, 474.3, 73.0)">n</text><text xml:space="preserve" font-family="HelveticaNeue-Light" font-size="27.3" fill="#000000" transform="matrix(1.00, 0.00, -0.00, -1.00, 489.0, 73.0)">t</text><text xml:space="preserve" font-family="HelveticaNeue-Light" font-size="27.3" fill="#000000" transform="matrix(1.00, 0.00, -0.00, -1.00, 497.1, 73.0)">a</text><text xml:space="preserve" font-family="HelveticaNeue-Light" font-size="27.3" fill="#000000" transform="matrix(1.00, 0.00, -0.00, -1.00, 511.3, 73.0)">t</text><text xml:space="preserve" font-family="HelveticaNeue-Light" font-size="27.3" fill="#000000" transform="matrix(1.00, 0.00, -0.00, -1.00, 519.3, 73.0)">i</text><text xml:space="preserve" font-family="HelveticaNeue-Light" font-size="27.3" fill="#000000" transform="matrix(1.00, 0.00, -0.00, -1.00, 524.4, 73.0)">o</text><text xml:space="preserve" font-family="HelveticaNeue-Light" font-size="27.3" fill="#000000" transform="matrix(1.00, 0.00, -0.00, -1.00, 539.6, 73.0)">n</text><text xml:space="preserve" font-family="HelveticaNeue-Light" font-size="27.3" fill="#000000" transform="matrix(1.00, 0.00, -0.00, -1.00, 554.2, 73.0)"> </text><text xml:space="preserve" font-family="HelveticaNeue-Light" font-size="27.3" fill="#000000" transform="matrix(1.00, 0.00, -0.00, -1.00, 561.8, 73.0)">C</text><text xml:space="preserve" font-family="HelveticaNeue-Light" font-size="27.3" fill="#000000" transform="matrix(1.00, 0.00, -0.00, -1.00, 581.0, 73.0)">y</text><text xml:space="preserve" font-family="HelveticaNeue-Light" font-size="27.3" fill="#000000" transform="matrix(1.00, 0.00, -0.00, -1.00, 593.7, 73.0)">c</text><text xml:space="preserve" font-family="HelveticaNeue-Light" font-size="27.3" fill="#000000" transform="matrix(1.00, 0.00, -0.00, -1.00, 607.8, 73.0)">l</text><text xml:space="preserve" font-family="HelveticaNeue-Light" font-size="27.3" fill="#000000" transform="matrix(1.00, 0.00, -0.00, -1.00, 612.9, 73.0)">o</text><text xml:space="preserve" font-family="HelveticaNeue-Light" font-size="27.3" fill="#000000" transform="matrix(1.00, 0.00, -0.00, -1.00, 628.1, 73.0)">p</text><text xml:space="preserve" font-family="HelveticaNeue-Light" font-size="27.3" fill="#000000" transform="matrix(1.00, 0.00, -0.00, -1.00, 643.7, 73.0)">h</text><text xml:space="preserve" font-family="HelveticaNeue-Light" font-size="27.3" fill="#000000" transform="matrix(1.00, 0.00, -0.00, -1.00, 658.4, 73.0)">o</text><text xml:space="preserve" font-family="HelveticaNeue-Light" font-size="27.3" fill="#000000" transform="matrix(1.00, 0.00, -0.00, -1.00, 673.6, 73.0)">s</text><text xml:space="preserve" font-family="HelveticaNeue-Light" font-size="27.3" fill="#000000" transform="matrix(1.00, 0.00, -0.00, -1.00, 686.7, 73.0)">p</text><text xml:space="preserve" font-family="HelveticaNeue-Light" font-size="27.3" fill="#000000" transform="matrix(1.00, 0.00, -0.00, -1.00, 702.4, 73.0)">h</text><text xml:space="preserve" font-family="HelveticaNeue-Light" font-size="27.3" fill="#000000" transform="matrix(1.00, 0.00, -0.00, -1.00, 717.0, 73.0)">a</text><text xml:space="preserve" font-family="HelveticaNeue-Light" font-size="27.3" fill="#000000" transform="matrix(1.00, 0.00, -0.00, -1.00, 731.2, 73.0)">m</text><text xml:space="preserve" font-family="HelveticaNeue-Light" font-size="27.3" fill="#000000" transform="matrix(1.00, 0.00, -0.00, -1.00, 754.0, 73.0)">i</text><text xml:space="preserve" font-family="HelveticaNeue-Light" font-size="27.3" fill="#000000" transform="matrix(1.00, 0.00, -0.00, -1.00, 759.0, 73.0)">d</text><text xml:space="preserve" font-family="HelveticaNeue-Light" font-size="27.3" fill="#000000" transform="matrix(1.00, 0.00, -0.00, -1.00, 774.7, 73.0)">e</text><text xml:space="preserve" font-family="HelveticaNeue-Light" font-size="27.3" fill="#000000" transform="matrix(1.00, 0.00, -0.00, -1.00, 788.8, 73.0)"> </text><text xml:space="preserve" font-family="HelveticaNeue-Light" font-size="27.3" fill="#000000" transform="matrix(1.00, 0.00, -0.00, -1.00, 796.4, 73.0)">A</text><text xml:space="preserve" font-family="HelveticaNeue-Light" font-size="27.3" fill="#000000" transform="matrix(1.00, 0.00, -0.00, -1.00, 813.6, 73.0)">s</text><text xml:space="preserve" font-family="HelveticaNeue-Light" font-size="27.3" fill="#000000" transform="matrix(1.00, 0.00, -0.00, -1.00, 826.8, 73.0)"> </text><text xml:space="preserve" font-family="HelveticaNeue-Light" font-size="27.3" fill="#000000" transform="matrix(1.00, 0.00, -0.00, -1.00, 834.3, 73.0)">S</text><text xml:space="preserve" font-family="HelveticaNeue-Light" font-size="27.3" fill="#000000" transform="matrix(1.00, 0.00, -0.00, -1.00, 851.5, 73.0)">i</text><text xml:space="preserve" font-family="HelveticaNeue-Light" font-size="27.3" fill="#000000" transform="matrix(1.00, 0.00, -0.00, -1.00, 856.6, 73.0)">n</text><text xml:space="preserve" font-family="HelveticaNeue-Light" font-size="27.3" fill="#000000" transform="matrix(1.00, 0.00, -0.00, -1.00, 871.3, 73.0)">g</text><text xml:space="preserve" font-family="HelveticaNeue-Light" font-size="27.3" fill="#000000" transform="matrix(1.00, 0.00, -0.00, -1.00, 886.4, 73.0)">l</text><text xml:space="preserve" font-family="HelveticaNeue-Light" font-size="27.3" fill="#000000" transform="matrix(1.00, 0.00, -0.00, -1.00, 891.5, 73.0)">e</text><text xml:space="preserve" font-family="HelveticaNeue-Light" font-size="27.3" fill="#000000" transform="matrix(1.00, 0.00, -0.00, -1.00, 905.7, 73.0)">-</text><text xml:space="preserve" font-family="HelveticaNeue-Light" font-size="27.3" fill="#000000" transform="matrix(1.00, 0.00, -0.00, -1.00, 2.0, 40.0)">A</text><text xml:space="preserve" font-family="HelveticaNeue-Light" font-size="27.3" fill="#000000" transform="matrix(1.00, 0.00, -0.00, -1.00, 19.2, 40.0)">g</text><text xml:space="preserve" font-family="HelveticaNeue-Light" font-size="27.3" fill="#000000" transform="matrix(1.00, 0.00, -0.00, -1.00, 34.4, 40.0)">e</text><text xml:space="preserve" font-family="HelveticaNeue-Light" font-size="27.3" fill="#000000" transform="matrix(1.00, 0.00, -0.00, -1.00, 48.5, 40.0)">n</text><text xml:space="preserve" font-family="HelveticaNeue-Light" font-size="27.3" fill="#000000" transform="matrix(1.00, 0.00, -0.00, -1.00, 63.2, 40.0)">t</text><text xml:space="preserve" font-family="HelveticaNeue-Light" font-size="27.3" fill="#000000" transform="matrix(1.00, 0.00, -0.00, -1.00, 71.3, 40.0)"> </text><text xml:space="preserve" font-family="HelveticaNeue-Light" font-size="27.3" fill="#000000" transform="matrix(1.00, 0.00, -0.00, -1.00, 78.9, 40.0)">G</text><text xml:space="preserve" font-family="HelveticaNeue-Light" font-size="27.3" fill="#000000" transform="matrix(1.00, 0.00, -0.00, -1.00, 99.1, 40.0)">r</text><text xml:space="preserve" font-family="HelveticaNeue-Light" font-size="27.3" fill="#000000" transform="matrix(1.00, 0.00, -0.00, -1.00, 107.7, 40.0)">a</text><text xml:space="preserve" font-family="HelveticaNeue-Light" font-size="27.3" fill="#000000" transform="matrix(1.00, 0.00, -0.00, -1.00, 121.9, 40.0)">f</text><text xml:space="preserve" font-family="HelveticaNeue-Light" font-size="27.3" fill="#000000" transform="matrix(1.00, 0.00, -0.00, -1.00, 128.9, 40.0)">t</text><text xml:space="preserve" font-family="HelveticaNeue-Light" font-size="27.3" fill="#000000" transform="matrix(1.00, 0.00, -0.00, -1.00, 137.0, 40.0)">-</text><text xml:space="preserve" font-family="HelveticaNeue-Light" font-size="27.3" fill="#000000" transform="matrix(1.00, 0.00, -0.00, -1.00, 147.1, 40.0)">V</text><text xml:space="preserve" font-family="HelveticaNeue-Light" font-size="27.3" fill="#000000" transform="matrix(1.00, 0.00, -0.00, -1.00, 161.8, 40.0)">e</text><text xml:space="preserve" font-family="HelveticaNeue-Light" font-size="27.3" fill="#000000" transform="matrix(1.00, 0.00, -0.00, -1.00, 176.0, 40.0)">r</text><text xml:space="preserve" font-family="HelveticaNeue-Light" font-size="27.3" fill="#000000" transform="matrix(1.00, 0.00, -0.00, -1.00, 184.6, 40.0)">s</text><text xml:space="preserve" font-family="HelveticaNeue-Light" font-size="27.3" fill="#000000" transform="matrix(1.00, 0.00, -0.00, -1.00, 197.7, 40.0)">u</text><text xml:space="preserve" font-family="HelveticaNeue-Light" font-size="27.3" fill="#000000" transform="matrix(1.00, 0.00, -0.00, -1.00, 212.4, 40.0)">s</text><text xml:space="preserve" font-family="HelveticaNeue-Light" font-size="27.3" fill="#000000" transform="matrix(1.00, 0.00, -0.00, -1.00, 225.5, 40.0)">-</text><text xml:space="preserve" font-family="HelveticaNeue-Light" font-size="27.3" fill="#000000" transform="matrix(1.00, 0.00, -0.00, -1.00, 235.6, 40.0)">H</text><text xml:space="preserve" font-family="HelveticaNeue-Light" font-size="27.3" fill="#000000" transform="matrix(1.00, 0.00, -0.00, -1.00, 254.8, 40.0)">o</text><text xml:space="preserve" font-family="HelveticaNeue-Light" font-size="27.3" fill="#000000" transform="matrix(1.00, 0.00, -0.00, -1.00, 270.0, 40.0)">s</text><text xml:space="preserve" font-family="HelveticaNeue-Light" font-size="27.3" fill="#000000" transform="matrix(1.00, 0.00, -0.00, -1.00, 283.1, 40.0)">t</text><text xml:space="preserve" font-family="HelveticaNeue-Light" font-size="27.3" fill="#000000" transform="matrix(1.00, 0.00, -0.00, -1.00, 291.2, 40.0)"> </text><text xml:space="preserve" font-family="HelveticaNeue-Light" font-size="27.3" fill="#000000" transform="matrix(1.00, 0.00, -0.00, -1.00, 298.8, 40.0)">D</text><text xml:space="preserve" font-family="HelveticaNeue-Light" font-size="27.3" fill="#000000" transform="matrix(1.00, 0.00, -0.00, -1.00, 317.5, 40.0)">i</text><text xml:space="preserve" font-family="HelveticaNeue-Light" font-size="27.3" fill="#000000" transform="matrix(1.00, 0.00, -0.00, -1.00, 322.6, 40.0)">s</text><text xml:space="preserve" font-family="HelveticaNeue-Light" font-size="27.3" fill="#000000" transform="matrix(1.00, 0.00, -0.00, -1.00, 335.7, 40.0)">e</text><text xml:space="preserve" font-family="HelveticaNeue-Light" font-size="27.3" fill="#000000" transform="matrix(1.00, 0.00, -0.00, -1.00, 349.9, 40.0)">a</text><text xml:space="preserve" font-family="HelveticaNeue-Light" font-size="27.3" fill="#000000" transform="matrix(1.00, 0.00, -0.00, -1.00, 364.0, 40.0)">s</text><text xml:space="preserve" font-family="HelveticaNeue-Light" font-size="27.3" fill="#000000" transform="matrix(1.00, 0.00, -0.00, -1.00, 377.2, 40.0)">e</text><text xml:space="preserve" font-family="HelveticaNeue-Light" font-size="27.3" fill="#000000" transform="matrix(1.00, 0.00, -0.00, -1.00, 391.3, 40.0)"> </text><text xml:space="preserve" font-family="HelveticaNeue-Light" font-size="27.3" fill="#000000" transform="matrix(1.00, 0.00, -0.00, -1.00, 398.9, 40.0)">P</text><text xml:space="preserve" font-family="HelveticaNeue-Light" font-size="27.3" fill="#000000" transform="matrix(1.00, 0.00, -0.00, -1.00, 416.1, 40.0)">r</text><text xml:space="preserve" font-family="HelveticaNeue-Light" font-size="27.3" fill="#000000" transform="matrix(1.00, 0.00, -0.00, -1.00, 424.2, 40.0)">o</text><text xml:space="preserve" font-family="HelveticaNeue-Light" font-size="27.3" fill="#000000" transform="matrix(1.00, 0.00, -0.00, -1.00, 439.4, 40.0)">p</text><text xml:space="preserve" font-family="HelveticaNeue-Light" font-size="27.3" fill="#000000" transform="matrix(1.00, 0.00, -0.00, -1.00, 455.1, 40.0)">h</text><text xml:space="preserve" font-family="HelveticaNeue-Light" font-size="27.3" fill="#000000" transform="matrix(1.00, 0.00, -0.00, -1.00, 469.7, 40.0)">y</text><text xml:space="preserve" font-family="HelveticaNeue-Light" font-size="27.3" fill="#000000" transform="matrix(1.00, 0.00, -0.00, -1.00, 482.4, 40.0)">l</text><text xml:space="preserve" font-family="HelveticaNeue-Light" font-size="27.3" fill="#000000" transform="matrix(1.00, 0.00, -0.00, -1.00, 487.4, 40.0)">a</text><text xml:space="preserve" font-family="HelveticaNeue-Light" font-size="27.3" fill="#000000" transform="matrix(1.00, 0.00, -0.00, -1.00, 501.6, 40.0)">x</text><text xml:space="preserve" font-family="HelveticaNeue-Light" font-size="27.3" fill="#000000" transform="matrix(1.00, 0.00, -0.00, -1.00, 514.7, 40.0)">i</text><text xml:space="preserve" font-family="HelveticaNeue-Light" font-size="27.3" fill="#000000" transform="matrix(1.00, 0.00, -0.00, -1.00, 519.8, 40.0)">s</text><text xml:space="preserve" font-family="HelveticaNeue-Light" font-size="27.3" fill="#000000" transform="matrix(1.00, 0.00, -0.00, -1.00, 532.9, 40.0)"> </text><text xml:space="preserve" font-family="HelveticaNeue-Light" font-size="27.3" fill="#000000" transform="matrix(1.00, 0.00, -0.00, -1.00, 540.5, 40.0)">A</text><text xml:space="preserve" font-family="HelveticaNeue-Light" font-size="27.3" fill="#000000" transform="matrix(1.00, 0.00, -0.00, -1.00, 557.7, 40.0)">f</text><text xml:space="preserve" font-family="HelveticaNeue-Light" font-size="27.3" fill="#000000" transform="matrix(1.00, 0.00, -0.00, -1.00, 564.8, 40.0)">t</text><text xml:space="preserve" font-family="HelveticaNeue-Light" font-size="27.3" fill="#000000" transform="matrix(1.00, 0.00, -0.00, -1.00, 572.8, 40.0)">e</text><text xml:space="preserve" font-family="HelveticaNeue-Light" font-size="27.3" fill="#000000" transform="matrix(1.00, 0.00, -0.00, -1.00, 587.0, 40.0)">r</text><text xml:space="preserve" font-family="HelveticaNeue-Light" font-size="27.3" fill="#000000" transform="matrix(1.00, 0.00, -0.00, -1.00, 595.6, 40.0)"> </text><text xml:space="preserve" font-family="HelveticaNeue-Light" font-size="27.3" fill="#000000" transform="matrix(1.00, 0.00, -0.00, -1.00, 603.2, 40.0)">A</text><text xml:space="preserve" font-family="HelveticaNeue-Light" font-size="27.3" fill="#000000" transform="matrix(1.00, 0.00, -0.00, -1.00, 620.4, 40.0)">l</text><text xml:space="preserve" font-family="HelveticaNeue-Light" font-size="27.3" fill="#000000" transform="matrix(1.00, 0.00, -0.00, -1.00, 625.5, 40.0)">l</text><text xml:space="preserve" font-family="HelveticaNeue-Light" font-size="27.3" fill="#000000" transform="matrix(1.00, 0.00, -0.00, -1.00, 630.5, 40.0)">o</text><text xml:space="preserve" font-family="HelveticaNeue-Light" font-size="27.3" fill="#000000" transform="matrix(1.00, 0.00, -0.00, -1.00, 645.7, 40.0)">g</text><text xml:space="preserve" font-family="HelveticaNeue-Light" font-size="27.3" fill="#000000" transform="matrix(1.00, 0.00, -0.00, -1.00, 660.9, 40.0)">e</text><text xml:space="preserve" font-family="HelveticaNeue-Light" font-size="27.3" fill="#000000" transform="matrix(1.00, 0.00, -0.00, -1.00, 675.0, 40.0)">n</text><text xml:space="preserve" font-family="HelveticaNeue-Light" font-size="27.3" fill="#000000" transform="matrix(1.00, 0.00, -0.00, -1.00, 689.7, 40.0)">e</text><text xml:space="preserve" font-family="HelveticaNeue-Light" font-size="27.3" fill="#000000" transform="matrix(1.00, 0.00, -0.00, -1.00, 703.9, 40.0)">i</text><text xml:space="preserve" font-family="HelveticaNeue-Light" font-size="27.3" fill="#000000" transform="matrix(1.00, 0.00, -0.00, -1.00, 708.9, 40.0)">c</text><text xml:space="preserve" font-family="HelveticaNeue-Light" font-size="27.3" fill="#000000" transform="matrix(1.00, 0.00, -0.00, -1.00, 723.1, 40.0)"> </text><text xml:space="preserve" font-family="HelveticaNeue-Light" font-size="27.3" fill="#000000" transform="matrix(1.00, 0.00, -0.00, -1.00, 730.7, 40.0)">B</text><text xml:space="preserve" font-family="HelveticaNeue-Light" font-size="27.3" fill="#000000" transform="matrix(1.00, 0.00, -0.00, -1.00, 748.9, 40.0)">o</text><text xml:space="preserve" font-family="HelveticaNeue-Light" font-size="27.3" fill="#000000" transform="matrix(1.00, 0.00, -0.00, -1.00, 764.1, 40.0)">n</text><text xml:space="preserve" font-family="HelveticaNeue-Light" font-size="27.3" fill="#000000" transform="matrix(1.00, 0.00, -0.00, -1.00, 778.7, 40.0)">e</text><text xml:space="preserve" font-family="HelveticaNeue-Light" font-size="27.3" fill="#000000" transform="matrix(1.00, 0.00, -0.00, -1.00, 792.9, 40.0)"> </text><text xml:space="preserve" font-family="HelveticaNeue-Light" font-size="27.3" fill="#000000" transform="matrix(1.00, 0.00, -0.00, -1.00, 800.5, 40.0)">M</text><text xml:space="preserve" font-family="HelveticaNeue-Light" font-size="27.3" fill="#000000" transform="matrix(1.00, 0.00, -0.00, -1.00, 822.9, 40.0)">a</text><text xml:space="preserve" font-family="HelveticaNeue-Light" font-size="27.3" fill="#000000" transform="matrix(1.00, 0.00, -0.00, -1.00, 837.1, 40.0)">r</text><text xml:space="preserve" font-family="HelveticaNeue-Light" font-size="27.3" fill="#000000" transform="matrix(1.00, 0.00, -0.00, -1.00, 845.7, 40.0)">r</text><text xml:space="preserve" font-family="HelveticaNeue-Light" font-size="27.3" fill="#000000" transform="matrix(1.00, 0.00, -0.00, -1.00, 853.8, 40.0)">o</text><text xml:space="preserve" font-family="HelveticaNeue-Light" font-size="27.3" fill="#000000" transform="matrix(1.00, 0.00, -0.00, -1.00, 868.9, 40.0)">w</text><text xml:space="preserve" font-family="HelveticaNeue-Light" font-size="27.3" fill="#000000" transform="matrix(1.00, 0.00, -0.00, -1.00, 889.2, 40.0)"> </text><text xml:space="preserve" font-family="HelveticaNeue-Light" font-size="27.3" fill="#000000" transform="matrix(1.00, 0.00, -0.00, -1.00, 2.0, 7.0)">T</text><text xml:space="preserve" font-family="HelveticaNeue-Light" font-size="27.3" fill="#000000" transform="matrix(1.00, 0.00, -0.00, -1.00, 14.7, 7.0)">r</text><text xml:space="preserve" font-family="HelveticaNeue-Light" font-size="27.3" fill="#000000" transform="matrix(1.00, 0.00, -0.00, -1.00, 23.3, 7.0)">a</text><text xml:space="preserve" font-family="HelveticaNeue-Light" font-size="27.3" fill="#000000" transform="matrix(1.00, 0.00, -0.00, -1.00, 37.4, 7.0)">n</text><text xml:space="preserve" font-family="HelveticaNeue-Light" font-size="27.3" fill="#000000" transform="matrix(1.00, 0.00, -0.00, -1.00, 52.1, 7.0)">s</text><text xml:space="preserve" font-family="HelveticaNeue-Light" font-size="27.3" fill="#000000" transform="matrix(1.00, 0.00, -0.00, -1.00, 65.2, 7.0)">p</text><text xml:space="preserve" font-family="HelveticaNeue-Light" font-size="27.3" fill="#000000" transform="matrix(1.00, 0.00, -0.00, -1.00, 80.9, 7.0)">l</text><text xml:space="preserve" font-family="HelveticaNeue-Light" font-size="27.3" fill="#000000" transform="matrix(1.00, 0.00, -0.00, -1.00, 85.9, 7.0)">a</text><text xml:space="preserve" font-family="HelveticaNeue-Light" font-size="27.3" fill="#000000" transform="matrix(1.00, 0.00, -0.00, -1.00, 100.1, 7.0)">n</text><text xml:space="preserve" font-family="HelveticaNeue-Light" font-size="27.3" fill="#000000" transform="matrix(1.00, 0.00, -0.00, -1.00, 114.8, 7.0)">t</text><text xml:space="preserve" font-family="HelveticaNeue-Light" font-size="27.3" fill="#000000" transform="matrix(1.00, 0.00, -0.00, -1.00, 122.9, 7.0)">a</text><text xml:space="preserve" font-family="HelveticaNeue-Light" font-size="27.3" fill="#000000" transform="matrix(1.00, 0.00, -0.00, -1.00, 137.0, 7.0)">t</text><text xml:space="preserve" font-family="HelveticaNeue-Light" font-size="27.3" fill="#000000" transform="matrix(1.00, 0.00, -0.00, -1.00, 145.1, 7.0)">i</text><text xml:space="preserve" font-family="HelveticaNeue-Light" font-size="27.3" fill="#000000" transform="matrix(1.00, 0.00, -0.00, -1.00, 150.2, 7.0)">o</text><text xml:space="preserve" font-family="HelveticaNeue-Light" font-size="27.3" fill="#000000" transform="matrix(1.00, 0.00, -0.00, -1.00, 165.3, 7.0)">n</text><text xml:space="preserve" font-family="HelveticaNeue-Light" font-size="27.3" fill="#000000" transform="matrix(1.00, 0.00, -0.00, -1.00, 180.0, 7.0)"> </text><text xml:space="preserve" font-family="HelveticaNeue-Light" font-size="27.3" fill="#000000" transform="matrix(1.00, 0.00, -0.00, -1.00, 187.6, 7.0)">U</text><text xml:space="preserve" font-family="HelveticaNeue-Light" font-size="27.3" fill="#000000" transform="matrix(1.00, 0.00, -0.00, -1.00, 206.3, 7.0)">s</text><text xml:space="preserve" font-family="HelveticaNeue-Light" font-size="27.3" fill="#000000" transform="matrix(1.00, 0.00, -0.00, -1.00, 219.4, 7.0)">i</text><text xml:space="preserve" font-family="HelveticaNeue-Light" font-size="27.3" fill="#000000" transform="matrix(1.00, 0.00, -0.00, -1.00, 224.5, 7.0)">n</text><text xml:space="preserve" font-family="HelveticaNeue-Light" font-size="27.3" fill="#000000" transform="matrix(1.00, 0.00, -0.00, -1.00, 239.1, 7.0)">g</text><text xml:space="preserve" font-family="HelveticaNeue-Light" font-size="27.3" fill="#000000" transform="matrix(1.00, 0.00, -0.00, -1.00, 254.3, 7.0)"> </text><text xml:space="preserve" font-family="HelveticaNeue-Light" font-size="27.3" fill="#000000" transform="matrix(1.00, 0.00, -0.00, -1.00, 261.9, 7.0)">M</text><text xml:space="preserve" font-family="HelveticaNeue-Light" font-size="27.3" fill="#000000" transform="matrix(1.00, 0.00, -0.00, -1.00, 284.3, 7.0)">y</text><text xml:space="preserve" font-family="HelveticaNeue-Light" font-size="27.3" fill="#000000" transform="matrix(1.00, 0.00, -0.00, -1.00, 296.9, 7.0)">e</text><text xml:space="preserve" font-family="HelveticaNeue-Light" font-size="27.3" fill="#000000" transform="matrix(1.00, 0.00, -0.00, -1.00, 311.1, 7.0)">l</text><text xml:space="preserve" font-family="HelveticaNeue-Light" font-size="27.3" fill="#000000" transform="matrix(1.00, 0.00, -0.00, -1.00, 316.2, 7.0)">o</text><text xml:space="preserve" font-family="HelveticaNeue-Light" font-size="27.3" fill="#000000" transform="matrix(1.00, 0.00, -0.00, -1.00, 331.3, 7.0)">a</text><text xml:space="preserve" font-family="HelveticaNeue-Light" font-size="27.3" fill="#000000" transform="matrix(1.00, 0.00, -0.00, -1.00, 345.5, 7.0)">b</text><text xml:space="preserve" font-family="HelveticaNeue-Light" font-size="27.3" fill="#000000" transform="matrix(1.00, 0.00, -0.00, -1.00, 361.2, 7.0)">l</text><text xml:space="preserve" font-family="HelveticaNeue-Light" font-size="27.3" fill="#000000" transform="matrix(1.00, 0.00, -0.00, -1.00, 366.2, 7.0)">a</text><text xml:space="preserve" font-family="HelveticaNeue-Light" font-size="27.3" fill="#000000" transform="matrix(1.00, 0.00, -0.00, -1.00, 380.4, 7.0)">t</text><text xml:space="preserve" font-family="HelveticaNeue-Light" font-size="27.3" fill="#000000" transform="matrix(1.00, 0.00, -0.00, -1.00, 388.5, 7.0)">i</text><text xml:space="preserve" font-family="HelveticaNeue-Light" font-size="27.3" fill="#000000" transform="matrix(1.00, 0.00, -0.00, -1.00, 393.5, 7.0)">v</text><text xml:space="preserve" font-family="HelveticaNeue-Light" font-size="27.3" fill="#000000" transform="matrix(1.00, 0.00, -0.00, -1.00, 406.2, 7.0)">e</text><text xml:space="preserve" font-family="HelveticaNeue-Light" font-size="27.3" fill="#000000" transform="matrix(1.00, 0.00, -0.00, -1.00, 420.3, 7.0)"> </text><text xml:space="preserve" font-family="HelveticaNeue-Light" font-size="27.3" fill="#000000" transform="matrix(1.00, 0.00, -0.00, -1.00, 427.9, 7.0)">B</text><text xml:space="preserve" font-family="HelveticaNeue-Light" font-size="27.3" fill="#000000" transform="matrix(1.00, 0.00, -0.00, -1.00, 446.1, 7.0)">u</text><text xml:space="preserve" font-family="HelveticaNeue-Light" font-size="27.3" fill="#000000" transform="matrix(1.00, 0.00, -0.00, -1.00, 460.8, 7.0)">s</text><text xml:space="preserve" font-family="HelveticaNeue-Light" font-size="27.3" fill="#000000" transform="matrix(1.00, 0.00, -0.00, -1.00, 473.9, 7.0)">u</text><text xml:space="preserve" font-family="HelveticaNeue-Light" font-size="27.3" fill="#000000" transform="matrix(1.00, 0.00, -0.00, -1.00, 488.6, 7.0)">l</text><text xml:space="preserve" font-family="HelveticaNeue-Light" font-size="27.3" fill="#000000" transform="matrix(1.00, 0.00, -0.00, -1.00, 493.6, 7.0)">f</text><text xml:space="preserve" font-family="HelveticaNeue-Light" font-size="27.3" fill="#000000" transform="matrix(1.00, 0.00, -0.00, -1.00, 500.7, 7.0)">a</text><text xml:space="preserve" font-family="HelveticaNeue-Light" font-size="27.3" fill="#000000" transform="matrix(1.00, 0.00, -0.00, -1.00, 514.9, 7.0)">n</text><text xml:space="preserve" font-family="HelveticaNeue-Light" font-size="27.3" fill="#000000" transform="matrix(1.00, 0.00, -0.00, -1.00, 529.5, 7.0)"> </text><text xml:space="preserve" font-family="HelveticaNeue-Light" font-size="27.3" fill="#000000" transform="matrix(1.00, 0.00, -0.00, -1.00, 537.1, 7.0)">a</text><text xml:space="preserve" font-family="HelveticaNeue-Light" font-size="27.3" fill="#000000" transform="matrix(1.00, 0.00, -0.00, -1.00, 551.3, 7.0)">n</text><text xml:space="preserve" font-family="HelveticaNeue-Light" font-size="27.3" fill="#000000" transform="matrix(1.00, 0.00, -0.00, -1.00, 566.0, 7.0)">d</text><text xml:space="preserve" font-family="HelveticaNeue-Light" font-size="27.3" fill="#000000" transform="matrix(1.00, 0.00, -0.00, -1.00, 581.6, 7.0)"> </text><text xml:space="preserve" font-family="HelveticaNeue-Light" font-size="27.3" fill="#000000" transform="matrix(1.00, 0.00, -0.00, -1.00, 589.2, 7.0)">F</text><text xml:space="preserve" font-family="HelveticaNeue-Light" font-size="27.3" fill="#000000" transform="matrix(1.00, 0.00, -0.00, -1.00, 603.9, 7.0)">l</text><text xml:space="preserve" font-family="HelveticaNeue-Light" font-size="27.3" fill="#000000" transform="matrix(1.00, 0.00, -0.00, -1.00, 608.9, 7.0)">u</text><text xml:space="preserve" font-family="HelveticaNeue-Light" font-size="27.3" fill="#000000" transform="matrix(1.00, 0.00, -0.00, -1.00, 623.6, 7.0)">d</text><text xml:space="preserve" font-family="HelveticaNeue-Light" font-size="27.3" fill="#000000" transform="matrix(1.00, 0.00, -0.00, -1.00, 639.3, 7.0)">a</text><text xml:space="preserve" font-family="HelveticaNeue-Light" font-size="27.3" fill="#000000" transform="matrix(1.00, 0.00, -0.00, -1.00, 653.4, 7.0)">r</text><text xml:space="preserve" font-family="HelveticaNeue-Light" font-size="27.3" fill="#000000" transform="matrix(1.00, 0.00, -0.00, -1.00, 662.0, 7.0)">a</text><text xml:space="preserve" font-family="HelveticaNeue-Light" font-size="27.3" fill="#000000" transform="matrix(1.00, 0.00, -0.00, -1.00, 676.2, 7.0)">b</text><text xml:space="preserve" font-family="HelveticaNeue-Light" font-size="27.3" fill="#000000" transform="matrix(1.00, 0.00, -0.00, -1.00, 691.9, 7.0)">i</text><text xml:space="preserve" font-family="HelveticaNeue-Light" font-size="27.3" fill="#000000" transform="matrix(1.00, 0.00, -0.00, -1.00, 696.9, 7.0)">n</text><text xml:space="preserve" font-family="HelveticaNeue-Light" font-size="27.3" fill="#000000" transform="matrix(1.00, 0.00, -0.00, -1.00, 711.6, 7.0)">e</text><text xml:space="preserve" font-family="HelveticaNeue-Light" font-size="27.3" fill="#000000" transform="matrix(1.00, 0.00, -0.00, -1.00, 725.8, 7.0)"> </text><text xml:space="preserve" font-family="HelveticaNeue-Light" font-size="27.3" fill="#000000" transform="matrix(1.00, 0.00, -0.00, -1.00, 733.3, 7.0)">C</text><text xml:space="preserve" font-family="HelveticaNeue-Light" font-size="27.3" fill="#000000" transform="matrix(1.00, 0.00, -0.00, -1.00, 752.6, 7.0)">o</text><text xml:space="preserve" font-family="HelveticaNeue-Light" font-size="27.3" fill="#000000" transform="matrix(1.00, 0.00, -0.00, -1.00, 767.7, 7.0)">n</text><text xml:space="preserve" font-family="HelveticaNeue-Light" font-size="27.3" fill="#000000" transform="matrix(1.00, 0.00, -0.00, -1.00, 782.4, 7.0)">d</text><text xml:space="preserve" font-family="HelveticaNeue-Light" font-size="27.3" fill="#000000" transform="matrix(1.00, 0.00, -0.00, -1.00, 798.1, 7.0)">i</text><text xml:space="preserve" font-family="HelveticaNeue-Light" font-size="27.3" fill="#000000" transform="matrix(1.00, 0.00, -0.00, -1.00, 803.1, 7.0)">t</text><text xml:space="preserve" font-family="HelveticaNeue-Light" font-size="27.3" fill="#000000" transform="matrix(1.00, 0.00, -0.00, -1.00, 811.2, 7.0)">i</text><text xml:space="preserve" font-family="HelveticaNeue-Light" font-size="27.3" fill="#000000" transform="matrix(1.00, 0.00, -0.00, -1.00, 816.2, 7.0)">o</text><text xml:space="preserve" font-family="HelveticaNeue-Light" font-size="27.3" fill="#000000" transform="matrix(1.00, 0.00, -0.00, -1.00, 831.4, 7.0)">n</text><text xml:space="preserve" font-family="HelveticaNeue-Light" font-size="27.3" fill="#000000" transform="matrix(1.00, 0.00, -0.00, -1.00, 846.1, 7.0)">i</text><text xml:space="preserve" font-family="HelveticaNeue-Light" font-size="27.3" fill="#000000" transform="matrix(1.00, 0.00, -0.00, -1.00, 851.1, 7.0)">n</text><text xml:space="preserve" font-family="HelveticaNeue-Light" font-size="27.3" fill="#000000" transform="matrix(1.00, 0.00, -0.00, -1.00, 865.8, 7.0)">g</text></g></svg>