<?xml version="1.0" encoding="UTF-8" standalone="no"?><svg xmlns="http://www.w3.org/2000/svg" xmlns:xlink="http://www.w3.org/1999/xlink" clip-rule="evenodd" stroke-miterlimit="4.00" viewBox="0 0 1024 768"><desc>SVG generated by Keynote</desc><defs></defs><g transform="matrix(1.00, 0.00, -0.00, -1.00, 0.0, 768.0)"><path d="M 0.0 768.0 L 1024.0 768.0 L 1024.0 0.0 L 0.0 0.0 Z M 0.0 768.0 " fill="#FEFFFE"></path><path d="M 0.0 0.0 L 934.5 0.0 " fill="none" stroke="#9A9A9A" stroke-width="1.00" transform="matrix(1.00, 0.00, 0.00, -1.00, 45.0, 613.0)"></path><text xml:space="preserve" font-family="HelveticaNeue-Light" font-size="42.0" fill="#000000" transform="matrix(1.00, 0.00, -0.00, -1.00, 49.0, 696.0)">H</text><text xml:space="preserve" font-family="HelveticaNeue-Light" font-size="42.0" fill="#000000" transform="matrix(1.00, 0.00, -0.00, -1.00, 78.6, 696.0)">i</text><text xml:space="preserve" font-family="HelveticaNeue-Light" font-size="42.0" fill="#000000" transform="matrix(1.00, 0.00, -0.00, -1.00, 86.3, 696.0)">g</text><text xml:space="preserve" font-family="HelveticaNeue-Light" font-size="42.0" fill="#000000" transform="matrix(1.00, 0.00, -0.00, -1.00, 109.7, 696.0)">h</text><text xml:space="preserve" font-family="HelveticaNeue-Light" font-size="42.0" fill="#000000" transform="matrix(1.00, 0.00, -0.00, -1.00, 132.2, 696.0)">e</text><text xml:space="preserve" font-family="HelveticaNeue-Light" font-size="42.0" fill="#000000" transform="matrix(1.00, 0.00, -0.00, -1.00, 154.0, 696.0)">r</text><text xml:space="preserve" font-family="HelveticaNeue-Light" font-size="42.0" fill="#000000" transform="matrix(1.00, 0.00, -0.00, -1.00, 167.3, 696.0)"> </text><text xml:space="preserve" font-family="HelveticaNeue-Light" font-size="42.0" fill="#000000" transform="matrix(1.00, 0.00, -0.00, -1.00, 178.9, 696.0)">d</text><text xml:space="preserve" font-family="HelveticaNeue-Light" font-size="42.0" fill="#000000" transform="matrix(1.00, 0.00, -0.00, -1.00, 203.1, 696.0)">o</text><text xml:space="preserve" font-family="HelveticaNeue-Light" font-size="42.0" fill="#000000" transform="matrix(1.00, 0.00, -0.00, -1.00, 226.4, 696.0)">s</text><text xml:space="preserve" font-family="HelveticaNeue-Light" font-size="42.0" fill="#000000" transform="matrix(1.00, 0.00, -0.00, -1.00, 246.6, 696.0)">e</text><text xml:space="preserve" font-family="HelveticaNeue-Light" font-size="42.0" fill="#000000" transform="matrix(1.00, 0.00, -0.00, -1.00, 268.4, 696.0)"> </text><text xml:space="preserve" font-family="HelveticaNeue-Light" font-size="42.0" fill="#000000" transform="matrix(1.00, 0.00, -0.00, -1.00, 280.1, 696.0)">o</text><text xml:space="preserve" font-family="HelveticaNeue-Light" font-size="42.0" fill="#000000" transform="matrix(1.00, 0.00, -0.00, -1.00, 303.4, 696.0)">f</text><text xml:space="preserve" font-family="HelveticaNeue-Light" font-size="42.0" fill="#000000" transform="matrix(1.00, 0.00, -0.00, -1.00, 314.3, 696.0)"> </text><text xml:space="preserve" font-family="HelveticaNeue-Light" font-size="42.0" fill="#000000" transform="matrix(1.00, 0.00, -0.00, -1.00, 326.0, 696.0)">c</text><text xml:space="preserve" font-family="HelveticaNeue-Light" font-size="42.0" fill="#000000" transform="matrix(1.00, 0.00, -0.00, -1.00, 347.8, 696.0)">y</text><text xml:space="preserve" font-family="HelveticaNeue-Light" font-size="42.0" fill="#000000" transform="matrix(1.00, 0.00, -0.00, -1.00, 367.2, 696.0)">c</text><text xml:space="preserve" font-family="HelveticaNeue-Light" font-size="42.0" fill="#000000" transform="matrix(1.00, 0.00, -0.00, -1.00, 389.0, 696.0)">l</text><text xml:space="preserve" font-family="HelveticaNeue-Light" font-size="42.0" fill="#000000" transform="matrix(1.00, 0.00, -0.00, -1.00, 396.8, 696.0)">o</text><text xml:space="preserve" font-family="HelveticaNeue-Light" font-size="42.0" fill="#000000" transform="matrix(1.00, 0.00, -0.00, -1.00, 420.2, 696.0)">p</text><text xml:space="preserve" font-family="HelveticaNeue-Light" font-size="42.0" fill="#000000" transform="matrix(1.00, 0.00, -0.00, -1.00, 444.3, 696.0)">h</text><text xml:space="preserve" font-family="HelveticaNeue-Light" font-size="42.0" fill="#000000" transform="matrix(1.00, 0.00, -0.00, -1.00, 466.8, 696.0)">o</text><text xml:space="preserve" font-family="HelveticaNeue-Light" font-size="42.0" fill="#000000" transform="matrix(1.00, 0.00, -0.00, -1.00, 490.2, 696.0)">s</text><text xml:space="preserve" font-family="HelveticaNeue-Light" font-size="42.0" fill="#000000" transform="matrix(1.00, 0.00, -0.00, -1.00, 510.4, 696.0)">p</text><text xml:space="preserve" font-family="HelveticaNeue-Light" font-size="42.0" fill="#000000" transform="matrix(1.00, 0.00, -0.00, -1.00, 534.5, 696.0)">h</text><text xml:space="preserve" font-family="HelveticaNeue-Light" font-size="42.0" fill="#000000" transform="matrix(1.00, 0.00, -0.00, -1.00, 557.0, 696.0)">a</text><text xml:space="preserve" font-family="HelveticaNeue-Light" font-size="42.0" fill="#000000" transform="matrix(1.00, 0.00, -0.00, -1.00, 578.8, 696.0)">m</text><text xml:space="preserve" font-family="HelveticaNeue-Light" font-size="42.0" fill="#000000" transform="matrix(1.00, 0.00, -0.00, -1.00, 613.8, 696.0)">i</text><text xml:space="preserve" font-family="HelveticaNeue-Light" font-size="42.0" fill="#000000" transform="matrix(1.00, 0.00, -0.00, -1.00, 621.6, 696.0)">d</text><text xml:space="preserve" font-family="HelveticaNeue-Light" font-size="42.0" fill="#000000" transform="matrix(1.00, 0.00, -0.00, -1.00, 645.7, 696.0)">e</text><text xml:space="preserve" font-family="HelveticaNeue-Light" font-size="42.0" fill="#000000" transform="matrix(1.00, 0.00, -0.00, -1.00, 667.5, 696.0)"> </text><text xml:space="preserve" font-family="HelveticaNeue-Light" font-size="42.0" fill="#000000" transform="matrix(1.00, 0.00, -0.00, -1.00, 679.2, 696.0)">d</text><text xml:space="preserve" font-family="HelveticaNeue-Light" font-size="42.0" fill="#000000" transform="matrix(1.00, 0.00, -0.00, -1.00, 703.3, 696.0)">e</text><text xml:space="preserve" font-family="HelveticaNeue-Light" font-size="42.0" fill="#000000" transform="matrix(1.00, 0.00, -0.00, -1.00, 725.1, 696.0)">c</text><text xml:space="preserve" font-family="HelveticaNeue-Light" font-size="42.0" fill="#000000" transform="matrix(1.00, 0.00, -0.00, -1.00, 746.9, 696.0)">r</text><text xml:space="preserve" font-family="HelveticaNeue-Light" font-size="42.0" fill="#000000" transform="matrix(1.00, 0.00, -0.00, -1.00, 759.3, 696.0)">e</text><text xml:space="preserve" font-family="HelveticaNeue-Light" font-size="42.0" fill="#000000" transform="matrix(1.00, 0.00, -0.00, -1.00, 781.1, 696.0)">a</text><text xml:space="preserve" font-family="HelveticaNeue-Light" font-size="42.0" fill="#000000" transform="matrix(1.00, 0.00, -0.00, -1.00, 802.9, 696.0)">s</text><text xml:space="preserve" font-family="HelveticaNeue-Light" font-size="42.0" fill="#000000" transform="matrix(1.00, 0.00, -0.00, -1.00, 823.1, 696.0)">e</text><text xml:space="preserve" font-family="HelveticaNeue-Light" font-size="42.0" fill="#000000" transform="matrix(1.00, 0.00, -0.00, -1.00, 844.9, 696.0)">d</text><text xml:space="preserve" font-family="HelveticaNeue-Light" font-size="42.0" fill="#000000" transform="matrix(1.00, 0.00, -0.00, -1.00, 869.0, 696.0)"> </text><text xml:space="preserve" font-family="HelveticaNeue-Light" font-size="42.0" fill="#000000" transform="matrix(1.00, 0.00, -0.00, -1.00, 49.0, 645.0)">G</text><text xml:space="preserve" font-family="HelveticaNeue-Light" font-size="42.0" fill="#000000" transform="matrix(1.00, 0.00, -0.00, -1.00, 80.1, 645.0)">V</text><text xml:space="preserve" font-family="HelveticaNeue-Light" font-size="42.0" fill="#000000" transform="matrix(1.00, 0.00, -0.00, -1.00, 105.0, 645.0)">H</text><text xml:space="preserve" font-family="HelveticaNeue-Light" font-size="42.0" fill="#000000" transform="matrix(1.00, 0.00, -0.00, -1.00, 134.6, 645.0)">D</text><text xml:space="preserve" font-family="HelveticaNeue-Light" font-size="42.0" fill="#000000" transform="matrix(1.00, 0.00, -0.00, -1.00, 163.4, 645.0)">-</text><text xml:space="preserve" font-family="HelveticaNeue-Light" font-size="42.0" fill="#000000" transform="matrix(1.00, 0.00, -0.00, -1.00, 178.9, 645.0)">a</text><text xml:space="preserve" font-family="HelveticaNeue-Light" font-size="42.0" fill="#000000" transform="matrix(1.00, 0.00, -0.00, -1.00, 200.7, 645.0)">s</text><text xml:space="preserve" font-family="HelveticaNeue-Light" font-size="42.0" fill="#000000" transform="matrix(1.00, 0.00, -0.00, -1.00, 220.9, 645.0)">s</text><text xml:space="preserve" font-family="HelveticaNeue-Light" font-size="42.0" fill="#000000" transform="matrix(1.00, 0.00, -0.00, -1.00, 241.1, 645.0)">o</text><text xml:space="preserve" font-family="HelveticaNeue-Light" font-size="42.0" fill="#000000" transform="matrix(1.00, 0.00, -0.00, -1.00, 264.5, 645.0)">c</text><text xml:space="preserve" font-family="HelveticaNeue-Light" font-size="42.0" fill="#000000" transform="matrix(1.00, 0.00, -0.00, -1.00, 286.3, 645.0)">i</text><text xml:space="preserve" font-family="HelveticaNeue-Light" font-size="42.0" fill="#000000" transform="matrix(1.00, 0.00, -0.00, -1.00, 294.0, 645.0)">a</text><text xml:space="preserve" font-family="HelveticaNeue-Light" font-size="42.0" fill="#000000" transform="matrix(1.00, 0.00, -0.00, -1.00, 315.8, 645.0)">t</text><text xml:space="preserve" font-family="HelveticaNeue-Light" font-size="42.0" fill="#000000" transform="matrix(1.00, 0.00, -0.00, -1.00, 328.3, 645.0)">e</text><text xml:space="preserve" font-family="HelveticaNeue-Light" font-size="42.0" fill="#000000" transform="matrix(1.00, 0.00, -0.00, -1.00, 350.1, 645.0)">d</text><text xml:space="preserve" font-family="HelveticaNeue-Light" font-size="42.0" fill="#000000" transform="matrix(1.00, 0.00, -0.00, -1.00, 374.2, 645.0)"> </text><text xml:space="preserve" font-family="HelveticaNeue-Light" font-size="42.0" fill="#000000" transform="matrix(1.00, 0.00, -0.00, -1.00, 385.8, 645.0)">m</text><text xml:space="preserve" font-family="HelveticaNeue-Light" font-size="42.0" fill="#000000" transform="matrix(1.00, 0.00, -0.00, -1.00, 420.8, 645.0)">o</text><text xml:space="preserve" font-family="HelveticaNeue-Light" font-size="42.0" fill="#000000" transform="matrix(1.00, 0.00, -0.00, -1.00, 444.2, 645.0)">r</text><text xml:space="preserve" font-family="HelveticaNeue-Light" font-size="42.0" fill="#000000" transform="matrix(1.00, 0.00, -0.00, -1.00, 457.4, 645.0)">t</text><text xml:space="preserve" font-family="HelveticaNeue-Light" font-size="42.0" fill="#000000" transform="matrix(1.00, 0.00, -0.00, -1.00, 469.8, 645.0)">a</text><text xml:space="preserve" font-family="HelveticaNeue-Light" font-size="42.0" fill="#000000" transform="matrix(1.00, 0.00, -0.00, -1.00, 491.6, 645.0)">l</text><text xml:space="preserve" font-family="HelveticaNeue-Light" font-size="42.0" fill="#000000" transform="matrix(1.00, 0.00, -0.00, -1.00, 499.4, 645.0)">i</text><text xml:space="preserve" font-family="HelveticaNeue-Light" font-size="42.0" fill="#000000" transform="matrix(1.00, 0.00, -0.00, -1.00, 507.2, 645.0)">t</text><text xml:space="preserve" font-family="HelveticaNeue-Light" font-size="42.0" fill="#000000" transform="matrix(1.00, 0.00, -0.00, -1.00, 519.6, 645.0)">y</text><text xml:space="preserve" font-family="HelveticaNeue-Light" font-size="42.0" fill="#000000" transform="matrix(1.00, 0.00, -0.00, -1.00, 539.1, 645.0)"> </text><text xml:space="preserve" font-family="HelveticaNeue-Light" font-size="42.0" fill="#000000" transform="matrix(1.00, 0.00, -0.00, -1.00, 550.7, 645.0)">i</text><text xml:space="preserve" font-family="HelveticaNeue-Light" font-size="42.0" fill="#000000" transform="matrix(1.00, 0.00, -0.00, -1.00, 558.5, 645.0)">n</text><text xml:space="preserve" font-family="HelveticaNeue-Light" font-size="42.0" fill="#000000" transform="matrix(1.00, 0.00, -0.00, -1.00, 581.1, 645.0)"> </text><text xml:space="preserve" font-family="HelveticaNeue-Light" font-size="42.0" fill="#000000" transform="matrix(1.00, 0.00, -0.00, -1.00, 592.7, 645.0)">m</text><text xml:space="preserve" font-family="HelveticaNeue-Light" font-size="42.0" fill="#000000" transform="matrix(1.00, 0.00, -0.00, -1.00, 627.7, 645.0)">i</text><text xml:space="preserve" font-family="HelveticaNeue-Light" font-size="42.0" fill="#000000" transform="matrix(1.00, 0.00, -0.00, -1.00, 635.5, 645.0)">c</text><text xml:space="preserve" font-family="HelveticaNeue-Light" font-size="42.0" fill="#000000" transform="matrix(1.00, 0.00, -0.00, -1.00, 657.3, 645.0)">e</text><g><clipPath id="clip-89"><path d="M 41.0 607.0 L 485.0 607.0 L 485.0 100.0 L 41.0 100.0 Z M 40.9 607.0 "></path></clipPath><g clip-path="url(#clip-89)"><image xlink:href="0D07B6AF5C00C1B9B28D331229689106.png" width="217.00" height="541.00" transform="matrix(2.05, 0.00, -0.00, -2.04, 41.0, 607.0)"></image></g></g><g><clipPath id="clip-90"><path d="M 539.0 607.0 L 983.0 607.0 L 983.0 100.0 L 539.0 100.0 Z M 539.4 607.0 "></path></clipPath><g clip-path="url(#clip-90)"><image xlink:href="../../7BF2FD08-1D63-4025-9A87-67CEE39F2CAF/assets/0D07B6AF5C00C1B9B28D331229689106.png" width="217.00" height="541.00" transform="matrix(2.05, 0.00, -0.00, -2.04, 539.0, 1171.0)"></image></g></g><text xml:space="preserve" font-family="HelveticaNeue-Light" font-size="22.0" fill="#000000" transform="matrix(1.00, 0.00, -0.00, -1.00, 158.1, 40.0)">O</text><text xml:space="preserve" font-family="HelveticaNeue-Light" font-size="22.0" fill="#000000" transform="matrix(1.00, 0.00, -0.00, -1.00, 174.4, 40.0)">w</text><text xml:space="preserve" font-family="HelveticaNeue-Light" font-size="22.0" fill="#000000" transform="matrix(1.00, 0.00, -0.00, -1.00, 190.7, 40.0)">e</text><text xml:space="preserve" font-family="HelveticaNeue-Light" font-size="22.0" fill="#000000" transform="matrix(1.00, 0.00, -0.00, -1.00, 202.1, 40.0)">n</text><text xml:space="preserve" font-family="HelveticaNeue-Light" font-size="22.0" fill="#000000" transform="matrix(1.00, 0.00, -0.00, -1.00, 214.0, 40.0)">s</text><text xml:space="preserve" font-family="HelveticaNeue-Light" font-size="22.0" fill="#000000" transform="matrix(1.00, 0.00, -0.00, -1.00, 224.5, 40.0)"> </text><text xml:space="preserve" font-family="HelveticaNeue-Light" font-size="22.0" fill="#000000" transform="matrix(1.00, 0.00, -0.00, -1.00, 230.6, 40.0)">A</text><text xml:space="preserve" font-family="HelveticaNeue-Light" font-size="22.0" fill="#000000" transform="matrix(1.00, 0.00, -0.00, -1.00, 244.5, 40.0)">H</text><text xml:space="preserve" font-family="HelveticaNeue-Light" font-size="22.0" fill="#000000" transform="matrix(1.00, 0.00, -0.00, -1.00, 260.0, 40.0)">,</text><text xml:space="preserve" font-family="HelveticaNeue-Light" font-size="22.0" fill="#000000" transform="matrix(1.00, 0.00, -0.00, -1.00, 266.1, 40.0)"> </text><text xml:space="preserve" font-family="HelveticaNeue-Light" font-size="22.0" fill="#000000" transform="matrix(1.00, 0.00, -0.00, -1.00, 272.2, 40.0)">S</text><text xml:space="preserve" font-family="HelveticaNeue-Light" font-size="22.0" fill="#000000" transform="matrix(1.00, 0.00, -0.00, -1.00, 286.1, 40.0)">a</text><text xml:space="preserve" font-family="HelveticaNeue-Light" font-size="22.0" fill="#000000" transform="matrix(1.00, 0.00, -0.00, -1.00, 297.5, 40.0)">n</text><text xml:space="preserve" font-family="HelveticaNeue-Light" font-size="22.0" fill="#000000" transform="matrix(1.00, 0.00, -0.00, -1.00, 309.3, 40.0)">t</text><text xml:space="preserve" font-family="HelveticaNeue-Light" font-size="22.0" fill="#000000" transform="matrix(1.00, 0.00, -0.00, -1.00, 315.8, 40.0)">o</text><text xml:space="preserve" font-family="HelveticaNeue-Light" font-size="22.0" fill="#000000" transform="matrix(1.00, 0.00, -0.00, -1.00, 328.1, 40.0)">s</text><text xml:space="preserve" font-family="HelveticaNeue-Light" font-size="22.0" fill="#000000" transform="matrix(1.00, 0.00, -0.00, -1.00, 338.6, 40.0)"> </text><text xml:space="preserve" font-family="HelveticaNeue-Light" font-size="22.0" fill="#000000" transform="matrix(1.00, 0.00, -0.00, -1.00, 344.8, 40.0)">G</text><text xml:space="preserve" font-family="HelveticaNeue-Light" font-size="22.0" fill="#000000" transform="matrix(1.00, 0.00, -0.00, -1.00, 361.1, 40.0)">W</text><text xml:space="preserve" font-family="HelveticaNeue-Light" font-size="22.0" fill="#000000" transform="matrix(1.00, 0.00, -0.00, -1.00, 379.4, 40.0)">.</text><text xml:space="preserve" font-family="HelveticaNeue-Light" font-size="22.0" fill="#000000" transform="matrix(1.00, 0.00, -0.00, -1.00, 385.5, 40.0)"> </text><text xml:space="preserve" font-family="HelveticaNeue-Light" font-size="22.0" fill="#000000" transform="matrix(1.00, 0.00, -0.00, -1.00, 391.6, 40.0)">T</text><text xml:space="preserve" font-family="HelveticaNeue-Light" font-size="22.0" fill="#000000" transform="matrix(1.00, 0.00, -0.00, -1.00, 403.9, 40.0)">h</text><text xml:space="preserve" font-family="HelveticaNeue-Light" font-size="22.0" fill="#000000" transform="matrix(1.00, 0.00, -0.00, -1.00, 415.7, 40.0)">e</text><text xml:space="preserve" font-family="HelveticaNeue-Light" font-size="22.0" fill="#000000" transform="matrix(1.00, 0.00, -0.00, -1.00, 427.1, 40.0)"> </text><text xml:space="preserve" font-family="HelveticaNeue-Light" font-size="22.0" fill="#000000" transform="matrix(1.00, 0.00, -0.00, -1.00, 433.2, 40.0)">e</text><text xml:space="preserve" font-family="HelveticaNeue-Light" font-size="22.0" fill="#000000" transform="matrix(1.00, 0.00, -0.00, -1.00, 444.6, 40.0)">f</text><text xml:space="preserve" font-family="HelveticaNeue-Light" font-size="22.0" fill="#000000" transform="matrix(1.00, 0.00, -0.00, -1.00, 449.9, 40.0)">f</text><text xml:space="preserve" font-family="HelveticaNeue-Light" font-size="22.0" fill="#000000" transform="matrix(1.00, 0.00, -0.00, -1.00, 455.6, 40.0)">e</text><text xml:space="preserve" font-family="HelveticaNeue-Light" font-size="22.0" fill="#000000" transform="matrix(1.00, 0.00, -0.00, -1.00, 467.0, 40.0)">c</text><text xml:space="preserve" font-family="HelveticaNeue-Light" font-size="22.0" fill="#000000" transform="matrix(1.00, 0.00, -0.00, -1.00, 478.5, 40.0)">t</text><text xml:space="preserve" font-family="HelveticaNeue-Light" font-size="22.0" fill="#000000" transform="matrix(1.00, 0.00, -0.00, -1.00, 485.0, 40.0)"> </text><text xml:space="preserve" font-family="HelveticaNeue-Light" font-size="22.0" fill="#000000" transform="matrix(1.00, 0.00, -0.00, -1.00, 491.1, 40.0)">o</text><text xml:space="preserve" font-family="HelveticaNeue-Light" font-size="22.0" fill="#000000" transform="matrix(1.00, 0.00, -0.00, -1.00, 503.3, 40.0)">f</text><text xml:space="preserve" font-family="HelveticaNeue-Light" font-size="22.0" fill="#000000" transform="matrix(1.00, 0.00, -0.00, -1.00, 509.0, 40.0)"> </text><text xml:space="preserve" font-family="HelveticaNeue-Light" font-size="22.0" fill="#000000" transform="matrix(1.00, 0.00, -0.00, -1.00, 515.1, 40.0)">c</text><text xml:space="preserve" font-family="HelveticaNeue-Light" font-size="22.0" fill="#000000" transform="matrix(1.00, 0.00, -0.00, -1.00, 526.5, 40.0)">y</text><text xml:space="preserve" font-family="HelveticaNeue-Light" font-size="22.0" fill="#000000" transform="matrix(1.00, 0.00, -0.00, -1.00, 536.7, 40.0)">t</text><text xml:space="preserve" font-family="HelveticaNeue-Light" font-size="22.0" fill="#000000" transform="matrix(1.00, 0.00, -0.00, -1.00, 543.2, 40.0)">o</text><text xml:space="preserve" font-family="HelveticaNeue-Light" font-size="22.0" fill="#000000" transform="matrix(1.00, 0.00, -0.00, -1.00, 555.5, 40.0)">t</text><text xml:space="preserve" font-family="HelveticaNeue-Light" font-size="22.0" fill="#000000" transform="matrix(1.00, 0.00, -0.00, -1.00, 562.0, 40.0)">o</text><text xml:space="preserve" font-family="HelveticaNeue-Light" font-size="22.0" fill="#000000" transform="matrix(1.00, 0.00, -0.00, -1.00, 574.2, 40.0)">x</text><text xml:space="preserve" font-family="HelveticaNeue-Light" font-size="22.0" fill="#000000" transform="matrix(1.00, 0.00, -0.00, -1.00, 584.8, 40.0)">i</text><text xml:space="preserve" font-family="HelveticaNeue-Light" font-size="22.0" fill="#000000" transform="matrix(1.00, 0.00, -0.00, -1.00, 588.9, 40.0)">c</text><text xml:space="preserve" font-family="HelveticaNeue-Light" font-size="22.0" fill="#000000" transform="matrix(1.00, 0.00, -0.00, -1.00, 600.3, 40.0)"> </text><text xml:space="preserve" font-family="HelveticaNeue-Light" font-size="22.0" fill="#000000" transform="matrix(1.00, 0.00, -0.00, -1.00, 606.4, 40.0)">d</text><text xml:space="preserve" font-family="HelveticaNeue-Light" font-size="22.0" fill="#000000" transform="matrix(1.00, 0.00, -0.00, -1.00, 619.0, 40.0)">r</text><text xml:space="preserve" font-family="HelveticaNeue-Light" font-size="22.0" fill="#000000" transform="matrix(1.00, 0.00, -0.00, -1.00, 626.0, 40.0)">u</text><text xml:space="preserve" font-family="HelveticaNeue-Light" font-size="22.0" fill="#000000" transform="matrix(1.00, 0.00, -0.00, -1.00, 637.8, 40.0)">g</text><text xml:space="preserve" font-family="HelveticaNeue-Light" font-size="22.0" fill="#000000" transform="matrix(1.00, 0.00, -0.00, -1.00, 650.0, 40.0)">s</text><text xml:space="preserve" font-family="HelveticaNeue-Light" font-size="22.0" fill="#000000" transform="matrix(1.00, 0.00, -0.00, -1.00, 660.6, 40.0)"> </text><text xml:space="preserve" font-family="HelveticaNeue-Light" font-size="22.0" fill="#000000" transform="matrix(1.00, 0.00, -0.00, -1.00, 666.7, 40.0)">o</text><text xml:space="preserve" font-family="HelveticaNeue-Light" font-size="22.0" fill="#000000" transform="matrix(1.00, 0.00, -0.00, -1.00, 678.9, 40.0)">n</text><text xml:space="preserve" font-family="HelveticaNeue-Light" font-size="22.0" fill="#000000" transform="matrix(1.00, 0.00, -0.00, -1.00, 690.8, 40.0)"> </text><text xml:space="preserve" font-family="HelveticaNeue-Light" font-size="22.0" fill="#000000" transform="matrix(1.00, 0.00, -0.00, -1.00, 696.9, 40.0)">g</text><text xml:space="preserve" font-family="HelveticaNeue-Light" font-size="22.0" fill="#000000" transform="matrix(1.00, 0.00, -0.00, -1.00, 709.1, 40.0)">r</text><text xml:space="preserve" font-family="HelveticaNeue-Light" font-size="22.0" fill="#000000" transform="matrix(1.00, 0.00, -0.00, -1.00, 716.0, 40.0)">a</text><text xml:space="preserve" font-family="HelveticaNeue-Light" font-size="22.0" fill="#000000" transform="matrix(1.00, 0.00, -0.00, -1.00, 727.5, 40.0)">f</text><text xml:space="preserve" font-family="HelveticaNeue-Light" font-size="22.0" fill="#000000" transform="matrix(1.00, 0.00, -0.00, -1.00, 733.2, 40.0)">t</text><text xml:space="preserve" font-family="HelveticaNeue-Light" font-size="22.0" fill="#000000" transform="matrix(1.00, 0.00, -0.00, -1.00, 739.7, 40.0)">-</text><text xml:space="preserve" font-family="HelveticaNeue-Light" font-size="22.0" fill="#000000" transform="matrix(1.00, 0.00, -0.00, -1.00, 747.8, 40.0)">v</text><text xml:space="preserve" font-family="HelveticaNeue-Light" font-size="22.0" fill="#000000" transform="matrix(1.00, 0.00, -0.00, -1.00, 758.0, 40.0)">e</text><text xml:space="preserve" font-family="HelveticaNeue-Light" font-size="22.0" fill="#000000" transform="matrix(1.00, 0.00, -0.00, -1.00, 769.4, 40.0)">r</text><text xml:space="preserve" font-family="HelveticaNeue-Light" font-size="22.0" fill="#000000" transform="matrix(1.00, 0.00, -0.00, -1.00, 776.3, 40.0)">s</text><text xml:space="preserve" font-family="HelveticaNeue-Light" font-size="22.0" fill="#000000" transform="matrix(1.00, 0.00, -0.00, -1.00, 786.9, 40.0)">u</text><text xml:space="preserve" font-family="HelveticaNeue-Light" font-size="22.0" fill="#000000" transform="matrix(1.00, 0.00, -0.00, -1.00, 798.7, 40.0)">s</text><text xml:space="preserve" font-family="HelveticaNeue-Light" font-size="22.0" fill="#000000" transform="matrix(1.00, 0.00, -0.00, -1.00, 809.3, 40.0)">-</text><text xml:space="preserve" font-family="HelveticaNeue-Light" font-size="22.0" fill="#000000" transform="matrix(1.00, 0.00, -0.00, -1.00, 817.5, 40.0)">h</text><text xml:space="preserve" font-family="HelveticaNeue-Light" font-size="22.0" fill="#000000" transform="matrix(1.00, 0.00, -0.00, -1.00, 829.3, 40.0)">o</text><text xml:space="preserve" font-family="HelveticaNeue-Light" font-size="22.0" fill="#000000" transform="matrix(1.00, 0.00, -0.00, -1.00, 841.5, 40.0)">s</text><text xml:space="preserve" font-family="HelveticaNeue-Light" font-size="22.0" fill="#000000" transform="matrix(1.00, 0.00, -0.00, -1.00, 852.1, 40.0)">t</text><text xml:space="preserve" font-family="HelveticaNeue-Light" font-size="22.0" fill="#000000" transform="matrix(1.00, 0.00, -0.00, -1.00, 858.6, 40.0)"> </text><text xml:space="preserve" font-family="HelveticaNeue-Light" font-size="22.0" fill="#000000" transform="matrix(1.00, 0.00, -0.00, -1.00, 864.7, 40.0)">d</text><text xml:space="preserve" font-family="HelveticaNeue-Light" font-size="22.0" fill="#000000" transform="matrix(1.00, 0.00, -0.00, -1.00, 877.3, 40.0)">i</text><text xml:space="preserve" font-family="HelveticaNeue-Light" font-size="22.0" fill="#000000" transform="matrix(1.00, 0.00, -0.00, -1.00, 881.4, 40.0)">s</text><text xml:space="preserve" font-family="HelveticaNeue-Light" font-size="22.0" fill="#000000" transform="matrix(1.00, 0.00, -0.00, -1.00, 892.0, 40.0)">e</text><text xml:space="preserve" font-family="HelveticaNeue-Light" font-size="22.0" fill="#000000" transform="matrix(1.00, 0.00, -0.00, -1.00, 903.4, 40.0)">a</text><text xml:space="preserve" font-family="HelveticaNeue-Light" font-size="22.0" fill="#000000" transform="matrix(1.00, 0.00, -0.00, -1.00, 914.8, 40.0)">s</text><text xml:space="preserve" font-family="HelveticaNeue-Light" font-size="22.0" fill="#000000" transform="matrix(1.00, 0.00, -0.00, -1.00, 925.4, 40.0)">e</text><text xml:space="preserve" font-family="HelveticaNeue-Light" font-size="22.0" fill="#000000" transform="matrix(1.00, 0.00, -0.00, -1.00, 936.8, 40.0)"> </text><text xml:space="preserve" font-family="HelveticaNeue-Light" font-size="22.0" fill="#000000" transform="matrix(1.00, 0.00, -0.00, -1.00, 942.9, 40.0)">i</text><text xml:space="preserve" font-family="HelveticaNeue-Light" font-size="22.0" fill="#000000" transform="matrix(1.00, 0.00, -0.00, -1.00, 947.0, 40.0)">n</text><text xml:space="preserve" font-family="HelveticaNeue-Light" font-size="22.0" fill="#000000" transform="matrix(1.00, 0.00, -0.00, -1.00, 958.8, 40.0)"> </text><text xml:space="preserve" font-family="HelveticaNeue-Light" font-size="22.0" fill="#000000" transform="matrix(1.00, 0.00, -0.00, -1.00, 964.9, 40.0)">m</text><text xml:space="preserve" font-family="HelveticaNeue-Light" font-size="22.0" fill="#000000" transform="matrix(1.00, 0.00, -0.00, -1.00, 983.3, 40.0)">i</text><text xml:space="preserve" font-family="HelveticaNeue-Light" font-size="22.0" fill="#000000" transform="matrix(1.00, 0.00, -0.00, -1.00, 987.3, 40.0)">c</text><text xml:space="preserve" font-family="HelveticaNeue-Light" font-size="22.0" fill="#000000" transform="matrix(1.00, 0.00, -0.00, -1.00, 998.8, 40.0)">e</text><text xml:space="preserve" font-family="HelveticaNeue-Light" font-size="22.0" fill="#000000" transform="matrix(1.00, 0.00, -0.00, -1.00, 1010.2, 40.0)">.</text><text xml:space="preserve" font-family="HelveticaNeue-Light" font-size="22.0" fill="#000000" transform="matrix(1.00, 0.00, -0.00, -1.00, 1016.3, 40.0)"> </text><text xml:space="preserve" font-family="HelveticaNeue-Light" font-size="22.0" fill="#000000" transform="matrix(1.00, 0.00, -0.00, -1.00, 634.3, 13.0)">T</text><text xml:space="preserve" font-family="HelveticaNeue-Light" font-size="22.0" fill="#000000" transform="matrix(1.00, 0.00, -0.00, -1.00, 644.6, 13.0)">r</text><text xml:space="preserve" font-family="HelveticaNeue-Light" font-size="22.0" fill="#000000" transform="matrix(1.00, 0.00, -0.00, -1.00, 651.5, 13.0)">a</text><text xml:space="preserve" font-family="HelveticaNeue-Light" font-size="22.0" fill="#000000" transform="matrix(1.00, 0.00, -0.00, -1.00, 662.9, 13.0)">n</text><text xml:space="preserve" font-family="HelveticaNeue-Light" font-size="22.0" fill="#000000" transform="matrix(1.00, 0.00, -0.00, -1.00, 674.7, 13.0)">s</text><text xml:space="preserve" font-family="HelveticaNeue-Light" font-size="22.0" fill="#000000" transform="matrix(1.00, 0.00, -0.00, -1.00, 685.3, 13.0)">p</text><text xml:space="preserve" font-family="HelveticaNeue-Light" font-size="22.0" fill="#000000" transform="matrix(1.00, 0.00, -0.00, -1.00, 697.9, 13.0)">l</text><text xml:space="preserve" font-family="HelveticaNeue-Light" font-size="22.0" fill="#000000" transform="matrix(1.00, 0.00, -0.00, -1.00, 702.0, 13.0)">a</text><text xml:space="preserve" font-family="HelveticaNeue-Light" font-size="22.0" fill="#000000" transform="matrix(1.00, 0.00, -0.00, -1.00, 713.4, 13.0)">n</text><text xml:space="preserve" font-family="HelveticaNeue-Light" font-size="22.0" fill="#000000" transform="matrix(1.00, 0.00, -0.00, -1.00, 725.2, 13.0)">t</text><text xml:space="preserve" font-family="HelveticaNeue-Light" font-size="22.0" fill="#000000" transform="matrix(1.00, 0.00, -0.00, -1.00, 731.7, 13.0)">a</text><text xml:space="preserve" font-family="HelveticaNeue-Light" font-size="22.0" fill="#000000" transform="matrix(1.00, 0.00, -0.00, -1.00, 743.2, 13.0)">t</text><text xml:space="preserve" font-family="HelveticaNeue-Light" font-size="22.0" fill="#000000" transform="matrix(1.00, 0.00, -0.00, -1.00, 749.7, 13.0)">i</text><text xml:space="preserve" font-family="HelveticaNeue-Light" font-size="22.0" fill="#000000" transform="matrix(1.00, 0.00, -0.00, -1.00, 753.7, 13.0)">o</text><text xml:space="preserve" font-family="HelveticaNeue-Light" font-size="22.0" fill="#000000" transform="matrix(1.00, 0.00, -0.00, -1.00, 766.0, 13.0)">n</text><text xml:space="preserve" font-family="HelveticaNeue-Light" font-size="22.0" fill="#000000" transform="matrix(1.00, 0.00, -0.00, -1.00, 777.8, 13.0)">.</text><text xml:space="preserve" font-family="HelveticaNeue-Light" font-size="22.0" fill="#000000" transform="matrix(1.00, 0.00, -0.00, -1.00, 783.9, 13.0)"> </text><text xml:space="preserve" font-family="HelveticaNeue-Light" font-size="22.0" fill="#000000" transform="matrix(1.00, 0.00, -0.00, -1.00, 790.0, 13.0)">1</text><text xml:space="preserve" font-family="HelveticaNeue-Light" font-size="22.0" fill="#000000" transform="matrix(1.00, 0.00, -0.00, -1.00, 802.3, 13.0)">9</text><text xml:space="preserve" font-family="HelveticaNeue-Light" font-size="22.0" fill="#000000" transform="matrix(1.00, 0.00, -0.00, -1.00, 814.5, 13.0)">7</text><text xml:space="preserve" font-family="HelveticaNeue-Light" font-size="22.0" fill="#000000" transform="matrix(1.00, 0.00, -0.00, -1.00, 826.7, 13.0)">1</text><text xml:space="preserve" font-family="HelveticaNeue-Light" font-size="22.0" fill="#000000" transform="matrix(1.00, 0.00, -0.00, -1.00, 838.9, 13.0)"> </text><text xml:space="preserve" font-family="HelveticaNeue-Light" font-size="22.0" fill="#000000" transform="matrix(1.00, 0.00, -0.00, -1.00, 845.1, 13.0)">A</text><text xml:space="preserve" font-family="HelveticaNeue-Light" font-size="22.0" fill="#000000" transform="matrix(1.00, 0.00, -0.00, -1.00, 858.9, 13.0)">p</text><text xml:space="preserve" font-family="HelveticaNeue-Light" font-size="22.0" fill="#000000" transform="matrix(1.00, 0.00, -0.00, -1.00, 871.6, 13.0)">r</text><text xml:space="preserve" font-family="HelveticaNeue-Light" font-size="22.0" fill="#000000" transform="matrix(1.00, 0.00, -0.00, -1.00, 878.5, 13.0)">;</text><text xml:space="preserve" font-family="HelveticaNeue-Light" font-size="22.0" fill="#000000" transform="matrix(1.00, 0.00, -0.00, -1.00, 884.6, 13.0)">1</text><text xml:space="preserve" font-family="HelveticaNeue-Light" font-size="22.0" fill="#000000" transform="matrix(1.00, 0.00, -0.00, -1.00, 896.8, 13.0)">1</text><text xml:space="preserve" font-family="HelveticaNeue-Light" font-size="22.0" fill="#000000" transform="matrix(1.00, 0.00, -0.00, -1.00, 909.1, 13.0)">(</text><text xml:space="preserve" font-family="HelveticaNeue-Light" font-size="22.0" fill="#000000" transform="matrix(1.00, 0.00, -0.00, -1.00, 914.4, 13.0)">4</text><text xml:space="preserve" font-family="HelveticaNeue-Light" font-size="22.0" fill="#000000" transform="matrix(1.00, 0.00, -0.00, -1.00, 926.6, 13.0)">)</text><text xml:space="preserve" font-family="HelveticaNeue-Light" font-size="22.0" fill="#000000" transform="matrix(1.00, 0.00, -0.00, -1.00, 931.9, 13.0)">:</text><text xml:space="preserve" font-family="HelveticaNeue-Light" font-size="22.0" fill="#000000" transform="matrix(1.00, 0.00, -0.00, -1.00, 938.0, 13.0)">3</text><text xml:space="preserve" font-family="HelveticaNeue-Light" font-size="22.0" fill="#000000" transform="matrix(1.00, 0.00, -0.00, -1.00, 950.2, 13.0)">7</text><text xml:space="preserve" font-family="HelveticaNeue-Light" font-size="22.0" fill="#000000" transform="matrix(1.00, 0.00, -0.00, -1.00, 962.5, 13.0)">8</text><text xml:space="preserve" font-family="HelveticaNeue-Light" font-size="22.0" fill="#000000" transform="matrix(1.00, 0.00, -0.00, -1.00, 974.7, 13.0)">–</text><text xml:space="preserve" font-family="HelveticaNeue-Light" font-size="22.0" fill="#000000" transform="matrix(1.00, 0.00, -0.00, -1.00, 985.7, 13.0)">8</text><text xml:space="preserve" font-family="HelveticaNeue-Light" font-size="22.0" fill="#000000" transform="matrix(1.00, 0.00, -0.00, -1.00, 997.9, 13.0)">2</text><text xml:space="preserve" font-family="HelveticaNeue-Light" font-size="22.0" fill="#000000" transform="matrix(1.00, 0.00, -0.00, -1.00, 1010.2, 13.0)">.</text><g opacity="0.25"><g><clipPath id="clip-91"><path d="M 567.0 244.0 L 1014.0 244.0 L 1014.0 279.0 L 567.0 279.0 Z M 567.0 244.0 "></path></clipPath><g clip-path="url(#clip-91)"><path d="M 960.5 268.6 C 961.3 268.8 964.9 268.9 965.0 268.5 C 963.6 268.6 960.7 268.3 960.5 268.6 C 960.5 268.6 960.5 268.6 960.5 268.6 Z M 953.1 268.8 C 954.5 269.1 957.4 269.0 958.3 268.7 C 956.7 268.8 953.6 268.5 953.1 268.8 C 953.1 268.8 953.1 268.8 953.1 268.8 Z M 964.4 267.6 C 966.3 267.5 969.9 267.8 970.8 267.4 C 968.8 267.5 965.2 267.3 964.4 267.6 C 964.4 267.6 964.4 267.6 964.4 267.6 Z M 861.5 274.9 C 862.4 275.1 866.0 275.1 866.0 274.7 C 864.7 274.8 861.8 274.5 861.5 274.9 C 861.5 274.9 861.5 274.9 861.5 274.9 Z M 881.8 273.8 C 883.2 274.2 886.1 273.9 887.0 273.7 C 885.4 273.8 882.3 273.5 881.8 273.8 C 881.8 273.8 881.8 273.8 881.8 273.8 Z M 893.6 274.0 C 896.4 274.0 899.3 274.0 898.8 273.6 C 897.9 273.9 893.9 273.5 893.6 274.0 C 893.6 274.0 893.6 274.0 893.6 274.0 Z M 962.0 250.3 C 959.1 250.5 956.9 250.1 954.9 250.1 C 945.0 250.2 960.1 251.0 962.0 250.3 C 962.0 250.3 962.0 250.3 962.0 250.3 Z M 914.4 272.7 C 912.5 272.7 910.9 272.8 909.9 273.0 C 911.8 273.0 914.3 273.1 914.4 272.7 C 914.4 272.7 914.4 272.7 914.4 272.7 Z M 931.5 272.2 C 932.0 272.5 942.1 272.4 947.7 272.0 C 943.0 272.0 931.1 272.0 931.5 272.2 C 931.5 272.2 931.5 272.2 931.5 272.2 Z M 938.2 250.1 C 931.6 250.5 921.1 250.4 916.4 250.6 C 911.6 250.8 924.8 251.0 936.9 250.9 C 949.1 250.8 939.1 250.0 944.0 249.8 C 949.0 249.6 939.3 249.4 934.4 249.7 C 929.5 249.9 937.6 249.8 938.2 250.1 C 938.2 250.1 938.2 250.1 938.2 250.1 Z M 938.5 248.6 C 940.9 248.6 943.0 248.5 944.3 248.3 C 941.9 248.2 939.5 248.0 938.5 248.6 C 938.5 248.6 938.5 248.6 938.5 248.6 Z M 586.0 259.5 C 586.8 263.8 592.6 267.3 598.8 269.8 C 600.4 270.4 602.0 270.9 603.6 271.5 C 615.1 273.4 626.7 274.4 638.2 274.9 C 640.5 274.9 642.8 275.0 645.2 275.1 C 652.3 275.4 659.4 275.5 666.6 275.6 C 669.0 275.6 671.3 275.6 673.8 275.7 C 682.4 276.2 690.6 275.6 699.1 275.7 C 703.3 275.7 707.6 275.9 712.0 276.5 C 714.2 276.8 723.7 276.7 727.0 276.3 C 723.8 277.2 739.3 276.9 738.6 276.8 C 740.3 276.5 742.1 276.3 743.9 276.2 C 745.7 276.1 743.4 276.0 741.2 275.9 C 743.2 275.7 745.2 275.6 747.3 275.6 C 749.4 275.6 751.6 275.6 753.8 275.7 C 761.1 276.0 768.8 275.7 775.6 275.3 C 793.9 275.4 844.4 275.0 835.3 274.8 C 825.0 274.6 830.3 274.2 833.0 274.2 C 834.6 274.1 836.8 274.1 839.2 274.1 C 839.2 274.2 839.0 274.4 838.6 274.4 C 843.2 274.6 849.7 275.1 856.0 274.6 C 854.8 274.5 853.3 274.5 852.8 274.3 C 856.0 274.3 853.4 273.8 855.5 273.7 C 861.4 273.6 864.2 273.5 857.4 273.5 C 863.7 273.1 867.7 272.4 873.9 271.8 C 876.2 271.9 875.0 271.8 874.3 272.1 C 878.4 272.3 887.8 272.2 888.7 272.4 C 889.6 272.7 863.1 272.5 867.8 272.9 C 869.7 273.0 873.7 272.9 875.2 273.1 C 871.9 273.1 867.8 273.1 865.6 273.3 C 867.9 273.4 871.2 273.4 873.0 273.5 C 870.8 273.5 869.2 273.6 868.6 273.7 C 871.8 273.7 874.3 273.8 878.2 273.8 C 879.9 273.6 876.7 273.4 880.4 273.4 C 881.1 273.2 878.0 273.3 878.2 273.1 C 881.2 273.0 887.1 273.0 888.6 272.9 C 890.0 272.8 885.0 272.9 884.9 272.8 C 896.4 272.6 909.4 272.5 913.5 272.4 C 917.6 272.3 913.7 272.3 912.0 272.2 C 916.8 272.0 920.3 272.0 925.9 272.0 C 929.5 271.9 928.1 271.9 926.8 271.8 C 927.7 271.7 928.6 271.7 929.1 271.6 C 929.5 271.6 930.5 271.6 931.2 271.5 C 929.0 271.4 924.9 271.5 923.1 271.3 C 926.4 271.0 934.3 271.3 937.2 271.0 C 932.6 270.7 927.7 270.8 922.6 270.7 C 932.6 270.5 942.8 271.4 950.8 270.6 C 949.4 270.5 948.7 270.3 947.6 270.1 C 950.6 270.4 955.1 270.7 957.9 270.1 C 959.4 270.1 962.3 269.9 965.3 269.8 C 960.1 269.7 956.6 269.6 953.0 269.8 C 953.0 269.7 953.4 269.6 954.0 269.5 C 945.8 268.9 941.2 270.1 935.4 270.3 C 934.9 270.3 934.5 270.2 934.0 270.2 C 932.1 269.8 938.7 269.9 939.4 269.7 C 930.8 269.5 921.4 269.8 917.2 269.4 C 927.4 269.2 936.4 269.4 944.1 269.0 C 942.1 268.5 934.4 268.8 930.7 268.6 C 947.4 268.1 949.1 268.1 950.5 268.0 C 949.2 268.0 947.9 268.0 946.6 267.9 C 946.9 267.8 947.3 267.8 947.6 267.7 C 954.9 267.6 963.6 267.7 963.1 267.5 C 962.8 267.4 956.1 267.3 949.0 267.3 C 949.7 267.1 950.5 266.9 951.2 266.7 C 959.5 266.7 969.0 265.9 977.3 266.2 C 975.9 265.8 976.6 265.8 978.3 265.6 C 975.7 265.3 972.0 265.3 969.2 265.1 C 970.2 265.0 971.9 265.1 972.4 264.9 C 971.0 264.8 968.8 264.8 968.1 264.5 C 972.1 264.4 976.3 264.3 980.5 264.2 C 981.3 263.8 978.7 264.1 978.9 263.9 C 982.8 263.7 988.3 263.9 991.2 263.5 C 987.9 263.2 981.4 263.5 979.4 263.3 C 980.7 263.1 982.0 263.0 983.4 262.9 C 986.0 262.8 987.3 262.8 984.3 262.6 C 982.7 262.5 982.7 262.5 983.1 262.4 C 985.0 262.2 991.4 262.2 991.2 261.6 C 989.6 261.6 983.2 261.6 981.6 261.3 C 982.8 260.8 986.0 261.1 986.4 260.7 C 979.3 260.9 979.5 260.7 977.8 260.9 C 978.5 261.0 980.6 260.9 980.5 261.1 C 976.1 261.1 971.8 261.1 967.3 261.1 C 967.3 261.1 967.3 261.1 967.3 261.1 C 967.3 261.1 967.3 261.1 967.3 261.1 C 967.3 261.1 967.3 261.1 967.3 261.1 C 967.7 260.8 967.5 260.4 967.1 260.2 C 969.0 260.2 971.0 260.1 974.6 260.2 C 973.6 259.6 970.3 259.7 967.3 259.8 C 967.4 259.8 967.4 259.7 967.4 259.6 C 972.3 259.6 979.8 259.4 984.8 259.1 C 982.5 259.0 974.1 259.0 968.3 259.1 C 968.5 259.0 968.7 258.9 968.9 258.8 C 961.7 258.9 953.2 258.4 945.1 258.6 C 949.0 257.9 953.6 258.5 958.6 258.3 C 960.9 258.2 963.1 258.0 965.3 257.8 C 971.7 257.9 990.7 258.0 992.9 257.7 C 995.3 257.4 976.0 257.4 975.9 257.3 C 975.8 257.1 984.8 256.9 980.5 257.0 C 978.3 257.0 973.5 257.1 970.0 257.1 C 969.9 256.8 969.8 256.4 969.7 256.1 C 972.7 256.1 976.3 255.9 976.5 256.6 C 978.0 256.5 981.1 256.8 981.6 256.4 C 981.1 256.4 980.3 256.4 980.3 256.3 C 981.0 256.2 982.1 256.3 982.2 256.1 C 978.5 256.0 973.5 255.9 969.5 255.9 C 969.1 255.7 968.8 255.6 968.4 255.4 C 968.5 255.3 971.6 255.2 974.3 255.1 C 977.1 255.0 971.3 254.9 966.6 254.9 C 965.9 254.7 965.1 254.6 964.4 254.4 C 966.0 254.4 967.8 254.4 970.1 254.4 C 972.6 254.1 972.6 253.8 975.1 253.6 C 970.4 253.5 964.7 253.4 960.1 253.6 C 958.4 253.2 956.7 252.9 955.0 252.6 C 958.8 252.5 962.3 252.2 964.4 252.0 C 966.1 252.0 967.9 252.0 968.5 251.8 C 966.9 251.7 971.0 251.6 970.4 251.2 C 968.2 251.6 963.7 251.4 962.1 252.0 C 958.5 252.0 954.7 251.9 951.3 252.0 C 950.8 251.9 950.4 251.9 949.9 251.8 C 952.9 251.8 955.6 251.7 958.7 251.5 C 957.3 250.9 948.8 250.9 942.6 251.2 C 930.0 250.8 917.3 252.9 904.7 253.2 C 904.2 253.2 903.5 253.2 902.7 253.1 C 901.8 252.9 900.9 252.8 899.9 252.6 C 902.9 252.6 905.6 252.5 907.8 252.4 C 898.9 251.9 920.5 252.0 921.9 251.6 C 907.5 250.9 880.5 251.4 863.9 250.9 C 867.9 250.9 869.2 250.8 864.9 250.7 C 863.7 250.6 862.6 250.6 861.4 250.6 C 878.3 250.2 895.9 251.1 909.4 250.2 C 901.4 250.1 889.2 250.4 885.9 249.9 C 888.2 249.9 891.7 250.0 892.1 249.8 C 888.0 249.3 874.2 249.9 870.2 249.4 C 890.0 249.1 916.8 249.5 931.3 248.7 C 909.3 249.0 879.6 248.5 860.8 249.2 C 864.0 249.2 864.1 249.4 862.4 249.6 C 856.5 249.7 850.7 249.8 844.6 249.9 C 843.4 249.8 843.8 249.8 846.7 249.6 C 849.1 249.5 850.5 249.5 851.3 249.3 C 849.7 249.2 831.0 249.3 845.9 249.1 C 860.6 249.0 886.2 248.7 871.2 248.6 C 856.3 248.4 850.4 248.1 858.5 247.9 C 866.7 247.8 892.6 247.2 883.9 247.2 C 875.3 247.1 857.1 246.8 846.8 246.9 C 836.4 247.0 853.8 248.3 838.6 248.4 C 823.4 248.4 836.0 247.9 833.1 247.9 C 828.5 248.0 820.1 247.9 812.1 247.9 C 806.4 247.8 799.2 247.9 795.6 247.6 C 795.8 247.4 813.0 247.6 806.2 247.3 C 789.5 247.3 770.9 247.2 778.6 247.8 C 768.3 247.7 760.7 247.8 754.3 247.9 C 744.3 247.3 732.7 247.4 731.4 247.3 C 729.9 247.1 702.6 248.2 692.3 246.6 C 691.6 246.7 673.2 247.1 671.6 247.5 C 654.1 247.0 656.6 246.6 639.3 246.8 C 624.9 247.0 620.5 247.3 618.1 247.3 C 602.9 247.6 603.0 247.0 595.6 249.2 C 593.4 249.9 589.9 249.9 588.7 251.0 C 586.4 253.2 585.3 256.0 586.0 259.5 C 586.0 259.5 586.0 259.5 586.0 259.5 Z M 965.3 261.9 C 968.0 262.0 972.8 261.9 975.6 262.1 C 972.4 262.6 968.4 262.4 964.3 262.2 C 964.6 262.1 965.0 262.0 965.3 261.9 C 965.3 261.9 965.3 261.9 965.3 261.9 Z M 944.5 255.1 C 946.3 255.1 948.5 255.5 950.5 255.4 C 952.4 255.4 954.4 255.4 957.3 255.2 C 957.1 255.0 952.3 254.8 948.6 254.8 C 948.6 254.7 948.6 254.6 948.6 254.5 C 950.4 254.3 952.5 254.1 955.1 254.1 C 955.9 254.2 956.8 254.2 957.7 254.2 C 957.7 254.5 956.4 254.6 955.9 254.6 C 956.5 254.9 958.8 255.1 961.7 255.2 C 962.0 255.2 962.4 255.3 962.7 255.4 C 963.1 255.7 960.9 255.9 963.4 255.8 C 961.7 256.2 957.2 255.9 954.4 256.0 C 957.5 255.2 945.7 255.7 942.8 255.4 C 943.4 255.3 944.0 255.2 944.5 255.1 Z M 922.0 270.6 C 920.4 270.6 918.8 270.6 917.2 270.5 C 919.5 270.5 921.3 270.5 923.0 270.4 C 922.6 270.5 922.3 270.5 922.0 270.6 Z M 789.7 274.1 C 799.4 273.1 819.6 274.0 820.9 273.5 C 823.0 273.5 825.0 273.6 827.1 273.6 C 813.7 273.7 799.4 273.9 789.7 274.1 C 789.7 274.1 789.7 274.1 789.7 274.1 Z M 823.7 249.6 C 824.5 249.6 824.2 249.7 822.3 249.8 C 811.9 250.0 805.7 250.4 812.3 250.4 C 817.9 250.4 830.0 250.5 826.5 250.6 C 821.7 250.7 817.0 250.8 812.1 250.8 C 808.4 250.7 804.7 250.3 801.0 249.8 C 809.0 249.7 816.7 249.7 823.7 249.6 C 823.7 249.6 823.7 249.6 823.7 249.6 Z M 796.5 249.2 C 799.4 249.2 802.8 249.2 806.3 249.3 C 803.3 249.3 800.3 249.3 797.2 249.4 C 797.0 249.3 796.7 249.2 796.5 249.2 Z M 792.8 248.7 C 798.7 248.6 804.5 248.7 798.7 248.8 C 797.3 248.9 796.0 248.9 794.6 248.9 C 794.1 248.8 793.5 248.7 792.8 248.7 Z M 789.2 248.4 C 789.3 248.6 790.3 248.7 792.3 248.7 C 788.3 248.7 780.3 248.9 780.7 248.5 C 783.4 248.5 786.3 248.4 789.2 248.4 C 789.2 248.4 789.2 248.4 789.2 248.4 Z M 783.3 274.7 C 785.9 274.8 788.1 274.8 784.1 274.9 C 782.5 275.0 781.0 275.0 779.4 275.1 C 780.7 274.9 782.0 274.8 783.3 274.7 Z M 918.1 249.7 C 917.0 249.8 912.8 249.7 910.4 249.9 C 910.1 251.0 919.7 250.2 918.1 249.7 C 918.1 249.7 918.1 249.7 918.1 249.7 Z M 933.8 249.2 C 932.7 249.3 928.6 249.3 926.1 249.4 C 925.8 250.5 935.4 249.7 933.8 249.2 C 933.8 249.2 933.8 249.2 933.8 249.2 Z M 692.3 246.6 C 692.3 246.6 692.3 246.6 692.3 246.6 C 692.3 246.6 692.3 246.6 692.3 246.6 C 692.3 246.6 692.3 246.6 692.3 246.6 Z M 692.3 246.6 " fill="#DBA486"></path></g></g></g><g opacity="0.25"><g><clipPath id="clip-92"><path d="M 538.0 92.0 L 985.0 92.0 L 985.0 127.0 L 538.0 127.0 Z M 538.0 92.0 "></path></clipPath><g clip-path="url(#clip-92)"><path d="M 931.3 116.3 C 932.1 116.5 935.8 116.6 935.8 116.2 C 934.5 116.3 931.6 116.0 931.3 116.3 C 931.3 116.3 931.3 116.3 931.3 116.3 Z M 924.0 116.5 C 925.3 116.8 928.2 116.6 929.1 116.4 C 927.6 116.5 924.5 116.2 924.0 116.5 C 924.0 116.5 924.0 116.5 924.0 116.5 Z M 935.2 115.3 C 937.1 115.2 940.7 115.5 941.6 115.1 C 939.7 115.2 936.1 114.9 935.2 115.3 C 935.2 115.3 935.2 115.3 935.2 115.3 Z M 832.3 122.5 C 833.2 122.7 836.8 122.8 836.8 122.4 C 835.5 122.5 832.6 122.2 832.3 122.5 C 832.3 122.5 832.3 122.5 832.3 122.5 Z M 852.7 121.5 C 854.0 121.8 856.9 121.6 857.8 121.4 C 856.3 121.5 853.2 121.2 852.7 121.5 C 852.7 121.5 852.7 121.5 852.7 121.5 Z M 864.5 121.7 C 867.2 121.7 870.2 121.7 869.6 121.3 C 868.7 121.6 864.8 121.2 864.5 121.7 C 864.5 121.7 864.5 121.7 864.5 121.7 Z M 932.8 98.0 C 929.9 98.1 927.8 97.8 925.8 97.8 C 915.8 97.9 930.9 98.7 932.8 98.0 C 932.8 98.0 932.8 98.0 932.8 98.0 Z M 885.3 120.3 C 883.3 120.3 881.7 120.4 880.8 120.7 C 882.6 120.6 885.2 120.8 885.3 120.3 C 885.3 120.3 885.3 120.3 885.3 120.3 Z M 902.4 119.9 C 902.8 120.2 913.0 120.0 918.6 119.7 C 913.8 119.6 901.9 119.7 902.4 119.9 C 902.4 119.9 902.4 119.9 902.4 119.9 Z M 909.1 97.8 C 902.5 98.1 892.0 98.1 887.2 98.3 C 882.4 98.5 895.6 98.7 907.8 98.6 C 919.9 98.5 909.9 97.7 914.9 97.5 C 919.8 97.3 910.1 97.1 905.2 97.3 C 900.3 97.6 908.5 97.5 909.1 97.8 C 909.1 97.8 909.1 97.8 909.1 97.8 Z M 909.4 96.3 C 911.7 96.3 913.8 96.2 915.2 96.0 C 912.7 95.8 910.3 95.7 909.4 96.3 C 909.4 96.3 909.4 96.3 909.4 96.3 Z M 556.8 107.2 C 557.7 111.5 563.4 115.0 569.7 117.5 C 571.2 118.1 572.8 118.6 574.4 119.2 C 585.9 121.1 597.5 122.1 609.1 122.5 C 611.4 122.6 613.7 122.7 616.0 122.8 C 623.1 123.1 630.3 123.2 637.4 123.3 C 639.8 123.3 642.2 123.3 644.6 123.3 C 653.2 123.9 661.5 123.3 669.9 123.4 C 674.1 123.4 678.4 123.6 682.9 124.2 C 685.1 124.5 694.5 124.4 697.8 124.0 C 694.6 124.9 710.1 124.5 709.4 124.5 C 711.2 124.2 713.0 124.0 714.8 123.9 C 716.6 123.8 714.3 123.6 712.0 123.5 C 714.0 123.4 716.0 123.3 718.1 123.3 C 720.3 123.3 722.4 123.3 724.6 123.3 C 731.9 123.7 739.7 123.4 746.4 123.0 C 764.8 123.1 815.2 122.7 806.1 122.5 C 795.8 122.2 801.1 121.9 803.9 121.8 C 805.5 121.8 807.6 121.8 810.1 121.7 C 810.0 121.9 809.8 122.0 809.4 122.1 C 814.0 122.2 820.5 122.8 826.8 122.3 C 825.7 122.2 824.1 122.2 823.6 122.0 C 826.8 122.0 824.3 121.5 826.4 121.4 C 832.2 121.3 835.0 121.1 828.2 121.2 C 834.5 120.8 838.5 120.1 844.7 119.5 C 847.1 119.6 845.8 119.5 845.1 119.7 C 849.2 120.0 858.7 119.9 859.5 120.1 C 860.4 120.4 834.0 120.2 838.7 120.5 C 840.6 120.7 844.6 120.6 846.1 120.7 C 842.7 120.8 838.6 120.8 836.5 121.0 C 838.8 121.0 842.1 121.0 843.9 121.2 C 841.6 121.2 840.1 121.2 839.4 121.4 C 842.7 121.4 845.1 121.5 849.0 121.5 C 850.8 121.3 847.6 121.1 851.2 121.1 C 851.9 120.9 848.8 121.0 849.0 120.8 C 852.0 120.7 857.9 120.7 859.4 120.6 C 860.8 120.4 855.8 120.6 855.7 120.4 C 867.2 120.3 880.3 120.2 884.3 120.1 C 888.4 120.0 884.6 120.0 882.9 119.9 C 887.6 119.7 891.2 119.7 896.8 119.7 C 900.4 119.6 899.0 119.5 897.6 119.4 C 898.5 119.4 899.4 119.4 899.9 119.3 C 900.3 119.3 901.4 119.2 902.1 119.1 C 899.9 119.1 895.8 119.1 894.0 119.0 C 897.3 118.7 905.1 119.0 908.0 118.7 C 903.4 118.4 898.5 118.5 893.4 118.3 C 903.4 118.1 913.6 119.1 921.6 118.3 C 920.2 118.2 919.6 118.0 918.4 117.8 C 921.4 118.0 926.0 118.3 928.7 117.8 C 930.2 117.7 933.2 117.6 936.2 117.5 C 930.9 117.4 927.4 117.3 923.8 117.4 C 923.9 117.4 924.2 117.3 924.8 117.2 C 916.7 116.6 912.0 117.8 906.2 118.0 C 905.7 117.9 905.3 117.9 904.8 117.9 C 903.0 117.5 909.6 117.6 910.2 117.3 C 901.6 117.2 892.3 117.5 888.0 117.0 C 898.3 116.9 907.3 117.1 914.9 116.7 C 913.0 116.2 905.2 116.5 901.6 116.3 C 918.3 115.8 920.0 115.8 921.3 115.7 C 920.1 115.7 918.8 115.6 917.4 115.6 C 917.8 115.5 918.1 115.4 918.4 115.4 C 925.8 115.3 934.4 115.3 934.0 115.2 C 933.7 115.1 926.9 115.0 919.8 115.0 C 920.6 114.8 921.3 114.6 922.1 114.4 C 930.4 114.3 939.8 113.6 948.1 113.9 C 946.7 113.5 947.4 113.5 949.2 113.3 C 946.6 113.0 942.8 113.0 940.0 112.8 C 941.0 112.7 942.7 112.7 943.3 112.6 C 941.9 112.4 939.7 112.5 939.0 112.2 C 942.9 112.1 947.1 112.0 951.3 111.9 C 952.1 111.5 949.5 111.8 949.7 111.5 C 953.6 111.4 959.2 111.6 962.0 111.2 C 958.7 110.9 952.3 111.2 950.2 110.9 C 951.5 110.8 952.8 110.7 954.2 110.6 C 956.9 110.5 958.2 110.4 955.2 110.3 C 953.5 110.2 953.6 110.1 954.0 110.1 C 955.8 109.8 962.2 109.9 962.0 109.3 C 960.4 109.3 954.0 109.3 952.4 108.9 C 953.6 108.5 956.9 108.7 957.2 108.4 C 950.1 108.5 950.4 108.3 948.6 108.6 C 949.4 108.7 951.4 108.6 951.3 108.8 C 947.0 108.8 942.6 108.8 938.1 108.8 C 938.1 108.8 938.1 108.8 938.1 108.8 C 938.1 108.8 938.1 108.8 938.1 108.8 C 938.1 108.8 938.1 108.8 938.1 108.8 C 938.5 108.5 938.4 108.1 938.0 107.9 C 939.9 107.9 941.8 107.8 945.4 107.9 C 944.5 107.3 941.2 107.3 938.2 107.5 C 938.2 107.4 938.2 107.3 938.2 107.3 C 943.1 107.3 950.6 107.1 955.6 106.8 C 953.3 106.7 944.9 106.7 939.2 106.8 C 939.3 106.7 939.5 106.5 939.7 106.4 C 932.5 106.6 924.1 106.0 916.0 106.3 C 919.9 105.6 924.4 106.1 929.5 106.0 C 931.8 105.9 933.9 105.7 936.2 105.4 C 942.5 105.6 961.6 105.7 963.7 105.4 C 966.1 105.1 946.8 105.1 946.7 104.9 C 946.6 104.8 955.6 104.6 951.4 104.6 C 949.2 104.7 944.3 104.7 940.9 104.8 C 940.7 104.5 940.6 104.1 940.5 103.8 C 943.5 103.7 947.1 103.6 947.3 104.2 C 948.8 104.2 952.0 104.4 952.4 104.1 C 951.9 104.1 951.1 104.1 951.1 103.9 C 951.9 103.9 952.9 104.0 953.1 103.8 C 949.4 103.7 944.3 103.5 940.3 103.6 C 940.0 103.4 939.6 103.2 939.3 103.1 C 939.3 103.0 942.5 102.9 945.2 102.8 C 948.0 102.7 942.1 102.5 937.4 102.6 C 936.7 102.4 936.0 102.2 935.2 102.1 C 936.8 102.1 938.7 102.1 940.9 102.0 C 943.5 101.8 943.4 101.5 946.0 101.3 C 941.2 101.1 935.5 101.1 930.9 101.2 C 929.2 100.9 927.5 100.6 925.8 100.3 C 929.6 100.1 933.2 99.9 935.3 99.6 C 937.0 99.7 938.7 99.7 939.3 99.5 C 937.8 99.4 941.9 99.3 941.3 98.9 C 939.0 99.3 934.5 99.1 932.9 99.6 C 929.4 99.6 925.5 99.6 922.1 99.6 C 921.7 99.6 921.2 99.5 920.8 99.5 C 923.7 99.4 926.4 99.4 929.5 99.2 C 928.1 98.6 919.6 98.6 913.4 98.9 C 900.9 98.5 888.1 100.6 875.6 100.9 C 875.1 100.9 874.3 100.8 873.5 100.8 C 872.6 100.6 871.7 100.4 870.8 100.3 C 873.8 100.2 876.5 100.2 878.7 100.0 C 869.8 99.6 891.4 99.7 892.8 99.3 C 878.4 98.6 851.4 99.1 834.7 98.6 C 838.7 98.6 840.0 98.5 835.7 98.4 C 834.6 98.3 833.4 98.3 832.2 98.2 C 849.1 97.8 866.8 98.8 880.2 97.9 C 872.2 97.8 860.1 98.1 856.7 97.6 C 859.1 97.6 862.5 97.6 863.0 97.4 C 858.8 97.0 845.1 97.6 841.0 97.1 C 860.8 96.8 887.6 97.2 902.2 96.4 C 880.2 96.7 850.5 96.2 831.6 96.8 C 834.9 96.9 834.9 97.1 833.2 97.3 C 827.3 97.4 821.5 97.5 815.5 97.6 C 814.3 97.5 814.7 97.5 817.6 97.3 C 820.0 97.2 821.4 97.2 822.1 97.0 C 820.5 96.9 801.9 96.9 816.7 96.8 C 831.5 96.6 857.0 96.4 842.1 96.2 C 827.1 96.1 821.2 95.8 829.4 95.6 C 837.6 95.5 863.4 94.9 854.8 94.8 C 846.1 94.8 827.9 94.4 817.6 94.5 C 807.3 94.6 824.6 96.0 809.4 96.1 C 794.2 96.1 806.9 95.6 804.0 95.6 C 799.4 95.6 790.9 95.6 782.9 95.6 C 777.3 95.5 770.0 95.5 766.4 95.3 C 766.7 95.1 783.8 95.2 777.0 95.0 C 760.4 95.0 741.8 94.9 749.4 95.5 C 739.1 95.4 731.6 95.4 725.1 95.6 C 715.1 95.0 703.5 95.1 702.2 94.9 C 700.7 94.7 673.4 95.9 663.2 94.3 C 662.4 94.3 644.0 94.7 642.5 95.2 C 625.0 94.7 627.4 94.3 610.2 94.5 C 595.8 94.6 591.4 94.9 588.9 95.0 C 573.8 95.3 573.9 94.7 566.4 96.9 C 564.2 97.5 560.7 97.6 559.6 98.6 C 557.2 100.8 556.1 103.6 556.8 107.2 C 556.8 107.2 556.8 107.2 556.8 107.2 Z M 936.1 109.5 C 938.8 109.7 943.6 109.6 946.5 109.8 C 943.2 110.2 939.2 110.1 935.2 109.9 C 935.5 109.8 935.8 109.7 936.1 109.5 C 936.1 109.5 936.1 109.5 936.1 109.5 Z M 915.4 102.8 C 917.2 102.8 919.4 103.2 921.4 103.1 C 923.3 103.0 925.3 103.1 928.2 102.9 C 927.9 102.7 923.1 102.4 919.4 102.5 C 919.4 102.4 919.4 102.3 919.4 102.1 C 921.2 102.0 923.4 101.8 925.9 101.8 C 926.8 101.9 927.6 101.9 928.5 101.9 C 928.6 102.1 927.2 102.3 926.7 102.2 C 927.4 102.6 929.6 102.8 932.5 102.9 C 932.9 102.9 933.2 103.0 933.6 103.1 C 934.0 103.4 931.8 103.6 934.2 103.5 C 932.5 103.9 928.0 103.6 925.2 103.7 C 928.4 102.9 916.6 103.4 913.7 103.1 C 914.2 103.0 914.8 102.9 915.4 102.8 Z M 892.8 118.3 C 891.2 118.2 889.6 118.2 888.0 118.2 C 890.4 118.2 892.2 118.2 893.8 118.1 C 893.5 118.2 893.2 118.2 892.8 118.3 Z M 760.6 121.8 C 770.2 120.8 790.4 121.7 791.7 121.1 C 793.8 121.2 795.9 121.3 798.0 121.3 C 784.6 121.4 770.2 121.5 760.6 121.8 C 760.6 121.8 760.6 121.8 760.6 121.8 Z M 794.6 97.3 C 795.4 97.3 795.0 97.4 793.1 97.5 C 782.7 97.7 776.6 98.0 783.1 98.0 C 788.7 98.0 800.9 98.2 797.3 98.3 C 792.6 98.4 787.8 98.4 782.9 98.5 C 779.2 98.4 775.6 98.0 771.8 97.5 C 779.9 97.4 787.5 97.4 794.6 97.3 C 794.6 97.3 794.6 97.3 794.6 97.3 Z M 767.4 96.8 C 770.2 96.9 773.6 96.9 777.1 97.0 C 774.1 97.0 771.1 97.0 768.0 97.0 C 767.8 97.0 767.6 96.9 767.4 96.8 Z M 763.7 96.3 C 769.5 96.3 775.4 96.4 769.5 96.5 C 768.2 96.5 766.8 96.6 765.5 96.6 C 764.9 96.5 764.3 96.4 763.7 96.3 Z M 760.1 96.1 C 760.2 96.2 761.1 96.4 763.1 96.4 C 759.1 96.4 751.2 96.5 751.6 96.2 C 754.2 96.2 757.1 96.1 760.1 96.1 C 760.1 96.1 760.1 96.1 760.1 96.1 Z M 754.2 122.4 C 756.7 122.4 759.0 122.5 754.9 122.6 C 753.3 122.7 751.8 122.7 750.2 122.7 C 751.5 122.6 752.8 122.5 754.2 122.4 Z M 889.0 97.4 C 887.9 97.4 883.7 97.4 881.2 97.6 C 881.0 98.7 890.5 97.9 889.0 97.4 C 889.0 97.4 889.0 97.4 889.0 97.4 Z M 904.6 96.9 C 903.6 97.0 899.4 96.9 896.9 97.1 C 896.7 98.2 906.2 97.4 904.6 96.9 C 904.6 96.9 904.6 96.9 904.6 96.9 Z M 663.2 94.3 C 663.2 94.3 663.2 94.3 663.2 94.3 C 663.2 94.3 663.2 94.3 663.2 94.3 C 663.2 94.3 663.2 94.3 663.2 94.3 Z M 663.2 94.3 " fill="#DBA486"></path></g></g></g></g></svg>