<?xml version="1.0" encoding="UTF-8" standalone="no"?><svg xmlns="http://www.w3.org/2000/svg" xmlns:xlink="http://www.w3.org/1999/xlink" clip-rule="evenodd" stroke-miterlimit="4.00" viewBox="0 0 1024 768"><desc>SVG generated by Keynote</desc><defs></defs><g transform="matrix(1.00, 0.00, -0.00, -1.00, 0.0, 768.0)"><path d="M 0.0 768.0 L 1024.0 768.0 L 1024.0 0.0 L 0.0 0.0 Z M 0.0 768.0 " fill="#FEFFFE"></path><g><clipPath id="clip-855"><path d="M 31.0 741.0 L 993.0 741.0 L 993.0 98.0 L 31.0 98.0 Z M 31.2 740.8 "></path></clipPath><g clip-path="url(#clip-855)"><g><clipPath id="clip-856"><path d="M -460.0 98.0 L 993.0 98.0 L 993.0 741.0 L -460.0 741.0 Z M -460.0 98.0 "></path></clipPath><g clip-path="url(#clip-856)"><image xlink:href="../../8155E2E4-F9DD-4AFE-9365-BD49516F4E69/assets/968D6693C436FDA75904368F169CCDE5.png" width="2618.00" height="1158.00" transform="matrix(0.56, 0.00, -0.00, -0.56, -460.0, 741.0)"></image></g></g></g></g><g><clipPath id="clip-857"><path d="M 636.0 1.0 L 1018.0 1.0 L 1018.0 34.0 L 636.0 34.0 Z M 636.0 1.0 "></path></clipPath><g clip-path="url(#clip-857)"><image xlink:href="../../82D84438-1A16-43F1-82F3-2D02D499BC1F/assets/A986D91F4AB9C1E059CD184CBAEEC0E6.png" width="764.00" height="66.00" transform="matrix(0.50, 0.00, -0.00, -0.50, 636.0, 34.0)"></image></g></g><g><clipPath id="clip-858"><path d="M 6.0 32.0 L 512.0 32.0 L 512.0 4.0 L 6.0 4.0 Z M 5.8 32.4 "></path></clipPath><g clip-path="url(#clip-858)"><g><clipPath id="clip-859"><path d="M -9.0 -55.0 L 1015.0 -55.0 L 1015.0 155.0 L -9.0 155.0 Z M -9.0 -55.0 "></path></clipPath><g clip-path="url(#clip-859)"><image xlink:href="../../82D84438-1A16-43F1-82F3-2D02D499BC1F/assets/1A32AB7D167396067FFF166E56BDF0ED.png" width="2238.00" height="458.00" transform="matrix(0.46, 0.00, -0.00, -0.46, -9.0, 155.0)"></image></g></g></g></g></g></svg>