<?xml version="1.0" encoding="UTF-8" standalone="no"?><svg xmlns="http://www.w3.org/2000/svg" xmlns:xlink="http://www.w3.org/1999/xlink" clip-rule="evenodd" stroke-miterlimit="4.00" viewBox="0 0 1024 768"><desc>SVG generated by Keynote</desc><defs></defs><g transform="matrix(1.00, 0.00, -0.00, -1.00, 0.0, 768.0)"><path d="M 0.0 768.0 L 1024.0 768.0 L 1024.0 0.0 L 0.0 0.0 Z M 0.0 768.0 " fill="#FEFFFE"></path><path d="M 0.0 0.0 L 934.5 0.0 " fill="none" stroke="#9A9A9A" stroke-width="1.00" transform="matrix(1.00, 0.00, 0.00, -1.00, 45.0, 613.0)"></path><text xml:space="preserve" font-family="HelveticaNeue-Light" font-size="28.1" fill="#000000" transform="matrix(1.00, 0.00, -0.00, -1.00, 49.0, 710.0)">O</text><text xml:space="preserve" font-family="HelveticaNeue-Light" font-size="28.1" fill="#000000" transform="matrix(1.00, 0.00, -0.00, -1.00, 69.9, 710.0)">C</text><text xml:space="preserve" font-family="HelveticaNeue-Light" font-size="28.1" fill="#000000" transform="matrix(1.00, 0.00, -0.00, -1.00, 89.7, 710.0)">T</text><text xml:space="preserve" font-family="HelveticaNeue-Light" font-size="28.1" fill="#000000" transform="matrix(1.00, 0.00, -0.00, -1.00, 105.3, 710.0)">E</text><text xml:space="preserve" font-family="HelveticaNeue-Light" font-size="28.1" fill="#000000" transform="matrix(1.00, 0.00, -0.00, -1.00, 122.0, 710.0)">T</text><text xml:space="preserve" font-family="HelveticaNeue-Light" font-size="28.1" fill="#000000" transform="matrix(1.00, 0.00, -0.00, -1.00, 134.0, 710.0)">-</text><text xml:space="preserve" font-family="HelveticaNeue-Light" font-size="28.1" fill="#000000" transform="matrix(1.00, 0.00, -0.00, -1.00, 144.4, 710.0)">C</text><text xml:space="preserve" font-family="HelveticaNeue-Light" font-size="28.1" fill="#000000" transform="matrix(1.00, 0.00, -0.00, -1.00, 164.2, 710.0)">Y</text><text xml:space="preserve" font-family="HelveticaNeue-Light" font-size="28.1" fill="#000000" transform="matrix(1.00, 0.00, -0.00, -1.00, 178.8, 710.0)">:</text><text xml:space="preserve" font-family="HelveticaNeue-Light" font-size="28.1" fill="#000000" transform="matrix(1.00, 0.00, -0.00, -1.00, 186.7, 710.0)"> </text><text xml:space="preserve" font-family="HelveticaNeue-Light" font-size="28.1" fill="#000000" transform="matrix(1.00, 0.00, -0.00, -1.00, 194.5, 710.0)">a</text><text xml:space="preserve" font-family="HelveticaNeue-Light" font-size="28.1" fill="#000000" transform="matrix(1.00, 0.00, -0.00, -1.00, 209.1, 710.0)"> </text><text xml:space="preserve" font-family="HelveticaNeue-Light" font-size="28.1" fill="#000000" transform="matrix(1.00, 0.00, -0.00, -1.00, 216.9, 710.0)">p</text><text xml:space="preserve" font-family="HelveticaNeue-Light" font-size="28.1" fill="#000000" transform="matrix(1.00, 0.00, -0.00, -1.00, 233.1, 710.0)">h</text><text xml:space="preserve" font-family="HelveticaNeue-Light" font-size="28.1" fill="#000000" transform="matrix(1.00, 0.00, -0.00, -1.00, 248.2, 710.0)">a</text><text xml:space="preserve" font-family="HelveticaNeue-Light" font-size="28.1" fill="#000000" transform="matrix(1.00, 0.00, -0.00, -1.00, 262.8, 710.0)">s</text><text xml:space="preserve" font-family="HelveticaNeue-Light" font-size="28.1" fill="#000000" transform="matrix(1.00, 0.00, -0.00, -1.00, 276.3, 710.0)">e</text><text xml:space="preserve" font-family="HelveticaNeue-Light" font-size="28.1" fill="#000000" transform="matrix(1.00, 0.00, -0.00, -1.00, 290.9, 710.0)"> </text><text xml:space="preserve" font-family="HelveticaNeue-Light" font-size="28.1" fill="#000000" transform="matrix(1.00, 0.00, -0.00, -1.00, 298.7, 710.0)">I</text><text xml:space="preserve" font-family="HelveticaNeue-Light" font-size="28.1" fill="#000000" transform="matrix(1.00, 0.00, -0.00, -1.00, 305.0, 710.0)">I</text><text xml:space="preserve" font-family="HelveticaNeue-Light" font-size="28.1" fill="#000000" transform="matrix(1.00, 0.00, -0.00, -1.00, 311.2, 710.0)"> </text><text xml:space="preserve" font-family="HelveticaNeue-Light" font-size="28.1" fill="#000000" transform="matrix(1.00, 0.00, -0.00, -1.00, 319.1, 710.0)">s</text><text xml:space="preserve" font-family="HelveticaNeue-Light" font-size="28.1" fill="#000000" transform="matrix(1.00, 0.00, -0.00, -1.00, 332.6, 710.0)">t</text><text xml:space="preserve" font-family="HelveticaNeue-Light" font-size="28.1" fill="#000000" transform="matrix(1.00, 0.00, -0.00, -1.00, 340.9, 710.0)">u</text><text xml:space="preserve" font-family="HelveticaNeue-Light" font-size="28.1" fill="#000000" transform="matrix(1.00, 0.00, -0.00, -1.00, 356.0, 710.0)">d</text><text xml:space="preserve" font-family="HelveticaNeue-Light" font-size="28.1" fill="#000000" transform="matrix(1.00, 0.00, -0.00, -1.00, 372.2, 710.0)">y</text><text xml:space="preserve" font-family="HelveticaNeue-Light" font-size="28.1" fill="#000000" transform="matrix(1.00, 0.00, -0.00, -1.00, 385.2, 710.0)"> </text><text xml:space="preserve" font-family="HelveticaNeue-Light" font-size="28.1" fill="#000000" transform="matrix(1.00, 0.00, -0.00, -1.00, 393.0, 710.0)">t</text><text xml:space="preserve" font-family="HelveticaNeue-Light" font-size="28.1" fill="#000000" transform="matrix(1.00, 0.00, -0.00, -1.00, 401.4, 710.0)">o</text><text xml:space="preserve" font-family="HelveticaNeue-Light" font-size="28.1" fill="#000000" transform="matrix(1.00, 0.00, -0.00, -1.00, 417.0, 710.0)"> </text><text xml:space="preserve" font-family="HelveticaNeue-Light" font-size="28.1" fill="#000000" transform="matrix(1.00, 0.00, -0.00, -1.00, 424.8, 710.0)">i</text><text xml:space="preserve" font-family="HelveticaNeue-Light" font-size="28.1" fill="#000000" transform="matrix(1.00, 0.00, -0.00, -1.00, 430.0, 710.0)">n</text><text xml:space="preserve" font-family="HelveticaNeue-Light" font-size="28.1" fill="#000000" transform="matrix(1.00, 0.00, -0.00, -1.00, 445.2, 710.0)">v</text><text xml:space="preserve" font-family="HelveticaNeue-Light" font-size="28.1" fill="#000000" transform="matrix(1.00, 0.00, -0.00, -1.00, 458.2, 710.0)">e</text><text xml:space="preserve" font-family="HelveticaNeue-Light" font-size="28.1" fill="#000000" transform="matrix(1.00, 0.00, -0.00, -1.00, 472.8, 710.0)">s</text><text xml:space="preserve" font-family="HelveticaNeue-Light" font-size="28.1" fill="#000000" transform="matrix(1.00, 0.00, -0.00, -1.00, 486.3, 710.0)">t</text><text xml:space="preserve" font-family="HelveticaNeue-Light" font-size="28.1" fill="#000000" transform="matrix(1.00, 0.00, -0.00, -1.00, 494.7, 710.0)">i</text><text xml:space="preserve" font-family="HelveticaNeue-Light" font-size="28.1" fill="#000000" transform="matrix(1.00, 0.00, -0.00, -1.00, 499.9, 710.0)">g</text><text xml:space="preserve" font-family="HelveticaNeue-Light" font-size="28.1" fill="#000000" transform="matrix(1.00, 0.00, -0.00, -1.00, 515.5, 710.0)">a</text><text xml:space="preserve" font-family="HelveticaNeue-Light" font-size="28.1" fill="#000000" transform="matrix(1.00, 0.00, -0.00, -1.00, 530.1, 710.0)">t</text><text xml:space="preserve" font-family="HelveticaNeue-Light" font-size="28.1" fill="#000000" transform="matrix(1.00, 0.00, -0.00, -1.00, 538.4, 710.0)">e</text><text xml:space="preserve" font-family="HelveticaNeue-Light" font-size="28.1" fill="#000000" transform="matrix(1.00, 0.00, -0.00, -1.00, 553.0, 710.0)"> </text><text xml:space="preserve" font-family="HelveticaNeue-Light" font-size="28.1" fill="#000000" transform="matrix(1.00, 0.00, -0.00, -1.00, 560.9, 710.0)">t</text><text xml:space="preserve" font-family="HelveticaNeue-Light" font-size="28.1" fill="#000000" transform="matrix(1.00, 0.00, -0.00, -1.00, 569.2, 710.0)">h</text><text xml:space="preserve" font-family="HelveticaNeue-Light" font-size="28.1" fill="#000000" transform="matrix(1.00, 0.00, -0.00, -1.00, 584.3, 710.0)">e</text><text xml:space="preserve" font-family="HelveticaNeue-Light" font-size="28.1" fill="#000000" transform="matrix(1.00, 0.00, -0.00, -1.00, 598.9, 710.0)"> </text><text xml:space="preserve" font-family="HelveticaNeue-Light" font-size="28.1" fill="#000000" transform="matrix(1.00, 0.00, -0.00, -1.00, 606.7, 710.0)">e</text><text xml:space="preserve" font-family="HelveticaNeue-Light" font-size="28.1" fill="#000000" transform="matrix(1.00, 0.00, -0.00, -1.00, 621.3, 710.0)">f</text><text xml:space="preserve" font-family="HelveticaNeue-Light" font-size="28.1" fill="#000000" transform="matrix(1.00, 0.00, -0.00, -1.00, 628.6, 710.0)">ï¬</text><text xml:space="preserve" font-family="HelveticaNeue-Light" font-size="28.1" fill="#000000" transform="matrix(1.00, 0.00, -0.00, -1.00, 641.1, 710.0)">c</text><text xml:space="preserve" font-family="HelveticaNeue-Light" font-size="28.1" fill="#000000" transform="matrix(1.00, 0.00, -0.00, -1.00, 655.7, 710.0)">a</text><text xml:space="preserve" font-family="HelveticaNeue-Light" font-size="28.1" fill="#000000" transform="matrix(1.00, 0.00, -0.00, -1.00, 670.3, 710.0)">c</text><text xml:space="preserve" font-family="HelveticaNeue-Light" font-size="28.1" fill="#000000" transform="matrix(1.00, 0.00, -0.00, -1.00, 684.9, 710.0)">y</text><text xml:space="preserve" font-family="HelveticaNeue-Light" font-size="28.1" fill="#000000" transform="matrix(1.00, 0.00, -0.00, -1.00, 698.0, 710.0)"> </text><text xml:space="preserve" font-family="HelveticaNeue-Light" font-size="28.1" fill="#000000" transform="matrix(1.00, 0.00, -0.00, -1.00, 705.8, 710.0)">o</text><text xml:space="preserve" font-family="HelveticaNeue-Light" font-size="28.1" fill="#000000" transform="matrix(1.00, 0.00, -0.00, -1.00, 721.4, 710.0)">f</text><text xml:space="preserve" font-family="HelveticaNeue-Light" font-size="28.1" fill="#000000" transform="matrix(1.00, 0.00, -0.00, -1.00, 728.7, 710.0)"> </text><text xml:space="preserve" font-family="HelveticaNeue-Light" font-size="28.1" fill="#000000" transform="matrix(1.00, 0.00, -0.00, -1.00, 736.5, 710.0)">p</text><text xml:space="preserve" font-family="HelveticaNeue-Light" font-size="28.1" fill="#000000" transform="matrix(1.00, 0.00, -0.00, -1.00, 752.7, 710.0)">o</text><text xml:space="preserve" font-family="HelveticaNeue-Light" font-size="28.1" fill="#000000" transform="matrix(1.00, 0.00, -0.00, -1.00, 768.3, 710.0)">s</text><text xml:space="preserve" font-family="HelveticaNeue-Light" font-size="28.1" fill="#000000" transform="matrix(1.00, 0.00, -0.00, -1.00, 781.9, 710.0)">t</text><text xml:space="preserve" font-family="HelveticaNeue-Light" font-size="28.1" fill="#000000" transform="matrix(1.00, 0.00, -0.00, -1.00, 790.2, 710.0)">-</text><text xml:space="preserve" font-family="HelveticaNeue-Light" font-size="28.1" fill="#000000" transform="matrix(1.00, 0.00, -0.00, -1.00, 800.6, 710.0)">t</text><text xml:space="preserve" font-family="HelveticaNeue-Light" font-size="28.1" fill="#000000" transform="matrix(1.00, 0.00, -0.00, -1.00, 808.9, 710.0)">r</text><text xml:space="preserve" font-family="HelveticaNeue-Light" font-size="28.1" fill="#000000" transform="matrix(1.00, 0.00, -0.00, -1.00, 817.8, 710.0)">a</text><text xml:space="preserve" font-family="HelveticaNeue-Light" font-size="28.1" fill="#000000" transform="matrix(1.00, 0.00, -0.00, -1.00, 832.4, 710.0)">n</text><text xml:space="preserve" font-family="HelveticaNeue-Light" font-size="28.1" fill="#000000" transform="matrix(1.00, 0.00, -0.00, -1.00, 847.5, 710.0)">s</text><text xml:space="preserve" font-family="HelveticaNeue-Light" font-size="28.1" fill="#000000" transform="matrix(1.00, 0.00, -0.00, -1.00, 861.1, 710.0)">p</text><text xml:space="preserve" font-family="HelveticaNeue-Light" font-size="28.1" fill="#000000" transform="matrix(1.00, 0.00, -0.00, -1.00, 877.2, 710.0)">l</text><text xml:space="preserve" font-family="HelveticaNeue-Light" font-size="28.1" fill="#000000" transform="matrix(1.00, 0.00, -0.00, -1.00, 882.4, 710.0)">a</text><text xml:space="preserve" font-family="HelveticaNeue-Light" font-size="28.1" fill="#000000" transform="matrix(1.00, 0.00, -0.00, -1.00, 897.0, 710.0)">n</text><text xml:space="preserve" font-family="HelveticaNeue-Light" font-size="28.1" fill="#000000" transform="matrix(1.00, 0.00, -0.00, -1.00, 912.1, 710.0)">t</text><text xml:space="preserve" font-family="HelveticaNeue-Light" font-size="28.1" fill="#000000" transform="matrix(1.00, 0.00, -0.00, -1.00, 920.5, 710.0)"> </text><text xml:space="preserve" font-family="HelveticaNeue-Light" font-size="28.1" fill="#000000" transform="matrix(1.00, 0.00, -0.00, -1.00, 49.0, 676.0)">c</text><text xml:space="preserve" font-family="HelveticaNeue-Light" font-size="28.1" fill="#000000" transform="matrix(1.00, 0.00, -0.00, -1.00, 63.6, 676.0)">y</text><text xml:space="preserve" font-family="HelveticaNeue-Light" font-size="28.1" fill="#000000" transform="matrix(1.00, 0.00, -0.00, -1.00, 76.6, 676.0)">c</text><text xml:space="preserve" font-family="HelveticaNeue-Light" font-size="28.1" fill="#000000" transform="matrix(1.00, 0.00, -0.00, -1.00, 91.2, 676.0)">l</text><text xml:space="preserve" font-family="HelveticaNeue-Light" font-size="28.1" fill="#000000" transform="matrix(1.00, 0.00, -0.00, -1.00, 96.4, 676.0)">o</text><text xml:space="preserve" font-family="HelveticaNeue-Light" font-size="28.1" fill="#000000" transform="matrix(1.00, 0.00, -0.00, -1.00, 112.1, 676.0)">p</text><text xml:space="preserve" font-family="HelveticaNeue-Light" font-size="28.1" fill="#000000" transform="matrix(1.00, 0.00, -0.00, -1.00, 128.2, 676.0)">h</text><text xml:space="preserve" font-family="HelveticaNeue-Light" font-size="28.1" fill="#000000" transform="matrix(1.00, 0.00, -0.00, -1.00, 143.4, 676.0)">o</text><text xml:space="preserve" font-family="HelveticaNeue-Light" font-size="28.1" fill="#000000" transform="matrix(1.00, 0.00, -0.00, -1.00, 159.0, 676.0)">s</text><text xml:space="preserve" font-family="HelveticaNeue-Light" font-size="28.1" fill="#000000" transform="matrix(1.00, 0.00, -0.00, -1.00, 172.5, 676.0)">p</text><text xml:space="preserve" font-family="HelveticaNeue-Light" font-size="28.1" fill="#000000" transform="matrix(1.00, 0.00, -0.00, -1.00, 188.7, 676.0)">h</text><text xml:space="preserve" font-family="HelveticaNeue-Light" font-size="28.1" fill="#000000" transform="matrix(1.00, 0.00, -0.00, -1.00, 203.8, 676.0)">a</text><text xml:space="preserve" font-family="HelveticaNeue-Light" font-size="28.1" fill="#000000" transform="matrix(1.00, 0.00, -0.00, -1.00, 218.4, 676.0)">m</text><text xml:space="preserve" font-family="HelveticaNeue-Light" font-size="28.1" fill="#000000" transform="matrix(1.00, 0.00, -0.00, -1.00, 241.8, 676.0)">i</text><text xml:space="preserve" font-family="HelveticaNeue-Light" font-size="28.1" fill="#000000" transform="matrix(1.00, 0.00, -0.00, -1.00, 247.0, 676.0)">d</text><text xml:space="preserve" font-family="HelveticaNeue-Light" font-size="28.1" fill="#000000" transform="matrix(1.00, 0.00, -0.00, -1.00, 263.2, 676.0)">e</text><text xml:space="preserve" font-family="HelveticaNeue-Light" font-size="28.1" fill="#000000" transform="matrix(1.00, 0.00, -0.00, -1.00, 277.8, 676.0)"> </text><text xml:space="preserve" font-family="HelveticaNeue-Light" font-size="28.1" fill="#000000" transform="matrix(1.00, 0.00, -0.00, -1.00, 285.6, 676.0)">a</text><text xml:space="preserve" font-family="HelveticaNeue-Light" font-size="28.1" fill="#000000" transform="matrix(1.00, 0.00, -0.00, -1.00, 300.2, 676.0)">s</text><text xml:space="preserve" font-family="HelveticaNeue-Light" font-size="28.1" fill="#000000" transform="matrix(1.00, 0.00, -0.00, -1.00, 313.8, 676.0)"> </text><text xml:space="preserve" font-family="HelveticaNeue-Light" font-size="28.1" fill="#000000" transform="matrix(1.00, 0.00, -0.00, -1.00, 321.6, 676.0)">s</text><text xml:space="preserve" font-family="HelveticaNeue-Light" font-size="28.1" fill="#000000" transform="matrix(1.00, 0.00, -0.00, -1.00, 335.1, 676.0)">o</text><text xml:space="preserve" font-family="HelveticaNeue-Light" font-size="28.1" fill="#000000" transform="matrix(1.00, 0.00, -0.00, -1.00, 350.8, 676.0)">l</text><text xml:space="preserve" font-family="HelveticaNeue-Light" font-size="28.1" fill="#000000" transform="matrix(1.00, 0.00, -0.00, -1.00, 356.0, 676.0)">e</text><text xml:space="preserve" font-family="HelveticaNeue-Light" font-size="28.1" fill="#000000" transform="matrix(1.00, 0.00, -0.00, -1.00, 370.6, 676.0)"> </text><text xml:space="preserve" font-family="HelveticaNeue-Light" font-size="28.1" fill="#000000" transform="matrix(1.00, 0.00, -0.00, -1.00, 378.4, 676.0)">g</text><text xml:space="preserve" font-family="HelveticaNeue-Light" font-size="28.1" fill="#000000" transform="matrix(1.00, 0.00, -0.00, -1.00, 394.1, 676.0)">r</text><text xml:space="preserve" font-family="HelveticaNeue-Light" font-size="28.1" fill="#000000" transform="matrix(1.00, 0.00, -0.00, -1.00, 402.9, 676.0)">a</text><text xml:space="preserve" font-family="HelveticaNeue-Light" font-size="28.1" fill="#000000" transform="matrix(1.00, 0.00, -0.00, -1.00, 417.5, 676.0)">f</text><text xml:space="preserve" font-family="HelveticaNeue-Light" font-size="28.1" fill="#000000" transform="matrix(1.00, 0.00, -0.00, -1.00, 424.8, 676.0)">t</text><text xml:space="preserve" font-family="HelveticaNeue-Light" font-size="28.1" fill="#000000" transform="matrix(1.00, 0.00, -0.00, -1.00, 433.1, 676.0)">-</text><text xml:space="preserve" font-family="HelveticaNeue-Light" font-size="28.1" fill="#000000" transform="matrix(1.00, 0.00, -0.00, -1.00, 443.6, 676.0)">v</text><text xml:space="preserve" font-family="HelveticaNeue-Light" font-size="28.1" fill="#000000" transform="matrix(1.00, 0.00, -0.00, -1.00, 456.6, 676.0)">e</text><text xml:space="preserve" font-family="HelveticaNeue-Light" font-size="28.1" fill="#000000" transform="matrix(1.00, 0.00, -0.00, -1.00, 471.2, 676.0)">r</text><text xml:space="preserve" font-family="HelveticaNeue-Light" font-size="28.1" fill="#000000" transform="matrix(1.00, 0.00, -0.00, -1.00, 480.0, 676.0)">s</text><text xml:space="preserve" font-family="HelveticaNeue-Light" font-size="28.1" fill="#000000" transform="matrix(1.00, 0.00, -0.00, -1.00, 493.6, 676.0)">u</text><text xml:space="preserve" font-family="HelveticaNeue-Light" font-size="28.1" fill="#000000" transform="matrix(1.00, 0.00, -0.00, -1.00, 508.7, 676.0)">s</text><text xml:space="preserve" font-family="HelveticaNeue-Light" font-size="28.1" fill="#000000" transform="matrix(1.00, 0.00, -0.00, -1.00, 522.2, 676.0)">-</text><text xml:space="preserve" font-family="HelveticaNeue-Light" font-size="28.1" fill="#000000" transform="matrix(1.00, 0.00, -0.00, -1.00, 532.6, 676.0)">h</text><text xml:space="preserve" font-family="HelveticaNeue-Light" font-size="28.1" fill="#000000" transform="matrix(1.00, 0.00, -0.00, -1.00, 547.8, 676.0)">o</text><text xml:space="preserve" font-family="HelveticaNeue-Light" font-size="28.1" fill="#000000" transform="matrix(1.00, 0.00, -0.00, -1.00, 563.4, 676.0)">s</text><text xml:space="preserve" font-family="HelveticaNeue-Light" font-size="28.1" fill="#000000" transform="matrix(1.00, 0.00, -0.00, -1.00, 576.9, 676.0)">t</text><text xml:space="preserve" font-family="HelveticaNeue-Light" font-size="28.1" fill="#000000" transform="matrix(1.00, 0.00, -0.00, -1.00, 585.3, 676.0)"> </text><text xml:space="preserve" font-family="HelveticaNeue-Light" font-size="28.1" fill="#000000" transform="matrix(1.00, 0.00, -0.00, -1.00, 593.1, 676.0)">p</text><text xml:space="preserve" font-family="HelveticaNeue-Light" font-size="28.1" fill="#000000" transform="matrix(1.00, 0.00, -0.00, -1.00, 609.2, 676.0)">r</text><text xml:space="preserve" font-family="HelveticaNeue-Light" font-size="28.1" fill="#000000" transform="matrix(1.00, 0.00, -0.00, -1.00, 617.6, 676.0)">o</text><text xml:space="preserve" font-family="HelveticaNeue-Light" font-size="28.1" fill="#000000" transform="matrix(1.00, 0.00, -0.00, -1.00, 633.2, 676.0)">p</text><text xml:space="preserve" font-family="HelveticaNeue-Light" font-size="28.1" fill="#000000" transform="matrix(1.00, 0.00, -0.00, -1.00, 649.4, 676.0)">h</text><text xml:space="preserve" font-family="HelveticaNeue-Light" font-size="28.1" fill="#000000" transform="matrix(1.00, 0.00, -0.00, -1.00, 664.5, 676.0)">y</text><text xml:space="preserve" font-family="HelveticaNeue-Light" font-size="28.1" fill="#000000" transform="matrix(1.00, 0.00, -0.00, -1.00, 677.5, 676.0)">l</text><text xml:space="preserve" font-family="HelveticaNeue-Light" font-size="28.1" fill="#000000" transform="matrix(1.00, 0.00, -0.00, -1.00, 682.7, 676.0)">a</text><text xml:space="preserve" font-family="HelveticaNeue-Light" font-size="28.1" fill="#000000" transform="matrix(1.00, 0.00, -0.00, -1.00, 697.3, 676.0)">x</text><text xml:space="preserve" font-family="HelveticaNeue-Light" font-size="28.1" fill="#000000" transform="matrix(1.00, 0.00, -0.00, -1.00, 710.9, 676.0)">i</text><text xml:space="preserve" font-family="HelveticaNeue-Light" font-size="28.1" fill="#000000" transform="matrix(1.00, 0.00, -0.00, -1.00, 716.1, 676.0)">s</text><text xml:space="preserve" font-family="HelveticaNeue-Light" font-size="28.1" fill="#000000" transform="matrix(1.00, 0.00, -0.00, -1.00, 729.6, 676.0)"> </text><text xml:space="preserve" font-family="HelveticaNeue-Light" font-size="28.1" fill="#000000" transform="matrix(1.00, 0.00, -0.00, -1.00, 737.4, 676.0)">a</text><text xml:space="preserve" font-family="HelveticaNeue-Light" font-size="28.1" fill="#000000" transform="matrix(1.00, 0.00, -0.00, -1.00, 752.0, 676.0)">f</text><text xml:space="preserve" font-family="HelveticaNeue-Light" font-size="28.1" fill="#000000" transform="matrix(1.00, 0.00, -0.00, -1.00, 759.3, 676.0)">t</text><text xml:space="preserve" font-family="HelveticaNeue-Light" font-size="28.1" fill="#000000" transform="matrix(1.00, 0.00, -0.00, -1.00, 767.7, 676.0)">e</text><text xml:space="preserve" font-family="HelveticaNeue-Light" font-size="28.1" fill="#000000" transform="matrix(1.00, 0.00, -0.00, -1.00, 782.3, 676.0)">r</text><text xml:space="preserve" font-family="HelveticaNeue-Light" font-size="28.1" fill="#000000" transform="matrix(1.00, 0.00, -0.00, -1.00, 791.1, 676.0)"> </text><text xml:space="preserve" font-family="HelveticaNeue-Light" font-size="28.1" fill="#000000" transform="matrix(1.00, 0.00, -0.00, -1.00, 799.0, 676.0)">a</text><text xml:space="preserve" font-family="HelveticaNeue-Light" font-size="28.1" fill="#000000" transform="matrix(1.00, 0.00, -0.00, -1.00, 813.6, 676.0)">l</text><text xml:space="preserve" font-family="HelveticaNeue-Light" font-size="28.1" fill="#000000" transform="matrix(1.00, 0.00, -0.00, -1.00, 818.8, 676.0)">l</text><text xml:space="preserve" font-family="HelveticaNeue-Light" font-size="28.1" fill="#000000" transform="matrix(1.00, 0.00, -0.00, -1.00, 824.0, 676.0)">o</text><text xml:space="preserve" font-family="HelveticaNeue-Light" font-size="28.1" fill="#000000" transform="matrix(1.00, 0.00, -0.00, -1.00, 839.6, 676.0)">g</text><text xml:space="preserve" font-family="HelveticaNeue-Light" font-size="28.1" fill="#000000" transform="matrix(1.00, 0.00, -0.00, -1.00, 855.3, 676.0)">e</text><text xml:space="preserve" font-family="HelveticaNeue-Light" font-size="28.1" fill="#000000" transform="matrix(1.00, 0.00, -0.00, -1.00, 869.9, 676.0)">n</text><text xml:space="preserve" font-family="HelveticaNeue-Light" font-size="28.1" fill="#000000" transform="matrix(1.00, 0.00, -0.00, -1.00, 885.0, 676.0)">e</text><text xml:space="preserve" font-family="HelveticaNeue-Light" font-size="28.1" fill="#000000" transform="matrix(1.00, 0.00, -0.00, -1.00, 899.6, 676.0)">i</text><text xml:space="preserve" font-family="HelveticaNeue-Light" font-size="28.1" fill="#000000" transform="matrix(1.00, 0.00, -0.00, -1.00, 904.8, 676.0)">c</text><text xml:space="preserve" font-family="HelveticaNeue-Light" font-size="28.1" fill="#000000" transform="matrix(1.00, 0.00, -0.00, -1.00, 919.4, 676.0)"> </text><text xml:space="preserve" font-family="HelveticaNeue-Light" font-size="28.1" fill="#000000" transform="matrix(1.00, 0.00, -0.00, -1.00, 49.0, 642.0)">p</text><text xml:space="preserve" font-family="HelveticaNeue-Light" font-size="28.1" fill="#000000" transform="matrix(1.00, 0.00, -0.00, -1.00, 65.2, 642.0)">e</text><text xml:space="preserve" font-family="HelveticaNeue-Light" font-size="28.1" fill="#000000" transform="matrix(1.00, 0.00, -0.00, -1.00, 79.8, 642.0)">r</text><text xml:space="preserve" font-family="HelveticaNeue-Light" font-size="28.1" fill="#000000" transform="matrix(1.00, 0.00, -0.00, -1.00, 88.6, 642.0)">i</text><text xml:space="preserve" font-family="HelveticaNeue-Light" font-size="28.1" fill="#000000" transform="matrix(1.00, 0.00, -0.00, -1.00, 93.8, 642.0)">p</text><text xml:space="preserve" font-family="HelveticaNeue-Light" font-size="28.1" fill="#000000" transform="matrix(1.00, 0.00, -0.00, -1.00, 110.0, 642.0)">h</text><text xml:space="preserve" font-family="HelveticaNeue-Light" font-size="28.1" fill="#000000" transform="matrix(1.00, 0.00, -0.00, -1.00, 125.1, 642.0)">e</text><text xml:space="preserve" font-family="HelveticaNeue-Light" font-size="28.1" fill="#000000" transform="matrix(1.00, 0.00, -0.00, -1.00, 139.7, 642.0)">r</text><text xml:space="preserve" font-family="HelveticaNeue-Light" font-size="28.1" fill="#000000" transform="matrix(1.00, 0.00, -0.00, -1.00, 148.6, 642.0)">a</text><text xml:space="preserve" font-family="HelveticaNeue-Light" font-size="28.1" fill="#000000" transform="matrix(1.00, 0.00, -0.00, -1.00, 163.2, 642.0)">l</text><text xml:space="preserve" font-family="HelveticaNeue-Light" font-size="28.1" fill="#000000" transform="matrix(1.00, 0.00, -0.00, -1.00, 168.4, 642.0)"> </text><text xml:space="preserve" font-family="HelveticaNeue-Light" font-size="28.1" fill="#000000" transform="matrix(1.00, 0.00, -0.00, -1.00, 176.2, 642.0)">b</text><text xml:space="preserve" font-family="HelveticaNeue-Light" font-size="28.1" fill="#000000" transform="matrix(1.00, 0.00, -0.00, -1.00, 192.3, 642.0)">l</text><text xml:space="preserve" font-family="HelveticaNeue-Light" font-size="28.1" fill="#000000" transform="matrix(1.00, 0.00, -0.00, -1.00, 197.6, 642.0)">o</text><text xml:space="preserve" font-family="HelveticaNeue-Light" font-size="28.1" fill="#000000" transform="matrix(1.00, 0.00, -0.00, -1.00, 213.2, 642.0)">o</text><text xml:space="preserve" font-family="HelveticaNeue-Light" font-size="28.1" fill="#000000" transform="matrix(1.00, 0.00, -0.00, -1.00, 228.8, 642.0)">d</text><text xml:space="preserve" font-family="HelveticaNeue-Light" font-size="28.1" fill="#000000" transform="matrix(1.00, 0.00, -0.00, -1.00, 245.0, 642.0)"> </text><text xml:space="preserve" font-family="HelveticaNeue-Light" font-size="28.1" fill="#000000" transform="matrix(1.00, 0.00, -0.00, -1.00, 252.8, 642.0)">s</text><text xml:space="preserve" font-family="HelveticaNeue-Light" font-size="28.1" fill="#000000" transform="matrix(1.00, 0.00, -0.00, -1.00, 266.4, 642.0)">t</text><text xml:space="preserve" font-family="HelveticaNeue-Light" font-size="28.1" fill="#000000" transform="matrix(1.00, 0.00, -0.00, -1.00, 274.7, 642.0)">e</text><text xml:space="preserve" font-family="HelveticaNeue-Light" font-size="28.1" fill="#000000" transform="matrix(1.00, 0.00, -0.00, -1.00, 289.3, 642.0)">m</text><text xml:space="preserve" font-family="HelveticaNeue-Light" font-size="28.1" fill="#000000" transform="matrix(1.00, 0.00, -0.00, -1.00, 312.7, 642.0)"> </text><text xml:space="preserve" font-family="HelveticaNeue-Light" font-size="28.1" fill="#000000" transform="matrix(1.00, 0.00, -0.00, -1.00, 320.6, 642.0)">c</text><text xml:space="preserve" font-family="HelveticaNeue-Light" font-size="28.1" fill="#000000" transform="matrix(1.00, 0.00, -0.00, -1.00, 335.2, 642.0)">e</text><text xml:space="preserve" font-family="HelveticaNeue-Light" font-size="28.1" fill="#000000" transform="matrix(1.00, 0.00, -0.00, -1.00, 349.8, 642.0)">l</text><text xml:space="preserve" font-family="HelveticaNeue-Light" font-size="28.1" fill="#000000" transform="matrix(1.00, 0.00, -0.00, -1.00, 355.0, 642.0)">l</text><text xml:space="preserve" font-family="HelveticaNeue-Light" font-size="28.1" fill="#000000" transform="matrix(1.00, 0.00, -0.00, -1.00, 360.2, 642.0)"> </text><text xml:space="preserve" font-family="HelveticaNeue-Light" font-size="28.1" fill="#000000" transform="matrix(1.00, 0.00, -0.00, -1.00, 368.0, 642.0)">t</text><text xml:space="preserve" font-family="HelveticaNeue-Light" font-size="28.1" fill="#000000" transform="matrix(1.00, 0.00, -0.00, -1.00, 376.3, 642.0)">r</text><text xml:space="preserve" font-family="HelveticaNeue-Light" font-size="28.1" fill="#000000" transform="matrix(1.00, 0.00, -0.00, -1.00, 385.2, 642.0)">a</text><text xml:space="preserve" font-family="HelveticaNeue-Light" font-size="28.1" fill="#000000" transform="matrix(1.00, 0.00, -0.00, -1.00, 399.8, 642.0)">n</text><text xml:space="preserve" font-family="HelveticaNeue-Light" font-size="28.1" fill="#000000" transform="matrix(1.00, 0.00, -0.00, -1.00, 414.9, 642.0)">s</text><text xml:space="preserve" font-family="HelveticaNeue-Light" font-size="28.1" fill="#000000" transform="matrix(1.00, 0.00, -0.00, -1.00, 428.4, 642.0)">p</text><text xml:space="preserve" font-family="HelveticaNeue-Light" font-size="28.1" fill="#000000" transform="matrix(1.00, 0.00, -0.00, -1.00, 444.6, 642.0)">l</text><text xml:space="preserve" font-family="HelveticaNeue-Light" font-size="28.1" fill="#000000" transform="matrix(1.00, 0.00, -0.00, -1.00, 449.8, 642.0)">a</text><text xml:space="preserve" font-family="HelveticaNeue-Light" font-size="28.1" fill="#000000" transform="matrix(1.00, 0.00, -0.00, -1.00, 464.4, 642.0)">n</text><text xml:space="preserve" font-family="HelveticaNeue-Light" font-size="28.1" fill="#000000" transform="matrix(1.00, 0.00, -0.00, -1.00, 479.5, 642.0)">t</text><text xml:space="preserve" font-family="HelveticaNeue-Light" font-size="28.1" fill="#000000" transform="matrix(1.00, 0.00, -0.00, -1.00, 487.8, 642.0)">a</text><text xml:space="preserve" font-family="HelveticaNeue-Light" font-size="28.1" fill="#000000" transform="matrix(1.00, 0.00, -0.00, -1.00, 502.4, 642.0)">t</text><text xml:space="preserve" font-family="HelveticaNeue-Light" font-size="28.1" fill="#000000" transform="matrix(1.00, 0.00, -0.00, -1.00, 510.8, 642.0)">i</text><text xml:space="preserve" font-family="HelveticaNeue-Light" font-size="28.1" fill="#000000" transform="matrix(1.00, 0.00, -0.00, -1.00, 516.0, 642.0)">o</text><text xml:space="preserve" font-family="HelveticaNeue-Light" font-size="28.1" fill="#000000" transform="matrix(1.00, 0.00, -0.00, -1.00, 531.6, 642.0)">n</text><text xml:space="preserve" font-family="HelveticaNeue-Light" font-size="36.0" fill="#000000" transform="matrix(1.00, 0.00, -0.00, -1.00, 30.0, 555.0)">1</text><text xml:space="preserve" font-family="HelveticaNeue-Light" font-size="36.0" fill="#000000" transform="matrix(1.00, 0.00, -0.00, -1.00, 50.0, 555.0)">1</text><text xml:space="preserve" font-family="HelveticaNeue-Light" font-size="36.0" fill="#000000" transform="matrix(1.00, 0.00, -0.00, -1.00, 70.0, 555.0)"> </text><text xml:space="preserve" font-family="HelveticaNeue-Light" font-size="36.0" fill="#000000" transform="matrix(1.00, 0.00, -0.00, -1.00, 80.0, 555.0)">a</text><text xml:space="preserve" font-family="HelveticaNeue-Light" font-size="36.0" fill="#000000" transform="matrix(1.00, 0.00, -0.00, -1.00, 98.7, 555.0)">d</text><text xml:space="preserve" font-family="HelveticaNeue-Light" font-size="36.0" fill="#000000" transform="matrix(1.00, 0.00, -0.00, -1.00, 119.4, 555.0)">u</text><text xml:space="preserve" font-family="HelveticaNeue-Light" font-size="36.0" fill="#000000" transform="matrix(1.00, 0.00, -0.00, -1.00, 138.7, 555.0)">l</text><text xml:space="preserve" font-family="HelveticaNeue-Light" font-size="36.0" fill="#000000" transform="matrix(1.00, 0.00, -0.00, -1.00, 145.4, 555.0)">t</text><text xml:space="preserve" font-family="HelveticaNeue-Light" font-size="36.0" fill="#000000" transform="matrix(1.00, 0.00, -0.00, -1.00, 156.0, 555.0)"> </text><text xml:space="preserve" font-family="HelveticaNeue-Light" font-size="36.0" fill="#000000" transform="matrix(1.00, 0.00, -0.00, -1.00, 166.0, 555.0)">p</text><text xml:space="preserve" font-family="HelveticaNeue-Light" font-size="36.0" fill="#000000" transform="matrix(1.00, 0.00, -0.00, -1.00, 186.7, 555.0)">a</text><text xml:space="preserve" font-family="HelveticaNeue-Light" font-size="36.0" fill="#000000" transform="matrix(1.00, 0.00, -0.00, -1.00, 205.4, 555.0)">t</text><text xml:space="preserve" font-family="HelveticaNeue-Light" font-size="36.0" fill="#000000" transform="matrix(1.00, 0.00, -0.00, -1.00, 216.0, 555.0)">i</text><text xml:space="preserve" font-family="HelveticaNeue-Light" font-size="36.0" fill="#000000" transform="matrix(1.00, 0.00, -0.00, -1.00, 222.7, 555.0)">e</text><text xml:space="preserve" font-family="HelveticaNeue-Light" font-size="36.0" fill="#000000" transform="matrix(1.00, 0.00, -0.00, -1.00, 241.4, 555.0)">n</text><text xml:space="preserve" font-family="HelveticaNeue-Light" font-size="36.0" fill="#000000" transform="matrix(1.00, 0.00, -0.00, -1.00, 260.7, 555.0)">t</text><text xml:space="preserve" font-family="HelveticaNeue-Light" font-size="36.0" fill="#000000" transform="matrix(1.00, 0.00, -0.00, -1.00, 271.4, 555.0)">s</text><text xml:space="preserve" font-family="HelveticaNeue-Light" font-size="36.0" fill="#000000" transform="matrix(1.00, 0.00, -0.00, -1.00, 288.7, 555.0)"> </text><text xml:space="preserve" font-family="HelveticaNeue-Light" font-size="36.0" fill="#000000" transform="matrix(1.00, 0.00, -0.00, -1.00, 298.7, 555.0)">w</text><text xml:space="preserve" font-family="HelveticaNeue-Light" font-size="36.0" fill="#000000" transform="matrix(1.00, 0.00, -0.00, -1.00, 325.4, 555.0)">i</text><text xml:space="preserve" font-family="HelveticaNeue-Light" font-size="36.0" fill="#000000" transform="matrix(1.00, 0.00, -0.00, -1.00, 332.0, 555.0)">t</text><text xml:space="preserve" font-family="HelveticaNeue-Light" font-size="36.0" fill="#000000" transform="matrix(1.00, 0.00, -0.00, -1.00, 342.7, 555.0)">h</text><text xml:space="preserve" font-family="HelveticaNeue-Light" font-size="36.0" fill="#000000" transform="matrix(1.00, 0.00, -0.00, -1.00, 362.0, 555.0)"> </text><text xml:space="preserve" font-family="HelveticaNeue-Light" font-size="36.0" fill="#000000" transform="matrix(1.00, 0.00, -0.00, -1.00, 372.0, 555.0)">r</text><text xml:space="preserve" font-family="HelveticaNeue-Light" font-size="36.0" fill="#000000" transform="matrix(1.00, 0.00, -0.00, -1.00, 382.7, 555.0)">e</text><text xml:space="preserve" font-family="HelveticaNeue-Light" font-size="36.0" fill="#000000" transform="matrix(1.00, 0.00, -0.00, -1.00, 401.4, 555.0)">f</text><text xml:space="preserve" font-family="HelveticaNeue-Light" font-size="36.0" fill="#000000" transform="matrix(1.00, 0.00, -0.00, -1.00, 410.7, 555.0)">r</text><text xml:space="preserve" font-family="HelveticaNeue-Light" font-size="36.0" fill="#000000" transform="matrix(1.00, 0.00, -0.00, -1.00, 422.1, 555.0)">a</text><text xml:space="preserve" font-family="HelveticaNeue-Light" font-size="36.0" fill="#000000" transform="matrix(1.00, 0.00, -0.00, -1.00, 440.8, 555.0)">c</text><text xml:space="preserve" font-family="HelveticaNeue-Light" font-size="36.0" fill="#000000" transform="matrix(1.00, 0.00, -0.00, -1.00, 459.4, 555.0)">t</text><text xml:space="preserve" font-family="HelveticaNeue-Light" font-size="36.0" fill="#000000" transform="matrix(1.00, 0.00, -0.00, -1.00, 470.1, 555.0)">o</text><text xml:space="preserve" font-family="HelveticaNeue-Light" font-size="36.0" fill="#000000" transform="matrix(1.00, 0.00, -0.00, -1.00, 490.1, 555.0)">r</text><text xml:space="preserve" font-family="HelveticaNeue-Light" font-size="36.0" fill="#000000" transform="matrix(1.00, 0.00, -0.00, -1.00, 501.5, 555.0)">y</text><text xml:space="preserve" font-family="HelveticaNeue-Light" font-size="36.0" fill="#000000" transform="matrix(1.00, 0.00, -0.00, -1.00, 518.1, 555.0)"> </text><text xml:space="preserve" font-family="HelveticaNeue-Light" font-size="36.0" fill="#000000" transform="matrix(1.00, 0.00, -0.00, -1.00, 528.1, 555.0)">l</text><text xml:space="preserve" font-family="HelveticaNeue-Light" font-size="36.0" fill="#000000" transform="matrix(1.00, 0.00, -0.00, -1.00, 534.8, 555.0)">y</text><text xml:space="preserve" font-family="HelveticaNeue-Light" font-size="36.0" fill="#000000" transform="matrix(1.00, 0.00, -0.00, -1.00, 551.5, 555.0)">m</text><text xml:space="preserve" font-family="HelveticaNeue-Light" font-size="36.0" fill="#000000" transform="matrix(1.00, 0.00, -0.00, -1.00, 581.4, 555.0)">p</text><text xml:space="preserve" font-family="HelveticaNeue-Light" font-size="36.0" fill="#000000" transform="matrix(1.00, 0.00, -0.00, -1.00, 602.1, 555.0)">h</text><text xml:space="preserve" font-family="HelveticaNeue-Light" font-size="36.0" fill="#000000" transform="matrix(1.00, 0.00, -0.00, -1.00, 621.4, 555.0)">o</text><text xml:space="preserve" font-family="HelveticaNeue-Light" font-size="36.0" fill="#000000" transform="matrix(1.00, 0.00, -0.00, -1.00, 641.5, 555.0)">m</text><text xml:space="preserve" font-family="HelveticaNeue-Light" font-size="36.0" fill="#000000" transform="matrix(1.00, 0.00, -0.00, -1.00, 671.4, 555.0)">a</text><text xml:space="preserve" font-family="HelveticaNeue-Light" font-size="36.0" fill="#000000" transform="matrix(1.00, 0.00, -0.00, -1.00, 690.1, 555.0)">/</text><text xml:space="preserve" font-family="HelveticaNeue-Light" font-size="36.0" fill="#000000" transform="matrix(1.00, 0.00, -0.00, -1.00, 702.1, 555.0)">M</text><text xml:space="preserve" font-family="HelveticaNeue-Light" font-size="36.0" fill="#000000" transform="matrix(1.00, 0.00, -0.00, -1.00, 731.7, 555.0)">M</text><g><clipPath id="clip-1406"><path d="M 1.0 24.0 L 538.0 24.0 L 538.0 5.0 L 1.0 5.0 Z M 1.3 24.1 "></path></clipPath><g clip-path="url(#clip-1406)"><g><clipPath id="clip-1407"><path d="M 1.0 -31.0 L 730.0 -31.0 L 730.0 256.0 L 1.0 256.0 Z M 1.0 -31.0 "></path></clipPath><g clip-path="url(#clip-1407)"><image xlink:href="1B217376523A90C5D0D3AC3EC31B6641.png" width="2580.00" height="1016.00" transform="matrix(0.28, 0.00, -0.00, -0.28, 1.0, 256.0)"></image></g></g></g></g><text xml:space="preserve" font-family="HelveticaNeue" font-size="16.0" fill="#000000" transform="matrix(1.00, 0.00, -0.00, -1.00, 818.0, 9.0)">E</text><text xml:space="preserve" font-family="HelveticaNeue" font-size="16.0" fill="#000000" transform="matrix(1.00, 0.00, -0.00, -1.00, 827.8, 9.0)">u</text><text xml:space="preserve" font-family="HelveticaNeue" font-size="16.0" fill="#000000" transform="matrix(1.00, 0.00, -0.00, -1.00, 836.7, 9.0)">r</text><text xml:space="preserve" font-family="HelveticaNeue" font-size="16.0" fill="#000000" transform="matrix(1.00, 0.00, -0.00, -1.00, 842.0, 9.0)"> </text><text xml:space="preserve" font-family="HelveticaNeue" font-size="16.0" fill="#000000" transform="matrix(1.00, 0.00, -0.00, -1.00, 846.4, 9.0)">J</text><text xml:space="preserve" font-family="HelveticaNeue" font-size="16.0" fill="#000000" transform="matrix(1.00, 0.00, -0.00, -1.00, 854.8, 9.0)"> </text><text xml:space="preserve" font-family="HelveticaNeue" font-size="16.0" fill="#000000" transform="matrix(1.00, 0.00, -0.00, -1.00, 859.2, 9.0)">H</text><text xml:space="preserve" font-family="HelveticaNeue" font-size="16.0" fill="#000000" transform="matrix(1.00, 0.00, -0.00, -1.00, 870.8, 9.0)">a</text><text xml:space="preserve" font-family="HelveticaNeue" font-size="16.0" fill="#000000" transform="matrix(1.00, 0.00, -0.00, -1.00, 879.3, 9.0)">e</text><text xml:space="preserve" font-family="HelveticaNeue" font-size="16.0" fill="#000000" transform="matrix(1.00, 0.00, -0.00, -1.00, 887.9, 9.0)">m</text><text xml:space="preserve" font-family="HelveticaNeue" font-size="16.0" fill="#000000" transform="matrix(1.00, 0.00, -0.00, -1.00, 901.6, 9.0)">a</text><text xml:space="preserve" font-family="HelveticaNeue" font-size="16.0" fill="#000000" transform="matrix(1.00, 0.00, -0.00, -1.00, 910.2, 9.0)">t</text><text xml:space="preserve" font-family="HelveticaNeue" font-size="16.0" fill="#000000" transform="matrix(1.00, 0.00, -0.00, -1.00, 915.2, 9.0)">o</text><text xml:space="preserve" font-family="HelveticaNeue" font-size="16.0" fill="#000000" transform="matrix(1.00, 0.00, -0.00, -1.00, 924.4, 9.0)">l</text><text xml:space="preserve" font-family="HelveticaNeue" font-size="16.0" fill="#000000" transform="matrix(1.00, 0.00, -0.00, -1.00, 928.0, 9.0)">.</text><text xml:space="preserve" font-family="HelveticaNeue" font-size="16.0" fill="#000000" transform="matrix(1.00, 0.00, -0.00, -1.00, 932.4, 9.0)"> </text><text xml:space="preserve" font-family="HelveticaNeue" font-size="16.0" fill="#000000" transform="matrix(1.00, 0.00, -0.00, -1.00, 936.8, 9.0)">2</text><text xml:space="preserve" font-family="HelveticaNeue" font-size="16.0" fill="#000000" transform="matrix(1.00, 0.00, -0.00, -1.00, 945.7, 9.0)">0</text><text xml:space="preserve" font-family="HelveticaNeue" font-size="16.0" fill="#000000" transform="matrix(1.00, 0.00, -0.00, -1.00, 954.6, 9.0)">1</text><text xml:space="preserve" font-family="HelveticaNeue" font-size="16.0" fill="#000000" transform="matrix(1.00, 0.00, -0.00, -1.00, 963.5, 9.0)">5</text><text xml:space="preserve" font-family="HelveticaNeue" font-size="16.0" fill="#000000" transform="matrix(1.00, 0.00, -0.00, -1.00, 972.4, 9.0)"> </text><text xml:space="preserve" font-family="HelveticaNeue" font-size="16.0" fill="#000000" transform="matrix(1.00, 0.00, -0.00, -1.00, 976.9, 9.0)">M</text><text xml:space="preserve" font-family="HelveticaNeue" font-size="16.0" fill="#000000" transform="matrix(1.00, 0.00, -0.00, -1.00, 990.8, 9.0)">a</text><text xml:space="preserve" font-family="HelveticaNeue" font-size="16.0" fill="#000000" transform="matrix(1.00, 0.00, -0.00, -1.00, 999.4, 9.0)">r</text><text xml:space="preserve" font-family="HelveticaNeue" font-size="16.0" fill="#000000" transform="matrix(1.00, 0.00, -0.00, -1.00, 1004.7, 9.0)"> </text><text xml:space="preserve" font-family="HelveticaNeue" font-size="16.0" fill="#000000" transform="matrix(1.00, 0.00, -0.00, -1.00, 1009.2, 9.0)">1</text></g></svg>