<?xml version="1.0" encoding="UTF-8" standalone="no"?><svg xmlns="http://www.w3.org/2000/svg" xmlns:xlink="http://www.w3.org/1999/xlink" clip-rule="evenodd" stroke-miterlimit="10" viewBox="0 0 1024 768"><desc>SVG generated by Keynote</desc><defs></defs><g transform="matrix(1.00, 0.00, -0.00, -1.00, 0.0, 768.0)"><g><clipPath id="clip0x7fba7deb1650"><path d="M 0.0 768.0 L 1024.0 768.0 L 1024.0 0.0 L 0.0 0.0 Z M 0.0 768.0 "></path></clipPath><g clip-path="url(#clip0x7fba7deb1650)"><image xlink:href="../../384E26B0-0AD0-495F-BA75-267B55ABD0BD/assets/31D284A5C75E14674D2A89FDB99F8048.jpeg" width="2048.00" height="1536.00" transform="matrix(0.50, 0.00, -0.00, -0.50, 0.0, 768.0)"></image></g></g><image xlink:href="../../3A01E64E-165A-4186-AEE2-93A8E260EAF6/assets/E8E3ADFF685C11A4DE158BFA76BC9C23.png" width="717.00" height="61.00" transform="matrix(1.00, 0.00, -0.00, -1.00, 155.0, 476.0)"></image><text xml:space="preserve" font-family="HelveticaNeue-Bold,Helvetica Neue" font-weight="bold" font-size="56.3" fill="#FEFFFE" transform="matrix(1.00, 0.00, -0.00, -1.00, 155.2, 431.9)">I</text><text xml:space="preserve" font-family="HelveticaNeue-Bold,Helvetica Neue" font-weight="bold" font-size="56.3" fill="#FEFFFE" transform="matrix(1.00, 0.00, -0.00, -1.00, 171.8, 431.9)">s</text><text xml:space="preserve" font-family="HelveticaNeue-Bold,Helvetica Neue" font-weight="bold" font-size="56.3" fill="#FEFFFE" transform="matrix(1.00, 0.00, -0.00, -1.00, 202.1, 431.9)"> </text><text xml:space="preserve" font-family="HelveticaNeue-Bold,Helvetica Neue" font-weight="bold" font-size="56.3" fill="#FEFFFE" transform="matrix(1.00, 0.00, -0.00, -1.00, 217.7, 431.9)">t</text><text xml:space="preserve" font-family="HelveticaNeue-Bold,Helvetica Neue" font-weight="bold" font-size="56.3" fill="#FEFFFE" transform="matrix(1.00, 0.00, -0.00, -1.00, 237.6, 431.9)">h</text><text xml:space="preserve" font-family="HelveticaNeue-Bold,Helvetica Neue" font-weight="bold" font-size="56.3" fill="#FEFFFE" transform="matrix(1.00, 0.00, -0.00, -1.00, 271.0, 431.9)">e</text><text xml:space="preserve" font-family="HelveticaNeue-Bold,Helvetica Neue" font-weight="bold" font-size="56.3" fill="#FEFFFE" transform="matrix(1.00, 0.00, -0.00, -1.00, 303.3, 431.9)">r</text><text xml:space="preserve" font-family="HelveticaNeue-Bold,Helvetica Neue" font-weight="bold" font-size="56.3" fill="#FEFFFE" transform="matrix(1.00, 0.00, -0.00, -1.00, 324.2, 431.9)">e</text><text xml:space="preserve" font-family="HelveticaNeue-Bold,Helvetica Neue" font-weight="bold" font-size="56.3" fill="#FEFFFE" transform="matrix(1.00, 0.00, -0.00, -1.00, 356.5, 431.9)"> </text><text xml:space="preserve" font-family="HelveticaNeue-Bold,Helvetica Neue" font-weight="bold" font-size="56.3" fill="#FEFFFE" transform="matrix(1.00, 0.00, -0.00, -1.00, 372.2, 431.9)">a</text><text xml:space="preserve" font-family="HelveticaNeue-Bold,Helvetica Neue" font-weight="bold" font-size="56.3" fill="#FEFFFE" transform="matrix(1.00, 0.00, -0.00, -1.00, 404.5, 431.9)">n</text><text xml:space="preserve" font-family="HelveticaNeue-Bold,Helvetica Neue" font-weight="bold" font-size="56.3" fill="#FEFFFE" transform="matrix(1.00, 0.00, -0.00, -1.00, 437.9, 431.9)">y</text><text xml:space="preserve" font-family="HelveticaNeue-Bold,Helvetica Neue" font-weight="bold" font-size="56.3" fill="#FEFFFE" transform="matrix(1.00, 0.00, -0.00, -1.00, 467.1, 431.9)"> </text><text xml:space="preserve" font-family="HelveticaNeue-Bold,Helvetica Neue" font-weight="bold" font-size="56.3" fill="#FEFFFE" transform="matrix(1.00, 0.00, -0.00, -1.00, 482.8, 431.9)">b</text><text xml:space="preserve" font-family="HelveticaNeue-Bold,Helvetica Neue" font-weight="bold" font-size="56.3" fill="#FEFFFE" transform="matrix(1.00, 0.00, -0.00, -1.00, 517.2, 431.9)">e</text><text xml:space="preserve" font-family="HelveticaNeue-Bold,Helvetica Neue" font-weight="bold" font-size="56.3" fill="#FEFFFE" transform="matrix(1.00, 0.00, -0.00, -1.00, 549.5, 431.9)">n</text><text xml:space="preserve" font-family="HelveticaNeue-Bold,Helvetica Neue" font-weight="bold" font-size="56.3" fill="#FEFFFE" transform="matrix(1.00, 0.00, -0.00, -1.00, 582.9, 431.9)">e</text><text xml:space="preserve" font-family="HelveticaNeue-Bold,Helvetica Neue" font-weight="bold" font-size="56.3" fill="#FEFFFE" transform="matrix(1.00, 0.00, -0.00, -1.00, 615.2, 431.9)">ﬁ</text><text xml:space="preserve" font-family="HelveticaNeue-Bold,Helvetica Neue" font-weight="bold" font-size="56.3" fill="#FEFFFE" transform="matrix(1.00, 0.00, -0.00, -1.00, 649.6, 431.9)">t</text><text xml:space="preserve" font-family="HelveticaNeue-Bold,Helvetica Neue" font-weight="bold" font-size="56.3" fill="#FEFFFE" transform="matrix(1.00, 0.00, -0.00, -1.00, 669.5, 431.9)"> </text><text xml:space="preserve" font-family="HelveticaNeue-Bold,Helvetica Neue" font-weight="bold" font-size="56.3" fill="#FEFFFE" transform="matrix(1.00, 0.00, -0.00, -1.00, 685.1, 431.9)">t</text><text xml:space="preserve" font-family="HelveticaNeue-Bold,Helvetica Neue" font-weight="bold" font-size="56.3" fill="#FEFFFE" transform="matrix(1.00, 0.00, -0.00, -1.00, 705.0, 431.9)">o</text><text xml:space="preserve" font-family="HelveticaNeue-Bold,Helvetica Neue" font-weight="bold" font-size="56.3" fill="#FEFFFE" transform="matrix(1.00, 0.00, -0.00, -1.00, 739.4, 431.9)"> </text><text xml:space="preserve" font-family="HelveticaNeue-Bold,Helvetica Neue" font-weight="bold" font-size="56.3" fill="#FEFFFE" transform="matrix(1.00, 0.00, -0.00, -1.00, 755.0, 431.9)">O</text><text xml:space="preserve" font-family="HelveticaNeue-Bold,Helvetica Neue" font-weight="bold" font-size="56.3" fill="#FEFFFE" transform="matrix(1.00, 0.00, -0.00, -1.00, 798.8, 431.9)">F</text><text xml:space="preserve" font-family="HelveticaNeue-Bold,Helvetica Neue" font-weight="bold" font-size="56.3" fill="#FEFFFE" transform="matrix(1.00, 0.00, -0.00, -1.00, 832.2, 431.9)">S</text><text xml:space="preserve" font-family="HelveticaNeue-Bold,Helvetica Neue" font-weight="bold" font-size="56.3" fill="#FEFFFE" transform="matrix(1.00, 0.00, -0.00, -1.00, 868.8, 431.9)"> </text><image xlink:href="../../3A01E64E-165A-4186-AEE2-93A8E260EAF6/assets/14B4BAAA1D7FE920D6696A5AFBDCAC0E.png" width="824.00" height="60.00" transform="matrix(1.00, 0.00, -0.00, -1.00, 100.0, 406.0)"></image><text xml:space="preserve" font-family="HelveticaNeue-Bold,Helvetica Neue" font-weight="bold" font-size="56.3" fill="#FEFFFE" transform="matrix(1.00, 0.00, -0.00, -1.00, 101.2, 362.9)">i</text><text xml:space="preserve" font-family="HelveticaNeue-Bold,Helvetica Neue" font-weight="bold" font-size="56.3" fill="#FEFFFE" transform="matrix(1.00, 0.00, -0.00, -1.00, 115.8, 362.9)">n</text><text xml:space="preserve" font-family="HelveticaNeue-Bold,Helvetica Neue" font-weight="bold" font-size="56.3" fill="#FEFFFE" transform="matrix(1.00, 0.00, -0.00, -1.00, 149.2, 362.9)"> </text><text xml:space="preserve" font-family="HelveticaNeue-Bold,Helvetica Neue" font-weight="bold" font-size="56.3" fill="#FEFFFE" transform="matrix(1.00, 0.00, -0.00, -1.00, 164.8, 362.9)">p</text><text xml:space="preserve" font-family="HelveticaNeue-Bold,Helvetica Neue" font-weight="bold" font-size="56.3" fill="#FEFFFE" transform="matrix(1.00, 0.00, -0.00, -1.00, 199.2, 362.9)">r</text><text xml:space="preserve" font-family="HelveticaNeue-Bold,Helvetica Neue" font-weight="bold" font-size="56.3" fill="#FEFFFE" transform="matrix(1.00, 0.00, -0.00, -1.00, 220.1, 362.9)">e</text><text xml:space="preserve" font-family="HelveticaNeue-Bold,Helvetica Neue" font-weight="bold" font-size="56.3" fill="#FEFFFE" transform="matrix(1.00, 0.00, -0.00, -1.00, 252.4, 362.9)">m</text><text xml:space="preserve" font-family="HelveticaNeue-Bold,Helvetica Neue" font-weight="bold" font-size="56.3" fill="#FEFFFE" transform="matrix(1.00, 0.00, -0.00, -1.00, 303.5, 362.9)">e</text><text xml:space="preserve" font-family="HelveticaNeue-Bold,Helvetica Neue" font-weight="bold" font-size="56.3" fill="#FEFFFE" transform="matrix(1.00, 0.00, -0.00, -1.00, 335.8, 362.9)">n</text><text xml:space="preserve" font-family="HelveticaNeue-Bold,Helvetica Neue" font-weight="bold" font-size="56.3" fill="#FEFFFE" transform="matrix(1.00, 0.00, -0.00, -1.00, 369.2, 362.9)">o</text><text xml:space="preserve" font-family="HelveticaNeue-Bold,Helvetica Neue" font-weight="bold" font-size="56.3" fill="#FEFFFE" transform="matrix(1.00, 0.00, -0.00, -1.00, 403.6, 362.9)">p</text><text xml:space="preserve" font-family="HelveticaNeue-Bold,Helvetica Neue" font-weight="bold" font-size="56.3" fill="#FEFFFE" transform="matrix(1.00, 0.00, -0.00, -1.00, 438.0, 362.9)">a</text><text xml:space="preserve" font-family="HelveticaNeue-Bold,Helvetica Neue" font-weight="bold" font-size="56.3" fill="#FEFFFE" transform="matrix(1.00, 0.00, -0.00, -1.00, 470.4, 362.9)">u</text><text xml:space="preserve" font-family="HelveticaNeue-Bold,Helvetica Neue" font-weight="bold" font-size="56.3" fill="#FEFFFE" transform="matrix(1.00, 0.00, -0.00, -1.00, 503.7, 362.9)">s</text><text xml:space="preserve" font-family="HelveticaNeue-Bold,Helvetica Neue" font-weight="bold" font-size="56.3" fill="#FEFFFE" transform="matrix(1.00, 0.00, -0.00, -1.00, 534.0, 362.9)">a</text><text xml:space="preserve" font-family="HelveticaNeue-Bold,Helvetica Neue" font-weight="bold" font-size="56.3" fill="#FEFFFE" transform="matrix(1.00, 0.00, -0.00, -1.00, 566.3, 362.9)">l</text><text xml:space="preserve" font-family="HelveticaNeue-Bold,Helvetica Neue" font-weight="bold" font-size="56.3" fill="#FEFFFE" transform="matrix(1.00, 0.00, -0.00, -1.00, 580.9, 362.9)"> </text><text xml:space="preserve" font-family="HelveticaNeue-Bold,Helvetica Neue" font-weight="bold" font-size="56.3" fill="#FEFFFE" transform="matrix(1.00, 0.00, -0.00, -1.00, 596.5, 362.9)">w</text><text xml:space="preserve" font-family="HelveticaNeue-Bold,Helvetica Neue" font-weight="bold" font-size="56.3" fill="#FEFFFE" transform="matrix(1.00, 0.00, -0.00, -1.00, 642.4, 362.9)">o</text><text xml:space="preserve" font-family="HelveticaNeue-Bold,Helvetica Neue" font-weight="bold" font-size="56.3" fill="#FEFFFE" transform="matrix(1.00, 0.00, -0.00, -1.00, 676.8, 362.9)">m</text><text xml:space="preserve" font-family="HelveticaNeue-Bold,Helvetica Neue" font-weight="bold" font-size="56.3" fill="#FEFFFE" transform="matrix(1.00, 0.00, -0.00, -1.00, 727.8, 362.9)">e</text><text xml:space="preserve" font-family="HelveticaNeue-Bold,Helvetica Neue" font-weight="bold" font-size="56.3" fill="#FEFFFE" transform="matrix(1.00, 0.00, -0.00, -1.00, 760.1, 362.9)">n</text><text xml:space="preserve" font-family="HelveticaNeue-Bold,Helvetica Neue" font-weight="bold" font-size="56.3" fill="#FEFFFE" transform="matrix(1.00, 0.00, -0.00, -1.00, 793.5, 362.9)"> </text><text xml:space="preserve" font-family="HelveticaNeue-Bold,Helvetica Neue" font-weight="bold" font-size="56.3" fill="#FEFFFE" transform="matrix(1.00, 0.00, -0.00, -1.00, 809.2, 362.9)">w</text><text xml:space="preserve" font-family="HelveticaNeue-Bold,Helvetica Neue" font-weight="bold" font-size="56.3" fill="#FEFFFE" transform="matrix(1.00, 0.00, -0.00, -1.00, 855.0, 362.9)">i</text><text xml:space="preserve" font-family="HelveticaNeue-Bold,Helvetica Neue" font-weight="bold" font-size="56.3" fill="#FEFFFE" transform="matrix(1.00, 0.00, -0.00, -1.00, 869.5, 362.9)">t</text><text xml:space="preserve" font-family="HelveticaNeue-Bold,Helvetica Neue" font-weight="bold" font-size="56.3" fill="#FEFFFE" transform="matrix(1.00, 0.00, -0.00, -1.00, 889.4, 362.9)">h</text><text xml:space="preserve" font-family="HelveticaNeue-Bold,Helvetica Neue" font-weight="bold" font-size="56.3" fill="#FEFFFE" transform="matrix(1.00, 0.00, -0.00, -1.00, 922.8, 362.9)"> </text><image xlink:href="../../3A01E64E-165A-4186-AEE2-93A8E260EAF6/assets/C2ACEC47EFDC62EE38280A51167E78C1.png" width="718.00" height="62.00" transform="matrix(1.00, 0.00, -0.00, -1.00, 153.0, 338.0)"></image><text xml:space="preserve" font-family="HelveticaNeue-Bold,Helvetica Neue" font-weight="bold" font-size="56.3" fill="#FEFFFE" transform="matrix(1.00, 0.00, -0.00, -1.00, 155.8, 293.9)">e</text><text xml:space="preserve" font-family="HelveticaNeue-Bold,Helvetica Neue" font-weight="bold" font-size="56.3" fill="#FEFFFE" transform="matrix(1.00, 0.00, -0.00, -1.00, 188.1, 293.9)">a</text><text xml:space="preserve" font-family="HelveticaNeue-Bold,Helvetica Neue" font-weight="bold" font-size="56.3" fill="#FEFFFE" transform="matrix(1.00, 0.00, -0.00, -1.00, 220.5, 293.9)">r</text><text xml:space="preserve" font-family="HelveticaNeue-Bold,Helvetica Neue" font-weight="bold" font-size="56.3" fill="#FEFFFE" transform="matrix(1.00, 0.00, -0.00, -1.00, 242.4, 293.9)">l</text><text xml:space="preserve" font-family="HelveticaNeue-Bold,Helvetica Neue" font-weight="bold" font-size="56.3" fill="#FEFFFE" transform="matrix(1.00, 0.00, -0.00, -1.00, 256.9, 293.9)">y</text><text xml:space="preserve" font-family="HelveticaNeue-Bold,Helvetica Neue" font-weight="bold" font-size="56.3" fill="#FEFFFE" transform="matrix(1.00, 0.00, -0.00, -1.00, 286.1, 293.9)"> </text><text xml:space="preserve" font-family="HelveticaNeue-Bold,Helvetica Neue" font-weight="bold" font-size="56.3" fill="#FEFFFE" transform="matrix(1.00, 0.00, -0.00, -1.00, 301.8, 293.9)">s</text><text xml:space="preserve" font-family="HelveticaNeue-Bold,Helvetica Neue" font-weight="bold" font-size="56.3" fill="#FEFFFE" transform="matrix(1.00, 0.00, -0.00, -1.00, 332.0, 293.9)">t</text><text xml:space="preserve" font-family="HelveticaNeue-Bold,Helvetica Neue" font-weight="bold" font-size="56.3" fill="#FEFFFE" transform="matrix(1.00, 0.00, -0.00, -1.00, 351.9, 293.9)">a</text><text xml:space="preserve" font-family="HelveticaNeue-Bold,Helvetica Neue" font-weight="bold" font-size="56.3" fill="#FEFFFE" transform="matrix(1.00, 0.00, -0.00, -1.00, 384.2, 293.9)">g</text><text xml:space="preserve" font-family="HelveticaNeue-Bold,Helvetica Neue" font-weight="bold" font-size="56.3" fill="#FEFFFE" transform="matrix(1.00, 0.00, -0.00, -1.00, 418.6, 293.9)">e</text><text xml:space="preserve" font-family="HelveticaNeue-Bold,Helvetica Neue" font-weight="bold" font-size="56.3" fill="#FEFFFE" transform="matrix(1.00, 0.00, -0.00, -1.00, 450.9, 293.9)"> </text><text xml:space="preserve" font-family="HelveticaNeue-Bold,Helvetica Neue" font-weight="bold" font-size="56.3" fill="#FEFFFE" transform="matrix(1.00, 0.00, -0.00, -1.00, 466.6, 293.9)">b</text><text xml:space="preserve" font-family="HelveticaNeue-Bold,Helvetica Neue" font-weight="bold" font-size="56.3" fill="#FEFFFE" transform="matrix(1.00, 0.00, -0.00, -1.00, 501.0, 293.9)">r</text><text xml:space="preserve" font-family="HelveticaNeue-Bold,Helvetica Neue" font-weight="bold" font-size="56.3" fill="#FEFFFE" transform="matrix(1.00, 0.00, -0.00, -1.00, 521.9, 293.9)">e</text><text xml:space="preserve" font-family="HelveticaNeue-Bold,Helvetica Neue" font-weight="bold" font-size="56.3" fill="#FEFFFE" transform="matrix(1.00, 0.00, -0.00, -1.00, 554.2, 293.9)">a</text><text xml:space="preserve" font-family="HelveticaNeue-Bold,Helvetica Neue" font-weight="bold" font-size="56.3" fill="#FEFFFE" transform="matrix(1.00, 0.00, -0.00, -1.00, 586.5, 293.9)">s</text><text xml:space="preserve" font-family="HelveticaNeue-Bold,Helvetica Neue" font-weight="bold" font-size="56.3" fill="#FEFFFE" transform="matrix(1.00, 0.00, -0.00, -1.00, 616.8, 293.9)">t</text><text xml:space="preserve" font-family="HelveticaNeue-Bold,Helvetica Neue" font-weight="bold" font-size="56.3" fill="#FEFFFE" transform="matrix(1.00, 0.00, -0.00, -1.00, 636.6, 293.9)"> </text><text xml:space="preserve" font-family="HelveticaNeue-Bold,Helvetica Neue" font-weight="bold" font-size="56.3" fill="#FEFFFE" transform="matrix(1.00, 0.00, -0.00, -1.00, 652.3, 293.9)">c</text><text xml:space="preserve" font-family="HelveticaNeue-Bold,Helvetica Neue" font-weight="bold" font-size="56.3" fill="#FEFFFE" transform="matrix(1.00, 0.00, -0.00, -1.00, 684.6, 293.9)">a</text><text xml:space="preserve" font-family="HelveticaNeue-Bold,Helvetica Neue" font-weight="bold" font-size="56.3" fill="#FEFFFE" transform="matrix(1.00, 0.00, -0.00, -1.00, 716.9, 293.9)">n</text><text xml:space="preserve" font-family="HelveticaNeue-Bold,Helvetica Neue" font-weight="bold" font-size="56.3" fill="#FEFFFE" transform="matrix(1.00, 0.00, -0.00, -1.00, 750.3, 293.9)">c</text><text xml:space="preserve" font-family="HelveticaNeue-Bold,Helvetica Neue" font-weight="bold" font-size="56.3" fill="#FEFFFE" transform="matrix(1.00, 0.00, -0.00, -1.00, 782.6, 293.9)">e</text><text xml:space="preserve" font-family="HelveticaNeue-Bold,Helvetica Neue" font-weight="bold" font-size="56.3" fill="#FEFFFE" transform="matrix(1.00, 0.00, -0.00, -1.00, 815.0, 293.9)">r</text><text xml:space="preserve" font-family="HelveticaNeue-Bold,Helvetica Neue" font-weight="bold" font-size="56.3" fill="#FEFFFE" transform="matrix(1.00, 0.00, -0.00, -1.00, 836.9, 293.9)">?</text></g></svg>