<?xml version="1.0" encoding="UTF-8" standalone="no"?><svg xmlns="http://www.w3.org/2000/svg" xmlns:xlink="http://www.w3.org/1999/xlink" clip-rule="evenodd" stroke-miterlimit="10" viewBox="0 0 992 59"><desc>SVG generated by Keynote</desc><defs></defs><g transform="matrix(1.00, 0.00, -0.00, -1.00, 0.0, 59.0)"><image xlink:href="../../8B6F578B-AEB9-440E-AF52-B9F625C4696D/assets/A71547ACE83867AAEF4E5AA00E2449D3.png" width="183.00" height="28.00" transform="matrix(1.00, 0.00, -0.00, -1.00, 1.0, 57.0)"></image><text xml:space="preserve" font-family="HelveticaNeue-Medium,Helvetica Neue" font-size="22.0" fill="#EAEAEA" transform="matrix(1.00, 0.00, -0.00, -1.00, 5.9, 39.1)">Y</text><text xml:space="preserve" font-family="HelveticaNeue-Medium,Helvetica Neue" font-size="22.0" fill="#EAEAEA" transform="matrix(1.00, 0.00, -0.00, -1.00, 18.1, 39.1)">a</text><text xml:space="preserve" font-family="HelveticaNeue-Medium,Helvetica Neue" font-size="22.0" fill="#EAEAEA" transform="matrix(1.00, 0.00, -0.00, -1.00, 30.4, 39.1)">m</text><text xml:space="preserve" font-family="HelveticaNeue-Medium,Helvetica Neue" font-size="22.0" fill="#EAEAEA" transform="matrix(1.00, 0.00, -0.00, -1.00, 49.5, 39.1)">a</text><text xml:space="preserve" font-family="HelveticaNeue-Medium,Helvetica Neue" font-size="22.0" fill="#EAEAEA" transform="matrix(1.00, 0.00, -0.00, -1.00, 61.7, 39.1)">u</text><text xml:space="preserve" font-family="HelveticaNeue-Medium,Helvetica Neue" font-size="22.0" fill="#EAEAEA" transform="matrix(1.00, 0.00, -0.00, -1.00, 74.4, 39.1)">c</text><text xml:space="preserve" font-family="HelveticaNeue-Medium,Helvetica Neue" font-size="22.0" fill="#EAEAEA" transform="matrix(1.00, 0.00, -0.00, -1.00, 86.6, 39.1)">h</text><text xml:space="preserve" font-family="HelveticaNeue-Medium,Helvetica Neue" font-size="22.0" fill="#EAEAEA" transform="matrix(1.00, 0.00, -0.00, -1.00, 99.2, 39.1)">i</text><text xml:space="preserve" font-family="HelveticaNeue-Medium,Helvetica Neue" font-size="22.0" fill="#EAEAEA" transform="matrix(1.00, 0.00, -0.00, -1.00, 104.5, 39.1)"> </text><text xml:space="preserve" font-family="HelveticaNeue-Medium,Helvetica Neue" font-size="22.0" fill="#EAEAEA" transform="matrix(1.00, 0.00, -0.00, -1.00, 110.6, 39.1)">K</text><text xml:space="preserve" font-family="HelveticaNeue-Medium,Helvetica Neue" font-size="22.0" fill="#EAEAEA" transform="matrix(1.00, 0.00, -0.00, -1.00, 125.7, 39.1)">,</text><text xml:space="preserve" font-family="HelveticaNeue-Medium,Helvetica Neue" font-size="22.0" fill="#EAEAEA" transform="matrix(1.00, 0.00, -0.00, -1.00, 131.8, 39.1)"> </text><text xml:space="preserve" font-family="HelveticaNeue-Medium,Helvetica Neue" font-size="22.0" fill="#EAEAEA" transform="matrix(1.00, 0.00, -0.00, -1.00, 137.9, 39.1)">e</text><text xml:space="preserve" font-family="HelveticaNeue-Medium,Helvetica Neue" font-size="22.0" fill="#EAEAEA" transform="matrix(1.00, 0.00, -0.00, -1.00, 150.2, 39.1)">t</text><text xml:space="preserve" font-family="HelveticaNeue-Medium,Helvetica Neue" font-size="22.0" fill="#EAEAEA" transform="matrix(1.00, 0.00, -0.00, -1.00, 157.5, 39.1)"> </text><text xml:space="preserve" font-family="HelveticaNeue-Medium,Helvetica Neue" font-size="22.0" fill="#EAEAEA" transform="matrix(1.00, 0.00, -0.00, -1.00, 163.6, 39.1)">a</text><text xml:space="preserve" font-family="HelveticaNeue-Medium,Helvetica Neue" font-size="22.0" fill="#EAEAEA" transform="matrix(1.00, 0.00, -0.00, -1.00, 175.8, 39.1)">l</text><image xlink:href="../../8B6F578B-AEB9-440E-AF52-B9F625C4696D/assets/D8FA3D9F018D5F73FEEA8D8AF5CD8CFB.png" width="812.00" height="30.00" transform="matrix(1.00, 0.00, -0.00, -1.00, 178.0, 58.0)"></image><text xml:space="preserve" font-family="HelveticaNeue-Medium,Helvetica Neue" font-size="22.0" fill="#EAEAEA" transform="matrix(1.00, 0.00, -0.00, -1.00, 181.1, 39.1)">.</text><text xml:space="preserve" font-family="HelveticaNeue-Medium,Helvetica Neue" font-size="22.0" fill="#EAEAEA" transform="matrix(1.00, 0.00, -0.00, -1.00, 187.3, 39.1)"> </text><text xml:space="preserve" font-family="HelveticaNeue-Medium,Helvetica Neue" font-size="22.0" fill="#EAEAEA" transform="matrix(1.00, 0.00, -0.00, -1.00, 193.4, 39.1)">C</text><text xml:space="preserve" font-family="HelveticaNeue-Medium,Helvetica Neue" font-size="22.0" fill="#EAEAEA" transform="matrix(1.00, 0.00, -0.00, -1.00, 209.3, 39.1)">o</text><text xml:space="preserve" font-family="HelveticaNeue-Medium,Helvetica Neue" font-size="22.0" fill="#EAEAEA" transform="matrix(1.00, 0.00, -0.00, -1.00, 222.3, 39.1)">m</text><text xml:space="preserve" font-family="HelveticaNeue-Medium,Helvetica Neue" font-size="22.0" fill="#EAEAEA" transform="matrix(1.00, 0.00, -0.00, -1.00, 241.4, 39.1)">p</text><text xml:space="preserve" font-family="HelveticaNeue-Medium,Helvetica Neue" font-size="22.0" fill="#EAEAEA" transform="matrix(1.00, 0.00, -0.00, -1.00, 254.9, 39.1)">a</text><text xml:space="preserve" font-family="HelveticaNeue-Medium,Helvetica Neue" font-size="22.0" fill="#EAEAEA" transform="matrix(1.00, 0.00, -0.00, -1.00, 267.1, 39.1)">r</text><text xml:space="preserve" font-family="HelveticaNeue-Medium,Helvetica Neue" font-size="22.0" fill="#EAEAEA" transform="matrix(1.00, 0.00, -0.00, -1.00, 274.9, 39.1)">i</text><text xml:space="preserve" font-family="HelveticaNeue-Medium,Helvetica Neue" font-size="22.0" fill="#EAEAEA" transform="matrix(1.00, 0.00, -0.00, -1.00, 280.2, 39.1)">s</text><text xml:space="preserve" font-family="HelveticaNeue-Medium,Helvetica Neue" font-size="22.0" fill="#EAEAEA" transform="matrix(1.00, 0.00, -0.00, -1.00, 291.6, 39.1)">o</text><text xml:space="preserve" font-family="HelveticaNeue-Medium,Helvetica Neue" font-size="22.0" fill="#EAEAEA" transform="matrix(1.00, 0.00, -0.00, -1.00, 304.6, 39.1)">n</text><text xml:space="preserve" font-family="HelveticaNeue-Medium,Helvetica Neue" font-size="22.0" fill="#EAEAEA" transform="matrix(1.00, 0.00, -0.00, -1.00, 317.3, 39.1)"> </text><text xml:space="preserve" font-family="HelveticaNeue-Medium,Helvetica Neue" font-size="22.0" fill="#EAEAEA" transform="matrix(1.00, 0.00, -0.00, -1.00, 323.4, 39.1)">i</text><text xml:space="preserve" font-family="HelveticaNeue-Medium,Helvetica Neue" font-size="22.0" fill="#EAEAEA" transform="matrix(1.00, 0.00, -0.00, -1.00, 328.7, 39.1)">n</text><text xml:space="preserve" font-family="HelveticaNeue-Medium,Helvetica Neue" font-size="22.0" fill="#EAEAEA" transform="matrix(1.00, 0.00, -0.00, -1.00, 341.3, 39.1)"> </text><text xml:space="preserve" font-family="HelveticaNeue-Medium,Helvetica Neue" font-size="22.0" fill="#EAEAEA" transform="matrix(1.00, 0.00, -0.00, -1.00, 347.4, 39.1)">t</text><text xml:space="preserve" font-family="HelveticaNeue-Medium,Helvetica Neue" font-size="22.0" fill="#EAEAEA" transform="matrix(1.00, 0.00, -0.00, -1.00, 354.7, 39.1)">r</text><text xml:space="preserve" font-family="HelveticaNeue-Medium,Helvetica Neue" font-size="22.0" fill="#EAEAEA" transform="matrix(1.00, 0.00, -0.00, -1.00, 362.1, 39.1)">e</text><text xml:space="preserve" font-family="HelveticaNeue-Medium,Helvetica Neue" font-size="22.0" fill="#EAEAEA" transform="matrix(1.00, 0.00, -0.00, -1.00, 374.3, 39.1)">a</text><text xml:space="preserve" font-family="HelveticaNeue-Medium,Helvetica Neue" font-size="22.0" fill="#EAEAEA" transform="matrix(1.00, 0.00, -0.00, -1.00, 386.6, 39.1)">t</text><text xml:space="preserve" font-family="HelveticaNeue-Medium,Helvetica Neue" font-size="22.0" fill="#EAEAEA" transform="matrix(1.00, 0.00, -0.00, -1.00, 393.9, 39.1)">m</text><text xml:space="preserve" font-family="HelveticaNeue-Medium,Helvetica Neue" font-size="22.0" fill="#EAEAEA" transform="matrix(1.00, 0.00, -0.00, -1.00, 413.0, 39.1)">e</text><text xml:space="preserve" font-family="HelveticaNeue-Medium,Helvetica Neue" font-size="22.0" fill="#EAEAEA" transform="matrix(1.00, 0.00, -0.00, -1.00, 425.3, 39.1)">n</text><text xml:space="preserve" font-family="HelveticaNeue-Medium,Helvetica Neue" font-size="22.0" fill="#EAEAEA" transform="matrix(1.00, 0.00, -0.00, -1.00, 437.9, 39.1)">t</text><text xml:space="preserve" font-family="HelveticaNeue-Medium,Helvetica Neue" font-size="22.0" fill="#EAEAEA" transform="matrix(1.00, 0.00, -0.00, -1.00, 445.2, 39.1)">s</text><text xml:space="preserve" font-family="HelveticaNeue-Medium,Helvetica Neue" font-size="22.0" fill="#EAEAEA" transform="matrix(1.00, 0.00, -0.00, -1.00, 456.6, 39.1)"> </text><text xml:space="preserve" font-family="HelveticaNeue-Medium,Helvetica Neue" font-size="22.0" fill="#EAEAEA" transform="matrix(1.00, 0.00, -0.00, -1.00, 462.7, 39.1)">o</text><text xml:space="preserve" font-family="HelveticaNeue-Medium,Helvetica Neue" font-size="22.0" fill="#EAEAEA" transform="matrix(1.00, 0.00, -0.00, -1.00, 475.8, 39.1)">f</text><text xml:space="preserve" font-family="HelveticaNeue-Medium,Helvetica Neue" font-size="22.0" fill="#EAEAEA" transform="matrix(1.00, 0.00, -0.00, -1.00, 482.7, 39.1)"> </text><text xml:space="preserve" font-family="HelveticaNeue-Medium,Helvetica Neue" font-size="22.0" fill="#EAEAEA" transform="matrix(1.00, 0.00, -0.00, -1.00, 488.8, 39.1)">n</text><text xml:space="preserve" font-family="HelveticaNeue-Medium,Helvetica Neue" font-size="22.0" fill="#EAEAEA" transform="matrix(1.00, 0.00, -0.00, -1.00, 501.5, 39.1)">o</text><text xml:space="preserve" font-family="HelveticaNeue-Medium,Helvetica Neue" font-size="22.0" fill="#EAEAEA" transform="matrix(1.00, 0.00, -0.00, -1.00, 514.5, 39.1)">n</text><text xml:space="preserve" font-family="HelveticaNeue-Medium,Helvetica Neue" font-size="22.0" fill="#EAEAEA" transform="matrix(1.00, 0.00, -0.00, -1.00, 527.1, 39.1)">l</text><text xml:space="preserve" font-family="HelveticaNeue-Medium,Helvetica Neue" font-size="22.0" fill="#EAEAEA" transform="matrix(1.00, 0.00, -0.00, -1.00, 532.4, 39.1)">e</text><text xml:space="preserve" font-family="HelveticaNeue-Medium,Helvetica Neue" font-size="22.0" fill="#EAEAEA" transform="matrix(1.00, 0.00, -0.00, -1.00, 544.7, 39.1)">u</text><text xml:space="preserve" font-family="HelveticaNeue-Medium,Helvetica Neue" font-size="22.0" fill="#EAEAEA" transform="matrix(1.00, 0.00, -0.00, -1.00, 557.3, 39.1)">k</text><text xml:space="preserve" font-family="HelveticaNeue-Medium,Helvetica Neue" font-size="22.0" fill="#EAEAEA" transform="matrix(1.00, 0.00, -0.00, -1.00, 569.1, 39.1)">e</text><text xml:space="preserve" font-family="HelveticaNeue-Medium,Helvetica Neue" font-size="22.0" fill="#EAEAEA" transform="matrix(1.00, 0.00, -0.00, -1.00, 581.3, 39.1)">m</text><text xml:space="preserve" font-family="HelveticaNeue-Medium,Helvetica Neue" font-size="22.0" fill="#EAEAEA" transform="matrix(1.00, 0.00, -0.00, -1.00, 600.5, 39.1)">i</text><text xml:space="preserve" font-family="HelveticaNeue-Medium,Helvetica Neue" font-size="22.0" fill="#EAEAEA" transform="matrix(1.00, 0.00, -0.00, -1.00, 605.8, 39.1)">c</text><text xml:space="preserve" font-family="HelveticaNeue-Medium,Helvetica Neue" font-size="22.0" fill="#EAEAEA" transform="matrix(1.00, 0.00, -0.00, -1.00, 618.0, 39.1)"> </text><text xml:space="preserve" font-family="HelveticaNeue-Medium,Helvetica Neue" font-size="22.0" fill="#EAEAEA" transform="matrix(1.00, 0.00, -0.00, -1.00, 624.1, 39.1)">g</text><text xml:space="preserve" font-family="HelveticaNeue-Medium,Helvetica Neue" font-size="22.0" fill="#EAEAEA" transform="matrix(1.00, 0.00, -0.00, -1.00, 637.2, 39.1)">r</text><text xml:space="preserve" font-family="HelveticaNeue-Medium,Helvetica Neue" font-size="22.0" fill="#EAEAEA" transform="matrix(1.00, 0.00, -0.00, -1.00, 644.9, 39.1)">a</text><text xml:space="preserve" font-family="HelveticaNeue-Medium,Helvetica Neue" font-size="22.0" fill="#EAEAEA" transform="matrix(1.00, 0.00, -0.00, -1.00, 657.2, 39.1)">n</text><text xml:space="preserve" font-family="HelveticaNeue-Medium,Helvetica Neue" font-size="22.0" fill="#EAEAEA" transform="matrix(1.00, 0.00, -0.00, -1.00, 669.8, 39.1)">u</text><text xml:space="preserve" font-family="HelveticaNeue-Medium,Helvetica Neue" font-size="22.0" fill="#EAEAEA" transform="matrix(1.00, 0.00, -0.00, -1.00, 682.4, 39.1)">l</text><text xml:space="preserve" font-family="HelveticaNeue-Medium,Helvetica Neue" font-size="22.0" fill="#EAEAEA" transform="matrix(1.00, 0.00, -0.00, -1.00, 687.7, 39.1)">o</text><text xml:space="preserve" font-family="HelveticaNeue-Medium,Helvetica Neue" font-size="22.0" fill="#EAEAEA" transform="matrix(1.00, 0.00, -0.00, -1.00, 700.8, 39.1)">c</text><text xml:space="preserve" font-family="HelveticaNeue-Medium,Helvetica Neue" font-size="22.0" fill="#EAEAEA" transform="matrix(1.00, 0.00, -0.00, -1.00, 713.0, 39.1)">y</text><text xml:space="preserve" font-family="HelveticaNeue-Medium,Helvetica Neue" font-size="22.0" fill="#EAEAEA" transform="matrix(1.00, 0.00, -0.00, -1.00, 724.4, 39.1)">t</text><text xml:space="preserve" font-family="HelveticaNeue-Medium,Helvetica Neue" font-size="22.0" fill="#EAEAEA" transform="matrix(1.00, 0.00, -0.00, -1.00, 731.7, 39.1)">i</text><text xml:space="preserve" font-family="HelveticaNeue-Medium,Helvetica Neue" font-size="22.0" fill="#EAEAEA" transform="matrix(1.00, 0.00, -0.00, -1.00, 737.0, 39.1)">c</text><text xml:space="preserve" font-family="HelveticaNeue-Medium,Helvetica Neue" font-size="22.0" fill="#EAEAEA" transform="matrix(1.00, 0.00, -0.00, -1.00, 749.3, 39.1)"> </text><text xml:space="preserve" font-family="HelveticaNeue-Medium,Helvetica Neue" font-size="22.0" fill="#EAEAEA" transform="matrix(1.00, 0.00, -0.00, -1.00, 755.4, 39.1)">s</text><text xml:space="preserve" font-family="HelveticaNeue-Medium,Helvetica Neue" font-size="22.0" fill="#EAEAEA" transform="matrix(1.00, 0.00, -0.00, -1.00, 766.8, 39.1)">a</text><text xml:space="preserve" font-family="HelveticaNeue-Medium,Helvetica Neue" font-size="22.0" fill="#EAEAEA" transform="matrix(1.00, 0.00, -0.00, -1.00, 779.0, 39.1)">r</text><text xml:space="preserve" font-family="HelveticaNeue-Medium,Helvetica Neue" font-size="22.0" fill="#EAEAEA" transform="matrix(1.00, 0.00, -0.00, -1.00, 786.4, 39.1)">c</text><text xml:space="preserve" font-family="HelveticaNeue-Medium,Helvetica Neue" font-size="22.0" fill="#EAEAEA" transform="matrix(1.00, 0.00, -0.00, -1.00, 798.6, 39.1)">o</text><text xml:space="preserve" font-family="HelveticaNeue-Medium,Helvetica Neue" font-size="22.0" fill="#EAEAEA" transform="matrix(1.00, 0.00, -0.00, -1.00, 811.7, 39.1)">m</text><text xml:space="preserve" font-family="HelveticaNeue-Medium,Helvetica Neue" font-size="22.0" fill="#EAEAEA" transform="matrix(1.00, 0.00, -0.00, -1.00, 830.8, 39.1)">a</text><text xml:space="preserve" font-family="HelveticaNeue-Medium,Helvetica Neue" font-size="22.0" fill="#EAEAEA" transform="matrix(1.00, 0.00, -0.00, -1.00, 843.0, 39.1)">:</text><text xml:space="preserve" font-family="HelveticaNeue-Medium,Helvetica Neue" font-size="22.0" fill="#EAEAEA" transform="matrix(1.00, 0.00, -0.00, -1.00, 849.2, 39.1)"> </text><text xml:space="preserve" font-family="HelveticaNeue-Medium,Helvetica Neue" font-size="22.0" fill="#EAEAEA" transform="matrix(1.00, 0.00, -0.00, -1.00, 855.3, 39.1)">r</text><text xml:space="preserve" font-family="HelveticaNeue-Medium,Helvetica Neue" font-size="22.0" fill="#EAEAEA" transform="matrix(1.00, 0.00, -0.00, -1.00, 862.6, 39.1)">e</text><text xml:space="preserve" font-family="HelveticaNeue-Medium,Helvetica Neue" font-size="22.0" fill="#EAEAEA" transform="matrix(1.00, 0.00, -0.00, -1.00, 874.9, 39.1)">p</text><text xml:space="preserve" font-family="HelveticaNeue-Medium,Helvetica Neue" font-size="22.0" fill="#EAEAEA" transform="matrix(1.00, 0.00, -0.00, -1.00, 888.3, 39.1)">o</text><text xml:space="preserve" font-family="HelveticaNeue-Medium,Helvetica Neue" font-size="22.0" fill="#EAEAEA" transform="matrix(1.00, 0.00, -0.00, -1.00, 901.3, 39.1)">r</text><text xml:space="preserve" font-family="HelveticaNeue-Medium,Helvetica Neue" font-size="22.0" fill="#EAEAEA" transform="matrix(1.00, 0.00, -0.00, -1.00, 909.1, 39.1)">t</text><text xml:space="preserve" font-family="HelveticaNeue-Medium,Helvetica Neue" font-size="22.0" fill="#EAEAEA" transform="matrix(1.00, 0.00, -0.00, -1.00, 916.4, 39.1)"> </text><text xml:space="preserve" font-family="HelveticaNeue-Medium,Helvetica Neue" font-size="22.0" fill="#EAEAEA" transform="matrix(1.00, 0.00, -0.00, -1.00, 922.5, 39.1)">o</text><text xml:space="preserve" font-family="HelveticaNeue-Medium,Helvetica Neue" font-size="22.0" fill="#EAEAEA" transform="matrix(1.00, 0.00, -0.00, -1.00, 935.6, 39.1)">f</text><text xml:space="preserve" font-family="HelveticaNeue-Medium,Helvetica Neue" font-size="22.0" fill="#EAEAEA" transform="matrix(1.00, 0.00, -0.00, -1.00, 942.5, 39.1)"> </text><text xml:space="preserve" font-family="HelveticaNeue-Medium,Helvetica Neue" font-size="22.0" fill="#EAEAEA" transform="matrix(1.00, 0.00, -0.00, -1.00, 948.6, 39.1)">t</text><text xml:space="preserve" font-family="HelveticaNeue-Medium,Helvetica Neue" font-size="22.0" fill="#EAEAEA" transform="matrix(1.00, 0.00, -0.00, -1.00, 955.9, 39.1)">w</text><text xml:space="preserve" font-family="HelveticaNeue-Medium,Helvetica Neue" font-size="22.0" fill="#EAEAEA" transform="matrix(1.00, 0.00, -0.00, -1.00, 973.1, 39.1)">o</text><text xml:space="preserve" font-family="HelveticaNeue-Medium,Helvetica Neue" font-size="22.0" fill="#EAEAEA" transform="matrix(1.00, 0.00, -0.00, -1.00, 986.1, 39.1)"> </text><image xlink:href="../../8B6F578B-AEB9-440E-AF52-B9F625C4696D/assets/2C7F12A8E9483FE6F45D6B1B68FCE764.png" width="853.00" height="30.00" transform="matrix(1.00, 0.00, -0.00, -1.00, 69.0, 31.0)"></image><text xml:space="preserve" font-family="HelveticaNeue-Medium,Helvetica Neue" font-size="22.0" fill="#EAEAEA" transform="matrix(1.00, 0.00, -0.00, -1.00, 72.6, 12.1)">c</text><text xml:space="preserve" font-family="HelveticaNeue-Medium,Helvetica Neue" font-size="22.0" fill="#EAEAEA" transform="matrix(1.00, 0.00, -0.00, -1.00, 84.9, 12.1)">a</text><text xml:space="preserve" font-family="HelveticaNeue-Medium,Helvetica Neue" font-size="22.0" fill="#EAEAEA" transform="matrix(1.00, 0.00, -0.00, -1.00, 97.1, 12.1)">s</text><text xml:space="preserve" font-family="HelveticaNeue-Medium,Helvetica Neue" font-size="22.0" fill="#EAEAEA" transform="matrix(1.00, 0.00, -0.00, -1.00, 108.5, 12.1)">e</text><text xml:space="preserve" font-family="HelveticaNeue-Medium,Helvetica Neue" font-size="22.0" fill="#EAEAEA" transform="matrix(1.00, 0.00, -0.00, -1.00, 120.7, 12.1)">s</text><text xml:space="preserve" font-family="HelveticaNeue-Medium,Helvetica Neue" font-size="22.0" fill="#EAEAEA" transform="matrix(1.00, 0.00, -0.00, -1.00, 132.2, 12.1)"> </text><text xml:space="preserve" font-family="HelveticaNeue-Medium,Helvetica Neue" font-size="22.0" fill="#EAEAEA" transform="matrix(1.00, 0.00, -0.00, -1.00, 138.3, 12.1)">a</text><text xml:space="preserve" font-family="HelveticaNeue-Medium,Helvetica Neue" font-size="22.0" fill="#EAEAEA" transform="matrix(1.00, 0.00, -0.00, -1.00, 150.5, 12.1)">n</text><text xml:space="preserve" font-family="HelveticaNeue-Medium,Helvetica Neue" font-size="22.0" fill="#EAEAEA" transform="matrix(1.00, 0.00, -0.00, -1.00, 163.1, 12.1)">d</text><text xml:space="preserve" font-family="HelveticaNeue-Medium,Helvetica Neue" font-size="22.0" fill="#EAEAEA" transform="matrix(1.00, 0.00, -0.00, -1.00, 176.6, 12.1)"> </text><text xml:space="preserve" font-family="HelveticaNeue-Medium,Helvetica Neue" font-size="22.0" fill="#EAEAEA" transform="matrix(1.00, 0.00, -0.00, -1.00, 182.7, 12.1)">a</text><text xml:space="preserve" font-family="HelveticaNeue-Medium,Helvetica Neue" font-size="22.0" fill="#EAEAEA" transform="matrix(1.00, 0.00, -0.00, -1.00, 194.9, 12.1)"> </text><text xml:space="preserve" font-family="HelveticaNeue-Medium,Helvetica Neue" font-size="22.0" fill="#EAEAEA" transform="matrix(1.00, 0.00, -0.00, -1.00, 201.0, 12.1)">r</text><text xml:space="preserve" font-family="HelveticaNeue-Medium,Helvetica Neue" font-size="22.0" fill="#EAEAEA" transform="matrix(1.00, 0.00, -0.00, -1.00, 208.4, 12.1)">e</text><text xml:space="preserve" font-family="HelveticaNeue-Medium,Helvetica Neue" font-size="22.0" fill="#EAEAEA" transform="matrix(1.00, 0.00, -0.00, -1.00, 220.6, 12.1)">v</text><text xml:space="preserve" font-family="HelveticaNeue-Medium,Helvetica Neue" font-size="22.0" fill="#EAEAEA" transform="matrix(1.00, 0.00, -0.00, -1.00, 232.0, 12.1)">i</text><text xml:space="preserve" font-family="HelveticaNeue-Medium,Helvetica Neue" font-size="22.0" fill="#EAEAEA" transform="matrix(1.00, 0.00, -0.00, -1.00, 237.3, 12.1)">e</text><text xml:space="preserve" font-family="HelveticaNeue-Medium,Helvetica Neue" font-size="22.0" fill="#EAEAEA" transform="matrix(1.00, 0.00, -0.00, -1.00, 249.6, 12.1)">w</text><text xml:space="preserve" font-family="HelveticaNeue-Medium,Helvetica Neue" font-size="22.0" fill="#EAEAEA" transform="matrix(1.00, 0.00, -0.00, -1.00, 266.7, 12.1)"> </text><text xml:space="preserve" font-family="HelveticaNeue-Medium,Helvetica Neue" font-size="22.0" fill="#EAEAEA" transform="matrix(1.00, 0.00, -0.00, -1.00, 272.8, 12.1)">o</text><text xml:space="preserve" font-family="HelveticaNeue-Medium,Helvetica Neue" font-size="22.0" fill="#EAEAEA" transform="matrix(1.00, 0.00, -0.00, -1.00, 285.9, 12.1)">f</text><text xml:space="preserve" font-family="HelveticaNeue-Medium,Helvetica Neue" font-size="22.0" fill="#EAEAEA" transform="matrix(1.00, 0.00, -0.00, -1.00, 292.8, 12.1)"> </text><text xml:space="preserve" font-family="HelveticaNeue-Medium,Helvetica Neue" font-size="22.0" fill="#EAEAEA" transform="matrix(1.00, 0.00, -0.00, -1.00, 298.9, 12.1)">7</text><text xml:space="preserve" font-family="HelveticaNeue-Medium,Helvetica Neue" font-size="22.0" fill="#EAEAEA" transform="matrix(1.00, 0.00, -0.00, -1.00, 311.1, 12.1)">2</text><text xml:space="preserve" font-family="HelveticaNeue-Medium,Helvetica Neue" font-size="22.0" fill="#EAEAEA" transform="matrix(1.00, 0.00, -0.00, -1.00, 323.4, 12.1)"> </text><text xml:space="preserve" font-family="HelveticaNeue-Medium,Helvetica Neue" font-size="22.0" fill="#EAEAEA" transform="matrix(1.00, 0.00, -0.00, -1.00, 329.5, 12.1)">c</text><text xml:space="preserve" font-family="HelveticaNeue-Medium,Helvetica Neue" font-size="22.0" fill="#EAEAEA" transform="matrix(1.00, 0.00, -0.00, -1.00, 341.7, 12.1)">a</text><text xml:space="preserve" font-family="HelveticaNeue-Medium,Helvetica Neue" font-size="22.0" fill="#EAEAEA" transform="matrix(1.00, 0.00, -0.00, -1.00, 353.9, 12.1)">s</text><text xml:space="preserve" font-family="HelveticaNeue-Medium,Helvetica Neue" font-size="22.0" fill="#EAEAEA" transform="matrix(1.00, 0.00, -0.00, -1.00, 365.4, 12.1)">e</text><text xml:space="preserve" font-family="HelveticaNeue-Medium,Helvetica Neue" font-size="22.0" fill="#EAEAEA" transform="matrix(1.00, 0.00, -0.00, -1.00, 377.6, 12.1)">s</text><text xml:space="preserve" font-family="HelveticaNeue-Medium,Helvetica Neue" font-size="22.0" fill="#EAEAEA" transform="matrix(1.00, 0.00, -0.00, -1.00, 389.0, 12.1)"> </text><text xml:space="preserve" font-family="HelveticaNeue-Medium,Helvetica Neue" font-size="22.0" fill="#EAEAEA" transform="matrix(1.00, 0.00, -0.00, -1.00, 395.1, 12.1)">i</text><text xml:space="preserve" font-family="HelveticaNeue-Medium,Helvetica Neue" font-size="22.0" fill="#EAEAEA" transform="matrix(1.00, 0.00, -0.00, -1.00, 400.4, 12.1)">n</text><text xml:space="preserve" font-family="HelveticaNeue-Medium,Helvetica Neue" font-size="22.0" fill="#EAEAEA" transform="matrix(1.00, 0.00, -0.00, -1.00, 413.1, 12.1)"> </text><text xml:space="preserve" font-family="HelveticaNeue-Medium,Helvetica Neue" font-size="22.0" fill="#EAEAEA" transform="matrix(1.00, 0.00, -0.00, -1.00, 419.2, 12.1)">t</text><text xml:space="preserve" font-family="HelveticaNeue-Medium,Helvetica Neue" font-size="22.0" fill="#EAEAEA" transform="matrix(1.00, 0.00, -0.00, -1.00, 426.5, 12.1)">h</text><text xml:space="preserve" font-family="HelveticaNeue-Medium,Helvetica Neue" font-size="22.0" fill="#EAEAEA" transform="matrix(1.00, 0.00, -0.00, -1.00, 439.1, 12.1)">e</text><text xml:space="preserve" font-family="HelveticaNeue-Medium,Helvetica Neue" font-size="22.0" fill="#EAEAEA" transform="matrix(1.00, 0.00, -0.00, -1.00, 451.4, 12.1)"> </text><text xml:space="preserve" font-family="HelveticaNeue-Medium,Helvetica Neue" font-size="22.0" fill="#EAEAEA" transform="matrix(1.00, 0.00, -0.00, -1.00, 457.5, 12.1)">l</text><text xml:space="preserve" font-family="HelveticaNeue-Medium,Helvetica Neue" font-size="22.0" fill="#EAEAEA" transform="matrix(1.00, 0.00, -0.00, -1.00, 462.8, 12.1)">i</text><text xml:space="preserve" font-family="HelveticaNeue-Medium,Helvetica Neue" font-size="22.0" fill="#EAEAEA" transform="matrix(1.00, 0.00, -0.00, -1.00, 468.1, 12.1)">t</text><text xml:space="preserve" font-family="HelveticaNeue-Medium,Helvetica Neue" font-size="22.0" fill="#EAEAEA" transform="matrix(1.00, 0.00, -0.00, -1.00, 475.4, 12.1)">e</text><text xml:space="preserve" font-family="HelveticaNeue-Medium,Helvetica Neue" font-size="22.0" fill="#EAEAEA" transform="matrix(1.00, 0.00, -0.00, -1.00, 487.6, 12.1)">r</text><text xml:space="preserve" font-family="HelveticaNeue-Medium,Helvetica Neue" font-size="22.0" fill="#EAEAEA" transform="matrix(1.00, 0.00, -0.00, -1.00, 495.4, 12.1)">a</text><text xml:space="preserve" font-family="HelveticaNeue-Medium,Helvetica Neue" font-size="22.0" fill="#EAEAEA" transform="matrix(1.00, 0.00, -0.00, -1.00, 507.6, 12.1)">t</text><text xml:space="preserve" font-family="HelveticaNeue-Medium,Helvetica Neue" font-size="22.0" fill="#EAEAEA" transform="matrix(1.00, 0.00, -0.00, -1.00, 514.9, 12.1)">u</text><text xml:space="preserve" font-family="HelveticaNeue-Medium,Helvetica Neue" font-size="22.0" fill="#EAEAEA" transform="matrix(1.00, 0.00, -0.00, -1.00, 527.6, 12.1)">r</text><text xml:space="preserve" font-family="HelveticaNeue-Medium,Helvetica Neue" font-size="22.0" fill="#EAEAEA" transform="matrix(1.00, 0.00, -0.00, -1.00, 534.9, 12.1)">e</text><text xml:space="preserve" font-family="HelveticaNeue-Medium,Helvetica Neue" font-size="22.0" fill="#EAEAEA" transform="matrix(1.00, 0.00, -0.00, -1.00, 547.1, 12.1)">.</text><text xml:space="preserve" font-family="HelveticaNeue-Medium,Helvetica Neue" font-size="22.0" fill="#EAEAEA" transform="matrix(1.00, 0.00, -0.00, -1.00, 553.3, 12.1)"> </text><text xml:space="preserve" font-family="HelveticaNeue-Medium,Helvetica Neue" font-size="22.0" fill="#EAEAEA" transform="matrix(1.00, 0.00, -0.00, -1.00, 559.4, 12.1)">C</text><text xml:space="preserve" font-family="HelveticaNeue-Medium,Helvetica Neue" font-size="22.0" fill="#EAEAEA" transform="matrix(1.00, 0.00, -0.00, -1.00, 575.3, 12.1)">a</text><text xml:space="preserve" font-family="HelveticaNeue-Medium,Helvetica Neue" font-size="22.0" fill="#EAEAEA" transform="matrix(1.00, 0.00, -0.00, -1.00, 587.5, 12.1)">n</text><text xml:space="preserve" font-family="HelveticaNeue-Medium,Helvetica Neue" font-size="22.0" fill="#EAEAEA" transform="matrix(1.00, 0.00, -0.00, -1.00, 600.1, 12.1)">c</text><text xml:space="preserve" font-family="HelveticaNeue-Medium,Helvetica Neue" font-size="22.0" fill="#EAEAEA" transform="matrix(1.00, 0.00, -0.00, -1.00, 612.4, 12.1)">e</text><text xml:space="preserve" font-family="HelveticaNeue-Medium,Helvetica Neue" font-size="22.0" fill="#EAEAEA" transform="matrix(1.00, 0.00, -0.00, -1.00, 624.6, 12.1)">r</text><text xml:space="preserve" font-family="HelveticaNeue-Medium,Helvetica Neue" font-size="22.0" fill="#EAEAEA" transform="matrix(1.00, 0.00, -0.00, -1.00, 630.3, 12.1)">.</text><text xml:space="preserve" font-family="HelveticaNeue-Medium,Helvetica Neue" font-size="22.0" fill="#EAEAEA" transform="matrix(1.00, 0.00, -0.00, -1.00, 636.4, 12.1)"> </text><text xml:space="preserve" font-family="HelveticaNeue-Medium,Helvetica Neue" font-size="22.0" fill="#EAEAEA" transform="matrix(1.00, 0.00, -0.00, -1.00, 642.5, 12.1)">2</text><text xml:space="preserve" font-family="HelveticaNeue-Medium,Helvetica Neue" font-size="22.0" fill="#EAEAEA" transform="matrix(1.00, 0.00, -0.00, -1.00, 654.8, 12.1)">0</text><text xml:space="preserve" font-family="HelveticaNeue-Medium,Helvetica Neue" font-size="22.0" fill="#EAEAEA" transform="matrix(1.00, 0.00, -0.00, -1.00, 667.0, 12.1)">0</text><text xml:space="preserve" font-family="HelveticaNeue-Medium,Helvetica Neue" font-size="22.0" fill="#EAEAEA" transform="matrix(1.00, 0.00, -0.00, -1.00, 679.2, 12.1)">2</text><text xml:space="preserve" font-family="HelveticaNeue-Medium,Helvetica Neue" font-size="22.0" fill="#EAEAEA" transform="matrix(1.00, 0.00, -0.00, -1.00, 691.5, 12.1)"> </text><text xml:space="preserve" font-family="HelveticaNeue-Medium,Helvetica Neue" font-size="22.0" fill="#EAEAEA" transform="matrix(1.00, 0.00, -0.00, -1.00, 697.6, 12.1)">M</text><text xml:space="preserve" font-family="HelveticaNeue-Medium,Helvetica Neue" font-size="22.0" fill="#EAEAEA" transform="matrix(1.00, 0.00, -0.00, -1.00, 717.1, 12.1)">a</text><text xml:space="preserve" font-family="HelveticaNeue-Medium,Helvetica Neue" font-size="22.0" fill="#EAEAEA" transform="matrix(1.00, 0.00, -0.00, -1.00, 729.4, 12.1)">r</text><text xml:space="preserve" font-family="HelveticaNeue-Medium,Helvetica Neue" font-size="22.0" fill="#EAEAEA" transform="matrix(1.00, 0.00, -0.00, -1.00, 737.1, 12.1)"> </text><text xml:space="preserve" font-family="HelveticaNeue-Medium,Helvetica Neue" font-size="22.0" fill="#EAEAEA" transform="matrix(1.00, 0.00, -0.00, -1.00, 743.2, 12.1)">1</text><text xml:space="preserve" font-family="HelveticaNeue-Medium,Helvetica Neue" font-size="22.0" fill="#EAEAEA" transform="matrix(1.00, 0.00, -0.00, -1.00, 755.5, 12.1)">5</text><text xml:space="preserve" font-family="HelveticaNeue-Medium,Helvetica Neue" font-size="22.0" fill="#EAEAEA" transform="matrix(1.00, 0.00, -0.00, -1.00, 767.7, 12.1)">;</text><text xml:space="preserve" font-family="HelveticaNeue-Medium,Helvetica Neue" font-size="22.0" fill="#EAEAEA" transform="matrix(1.00, 0.00, -0.00, -1.00, 773.8, 12.1)">9</text><text xml:space="preserve" font-family="HelveticaNeue-Medium,Helvetica Neue" font-size="22.0" fill="#EAEAEA" transform="matrix(1.00, 0.00, -0.00, -1.00, 786.0, 12.1)">4</text><text xml:space="preserve" font-family="HelveticaNeue-Medium,Helvetica Neue" font-size="22.0" fill="#EAEAEA" transform="matrix(1.00, 0.00, -0.00, -1.00, 798.3, 12.1)">(</text><text xml:space="preserve" font-family="HelveticaNeue-Medium,Helvetica Neue" font-size="22.0" fill="#EAEAEA" transform="matrix(1.00, 0.00, -0.00, -1.00, 804.4, 12.1)">6</text><text xml:space="preserve" font-family="HelveticaNeue-Medium,Helvetica Neue" font-size="22.0" fill="#EAEAEA" transform="matrix(1.00, 0.00, -0.00, -1.00, 816.6, 12.1)">)</text><text xml:space="preserve" font-family="HelveticaNeue-Medium,Helvetica Neue" font-size="22.0" fill="#EAEAEA" transform="matrix(1.00, 0.00, -0.00, -1.00, 822.7, 12.1)">:</text><text xml:space="preserve" font-family="HelveticaNeue-Medium,Helvetica Neue" font-size="22.0" fill="#EAEAEA" transform="matrix(1.00, 0.00, -0.00, -1.00, 828.9, 12.1)">1</text><text xml:space="preserve" font-family="HelveticaNeue-Medium,Helvetica Neue" font-size="22.0" fill="#EAEAEA" transform="matrix(1.00, 0.00, -0.00, -1.00, 841.1, 12.1)">7</text><text xml:space="preserve" font-family="HelveticaNeue-Medium,Helvetica Neue" font-size="22.0" fill="#EAEAEA" transform="matrix(1.00, 0.00, -0.00, -1.00, 853.3, 12.1)">3</text><text xml:space="preserve" font-family="HelveticaNeue-Medium,Helvetica Neue" font-size="22.0" fill="#EAEAEA" transform="matrix(1.00, 0.00, -0.00, -1.00, 865.6, 12.1)">9</text><text xml:space="preserve" font-family="HelveticaNeue-Medium,Helvetica Neue" font-size="22.0" fill="#EAEAEA" transform="matrix(1.00, 0.00, -0.00, -1.00, 877.8, 12.1)">–</text><text xml:space="preserve" font-family="HelveticaNeue-Medium,Helvetica Neue" font-size="22.0" fill="#EAEAEA" transform="matrix(1.00, 0.00, -0.00, -1.00, 888.8, 12.1)">4</text><text xml:space="preserve" font-family="HelveticaNeue-Medium,Helvetica Neue" font-size="22.0" fill="#EAEAEA" transform="matrix(1.00, 0.00, -0.00, -1.00, 901.0, 12.1)">6</text><text xml:space="preserve" font-family="HelveticaNeue-Medium,Helvetica Neue" font-size="22.0" fill="#EAEAEA" transform="matrix(1.00, 0.00, -0.00, -1.00, 913.3, 12.1)">.</text><text xml:space="preserve" font-family="HelveticaNeue-Medium,Helvetica Neue" font-size="22.0" fill="#EAEAEA" transform="matrix(1.00, 0.00, -0.00, -1.00, 919.4, 12.1)"> </text></g></svg>