<?xml version="1.0" encoding="UTF-8" standalone="no"?><svg xmlns="http://www.w3.org/2000/svg" xmlns:xlink="http://www.w3.org/1999/xlink" clip-rule="evenodd" stroke-miterlimit="10" viewBox="0 0 1024 768"><desc>SVG generated by Keynote</desc><defs></defs><g transform="matrix(1.00, 0.00, -0.00, -1.00, 0.0, 768.0)"><g><clipPath id="clip0x6080012af600"><path d="M 0.0 768.0 L 1024.0 768.0 L 1024.0 0.0 L 0.0 0.0 Z M 0.0 768.0 "></path></clipPath><g clip-path="url(#clip0x6080012af600)"><image xlink:href="../../BE4D2DDB-FBE4-467E-AE38-B34F9028D09E/assets/31D284A5C75E14674D2A89FDB99F8048.jpeg" width="2048.00" height="1536.00" transform="matrix(0.50, 0.00, -0.00, -0.50, 0.0, 768.0)"></image></g></g><g><clipPath id="clip0x6080012af3c0"><path d="M 214.0 750.0 L 810.0 750.0 L 810.0 112.0 L 214.0 112.0 Z M 213.8 750.0 "></path></clipPath><g clip-path="url(#clip0x6080012af3c0)"><image xlink:href="../../8B6F578B-AEB9-440E-AF52-B9F625C4696D/assets/8A28F5F7A9B35E15545168FCC553763E.png" width="910.00" height="974.00" transform="matrix(0.65, 0.00, -0.00, -0.66, 214.0, 750.0)"></image></g></g><image xlink:href="../../8B6F578B-AEB9-440E-AF52-B9F625C4696D/assets/38B82807C7FCD2F3A8E9CFA5094EE367.png" width="641.00" height="688.00" transform="matrix(1.00, 0.00, -0.00, 1.00, 191.8, 87.6)"></image><image xlink:href="../../8B6F578B-AEB9-440E-AF52-B9F625C4696D/assets/A71547ACE83867AAEF4E5AA00E2449D3.png" width="183.00" height="28.00" transform="matrix(1.00, 0.00, -0.00, -1.00, 17.0, 85.0)"></image><text xml:space="preserve" font-family="HelveticaNeue-Medium,Helvetica Neue" font-size="22.0" fill="#EAEAEA" transform="matrix(1.00, 0.00, -0.00, -1.00, 21.9, 67.1)">Y</text><text xml:space="preserve" font-family="HelveticaNeue-Medium,Helvetica Neue" font-size="22.0" fill="#EAEAEA" transform="matrix(1.00, 0.00, -0.00, -1.00, 34.1, 67.1)">a</text><text xml:space="preserve" font-family="HelveticaNeue-Medium,Helvetica Neue" font-size="22.0" fill="#EAEAEA" transform="matrix(1.00, 0.00, -0.00, -1.00, 46.4, 67.1)">m</text><text xml:space="preserve" font-family="HelveticaNeue-Medium,Helvetica Neue" font-size="22.0" fill="#EAEAEA" transform="matrix(1.00, 0.00, -0.00, -1.00, 65.5, 67.1)">a</text><text xml:space="preserve" font-family="HelveticaNeue-Medium,Helvetica Neue" font-size="22.0" fill="#EAEAEA" transform="matrix(1.00, 0.00, -0.00, -1.00, 77.7, 67.1)">u</text><text xml:space="preserve" font-family="HelveticaNeue-Medium,Helvetica Neue" font-size="22.0" fill="#EAEAEA" transform="matrix(1.00, 0.00, -0.00, -1.00, 90.4, 67.1)">c</text><text xml:space="preserve" font-family="HelveticaNeue-Medium,Helvetica Neue" font-size="22.0" fill="#EAEAEA" transform="matrix(1.00, 0.00, -0.00, -1.00, 102.6, 67.1)">h</text><text xml:space="preserve" font-family="HelveticaNeue-Medium,Helvetica Neue" font-size="22.0" fill="#EAEAEA" transform="matrix(1.00, 0.00, -0.00, -1.00, 115.2, 67.1)">i</text><text xml:space="preserve" font-family="HelveticaNeue-Medium,Helvetica Neue" font-size="22.0" fill="#EAEAEA" transform="matrix(1.00, 0.00, -0.00, -1.00, 120.5, 67.1)"> </text><text xml:space="preserve" font-family="HelveticaNeue-Medium,Helvetica Neue" font-size="22.0" fill="#EAEAEA" transform="matrix(1.00, 0.00, -0.00, -1.00, 126.6, 67.1)">K</text><text xml:space="preserve" font-family="HelveticaNeue-Medium,Helvetica Neue" font-size="22.0" fill="#EAEAEA" transform="matrix(1.00, 0.00, -0.00, -1.00, 141.7, 67.1)">,</text><text xml:space="preserve" font-family="HelveticaNeue-Medium,Helvetica Neue" font-size="22.0" fill="#EAEAEA" transform="matrix(1.00, 0.00, -0.00, -1.00, 147.8, 67.1)"> </text><text xml:space="preserve" font-family="HelveticaNeue-Medium,Helvetica Neue" font-size="22.0" fill="#EAEAEA" transform="matrix(1.00, 0.00, -0.00, -1.00, 153.9, 67.1)">e</text><text xml:space="preserve" font-family="HelveticaNeue-Medium,Helvetica Neue" font-size="22.0" fill="#EAEAEA" transform="matrix(1.00, 0.00, -0.00, -1.00, 166.2, 67.1)">t</text><text xml:space="preserve" font-family="HelveticaNeue-Medium,Helvetica Neue" font-size="22.0" fill="#EAEAEA" transform="matrix(1.00, 0.00, -0.00, -1.00, 173.5, 67.1)"> </text><text xml:space="preserve" font-family="HelveticaNeue-Medium,Helvetica Neue" font-size="22.0" fill="#EAEAEA" transform="matrix(1.00, 0.00, -0.00, -1.00, 179.6, 67.1)">a</text><text xml:space="preserve" font-family="HelveticaNeue-Medium,Helvetica Neue" font-size="22.0" fill="#EAEAEA" transform="matrix(1.00, 0.00, -0.00, -1.00, 191.8, 67.1)">l</text><image xlink:href="../../8B6F578B-AEB9-440E-AF52-B9F625C4696D/assets/D8FA3D9F018D5F73FEEA8D8AF5CD8CFB.png" width="812.00" height="30.00" transform="matrix(1.00, 0.00, -0.00, -1.00, 194.0, 86.0)"></image><text xml:space="preserve" font-family="HelveticaNeue-Medium,Helvetica Neue" font-size="22.0" fill="#EAEAEA" transform="matrix(1.00, 0.00, -0.00, -1.00, 197.1, 67.1)">.</text><text xml:space="preserve" font-family="HelveticaNeue-Medium,Helvetica Neue" font-size="22.0" fill="#EAEAEA" transform="matrix(1.00, 0.00, -0.00, -1.00, 203.3, 67.1)"> </text><text xml:space="preserve" font-family="HelveticaNeue-Medium,Helvetica Neue" font-size="22.0" fill="#EAEAEA" transform="matrix(1.00, 0.00, -0.00, -1.00, 209.4, 67.1)">C</text><text xml:space="preserve" font-family="HelveticaNeue-Medium,Helvetica Neue" font-size="22.0" fill="#EAEAEA" transform="matrix(1.00, 0.00, -0.00, -1.00, 225.3, 67.1)">o</text><text xml:space="preserve" font-family="HelveticaNeue-Medium,Helvetica Neue" font-size="22.0" fill="#EAEAEA" transform="matrix(1.00, 0.00, -0.00, -1.00, 238.3, 67.1)">m</text><text xml:space="preserve" font-family="HelveticaNeue-Medium,Helvetica Neue" font-size="22.0" fill="#EAEAEA" transform="matrix(1.00, 0.00, -0.00, -1.00, 257.4, 67.1)">p</text><text xml:space="preserve" font-family="HelveticaNeue-Medium,Helvetica Neue" font-size="22.0" fill="#EAEAEA" transform="matrix(1.00, 0.00, -0.00, -1.00, 270.9, 67.1)">a</text><text xml:space="preserve" font-family="HelveticaNeue-Medium,Helvetica Neue" font-size="22.0" fill="#EAEAEA" transform="matrix(1.00, 0.00, -0.00, -1.00, 283.1, 67.1)">r</text><text xml:space="preserve" font-family="HelveticaNeue-Medium,Helvetica Neue" font-size="22.0" fill="#EAEAEA" transform="matrix(1.00, 0.00, -0.00, -1.00, 290.9, 67.1)">i</text><text xml:space="preserve" font-family="HelveticaNeue-Medium,Helvetica Neue" font-size="22.0" fill="#EAEAEA" transform="matrix(1.00, 0.00, -0.00, -1.00, 296.2, 67.1)">s</text><text xml:space="preserve" font-family="HelveticaNeue-Medium,Helvetica Neue" font-size="22.0" fill="#EAEAEA" transform="matrix(1.00, 0.00, -0.00, -1.00, 307.6, 67.1)">o</text><text xml:space="preserve" font-family="HelveticaNeue-Medium,Helvetica Neue" font-size="22.0" fill="#EAEAEA" transform="matrix(1.00, 0.00, -0.00, -1.00, 320.6, 67.1)">n</text><text xml:space="preserve" font-family="HelveticaNeue-Medium,Helvetica Neue" font-size="22.0" fill="#EAEAEA" transform="matrix(1.00, 0.00, -0.00, -1.00, 333.3, 67.1)"> </text><text xml:space="preserve" font-family="HelveticaNeue-Medium,Helvetica Neue" font-size="22.0" fill="#EAEAEA" transform="matrix(1.00, 0.00, -0.00, -1.00, 339.4, 67.1)">i</text><text xml:space="preserve" font-family="HelveticaNeue-Medium,Helvetica Neue" font-size="22.0" fill="#EAEAEA" transform="matrix(1.00, 0.00, -0.00, -1.00, 344.7, 67.1)">n</text><text xml:space="preserve" font-family="HelveticaNeue-Medium,Helvetica Neue" font-size="22.0" fill="#EAEAEA" transform="matrix(1.00, 0.00, -0.00, -1.00, 357.3, 67.1)"> </text><text xml:space="preserve" font-family="HelveticaNeue-Medium,Helvetica Neue" font-size="22.0" fill="#EAEAEA" transform="matrix(1.00, 0.00, -0.00, -1.00, 363.4, 67.1)">t</text><text xml:space="preserve" font-family="HelveticaNeue-Medium,Helvetica Neue" font-size="22.0" fill="#EAEAEA" transform="matrix(1.00, 0.00, -0.00, -1.00, 370.7, 67.1)">r</text><text xml:space="preserve" font-family="HelveticaNeue-Medium,Helvetica Neue" font-size="22.0" fill="#EAEAEA" transform="matrix(1.00, 0.00, -0.00, -1.00, 378.1, 67.1)">e</text><text xml:space="preserve" font-family="HelveticaNeue-Medium,Helvetica Neue" font-size="22.0" fill="#EAEAEA" transform="matrix(1.00, 0.00, -0.00, -1.00, 390.3, 67.1)">a</text><text xml:space="preserve" font-family="HelveticaNeue-Medium,Helvetica Neue" font-size="22.0" fill="#EAEAEA" transform="matrix(1.00, 0.00, -0.00, -1.00, 402.6, 67.1)">t</text><text xml:space="preserve" font-family="HelveticaNeue-Medium,Helvetica Neue" font-size="22.0" fill="#EAEAEA" transform="matrix(1.00, 0.00, -0.00, -1.00, 409.9, 67.1)">m</text><text xml:space="preserve" font-family="HelveticaNeue-Medium,Helvetica Neue" font-size="22.0" fill="#EAEAEA" transform="matrix(1.00, 0.00, -0.00, -1.00, 429.0, 67.1)">e</text><text xml:space="preserve" font-family="HelveticaNeue-Medium,Helvetica Neue" font-size="22.0" fill="#EAEAEA" transform="matrix(1.00, 0.00, -0.00, -1.00, 441.3, 67.1)">n</text><text xml:space="preserve" font-family="HelveticaNeue-Medium,Helvetica Neue" font-size="22.0" fill="#EAEAEA" transform="matrix(1.00, 0.00, -0.00, -1.00, 453.9, 67.1)">t</text><text xml:space="preserve" font-family="HelveticaNeue-Medium,Helvetica Neue" font-size="22.0" fill="#EAEAEA" transform="matrix(1.00, 0.00, -0.00, -1.00, 461.2, 67.1)">s</text><text xml:space="preserve" font-family="HelveticaNeue-Medium,Helvetica Neue" font-size="22.0" fill="#EAEAEA" transform="matrix(1.00, 0.00, -0.00, -1.00, 472.6, 67.1)"> </text><text xml:space="preserve" font-family="HelveticaNeue-Medium,Helvetica Neue" font-size="22.0" fill="#EAEAEA" transform="matrix(1.00, 0.00, -0.00, -1.00, 478.7, 67.1)">o</text><text xml:space="preserve" font-family="HelveticaNeue-Medium,Helvetica Neue" font-size="22.0" fill="#EAEAEA" transform="matrix(1.00, 0.00, -0.00, -1.00, 491.8, 67.1)">f</text><text xml:space="preserve" font-family="HelveticaNeue-Medium,Helvetica Neue" font-size="22.0" fill="#EAEAEA" transform="matrix(1.00, 0.00, -0.00, -1.00, 498.7, 67.1)"> </text><text xml:space="preserve" font-family="HelveticaNeue-Medium,Helvetica Neue" font-size="22.0" fill="#EAEAEA" transform="matrix(1.00, 0.00, -0.00, -1.00, 504.8, 67.1)">n</text><text xml:space="preserve" font-family="HelveticaNeue-Medium,Helvetica Neue" font-size="22.0" fill="#EAEAEA" transform="matrix(1.00, 0.00, -0.00, -1.00, 517.5, 67.1)">o</text><text xml:space="preserve" font-family="HelveticaNeue-Medium,Helvetica Neue" font-size="22.0" fill="#EAEAEA" transform="matrix(1.00, 0.00, -0.00, -1.00, 530.5, 67.1)">n</text><text xml:space="preserve" font-family="HelveticaNeue-Medium,Helvetica Neue" font-size="22.0" fill="#EAEAEA" transform="matrix(1.00, 0.00, -0.00, -1.00, 543.1, 67.1)">l</text><text xml:space="preserve" font-family="HelveticaNeue-Medium,Helvetica Neue" font-size="22.0" fill="#EAEAEA" transform="matrix(1.00, 0.00, -0.00, -1.00, 548.4, 67.1)">e</text><text xml:space="preserve" font-family="HelveticaNeue-Medium,Helvetica Neue" font-size="22.0" fill="#EAEAEA" transform="matrix(1.00, 0.00, -0.00, -1.00, 560.7, 67.1)">u</text><text xml:space="preserve" font-family="HelveticaNeue-Medium,Helvetica Neue" font-size="22.0" fill="#EAEAEA" transform="matrix(1.00, 0.00, -0.00, -1.00, 573.3, 67.1)">k</text><text xml:space="preserve" font-family="HelveticaNeue-Medium,Helvetica Neue" font-size="22.0" fill="#EAEAEA" transform="matrix(1.00, 0.00, -0.00, -1.00, 585.1, 67.1)">e</text><text xml:space="preserve" font-family="HelveticaNeue-Medium,Helvetica Neue" font-size="22.0" fill="#EAEAEA" transform="matrix(1.00, 0.00, -0.00, -1.00, 597.3, 67.1)">m</text><text xml:space="preserve" font-family="HelveticaNeue-Medium,Helvetica Neue" font-size="22.0" fill="#EAEAEA" transform="matrix(1.00, 0.00, -0.00, -1.00, 616.5, 67.1)">i</text><text xml:space="preserve" font-family="HelveticaNeue-Medium,Helvetica Neue" font-size="22.0" fill="#EAEAEA" transform="matrix(1.00, 0.00, -0.00, -1.00, 621.8, 67.1)">c</text><text xml:space="preserve" font-family="HelveticaNeue-Medium,Helvetica Neue" font-size="22.0" fill="#EAEAEA" transform="matrix(1.00, 0.00, -0.00, -1.00, 634.0, 67.1)"> </text><text xml:space="preserve" font-family="HelveticaNeue-Medium,Helvetica Neue" font-size="22.0" fill="#EAEAEA" transform="matrix(1.00, 0.00, -0.00, -1.00, 640.1, 67.1)">g</text><text xml:space="preserve" font-family="HelveticaNeue-Medium,Helvetica Neue" font-size="22.0" fill="#EAEAEA" transform="matrix(1.00, 0.00, -0.00, -1.00, 653.2, 67.1)">r</text><text xml:space="preserve" font-family="HelveticaNeue-Medium,Helvetica Neue" font-size="22.0" fill="#EAEAEA" transform="matrix(1.00, 0.00, -0.00, -1.00, 660.9, 67.1)">a</text><text xml:space="preserve" font-family="HelveticaNeue-Medium,Helvetica Neue" font-size="22.0" fill="#EAEAEA" transform="matrix(1.00, 0.00, -0.00, -1.00, 673.2, 67.1)">n</text><text xml:space="preserve" font-family="HelveticaNeue-Medium,Helvetica Neue" font-size="22.0" fill="#EAEAEA" transform="matrix(1.00, 0.00, -0.00, -1.00, 685.8, 67.1)">u</text><text xml:space="preserve" font-family="HelveticaNeue-Medium,Helvetica Neue" font-size="22.0" fill="#EAEAEA" transform="matrix(1.00, 0.00, -0.00, -1.00, 698.4, 67.1)">l</text><text xml:space="preserve" font-family="HelveticaNeue-Medium,Helvetica Neue" font-size="22.0" fill="#EAEAEA" transform="matrix(1.00, 0.00, -0.00, -1.00, 703.7, 67.1)">o</text><text xml:space="preserve" font-family="HelveticaNeue-Medium,Helvetica Neue" font-size="22.0" fill="#EAEAEA" transform="matrix(1.00, 0.00, -0.00, -1.00, 716.8, 67.1)">c</text><text xml:space="preserve" font-family="HelveticaNeue-Medium,Helvetica Neue" font-size="22.0" fill="#EAEAEA" transform="matrix(1.00, 0.00, -0.00, -1.00, 729.0, 67.1)">y</text><text xml:space="preserve" font-family="HelveticaNeue-Medium,Helvetica Neue" font-size="22.0" fill="#EAEAEA" transform="matrix(1.00, 0.00, -0.00, -1.00, 740.4, 67.1)">t</text><text xml:space="preserve" font-family="HelveticaNeue-Medium,Helvetica Neue" font-size="22.0" fill="#EAEAEA" transform="matrix(1.00, 0.00, -0.00, -1.00, 747.7, 67.1)">i</text><text xml:space="preserve" font-family="HelveticaNeue-Medium,Helvetica Neue" font-size="22.0" fill="#EAEAEA" transform="matrix(1.00, 0.00, -0.00, -1.00, 753.0, 67.1)">c</text><text xml:space="preserve" font-family="HelveticaNeue-Medium,Helvetica Neue" font-size="22.0" fill="#EAEAEA" transform="matrix(1.00, 0.00, -0.00, -1.00, 765.3, 67.1)"> </text><text xml:space="preserve" font-family="HelveticaNeue-Medium,Helvetica Neue" font-size="22.0" fill="#EAEAEA" transform="matrix(1.00, 0.00, -0.00, -1.00, 771.4, 67.1)">s</text><text xml:space="preserve" font-family="HelveticaNeue-Medium,Helvetica Neue" font-size="22.0" fill="#EAEAEA" transform="matrix(1.00, 0.00, -0.00, -1.00, 782.8, 67.1)">a</text><text xml:space="preserve" font-family="HelveticaNeue-Medium,Helvetica Neue" font-size="22.0" fill="#EAEAEA" transform="matrix(1.00, 0.00, -0.00, -1.00, 795.0, 67.1)">r</text><text xml:space="preserve" font-family="HelveticaNeue-Medium,Helvetica Neue" font-size="22.0" fill="#EAEAEA" transform="matrix(1.00, 0.00, -0.00, -1.00, 802.4, 67.1)">c</text><text xml:space="preserve" font-family="HelveticaNeue-Medium,Helvetica Neue" font-size="22.0" fill="#EAEAEA" transform="matrix(1.00, 0.00, -0.00, -1.00, 814.6, 67.1)">o</text><text xml:space="preserve" font-family="HelveticaNeue-Medium,Helvetica Neue" font-size="22.0" fill="#EAEAEA" transform="matrix(1.00, 0.00, -0.00, -1.00, 827.7, 67.1)">m</text><text xml:space="preserve" font-family="HelveticaNeue-Medium,Helvetica Neue" font-size="22.0" fill="#EAEAEA" transform="matrix(1.00, 0.00, -0.00, -1.00, 846.8, 67.1)">a</text><text xml:space="preserve" font-family="HelveticaNeue-Medium,Helvetica Neue" font-size="22.0" fill="#EAEAEA" transform="matrix(1.00, 0.00, -0.00, -1.00, 859.0, 67.1)">:</text><text xml:space="preserve" font-family="HelveticaNeue-Medium,Helvetica Neue" font-size="22.0" fill="#EAEAEA" transform="matrix(1.00, 0.00, -0.00, -1.00, 865.2, 67.1)"> </text><text xml:space="preserve" font-family="HelveticaNeue-Medium,Helvetica Neue" font-size="22.0" fill="#EAEAEA" transform="matrix(1.00, 0.00, -0.00, -1.00, 871.3, 67.1)">r</text><text xml:space="preserve" font-family="HelveticaNeue-Medium,Helvetica Neue" font-size="22.0" fill="#EAEAEA" transform="matrix(1.00, 0.00, -0.00, -1.00, 878.6, 67.1)">e</text><text xml:space="preserve" font-family="HelveticaNeue-Medium,Helvetica Neue" font-size="22.0" fill="#EAEAEA" transform="matrix(1.00, 0.00, -0.00, -1.00, 890.9, 67.1)">p</text><text xml:space="preserve" font-family="HelveticaNeue-Medium,Helvetica Neue" font-size="22.0" fill="#EAEAEA" transform="matrix(1.00, 0.00, -0.00, -1.00, 904.3, 67.1)">o</text><text xml:space="preserve" font-family="HelveticaNeue-Medium,Helvetica Neue" font-size="22.0" fill="#EAEAEA" transform="matrix(1.00, 0.00, -0.00, -1.00, 917.3, 67.1)">r</text><text xml:space="preserve" font-family="HelveticaNeue-Medium,Helvetica Neue" font-size="22.0" fill="#EAEAEA" transform="matrix(1.00, 0.00, -0.00, -1.00, 925.1, 67.1)">t</text><text xml:space="preserve" font-family="HelveticaNeue-Medium,Helvetica Neue" font-size="22.0" fill="#EAEAEA" transform="matrix(1.00, 0.00, -0.00, -1.00, 932.4, 67.1)"> </text><text xml:space="preserve" font-family="HelveticaNeue-Medium,Helvetica Neue" font-size="22.0" fill="#EAEAEA" transform="matrix(1.00, 0.00, -0.00, -1.00, 938.5, 67.1)">o</text><text xml:space="preserve" font-family="HelveticaNeue-Medium,Helvetica Neue" font-size="22.0" fill="#EAEAEA" transform="matrix(1.00, 0.00, -0.00, -1.00, 951.6, 67.1)">f</text><text xml:space="preserve" font-family="HelveticaNeue-Medium,Helvetica Neue" font-size="22.0" fill="#EAEAEA" transform="matrix(1.00, 0.00, -0.00, -1.00, 958.5, 67.1)"> </text><text xml:space="preserve" font-family="HelveticaNeue-Medium,Helvetica Neue" font-size="22.0" fill="#EAEAEA" transform="matrix(1.00, 0.00, -0.00, -1.00, 964.6, 67.1)">t</text><text xml:space="preserve" font-family="HelveticaNeue-Medium,Helvetica Neue" font-size="22.0" fill="#EAEAEA" transform="matrix(1.00, 0.00, -0.00, -1.00, 971.9, 67.1)">w</text><text xml:space="preserve" font-family="HelveticaNeue-Medium,Helvetica Neue" font-size="22.0" fill="#EAEAEA" transform="matrix(1.00, 0.00, -0.00, -1.00, 989.1, 67.1)">o</text><text xml:space="preserve" font-family="HelveticaNeue-Medium,Helvetica Neue" font-size="22.0" fill="#EAEAEA" transform="matrix(1.00, 0.00, -0.00, -1.00, 1002.1, 67.1)"> </text><image xlink:href="../../8B6F578B-AEB9-440E-AF52-B9F625C4696D/assets/2C7F12A8E9483FE6F45D6B1B68FCE764.png" width="853.00" height="30.00" transform="matrix(1.00, 0.00, -0.00, -1.00, 85.0, 59.0)"></image><text xml:space="preserve" font-family="HelveticaNeue-Medium,Helvetica Neue" font-size="22.0" fill="#EAEAEA" transform="matrix(1.00, 0.00, -0.00, -1.00, 88.6, 40.1)">c</text><text xml:space="preserve" font-family="HelveticaNeue-Medium,Helvetica Neue" font-size="22.0" fill="#EAEAEA" transform="matrix(1.00, 0.00, -0.00, -1.00, 100.9, 40.1)">a</text><text xml:space="preserve" font-family="HelveticaNeue-Medium,Helvetica Neue" font-size="22.0" fill="#EAEAEA" transform="matrix(1.00, 0.00, -0.00, -1.00, 113.1, 40.1)">s</text><text xml:space="preserve" font-family="HelveticaNeue-Medium,Helvetica Neue" font-size="22.0" fill="#EAEAEA" transform="matrix(1.00, 0.00, -0.00, -1.00, 124.5, 40.1)">e</text><text xml:space="preserve" font-family="HelveticaNeue-Medium,Helvetica Neue" font-size="22.0" fill="#EAEAEA" transform="matrix(1.00, 0.00, -0.00, -1.00, 136.7, 40.1)">s</text><text xml:space="preserve" font-family="HelveticaNeue-Medium,Helvetica Neue" font-size="22.0" fill="#EAEAEA" transform="matrix(1.00, 0.00, -0.00, -1.00, 148.2, 40.1)"> </text><text xml:space="preserve" font-family="HelveticaNeue-Medium,Helvetica Neue" font-size="22.0" fill="#EAEAEA" transform="matrix(1.00, 0.00, -0.00, -1.00, 154.3, 40.1)">a</text><text xml:space="preserve" font-family="HelveticaNeue-Medium,Helvetica Neue" font-size="22.0" fill="#EAEAEA" transform="matrix(1.00, 0.00, -0.00, -1.00, 166.5, 40.1)">n</text><text xml:space="preserve" font-family="HelveticaNeue-Medium,Helvetica Neue" font-size="22.0" fill="#EAEAEA" transform="matrix(1.00, 0.00, -0.00, -1.00, 179.1, 40.1)">d</text><text xml:space="preserve" font-family="HelveticaNeue-Medium,Helvetica Neue" font-size="22.0" fill="#EAEAEA" transform="matrix(1.00, 0.00, -0.00, -1.00, 192.6, 40.1)"> </text><text xml:space="preserve" font-family="HelveticaNeue-Medium,Helvetica Neue" font-size="22.0" fill="#EAEAEA" transform="matrix(1.00, 0.00, -0.00, -1.00, 198.7, 40.1)">a</text><text xml:space="preserve" font-family="HelveticaNeue-Medium,Helvetica Neue" font-size="22.0" fill="#EAEAEA" transform="matrix(1.00, 0.00, -0.00, -1.00, 210.9, 40.1)"> </text><text xml:space="preserve" font-family="HelveticaNeue-Medium,Helvetica Neue" font-size="22.0" fill="#EAEAEA" transform="matrix(1.00, 0.00, -0.00, -1.00, 217.0, 40.1)">r</text><text xml:space="preserve" font-family="HelveticaNeue-Medium,Helvetica Neue" font-size="22.0" fill="#EAEAEA" transform="matrix(1.00, 0.00, -0.00, -1.00, 224.4, 40.1)">e</text><text xml:space="preserve" font-family="HelveticaNeue-Medium,Helvetica Neue" font-size="22.0" fill="#EAEAEA" transform="matrix(1.00, 0.00, -0.00, -1.00, 236.6, 40.1)">v</text><text xml:space="preserve" font-family="HelveticaNeue-Medium,Helvetica Neue" font-size="22.0" fill="#EAEAEA" transform="matrix(1.00, 0.00, -0.00, -1.00, 248.0, 40.1)">i</text><text xml:space="preserve" font-family="HelveticaNeue-Medium,Helvetica Neue" font-size="22.0" fill="#EAEAEA" transform="matrix(1.00, 0.00, -0.00, -1.00, 253.3, 40.1)">e</text><text xml:space="preserve" font-family="HelveticaNeue-Medium,Helvetica Neue" font-size="22.0" fill="#EAEAEA" transform="matrix(1.00, 0.00, -0.00, -1.00, 265.6, 40.1)">w</text><text xml:space="preserve" font-family="HelveticaNeue-Medium,Helvetica Neue" font-size="22.0" fill="#EAEAEA" transform="matrix(1.00, 0.00, -0.00, -1.00, 282.7, 40.1)"> </text><text xml:space="preserve" font-family="HelveticaNeue-Medium,Helvetica Neue" font-size="22.0" fill="#EAEAEA" transform="matrix(1.00, 0.00, -0.00, -1.00, 288.8, 40.1)">o</text><text xml:space="preserve" font-family="HelveticaNeue-Medium,Helvetica Neue" font-size="22.0" fill="#EAEAEA" transform="matrix(1.00, 0.00, -0.00, -1.00, 301.9, 40.1)">f</text><text xml:space="preserve" font-family="HelveticaNeue-Medium,Helvetica Neue" font-size="22.0" fill="#EAEAEA" transform="matrix(1.00, 0.00, -0.00, -1.00, 308.8, 40.1)"> </text><text xml:space="preserve" font-family="HelveticaNeue-Medium,Helvetica Neue" font-size="22.0" fill="#EAEAEA" transform="matrix(1.00, 0.00, -0.00, -1.00, 314.9, 40.1)">7</text><text xml:space="preserve" font-family="HelveticaNeue-Medium,Helvetica Neue" font-size="22.0" fill="#EAEAEA" transform="matrix(1.00, 0.00, -0.00, -1.00, 327.1, 40.1)">2</text><text xml:space="preserve" font-family="HelveticaNeue-Medium,Helvetica Neue" font-size="22.0" fill="#EAEAEA" transform="matrix(1.00, 0.00, -0.00, -1.00, 339.4, 40.1)"> </text><text xml:space="preserve" font-family="HelveticaNeue-Medium,Helvetica Neue" font-size="22.0" fill="#EAEAEA" transform="matrix(1.00, 0.00, -0.00, -1.00, 345.5, 40.1)">c</text><text xml:space="preserve" font-family="HelveticaNeue-Medium,Helvetica Neue" font-size="22.0" fill="#EAEAEA" transform="matrix(1.00, 0.00, -0.00, -1.00, 357.7, 40.1)">a</text><text xml:space="preserve" font-family="HelveticaNeue-Medium,Helvetica Neue" font-size="22.0" fill="#EAEAEA" transform="matrix(1.00, 0.00, -0.00, -1.00, 369.9, 40.1)">s</text><text xml:space="preserve" font-family="HelveticaNeue-Medium,Helvetica Neue" font-size="22.0" fill="#EAEAEA" transform="matrix(1.00, 0.00, -0.00, -1.00, 381.4, 40.1)">e</text><text xml:space="preserve" font-family="HelveticaNeue-Medium,Helvetica Neue" font-size="22.0" fill="#EAEAEA" transform="matrix(1.00, 0.00, -0.00, -1.00, 393.6, 40.1)">s</text><text xml:space="preserve" font-family="HelveticaNeue-Medium,Helvetica Neue" font-size="22.0" fill="#EAEAEA" transform="matrix(1.00, 0.00, -0.00, -1.00, 405.0, 40.1)"> </text><text xml:space="preserve" font-family="HelveticaNeue-Medium,Helvetica Neue" font-size="22.0" fill="#EAEAEA" transform="matrix(1.00, 0.00, -0.00, -1.00, 411.1, 40.1)">i</text><text xml:space="preserve" font-family="HelveticaNeue-Medium,Helvetica Neue" font-size="22.0" fill="#EAEAEA" transform="matrix(1.00, 0.00, -0.00, -1.00, 416.4, 40.1)">n</text><text xml:space="preserve" font-family="HelveticaNeue-Medium,Helvetica Neue" font-size="22.0" fill="#EAEAEA" transform="matrix(1.00, 0.00, -0.00, -1.00, 429.1, 40.1)"> </text><text xml:space="preserve" font-family="HelveticaNeue-Medium,Helvetica Neue" font-size="22.0" fill="#EAEAEA" transform="matrix(1.00, 0.00, -0.00, -1.00, 435.2, 40.1)">t</text><text xml:space="preserve" font-family="HelveticaNeue-Medium,Helvetica Neue" font-size="22.0" fill="#EAEAEA" transform="matrix(1.00, 0.00, -0.00, -1.00, 442.5, 40.1)">h</text><text xml:space="preserve" font-family="HelveticaNeue-Medium,Helvetica Neue" font-size="22.0" fill="#EAEAEA" transform="matrix(1.00, 0.00, -0.00, -1.00, 455.1, 40.1)">e</text><text xml:space="preserve" font-family="HelveticaNeue-Medium,Helvetica Neue" font-size="22.0" fill="#EAEAEA" transform="matrix(1.00, 0.00, -0.00, -1.00, 467.4, 40.1)"> </text><text xml:space="preserve" font-family="HelveticaNeue-Medium,Helvetica Neue" font-size="22.0" fill="#EAEAEA" transform="matrix(1.00, 0.00, -0.00, -1.00, 473.5, 40.1)">l</text><text xml:space="preserve" font-family="HelveticaNeue-Medium,Helvetica Neue" font-size="22.0" fill="#EAEAEA" transform="matrix(1.00, 0.00, -0.00, -1.00, 478.8, 40.1)">i</text><text xml:space="preserve" font-family="HelveticaNeue-Medium,Helvetica Neue" font-size="22.0" fill="#EAEAEA" transform="matrix(1.00, 0.00, -0.00, -1.00, 484.1, 40.1)">t</text><text xml:space="preserve" font-family="HelveticaNeue-Medium,Helvetica Neue" font-size="22.0" fill="#EAEAEA" transform="matrix(1.00, 0.00, -0.00, -1.00, 491.4, 40.1)">e</text><text xml:space="preserve" font-family="HelveticaNeue-Medium,Helvetica Neue" font-size="22.0" fill="#EAEAEA" transform="matrix(1.00, 0.00, -0.00, -1.00, 503.6, 40.1)">r</text><text xml:space="preserve" font-family="HelveticaNeue-Medium,Helvetica Neue" font-size="22.0" fill="#EAEAEA" transform="matrix(1.00, 0.00, -0.00, -1.00, 511.4, 40.1)">a</text><text xml:space="preserve" font-family="HelveticaNeue-Medium,Helvetica Neue" font-size="22.0" fill="#EAEAEA" transform="matrix(1.00, 0.00, -0.00, -1.00, 523.6, 40.1)">t</text><text xml:space="preserve" font-family="HelveticaNeue-Medium,Helvetica Neue" font-size="22.0" fill="#EAEAEA" transform="matrix(1.00, 0.00, -0.00, -1.00, 530.9, 40.1)">u</text><text xml:space="preserve" font-family="HelveticaNeue-Medium,Helvetica Neue" font-size="22.0" fill="#EAEAEA" transform="matrix(1.00, 0.00, -0.00, -1.00, 543.6, 40.1)">r</text><text xml:space="preserve" font-family="HelveticaNeue-Medium,Helvetica Neue" font-size="22.0" fill="#EAEAEA" transform="matrix(1.00, 0.00, -0.00, -1.00, 550.9, 40.1)">e</text><text xml:space="preserve" font-family="HelveticaNeue-Medium,Helvetica Neue" font-size="22.0" fill="#EAEAEA" transform="matrix(1.00, 0.00, -0.00, -1.00, 563.1, 40.1)">.</text><text xml:space="preserve" font-family="HelveticaNeue-Medium,Helvetica Neue" font-size="22.0" fill="#EAEAEA" transform="matrix(1.00, 0.00, -0.00, -1.00, 569.3, 40.1)"> </text><text xml:space="preserve" font-family="HelveticaNeue-Medium,Helvetica Neue" font-size="22.0" fill="#EAEAEA" transform="matrix(1.00, 0.00, -0.00, -1.00, 575.4, 40.1)">C</text><text xml:space="preserve" font-family="HelveticaNeue-Medium,Helvetica Neue" font-size="22.0" fill="#EAEAEA" transform="matrix(1.00, 0.00, -0.00, -1.00, 591.3, 40.1)">a</text><text xml:space="preserve" font-family="HelveticaNeue-Medium,Helvetica Neue" font-size="22.0" fill="#EAEAEA" transform="matrix(1.00, 0.00, -0.00, -1.00, 603.5, 40.1)">n</text><text xml:space="preserve" font-family="HelveticaNeue-Medium,Helvetica Neue" font-size="22.0" fill="#EAEAEA" transform="matrix(1.00, 0.00, -0.00, -1.00, 616.1, 40.1)">c</text><text xml:space="preserve" font-family="HelveticaNeue-Medium,Helvetica Neue" font-size="22.0" fill="#EAEAEA" transform="matrix(1.00, 0.00, -0.00, -1.00, 628.4, 40.1)">e</text><text xml:space="preserve" font-family="HelveticaNeue-Medium,Helvetica Neue" font-size="22.0" fill="#EAEAEA" transform="matrix(1.00, 0.00, -0.00, -1.00, 640.6, 40.1)">r</text><text xml:space="preserve" font-family="HelveticaNeue-Medium,Helvetica Neue" font-size="22.0" fill="#EAEAEA" transform="matrix(1.00, 0.00, -0.00, -1.00, 646.3, 40.1)">.</text><text xml:space="preserve" font-family="HelveticaNeue-Medium,Helvetica Neue" font-size="22.0" fill="#EAEAEA" transform="matrix(1.00, 0.00, -0.00, -1.00, 652.4, 40.1)"> </text><text xml:space="preserve" font-family="HelveticaNeue-Medium,Helvetica Neue" font-size="22.0" fill="#EAEAEA" transform="matrix(1.00, 0.00, -0.00, -1.00, 658.5, 40.1)">2</text><text xml:space="preserve" font-family="HelveticaNeue-Medium,Helvetica Neue" font-size="22.0" fill="#EAEAEA" transform="matrix(1.00, 0.00, -0.00, -1.00, 670.8, 40.1)">0</text><text xml:space="preserve" font-family="HelveticaNeue-Medium,Helvetica Neue" font-size="22.0" fill="#EAEAEA" transform="matrix(1.00, 0.00, -0.00, -1.00, 683.0, 40.1)">0</text><text xml:space="preserve" font-family="HelveticaNeue-Medium,Helvetica Neue" font-size="22.0" fill="#EAEAEA" transform="matrix(1.00, 0.00, -0.00, -1.00, 695.2, 40.1)">2</text><text xml:space="preserve" font-family="HelveticaNeue-Medium,Helvetica Neue" font-size="22.0" fill="#EAEAEA" transform="matrix(1.00, 0.00, -0.00, -1.00, 707.5, 40.1)"> </text><text xml:space="preserve" font-family="HelveticaNeue-Medium,Helvetica Neue" font-size="22.0" fill="#EAEAEA" transform="matrix(1.00, 0.00, -0.00, -1.00, 713.6, 40.1)">M</text><text xml:space="preserve" font-family="HelveticaNeue-Medium,Helvetica Neue" font-size="22.0" fill="#EAEAEA" transform="matrix(1.00, 0.00, -0.00, -1.00, 733.1, 40.1)">a</text><text xml:space="preserve" font-family="HelveticaNeue-Medium,Helvetica Neue" font-size="22.0" fill="#EAEAEA" transform="matrix(1.00, 0.00, -0.00, -1.00, 745.4, 40.1)">r</text><text xml:space="preserve" font-family="HelveticaNeue-Medium,Helvetica Neue" font-size="22.0" fill="#EAEAEA" transform="matrix(1.00, 0.00, -0.00, -1.00, 753.1, 40.1)"> </text><text xml:space="preserve" font-family="HelveticaNeue-Medium,Helvetica Neue" font-size="22.0" fill="#EAEAEA" transform="matrix(1.00, 0.00, -0.00, -1.00, 759.2, 40.1)">1</text><text xml:space="preserve" font-family="HelveticaNeue-Medium,Helvetica Neue" font-size="22.0" fill="#EAEAEA" transform="matrix(1.00, 0.00, -0.00, -1.00, 771.5, 40.1)">5</text><text xml:space="preserve" font-family="HelveticaNeue-Medium,Helvetica Neue" font-size="22.0" fill="#EAEAEA" transform="matrix(1.00, 0.00, -0.00, -1.00, 783.7, 40.1)">;</text><text xml:space="preserve" font-family="HelveticaNeue-Medium,Helvetica Neue" font-size="22.0" fill="#EAEAEA" transform="matrix(1.00, 0.00, -0.00, -1.00, 789.8, 40.1)">9</text><text xml:space="preserve" font-family="HelveticaNeue-Medium,Helvetica Neue" font-size="22.0" fill="#EAEAEA" transform="matrix(1.00, 0.00, -0.00, -1.00, 802.0, 40.1)">4</text><text xml:space="preserve" font-family="HelveticaNeue-Medium,Helvetica Neue" font-size="22.0" fill="#EAEAEA" transform="matrix(1.00, 0.00, -0.00, -1.00, 814.3, 40.1)">(</text><text xml:space="preserve" font-family="HelveticaNeue-Medium,Helvetica Neue" font-size="22.0" fill="#EAEAEA" transform="matrix(1.00, 0.00, -0.00, -1.00, 820.4, 40.1)">6</text><text xml:space="preserve" font-family="HelveticaNeue-Medium,Helvetica Neue" font-size="22.0" fill="#EAEAEA" transform="matrix(1.00, 0.00, -0.00, -1.00, 832.6, 40.1)">)</text><text xml:space="preserve" font-family="HelveticaNeue-Medium,Helvetica Neue" font-size="22.0" fill="#EAEAEA" transform="matrix(1.00, 0.00, -0.00, -1.00, 838.7, 40.1)">:</text><text xml:space="preserve" font-family="HelveticaNeue-Medium,Helvetica Neue" font-size="22.0" fill="#EAEAEA" transform="matrix(1.00, 0.00, -0.00, -1.00, 844.9, 40.1)">1</text><text xml:space="preserve" font-family="HelveticaNeue-Medium,Helvetica Neue" font-size="22.0" fill="#EAEAEA" transform="matrix(1.00, 0.00, -0.00, -1.00, 857.1, 40.1)">7</text><text xml:space="preserve" font-family="HelveticaNeue-Medium,Helvetica Neue" font-size="22.0" fill="#EAEAEA" transform="matrix(1.00, 0.00, -0.00, -1.00, 869.3, 40.1)">3</text><text xml:space="preserve" font-family="HelveticaNeue-Medium,Helvetica Neue" font-size="22.0" fill="#EAEAEA" transform="matrix(1.00, 0.00, -0.00, -1.00, 881.6, 40.1)">9</text><text xml:space="preserve" font-family="HelveticaNeue-Medium,Helvetica Neue" font-size="22.0" fill="#EAEAEA" transform="matrix(1.00, 0.00, -0.00, -1.00, 893.8, 40.1)">–</text><text xml:space="preserve" font-family="HelveticaNeue-Medium,Helvetica Neue" font-size="22.0" fill="#EAEAEA" transform="matrix(1.00, 0.00, -0.00, -1.00, 904.8, 40.1)">4</text><text xml:space="preserve" font-family="HelveticaNeue-Medium,Helvetica Neue" font-size="22.0" fill="#EAEAEA" transform="matrix(1.00, 0.00, -0.00, -1.00, 917.0, 40.1)">6</text><text xml:space="preserve" font-family="HelveticaNeue-Medium,Helvetica Neue" font-size="22.0" fill="#EAEAEA" transform="matrix(1.00, 0.00, -0.00, -1.00, 929.3, 40.1)">.</text><text xml:space="preserve" font-family="HelveticaNeue-Medium,Helvetica Neue" font-size="22.0" fill="#EAEAEA" transform="matrix(1.00, 0.00, -0.00, -1.00, 935.4, 40.1)"> </text><g opacity="0.30"><g><clipPath id="clip0x6000014b2f00"><path d="M 190.0 512.0 L 834.0 512.0 L 834.0 555.0 L 190.0 555.0 Z M 190.0 512.0 "></path></clipPath><g clip-path="url(#clip0x6000014b2f00)"><path d="M 760.0 542.2 C 761.2 542.5 766.5 542.6 766.6 542.0 C 764.6 542.1 760.3 541.8 760.0 542.2 C 760.0 542.2 760.0 542.2 760.0 542.2 Z M 749.3 542.5 C 751.2 542.8 755.5 542.6 756.8 542.3 C 754.6 542.4 750.0 542.0 749.3 542.5 C 749.3 542.5 749.3 542.5 749.3 542.5 Z M 765.6 540.9 C 768.5 540.8 773.7 541.2 775.0 540.7 C 772.2 540.9 766.9 540.5 765.6 540.9 C 765.6 540.9 765.6 540.9 765.6 540.9 Z M 615.7 550.0 C 616.9 550.3 622.2 550.4 622.2 549.8 C 620.3 549.9 616.0 549.6 615.7 550.0 C 615.7 550.0 615.7 550.0 615.7 550.0 Z M 645.3 548.7 C 647.2 549.1 651.5 548.9 652.8 548.5 C 650.6 548.7 646.0 548.3 645.3 548.7 C 645.3 548.7 645.3 548.7 645.3 548.7 Z M 662.5 549.0 C 666.5 548.9 670.8 548.9 670.0 548.4 C 668.7 548.8 662.9 548.3 662.5 549.0 C 662.5 549.0 662.5 549.0 662.5 549.0 Z M 762.2 519.3 C 757.9 519.5 754.8 519.1 751.9 519.1 C 737.4 519.2 759.4 520.2 762.2 519.3 C 762.2 519.3 762.2 519.3 762.2 519.3 Z M 692.9 547.3 C 690.0 547.3 687.7 547.4 686.3 547.6 C 688.9 547.6 692.7 547.8 692.9 547.3 C 692.9 547.3 692.9 547.3 692.9 547.3 Z M 717.8 546.7 C 718.4 547.0 733.2 546.9 741.4 546.5 C 734.4 546.4 717.1 546.4 717.8 546.7 C 717.8 546.7 717.8 546.7 717.8 546.7 Z M 727.5 519.1 C 717.9 519.5 702.6 519.4 695.6 519.7 C 688.7 519.9 708.0 520.2 725.7 520.1 C 743.4 519.9 728.8 518.9 736.0 518.7 C 743.2 518.5 729.1 518.2 721.9 518.5 C 714.8 518.8 726.7 518.7 727.5 519.1 C 727.5 519.1 727.5 519.1 727.5 519.1 Z M 728.0 517.2 C 731.4 517.2 734.4 517.1 736.4 516.8 C 732.8 516.6 729.4 516.5 728.0 517.2 C 728.0 517.2 728.0 517.2 728.0 517.2 Z M 213.9 530.8 C 215.1 536.2 223.5 540.5 232.6 543.7 C 234.9 544.4 237.2 545.1 239.5 545.8 C 256.3 548.2 273.2 549.4 290.1 550.0 C 293.4 550.1 296.8 550.2 300.2 550.3 C 310.6 550.7 321.0 550.8 331.4 550.9 C 334.9 550.9 338.3 551.0 341.9 551.0 C 354.5 551.7 366.5 551.0 378.8 551.1 C 385.0 551.1 391.2 551.3 397.7 552.0 C 400.9 552.4 414.7 552.3 419.5 551.8 C 414.8 553.0 437.4 552.5 436.4 552.5 C 438.9 552.1 441.6 551.8 444.2 551.7 C 446.8 551.6 443.5 551.4 440.2 551.3 C 443.1 551.0 446.1 550.9 449.1 550.9 C 452.2 550.9 455.4 551.0 458.6 551.0 C 469.2 551.5 480.5 551.1 490.3 550.6 C 517.1 550.7 590.7 550.2 577.4 549.9 C 562.4 549.6 570.1 549.2 574.1 549.1 C 576.5 549.1 579.6 549.0 583.2 549.0 C 583.1 549.2 582.8 549.4 582.3 549.5 C 589.0 549.6 598.4 550.3 607.6 549.7 C 605.9 549.6 603.7 549.6 602.9 549.3 C 607.6 549.3 603.9 548.7 606.9 548.5 C 615.5 548.4 619.5 548.2 609.7 548.3 C 618.8 547.8 624.7 546.9 633.7 546.2 C 637.2 546.3 635.3 546.2 634.3 546.5 C 640.3 546.8 654.0 546.7 655.3 547.0 C 656.6 547.3 618.0 547.1 624.9 547.5 C 627.7 547.6 633.5 547.5 635.7 547.7 C 630.8 547.8 624.8 547.8 621.7 548.0 C 625.0 548.1 629.8 548.1 632.4 548.3 C 629.2 548.3 626.9 548.4 626.0 548.6 C 630.7 548.6 634.3 548.7 640.0 548.7 C 642.5 548.5 637.9 548.2 643.2 548.2 C 644.2 547.9 639.7 548.1 640.0 547.8 C 644.3 547.7 653.0 547.7 655.1 547.6 C 657.2 547.4 649.9 547.6 649.7 547.4 C 666.5 547.2 685.6 547.1 691.5 546.9 C 697.4 546.8 691.8 546.8 689.3 546.7 C 696.2 546.5 701.4 546.5 709.6 546.4 C 714.9 546.3 712.8 546.3 710.8 546.1 C 712.2 546.1 713.4 546.0 714.2 546.0 C 714.8 545.9 716.3 545.9 717.4 545.8 C 714.1 545.7 708.1 545.8 705.5 545.6 C 710.3 545.2 721.8 545.6 726.0 545.1 C 719.3 544.9 712.2 544.9 704.8 544.8 C 719.3 544.5 734.2 545.7 745.9 544.7 C 743.8 544.6 742.9 544.3 741.1 544.1 C 745.6 544.4 752.2 544.8 756.2 544.1 C 758.4 544.0 762.7 543.8 767.0 543.7 C 759.4 543.5 754.3 543.4 749.0 543.6 C 749.1 543.5 749.6 543.4 750.5 543.3 C 738.6 542.5 731.8 544.0 723.4 544.3 C 722.7 544.3 722.0 544.2 721.4 544.2 C 718.6 543.7 728.3 543.9 729.2 543.5 C 716.7 543.3 703.0 543.7 696.9 543.1 C 711.8 542.9 724.9 543.2 736.1 542.7 C 733.2 542.1 722.0 542.5 716.6 542.1 C 741.0 541.6 743.5 541.6 745.4 541.5 C 743.6 541.4 741.7 541.4 739.8 541.3 C 740.2 541.2 740.7 541.1 741.2 541.0 C 751.9 541.0 764.5 541.0 763.9 540.8 C 763.4 540.7 753.6 540.6 743.2 540.6 C 744.3 540.3 745.4 540.1 746.5 539.9 C 758.6 539.7 772.3 538.8 784.5 539.2 C 782.5 538.6 783.5 538.7 786.0 538.4 C 782.2 538.1 776.8 538.1 772.7 537.8 C 774.1 537.7 776.6 537.8 777.4 537.5 C 775.4 537.4 772.2 537.5 771.2 537.1 C 776.9 536.9 783.1 536.8 789.1 536.7 C 790.4 536.2 786.5 536.6 786.8 536.2 C 792.6 536.1 800.6 536.3 804.8 535.8 C 800.0 535.4 790.5 535.8 787.6 535.5 C 789.5 535.3 791.4 535.2 793.4 535.0 C 797.3 535.0 799.1 534.9 794.8 534.7 C 792.4 534.5 792.4 534.5 793.0 534.5 C 795.7 534.1 805.0 534.2 804.8 533.5 C 802.4 533.5 793.1 533.5 790.7 533.0 C 792.5 532.4 797.3 532.8 797.8 532.3 C 787.4 532.5 787.8 532.2 785.2 532.6 C 786.3 532.7 789.3 532.5 789.2 532.9 C 782.8 532.8 776.4 532.8 769.9 532.8 C 769.9 532.8 769.9 532.8 769.9 532.8 C 769.9 532.8 769.9 532.8 769.9 532.8 C 769.9 532.8 769.9 532.8 769.9 532.8 C 770.5 532.4 770.3 532.0 769.7 531.7 C 772.5 531.7 775.3 531.6 780.5 531.6 C 779.2 530.9 774.4 531.0 770.0 531.2 C 770.0 531.1 770.1 531.0 770.1 530.9 C 777.2 530.9 788.1 530.7 795.4 530.3 C 792.1 530.1 779.8 530.1 771.4 530.3 C 771.7 530.1 772.0 530.0 772.2 529.9 C 761.7 530.0 749.4 529.4 737.6 529.7 C 743.3 528.8 749.9 529.5 757.3 529.3 C 760.7 529.2 763.8 528.9 767.0 528.6 C 776.4 528.8 804.1 528.9 807.2 528.6 C 810.7 528.2 782.6 528.2 782.5 528.0 C 782.3 527.8 795.4 527.6 789.2 527.6 C 786.0 527.7 779.0 527.7 773.9 527.8 C 773.7 527.4 773.5 527.0 773.4 526.5 C 777.8 526.5 783.1 526.3 783.3 527.1 C 785.5 527.0 790.1 527.4 790.8 526.9 C 790.0 526.9 788.9 526.9 788.9 526.7 C 790.0 526.7 791.5 526.8 791.7 526.6 C 786.3 526.5 778.9 526.3 773.1 526.3 C 772.6 526.1 772.1 525.9 771.6 525.7 C 771.7 525.6 776.3 525.4 780.2 525.3 C 784.3 525.2 775.7 525.0 768.9 525.0 C 767.8 524.8 766.8 524.6 765.6 524.4 C 768.0 524.4 770.7 524.4 774.0 524.4 C 777.7 524.1 777.6 523.7 781.4 523.4 C 774.4 523.3 766.1 523.2 759.4 523.4 C 756.9 523.0 754.5 522.6 752.0 522.2 C 757.6 522.0 762.7 521.7 765.8 521.4 C 768.2 521.4 770.8 521.5 771.7 521.2 C 769.4 521.0 775.4 520.9 774.5 520.4 C 771.2 520.9 764.7 520.7 762.3 521.4 C 757.2 521.4 751.5 521.3 746.6 521.4 C 745.9 521.3 745.3 521.2 744.6 521.2 C 748.9 521.1 752.9 521.0 757.4 520.8 C 755.4 520.1 742.9 520.0 733.9 520.4 C 715.6 519.9 697.0 522.6 678.7 522.9 C 678.0 522.9 676.9 522.9 675.7 522.8 C 674.4 522.6 673.0 522.4 671.7 522.2 C 676.1 522.1 680.0 522.0 683.2 521.9 C 670.2 521.3 701.8 521.5 703.8 520.9 C 682.8 520.0 643.4 520.7 619.2 520.1 C 625.0 520.0 626.9 520.0 620.6 519.8 C 618.9 519.7 617.2 519.7 615.5 519.6 C 640.2 519.1 665.8 520.3 685.5 519.2 C 673.8 519.1 656.1 519.5 651.2 518.8 C 654.6 518.8 659.6 518.9 660.3 518.6 C 654.3 518.1 634.2 518.8 628.3 518.2 C 657.2 517.8 696.3 518.3 717.5 517.3 C 685.4 517.7 642.1 517.1 614.6 517.9 C 619.4 518.0 619.4 518.1 616.9 518.4 C 608.4 518.6 599.8 518.7 591.1 518.8 C 589.3 518.7 589.9 518.6 594.1 518.5 C 597.6 518.3 599.6 518.4 600.8 518.1 C 598.4 517.9 571.2 518.0 592.8 517.8 C 614.4 517.6 651.7 517.3 629.9 517.1 C 608.1 516.9 599.4 516.5 611.3 516.3 C 623.3 516.2 661.0 515.5 648.4 515.4 C 635.8 515.3 609.2 514.9 594.2 515.0 C 579.1 515.1 604.4 516.9 582.2 516.9 C 560.1 517.0 578.5 516.3 574.3 516.3 C 567.6 516.4 555.3 516.3 543.6 516.3 C 535.4 516.2 524.8 516.2 519.5 516.0 C 519.9 515.6 544.9 515.9 535.0 515.6 C 510.7 515.6 483.6 515.4 494.7 516.2 C 479.7 516.1 468.7 516.1 459.3 516.3 C 444.7 515.5 427.8 515.7 425.9 515.5 C 423.7 515.3 383.9 516.7 369.0 514.7 C 367.9 514.7 341.1 515.3 338.8 515.9 C 313.2 515.2 316.8 514.7 291.7 514.9 C 270.7 515.1 264.3 515.5 260.7 515.5 C 238.6 515.9 238.7 515.2 227.9 517.9 C 224.6 518.7 219.6 518.8 217.9 520.1 C 214.5 522.9 212.8 526.4 213.9 530.8 C 213.9 530.8 213.9 530.8 213.9 530.8 Z M 767.0 533.8 C 770.9 534.0 778.0 533.8 782.1 534.1 C 777.4 534.6 771.5 534.5 765.6 534.2 C 766.1 534.1 766.5 533.9 767.0 533.8 C 767.0 533.8 767.0 533.8 767.0 533.8 Z M 736.8 525.3 C 739.4 525.3 742.5 525.8 745.5 525.7 C 748.3 525.6 751.2 525.7 755.4 525.5 C 755.0 525.2 748.1 524.9 742.7 525.0 C 742.7 524.8 742.7 524.7 742.7 524.5 C 745.3 524.3 748.4 524.1 752.1 524.1 C 753.3 524.1 754.6 524.2 755.9 524.2 C 756.0 524.5 754.0 524.7 753.3 524.6 C 754.2 525.1 757.5 525.3 761.7 525.4 C 762.2 525.5 762.8 525.6 763.3 525.7 C 763.9 526.1 760.7 526.3 764.3 526.2 C 761.7 526.7 755.2 526.3 751.1 526.4 C 755.7 525.5 738.5 526.1 734.2 525.7 C 735.1 525.6 735.9 525.5 736.8 525.3 Z M 703.8 544.7 C 701.5 544.6 699.2 544.6 696.8 544.6 C 700.3 544.6 702.9 544.5 705.3 544.5 C 704.8 544.5 704.3 544.6 703.8 544.7 Z M 511.0 549.0 C 525.0 547.8 554.5 548.9 556.4 548.2 C 559.4 548.3 562.5 548.4 565.5 548.5 C 546.0 548.6 525.0 548.8 511.0 549.0 C 511.0 549.0 511.0 549.0 511.0 549.0 Z M 560.6 518.4 C 561.7 518.5 561.3 518.6 558.4 518.6 C 543.3 519.0 534.4 519.4 543.9 519.4 C 552.0 519.4 569.8 519.5 564.6 519.7 C 557.7 519.8 550.8 519.9 543.6 520.0 C 538.2 519.8 532.9 519.3 527.4 518.7 C 539.1 518.6 550.3 518.5 560.6 518.4 C 560.6 518.4 560.6 518.4 560.6 518.4 Z M 520.9 517.9 C 525.1 517.9 530.1 518.0 535.1 518.0 C 530.7 518.1 526.4 518.1 521.9 518.1 C 521.5 518.0 521.2 518.0 520.9 517.9 Z M 515.5 517.2 C 524.1 517.2 532.6 517.3 524.0 517.5 C 522.1 517.5 520.2 517.5 518.2 517.6 C 517.3 517.5 516.4 517.4 515.5 517.2 Z M 510.3 516.9 C 510.4 517.1 511.8 517.3 514.7 517.3 C 508.9 517.3 497.3 517.5 497.8 517.1 C 501.7 517.0 505.9 517.0 510.3 516.9 C 510.3 516.9 510.3 516.9 510.3 516.9 Z M 501.7 549.8 C 505.4 549.9 508.7 549.9 502.7 550.1 C 500.5 550.1 498.2 550.2 495.9 550.3 C 497.8 550.1 499.7 549.9 501.7 549.8 Z M 698.2 518.6 C 696.6 518.6 690.5 518.6 687.0 518.8 C 686.6 520.2 700.5 519.2 698.2 518.6 C 698.2 518.6 698.2 518.6 698.2 518.6 Z M 721.1 518.0 C 719.5 518.0 713.4 518.0 709.8 518.1 C 709.5 519.6 723.4 518.6 721.1 518.0 C 721.1 518.0 721.1 518.0 721.1 518.0 Z M 368.9 514.7 C 369.0 514.7 369.0 514.7 369.0 514.7 C 369.0 514.7 369.0 514.7 368.9 514.7 C 368.9 514.7 368.9 514.7 368.9 514.7 Z M 368.9 514.7 " fill="#F15945"></path></g></g></g></g></svg>