<?xml version="1.0" encoding="UTF-8" standalone="no"?><svg xmlns="http://www.w3.org/2000/svg" xmlns:xlink="http://www.w3.org/1999/xlink" clip-rule="evenodd" stroke-miterlimit="4.00" viewBox="0 0 133 473"><desc>SVG generated by Keynote</desc><defs></defs><g transform="matrix(1.00, 0.00, -0.00, -1.00, 0.0, 473.0)"><path d="M 13.5 0.0 L 110.4 0.0 C 114.2 0.0 116.2 0.0 118.3 0.7 C 120.6 1.5 122.3 3.3 123.2 5.6 C 123.8 7.6 123.8 9.6 123.8 13.5 L 123.8 451.1 C 123.8 454.9 123.8 456.9 123.2 459.0 C 122.3 461.2 120.6 463.0 118.3 463.9 C 116.2 464.5 114.2 464.5 110.3 464.5 L 13.5 464.5 C 9.6 464.5 7.6 464.5 5.6 463.9 C 3.3 463.0 1.5 461.2 0.7 459.0 C 0.0 456.9 0.0 454.9 0.0 451.0 L 0.0 13.5 C 0.0 9.6 0.0 7.6 0.7 5.6 C 1.5 3.3 3.3 1.5 5.6 0.7 C 7.6 0.0 9.6 0.0 13.5 0.0 Z M 13.5 0.0 " fill="none" stroke="#FF2600" stroke-width="6.00" transform="matrix(1.00, 0.00, 0.00, -1.00, 4.4, 468.7)"></path></g></svg>