<?xml version="1.0" encoding="UTF-8" standalone="no"?><svg xmlns="http://www.w3.org/2000/svg" xmlns:xlink="http://www.w3.org/1999/xlink" clip-rule="evenodd" stroke-miterlimit="4.00" viewBox="0 0 149 453"><desc>SVG generated by Keynote</desc><defs></defs><g transform="matrix(1.00, 0.00, -0.00, -1.00, 0.0, 453.0)"><path d="M 13.5 0.0 L 127.3 0.0 C 131.1 0.0 133.1 0.0 135.2 0.7 C 137.4 1.5 139.2 3.3 140.1 5.6 C 140.7 7.6 140.7 9.6 140.7 13.5 L 140.7 430.4 C 140.7 434.3 140.7 436.2 140.1 438.3 C 139.2 440.6 137.4 442.4 135.2 443.2 C 133.1 443.8 131.1 443.8 127.2 443.8 L 13.5 443.8 C 9.6 443.8 7.6 443.8 5.6 443.2 C 3.3 442.4 1.5 440.6 0.7 438.3 C 0.0 436.2 0.0 434.3 0.0 430.3 L 0.0 13.5 C 0.0 9.6 0.0 7.6 0.7 5.6 C 1.5 3.3 3.3 1.5 5.6 0.7 C 7.6 0.0 9.6 0.0 13.5 0.0 Z M 13.5 0.0 " fill="none" stroke="#FF2600" stroke-width="6.00" transform="matrix(1.00, 0.00, 0.00, -1.00, 4.2, 448.5)"></path></g></svg>