<?xml version="1.0" encoding="UTF-8" standalone="no"?><svg xmlns="http://www.w3.org/2000/svg" xmlns:xlink="http://www.w3.org/1999/xlink" clip-rule="evenodd" stroke-miterlimit="10" viewBox="0 0 1024 768"><desc>SVG generated by Keynote</desc><defs></defs><g transform="matrix(1.00, 0.00, -0.00, -1.00, 0.0, 768.0)"><g><clipPath id="clip0x600001abdca0"><path d="M 0.0 768.0 L 1024.0 768.0 L 1024.0 0.0 L 0.0 0.0 Z M 0.0 768.0 "></path></clipPath><g clip-path="url(#clip0x600001abdca0)"><image xlink:href="../../BE4D2DDB-FBE4-467E-AE38-B34F9028D09E/assets/9397CAD6F20342ACC2646ABBCA758461.jpeg" width="2048.00" height="1536.00" transform="matrix(0.50, 0.00, -0.00, -0.50, 0.0, 768.0)"></image></g></g><image xlink:href="../../1A9D1EFF-0A5C-4E29-87D1-DCA3A8AF2282/assets/C895AB0872306BD52F3A83DACA288708.png" width="910.00" height="695.00" transform="matrix(1.00, 0.00, -0.00, -1.00, 58.0, 777.3)" opacity="0.70"></image><g><clipPath id="clip0x6080012bcb00"><path d="M 83.0 749.0 L 941.0 749.0 L 941.0 112.0 L 83.0 112.0 Z M 83.0 749.0 "></path></clipPath><g clip-path="url(#clip0x6080012bcb00)"><image xlink:href="../../1A9D1EFF-0A5C-4E29-87D1-DCA3A8AF2282/assets/207C79D184D1BAF2CF1BE4F57233235B.png" width="996.00" height="1500.00" transform="matrix(0.86, 0.00, -0.00, -0.86, 83.8, 1386.8)"></image></g></g><image xlink:href="../../1A9D1EFF-0A5C-4E29-87D1-DCA3A8AF2282/assets/3E004FBC8CE5C4825580F2A9FE2BD6F6.png" width="902.00" height="687.00" transform="matrix(1.00, 0.00, -0.00, 1.00, 61.0, 87.9)"></image><image xlink:href="../../1A9D1EFF-0A5C-4E29-87D1-DCA3A8AF2282/assets/625BBAB6CC2A283283BB1D99C8BA2D2A.png" width="959.00" height="32.00" transform="matrix(1.00, 0.00, -0.00, -1.00, 32.0, 79.0)"></image><text xml:space="preserve" font-family="HelveticaNeue-Medium,Helvetica Neue" font-size="24.0" fill="#EAEAEA" transform="matrix(1.00, 0.00, -0.00, -1.00, 37.1, 58.9)">A</text><text xml:space="preserve" font-family="HelveticaNeue-Medium,Helvetica Neue" font-size="24.0" fill="#EAEAEA" transform="matrix(1.00, 0.00, -0.00, -1.00, 53.1, 58.9)">n</text><text xml:space="preserve" font-family="HelveticaNeue-Medium,Helvetica Neue" font-size="24.0" fill="#EAEAEA" transform="matrix(1.00, 0.00, -0.00, -1.00, 66.9, 58.9)">a</text><text xml:space="preserve" font-family="HelveticaNeue-Medium,Helvetica Neue" font-size="24.0" fill="#EAEAEA" transform="matrix(1.00, 0.00, -0.00, -1.00, 80.3, 58.9)">s</text><text xml:space="preserve" font-family="HelveticaNeue-Medium,Helvetica Neue" font-size="24.0" fill="#EAEAEA" transform="matrix(1.00, 0.00, -0.00, -1.00, 92.7, 58.9)">e</text><text xml:space="preserve" font-family="HelveticaNeue-Medium,Helvetica Neue" font-size="24.0" fill="#EAEAEA" transform="matrix(1.00, 0.00, -0.00, -1.00, 106.1, 58.9)">t</text><text xml:space="preserve" font-family="HelveticaNeue-Medium,Helvetica Neue" font-size="24.0" fill="#EAEAEA" transform="matrix(1.00, 0.00, -0.00, -1.00, 114.0, 58.9)">t</text><text xml:space="preserve" font-family="HelveticaNeue-Medium,Helvetica Neue" font-size="24.0" fill="#EAEAEA" transform="matrix(1.00, 0.00, -0.00, -1.00, 122.0, 58.9)">i</text><text xml:space="preserve" font-family="HelveticaNeue-Medium,Helvetica Neue" font-size="24.0" fill="#EAEAEA" transform="matrix(1.00, 0.00, -0.00, -1.00, 127.8, 58.9)"> </text><text xml:space="preserve" font-family="HelveticaNeue-Medium,Helvetica Neue" font-size="24.0" fill="#EAEAEA" transform="matrix(1.00, 0.00, -0.00, -1.00, 134.5, 58.9)">C</text><text xml:space="preserve" font-family="HelveticaNeue-Medium,Helvetica Neue" font-size="24.0" fill="#EAEAEA" transform="matrix(1.00, 0.00, -0.00, -1.00, 151.8, 58.9)">,</text><text xml:space="preserve" font-family="HelveticaNeue-Medium,Helvetica Neue" font-size="24.0" fill="#EAEAEA" transform="matrix(1.00, 0.00, -0.00, -1.00, 158.5, 58.9)"> </text><text xml:space="preserve" font-family="HelveticaNeue-Medium,Helvetica Neue" font-size="24.0" fill="#EAEAEA" transform="matrix(1.00, 0.00, -0.00, -1.00, 165.2, 58.9)">L</text><text xml:space="preserve" font-family="HelveticaNeue-Medium,Helvetica Neue" font-size="24.0" fill="#EAEAEA" transform="matrix(1.00, 0.00, -0.00, -1.00, 178.9, 58.9)">o</text><text xml:space="preserve" font-family="HelveticaNeue-Medium,Helvetica Neue" font-size="24.0" fill="#EAEAEA" transform="matrix(1.00, 0.00, -0.00, -1.00, 193.2, 58.9)">g</text><text xml:space="preserve" font-family="HelveticaNeue-Medium,Helvetica Neue" font-size="24.0" fill="#EAEAEA" transform="matrix(1.00, 0.00, -0.00, -1.00, 207.4, 58.9)">a</text><text xml:space="preserve" font-family="HelveticaNeue-Medium,Helvetica Neue" font-size="24.0" fill="#EAEAEA" transform="matrix(1.00, 0.00, -0.00, -1.00, 220.7, 58.9)">n</text><text xml:space="preserve" font-family="HelveticaNeue-Medium,Helvetica Neue" font-size="24.0" fill="#EAEAEA" transform="matrix(1.00, 0.00, -0.00, -1.00, 234.5, 58.9)"> </text><text xml:space="preserve" font-family="HelveticaNeue-Medium,Helvetica Neue" font-size="24.0" fill="#EAEAEA" transform="matrix(1.00, 0.00, -0.00, -1.00, 241.2, 58.9)">B</text><text xml:space="preserve" font-family="HelveticaNeue-Medium,Helvetica Neue" font-size="24.0" fill="#EAEAEA" transform="matrix(1.00, 0.00, -0.00, -1.00, 258.1, 58.9)">R</text><text xml:space="preserve" font-family="HelveticaNeue-Medium,Helvetica Neue" font-size="24.0" fill="#EAEAEA" transform="matrix(1.00, 0.00, -0.00, -1.00, 275.0, 58.9)">,</text><text xml:space="preserve" font-family="HelveticaNeue-Medium,Helvetica Neue" font-size="24.0" fill="#EAEAEA" transform="matrix(1.00, 0.00, -0.00, -1.00, 281.7, 58.9)"> </text><text xml:space="preserve" font-family="HelveticaNeue-Medium,Helvetica Neue" font-size="24.0" fill="#EAEAEA" transform="matrix(1.00, 0.00, -0.00, -1.00, 288.3, 58.9)">L</text><text xml:space="preserve" font-family="HelveticaNeue-Medium,Helvetica Neue" font-size="24.0" fill="#EAEAEA" transform="matrix(1.00, 0.00, -0.00, -1.00, 302.1, 58.9)">e</text><text xml:space="preserve" font-family="HelveticaNeue-Medium,Helvetica Neue" font-size="24.0" fill="#EAEAEA" transform="matrix(1.00, 0.00, -0.00, -1.00, 315.5, 58.9)">e</text><text xml:space="preserve" font-family="HelveticaNeue-Medium,Helvetica Neue" font-size="24.0" fill="#EAEAEA" transform="matrix(1.00, 0.00, -0.00, -1.00, 328.8, 58.9)"> </text><text xml:space="preserve" font-family="HelveticaNeue-Medium,Helvetica Neue" font-size="24.0" fill="#EAEAEA" transform="matrix(1.00, 0.00, -0.00, -1.00, 335.5, 58.9)">S</text><text xml:space="preserve" font-family="HelveticaNeue-Medium,Helvetica Neue" font-size="24.0" fill="#EAEAEA" transform="matrix(1.00, 0.00, -0.00, -1.00, 351.0, 58.9)">J</text><text xml:space="preserve" font-family="HelveticaNeue-Medium,Helvetica Neue" font-size="24.0" fill="#EAEAEA" transform="matrix(1.00, 0.00, -0.00, -1.00, 363.9, 58.9)">,</text><text xml:space="preserve" font-family="HelveticaNeue-Medium,Helvetica Neue" font-size="24.0" fill="#EAEAEA" transform="matrix(1.00, 0.00, -0.00, -1.00, 370.6, 58.9)"> </text><text xml:space="preserve" font-family="HelveticaNeue-Medium,Helvetica Neue" font-size="24.0" fill="#EAEAEA" transform="matrix(1.00, 0.00, -0.00, -1.00, 377.3, 58.9)">e</text><text xml:space="preserve" font-family="HelveticaNeue-Medium,Helvetica Neue" font-size="24.0" fill="#EAEAEA" transform="matrix(1.00, 0.00, -0.00, -1.00, 390.6, 58.9)">t</text><text xml:space="preserve" font-family="HelveticaNeue-Medium,Helvetica Neue" font-size="24.0" fill="#EAEAEA" transform="matrix(1.00, 0.00, -0.00, -1.00, 398.6, 58.9)"> </text><text xml:space="preserve" font-family="HelveticaNeue-Medium,Helvetica Neue" font-size="24.0" fill="#EAEAEA" transform="matrix(1.00, 0.00, -0.00, -1.00, 405.3, 58.9)">a</text><text xml:space="preserve" font-family="HelveticaNeue-Medium,Helvetica Neue" font-size="24.0" fill="#EAEAEA" transform="matrix(1.00, 0.00, -0.00, -1.00, 418.6, 58.9)">l</text><text xml:space="preserve" font-family="HelveticaNeue-Medium,Helvetica Neue" font-size="24.0" fill="#EAEAEA" transform="matrix(1.00, 0.00, -0.00, -1.00, 424.4, 58.9)">.</text><text xml:space="preserve" font-family="HelveticaNeue-Medium,Helvetica Neue" font-size="24.0" fill="#EAEAEA" transform="matrix(1.00, 0.00, -0.00, -1.00, 431.1, 58.9)"> </text><text xml:space="preserve" font-family="HelveticaNeue-Medium,Helvetica Neue" font-size="24.0" fill="#EAEAEA" transform="matrix(1.00, 0.00, -0.00, -1.00, 437.7, 58.9)">P</text><text xml:space="preserve" font-family="HelveticaNeue-Medium,Helvetica Neue" font-size="24.0" fill="#EAEAEA" transform="matrix(1.00, 0.00, -0.00, -1.00, 453.7, 58.9)">e</text><text xml:space="preserve" font-family="HelveticaNeue-Medium,Helvetica Neue" font-size="24.0" fill="#EAEAEA" transform="matrix(1.00, 0.00, -0.00, -1.00, 467.1, 58.9)">r</text><text xml:space="preserve" font-family="HelveticaNeue-Medium,Helvetica Neue" font-size="24.0" fill="#EAEAEA" transform="matrix(1.00, 0.00, -0.00, -1.00, 475.5, 58.9)">i</text><text xml:space="preserve" font-family="HelveticaNeue-Medium,Helvetica Neue" font-size="24.0" fill="#EAEAEA" transform="matrix(1.00, 0.00, -0.00, -1.00, 481.3, 58.9)">p</text><text xml:space="preserve" font-family="HelveticaNeue-Medium,Helvetica Neue" font-size="24.0" fill="#EAEAEA" transform="matrix(1.00, 0.00, -0.00, -1.00, 496.0, 58.9)">h</text><text xml:space="preserve" font-family="HelveticaNeue-Medium,Helvetica Neue" font-size="24.0" fill="#EAEAEA" transform="matrix(1.00, 0.00, -0.00, -1.00, 509.8, 58.9)">e</text><text xml:space="preserve" font-family="HelveticaNeue-Medium,Helvetica Neue" font-size="24.0" fill="#EAEAEA" transform="matrix(1.00, 0.00, -0.00, -1.00, 523.1, 58.9)">r</text><text xml:space="preserve" font-family="HelveticaNeue-Medium,Helvetica Neue" font-size="24.0" fill="#EAEAEA" transform="matrix(1.00, 0.00, -0.00, -1.00, 531.5, 58.9)">a</text><text xml:space="preserve" font-family="HelveticaNeue-Medium,Helvetica Neue" font-size="24.0" fill="#EAEAEA" transform="matrix(1.00, 0.00, -0.00, -1.00, 544.9, 58.9)">l</text><text xml:space="preserve" font-family="HelveticaNeue-Medium,Helvetica Neue" font-size="24.0" fill="#EAEAEA" transform="matrix(1.00, 0.00, -0.00, -1.00, 550.7, 58.9)">-</text><text xml:space="preserve" font-family="HelveticaNeue-Medium,Helvetica Neue" font-size="24.0" fill="#EAEAEA" transform="matrix(1.00, 0.00, -0.00, -1.00, 560.0, 58.9)">B</text><text xml:space="preserve" font-family="HelveticaNeue-Medium,Helvetica Neue" font-size="24.0" fill="#EAEAEA" transform="matrix(1.00, 0.00, -0.00, -1.00, 576.9, 58.9)">l</text><text xml:space="preserve" font-family="HelveticaNeue-Medium,Helvetica Neue" font-size="24.0" fill="#EAEAEA" transform="matrix(1.00, 0.00, -0.00, -1.00, 582.7, 58.9)">o</text><text xml:space="preserve" font-family="HelveticaNeue-Medium,Helvetica Neue" font-size="24.0" fill="#EAEAEA" transform="matrix(1.00, 0.00, -0.00, -1.00, 596.9, 58.9)">o</text><text xml:space="preserve" font-family="HelveticaNeue-Medium,Helvetica Neue" font-size="24.0" fill="#EAEAEA" transform="matrix(1.00, 0.00, -0.00, -1.00, 611.2, 58.9)">d</text><text xml:space="preserve" font-family="HelveticaNeue-Medium,Helvetica Neue" font-size="24.0" fill="#EAEAEA" transform="matrix(1.00, 0.00, -0.00, -1.00, 625.8, 58.9)"> </text><text xml:space="preserve" font-family="HelveticaNeue-Medium,Helvetica Neue" font-size="24.0" fill="#EAEAEA" transform="matrix(1.00, 0.00, -0.00, -1.00, 632.5, 58.9)">S</text><text xml:space="preserve" font-family="HelveticaNeue-Medium,Helvetica Neue" font-size="24.0" fill="#EAEAEA" transform="matrix(1.00, 0.00, -0.00, -1.00, 648.0, 58.9)">t</text><text xml:space="preserve" font-family="HelveticaNeue-Medium,Helvetica Neue" font-size="24.0" fill="#EAEAEA" transform="matrix(1.00, 0.00, -0.00, -1.00, 656.0, 58.9)">e</text><text xml:space="preserve" font-family="HelveticaNeue-Medium,Helvetica Neue" font-size="24.0" fill="#EAEAEA" transform="matrix(1.00, 0.00, -0.00, -1.00, 669.4, 58.9)">m</text><text xml:space="preserve" font-family="HelveticaNeue-Medium,Helvetica Neue" font-size="24.0" fill="#EAEAEA" transform="matrix(1.00, 0.00, -0.00, -1.00, 690.3, 58.9)"> </text><text xml:space="preserve" font-family="HelveticaNeue-Medium,Helvetica Neue" font-size="24.0" fill="#EAEAEA" transform="matrix(1.00, 0.00, -0.00, -1.00, 696.9, 58.9)">C</text><text xml:space="preserve" font-family="HelveticaNeue-Medium,Helvetica Neue" font-size="24.0" fill="#EAEAEA" transform="matrix(1.00, 0.00, -0.00, -1.00, 714.3, 58.9)">e</text><text xml:space="preserve" font-family="HelveticaNeue-Medium,Helvetica Neue" font-size="24.0" fill="#EAEAEA" transform="matrix(1.00, 0.00, -0.00, -1.00, 727.6, 58.9)">l</text><text xml:space="preserve" font-family="HelveticaNeue-Medium,Helvetica Neue" font-size="24.0" fill="#EAEAEA" transform="matrix(1.00, 0.00, -0.00, -1.00, 733.4, 58.9)">l</text><text xml:space="preserve" font-family="HelveticaNeue-Medium,Helvetica Neue" font-size="24.0" fill="#EAEAEA" transform="matrix(1.00, 0.00, -0.00, -1.00, 739.2, 58.9)">s</text><text xml:space="preserve" font-family="HelveticaNeue-Medium,Helvetica Neue" font-size="24.0" fill="#EAEAEA" transform="matrix(1.00, 0.00, -0.00, -1.00, 751.6, 58.9)"> </text><text xml:space="preserve" font-family="HelveticaNeue-Medium,Helvetica Neue" font-size="24.0" fill="#EAEAEA" transform="matrix(1.00, 0.00, -0.00, -1.00, 758.3, 58.9)">v</text><text xml:space="preserve" font-family="HelveticaNeue-Medium,Helvetica Neue" font-size="24.0" fill="#EAEAEA" transform="matrix(1.00, 0.00, -0.00, -1.00, 770.8, 58.9)">e</text><text xml:space="preserve" font-family="HelveticaNeue-Medium,Helvetica Neue" font-size="24.0" fill="#EAEAEA" transform="matrix(1.00, 0.00, -0.00, -1.00, 784.1, 58.9)">r</text><text xml:space="preserve" font-family="HelveticaNeue-Medium,Helvetica Neue" font-size="24.0" fill="#EAEAEA" transform="matrix(1.00, 0.00, -0.00, -1.00, 792.5, 58.9)">s</text><text xml:space="preserve" font-family="HelveticaNeue-Medium,Helvetica Neue" font-size="24.0" fill="#EAEAEA" transform="matrix(1.00, 0.00, -0.00, -1.00, 805.0, 58.9)">u</text><text xml:space="preserve" font-family="HelveticaNeue-Medium,Helvetica Neue" font-size="24.0" fill="#EAEAEA" transform="matrix(1.00, 0.00, -0.00, -1.00, 818.8, 58.9)">s</text><text xml:space="preserve" font-family="HelveticaNeue-Medium,Helvetica Neue" font-size="24.0" fill="#EAEAEA" transform="matrix(1.00, 0.00, -0.00, -1.00, 831.2, 58.9)"> </text><text xml:space="preserve" font-family="HelveticaNeue-Medium,Helvetica Neue" font-size="24.0" fill="#EAEAEA" transform="matrix(1.00, 0.00, -0.00, -1.00, 837.9, 58.9)">B</text><text xml:space="preserve" font-family="HelveticaNeue-Medium,Helvetica Neue" font-size="24.0" fill="#EAEAEA" transform="matrix(1.00, 0.00, -0.00, -1.00, 854.8, 58.9)">o</text><text xml:space="preserve" font-family="HelveticaNeue-Medium,Helvetica Neue" font-size="24.0" fill="#EAEAEA" transform="matrix(1.00, 0.00, -0.00, -1.00, 869.0, 58.9)">n</text><text xml:space="preserve" font-family="HelveticaNeue-Medium,Helvetica Neue" font-size="24.0" fill="#EAEAEA" transform="matrix(1.00, 0.00, -0.00, -1.00, 882.8, 58.9)">e</text><text xml:space="preserve" font-family="HelveticaNeue-Medium,Helvetica Neue" font-size="24.0" fill="#EAEAEA" transform="matrix(1.00, 0.00, -0.00, -1.00, 896.2, 58.9)"> </text><text xml:space="preserve" font-family="HelveticaNeue-Medium,Helvetica Neue" font-size="24.0" fill="#EAEAEA" transform="matrix(1.00, 0.00, -0.00, -1.00, 902.8, 58.9)">M</text><text xml:space="preserve" font-family="HelveticaNeue-Medium,Helvetica Neue" font-size="24.0" fill="#EAEAEA" transform="matrix(1.00, 0.00, -0.00, -1.00, 924.2, 58.9)">a</text><text xml:space="preserve" font-family="HelveticaNeue-Medium,Helvetica Neue" font-size="24.0" fill="#EAEAEA" transform="matrix(1.00, 0.00, -0.00, -1.00, 937.5, 58.9)">r</text><text xml:space="preserve" font-family="HelveticaNeue-Medium,Helvetica Neue" font-size="24.0" fill="#EAEAEA" transform="matrix(1.00, 0.00, -0.00, -1.00, 946.0, 58.9)">r</text><text xml:space="preserve" font-family="HelveticaNeue-Medium,Helvetica Neue" font-size="24.0" fill="#EAEAEA" transform="matrix(1.00, 0.00, -0.00, -1.00, 954.0, 58.9)">o</text><text xml:space="preserve" font-family="HelveticaNeue-Medium,Helvetica Neue" font-size="24.0" fill="#EAEAEA" transform="matrix(1.00, 0.00, -0.00, -1.00, 968.2, 58.9)">w</text><text xml:space="preserve" font-family="HelveticaNeue-Medium,Helvetica Neue" font-size="24.0" fill="#EAEAEA" transform="matrix(1.00, 0.00, -0.00, -1.00, 986.9, 58.9)"> </text><image xlink:href="../../1A9D1EFF-0A5C-4E29-87D1-DCA3A8AF2282/assets/AD6DC53C21E72599E7229EB44F5C8BE7.png" width="904.00" height="32.00" transform="matrix(1.00, 0.00, -0.00, -1.00, 59.0, 50.0)"></image><text xml:space="preserve" font-family="HelveticaNeue-Medium,Helvetica Neue" font-size="24.0" fill="#EAEAEA" transform="matrix(1.00, 0.00, -0.00, -1.00, 63.6, 29.9)">f</text><text xml:space="preserve" font-family="HelveticaNeue-Medium,Helvetica Neue" font-size="24.0" fill="#EAEAEA" transform="matrix(1.00, 0.00, -0.00, -1.00, 71.1, 29.9)">r</text><text xml:space="preserve" font-family="HelveticaNeue-Medium,Helvetica Neue" font-size="24.0" fill="#EAEAEA" transform="matrix(1.00, 0.00, -0.00, -1.00, 79.1, 29.9)">o</text><text xml:space="preserve" font-family="HelveticaNeue-Medium,Helvetica Neue" font-size="24.0" fill="#EAEAEA" transform="matrix(1.00, 0.00, -0.00, -1.00, 93.4, 29.9)">m</text><text xml:space="preserve" font-family="HelveticaNeue-Medium,Helvetica Neue" font-size="24.0" fill="#EAEAEA" transform="matrix(1.00, 0.00, -0.00, -1.00, 114.2, 29.9)"> </text><text xml:space="preserve" font-family="HelveticaNeue-Medium,Helvetica Neue" font-size="24.0" fill="#EAEAEA" transform="matrix(1.00, 0.00, -0.00, -1.00, 120.9, 29.9)">U</text><text xml:space="preserve" font-family="HelveticaNeue-Medium,Helvetica Neue" font-size="24.0" fill="#EAEAEA" transform="matrix(1.00, 0.00, -0.00, -1.00, 138.2, 29.9)">n</text><text xml:space="preserve" font-family="HelveticaNeue-Medium,Helvetica Neue" font-size="24.0" fill="#EAEAEA" transform="matrix(1.00, 0.00, -0.00, -1.00, 152.0, 29.9)">r</text><text xml:space="preserve" font-family="HelveticaNeue-Medium,Helvetica Neue" font-size="24.0" fill="#EAEAEA" transform="matrix(1.00, 0.00, -0.00, -1.00, 160.0, 29.9)">e</text><text xml:space="preserve" font-family="HelveticaNeue-Medium,Helvetica Neue" font-size="24.0" fill="#EAEAEA" transform="matrix(1.00, 0.00, -0.00, -1.00, 173.4, 29.9)">l</text><text xml:space="preserve" font-family="HelveticaNeue-Medium,Helvetica Neue" font-size="24.0" fill="#EAEAEA" transform="matrix(1.00, 0.00, -0.00, -1.00, 179.2, 29.9)">a</text><text xml:space="preserve" font-family="HelveticaNeue-Medium,Helvetica Neue" font-size="24.0" fill="#EAEAEA" transform="matrix(1.00, 0.00, -0.00, -1.00, 192.5, 29.9)">t</text><text xml:space="preserve" font-family="HelveticaNeue-Medium,Helvetica Neue" font-size="24.0" fill="#EAEAEA" transform="matrix(1.00, 0.00, -0.00, -1.00, 200.5, 29.9)">e</text><text xml:space="preserve" font-family="HelveticaNeue-Medium,Helvetica Neue" font-size="24.0" fill="#EAEAEA" transform="matrix(1.00, 0.00, -0.00, -1.00, 213.8, 29.9)">d</text><text xml:space="preserve" font-family="HelveticaNeue-Medium,Helvetica Neue" font-size="24.0" fill="#EAEAEA" transform="matrix(1.00, 0.00, -0.00, -1.00, 228.5, 29.9)"> </text><text xml:space="preserve" font-family="HelveticaNeue-Medium,Helvetica Neue" font-size="24.0" fill="#EAEAEA" transform="matrix(1.00, 0.00, -0.00, -1.00, 235.2, 29.9)">D</text><text xml:space="preserve" font-family="HelveticaNeue-Medium,Helvetica Neue" font-size="24.0" fill="#EAEAEA" transform="matrix(1.00, 0.00, -0.00, -1.00, 252.5, 29.9)">o</text><text xml:space="preserve" font-family="HelveticaNeue-Medium,Helvetica Neue" font-size="24.0" fill="#EAEAEA" transform="matrix(1.00, 0.00, -0.00, -1.00, 266.7, 29.9)">n</text><text xml:space="preserve" font-family="HelveticaNeue-Medium,Helvetica Neue" font-size="24.0" fill="#EAEAEA" transform="matrix(1.00, 0.00, -0.00, -1.00, 280.5, 29.9)">o</text><text xml:space="preserve" font-family="HelveticaNeue-Medium,Helvetica Neue" font-size="24.0" fill="#EAEAEA" transform="matrix(1.00, 0.00, -0.00, -1.00, 294.8, 29.9)">r</text><text xml:space="preserve" font-family="HelveticaNeue-Medium,Helvetica Neue" font-size="24.0" fill="#EAEAEA" transform="matrix(1.00, 0.00, -0.00, -1.00, 303.2, 29.9)">s</text><text xml:space="preserve" font-family="HelveticaNeue-Medium,Helvetica Neue" font-size="24.0" fill="#EAEAEA" transform="matrix(1.00, 0.00, -0.00, -1.00, 315.7, 29.9)">.</text><text xml:space="preserve" font-family="HelveticaNeue-Medium,Helvetica Neue" font-size="24.0" fill="#EAEAEA" transform="matrix(1.00, 0.00, -0.00, -1.00, 322.3, 29.9)"> </text><text xml:space="preserve" font-family="HelveticaNeue-Medium,Helvetica Neue" font-size="24.0" fill="#EAEAEA" transform="matrix(1.00, 0.00, -0.00, -1.00, 329.0, 29.9)">N</text><text xml:space="preserve" font-family="HelveticaNeue-Medium,Helvetica Neue" font-size="24.0" fill="#EAEAEA" transform="matrix(1.00, 0.00, -0.00, -1.00, 346.3, 29.9)">e</text><text xml:space="preserve" font-family="HelveticaNeue-Medium,Helvetica Neue" font-size="24.0" fill="#EAEAEA" transform="matrix(1.00, 0.00, -0.00, -1.00, 359.7, 29.9)">w</text><text xml:space="preserve" font-family="HelveticaNeue-Medium,Helvetica Neue" font-size="24.0" fill="#EAEAEA" transform="matrix(1.00, 0.00, -0.00, -1.00, 378.3, 29.9)"> </text><text xml:space="preserve" font-family="HelveticaNeue-Medium,Helvetica Neue" font-size="24.0" fill="#EAEAEA" transform="matrix(1.00, 0.00, -0.00, -1.00, 385.0, 29.9)">E</text><text xml:space="preserve" font-family="HelveticaNeue-Medium,Helvetica Neue" font-size="24.0" fill="#EAEAEA" transform="matrix(1.00, 0.00, -0.00, -1.00, 400.1, 29.9)">n</text><text xml:space="preserve" font-family="HelveticaNeue-Medium,Helvetica Neue" font-size="24.0" fill="#EAEAEA" transform="matrix(1.00, 0.00, -0.00, -1.00, 413.9, 29.9)">g</text><text xml:space="preserve" font-family="HelveticaNeue-Medium,Helvetica Neue" font-size="24.0" fill="#EAEAEA" transform="matrix(1.00, 0.00, -0.00, -1.00, 428.1, 29.9)">l</text><text xml:space="preserve" font-family="HelveticaNeue-Medium,Helvetica Neue" font-size="24.0" fill="#EAEAEA" transform="matrix(1.00, 0.00, -0.00, -1.00, 433.9, 29.9)">a</text><text xml:space="preserve" font-family="HelveticaNeue-Medium,Helvetica Neue" font-size="24.0" fill="#EAEAEA" transform="matrix(1.00, 0.00, -0.00, -1.00, 447.3, 29.9)">n</text><text xml:space="preserve" font-family="HelveticaNeue-Medium,Helvetica Neue" font-size="24.0" fill="#EAEAEA" transform="matrix(1.00, 0.00, -0.00, -1.00, 461.0, 29.9)">d</text><text xml:space="preserve" font-family="HelveticaNeue-Medium,Helvetica Neue" font-size="24.0" fill="#EAEAEA" transform="matrix(1.00, 0.00, -0.00, -1.00, 475.7, 29.9)"> </text><text xml:space="preserve" font-family="HelveticaNeue-Medium,Helvetica Neue" font-size="24.0" fill="#EAEAEA" transform="matrix(1.00, 0.00, -0.00, -1.00, 482.4, 29.9)">J</text><text xml:space="preserve" font-family="HelveticaNeue-Medium,Helvetica Neue" font-size="24.0" fill="#EAEAEA" transform="matrix(1.00, 0.00, -0.00, -1.00, 495.3, 29.9)">o</text><text xml:space="preserve" font-family="HelveticaNeue-Medium,Helvetica Neue" font-size="24.0" fill="#EAEAEA" transform="matrix(1.00, 0.00, -0.00, -1.00, 509.5, 29.9)">u</text><text xml:space="preserve" font-family="HelveticaNeue-Medium,Helvetica Neue" font-size="24.0" fill="#EAEAEA" transform="matrix(1.00, 0.00, -0.00, -1.00, 523.3, 29.9)">r</text><text xml:space="preserve" font-family="HelveticaNeue-Medium,Helvetica Neue" font-size="24.0" fill="#EAEAEA" transform="matrix(1.00, 0.00, -0.00, -1.00, 532.2, 29.9)">n</text><text xml:space="preserve" font-family="HelveticaNeue-Medium,Helvetica Neue" font-size="24.0" fill="#EAEAEA" transform="matrix(1.00, 0.00, -0.00, -1.00, 545.9, 29.9)">a</text><text xml:space="preserve" font-family="HelveticaNeue-Medium,Helvetica Neue" font-size="24.0" fill="#EAEAEA" transform="matrix(1.00, 0.00, -0.00, -1.00, 559.3, 29.9)">l</text><text xml:space="preserve" font-family="HelveticaNeue-Medium,Helvetica Neue" font-size="24.0" fill="#EAEAEA" transform="matrix(1.00, 0.00, -0.00, -1.00, 565.1, 29.9)"> </text><text xml:space="preserve" font-family="HelveticaNeue-Medium,Helvetica Neue" font-size="24.0" fill="#EAEAEA" transform="matrix(1.00, 0.00, -0.00, -1.00, 571.7, 29.9)">o</text><text xml:space="preserve" font-family="HelveticaNeue-Medium,Helvetica Neue" font-size="24.0" fill="#EAEAEA" transform="matrix(1.00, 0.00, -0.00, -1.00, 586.0, 29.9)">f</text><text xml:space="preserve" font-family="HelveticaNeue-Medium,Helvetica Neue" font-size="24.0" fill="#EAEAEA" transform="matrix(1.00, 0.00, -0.00, -1.00, 593.5, 29.9)"> </text><text xml:space="preserve" font-family="HelveticaNeue-Medium,Helvetica Neue" font-size="24.0" fill="#EAEAEA" transform="matrix(1.00, 0.00, -0.00, -1.00, 600.2, 29.9)">M</text><text xml:space="preserve" font-family="HelveticaNeue-Medium,Helvetica Neue" font-size="24.0" fill="#EAEAEA" transform="matrix(1.00, 0.00, -0.00, -1.00, 621.5, 29.9)">e</text><text xml:space="preserve" font-family="HelveticaNeue-Medium,Helvetica Neue" font-size="24.0" fill="#EAEAEA" transform="matrix(1.00, 0.00, -0.00, -1.00, 634.9, 29.9)">d</text><text xml:space="preserve" font-family="HelveticaNeue-Medium,Helvetica Neue" font-size="24.0" fill="#EAEAEA" transform="matrix(1.00, 0.00, -0.00, -1.00, 649.5, 29.9)">i</text><text xml:space="preserve" font-family="HelveticaNeue-Medium,Helvetica Neue" font-size="24.0" fill="#EAEAEA" transform="matrix(1.00, 0.00, -0.00, -1.00, 655.3, 29.9)">c</text><text xml:space="preserve" font-family="HelveticaNeue-Medium,Helvetica Neue" font-size="24.0" fill="#EAEAEA" transform="matrix(1.00, 0.00, -0.00, -1.00, 668.7, 29.9)">i</text><text xml:space="preserve" font-family="HelveticaNeue-Medium,Helvetica Neue" font-size="24.0" fill="#EAEAEA" transform="matrix(1.00, 0.00, -0.00, -1.00, 674.5, 29.9)">n</text><text xml:space="preserve" font-family="HelveticaNeue-Medium,Helvetica Neue" font-size="24.0" fill="#EAEAEA" transform="matrix(1.00, 0.00, -0.00, -1.00, 688.2, 29.9)">e</text><text xml:space="preserve" font-family="HelveticaNeue-Medium,Helvetica Neue" font-size="24.0" fill="#EAEAEA" transform="matrix(1.00, 0.00, -0.00, -1.00, 701.6, 29.9)">.</text><text xml:space="preserve" font-family="HelveticaNeue-Medium,Helvetica Neue" font-size="24.0" fill="#EAEAEA" transform="matrix(1.00, 0.00, -0.00, -1.00, 708.2, 29.9)"> </text><text xml:space="preserve" font-family="HelveticaNeue-Medium,Helvetica Neue" font-size="24.0" fill="#EAEAEA" transform="matrix(1.00, 0.00, -0.00, -1.00, 714.9, 29.9)">2</text><text xml:space="preserve" font-family="HelveticaNeue-Medium,Helvetica Neue" font-size="24.0" fill="#EAEAEA" transform="matrix(1.00, 0.00, -0.00, -1.00, 728.3, 29.9)">0</text><text xml:space="preserve" font-family="HelveticaNeue-Medium,Helvetica Neue" font-size="24.0" fill="#EAEAEA" transform="matrix(1.00, 0.00, -0.00, -1.00, 741.6, 29.9)">1</text><text xml:space="preserve" font-family="HelveticaNeue-Medium,Helvetica Neue" font-size="24.0" fill="#EAEAEA" transform="matrix(1.00, 0.00, -0.00, -1.00, 755.0, 29.9)">2</text><text xml:space="preserve" font-family="HelveticaNeue-Medium,Helvetica Neue" font-size="24.0" fill="#EAEAEA" transform="matrix(1.00, 0.00, -0.00, -1.00, 768.3, 29.9)">;</text><text xml:space="preserve" font-family="HelveticaNeue-Medium,Helvetica Neue" font-size="24.0" fill="#EAEAEA" transform="matrix(1.00, 0.00, -0.00, -1.00, 775.0, 29.9)">3</text><text xml:space="preserve" font-family="HelveticaNeue-Medium,Helvetica Neue" font-size="24.0" fill="#EAEAEA" transform="matrix(1.00, 0.00, -0.00, -1.00, 788.3, 29.9)">6</text><text xml:space="preserve" font-family="HelveticaNeue-Medium,Helvetica Neue" font-size="24.0" fill="#EAEAEA" transform="matrix(1.00, 0.00, -0.00, -1.00, 801.7, 29.9)">7</text><text xml:space="preserve" font-family="HelveticaNeue-Medium,Helvetica Neue" font-size="24.0" fill="#EAEAEA" transform="matrix(1.00, 0.00, -0.00, -1.00, 815.0, 29.9)">(</text><text xml:space="preserve" font-family="HelveticaNeue-Medium,Helvetica Neue" font-size="24.0" fill="#EAEAEA" transform="matrix(1.00, 0.00, -0.00, -1.00, 821.7, 29.9)">1</text><text xml:space="preserve" font-family="HelveticaNeue-Medium,Helvetica Neue" font-size="24.0" fill="#EAEAEA" transform="matrix(1.00, 0.00, -0.00, -1.00, 835.0, 29.9)">6</text><text xml:space="preserve" font-family="HelveticaNeue-Medium,Helvetica Neue" font-size="24.0" fill="#EAEAEA" transform="matrix(1.00, 0.00, -0.00, -1.00, 848.4, 29.9)">)</text><text xml:space="preserve" font-family="HelveticaNeue-Medium,Helvetica Neue" font-size="24.0" fill="#EAEAEA" transform="matrix(1.00, 0.00, -0.00, -1.00, 855.0, 29.9)">:</text><text xml:space="preserve" font-family="HelveticaNeue-Medium,Helvetica Neue" font-size="24.0" fill="#EAEAEA" transform="matrix(1.00, 0.00, -0.00, -1.00, 861.7, 29.9)">1</text><text xml:space="preserve" font-family="HelveticaNeue-Medium,Helvetica Neue" font-size="24.0" fill="#EAEAEA" transform="matrix(1.00, 0.00, -0.00, -1.00, 875.0, 29.9)">4</text><text xml:space="preserve" font-family="HelveticaNeue-Medium,Helvetica Neue" font-size="24.0" fill="#EAEAEA" transform="matrix(1.00, 0.00, -0.00, -1.00, 888.4, 29.9)">8</text><text xml:space="preserve" font-family="HelveticaNeue-Medium,Helvetica Neue" font-size="24.0" fill="#EAEAEA" transform="matrix(1.00, 0.00, -0.00, -1.00, 901.7, 29.9)">7</text><text xml:space="preserve" font-family="HelveticaNeue-Medium,Helvetica Neue" font-size="24.0" fill="#EAEAEA" transform="matrix(1.00, 0.00, -0.00, -1.00, 915.1, 29.9)">–</text><text xml:space="preserve" font-family="HelveticaNeue-Medium,Helvetica Neue" font-size="24.0" fill="#EAEAEA" transform="matrix(1.00, 0.00, -0.00, -1.00, 927.1, 29.9)">9</text><text xml:space="preserve" font-family="HelveticaNeue-Medium,Helvetica Neue" font-size="24.0" fill="#EAEAEA" transform="matrix(1.00, 0.00, -0.00, -1.00, 940.4, 29.9)">6</text><text xml:space="preserve" font-family="HelveticaNeue-Medium,Helvetica Neue" font-size="24.0" fill="#EAEAEA" transform="matrix(1.00, 0.00, -0.00, -1.00, 953.8, 29.9)">.</text><text xml:space="preserve" font-family="HelveticaNeue-Medium,Helvetica Neue" font-size="24.0" fill="#EAEAEA" transform="matrix(1.00, 0.00, -0.00, -1.00, 960.4, 29.9)"> </text></g></svg>