<?xml version="1.0" encoding="UTF-8" standalone="no"?><svg xmlns="http://www.w3.org/2000/svg" xmlns:xlink="http://www.w3.org/1999/xlink" clip-rule="evenodd" stroke-miterlimit="4.00" viewBox="0 0 203 207"><desc>SVG generated by Keynote</desc><defs></defs><g transform="matrix(1.00, 0.00, -0.00, -1.00, 0.0, 207.0)"><g><clipPath id="clip-12"><path d="M 2.0 206.0 L 202.0 206.0 L 202.0 1.0 L 2.0 1.0 Z M 1.8 205.8 "></path></clipPath><g clip-path="url(#clip-12)"><g><clipPath id="clip-13"><path d="M 116.5 188.7 C 107.9 188.8 93.3 187.8 83.9 186.3 C 79.5 185.5 72.6 184.6 68.6 184.1 C 59.4 183.1 54.6 180.8 47.5 173.8 C 39.7 166.1 34.3 158.6 28.9 147.6 C 26.3 142.5 22.3 135.3 19.9 131.7 C 13.9 122.3 12.1 117.9 12.2 112.6 C 12.3 107.3 18.3 82.8 22.5 70.7 C 24.2 65.9 26.0 59.8 26.6 57.2 C 31.1 37.7 42.2 25.5 62.4 18.1 C 68.7 15.8 81.0 12.7 87.5 11.9 C 90.5 11.5 97.1 11.1 102.2 11.1 C 113.2 11.0 115.6 11.8 126.8 19.8 C 135.9 26.3 139.4 28.1 148.2 30.9 C 155.9 33.3 161.9 36.8 166.0 41.2 C 171.9 47.4 186.3 81.3 187.2 90.8 C 188.1 100.5 185.0 114.3 179.7 125.0 C 177.3 129.9 174.4 136.3 173.3 139.2 C 169.3 149.9 161.2 161.9 154.3 167.4 C 150.7 170.2 143.3 174.3 141.7 174.3 C 141.1 174.3 137.4 177.2 133.5 180.7 C 128.5 185.2 125.2 187.5 122.6 188.2 C 121.5 188.5 119.3 188.6 116.5 188.7 Z M 116.5 188.7 "></path></clipPath><g clip-path="url(#clip-13)"><image xlink:href="7C5D9465405957DDF8552485606030D7.jpeg" width="485.00" height="322.00" transform="matrix(1.00, 0.00, -0.00, -1.00, -141.0, 256.0)"></image></g></g></g></g></g></svg>