<?xml version="1.0" encoding="UTF-8" standalone="no"?><svg xmlns="http://www.w3.org/2000/svg" xmlns:xlink="http://www.w3.org/1999/xlink" clip-rule="evenodd" stroke-miterlimit="4.00" viewBox="0 0 1024 768"><desc>SVG generated by Keynote</desc><defs></defs><g transform="matrix(1.00, 0.00, -0.00, -1.00, 0.0, 768.0)"><path d="M 0.0 768.0 L 1024.0 768.0 L 1024.0 0.0 L 0.0 0.0 Z M 0.0 768.0 " fill="#FEFFFE"></path><g><clipPath id="clip-100"><path d="M 350.0 776.0 L 1042.0 776.0 L 1042.0 697.0 L 350.0 697.0 Z M 350.4 775.5 "></path></clipPath><g clip-path="url(#clip-100)"><image xlink:href="../../9EC00774-A005-4A45-AD3A-4EAEF322499B/assets/276AECDD9D9E50812848FB8E2C4F967D.png" width="878.00" height="65.00" transform="matrix(1.21, 0.00, -0.00, -1.20, -18.0, 775.0)"></image></g></g><g><clipPath id="clip-101"><path d="M 249.0 699.0 L 775.0 699.0 L 775.0 27.0 L 249.0 27.0 Z M 249.0 698.6 "></path></clipPath><g clip-path="url(#clip-101)"><image xlink:href="../../9EC00774-A005-4A45-AD3A-4EAEF322499B/assets/FDBFDF6ACE1847D2E4C0E9248D16FB44.png" width="407.00" height="540.00" transform="matrix(1.29, 0.00, -0.00, -1.29, 249.0, 699.0)"></image></g></g><g><clipPath id="clip-102"><path d="M 6.0 762.0 L 470.0 762.0 L 470.0 727.0 L 6.0 727.0 Z M 5.6 761.9 "></path></clipPath><g clip-path="url(#clip-102)"><image xlink:href="../../9EC00774-A005-4A45-AD3A-4EAEF322499B/assets/96BBC25731309AC6C42A1208DF4BCB66.png" width="838.00" height="198.00" transform="matrix(1.08, 0.00, -0.00, -1.08, -246.0, 919.0)"></image></g></g></g></svg>