<?xml version="1.0" encoding="UTF-8" standalone="no"?><svg xmlns="http://www.w3.org/2000/svg" xmlns:xlink="http://www.w3.org/1999/xlink" clip-rule="evenodd" stroke-miterlimit="10" viewBox="0 0 1024 768"><desc>SVG generated by Keynote</desc><defs></defs><g transform="matrix(1.00, 0.00, -0.00, -1.00, 0.0, 768.0)"><g><clipPath id="clip0x6080010a8e80"><path d="M 0.0 768.0 L 1024.0 768.0 L 1024.0 0.0 L 0.0 0.0 Z M 0.0 768.0 "></path></clipPath><g clip-path="url(#clip0x6080010a8e80)"><image xlink:href="../../51F4F382-6FD0-4C4F-A665-17FD47C04DD6/assets/5732106E1A276CE8744A133DC1FC1EF1.jpeg" width="2048.00" height="1536.00" transform="matrix(0.50, 0.00, -0.00, -0.50, 0.0, 768.0)"></image></g></g><g><clipPath id="clip0x6000016a0a80"><path d="M 0.0 673.0 L 1024.0 673.0 L 1024.0 -3.0 L 0.0 -3.0 Z M 0.0 672.5 "></path></clipPath><g clip-path="url(#clip0x6000016a0a80)"><image xlink:href="4DCC8C99CBF44C47E86FD6B508017D04.png" width="833.00" height="550.00" transform="matrix(1.24, 0.00, -0.00, -1.24, -6.3, 677.2)"></image></g></g><image xlink:href="../../5E0766EA-0E6C-47E9-82FD-3D678B5FDD77/assets/DD1E4B07B03375D0EE7AD6171C331314.png" width="1026.00" height="694.00" transform="matrix(1.00, 0.00, -0.00, 1.00, -1.0, -11.5)"></image><image xlink:href="../../5E0766EA-0E6C-47E9-82FD-3D678B5FDD77/assets/F6D3440EC8D7D5105440BAED95A04741.png" width="310.00" height="94.00" transform="matrix(0.50, 0.00, -0.00, -0.50, 434.5, 700.5)"></image><image xlink:href="277D58C8548E88B8916701D34E5D190B.png" width="781.00" height="51.00" transform="matrix(1.00, 0.00, -0.00, -1.00, 65.0, 738.0)"></image><text xml:space="preserve" font-family="HelveticaNeue-Light,Helvetica Neue" font-size="49.0" fill="#FEFFFE" transform="matrix(1.00, 0.00, -0.00, -1.00, 66.0, 700.8)">U</text><text xml:space="preserve" font-family="HelveticaNeue-Light,Helvetica Neue" font-size="49.0" fill="#FEFFFE" transform="matrix(1.00, 0.00, -0.00, -1.00, 99.5, 700.8)">s</text><text xml:space="preserve" font-family="HelveticaNeue-Light,Helvetica Neue" font-size="49.0" fill="#FEFFFE" transform="matrix(1.00, 0.00, -0.00, -1.00, 123.1, 700.8)">e</text><text xml:space="preserve" font-family="HelveticaNeue-Light,Helvetica Neue" font-size="49.0" fill="#FEFFFE" transform="matrix(1.00, 0.00, -0.00, -1.00, 148.5, 700.8)"> </text><text xml:space="preserve" font-family="HelveticaNeue-Light,Helvetica Neue" font-size="49.0" fill="#FEFFFE" transform="matrix(1.00, 0.00, -0.00, -1.00, 162.1, 700.8)">o</text><text xml:space="preserve" font-family="HelveticaNeue-Light,Helvetica Neue" font-size="49.0" fill="#FEFFFE" transform="matrix(1.00, 0.00, -0.00, -1.00, 189.3, 700.8)">f</text><text xml:space="preserve" font-family="HelveticaNeue-Light,Helvetica Neue" font-size="49.0" fill="#FEFFFE" transform="matrix(1.00, 0.00, -0.00, -1.00, 202.0, 700.8)"> </text><text xml:space="preserve" font-family="HelveticaNeue-Light,Helvetica Neue" font-size="49.0" fill="#FEFFFE" transform="matrix(1.00, 0.00, -0.00, -1.00, 215.6, 700.8)">P</text><text xml:space="preserve" font-family="HelveticaNeue-Light,Helvetica Neue" font-size="49.0" fill="#FEFFFE" transform="matrix(1.00, 0.00, -0.00, -1.00, 246.5, 700.8)">O</text><text xml:space="preserve" font-family="HelveticaNeue-Light,Helvetica Neue" font-size="49.0" fill="#FEFFFE" transform="matrix(1.00, 0.00, -0.00, -1.00, 282.7, 700.8)">L</text><text xml:space="preserve" font-family="HelveticaNeue-Light,Helvetica Neue" font-size="49.0" fill="#FEFFFE" transform="matrix(1.00, 0.00, -0.00, -1.00, 309.0, 700.8)">S</text><text xml:space="preserve" font-family="HelveticaNeue-Light,Helvetica Neue" font-size="49.0" fill="#FEFFFE" transform="matrix(1.00, 0.00, -0.00, -1.00, 339.9, 700.8)">T</text><text xml:space="preserve" font-family="HelveticaNeue-Light,Helvetica Neue" font-size="49.0" fill="#FEFFFE" transform="matrix(1.00, 0.00, -0.00, -1.00, 367.1, 700.8)"> </text><text xml:space="preserve" font-family="HelveticaNeue-Light,Helvetica Neue" font-size="49.0" fill="#FEFFFE" transform="matrix(1.00, 0.00, -0.00, -1.00, 380.7, 700.8)">f</text><text xml:space="preserve" font-family="HelveticaNeue-Light,Helvetica Neue" font-size="49.0" fill="#FEFFFE" transform="matrix(1.00, 0.00, -0.00, -1.00, 393.4, 700.8)">o</text><text xml:space="preserve" font-family="HelveticaNeue-Light,Helvetica Neue" font-size="49.0" fill="#FEFFFE" transform="matrix(1.00, 0.00, -0.00, -1.00, 420.6, 700.8)">r</text><text xml:space="preserve" font-family="HelveticaNeue-Light,Helvetica Neue" font-size="49.0" fill="#FEFFFE" transform="matrix(1.00, 0.00, -0.00, -1.00, 436.0, 700.8)">m</text><text xml:space="preserve" font-family="HelveticaNeue-Light,Helvetica Neue" font-size="49.0" fill="#FEFFFE" transform="matrix(1.00, 0.00, -0.00, -1.00, 476.8, 700.8)">s</text><text xml:space="preserve" font-family="HelveticaNeue-Light,Helvetica Neue" font-size="49.0" fill="#FEFFFE" transform="matrix(1.00, 0.00, -0.00, -1.00, 500.4, 700.8)"> </text><text xml:space="preserve" font-family="HelveticaNeue-Light,Helvetica Neue" font-size="49.0" fill="#FEFFFE" transform="matrix(1.00, 0.00, -0.00, -1.00, 514.0, 700.8)">i</text><text xml:space="preserve" font-family="HelveticaNeue-Light,Helvetica Neue" font-size="49.0" fill="#FEFFFE" transform="matrix(1.00, 0.00, -0.00, -1.00, 523.0, 700.8)">n</text><text xml:space="preserve" font-family="HelveticaNeue-Light,Helvetica Neue" font-size="49.0" fill="#FEFFFE" transform="matrix(1.00, 0.00, -0.00, -1.00, 549.3, 700.8)"> </text><text xml:space="preserve" font-family="HelveticaNeue-Light,Helvetica Neue" font-size="49.0" fill="#FEFFFE" transform="matrix(1.00, 0.00, -0.00, -1.00, 562.9, 700.8)">t</text><text xml:space="preserve" font-family="HelveticaNeue-Light,Helvetica Neue" font-size="49.0" fill="#FEFFFE" transform="matrix(1.00, 0.00, -0.00, -1.00, 577.4, 700.8)">h</text><text xml:space="preserve" font-family="HelveticaNeue-Light,Helvetica Neue" font-size="49.0" fill="#FEFFFE" transform="matrix(1.00, 0.00, -0.00, -1.00, 603.7, 700.8)">e</text><text xml:space="preserve" font-family="HelveticaNeue-Light,Helvetica Neue" font-size="49.0" fill="#FEFFFE" transform="matrix(1.00, 0.00, -0.00, -1.00, 629.1, 700.8)"> </text><text xml:space="preserve" font-family="HelveticaNeue-Light,Helvetica Neue" font-size="49.0" fill="#FEFFFE" transform="matrix(1.00, 0.00, -0.00, -1.00, 642.7, 700.8)">U</text><text xml:space="preserve" font-family="HelveticaNeue-Light,Helvetica Neue" font-size="49.0" fill="#FEFFFE" transform="matrix(1.00, 0.00, -0.00, -1.00, 676.3, 700.8)">S</text><text xml:space="preserve" font-family="HelveticaNeue-Light,Helvetica Neue" font-size="49.0" fill="#FEFFFE" transform="matrix(1.00, 0.00, -0.00, -1.00, 707.1, 700.8)">,</text><text xml:space="preserve" font-family="HelveticaNeue-Light,Helvetica Neue" font-size="49.0" fill="#FEFFFE" transform="matrix(1.00, 0.00, -0.00, -1.00, 720.7, 700.8)"> </text><text xml:space="preserve" font-family="HelveticaNeue-Light,Helvetica Neue" font-size="49.0" fill="#FEFFFE" transform="matrix(1.00, 0.00, -0.00, -1.00, 734.4, 700.8)">2</text><text xml:space="preserve" font-family="HelveticaNeue-Light,Helvetica Neue" font-size="49.0" fill="#FEFFFE" transform="matrix(1.00, 0.00, -0.00, -1.00, 761.6, 700.8)">0</text><text xml:space="preserve" font-family="HelveticaNeue-Light,Helvetica Neue" font-size="49.0" fill="#FEFFFE" transform="matrix(1.00, 0.00, -0.00, -1.00, 788.8, 700.8)">1</text><text xml:space="preserve" font-family="HelveticaNeue-Light,Helvetica Neue" font-size="49.0" fill="#FEFFFE" transform="matrix(1.00, 0.00, -0.00, -1.00, 816.0, 700.8)">3</text></g></svg>