<?xml version="1.0" encoding="UTF-8" standalone="no"?><svg xmlns="http://www.w3.org/2000/svg" xmlns:xlink="http://www.w3.org/1999/xlink" clip-rule="evenodd" stroke-miterlimit="10" viewBox="0 0 1024 768"><desc>SVG generated by Keynote</desc><defs></defs><g transform="matrix(1.00, 0.00, -0.00, -1.00, 0.0, 768.0)"><path d="M 0.0 768.0 L 1024.0 768.0 L 1024.0 0.0 L 0.0 0.0 Z M 0.0 768.0 " fill="#000000"></path><image xlink:href="F1B2B8E12891FCF4655E748B10EAE2CB.png" width="123.00" height="43.00" transform="matrix(1.00, 0.00, -0.00, -1.00, 451.0, 476.0)"></image><text xml:space="preserve" font-family="Chalkduster,Chalkduster" font-size="38.0" fill="#FEE55E" transform="matrix(1.00, 0.00, -0.00, -1.00, 453.3, 444.0)">M</text><text xml:space="preserve" font-family="Chalkduster,Chalkduster" font-size="38.0" fill="#FEE55E" transform="matrix(1.00, 0.00, -0.00, -1.00, 485.2, 444.0)">R</text><text xml:space="preserve" font-family="Chalkduster,Chalkduster" font-size="38.0" fill="#FEE55E" transform="matrix(1.00, 0.00, -0.00, -1.00, 512.9, 444.0)">C</text><text xml:space="preserve" font-family="Chalkduster,Chalkduster" font-size="38.0" fill="#FEE55E" transform="matrix(1.00, 0.00, -0.00, -1.00, 543.7, 444.0)">P</text><text xml:space="preserve" font-family="Chalkduster,Chalkduster" font-size="38.0" fill="#FEE55E" transform="matrix(1.00, 0.00, -0.00, -1.00, 570.7, 444.0)"> </text><image xlink:href="4EC056F0946A90165C550AA3B71D4E65.png" width="363.00" height="55.00" transform="matrix(1.00, 0.00, -0.00, -1.00, 332.0, 430.0)"></image><text xml:space="preserve" font-family="Chalkduster,Chalkduster" font-size="38.0" fill="#FEE55E" transform="matrix(1.00, 0.00, -0.00, -1.00, 334.9, 395.0)">i</text><text xml:space="preserve" font-family="Chalkduster,Chalkduster" font-size="38.0" fill="#FEE55E" transform="matrix(1.00, 0.00, -0.00, -1.00, 349.9, 395.0)">m</text><text xml:space="preserve" font-family="Chalkduster,Chalkduster" font-size="38.0" fill="#FEE55E" transform="matrix(1.00, 0.00, -0.00, -1.00, 388.4, 395.0)">a</text><text xml:space="preserve" font-family="Chalkduster,Chalkduster" font-size="38.0" fill="#FEE55E" transform="matrix(1.00, 0.00, -0.00, -1.00, 412.6, 395.0)">g</text><text xml:space="preserve" font-family="Chalkduster,Chalkduster" font-size="38.0" fill="#FEE55E" transform="matrix(1.00, 0.00, -0.00, -1.00, 439.1, 395.0)">e</text><text xml:space="preserve" font-family="Chalkduster,Chalkduster" font-size="38.0" fill="#FEE55E" transform="matrix(1.00, 0.00, -0.00, -1.00, 463.5, 395.0)">s</text><text xml:space="preserve" font-family="Chalkduster,Chalkduster" font-size="38.0" fill="#FEE55E" transform="matrix(1.00, 0.00, -0.00, -1.00, 482.7, 395.0)"> </text><text xml:space="preserve" font-family="Chalkduster,Chalkduster" font-size="38.0" fill="#FEE55E" transform="matrix(1.00, 0.00, -0.00, -1.00, 501.6, 395.0)">r</text><text xml:space="preserve" font-family="Chalkduster,Chalkduster" font-size="38.0" fill="#FEE55E" transform="matrix(1.00, 0.00, -0.00, -1.00, 520.8, 395.0)">e</text><text xml:space="preserve" font-family="Chalkduster,Chalkduster" font-size="38.0" fill="#FEE55E" transform="matrix(1.00, 0.00, -0.00, -1.00, 544.4, 395.0)">m</text><text xml:space="preserve" font-family="Chalkduster,Chalkduster" font-size="38.0" fill="#FEE55E" transform="matrix(1.00, 0.00, -0.00, -1.00, 582.9, 395.0)">o</text><text xml:space="preserve" font-family="Chalkduster,Chalkduster" font-size="38.0" fill="#FEE55E" transform="matrix(1.00, 0.00, -0.00, -1.00, 611.3, 395.0)">v</text><text xml:space="preserve" font-family="Chalkduster,Chalkduster" font-size="38.0" fill="#FEE55E" transform="matrix(1.00, 0.00, -0.00, -1.00, 634.7, 395.0)">e</text><text xml:space="preserve" font-family="Chalkduster,Chalkduster" font-size="38.0" fill="#FEE55E" transform="matrix(1.00, 0.00, -0.00, -1.00, 659.4, 395.0)">d</text><text xml:space="preserve" font-family="Chalkduster,Chalkduster" font-size="38.0" fill="#FEE55E" transform="matrix(1.00, 0.00, -0.00, -1.00, 689.1, 395.0)"> </text><image xlink:href="262CF0797951DCE5100541677445DAC0.png" width="690.00" height="60.00" transform="matrix(1.00, 0.00, -0.00, -1.00, 167.0, 330.0)"></image><text xml:space="preserve" font-family="Chalkduster,Chalkduster" font-size="38.0" fill="#FEE55E" transform="matrix(1.00, 0.00, -0.00, -1.00, 170.0, 297.0)">L</text><text xml:space="preserve" font-family="Chalkduster,Chalkduster" font-size="38.0" fill="#FEE55E" transform="matrix(1.00, 0.00, -0.00, -1.00, 192.9, 297.0)">a</text><text xml:space="preserve" font-family="Chalkduster,Chalkduster" font-size="38.0" fill="#FEE55E" transform="matrix(1.00, 0.00, -0.00, -1.00, 217.1, 297.0)">r</text><text xml:space="preserve" font-family="Chalkduster,Chalkduster" font-size="38.0" fill="#FEE55E" transform="matrix(1.00, 0.00, -0.00, -1.00, 236.6, 297.0)">g</text><text xml:space="preserve" font-family="Chalkduster,Chalkduster" font-size="38.0" fill="#FEE55E" transform="matrix(1.00, 0.00, -0.00, -1.00, 263.1, 297.0)">e</text><text xml:space="preserve" font-family="Chalkduster,Chalkduster" font-size="38.0" fill="#FEE55E" transform="matrix(1.00, 0.00, -0.00, -1.00, 286.7, 297.0)"> </text><text xml:space="preserve" font-family="Chalkduster,Chalkduster" font-size="38.0" fill="#FEE55E" transform="matrix(1.00, 0.00, -0.00, -1.00, 305.6, 297.0)">m</text><text xml:space="preserve" font-family="Chalkduster,Chalkduster" font-size="38.0" fill="#FEE55E" transform="matrix(1.00, 0.00, -0.00, -1.00, 344.0, 297.0)">a</text><text xml:space="preserve" font-family="Chalkduster,Chalkduster" font-size="38.0" fill="#FEE55E" transform="matrix(1.00, 0.00, -0.00, -1.00, 370.7, 297.0)">s</text><text xml:space="preserve" font-family="Chalkduster,Chalkduster" font-size="38.0" fill="#FEE55E" transform="matrix(1.00, 0.00, -0.00, -1.00, 389.9, 297.0)">s</text><text xml:space="preserve" font-family="Chalkduster,Chalkduster" font-size="38.0" fill="#FEE55E" transform="matrix(1.00, 0.00, -0.00, -1.00, 409.1, 297.0)"> </text><text xml:space="preserve" font-family="Chalkduster,Chalkduster" font-size="38.0" fill="#FEE55E" transform="matrix(1.00, 0.00, -0.00, -1.00, 428.0, 297.0)">i</text><text xml:space="preserve" font-family="Chalkduster,Chalkduster" font-size="38.0" fill="#FEE55E" transform="matrix(1.00, 0.00, -0.00, -1.00, 443.0, 297.0)">n</text><text xml:space="preserve" font-family="Chalkduster,Chalkduster" font-size="38.0" fill="#FEE55E" transform="matrix(1.00, 0.00, -0.00, -1.00, 470.8, 297.0)"> </text><text xml:space="preserve" font-family="Chalkduster,Chalkduster" font-size="38.0" fill="#FEE55E" transform="matrix(1.00, 0.00, -0.00, -1.00, 489.7, 297.0)">t</text><text xml:space="preserve" font-family="Chalkduster,Chalkduster" font-size="38.0" fill="#FEE55E" transform="matrix(1.00, 0.00, -0.00, -1.00, 507.9, 297.0)">h</text><text xml:space="preserve" font-family="Chalkduster,Chalkduster" font-size="38.0" fill="#FEE55E" transform="matrix(1.00, 0.00, -0.00, -1.00, 531.4, 297.0)">e</text><text xml:space="preserve" font-family="Chalkduster,Chalkduster" font-size="38.0" fill="#FEE55E" transform="matrix(1.00, 0.00, -0.00, -1.00, 554.9, 297.0)"> </text><text xml:space="preserve" font-family="Chalkduster,Chalkduster" font-size="38.0" fill="#FEE55E" transform="matrix(1.00, 0.00, -0.00, -1.00, 573.8, 297.0)">p</text><text xml:space="preserve" font-family="Chalkduster,Chalkduster" font-size="38.0" fill="#FEE55E" transform="matrix(1.00, 0.00, -0.00, -1.00, 597.7, 297.0)">o</text><text xml:space="preserve" font-family="Chalkduster,Chalkduster" font-size="38.0" fill="#FEE55E" transform="matrix(1.00, 0.00, -0.00, -1.00, 625.4, 297.0)">r</text><text xml:space="preserve" font-family="Chalkduster,Chalkduster" font-size="38.0" fill="#FEE55E" transform="matrix(1.00, 0.00, -0.00, -1.00, 645.5, 297.0)">t</text><text xml:space="preserve" font-family="Chalkduster,Chalkduster" font-size="38.0" fill="#FEE55E" transform="matrix(1.00, 0.00, -0.00, -1.00, 662.5, 297.0)">a</text><text xml:space="preserve" font-family="Chalkduster,Chalkduster" font-size="38.0" fill="#FEE55E" transform="matrix(1.00, 0.00, -0.00, -1.00, 688.6, 297.0)"> </text><text xml:space="preserve" font-family="Chalkduster,Chalkduster" font-size="38.0" fill="#FEE55E" transform="matrix(1.00, 0.00, -0.00, -1.00, 707.5, 297.0)">h</text><text xml:space="preserve" font-family="Chalkduster,Chalkduster" font-size="38.0" fill="#FEE55E" transform="matrix(1.00, 0.00, -0.00, -1.00, 731.0, 297.0)">e</text><text xml:space="preserve" font-family="Chalkduster,Chalkduster" font-size="38.0" fill="#FEE55E" transform="matrix(1.00, 0.00, -0.00, -1.00, 755.2, 297.0)">p</text><text xml:space="preserve" font-family="Chalkduster,Chalkduster" font-size="38.0" fill="#FEE55E" transform="matrix(1.00, 0.00, -0.00, -1.00, 778.6, 297.0)">a</text><text xml:space="preserve" font-family="Chalkduster,Chalkduster" font-size="38.0" fill="#FEE55E" transform="matrix(1.00, 0.00, -0.00, -1.00, 802.2, 297.0)">t</text><text xml:space="preserve" font-family="Chalkduster,Chalkduster" font-size="38.0" fill="#FEE55E" transform="matrix(1.00, 0.00, -0.00, -1.00, 819.8, 297.0)">i</text><text xml:space="preserve" font-family="Chalkduster,Chalkduster" font-size="38.0" fill="#FEE55E" transform="matrix(1.00, 0.00, -0.00, -1.00, 834.8, 297.0)">s</text></g></svg>