<?xml version="1.0" encoding="UTF-8" standalone="no"?><svg xmlns="http://www.w3.org/2000/svg" xmlns:xlink="http://www.w3.org/1999/xlink" clip-rule="evenodd" stroke-miterlimit="4.00" viewBox="0 0 1024 768"><desc>SVG generated by Keynote</desc><defs></defs><g transform="matrix(1.00, 0.00, -0.00, -1.00, 0.0, 768.0)"><path d="M 0.0 768.0 L 1024.0 768.0 L 1024.0 0.0 L 0.0 0.0 Z M 0.0 768.0 " fill="#FEFFFE"></path><path d="M 0.0 0.0 L 934.5 0.0 " fill="none" stroke="#9A9A9A" stroke-width="1.00" transform="matrix(1.00, 0.00, 0.00, -1.00, 45.0, 613.0)"></path><text xml:space="preserve" font-family="HelveticaNeue-Light" font-size="30.7" fill="#000000" transform="matrix(1.00, 0.00, -0.00, -1.00, 49.0, 680.0)">H</text><text xml:space="preserve" font-family="HelveticaNeue-Light" font-size="30.7" fill="#000000" transform="matrix(1.00, 0.00, -0.00, -1.00, 70.6, 680.0)">i</text><text xml:space="preserve" font-family="HelveticaNeue-Light" font-size="30.7" fill="#000000" transform="matrix(1.00, 0.00, -0.00, -1.00, 76.3, 680.0)">g</text><text xml:space="preserve" font-family="HelveticaNeue-Light" font-size="30.7" fill="#000000" transform="matrix(1.00, 0.00, -0.00, -1.00, 93.3, 680.0)">h</text><text xml:space="preserve" font-family="HelveticaNeue-Light" font-size="30.7" fill="#000000" transform="matrix(1.00, 0.00, -0.00, -1.00, 109.8, 680.0)">-</text><text xml:space="preserve" font-family="HelveticaNeue-Light" font-size="30.7" fill="#000000" transform="matrix(1.00, 0.00, -0.00, -1.00, 121.1, 680.0)">d</text><text xml:space="preserve" font-family="HelveticaNeue-Light" font-size="30.7" fill="#000000" transform="matrix(1.00, 0.00, -0.00, -1.00, 138.7, 680.0)">o</text><text xml:space="preserve" font-family="HelveticaNeue-Light" font-size="30.7" fill="#000000" transform="matrix(1.00, 0.00, -0.00, -1.00, 155.8, 680.0)">s</text><text xml:space="preserve" font-family="HelveticaNeue-Light" font-size="30.7" fill="#000000" transform="matrix(1.00, 0.00, -0.00, -1.00, 170.5, 680.0)">e</text><text xml:space="preserve" font-family="HelveticaNeue-Light" font-size="30.7" fill="#000000" transform="matrix(1.00, 0.00, -0.00, -1.00, 186.4, 680.0)">,</text><text xml:space="preserve" font-family="HelveticaNeue-Light" font-size="30.7" fill="#000000" transform="matrix(1.00, 0.00, -0.00, -1.00, 194.9, 680.0)"> </text><text xml:space="preserve" font-family="HelveticaNeue-Light" font-size="30.7" fill="#000000" transform="matrix(1.00, 0.00, -0.00, -1.00, 203.5, 680.0)">p</text><text xml:space="preserve" font-family="HelveticaNeue-Light" font-size="30.7" fill="#000000" transform="matrix(1.00, 0.00, -0.00, -1.00, 221.1, 680.0)">o</text><text xml:space="preserve" font-family="HelveticaNeue-Light" font-size="30.7" fill="#000000" transform="matrix(1.00, 0.00, -0.00, -1.00, 238.1, 680.0)">s</text><text xml:space="preserve" font-family="HelveticaNeue-Light" font-size="30.7" fill="#000000" transform="matrix(1.00, 0.00, -0.00, -1.00, 252.9, 680.0)">t</text><text xml:space="preserve" font-family="HelveticaNeue-Light" font-size="30.7" fill="#000000" transform="matrix(1.00, 0.00, -0.00, -1.00, 261.9, 680.0)">-</text><text xml:space="preserve" font-family="HelveticaNeue-Light" font-size="30.7" fill="#000000" transform="matrix(1.00, 0.00, -0.00, -1.00, 273.3, 680.0)">t</text><text xml:space="preserve" font-family="HelveticaNeue-Light" font-size="30.7" fill="#000000" transform="matrix(1.00, 0.00, -0.00, -1.00, 282.4, 680.0)">r</text><text xml:space="preserve" font-family="HelveticaNeue-Light" font-size="30.7" fill="#000000" transform="matrix(1.00, 0.00, -0.00, -1.00, 292.0, 680.0)">a</text><text xml:space="preserve" font-family="HelveticaNeue-Light" font-size="30.7" fill="#000000" transform="matrix(1.00, 0.00, -0.00, -1.00, 307.9, 680.0)">n</text><text xml:space="preserve" font-family="HelveticaNeue-Light" font-size="30.7" fill="#000000" transform="matrix(1.00, 0.00, -0.00, -1.00, 324.4, 680.0)">s</text><text xml:space="preserve" font-family="HelveticaNeue-Light" font-size="30.7" fill="#000000" transform="matrix(1.00, 0.00, -0.00, -1.00, 339.1, 680.0)">p</text><text xml:space="preserve" font-family="HelveticaNeue-Light" font-size="30.7" fill="#000000" transform="matrix(1.00, 0.00, -0.00, -1.00, 356.7, 680.0)">l</text><text xml:space="preserve" font-family="HelveticaNeue-Light" font-size="30.7" fill="#000000" transform="matrix(1.00, 0.00, -0.00, -1.00, 362.4, 680.0)">a</text><text xml:space="preserve" font-family="HelveticaNeue-Light" font-size="30.7" fill="#000000" transform="matrix(1.00, 0.00, -0.00, -1.00, 378.3, 680.0)">n</text><text xml:space="preserve" font-family="HelveticaNeue-Light" font-size="30.7" fill="#000000" transform="matrix(1.00, 0.00, -0.00, -1.00, 394.8, 680.0)">t</text><text xml:space="preserve" font-family="HelveticaNeue-Light" font-size="30.7" fill="#000000" transform="matrix(1.00, 0.00, -0.00, -1.00, 403.9, 680.0)">a</text><text xml:space="preserve" font-family="HelveticaNeue-Light" font-size="30.7" fill="#000000" transform="matrix(1.00, 0.00, -0.00, -1.00, 419.8, 680.0)">t</text><text xml:space="preserve" font-family="HelveticaNeue-Light" font-size="30.7" fill="#000000" transform="matrix(1.00, 0.00, -0.00, -1.00, 428.8, 680.0)">i</text><text xml:space="preserve" font-family="HelveticaNeue-Light" font-size="30.7" fill="#000000" transform="matrix(1.00, 0.00, -0.00, -1.00, 434.5, 680.0)">o</text><text xml:space="preserve" font-family="HelveticaNeue-Light" font-size="30.7" fill="#000000" transform="matrix(1.00, 0.00, -0.00, -1.00, 451.6, 680.0)">n</text><text xml:space="preserve" font-family="HelveticaNeue-Light" font-size="30.7" fill="#000000" transform="matrix(1.00, 0.00, -0.00, -1.00, 468.0, 680.0)"> </text><text xml:space="preserve" font-family="HelveticaNeue-Light" font-size="30.7" fill="#000000" transform="matrix(1.00, 0.00, -0.00, -1.00, 476.6, 680.0)">c</text><text xml:space="preserve" font-family="HelveticaNeue-Light" font-size="30.7" fill="#000000" transform="matrix(1.00, 0.00, -0.00, -1.00, 492.5, 680.0)">y</text><text xml:space="preserve" font-family="HelveticaNeue-Light" font-size="30.7" fill="#000000" transform="matrix(1.00, 0.00, -0.00, -1.00, 506.7, 680.0)">c</text><text xml:space="preserve" font-family="HelveticaNeue-Light" font-size="30.7" fill="#000000" transform="matrix(1.00, 0.00, -0.00, -1.00, 522.6, 680.0)">l</text><text xml:space="preserve" font-family="HelveticaNeue-Light" font-size="30.7" fill="#000000" transform="matrix(1.00, 0.00, -0.00, -1.00, 528.2, 680.0)">o</text><text xml:space="preserve" font-family="HelveticaNeue-Light" font-size="30.7" fill="#000000" transform="matrix(1.00, 0.00, -0.00, -1.00, 545.3, 680.0)">p</text><text xml:space="preserve" font-family="HelveticaNeue-Light" font-size="30.7" fill="#000000" transform="matrix(1.00, 0.00, -0.00, -1.00, 562.9, 680.0)">h</text><text xml:space="preserve" font-family="HelveticaNeue-Light" font-size="30.7" fill="#000000" transform="matrix(1.00, 0.00, -0.00, -1.00, 579.4, 680.0)">o</text><text xml:space="preserve" font-family="HelveticaNeue-Light" font-size="30.7" fill="#000000" transform="matrix(1.00, 0.00, -0.00, -1.00, 596.4, 680.0)">s</text><text xml:space="preserve" font-family="HelveticaNeue-Light" font-size="30.7" fill="#000000" transform="matrix(1.00, 0.00, -0.00, -1.00, 611.2, 680.0)">p</text><text xml:space="preserve" font-family="HelveticaNeue-Light" font-size="30.7" fill="#000000" transform="matrix(1.00, 0.00, -0.00, -1.00, 628.7, 680.0)">h</text><text xml:space="preserve" font-family="HelveticaNeue-Light" font-size="30.7" fill="#000000" transform="matrix(1.00, 0.00, -0.00, -1.00, 645.2, 680.0)">a</text><text xml:space="preserve" font-family="HelveticaNeue-Light" font-size="30.7" fill="#000000" transform="matrix(1.00, 0.00, -0.00, -1.00, 661.1, 680.0)">m</text><text xml:space="preserve" font-family="HelveticaNeue-Light" font-size="30.7" fill="#000000" transform="matrix(1.00, 0.00, -0.00, -1.00, 686.7, 680.0)">i</text><text xml:space="preserve" font-family="HelveticaNeue-Light" font-size="30.7" fill="#000000" transform="matrix(1.00, 0.00, -0.00, -1.00, 692.3, 680.0)">d</text><text xml:space="preserve" font-family="HelveticaNeue-Light" font-size="30.7" fill="#000000" transform="matrix(1.00, 0.00, -0.00, -1.00, 709.9, 680.0)">e</text><text xml:space="preserve" font-family="HelveticaNeue-Light" font-size="30.7" fill="#000000" transform="matrix(1.00, 0.00, -0.00, -1.00, 725.9, 680.0)"> </text><text xml:space="preserve" font-family="HelveticaNeue-Light" font-size="30.7" fill="#000000" transform="matrix(1.00, 0.00, -0.00, -1.00, 734.4, 680.0)">t</text><text xml:space="preserve" font-family="HelveticaNeue-Light" font-size="30.7" fill="#000000" transform="matrix(1.00, 0.00, -0.00, -1.00, 743.4, 680.0)">o</text><text xml:space="preserve" font-family="HelveticaNeue-Light" font-size="30.7" fill="#000000" transform="matrix(1.00, 0.00, -0.00, -1.00, 760.5, 680.0)"> </text><text xml:space="preserve" font-family="HelveticaNeue-Light" font-size="30.7" fill="#000000" transform="matrix(1.00, 0.00, -0.00, -1.00, 769.0, 680.0)">p</text><text xml:space="preserve" font-family="HelveticaNeue-Light" font-size="30.7" fill="#000000" transform="matrix(1.00, 0.00, -0.00, -1.00, 786.6, 680.0)">r</text><text xml:space="preserve" font-family="HelveticaNeue-Light" font-size="30.7" fill="#000000" transform="matrix(1.00, 0.00, -0.00, -1.00, 795.7, 680.0)">o</text><text xml:space="preserve" font-family="HelveticaNeue-Light" font-size="30.7" fill="#000000" transform="matrix(1.00, 0.00, -0.00, -1.00, 812.8, 680.0)">m</text><text xml:space="preserve" font-family="HelveticaNeue-Light" font-size="30.7" fill="#000000" transform="matrix(1.00, 0.00, -0.00, -1.00, 838.3, 680.0)">o</text><text xml:space="preserve" font-family="HelveticaNeue-Light" font-size="30.7" fill="#000000" transform="matrix(1.00, 0.00, -0.00, -1.00, 855.4, 680.0)">t</text><text xml:space="preserve" font-family="HelveticaNeue-Light" font-size="30.7" fill="#000000" transform="matrix(1.00, 0.00, -0.00, -1.00, 864.4, 680.0)">e</text><text xml:space="preserve" font-family="HelveticaNeue-Light" font-size="30.7" fill="#000000" transform="matrix(1.00, 0.00, -0.00, -1.00, 880.3, 680.0)"> </text><text xml:space="preserve" font-family="HelveticaNeue-Light" font-size="30.7" fill="#000000" transform="matrix(1.00, 0.00, -0.00, -1.00, 888.9, 680.0)">g</text><text xml:space="preserve" font-family="HelveticaNeue-Light" font-size="30.7" fill="#000000" transform="matrix(1.00, 0.00, -0.00, -1.00, 905.9, 680.0)">r</text><text xml:space="preserve" font-family="HelveticaNeue-Light" font-size="30.7" fill="#000000" transform="matrix(1.00, 0.00, -0.00, -1.00, 915.6, 680.0)">a</text><text xml:space="preserve" font-family="HelveticaNeue-Light" font-size="30.7" fill="#000000" transform="matrix(1.00, 0.00, -0.00, -1.00, 931.5, 680.0)">f</text><text xml:space="preserve" font-family="HelveticaNeue-Light" font-size="30.7" fill="#000000" transform="matrix(1.00, 0.00, -0.00, -1.00, 939.4, 680.0)">t</text><text xml:space="preserve" font-family="HelveticaNeue-Light" font-size="30.7" fill="#000000" transform="matrix(1.00, 0.00, -0.00, -1.00, 948.5, 680.0)">-</text><text xml:space="preserve" font-family="HelveticaNeue-Light" font-size="30.7" fill="#000000" transform="matrix(1.00, 0.00, -0.00, -1.00, 49.0, 642.0)">h</text><text xml:space="preserve" font-family="HelveticaNeue-Light" font-size="30.7" fill="#000000" transform="matrix(1.00, 0.00, -0.00, -1.00, 65.5, 642.0)">o</text><text xml:space="preserve" font-family="HelveticaNeue-Light" font-size="30.7" fill="#000000" transform="matrix(1.00, 0.00, -0.00, -1.00, 82.5, 642.0)">s</text><text xml:space="preserve" font-family="HelveticaNeue-Light" font-size="30.7" fill="#000000" transform="matrix(1.00, 0.00, -0.00, -1.00, 97.3, 642.0)">t</text><text xml:space="preserve" font-family="HelveticaNeue-Light" font-size="30.7" fill="#000000" transform="matrix(1.00, 0.00, -0.00, -1.00, 106.3, 642.0)"> </text><text xml:space="preserve" font-family="HelveticaNeue-Light" font-size="30.7" fill="#000000" transform="matrix(1.00, 0.00, -0.00, -1.00, 114.9, 642.0)">t</text><text xml:space="preserve" font-family="HelveticaNeue-Light" font-size="30.7" fill="#000000" transform="matrix(1.00, 0.00, -0.00, -1.00, 123.9, 642.0)">o</text><text xml:space="preserve" font-family="HelveticaNeue-Light" font-size="30.7" fill="#000000" transform="matrix(1.00, 0.00, -0.00, -1.00, 141.0, 642.0)">l</text><text xml:space="preserve" font-family="HelveticaNeue-Light" font-size="30.7" fill="#000000" transform="matrix(1.00, 0.00, -0.00, -1.00, 146.7, 642.0)">e</text><text xml:space="preserve" font-family="HelveticaNeue-Light" font-size="30.7" fill="#000000" transform="matrix(1.00, 0.00, -0.00, -1.00, 162.6, 642.0)">r</text><text xml:space="preserve" font-family="HelveticaNeue-Light" font-size="30.7" fill="#000000" transform="matrix(1.00, 0.00, -0.00, -1.00, 172.2, 642.0)">a</text><text xml:space="preserve" font-family="HelveticaNeue-Light" font-size="30.7" fill="#000000" transform="matrix(1.00, 0.00, -0.00, -1.00, 188.1, 642.0)">n</text><text xml:space="preserve" font-family="HelveticaNeue-Light" font-size="30.7" fill="#000000" transform="matrix(1.00, 0.00, -0.00, -1.00, 204.6, 642.0)">c</text><text xml:space="preserve" font-family="HelveticaNeue-Light" font-size="30.7" fill="#000000" transform="matrix(1.00, 0.00, -0.00, -1.00, 220.5, 642.0)">e</text><text xml:space="preserve" font-family="HelveticaNeue-Light" font-size="30.7" fill="#000000" transform="matrix(1.00, 0.00, -0.00, -1.00, 236.4, 642.0)"> </text><text xml:space="preserve" font-family="HelveticaNeue-Light" font-size="30.7" fill="#000000" transform="matrix(1.00, 0.00, -0.00, -1.00, 244.9, 642.0)">a</text><text xml:space="preserve" font-family="HelveticaNeue-Light" font-size="30.7" fill="#000000" transform="matrix(1.00, 0.00, -0.00, -1.00, 260.9, 642.0)">f</text><text xml:space="preserve" font-family="HelveticaNeue-Light" font-size="30.7" fill="#000000" transform="matrix(1.00, 0.00, -0.00, -1.00, 268.8, 642.0)">t</text><text xml:space="preserve" font-family="HelveticaNeue-Light" font-size="30.7" fill="#000000" transform="matrix(1.00, 0.00, -0.00, -1.00, 277.9, 642.0)">e</text><text xml:space="preserve" font-family="HelveticaNeue-Light" font-size="30.7" fill="#000000" transform="matrix(1.00, 0.00, -0.00, -1.00, 293.8, 642.0)">r</text><text xml:space="preserve" font-family="HelveticaNeue-Light" font-size="30.7" fill="#000000" transform="matrix(1.00, 0.00, -0.00, -1.00, 303.4, 642.0)"> </text><text xml:space="preserve" font-family="HelveticaNeue-Light" font-size="30.7" fill="#000000" transform="matrix(1.00, 0.00, -0.00, -1.00, 312.0, 642.0)">a</text><text xml:space="preserve" font-family="HelveticaNeue-Light" font-size="30.7" fill="#000000" transform="matrix(1.00, 0.00, -0.00, -1.00, 327.9, 642.0)">l</text><text xml:space="preserve" font-family="HelveticaNeue-Light" font-size="30.7" fill="#000000" transform="matrix(1.00, 0.00, -0.00, -1.00, 333.6, 642.0)">l</text><text xml:space="preserve" font-family="HelveticaNeue-Light" font-size="30.7" fill="#000000" transform="matrix(1.00, 0.00, -0.00, -1.00, 339.2, 642.0)">o</text><text xml:space="preserve" font-family="HelveticaNeue-Light" font-size="30.7" fill="#000000" transform="matrix(1.00, 0.00, -0.00, -1.00, 356.3, 642.0)">g</text><text xml:space="preserve" font-family="HelveticaNeue-Light" font-size="30.7" fill="#000000" transform="matrix(1.00, 0.00, -0.00, -1.00, 373.3, 642.0)">e</text><text xml:space="preserve" font-family="HelveticaNeue-Light" font-size="30.7" fill="#000000" transform="matrix(1.00, 0.00, -0.00, -1.00, 389.2, 642.0)">n</text><text xml:space="preserve" font-family="HelveticaNeue-Light" font-size="30.7" fill="#000000" transform="matrix(1.00, 0.00, -0.00, -1.00, 405.7, 642.0)">e</text><text xml:space="preserve" font-family="HelveticaNeue-Light" font-size="30.7" fill="#000000" transform="matrix(1.00, 0.00, -0.00, -1.00, 421.6, 642.0)">i</text><text xml:space="preserve" font-family="HelveticaNeue-Light" font-size="30.7" fill="#000000" transform="matrix(1.00, 0.00, -0.00, -1.00, 427.3, 642.0)">c</text><text xml:space="preserve" font-family="HelveticaNeue-Light" font-size="30.7" fill="#000000" transform="matrix(1.00, 0.00, -0.00, -1.00, 443.2, 642.0)"> </text><text xml:space="preserve" font-family="HelveticaNeue-Light" font-size="30.7" fill="#000000" transform="matrix(1.00, 0.00, -0.00, -1.00, 451.7, 642.0)">h</text><text xml:space="preserve" font-family="HelveticaNeue-Light" font-size="30.7" fill="#000000" transform="matrix(1.00, 0.00, -0.00, -1.00, 468.2, 642.0)">e</text><text xml:space="preserve" font-family="HelveticaNeue-Light" font-size="30.7" fill="#000000" transform="matrix(1.00, 0.00, -0.00, -1.00, 484.1, 642.0)">m</text><text xml:space="preserve" font-family="HelveticaNeue-Light" font-size="30.7" fill="#000000" transform="matrix(1.00, 0.00, -0.00, -1.00, 509.6, 642.0)">a</text><text xml:space="preserve" font-family="HelveticaNeue-Light" font-size="30.7" fill="#000000" transform="matrix(1.00, 0.00, -0.00, -1.00, 525.5, 642.0)">t</text><text xml:space="preserve" font-family="HelveticaNeue-Light" font-size="30.7" fill="#000000" transform="matrix(1.00, 0.00, -0.00, -1.00, 534.6, 642.0)">o</text><text xml:space="preserve" font-family="HelveticaNeue-Light" font-size="30.7" fill="#000000" transform="matrix(1.00, 0.00, -0.00, -1.00, 551.7, 642.0)">p</text><text xml:space="preserve" font-family="HelveticaNeue-Light" font-size="30.7" fill="#000000" transform="matrix(1.00, 0.00, -0.00, -1.00, 569.3, 642.0)">o</text><text xml:space="preserve" font-family="HelveticaNeue-Light" font-size="30.7" fill="#000000" transform="matrix(1.00, 0.00, -0.00, -1.00, 586.3, 642.0)">i</text><text xml:space="preserve" font-family="HelveticaNeue-Light" font-size="30.7" fill="#000000" transform="matrix(1.00, 0.00, -0.00, -1.00, 592.0, 642.0)">e</text><text xml:space="preserve" font-family="HelveticaNeue-Light" font-size="30.7" fill="#000000" transform="matrix(1.00, 0.00, -0.00, -1.00, 607.9, 642.0)">t</text><text xml:space="preserve" font-family="HelveticaNeue-Light" font-size="30.7" fill="#000000" transform="matrix(1.00, 0.00, -0.00, -1.00, 617.0, 642.0)">i</text><text xml:space="preserve" font-family="HelveticaNeue-Light" font-size="30.7" fill="#000000" transform="matrix(1.00, 0.00, -0.00, -1.00, 622.6, 642.0)">c</text><text xml:space="preserve" font-family="HelveticaNeue-Light" font-size="30.7" fill="#000000" transform="matrix(1.00, 0.00, -0.00, -1.00, 638.6, 642.0)"> </text><text xml:space="preserve" font-family="HelveticaNeue-Light" font-size="30.7" fill="#000000" transform="matrix(1.00, 0.00, -0.00, -1.00, 647.1, 642.0)">s</text><text xml:space="preserve" font-family="HelveticaNeue-Light" font-size="30.7" fill="#000000" transform="matrix(1.00, 0.00, -0.00, -1.00, 661.8, 642.0)">t</text><text xml:space="preserve" font-family="HelveticaNeue-Light" font-size="30.7" fill="#000000" transform="matrix(1.00, 0.00, -0.00, -1.00, 670.9, 642.0)">e</text><text xml:space="preserve" font-family="HelveticaNeue-Light" font-size="30.7" fill="#000000" transform="matrix(1.00, 0.00, -0.00, -1.00, 686.8, 642.0)">m</text><text xml:space="preserve" font-family="HelveticaNeue-Light" font-size="30.7" fill="#000000" transform="matrix(1.00, 0.00, -0.00, -1.00, 712.4, 642.0)"> </text><text xml:space="preserve" font-family="HelveticaNeue-Light" font-size="30.7" fill="#000000" transform="matrix(1.00, 0.00, -0.00, -1.00, 720.9, 642.0)">c</text><text xml:space="preserve" font-family="HelveticaNeue-Light" font-size="30.7" fill="#000000" transform="matrix(1.00, 0.00, -0.00, -1.00, 736.8, 642.0)">e</text><text xml:space="preserve" font-family="HelveticaNeue-Light" font-size="30.7" fill="#000000" transform="matrix(1.00, 0.00, -0.00, -1.00, 752.7, 642.0)">l</text><text xml:space="preserve" font-family="HelveticaNeue-Light" font-size="30.7" fill="#000000" transform="matrix(1.00, 0.00, -0.00, -1.00, 758.4, 642.0)">l</text><text xml:space="preserve" font-family="HelveticaNeue-Light" font-size="30.7" fill="#000000" transform="matrix(1.00, 0.00, -0.00, -1.00, 764.1, 642.0)"> </text><text xml:space="preserve" font-family="HelveticaNeue-Light" font-size="30.7" fill="#000000" transform="matrix(1.00, 0.00, -0.00, -1.00, 772.6, 642.0)">t</text><text xml:space="preserve" font-family="HelveticaNeue-Light" font-size="30.7" fill="#000000" transform="matrix(1.00, 0.00, -0.00, -1.00, 781.7, 642.0)">r</text><text xml:space="preserve" font-family="HelveticaNeue-Light" font-size="30.7" fill="#000000" transform="matrix(1.00, 0.00, -0.00, -1.00, 791.3, 642.0)">a</text><text xml:space="preserve" font-family="HelveticaNeue-Light" font-size="30.7" fill="#000000" transform="matrix(1.00, 0.00, -0.00, -1.00, 807.2, 642.0)">n</text><text xml:space="preserve" font-family="HelveticaNeue-Light" font-size="30.7" fill="#000000" transform="matrix(1.00, 0.00, -0.00, -1.00, 823.7, 642.0)">s</text><text xml:space="preserve" font-family="HelveticaNeue-Light" font-size="30.7" fill="#000000" transform="matrix(1.00, 0.00, -0.00, -1.00, 838.4, 642.0)">p</text><text xml:space="preserve" font-family="HelveticaNeue-Light" font-size="30.7" fill="#000000" transform="matrix(1.00, 0.00, -0.00, -1.00, 856.0, 642.0)">l</text><text xml:space="preserve" font-family="HelveticaNeue-Light" font-size="30.7" fill="#000000" transform="matrix(1.00, 0.00, -0.00, -1.00, 861.7, 642.0)">a</text><text xml:space="preserve" font-family="HelveticaNeue-Light" font-size="30.7" fill="#000000" transform="matrix(1.00, 0.00, -0.00, -1.00, 877.6, 642.0)">n</text><text xml:space="preserve" font-family="HelveticaNeue-Light" font-size="30.7" fill="#000000" transform="matrix(1.00, 0.00, -0.00, -1.00, 894.1, 642.0)">t</text><text xml:space="preserve" font-family="HelveticaNeue-Light" font-size="30.7" fill="#000000" transform="matrix(1.00, 0.00, -0.00, -1.00, 903.2, 642.0)">a</text><text xml:space="preserve" font-family="HelveticaNeue-Light" font-size="30.7" fill="#000000" transform="matrix(1.00, 0.00, -0.00, -1.00, 919.1, 642.0)">t</text><text xml:space="preserve" font-family="HelveticaNeue-Light" font-size="30.7" fill="#000000" transform="matrix(1.00, 0.00, -0.00, -1.00, 928.1, 642.0)">i</text><text xml:space="preserve" font-family="HelveticaNeue-Light" font-size="30.7" fill="#000000" transform="matrix(1.00, 0.00, -0.00, -1.00, 933.8, 642.0)">o</text><text xml:space="preserve" font-family="HelveticaNeue-Light" font-size="30.7" fill="#000000" transform="matrix(1.00, 0.00, -0.00, -1.00, 950.9, 642.0)">n</text><g><clipPath id="clip-648"><path d="M 10.0 37.0 L 469.0 37.0 L 469.0 8.0 L 10.0 8.0 Z M 9.8 37.1 "></path></clipPath><g clip-path="url(#clip-648)"><g><clipPath id="clip-649"><path d="M 10.0 -471.0 L 950.0 -471.0 L 950.0 37.0 L 10.0 37.0 Z M 10.0 -471.0 "></path></clipPath><g clip-path="url(#clip-649)"><image xlink:href="CE748C1795A42AC65A47A3CB0000529D.png" width="1880.00" height="1016.00" transform="matrix(0.50, 0.00, -0.00, -0.50, 10.0, 37.0)"></image></g></g></g></g><g><clipPath id="clip-650"><path d="M 555.0 36.0 L 1014.0 36.0 L 1014.0 9.0 L 555.0 9.0 Z M 555.2 36.0 "></path></clipPath><g clip-path="url(#clip-650)"><g><clipPath id="clip-651"><path d="M 448.0 -89.0 L 1388.0 -89.0 L 1388.0 419.0 L 448.0 419.0 Z M 448.0 -89.0 "></path></clipPath><g clip-path="url(#clip-651)"><image xlink:href="../../A2206527-5151-4634-824F-61D7FB82647B/assets/CE748C1795A42AC65A47A3CB0000529D.png" width="1880.00" height="1016.00" transform="matrix(0.50, 0.00, -0.00, -0.50, 448.0, 419.0)"></image></g></g></g></g></g></svg>