<?xml version="1.0" encoding="UTF-8" standalone="no"?><svg xmlns="http://www.w3.org/2000/svg" xmlns:xlink="http://www.w3.org/1999/xlink" clip-rule="evenodd" stroke-miterlimit="4.00" viewBox="0 0 1024 768"><desc>SVG generated by Keynote</desc><defs></defs><g transform="matrix(1.00, 0.00, -0.00, -1.00, 0.0, 768.0)"><path d="M 0.0 768.0 L 1024.0 768.0 L 1024.0 0.0 L 0.0 0.0 Z M 0.0 768.0 " fill="#FEFFFE"></path><g><clipPath id="clip-1121"><path d="M 424.0 732.0 L 1019.0 732.0 L 1019.0 767.0 L 424.0 767.0 Z M 424.0 732.0 "></path></clipPath><g clip-path="url(#clip-1121)"><image xlink:href="../../7655F8F4-5494-4A22-86C1-EACD354E7E83/assets/A999AD7AC8FA136F970BE321B9294DDB.png" width="1190.00" height="70.00" transform="matrix(0.50, 0.00, -0.00, -0.50, 424.0, 767.0)"></image></g></g><g><clipPath id="clip-1122"><path d="M 10.0 760.0 L 321.0 760.0 L 321.0 740.0 L 10.0 740.0 Z M 9.6 760.2 "></path></clipPath><g clip-path="url(#clip-1122)"><g><clipPath id="clip-1123"><path d="M -240.0 718.0 L 784.0 718.0 L 784.0 1135.0 L -240.0 1135.0 Z M -240.0 718.0 "></path></clipPath><g clip-path="url(#clip-1123)"><image xlink:href="../../7655F8F4-5494-4A22-86C1-EACD354E7E83/assets/7A214510C15E02D4BC4699A54AFC6D73.png" width="2690.00" height="1096.00" transform="matrix(0.38, 0.00, -0.00, -0.38, -240.0, 1135.0)"></image></g></g></g></g><g><clipPath id="clip-1124"><path d="M 0.0 389.0 L 1024.0 389.0 L 1024.0 723.0 L 0.0 723.0 Z M 0.0 389.0 "></path></clipPath><g clip-path="url(#clip-1124)"><image xlink:href="../../1778982F-CEED-4CA9-8DF2-74C31C27DC47/assets/F8E79B7182961B6B6B9607BACA94E894.png" width="2668.00" height="870.00" transform="matrix(0.38, 0.00, -0.00, -0.38, 0.0, 723.0)"></image></g></g><text xml:space="preserve" font-family="HelveticaNeue-Light" font-size="36.0" fill="#000000" transform="matrix(1.00, 0.00, -0.00, -1.00, 327.0, 664.0)">N</text><text xml:space="preserve" font-family="HelveticaNeue-Light" font-size="36.0" fill="#000000" transform="matrix(1.00, 0.00, -0.00, -1.00, 352.3, 664.0)">R</text><text xml:space="preserve" font-family="HelveticaNeue-Light" font-size="36.0" fill="#000000" transform="matrix(1.00, 0.00, -0.00, -1.00, 376.4, 664.0)">M</text><text xml:space="preserve" font-family="HelveticaNeue-Light" font-size="36.0" fill="#000000" transform="matrix(1.00, 0.00, -0.00, -1.00, 826.0, 664.0)">r</text><text xml:space="preserve" font-family="HelveticaNeue-Light" font-size="36.0" fill="#000000" transform="matrix(1.00, 0.00, -0.00, -1.00, 836.7, 664.0)">e</text><text xml:space="preserve" font-family="HelveticaNeue-Light" font-size="36.0" fill="#000000" transform="matrix(1.00, 0.00, -0.00, -1.00, 855.4, 664.0)">l</text><text xml:space="preserve" font-family="HelveticaNeue-Light" font-size="36.0" fill="#000000" transform="matrix(1.00, 0.00, -0.00, -1.00, 862.0, 664.0)">a</text><text xml:space="preserve" font-family="HelveticaNeue-Light" font-size="36.0" fill="#000000" transform="matrix(1.00, 0.00, -0.00, -1.00, 880.7, 664.0)">p</text><text xml:space="preserve" font-family="HelveticaNeue-Light" font-size="36.0" fill="#000000" transform="matrix(1.00, 0.00, -0.00, -1.00, 901.4, 664.0)">s</text><text xml:space="preserve" font-family="HelveticaNeue-Light" font-size="36.0" fill="#000000" transform="matrix(1.00, 0.00, -0.00, -1.00, 918.7, 664.0)">e</text><text xml:space="preserve" font-family="HelveticaNeue-Light" font-size="22.0" fill="#000000" transform="matrix(1.00, 0.00, -0.00, -1.00, 235.0, 588.0)">2</text><text xml:space="preserve" font-family="HelveticaNeue-Light" font-size="22.0" fill="#000000" transform="matrix(1.00, 0.00, -0.00, -1.00, 247.2, 588.0)">y</text><text xml:space="preserve" font-family="HelveticaNeue-Light" font-size="22.0" fill="#000000" transform="matrix(1.00, 0.00, -0.00, -1.00, 257.4, 588.0)"> </text><text xml:space="preserve" font-family="HelveticaNeue-Bold" font-weight="bold" font-size="22.0" fill="#000000" transform="matrix(1.00, 0.00, -0.00, -1.00, 226.6, 560.8)">1</text><text xml:space="preserve" font-family="HelveticaNeue-Bold" font-weight="bold" font-size="22.0" fill="#000000" transform="matrix(1.00, 0.00, -0.00, -1.00, 238.8, 560.8)">3</text><text xml:space="preserve" font-family="HelveticaNeue-Bold" font-weight="bold" font-size="22.0" fill="#000000" transform="matrix(1.00, 0.00, -0.00, -1.00, 251.0, 560.8)">%</text><text xml:space="preserve" font-family="HelveticaNeue-Bold" font-weight="bold" font-size="22.0" fill="#000000" transform="matrix(1.00, 0.00, -0.00, -1.00, 273.0, 560.8)"> </text><text xml:space="preserve" font-family="HelveticaNeue-Bold" font-weight="bold" font-size="22.0" fill="#000000" transform="matrix(1.00, 0.00, -0.00, -1.00, 226.6, 533.8)">1</text><text xml:space="preserve" font-family="HelveticaNeue-Bold" font-weight="bold" font-size="22.0" fill="#000000" transform="matrix(1.00, 0.00, -0.00, -1.00, 238.8, 533.8)">6</text><text xml:space="preserve" font-family="HelveticaNeue-Bold" font-weight="bold" font-size="22.0" fill="#000000" transform="matrix(1.00, 0.00, -0.00, -1.00, 251.0, 533.8)">%</text><text xml:space="preserve" font-family="HelveticaNeue-Bold" font-weight="bold" font-size="22.0" fill="#000000" transform="matrix(1.00, 0.00, -0.00, -1.00, 273.0, 533.8)"> </text><text xml:space="preserve" font-family="HelveticaNeue-Bold" font-weight="bold" font-size="22.0" fill="#000000" transform="matrix(1.00, 0.00, -0.00, -1.00, 238.8, 506.8)">7</text><text xml:space="preserve" font-family="HelveticaNeue-Bold" font-weight="bold" font-size="22.0" fill="#000000" transform="matrix(1.00, 0.00, -0.00, -1.00, 251.0, 506.8)">%</text><text xml:space="preserve" font-family="HelveticaNeue-Light" font-size="22.0" fill="#000000" transform="matrix(1.00, 0.00, -0.00, -1.00, 164.0, 588.0)">1</text><text xml:space="preserve" font-family="HelveticaNeue-Light" font-size="22.0" fill="#000000" transform="matrix(1.00, 0.00, -0.00, -1.00, 176.2, 588.0)">y</text><text xml:space="preserve" font-family="HelveticaNeue-Light" font-size="22.0" fill="#000000" transform="matrix(1.00, 0.00, -0.00, -1.00, 186.4, 588.0)"> </text><text xml:space="preserve" font-family="HelveticaNeue-Bold" font-weight="bold" font-size="22.0" fill="#000000" transform="matrix(1.00, 0.00, -0.00, -1.00, 155.5, 560.8)">1</text><text xml:space="preserve" font-family="HelveticaNeue-Bold" font-weight="bold" font-size="22.0" fill="#000000" transform="matrix(1.00, 0.00, -0.00, -1.00, 167.7, 560.8)">0</text><text xml:space="preserve" font-family="HelveticaNeue-Bold" font-weight="bold" font-size="22.0" fill="#000000" transform="matrix(1.00, 0.00, -0.00, -1.00, 179.9, 560.8)">%</text><text xml:space="preserve" font-family="HelveticaNeue-Bold" font-weight="bold" font-size="22.0" fill="#000000" transform="matrix(1.00, 0.00, -0.00, -1.00, 201.9, 560.8)"> </text><text xml:space="preserve" font-family="HelveticaNeue-Bold" font-weight="bold" font-size="22.0" fill="#000000" transform="matrix(1.00, 0.00, -0.00, -1.00, 155.5, 533.8)">1</text><text xml:space="preserve" font-family="HelveticaNeue-Bold" font-weight="bold" font-size="22.0" fill="#000000" transform="matrix(1.00, 0.00, -0.00, -1.00, 167.7, 533.8)">0</text><text xml:space="preserve" font-family="HelveticaNeue-Bold" font-weight="bold" font-size="22.0" fill="#000000" transform="matrix(1.00, 0.00, -0.00, -1.00, 179.9, 533.8)">%</text><text xml:space="preserve" font-family="HelveticaNeue-Bold" font-weight="bold" font-size="22.0" fill="#000000" transform="matrix(1.00, 0.00, -0.00, -1.00, 201.9, 533.8)"> </text><text xml:space="preserve" font-family="HelveticaNeue-Bold" font-weight="bold" font-size="22.0" fill="#000000" transform="matrix(1.00, 0.00, -0.00, -1.00, 167.7, 506.8)">4</text><text xml:space="preserve" font-family="HelveticaNeue-Bold" font-weight="bold" font-size="22.0" fill="#000000" transform="matrix(1.00, 0.00, -0.00, -1.00, 179.9, 506.8)">%</text><text xml:space="preserve" font-family="HelveticaNeue-Bold" font-weight="bold" font-size="22.0" fill="#000000" transform="matrix(1.00, 0.00, -0.00, -1.00, 750.9, 511.7)">3</text><text xml:space="preserve" font-family="HelveticaNeue-Bold" font-weight="bold" font-size="22.0" fill="#000000" transform="matrix(1.00, 0.00, -0.00, -1.00, 763.2, 511.7)">4</text><text xml:space="preserve" font-family="HelveticaNeue-Bold" font-weight="bold" font-size="22.0" fill="#000000" transform="matrix(1.00, 0.00, -0.00, -1.00, 775.4, 511.7)">%</text><text xml:space="preserve" font-family="HelveticaNeue-Bold" font-weight="bold" font-size="22.0" fill="#000000" transform="matrix(1.00, 0.00, -0.00, -1.00, 797.4, 511.7)"> </text><text xml:space="preserve" font-family="HelveticaNeue-Bold" font-weight="bold" font-size="22.0" fill="#000000" transform="matrix(1.00, 0.00, -0.00, -1.00, 750.9, 484.7)">3</text><text xml:space="preserve" font-family="HelveticaNeue-Bold" font-weight="bold" font-size="22.0" fill="#000000" transform="matrix(1.00, 0.00, -0.00, -1.00, 763.2, 484.7)">4</text><text xml:space="preserve" font-family="HelveticaNeue-Bold" font-weight="bold" font-size="22.0" fill="#000000" transform="matrix(1.00, 0.00, -0.00, -1.00, 775.4, 484.7)">%</text><text xml:space="preserve" font-family="HelveticaNeue-Bold" font-weight="bold" font-size="22.0" fill="#000000" transform="matrix(1.00, 0.00, -0.00, -1.00, 797.4, 484.7)"> </text><text xml:space="preserve" font-family="HelveticaNeue-Bold" font-weight="bold" font-size="22.0" fill="#000000" transform="matrix(1.00, 0.00, -0.00, -1.00, 750.9, 457.7)">3</text><text xml:space="preserve" font-family="HelveticaNeue-Bold" font-weight="bold" font-size="22.0" fill="#000000" transform="matrix(1.00, 0.00, -0.00, -1.00, 763.2, 457.7)">3</text><text xml:space="preserve" font-family="HelveticaNeue-Bold" font-weight="bold" font-size="22.0" fill="#000000" transform="matrix(1.00, 0.00, -0.00, -1.00, 775.4, 457.7)">%</text><g><clipPath id="clip-1125"><path d="M 10.0 368.0 L 1014.0 368.0 L 1014.0 40.0 L 10.0 40.0 Z M 10.0 367.9 "></path></clipPath><g clip-path="url(#clip-1125)"><g><clipPath id="clip-1126"><path d="M -32.0 -8.0 L 1036.0 -8.0 L 1036.0 389.0 L -32.0 389.0 Z M -32.0 -8.0 "></path></clipPath><g clip-path="url(#clip-1126)"><image xlink:href="../../1778982F-CEED-4CA9-8DF2-74C31C27DC47/assets/C13054AC49CA2C665214F5C72A2F9E38.png" width="2536.00" height="942.00" transform="matrix(0.42, 0.00, -0.00, -0.42, -32.0, 389.0)"></image></g></g></g></g><text xml:space="preserve" font-family="HelveticaNeue-Light" font-size="36.0" fill="#000000" transform="matrix(1.00, 0.00, -0.00, -1.00, 342.0, 333.0)">O</text><text xml:space="preserve" font-family="HelveticaNeue-Light" font-size="36.0" fill="#000000" transform="matrix(1.00, 0.00, -0.00, -1.00, 368.7, 333.0)">S</text><text xml:space="preserve" font-family="HelveticaNeue-Light" font-size="36.0" fill="#000000" transform="matrix(1.00, 0.00, -0.00, -1.00, 849.0, 333.0)">D</text><text xml:space="preserve" font-family="HelveticaNeue-Light" font-size="36.0" fill="#000000" transform="matrix(1.00, 0.00, -0.00, -1.00, 873.7, 333.0)">F</text><text xml:space="preserve" font-family="HelveticaNeue-Light" font-size="36.0" fill="#000000" transform="matrix(1.00, 0.00, -0.00, -1.00, 893.0, 333.0)">S</text><text xml:space="preserve" font-family="HelveticaNeue-Light" font-size="22.0" fill="#000000" transform="matrix(1.00, 0.00, -0.00, -1.00, 237.0, 200.0)">2</text><text xml:space="preserve" font-family="HelveticaNeue-Light" font-size="22.0" fill="#000000" transform="matrix(1.00, 0.00, -0.00, -1.00, 249.2, 200.0)">y</text><text xml:space="preserve" font-family="HelveticaNeue-Light" font-size="22.0" fill="#000000" transform="matrix(1.00, 0.00, -0.00, -1.00, 259.4, 200.0)"> </text><text xml:space="preserve" font-family="HelveticaNeue-Bold" font-weight="bold" font-size="22.0" fill="#000000" transform="matrix(1.00, 0.00, -0.00, -1.00, 228.3, 173.1)">7</text><text xml:space="preserve" font-family="HelveticaNeue-Bold" font-weight="bold" font-size="22.0" fill="#000000" transform="matrix(1.00, 0.00, -0.00, -1.00, 240.6, 173.1)">6</text><text xml:space="preserve" font-family="HelveticaNeue-Bold" font-weight="bold" font-size="22.0" fill="#000000" transform="matrix(1.00, 0.00, -0.00, -1.00, 252.8, 173.1)">%</text><text xml:space="preserve" font-family="HelveticaNeue-Bold" font-weight="bold" font-size="22.0" fill="#000000" transform="matrix(1.00, 0.00, -0.00, -1.00, 274.8, 173.1)"> </text><text xml:space="preserve" font-family="HelveticaNeue-Bold" font-weight="bold" font-size="22.0" fill="#000000" transform="matrix(1.00, 0.00, -0.00, -1.00, 228.3, 146.1)">6</text><text xml:space="preserve" font-family="HelveticaNeue-Bold" font-weight="bold" font-size="22.0" fill="#000000" transform="matrix(1.00, 0.00, -0.00, -1.00, 240.6, 146.1)">7</text><text xml:space="preserve" font-family="HelveticaNeue-Bold" font-weight="bold" font-size="22.0" fill="#000000" transform="matrix(1.00, 0.00, -0.00, -1.00, 252.8, 146.1)">%</text><text xml:space="preserve" font-family="HelveticaNeue-Bold" font-weight="bold" font-size="22.0" fill="#000000" transform="matrix(1.00, 0.00, -0.00, -1.00, 274.8, 146.1)"> </text><text xml:space="preserve" font-family="HelveticaNeue-Bold" font-weight="bold" font-size="22.0" fill="#000000" transform="matrix(1.00, 0.00, -0.00, -1.00, 228.3, 119.1)">6</text><text xml:space="preserve" font-family="HelveticaNeue-Bold" font-weight="bold" font-size="22.0" fill="#000000" transform="matrix(1.00, 0.00, -0.00, -1.00, 240.6, 119.1)">4</text><text xml:space="preserve" font-family="HelveticaNeue-Bold" font-weight="bold" font-size="22.0" fill="#000000" transform="matrix(1.00, 0.00, -0.00, -1.00, 252.8, 119.1)">%</text><text xml:space="preserve" font-family="HelveticaNeue-Light" font-size="22.0" fill="#000000" transform="matrix(1.00, 0.00, -0.00, -1.00, 748.0, 200.0)">2</text><text xml:space="preserve" font-family="HelveticaNeue-Light" font-size="22.0" fill="#000000" transform="matrix(1.00, 0.00, -0.00, -1.00, 760.2, 200.0)">y</text><text xml:space="preserve" font-family="HelveticaNeue-Light" font-size="22.0" fill="#000000" transform="matrix(1.00, 0.00, -0.00, -1.00, 770.4, 200.0)"> </text><text xml:space="preserve" font-family="HelveticaNeue-Bold" font-weight="bold" font-size="22.0" fill="#000000" transform="matrix(1.00, 0.00, -0.00, -1.00, 739.5, 173.1)">5</text><text xml:space="preserve" font-family="HelveticaNeue-Bold" font-weight="bold" font-size="22.0" fill="#000000" transform="matrix(1.00, 0.00, -0.00, -1.00, 751.7, 173.1)">3</text><text xml:space="preserve" font-family="HelveticaNeue-Bold" font-weight="bold" font-size="22.0" fill="#000000" transform="matrix(1.00, 0.00, -0.00, -1.00, 763.9, 173.1)">%</text><text xml:space="preserve" font-family="HelveticaNeue-Bold" font-weight="bold" font-size="22.0" fill="#000000" transform="matrix(1.00, 0.00, -0.00, -1.00, 785.9, 173.1)"> </text><text xml:space="preserve" font-family="HelveticaNeue-Bold" font-weight="bold" font-size="22.0" fill="#000000" transform="matrix(1.00, 0.00, -0.00, -1.00, 739.5, 146.1)">5</text><text xml:space="preserve" font-family="HelveticaNeue-Bold" font-weight="bold" font-size="22.0" fill="#000000" transform="matrix(1.00, 0.00, -0.00, -1.00, 751.7, 146.1)">2</text><text xml:space="preserve" font-family="HelveticaNeue-Bold" font-weight="bold" font-size="22.0" fill="#000000" transform="matrix(1.00, 0.00, -0.00, -1.00, 763.9, 146.1)">%</text><text xml:space="preserve" font-family="HelveticaNeue-Bold" font-weight="bold" font-size="22.0" fill="#000000" transform="matrix(1.00, 0.00, -0.00, -1.00, 785.9, 146.1)"> </text><text xml:space="preserve" font-family="HelveticaNeue-Bold" font-weight="bold" font-size="22.0" fill="#000000" transform="matrix(1.00, 0.00, -0.00, -1.00, 739.5, 119.1)">6</text><text xml:space="preserve" font-family="HelveticaNeue-Bold" font-weight="bold" font-size="22.0" fill="#000000" transform="matrix(1.00, 0.00, -0.00, -1.00, 751.7, 119.1)">0</text><text xml:space="preserve" font-family="HelveticaNeue-Bold" font-weight="bold" font-size="22.0" fill="#000000" transform="matrix(1.00, 0.00, -0.00, -1.00, 763.9, 119.1)">%</text></g></svg>