<?xml version="1.0" encoding="UTF-8" standalone="no"?><svg xmlns="http://www.w3.org/2000/svg" xmlns:xlink="http://www.w3.org/1999/xlink" clip-rule="evenodd" stroke-miterlimit="10" viewBox="0 0 1026 770"><desc>SVG generated by Keynote</desc><defs></defs><g transform="matrix(1.00, 0.00, -0.00, -1.00, 0.0, 770.0)"><g><clipPath id="clip0x6000018bd3a0"><path d="M 1.0 769.0 L 1025.0 769.0 L 1025.0 1.0 L 1.0 1.0 Z M 1.0 769.0 "></path></clipPath><g clip-path="url(#clip0x6000018bd3a0)"><g><clipPath id="clip0x6000018bd100"><path d="M 1.0 1.0 L 1025.0 1.0 L 1025.0 769.0 L 1.0 769.0 Z M 1.0 1.0 "></path></clipPath><g clip-path="url(#clip0x6000018bd100)"><path d="M 1.0 769.0 L 1025.0 769.0 L 1025.0 1.0 L 1.0 1.0 Z M 1.0 769.0 " fill="#FEFFFF" fill-opacity="0.00"></path></g></g></g></g><g><clipPath id="clip0x6000018bd700"><path d="M 1.0 769.0 L 1025.0 769.0 L 1025.0 1.0 L 1.0 1.0 Z M 1.0 769.0 "></path></clipPath><g clip-path="url(#clip0x6000018bd700)"><g><clipPath id="clip0x6000018bd8e0"><path d="M 1.0 769.0 L 1025.0 769.0 L 1025.0 1.0 L 1.0 1.0 Z M 1.0 769.0 "></path></clipPath><g clip-path="url(#clip0x6000018bd8e0)"><g><clipPath id="clip0x6000018bda60"><path d="M 1.0 1.0 L 1025.0 1.0 L 1025.0 769.0 L 1.0 769.0 Z M 1.0 1.0 "></path></clipPath><g clip-path="url(#clip0x6000018bda60)"><image xlink:href="../../0B3A284F-B80B-428F-82AC-0AABFD318D0B/assets/4E88471F106A2740E1BA7AFF36A4697D.jpeg" width="1600.00" height="1200.00" transform="matrix(0.64, 0.00, -0.00, -0.64, 1.0, 769.0)"></image></g></g></g></g></g></g></g></svg>