<?xml version="1.0" encoding="UTF-8" standalone="no"?><svg xmlns="http://www.w3.org/2000/svg" xmlns:xlink="http://www.w3.org/1999/xlink" clip-rule="evenodd" stroke-miterlimit="10" viewBox="0 0 1024 768"><desc>SVG generated by Keynote</desc><defs></defs><g transform="matrix(1.00, 0.00, -0.00, -1.00, 0.0, 768.0)"><path d="M 0.0 768.0 L 1024.0 768.0 L 1024.0 0.0 L 0.0 0.0 Z M 0.0 768.0 " fill="#FEFFFE"></path><g><clipPath id="clip0x7f8ff266c500"><path d="M 13.0 705.0 L 1011.0 705.0 L 1011.0 520.0 L 13.0 520.0 Z M 13.3 705.1 "></path></clipPath><g clip-path="url(#clip0x7f8ff266c500)"><g><clipPath id="clip0x7f8ff266ccc0"><path d="M 13.3 519.9 L 1010.7 519.9 L 1010.7 705.1 L 13.3 705.1 Z M 13.3 519.9 "></path></clipPath><g clip-path="url(#clip0x7f8ff266ccc0)"><image xlink:href="A4591A82670F23D113D59D38A1B9690A.png" width="1668.00" height="1338.00" transform="matrix(0.60, 0.00, -0.00, -0.60, 13.0, 705.0)"></image></g></g></g></g><g><clipPath id="clip0x7f8ff4c7b040"><path d="M 13.0 512.0 L 1011.0 512.0 L 1011.0 205.0 L 13.0 205.0 Z M 13.3 512.2 "></path></clipPath><g clip-path="url(#clip0x7f8ff4c7b040)"><g><clipPath id="clip0x7f8ff4c20750"><path d="M 13.3 204.5 L 1010.7 204.5 L 1010.7 512.2 L 13.3 512.2 Z M 13.3 204.5 "></path></clipPath><g clip-path="url(#clip0x7f8ff4c20750)"><image xlink:href="../../BCA45E7A-ED2D-40CB-B7D7-CC6F159EAB27/assets/A4591A82670F23D113D59D38A1B9690A.png" width="1668.00" height="1338.00" transform="matrix(0.60, 0.00, -0.00, -0.60, 13.0, 844.0)"></image></g></g></g></g><text xml:space="preserve" font-family="HelveticaNeue-Light,Helvetica Neue" font-size="26.0" fill="#000000" transform="matrix(1.00, 0.00, -0.00, -1.00, 9.9, 83.0)">O</text><text xml:space="preserve" font-family="HelveticaNeue-Light,Helvetica Neue" font-size="26.0" fill="#000000" transform="matrix(1.00, 0.00, -0.00, -1.00, 29.2, 83.0)">t</text><text xml:space="preserve" font-family="HelveticaNeue-Light,Helvetica Neue" font-size="26.0" fill="#000000" transform="matrix(1.00, 0.00, -0.00, -1.00, 36.9, 83.0)">t</text><text xml:space="preserve" font-family="HelveticaNeue-Light,Helvetica Neue" font-size="26.0" fill="#000000" transform="matrix(1.00, 0.00, -0.00, -1.00, 44.6, 83.0)">i</text><text xml:space="preserve" font-family="HelveticaNeue-Light,Helvetica Neue" font-size="26.0" fill="#000000" transform="matrix(1.00, 0.00, -0.00, -1.00, 49.4, 83.0)">n</text><text xml:space="preserve" font-family="HelveticaNeue-Light,Helvetica Neue" font-size="26.0" fill="#000000" transform="matrix(1.00, 0.00, -0.00, -1.00, 63.4, 83.0)">i</text><text xml:space="preserve" font-family="HelveticaNeue-Light,Helvetica Neue" font-size="26.0" fill="#000000" transform="matrix(1.00, 0.00, -0.00, -1.00, 68.2, 83.0)"> </text><text xml:space="preserve" font-family="HelveticaNeue-Light,Helvetica Neue" font-size="26.0" fill="#000000" transform="matrix(1.00, 0.00, -0.00, -1.00, 75.4, 83.0)">L</text><text xml:space="preserve" font-family="HelveticaNeue-Light,Helvetica Neue" font-size="26.0" fill="#000000" transform="matrix(1.00, 0.00, -0.00, -1.00, 89.4, 83.0)">,</text><text xml:space="preserve" font-family="HelveticaNeue-Light,Helvetica Neue" font-size="26.0" fill="#000000" transform="matrix(1.00, 0.00, -0.00, -1.00, 96.6, 83.0)"> </text><text xml:space="preserve" font-family="HelveticaNeue-Light,Helvetica Neue" font-size="26.0" fill="#000000" transform="matrix(1.00, 0.00, -0.00, -1.00, 103.8, 83.0)">e</text><text xml:space="preserve" font-family="HelveticaNeue-Light,Helvetica Neue" font-size="26.0" fill="#000000" transform="matrix(1.00, 0.00, -0.00, -1.00, 117.3, 83.0)">t</text><text xml:space="preserve" font-family="HelveticaNeue-Light,Helvetica Neue" font-size="26.0" fill="#000000" transform="matrix(1.00, 0.00, -0.00, -1.00, 125.0, 83.0)"> </text><text xml:space="preserve" font-family="HelveticaNeue-Light,Helvetica Neue" font-size="26.0" fill="#000000" transform="matrix(1.00, 0.00, -0.00, -1.00, 132.2, 83.0)">a</text><text xml:space="preserve" font-family="HelveticaNeue-Light,Helvetica Neue" font-size="26.0" fill="#000000" transform="matrix(1.00, 0.00, -0.00, -1.00, 145.7, 83.0)">l</text><text xml:space="preserve" font-family="HelveticaNeue-Light,Helvetica Neue" font-size="26.0" fill="#000000" transform="matrix(1.00, 0.00, -0.00, -1.00, 150.5, 83.0)">.</text><text xml:space="preserve" font-family="HelveticaNeue-Light,Helvetica Neue" font-size="26.0" fill="#000000" transform="matrix(1.00, 0.00, -0.00, -1.00, 157.8, 83.0)"> </text><text xml:space="preserve" font-family="HelveticaNeue-Light,Helvetica Neue" font-size="26.0" fill="#000000" transform="matrix(1.00, 0.00, -0.00, -1.00, 165.0, 83.0)">C</text><text xml:space="preserve" font-family="HelveticaNeue-Light,Helvetica Neue" font-size="26.0" fill="#000000" transform="matrix(1.00, 0.00, -0.00, -1.00, 183.3, 83.0)">l</text><text xml:space="preserve" font-family="HelveticaNeue-Light,Helvetica Neue" font-size="26.0" fill="#000000" transform="matrix(1.00, 0.00, -0.00, -1.00, 188.1, 83.0)">i</text><text xml:space="preserve" font-family="HelveticaNeue-Light,Helvetica Neue" font-size="26.0" fill="#000000" transform="matrix(1.00, 0.00, -0.00, -1.00, 192.9, 83.0)">n</text><text xml:space="preserve" font-family="HelveticaNeue-Light,Helvetica Neue" font-size="26.0" fill="#000000" transform="matrix(1.00, 0.00, -0.00, -1.00, 206.9, 83.0)">i</text><text xml:space="preserve" font-family="HelveticaNeue-Light,Helvetica Neue" font-size="26.0" fill="#000000" transform="matrix(1.00, 0.00, -0.00, -1.00, 211.7, 83.0)">c</text><text xml:space="preserve" font-family="HelveticaNeue-Light,Helvetica Neue" font-size="26.0" fill="#000000" transform="matrix(1.00, 0.00, -0.00, -1.00, 225.2, 83.0)">a</text><text xml:space="preserve" font-family="HelveticaNeue-Light,Helvetica Neue" font-size="26.0" fill="#000000" transform="matrix(1.00, 0.00, -0.00, -1.00, 238.7, 83.0)">l</text><text xml:space="preserve" font-family="HelveticaNeue-Light,Helvetica Neue" font-size="26.0" fill="#000000" transform="matrix(1.00, 0.00, -0.00, -1.00, 243.5, 83.0)"> </text><text xml:space="preserve" font-family="HelveticaNeue-Light,Helvetica Neue" font-size="26.0" fill="#000000" transform="matrix(1.00, 0.00, -0.00, -1.00, 250.7, 83.0)">a</text><text xml:space="preserve" font-family="HelveticaNeue-Light,Helvetica Neue" font-size="26.0" fill="#000000" transform="matrix(1.00, 0.00, -0.00, -1.00, 264.2, 83.0)">n</text><text xml:space="preserve" font-family="HelveticaNeue-Light,Helvetica Neue" font-size="26.0" fill="#000000" transform="matrix(1.00, 0.00, -0.00, -1.00, 278.2, 83.0)">d</text><text xml:space="preserve" font-family="HelveticaNeue-Light,Helvetica Neue" font-size="26.0" fill="#000000" transform="matrix(1.00, 0.00, -0.00, -1.00, 293.1, 83.0)"> </text><text xml:space="preserve" font-family="HelveticaNeue-Light,Helvetica Neue" font-size="26.0" fill="#000000" transform="matrix(1.00, 0.00, -0.00, -1.00, 300.3, 83.0)">p</text><text xml:space="preserve" font-family="HelveticaNeue-Light,Helvetica Neue" font-size="26.0" fill="#000000" transform="matrix(1.00, 0.00, -0.00, -1.00, 315.2, 83.0)">a</text><text xml:space="preserve" font-family="HelveticaNeue-Light,Helvetica Neue" font-size="26.0" fill="#000000" transform="matrix(1.00, 0.00, -0.00, -1.00, 328.7, 83.0)">t</text><text xml:space="preserve" font-family="HelveticaNeue-Light,Helvetica Neue" font-size="26.0" fill="#000000" transform="matrix(1.00, 0.00, -0.00, -1.00, 336.4, 83.0)">h</text><text xml:space="preserve" font-family="HelveticaNeue-Light,Helvetica Neue" font-size="26.0" fill="#000000" transform="matrix(1.00, 0.00, -0.00, -1.00, 350.4, 83.0)">o</text><text xml:space="preserve" font-family="HelveticaNeue-Light,Helvetica Neue" font-size="26.0" fill="#000000" transform="matrix(1.00, 0.00, -0.00, -1.00, 364.9, 83.0)">l</text><text xml:space="preserve" font-family="HelveticaNeue-Light,Helvetica Neue" font-size="26.0" fill="#000000" transform="matrix(1.00, 0.00, -0.00, -1.00, 369.7, 83.0)">o</text><text xml:space="preserve" font-family="HelveticaNeue-Light,Helvetica Neue" font-size="26.0" fill="#000000" transform="matrix(1.00, 0.00, -0.00, -1.00, 384.1, 83.0)">g</text><text xml:space="preserve" font-family="HelveticaNeue-Light,Helvetica Neue" font-size="26.0" fill="#000000" transform="matrix(1.00, 0.00, -0.00, -1.00, 398.6, 83.0)">i</text><text xml:space="preserve" font-family="HelveticaNeue-Light,Helvetica Neue" font-size="26.0" fill="#000000" transform="matrix(1.00, 0.00, -0.00, -1.00, 403.4, 83.0)">c</text><text xml:space="preserve" font-family="HelveticaNeue-Light,Helvetica Neue" font-size="26.0" fill="#000000" transform="matrix(1.00, 0.00, -0.00, -1.00, 416.9, 83.0)"> </text><text xml:space="preserve" font-family="HelveticaNeue-Light,Helvetica Neue" font-size="26.0" fill="#000000" transform="matrix(1.00, 0.00, -0.00, -1.00, 424.1, 83.0)">c</text><text xml:space="preserve" font-family="HelveticaNeue-Light,Helvetica Neue" font-size="26.0" fill="#000000" transform="matrix(1.00, 0.00, -0.00, -1.00, 437.6, 83.0)">h</text><text xml:space="preserve" font-family="HelveticaNeue-Light,Helvetica Neue" font-size="26.0" fill="#000000" transform="matrix(1.00, 0.00, -0.00, -1.00, 451.6, 83.0)">a</text><text xml:space="preserve" font-family="HelveticaNeue-Light,Helvetica Neue" font-size="26.0" fill="#000000" transform="matrix(1.00, 0.00, -0.00, -1.00, 465.1, 83.0)">r</text><text xml:space="preserve" font-family="HelveticaNeue-Light,Helvetica Neue" font-size="26.0" fill="#000000" transform="matrix(1.00, 0.00, -0.00, -1.00, 473.2, 83.0)">a</text><text xml:space="preserve" font-family="HelveticaNeue-Light,Helvetica Neue" font-size="26.0" fill="#000000" transform="matrix(1.00, 0.00, -0.00, -1.00, 486.7, 83.0)">c</text><text xml:space="preserve" font-family="HelveticaNeue-Light,Helvetica Neue" font-size="26.0" fill="#000000" transform="matrix(1.00, 0.00, -0.00, -1.00, 500.2, 83.0)">t</text><text xml:space="preserve" font-family="HelveticaNeue-Light,Helvetica Neue" font-size="26.0" fill="#000000" transform="matrix(1.00, 0.00, -0.00, -1.00, 507.9, 83.0)">e</text><text xml:space="preserve" font-family="HelveticaNeue-Light,Helvetica Neue" font-size="26.0" fill="#000000" transform="matrix(1.00, 0.00, -0.00, -1.00, 521.4, 83.0)">r</text><text xml:space="preserve" font-family="HelveticaNeue-Light,Helvetica Neue" font-size="26.0" fill="#000000" transform="matrix(1.00, 0.00, -0.00, -1.00, 529.6, 83.0)">i</text><text xml:space="preserve" font-family="HelveticaNeue-Light,Helvetica Neue" font-size="26.0" fill="#000000" transform="matrix(1.00, 0.00, -0.00, -1.00, 534.4, 83.0)">s</text><text xml:space="preserve" font-family="HelveticaNeue-Light,Helvetica Neue" font-size="26.0" fill="#000000" transform="matrix(1.00, 0.00, -0.00, -1.00, 546.9, 83.0)">t</text><text xml:space="preserve" font-family="HelveticaNeue-Light,Helvetica Neue" font-size="26.0" fill="#000000" transform="matrix(1.00, 0.00, -0.00, -1.00, 554.6, 83.0)">i</text><text xml:space="preserve" font-family="HelveticaNeue-Light,Helvetica Neue" font-size="26.0" fill="#000000" transform="matrix(1.00, 0.00, -0.00, -1.00, 559.4, 83.0)">c</text><text xml:space="preserve" font-family="HelveticaNeue-Light,Helvetica Neue" font-size="26.0" fill="#000000" transform="matrix(1.00, 0.00, -0.00, -1.00, 572.9, 83.0)">s</text><text xml:space="preserve" font-family="HelveticaNeue-Light,Helvetica Neue" font-size="26.0" fill="#000000" transform="matrix(1.00, 0.00, -0.00, -1.00, 585.4, 83.0)"> </text><text xml:space="preserve" font-family="HelveticaNeue-Light,Helvetica Neue" font-size="26.0" fill="#000000" transform="matrix(1.00, 0.00, -0.00, -1.00, 592.7, 83.0)">o</text><text xml:space="preserve" font-family="HelveticaNeue-Light,Helvetica Neue" font-size="26.0" fill="#000000" transform="matrix(1.00, 0.00, -0.00, -1.00, 607.1, 83.0)">f</text><text xml:space="preserve" font-family="HelveticaNeue-Light,Helvetica Neue" font-size="26.0" fill="#000000" transform="matrix(1.00, 0.00, -0.00, -1.00, 613.9, 83.0)"> </text><text xml:space="preserve" font-family="HelveticaNeue-Light,Helvetica Neue" font-size="26.0" fill="#000000" transform="matrix(1.00, 0.00, -0.00, -1.00, 621.1, 83.0)">B</text><text xml:space="preserve" font-family="HelveticaNeue-Light,Helvetica Neue" font-size="26.0" fill="#000000" transform="matrix(1.00, 0.00, -0.00, -1.00, 638.4, 83.0)">R</text><text xml:space="preserve" font-family="HelveticaNeue-Light,Helvetica Neue" font-size="26.0" fill="#000000" transform="matrix(1.00, 0.00, -0.00, -1.00, 655.8, 83.0)">C</text><text xml:space="preserve" font-family="HelveticaNeue-Light,Helvetica Neue" font-size="26.0" fill="#000000" transform="matrix(1.00, 0.00, -0.00, -1.00, 674.1, 83.0)">A</text><text xml:space="preserve" font-family="HelveticaNeue-Light,Helvetica Neue" font-size="26.0" fill="#000000" transform="matrix(1.00, 0.00, -0.00, -1.00, 690.5, 83.0)">-</text><text xml:space="preserve" font-family="HelveticaNeue-Light,Helvetica Neue" font-size="26.0" fill="#000000" transform="matrix(1.00, 0.00, -0.00, -1.00, 700.1, 83.0)">p</text><text xml:space="preserve" font-family="HelveticaNeue-Light,Helvetica Neue" font-size="26.0" fill="#000000" transform="matrix(1.00, 0.00, -0.00, -1.00, 715.0, 83.0)">o</text><text xml:space="preserve" font-family="HelveticaNeue-Light,Helvetica Neue" font-size="26.0" fill="#000000" transform="matrix(1.00, 0.00, -0.00, -1.00, 729.5, 83.0)">s</text><text xml:space="preserve" font-family="HelveticaNeue-Light,Helvetica Neue" font-size="26.0" fill="#000000" transform="matrix(1.00, 0.00, -0.00, -1.00, 742.0, 83.0)">i</text><text xml:space="preserve" font-family="HelveticaNeue-Light,Helvetica Neue" font-size="26.0" fill="#000000" transform="matrix(1.00, 0.00, -0.00, -1.00, 746.8, 83.0)">t</text><text xml:space="preserve" font-family="HelveticaNeue-Light,Helvetica Neue" font-size="26.0" fill="#000000" transform="matrix(1.00, 0.00, -0.00, -1.00, 754.5, 83.0)">i</text><text xml:space="preserve" font-family="HelveticaNeue-Light,Helvetica Neue" font-size="26.0" fill="#000000" transform="matrix(1.00, 0.00, -0.00, -1.00, 759.3, 83.0)">v</text><text xml:space="preserve" font-family="HelveticaNeue-Light,Helvetica Neue" font-size="26.0" fill="#000000" transform="matrix(1.00, 0.00, -0.00, -1.00, 771.3, 83.0)">e</text><text xml:space="preserve" font-family="HelveticaNeue-Light,Helvetica Neue" font-size="26.0" fill="#000000" transform="matrix(1.00, 0.00, -0.00, -1.00, 784.8, 83.0)"> </text><text xml:space="preserve" font-family="HelveticaNeue-Light,Helvetica Neue" font-size="26.0" fill="#000000" transform="matrix(1.00, 0.00, -0.00, -1.00, 792.0, 83.0)">a</text><text xml:space="preserve" font-family="HelveticaNeue-Light,Helvetica Neue" font-size="26.0" fill="#000000" transform="matrix(1.00, 0.00, -0.00, -1.00, 805.5, 83.0)">n</text><text xml:space="preserve" font-family="HelveticaNeue-Light,Helvetica Neue" font-size="26.0" fill="#000000" transform="matrix(1.00, 0.00, -0.00, -1.00, 819.5, 83.0)">d</text><text xml:space="preserve" font-family="HelveticaNeue-Light,Helvetica Neue" font-size="26.0" fill="#000000" transform="matrix(1.00, 0.00, -0.00, -1.00, 834.4, 83.0)"> </text><text xml:space="preserve" font-family="HelveticaNeue-Light,Helvetica Neue" font-size="26.0" fill="#000000" transform="matrix(1.00, 0.00, -0.00, -1.00, 841.6, 83.0)">B</text><text xml:space="preserve" font-family="HelveticaNeue-Light,Helvetica Neue" font-size="26.0" fill="#000000" transform="matrix(1.00, 0.00, -0.00, -1.00, 859.0, 83.0)">R</text><text xml:space="preserve" font-family="HelveticaNeue-Light,Helvetica Neue" font-size="26.0" fill="#000000" transform="matrix(1.00, 0.00, -0.00, -1.00, 876.3, 83.0)">C</text><text xml:space="preserve" font-family="HelveticaNeue-Light,Helvetica Neue" font-size="26.0" fill="#000000" transform="matrix(1.00, 0.00, -0.00, -1.00, 894.6, 83.0)">A</text><text xml:space="preserve" font-family="HelveticaNeue-Light,Helvetica Neue" font-size="26.0" fill="#000000" transform="matrix(1.00, 0.00, -0.00, -1.00, 911.0, 83.0)">-</text><text xml:space="preserve" font-family="HelveticaNeue-Light,Helvetica Neue" font-size="26.0" fill="#000000" transform="matrix(1.00, 0.00, -0.00, -1.00, 920.6, 83.0)">n</text><text xml:space="preserve" font-family="HelveticaNeue-Light,Helvetica Neue" font-size="26.0" fill="#000000" transform="matrix(1.00, 0.00, -0.00, -1.00, 934.6, 83.0)">e</text><text xml:space="preserve" font-family="HelveticaNeue-Light,Helvetica Neue" font-size="26.0" fill="#000000" transform="matrix(1.00, 0.00, -0.00, -1.00, 948.1, 83.0)">g</text><text xml:space="preserve" font-family="HelveticaNeue-Light,Helvetica Neue" font-size="26.0" fill="#000000" transform="matrix(1.00, 0.00, -0.00, -1.00, 962.5, 83.0)">a</text><text xml:space="preserve" font-family="HelveticaNeue-Light,Helvetica Neue" font-size="26.0" fill="#000000" transform="matrix(1.00, 0.00, -0.00, -1.00, 976.0, 83.0)">t</text><text xml:space="preserve" font-family="HelveticaNeue-Light,Helvetica Neue" font-size="26.0" fill="#000000" transform="matrix(1.00, 0.00, -0.00, -1.00, 983.7, 83.0)">i</text><text xml:space="preserve" font-family="HelveticaNeue-Light,Helvetica Neue" font-size="26.0" fill="#000000" transform="matrix(1.00, 0.00, -0.00, -1.00, 988.5, 83.0)">v</text><text xml:space="preserve" font-family="HelveticaNeue-Light,Helvetica Neue" font-size="26.0" fill="#000000" transform="matrix(1.00, 0.00, -0.00, -1.00, 1000.6, 83.0)">e</text><text xml:space="preserve" font-family="HelveticaNeue-Light,Helvetica Neue" font-size="26.0" fill="#000000" transform="matrix(1.00, 0.00, -0.00, -1.00, 1014.1, 83.0)"> </text><text xml:space="preserve" font-family="HelveticaNeue-Light,Helvetica Neue" font-size="26.0" fill="#000000" transform="matrix(1.00, 0.00, -0.00, -1.00, 60.3, 51.0)">m</text><text xml:space="preserve" font-family="HelveticaNeue-Light,Helvetica Neue" font-size="26.0" fill="#000000" transform="matrix(1.00, 0.00, -0.00, -1.00, 81.9, 51.0)">a</text><text xml:space="preserve" font-family="HelveticaNeue-Light,Helvetica Neue" font-size="26.0" fill="#000000" transform="matrix(1.00, 0.00, -0.00, -1.00, 95.4, 51.0)">l</text><text xml:space="preserve" font-family="HelveticaNeue-Light,Helvetica Neue" font-size="26.0" fill="#000000" transform="matrix(1.00, 0.00, -0.00, -1.00, 100.2, 51.0)">e</text><text xml:space="preserve" font-family="HelveticaNeue-Light,Helvetica Neue" font-size="26.0" fill="#000000" transform="matrix(1.00, 0.00, -0.00, -1.00, 113.7, 51.0)"> </text><text xml:space="preserve" font-family="HelveticaNeue-Light,Helvetica Neue" font-size="26.0" fill="#000000" transform="matrix(1.00, 0.00, -0.00, -1.00, 120.9, 51.0)">b</text><text xml:space="preserve" font-family="HelveticaNeue-Light,Helvetica Neue" font-size="26.0" fill="#000000" transform="matrix(1.00, 0.00, -0.00, -1.00, 135.9, 51.0)">r</text><text xml:space="preserve" font-family="HelveticaNeue-Light,Helvetica Neue" font-size="26.0" fill="#000000" transform="matrix(1.00, 0.00, -0.00, -1.00, 143.6, 51.0)">e</text><text xml:space="preserve" font-family="HelveticaNeue-Light,Helvetica Neue" font-size="26.0" fill="#000000" transform="matrix(1.00, 0.00, -0.00, -1.00, 157.1, 51.0)">a</text><text xml:space="preserve" font-family="HelveticaNeue-Light,Helvetica Neue" font-size="26.0" fill="#000000" transform="matrix(1.00, 0.00, -0.00, -1.00, 170.6, 51.0)">s</text><text xml:space="preserve" font-family="HelveticaNeue-Light,Helvetica Neue" font-size="26.0" fill="#000000" transform="matrix(1.00, 0.00, -0.00, -1.00, 183.1, 51.0)">t</text><text xml:space="preserve" font-family="HelveticaNeue-Light,Helvetica Neue" font-size="26.0" fill="#000000" transform="matrix(1.00, 0.00, -0.00, -1.00, 190.8, 51.0)"> </text><text xml:space="preserve" font-family="HelveticaNeue-Light,Helvetica Neue" font-size="26.0" fill="#000000" transform="matrix(1.00, 0.00, -0.00, -1.00, 198.0, 51.0)">c</text><text xml:space="preserve" font-family="HelveticaNeue-Light,Helvetica Neue" font-size="26.0" fill="#000000" transform="matrix(1.00, 0.00, -0.00, -1.00, 211.5, 51.0)">a</text><text xml:space="preserve" font-family="HelveticaNeue-Light,Helvetica Neue" font-size="26.0" fill="#000000" transform="matrix(1.00, 0.00, -0.00, -1.00, 225.0, 51.0)">n</text><text xml:space="preserve" font-family="HelveticaNeue-Light,Helvetica Neue" font-size="26.0" fill="#000000" transform="matrix(1.00, 0.00, -0.00, -1.00, 239.0, 51.0)">c</text><text xml:space="preserve" font-family="HelveticaNeue-Light,Helvetica Neue" font-size="26.0" fill="#000000" transform="matrix(1.00, 0.00, -0.00, -1.00, 252.5, 51.0)">e</text><text xml:space="preserve" font-family="HelveticaNeue-Light,Helvetica Neue" font-size="26.0" fill="#000000" transform="matrix(1.00, 0.00, -0.00, -1.00, 265.9, 51.0)">r</text><text xml:space="preserve" font-family="HelveticaNeue-Light,Helvetica Neue" font-size="26.0" fill="#000000" transform="matrix(1.00, 0.00, -0.00, -1.00, 274.1, 51.0)"> </text><text xml:space="preserve" font-family="HelveticaNeue-Light,Helvetica Neue" font-size="26.0" fill="#000000" transform="matrix(1.00, 0.00, -0.00, -1.00, 281.4, 51.0)">p</text><text xml:space="preserve" font-family="HelveticaNeue-Light,Helvetica Neue" font-size="26.0" fill="#000000" transform="matrix(1.00, 0.00, -0.00, -1.00, 296.3, 51.0)">a</text><text xml:space="preserve" font-family="HelveticaNeue-Light,Helvetica Neue" font-size="26.0" fill="#000000" transform="matrix(1.00, 0.00, -0.00, -1.00, 309.8, 51.0)">t</text><text xml:space="preserve" font-family="HelveticaNeue-Light,Helvetica Neue" font-size="26.0" fill="#000000" transform="matrix(1.00, 0.00, -0.00, -1.00, 317.5, 51.0)">i</text><text xml:space="preserve" font-family="HelveticaNeue-Light,Helvetica Neue" font-size="26.0" fill="#000000" transform="matrix(1.00, 0.00, -0.00, -1.00, 322.3, 51.0)">e</text><text xml:space="preserve" font-family="HelveticaNeue-Light,Helvetica Neue" font-size="26.0" fill="#000000" transform="matrix(1.00, 0.00, -0.00, -1.00, 335.8, 51.0)">n</text><text xml:space="preserve" font-family="HelveticaNeue-Light,Helvetica Neue" font-size="26.0" fill="#000000" transform="matrix(1.00, 0.00, -0.00, -1.00, 349.7, 51.0)">t</text><text xml:space="preserve" font-family="HelveticaNeue-Light,Helvetica Neue" font-size="26.0" fill="#000000" transform="matrix(1.00, 0.00, -0.00, -1.00, 357.4, 51.0)">s</text><text xml:space="preserve" font-family="HelveticaNeue-Light,Helvetica Neue" font-size="26.0" fill="#000000" transform="matrix(1.00, 0.00, -0.00, -1.00, 369.9, 51.0)">:</text><text xml:space="preserve" font-family="HelveticaNeue-Light,Helvetica Neue" font-size="26.0" fill="#000000" transform="matrix(1.00, 0.00, -0.00, -1.00, 377.2, 51.0)"> </text><text xml:space="preserve" font-family="HelveticaNeue-Light,Helvetica Neue" font-size="26.0" fill="#000000" transform="matrix(1.00, 0.00, -0.00, -1.00, 384.4, 51.0)">r</text><text xml:space="preserve" font-family="HelveticaNeue-Light,Helvetica Neue" font-size="26.0" fill="#000000" transform="matrix(1.00, 0.00, -0.00, -1.00, 392.1, 51.0)">e</text><text xml:space="preserve" font-family="HelveticaNeue-Light,Helvetica Neue" font-size="26.0" fill="#000000" transform="matrix(1.00, 0.00, -0.00, -1.00, 405.6, 51.0)">s</text><text xml:space="preserve" font-family="HelveticaNeue-Light,Helvetica Neue" font-size="26.0" fill="#000000" transform="matrix(1.00, 0.00, -0.00, -1.00, 418.1, 51.0)">u</text><text xml:space="preserve" font-family="HelveticaNeue-Light,Helvetica Neue" font-size="26.0" fill="#000000" transform="matrix(1.00, 0.00, -0.00, -1.00, 432.1, 51.0)">l</text><text xml:space="preserve" font-family="HelveticaNeue-Light,Helvetica Neue" font-size="26.0" fill="#000000" transform="matrix(1.00, 0.00, -0.00, -1.00, 436.9, 51.0)">t</text><text xml:space="preserve" font-family="HelveticaNeue-Light,Helvetica Neue" font-size="26.0" fill="#000000" transform="matrix(1.00, 0.00, -0.00, -1.00, 444.6, 51.0)">s</text><text xml:space="preserve" font-family="HelveticaNeue-Light,Helvetica Neue" font-size="26.0" fill="#000000" transform="matrix(1.00, 0.00, -0.00, -1.00, 457.1, 51.0)"> </text><text xml:space="preserve" font-family="HelveticaNeue-Light,Helvetica Neue" font-size="26.0" fill="#000000" transform="matrix(1.00, 0.00, -0.00, -1.00, 464.3, 51.0)">f</text><text xml:space="preserve" font-family="HelveticaNeue-Light,Helvetica Neue" font-size="26.0" fill="#000000" transform="matrix(1.00, 0.00, -0.00, -1.00, 471.1, 51.0)">r</text><text xml:space="preserve" font-family="HelveticaNeue-Light,Helvetica Neue" font-size="26.0" fill="#000000" transform="matrix(1.00, 0.00, -0.00, -1.00, 478.8, 51.0)">o</text><text xml:space="preserve" font-family="HelveticaNeue-Light,Helvetica Neue" font-size="26.0" fill="#000000" transform="matrix(1.00, 0.00, -0.00, -1.00, 493.2, 51.0)">m</text><text xml:space="preserve" font-family="HelveticaNeue-Light,Helvetica Neue" font-size="26.0" fill="#000000" transform="matrix(1.00, 0.00, -0.00, -1.00, 514.9, 51.0)"> </text><text xml:space="preserve" font-family="HelveticaNeue-Light,Helvetica Neue" font-size="26.0" fill="#000000" transform="matrix(1.00, 0.00, -0.00, -1.00, 522.1, 51.0)">a</text><text xml:space="preserve" font-family="HelveticaNeue-Light,Helvetica Neue" font-size="26.0" fill="#000000" transform="matrix(1.00, 0.00, -0.00, -1.00, 535.6, 51.0)"> </text><text xml:space="preserve" font-family="HelveticaNeue-Light,Helvetica Neue" font-size="26.0" fill="#000000" transform="matrix(1.00, 0.00, -0.00, -1.00, 542.8, 51.0)">c</text><text xml:space="preserve" font-family="HelveticaNeue-Light,Helvetica Neue" font-size="26.0" fill="#000000" transform="matrix(1.00, 0.00, -0.00, -1.00, 556.3, 51.0)">o</text><text xml:space="preserve" font-family="HelveticaNeue-Light,Helvetica Neue" font-size="26.0" fill="#000000" transform="matrix(1.00, 0.00, -0.00, -1.00, 570.8, 51.0)">l</text><text xml:space="preserve" font-family="HelveticaNeue-Light,Helvetica Neue" font-size="26.0" fill="#000000" transform="matrix(1.00, 0.00, -0.00, -1.00, 575.6, 51.0)">l</text><text xml:space="preserve" font-family="HelveticaNeue-Light,Helvetica Neue" font-size="26.0" fill="#000000" transform="matrix(1.00, 0.00, -0.00, -1.00, 580.4, 51.0)">a</text><text xml:space="preserve" font-family="HelveticaNeue-Light,Helvetica Neue" font-size="26.0" fill="#000000" transform="matrix(1.00, 0.00, -0.00, -1.00, 593.9, 51.0)">b</text><text xml:space="preserve" font-family="HelveticaNeue-Light,Helvetica Neue" font-size="26.0" fill="#000000" transform="matrix(1.00, 0.00, -0.00, -1.00, 608.8, 51.0)">o</text><text xml:space="preserve" font-family="HelveticaNeue-Light,Helvetica Neue" font-size="26.0" fill="#000000" transform="matrix(1.00, 0.00, -0.00, -1.00, 623.3, 51.0)">r</text><text xml:space="preserve" font-family="HelveticaNeue-Light,Helvetica Neue" font-size="26.0" fill="#000000" transform="matrix(1.00, 0.00, -0.00, -1.00, 631.5, 51.0)">a</text><text xml:space="preserve" font-family="HelveticaNeue-Light,Helvetica Neue" font-size="26.0" fill="#000000" transform="matrix(1.00, 0.00, -0.00, -1.00, 645.0, 51.0)">t</text><text xml:space="preserve" font-family="HelveticaNeue-Light,Helvetica Neue" font-size="26.0" fill="#000000" transform="matrix(1.00, 0.00, -0.00, -1.00, 652.7, 51.0)">i</text><text xml:space="preserve" font-family="HelveticaNeue-Light,Helvetica Neue" font-size="26.0" fill="#000000" transform="matrix(1.00, 0.00, -0.00, -1.00, 657.5, 51.0)">v</text><text xml:space="preserve" font-family="HelveticaNeue-Light,Helvetica Neue" font-size="26.0" fill="#000000" transform="matrix(1.00, 0.00, -0.00, -1.00, 669.5, 51.0)">e</text><text xml:space="preserve" font-family="HelveticaNeue-Light,Helvetica Neue" font-size="26.0" fill="#000000" transform="matrix(1.00, 0.00, -0.00, -1.00, 683.0, 51.0)"> </text><text xml:space="preserve" font-family="HelveticaNeue-Light,Helvetica Neue" font-size="26.0" fill="#000000" transform="matrix(1.00, 0.00, -0.00, -1.00, 690.2, 51.0)">m</text><text xml:space="preserve" font-family="HelveticaNeue-Light,Helvetica Neue" font-size="26.0" fill="#000000" transform="matrix(1.00, 0.00, -0.00, -1.00, 711.9, 51.0)">u</text><text xml:space="preserve" font-family="HelveticaNeue-Light,Helvetica Neue" font-size="26.0" fill="#000000" transform="matrix(1.00, 0.00, -0.00, -1.00, 725.9, 51.0)">l</text><text xml:space="preserve" font-family="HelveticaNeue-Light,Helvetica Neue" font-size="26.0" fill="#000000" transform="matrix(1.00, 0.00, -0.00, -1.00, 730.7, 51.0)">t</text><text xml:space="preserve" font-family="HelveticaNeue-Light,Helvetica Neue" font-size="26.0" fill="#000000" transform="matrix(1.00, 0.00, -0.00, -1.00, 738.4, 51.0)">i</text><text xml:space="preserve" font-family="HelveticaNeue-Light,Helvetica Neue" font-size="26.0" fill="#000000" transform="matrix(1.00, 0.00, -0.00, -1.00, 743.2, 51.0)">c</text><text xml:space="preserve" font-family="HelveticaNeue-Light,Helvetica Neue" font-size="26.0" fill="#000000" transform="matrix(1.00, 0.00, -0.00, -1.00, 756.7, 51.0)">e</text><text xml:space="preserve" font-family="HelveticaNeue-Light,Helvetica Neue" font-size="26.0" fill="#000000" transform="matrix(1.00, 0.00, -0.00, -1.00, 770.2, 51.0)">n</text><text xml:space="preserve" font-family="HelveticaNeue-Light,Helvetica Neue" font-size="26.0" fill="#000000" transform="matrix(1.00, 0.00, -0.00, -1.00, 784.1, 51.0)">t</text><text xml:space="preserve" font-family="HelveticaNeue-Light,Helvetica Neue" font-size="26.0" fill="#000000" transform="matrix(1.00, 0.00, -0.00, -1.00, 791.8, 51.0)">e</text><text xml:space="preserve" font-family="HelveticaNeue-Light,Helvetica Neue" font-size="26.0" fill="#000000" transform="matrix(1.00, 0.00, -0.00, -1.00, 805.3, 51.0)">r</text><text xml:space="preserve" font-family="HelveticaNeue-Light,Helvetica Neue" font-size="26.0" fill="#000000" transform="matrix(1.00, 0.00, -0.00, -1.00, 813.5, 51.0)"> </text><text xml:space="preserve" font-family="HelveticaNeue-Light,Helvetica Neue" font-size="26.0" fill="#000000" transform="matrix(1.00, 0.00, -0.00, -1.00, 820.7, 51.0)">s</text><text xml:space="preserve" font-family="HelveticaNeue-Light,Helvetica Neue" font-size="26.0" fill="#000000" transform="matrix(1.00, 0.00, -0.00, -1.00, 833.2, 51.0)">t</text><text xml:space="preserve" font-family="HelveticaNeue-Light,Helvetica Neue" font-size="26.0" fill="#000000" transform="matrix(1.00, 0.00, -0.00, -1.00, 840.9, 51.0)">u</text><text xml:space="preserve" font-family="HelveticaNeue-Light,Helvetica Neue" font-size="26.0" fill="#000000" transform="matrix(1.00, 0.00, -0.00, -1.00, 854.9, 51.0)">d</text><text xml:space="preserve" font-family="HelveticaNeue-Light,Helvetica Neue" font-size="26.0" fill="#000000" transform="matrix(1.00, 0.00, -0.00, -1.00, 869.8, 51.0)">y</text><text xml:space="preserve" font-family="HelveticaNeue-Light,Helvetica Neue" font-size="26.0" fill="#000000" transform="matrix(1.00, 0.00, -0.00, -1.00, 881.9, 51.0)"> </text><text xml:space="preserve" font-family="HelveticaNeue-Light,Helvetica Neue" font-size="26.0" fill="#000000" transform="matrix(1.00, 0.00, -0.00, -1.00, 889.1, 51.0)">i</text><text xml:space="preserve" font-family="HelveticaNeue-Light,Helvetica Neue" font-size="26.0" fill="#000000" transform="matrix(1.00, 0.00, -0.00, -1.00, 893.9, 51.0)">n</text><text xml:space="preserve" font-family="HelveticaNeue-Light,Helvetica Neue" font-size="26.0" fill="#000000" transform="matrix(1.00, 0.00, -0.00, -1.00, 907.9, 51.0)"> </text><text xml:space="preserve" font-family="HelveticaNeue-Light,Helvetica Neue" font-size="26.0" fill="#000000" transform="matrix(1.00, 0.00, -0.00, -1.00, 915.1, 51.0)">I</text><text xml:space="preserve" font-family="HelveticaNeue-Light,Helvetica Neue" font-size="26.0" fill="#000000" transform="matrix(1.00, 0.00, -0.00, -1.00, 920.9, 51.0)">t</text><text xml:space="preserve" font-family="HelveticaNeue-Light,Helvetica Neue" font-size="26.0" fill="#000000" transform="matrix(1.00, 0.00, -0.00, -1.00, 928.6, 51.0)">a</text><text xml:space="preserve" font-family="HelveticaNeue-Light,Helvetica Neue" font-size="26.0" fill="#000000" transform="matrix(1.00, 0.00, -0.00, -1.00, 942.1, 51.0)">l</text><text xml:space="preserve" font-family="HelveticaNeue-Light,Helvetica Neue" font-size="26.0" fill="#000000" transform="matrix(1.00, 0.00, -0.00, -1.00, 946.9, 51.0)">y</text><text xml:space="preserve" font-family="HelveticaNeue-Light,Helvetica Neue" font-size="26.0" fill="#000000" transform="matrix(1.00, 0.00, -0.00, -1.00, 956.5, 51.0)">.</text><text xml:space="preserve" font-family="LucidaGrande,Lucida Grande" font-size="26.0" fill="#000000" transform="matrix(1.00, 0.00, -0.00, -1.00, 963.7, 51.0)"> </text><text xml:space="preserve" font-family="HelveticaNeue-Light,Helvetica Neue" font-size="26.0" fill="#000000" transform="matrix(1.00, 0.00, -0.00, -1.00, 220.3, 19.0)">B</text><text xml:space="preserve" font-family="HelveticaNeue-Light,Helvetica Neue" font-size="26.0" fill="#000000" transform="matrix(1.00, 0.00, -0.00, -1.00, 237.6, 19.0)">r</text><text xml:space="preserve" font-family="HelveticaNeue-Light,Helvetica Neue" font-size="26.0" fill="#000000" transform="matrix(1.00, 0.00, -0.00, -1.00, 245.3, 19.0)">e</text><text xml:space="preserve" font-family="HelveticaNeue-Light,Helvetica Neue" font-size="26.0" fill="#000000" transform="matrix(1.00, 0.00, -0.00, -1.00, 258.8, 19.0)">a</text><text xml:space="preserve" font-family="HelveticaNeue-Light,Helvetica Neue" font-size="26.0" fill="#000000" transform="matrix(1.00, 0.00, -0.00, -1.00, 272.3, 19.0)">s</text><text xml:space="preserve" font-family="HelveticaNeue-Light,Helvetica Neue" font-size="26.0" fill="#000000" transform="matrix(1.00, 0.00, -0.00, -1.00, 284.8, 19.0)">t</text><text xml:space="preserve" font-family="HelveticaNeue-Light,Helvetica Neue" font-size="26.0" fill="#000000" transform="matrix(1.00, 0.00, -0.00, -1.00, 292.5, 19.0)"> </text><text xml:space="preserve" font-family="HelveticaNeue-Light,Helvetica Neue" font-size="26.0" fill="#000000" transform="matrix(1.00, 0.00, -0.00, -1.00, 299.7, 19.0)">C</text><text xml:space="preserve" font-family="HelveticaNeue-Light,Helvetica Neue" font-size="26.0" fill="#000000" transform="matrix(1.00, 0.00, -0.00, -1.00, 318.1, 19.0)">a</text><text xml:space="preserve" font-family="HelveticaNeue-Light,Helvetica Neue" font-size="26.0" fill="#000000" transform="matrix(1.00, 0.00, -0.00, -1.00, 331.5, 19.0)">n</text><text xml:space="preserve" font-family="HelveticaNeue-Light,Helvetica Neue" font-size="26.0" fill="#000000" transform="matrix(1.00, 0.00, -0.00, -1.00, 345.5, 19.0)">c</text><text xml:space="preserve" font-family="HelveticaNeue-Light,Helvetica Neue" font-size="26.0" fill="#000000" transform="matrix(1.00, 0.00, -0.00, -1.00, 359.0, 19.0)">e</text><text xml:space="preserve" font-family="HelveticaNeue-Light,Helvetica Neue" font-size="26.0" fill="#000000" transform="matrix(1.00, 0.00, -0.00, -1.00, 372.5, 19.0)">r</text><text xml:space="preserve" font-family="HelveticaNeue-Light,Helvetica Neue" font-size="26.0" fill="#000000" transform="matrix(1.00, 0.00, -0.00, -1.00, 380.7, 19.0)"> </text><text xml:space="preserve" font-family="HelveticaNeue-Light,Helvetica Neue" font-size="26.0" fill="#000000" transform="matrix(1.00, 0.00, -0.00, -1.00, 387.9, 19.0)">R</text><text xml:space="preserve" font-family="HelveticaNeue-Light,Helvetica Neue" font-size="26.0" fill="#000000" transform="matrix(1.00, 0.00, -0.00, -1.00, 405.3, 19.0)">e</text><text xml:space="preserve" font-family="HelveticaNeue-Light,Helvetica Neue" font-size="26.0" fill="#000000" transform="matrix(1.00, 0.00, -0.00, -1.00, 418.8, 19.0)">s</text><text xml:space="preserve" font-family="HelveticaNeue-Light,Helvetica Neue" font-size="26.0" fill="#000000" transform="matrix(1.00, 0.00, -0.00, -1.00, 431.3, 19.0)"> </text><text xml:space="preserve" font-family="HelveticaNeue-Light,Helvetica Neue" font-size="26.0" fill="#000000" transform="matrix(1.00, 0.00, -0.00, -1.00, 438.5, 19.0)">T</text><text xml:space="preserve" font-family="HelveticaNeue-Light,Helvetica Neue" font-size="26.0" fill="#000000" transform="matrix(1.00, 0.00, -0.00, -1.00, 450.5, 19.0)">r</text><text xml:space="preserve" font-family="HelveticaNeue-Light,Helvetica Neue" font-size="26.0" fill="#000000" transform="matrix(1.00, 0.00, -0.00, -1.00, 458.3, 19.0)">e</text><text xml:space="preserve" font-family="HelveticaNeue-Light,Helvetica Neue" font-size="26.0" fill="#000000" transform="matrix(1.00, 0.00, -0.00, -1.00, 471.8, 19.0)">a</text><text xml:space="preserve" font-family="HelveticaNeue-Light,Helvetica Neue" font-size="26.0" fill="#000000" transform="matrix(1.00, 0.00, -0.00, -1.00, 485.3, 19.0)">t</text><text xml:space="preserve" font-family="HelveticaNeue-Light,Helvetica Neue" font-size="26.0" fill="#000000" transform="matrix(1.00, 0.00, -0.00, -1.00, 493.0, 19.0)">.</text><text xml:space="preserve" font-family="HelveticaNeue-Light,Helvetica Neue" font-size="26.0" fill="#000000" transform="matrix(1.00, 0.00, -0.00, -1.00, 500.2, 19.0)"> </text><text xml:space="preserve" font-family="HelveticaNeue-Light,Helvetica Neue" font-size="26.0" fill="#000000" transform="matrix(1.00, 0.00, -0.00, -1.00, 507.4, 19.0)">2</text><text xml:space="preserve" font-family="HelveticaNeue-Light,Helvetica Neue" font-size="26.0" fill="#000000" transform="matrix(1.00, 0.00, -0.00, -1.00, 521.9, 19.0)">0</text><text xml:space="preserve" font-family="HelveticaNeue-Light,Helvetica Neue" font-size="26.0" fill="#000000" transform="matrix(1.00, 0.00, -0.00, -1.00, 536.3, 19.0)">1</text><text xml:space="preserve" font-family="HelveticaNeue-Light,Helvetica Neue" font-size="26.0" fill="#000000" transform="matrix(1.00, 0.00, -0.00, -1.00, 550.8, 19.0)">2</text><text xml:space="preserve" font-family="HelveticaNeue-Light,Helvetica Neue" font-size="26.0" fill="#000000" transform="matrix(1.00, 0.00, -0.00, -1.00, 565.2, 19.0)"> </text><text xml:space="preserve" font-family="HelveticaNeue-Light,Helvetica Neue" font-size="26.0" fill="#000000" transform="matrix(1.00, 0.00, -0.00, -1.00, 572.5, 19.0)">A</text><text xml:space="preserve" font-family="HelveticaNeue-Light,Helvetica Neue" font-size="26.0" fill="#000000" transform="matrix(1.00, 0.00, -0.00, -1.00, 588.8, 19.0)">p</text><text xml:space="preserve" font-family="HelveticaNeue-Light,Helvetica Neue" font-size="26.0" fill="#000000" transform="matrix(1.00, 0.00, -0.00, -1.00, 603.8, 19.0)">r</text><text xml:space="preserve" font-family="HelveticaNeue-Light,Helvetica Neue" font-size="26.0" fill="#000000" transform="matrix(1.00, 0.00, -0.00, -1.00, 612.0, 19.0)"> </text><text xml:space="preserve" font-family="HelveticaNeue-Light,Helvetica Neue" font-size="26.0" fill="#000000" transform="matrix(1.00, 0.00, -0.00, -1.00, 619.2, 19.0)">1</text><text xml:space="preserve" font-family="HelveticaNeue-Light,Helvetica Neue" font-size="26.0" fill="#000000" transform="matrix(1.00, 0.00, -0.00, -1.00, 633.6, 19.0)">8</text><text xml:space="preserve" font-family="HelveticaNeue-Light,Helvetica Neue" font-size="26.0" fill="#000000" transform="matrix(1.00, 0.00, -0.00, -1.00, 648.1, 19.0)">;</text><text xml:space="preserve" font-family="HelveticaNeue-Light,Helvetica Neue" font-size="26.0" fill="#000000" transform="matrix(1.00, 0.00, -0.00, -1.00, 655.3, 19.0)">1</text><text xml:space="preserve" font-family="HelveticaNeue-Light,Helvetica Neue" font-size="26.0" fill="#000000" transform="matrix(1.00, 0.00, -0.00, -1.00, 669.8, 19.0)">3</text><text xml:space="preserve" font-family="HelveticaNeue-Light,Helvetica Neue" font-size="26.0" fill="#000000" transform="matrix(1.00, 0.00, -0.00, -1.00, 684.2, 19.0)">4</text><text xml:space="preserve" font-family="HelveticaNeue-Light,Helvetica Neue" font-size="26.0" fill="#000000" transform="matrix(1.00, 0.00, -0.00, -1.00, 698.7, 19.0)">(</text><text xml:space="preserve" font-family="HelveticaNeue-Light,Helvetica Neue" font-size="26.0" fill="#000000" transform="matrix(1.00, 0.00, -0.00, -1.00, 705.0, 19.0)">1</text><text xml:space="preserve" font-family="HelveticaNeue-Light,Helvetica Neue" font-size="26.0" fill="#000000" transform="matrix(1.00, 0.00, -0.00, -1.00, 719.4, 19.0)">)</text><text xml:space="preserve" font-family="HelveticaNeue-Light,Helvetica Neue" font-size="26.0" fill="#000000" transform="matrix(1.00, 0.00, -0.00, -1.00, 725.7, 19.0)">:</text><text xml:space="preserve" font-family="HelveticaNeue-Light,Helvetica Neue" font-size="26.0" fill="#000000" transform="matrix(1.00, 0.00, -0.00, -1.00, 732.9, 19.0)">4</text><text xml:space="preserve" font-family="HelveticaNeue-Light,Helvetica Neue" font-size="26.0" fill="#000000" transform="matrix(1.00, 0.00, -0.00, -1.00, 747.4, 19.0)">1</text><text xml:space="preserve" font-family="HelveticaNeue-Light,Helvetica Neue" font-size="26.0" fill="#000000" transform="matrix(1.00, 0.00, -0.00, -1.00, 761.8, 19.0)">1</text><text xml:space="preserve" font-family="HelveticaNeue-Light,Helvetica Neue" font-size="26.0" fill="#000000" transform="matrix(1.00, 0.00, -0.00, -1.00, 776.3, 19.0)">–</text><text xml:space="preserve" font-family="HelveticaNeue-Light,Helvetica Neue" font-size="26.0" fill="#000000" transform="matrix(1.00, 0.00, -0.00, -1.00, 789.3, 19.0)">8</text></g></svg>