<?xml version="1.0" encoding="UTF-8" standalone="no"?><svg xmlns="http://www.w3.org/2000/svg" xmlns:xlink="http://www.w3.org/1999/xlink" clip-rule="evenodd" stroke-miterlimit="4.00" viewBox="0 0 1024 768"><desc>SVG generated by Keynote</desc><defs></defs><g transform="matrix(1.00, 0.00, -0.00, -1.00, 0.0, 768.0)"><path d="M 0.0 768.0 L 1024.0 768.0 L 1024.0 0.0 L 0.0 0.0 Z M 0.0 768.0 " fill="#FEFFFE"></path><path d="M 0.0 0.0 L 934.5 0.0 " fill="none" stroke="#9A9A9A" stroke-width="1.00" transform="matrix(1.00, 0.00, 0.00, -1.00, 45.0, 613.0)"></path><text xml:space="preserve" font-family="HelveticaNeue-Light" font-size="42.0" fill="#000000" transform="matrix(1.00, 0.00, -0.00, -1.00, 49.0, 645.0)">O</text><text xml:space="preserve" font-family="HelveticaNeue-Light" font-size="42.0" fill="#000000" transform="matrix(1.00, 0.00, -0.00, -1.00, 80.1, 645.0)">u</text><text xml:space="preserve" font-family="HelveticaNeue-Light" font-size="42.0" fill="#000000" transform="matrix(1.00, 0.00, -0.00, -1.00, 102.7, 645.0)">t</text><text xml:space="preserve" font-family="HelveticaNeue-Light" font-size="42.0" fill="#000000" transform="matrix(1.00, 0.00, -0.00, -1.00, 115.1, 645.0)">c</text><text xml:space="preserve" font-family="HelveticaNeue-Light" font-size="42.0" fill="#000000" transform="matrix(1.00, 0.00, -0.00, -1.00, 136.9, 645.0)">o</text><text xml:space="preserve" font-family="HelveticaNeue-Light" font-size="42.0" fill="#000000" transform="matrix(1.00, 0.00, -0.00, -1.00, 160.3, 645.0)">m</text><text xml:space="preserve" font-family="HelveticaNeue-Light" font-size="42.0" fill="#000000" transform="matrix(1.00, 0.00, -0.00, -1.00, 195.2, 645.0)">e</text><text xml:space="preserve" font-family="HelveticaNeue-Light" font-size="42.0" fill="#000000" transform="matrix(1.00, 0.00, -0.00, -1.00, 217.0, 645.0)">s</text><text xml:space="preserve" font-family="HelveticaNeue" font-size="27.0" fill="#747373" transform="matrix(1.00, 0.00, -0.00, -1.00, 49.0, 557.2)">•</text><text xml:space="preserve" font-family="HelveticaNeue-Light" font-size="36.0" fill="#747373" transform="matrix(1.00, 0.00, -0.00, -1.00, 85.0, 554.0)">7</text><text xml:space="preserve" font-family="HelveticaNeue-Light" font-size="36.0" fill="#747373" transform="matrix(1.00, 0.00, -0.00, -1.00, 105.0, 554.0)">/</text><text xml:space="preserve" font-family="HelveticaNeue-Light" font-size="36.0" fill="#747373" transform="matrix(1.00, 0.00, -0.00, -1.00, 117.0, 554.0)">1</text><text xml:space="preserve" font-family="HelveticaNeue-Light" font-size="36.0" fill="#747373" transform="matrix(1.00, 0.00, -0.00, -1.00, 137.0, 554.0)">3</text><text xml:space="preserve" font-family="HelveticaNeue-Light" font-size="36.0" fill="#747373" transform="matrix(1.00, 0.00, -0.00, -1.00, 157.0, 554.0)"> </text><text xml:space="preserve" font-family="HelveticaNeue-Light" font-size="36.0" fill="#747373" transform="matrix(1.00, 0.00, -0.00, -1.00, 167.0, 554.0)">p</text><text xml:space="preserve" font-family="HelveticaNeue-Light" font-size="36.0" fill="#747373" transform="matrix(1.00, 0.00, -0.00, -1.00, 187.7, 554.0)">a</text><text xml:space="preserve" font-family="HelveticaNeue-Light" font-size="36.0" fill="#747373" transform="matrix(1.00, 0.00, -0.00, -1.00, 206.4, 554.0)">t</text><text xml:space="preserve" font-family="HelveticaNeue-Light" font-size="36.0" fill="#747373" transform="matrix(1.00, 0.00, -0.00, -1.00, 217.0, 554.0)">i</text><text xml:space="preserve" font-family="HelveticaNeue-Light" font-size="36.0" fill="#747373" transform="matrix(1.00, 0.00, -0.00, -1.00, 223.7, 554.0)">e</text><text xml:space="preserve" font-family="HelveticaNeue-Light" font-size="36.0" fill="#747373" transform="matrix(1.00, 0.00, -0.00, -1.00, 242.4, 554.0)">n</text><text xml:space="preserve" font-family="HelveticaNeue-Light" font-size="36.0" fill="#747373" transform="matrix(1.00, 0.00, -0.00, -1.00, 261.7, 554.0)">t</text><text xml:space="preserve" font-family="HelveticaNeue-Light" font-size="36.0" fill="#747373" transform="matrix(1.00, 0.00, -0.00, -1.00, 272.4, 554.0)">s</text><text xml:space="preserve" font-family="HelveticaNeue-Light" font-size="36.0" fill="#747373" transform="matrix(1.00, 0.00, -0.00, -1.00, 289.7, 554.0)"> </text><text xml:space="preserve" font-family="HelveticaNeue-Light" font-size="36.0" fill="#747373" transform="matrix(1.00, 0.00, -0.00, -1.00, 299.7, 554.0)">d</text><text xml:space="preserve" font-family="HelveticaNeue-Light" font-size="36.0" fill="#747373" transform="matrix(1.00, 0.00, -0.00, -1.00, 320.4, 554.0)">i</text><text xml:space="preserve" font-family="HelveticaNeue-Light" font-size="36.0" fill="#747373" transform="matrix(1.00, 0.00, -0.00, -1.00, 327.0, 554.0)">e</text><text xml:space="preserve" font-family="HelveticaNeue-Light" font-size="36.0" fill="#747373" transform="matrix(1.00, 0.00, -0.00, -1.00, 345.7, 554.0)">d</text><text xml:space="preserve" font-family="HelveticaNeue-Light" font-size="36.0" fill="#747373" transform="matrix(1.00, 0.00, -0.00, -1.00, 366.4, 554.0)">,</text><text xml:space="preserve" font-family="HelveticaNeue-Light" font-size="36.0" fill="#747373" transform="matrix(1.00, 0.00, -0.00, -1.00, 376.4, 554.0)"> </text><text xml:space="preserve" font-family="HelveticaNeue-Light" font-size="36.0" fill="#747373" transform="matrix(1.00, 0.00, -0.00, -1.00, 386.4, 554.0)">i</text><text xml:space="preserve" font-family="HelveticaNeue-Light" font-size="36.0" fill="#747373" transform="matrix(1.00, 0.00, -0.00, -1.00, 393.1, 554.0)">n</text><text xml:space="preserve" font-family="HelveticaNeue-Light" font-size="36.0" fill="#747373" transform="matrix(1.00, 0.00, -0.00, -1.00, 412.4, 554.0)">c</text><text xml:space="preserve" font-family="HelveticaNeue-Light" font-size="36.0" fill="#747373" transform="matrix(1.00, 0.00, -0.00, -1.00, 431.1, 554.0)">l</text><text xml:space="preserve" font-family="HelveticaNeue-Light" font-size="36.0" fill="#747373" transform="matrix(1.00, 0.00, -0.00, -1.00, 437.7, 554.0)">u</text><text xml:space="preserve" font-family="HelveticaNeue-Light" font-size="36.0" fill="#747373" transform="matrix(1.00, 0.00, -0.00, -1.00, 457.1, 554.0)">d</text><text xml:space="preserve" font-family="HelveticaNeue-Light" font-size="36.0" fill="#747373" transform="matrix(1.00, 0.00, -0.00, -1.00, 477.7, 554.0)">i</text><text xml:space="preserve" font-family="HelveticaNeue-Light" font-size="36.0" fill="#747373" transform="matrix(1.00, 0.00, -0.00, -1.00, 484.4, 554.0)">n</text><text xml:space="preserve" font-family="HelveticaNeue-Light" font-size="36.0" fill="#747373" transform="matrix(1.00, 0.00, -0.00, -1.00, 503.7, 554.0)">g</text><text xml:space="preserve" font-family="HelveticaNeue-Light" font-size="36.0" fill="#747373" transform="matrix(1.00, 0.00, -0.00, -1.00, 523.7, 554.0)"> </text><text xml:space="preserve" font-family="HelveticaNeue-Light" font-size="36.0" fill="#747373" transform="matrix(1.00, 0.00, -0.00, -1.00, 533.7, 554.0)">a</text><text xml:space="preserve" font-family="HelveticaNeue-Light" font-size="36.0" fill="#747373" transform="matrix(1.00, 0.00, -0.00, -1.00, 552.4, 554.0)">l</text><text xml:space="preserve" font-family="HelveticaNeue-Light" font-size="36.0" fill="#747373" transform="matrix(1.00, 0.00, -0.00, -1.00, 559.1, 554.0)">l</text><text xml:space="preserve" font-family="HelveticaNeue-Light" font-size="36.0" fill="#747373" transform="matrix(1.00, 0.00, -0.00, -1.00, 565.7, 554.0)"> </text><text xml:space="preserve" font-family="HelveticaNeue-Light" font-size="36.0" fill="#747373" transform="matrix(1.00, 0.00, -0.00, -1.00, 575.8, 554.0)">3</text><text xml:space="preserve" font-family="HelveticaNeue-Light" font-size="36.0" fill="#747373" transform="matrix(1.00, 0.00, -0.00, -1.00, 595.8, 554.0)"> </text><text xml:space="preserve" font-family="HelveticaNeue-Light" font-size="36.0" fill="#747373" transform="matrix(1.00, 0.00, -0.00, -1.00, 605.8, 554.0)">i</text><text xml:space="preserve" font-family="HelveticaNeue-Light" font-size="36.0" fill="#747373" transform="matrix(1.00, 0.00, -0.00, -1.00, 612.4, 554.0)">n</text><text xml:space="preserve" font-family="HelveticaNeue-Light" font-size="36.0" fill="#747373" transform="matrix(1.00, 0.00, -0.00, -1.00, 631.8, 554.0)"> </text><text xml:space="preserve" font-family="HelveticaNeue-Light" font-size="36.0" fill="#747373" transform="matrix(1.00, 0.00, -0.00, -1.00, 641.8, 554.0)">c</text><text xml:space="preserve" font-family="HelveticaNeue-Light" font-size="36.0" fill="#747373" transform="matrix(1.00, 0.00, -0.00, -1.00, 660.5, 554.0)">o</text><text xml:space="preserve" font-family="HelveticaNeue-Light" font-size="36.0" fill="#747373" transform="matrix(1.00, 0.00, -0.00, -1.00, 680.5, 554.0)">h</text><text xml:space="preserve" font-family="HelveticaNeue-Light" font-size="36.0" fill="#747373" transform="matrix(1.00, 0.00, -0.00, -1.00, 699.8, 554.0)">o</text><text xml:space="preserve" font-family="HelveticaNeue-Light" font-size="36.0" fill="#747373" transform="matrix(1.00, 0.00, -0.00, -1.00, 719.8, 554.0)">r</text><text xml:space="preserve" font-family="HelveticaNeue-Light" font-size="36.0" fill="#747373" transform="matrix(1.00, 0.00, -0.00, -1.00, 731.2, 554.0)">t</text><text xml:space="preserve" font-family="HelveticaNeue-Light" font-size="36.0" fill="#747373" transform="matrix(1.00, 0.00, -0.00, -1.00, 741.8, 554.0)"> </text><text xml:space="preserve" font-family="HelveticaNeue-Light" font-size="36.0" fill="#747373" transform="matrix(1.00, 0.00, -0.00, -1.00, 751.8, 554.0)">1</text><text xml:space="preserve" font-family="HelveticaNeue-Light" font-size="36.0" fill="#747373" transform="matrix(1.00, 0.00, -0.00, -1.00, 771.8, 554.0)"> </text><text xml:space="preserve" font-family="HelveticaNeue" font-size="27.0" fill="#747373" transform="matrix(1.00, 0.00, -0.00, -1.00, 85.0, 471.2)">•</text><text xml:space="preserve" font-family="HelveticaNeue-Light" font-size="36.0" fill="#747373" transform="matrix(1.00, 0.00, -0.00, -1.00, 121.0, 468.0)">2</text><text xml:space="preserve" font-family="HelveticaNeue-Light" font-size="36.0" fill="#747373" transform="matrix(1.00, 0.00, -0.00, -1.00, 141.0, 468.0)"> </text><text xml:space="preserve" font-family="HelveticaNeue-Light" font-size="36.0" fill="#747373" transform="matrix(1.00, 0.00, -0.00, -1.00, 151.0, 468.0)">w</text><text xml:space="preserve" font-family="HelveticaNeue-Light" font-size="36.0" fill="#747373" transform="matrix(1.00, 0.00, -0.00, -1.00, 177.7, 468.0)">i</text><text xml:space="preserve" font-family="HelveticaNeue-Light" font-size="36.0" fill="#747373" transform="matrix(1.00, 0.00, -0.00, -1.00, 184.4, 468.0)">t</text><text xml:space="preserve" font-family="HelveticaNeue-Light" font-size="36.0" fill="#747373" transform="matrix(1.00, 0.00, -0.00, -1.00, 195.0, 468.0)">h</text><text xml:space="preserve" font-family="HelveticaNeue-Light" font-size="36.0" fill="#747373" transform="matrix(1.00, 0.00, -0.00, -1.00, 214.3, 468.0)"> </text><text xml:space="preserve" font-family="HelveticaNeue-Light" font-size="36.0" fill="#747373" transform="matrix(1.00, 0.00, -0.00, -1.00, 224.4, 468.0)">p</text><text xml:space="preserve" font-family="HelveticaNeue-Light" font-size="36.0" fill="#747373" transform="matrix(1.00, 0.00, -0.00, -1.00, 245.0, 468.0)">r</text><text xml:space="preserve" font-family="HelveticaNeue-Light" font-size="36.0" fill="#747373" transform="matrix(1.00, 0.00, -0.00, -1.00, 256.4, 468.0)">i</text><text xml:space="preserve" font-family="HelveticaNeue-Light" font-size="36.0" fill="#747373" transform="matrix(1.00, 0.00, -0.00, -1.00, 263.0, 468.0)">m</text><text xml:space="preserve" font-family="HelveticaNeue-Light" font-size="36.0" fill="#747373" transform="matrix(1.00, 0.00, -0.00, -1.00, 293.0, 468.0)">a</text><text xml:space="preserve" font-family="HelveticaNeue-Light" font-size="36.0" fill="#747373" transform="matrix(1.00, 0.00, -0.00, -1.00, 311.7, 468.0)">r</text><text xml:space="preserve" font-family="HelveticaNeue-Light" font-size="36.0" fill="#747373" transform="matrix(1.00, 0.00, -0.00, -1.00, 323.0, 468.0)">y</text><text xml:space="preserve" font-family="HelveticaNeue-Light" font-size="36.0" fill="#747373" transform="matrix(1.00, 0.00, -0.00, -1.00, 336.4, 468.0)">,</text><text xml:space="preserve" font-family="HelveticaNeue-Light" font-size="36.0" fill="#747373" transform="matrix(1.00, 0.00, -0.00, -1.00, 346.4, 468.0)"> </text><text xml:space="preserve" font-family="HelveticaNeue-Light" font-size="36.0" fill="#747373" transform="matrix(1.00, 0.00, -0.00, -1.00, 356.4, 468.0)">1</text><text xml:space="preserve" font-family="HelveticaNeue-Light" font-size="36.0" fill="#747373" transform="matrix(1.00, 0.00, -0.00, -1.00, 376.4, 468.0)"> </text><text xml:space="preserve" font-family="HelveticaNeue-Light" font-size="36.0" fill="#747373" transform="matrix(1.00, 0.00, -0.00, -1.00, 386.4, 468.0)">w</text><text xml:space="preserve" font-family="HelveticaNeue-Light" font-size="36.0" fill="#747373" transform="matrix(1.00, 0.00, -0.00, -1.00, 413.1, 468.0)">i</text><text xml:space="preserve" font-family="HelveticaNeue-Light" font-size="36.0" fill="#747373" transform="matrix(1.00, 0.00, -0.00, -1.00, 419.8, 468.0)">t</text><text xml:space="preserve" font-family="HelveticaNeue-Light" font-size="36.0" fill="#747373" transform="matrix(1.00, 0.00, -0.00, -1.00, 430.4, 468.0)">h</text><text xml:space="preserve" font-family="HelveticaNeue-Light" font-size="36.0" fill="#747373" transform="matrix(1.00, 0.00, -0.00, -1.00, 449.8, 468.0)"> </text><text xml:space="preserve" font-family="HelveticaNeue-Light" font-size="36.0" fill="#747373" transform="matrix(1.00, 0.00, -0.00, -1.00, 459.8, 468.0)">s</text><text xml:space="preserve" font-family="HelveticaNeue-Light" font-size="36.0" fill="#747373" transform="matrix(1.00, 0.00, -0.00, -1.00, 477.1, 468.0)">e</text><text xml:space="preserve" font-family="HelveticaNeue-Light" font-size="36.0" fill="#747373" transform="matrix(1.00, 0.00, -0.00, -1.00, 495.8, 468.0)">c</text><text xml:space="preserve" font-family="HelveticaNeue-Light" font-size="36.0" fill="#747373" transform="matrix(1.00, 0.00, -0.00, -1.00, 514.4, 468.0)">o</text><text xml:space="preserve" font-family="HelveticaNeue-Light" font-size="36.0" fill="#747373" transform="matrix(1.00, 0.00, -0.00, -1.00, 534.5, 468.0)">n</text><text xml:space="preserve" font-family="HelveticaNeue-Light" font-size="36.0" fill="#747373" transform="matrix(1.00, 0.00, -0.00, -1.00, 553.8, 468.0)">d</text><text xml:space="preserve" font-family="HelveticaNeue-Light" font-size="36.0" fill="#747373" transform="matrix(1.00, 0.00, -0.00, -1.00, 574.5, 468.0)">a</text><text xml:space="preserve" font-family="HelveticaNeue-Light" font-size="36.0" fill="#747373" transform="matrix(1.00, 0.00, -0.00, -1.00, 593.1, 468.0)">r</text><text xml:space="preserve" font-family="HelveticaNeue-Light" font-size="36.0" fill="#747373" transform="matrix(1.00, 0.00, -0.00, -1.00, 604.5, 468.0)">y</text><text xml:space="preserve" font-family="HelveticaNeue-Light" font-size="36.0" fill="#747373" transform="matrix(1.00, 0.00, -0.00, -1.00, 621.1, 468.0)"> </text><text xml:space="preserve" font-family="HelveticaNeue-Light" font-size="36.0" fill="#747373" transform="matrix(1.00, 0.00, -0.00, -1.00, 631.2, 468.0)">g</text><text xml:space="preserve" font-family="HelveticaNeue-Light" font-size="36.0" fill="#747373" transform="matrix(1.00, 0.00, -0.00, -1.00, 651.2, 468.0)">r</text><text xml:space="preserve" font-family="HelveticaNeue-Light" font-size="36.0" fill="#747373" transform="matrix(1.00, 0.00, -0.00, -1.00, 662.5, 468.0)">a</text><text xml:space="preserve" font-family="HelveticaNeue-Light" font-size="36.0" fill="#747373" transform="matrix(1.00, 0.00, -0.00, -1.00, 681.2, 468.0)">f</text><text xml:space="preserve" font-family="HelveticaNeue-Light" font-size="36.0" fill="#747373" transform="matrix(1.00, 0.00, -0.00, -1.00, 690.5, 468.0)">t</text><text xml:space="preserve" font-family="HelveticaNeue-Light" font-size="36.0" fill="#747373" transform="matrix(1.00, 0.00, -0.00, -1.00, 701.2, 468.0)"> </text><text xml:space="preserve" font-family="HelveticaNeue-Light" font-size="36.0" fill="#747373" transform="matrix(1.00, 0.00, -0.00, -1.00, 711.2, 468.0)">f</text><text xml:space="preserve" font-family="HelveticaNeue-Light" font-size="36.0" fill="#747373" transform="matrix(1.00, 0.00, -0.00, -1.00, 720.5, 468.0)">a</text><text xml:space="preserve" font-family="HelveticaNeue-Light" font-size="36.0" fill="#747373" transform="matrix(1.00, 0.00, -0.00, -1.00, 739.2, 468.0)">i</text><text xml:space="preserve" font-family="HelveticaNeue-Light" font-size="36.0" fill="#747373" transform="matrix(1.00, 0.00, -0.00, -1.00, 745.9, 468.0)">l</text><text xml:space="preserve" font-family="HelveticaNeue-Light" font-size="36.0" fill="#747373" transform="matrix(1.00, 0.00, -0.00, -1.00, 752.5, 468.0)">u</text><text xml:space="preserve" font-family="HelveticaNeue-Light" font-size="36.0" fill="#747373" transform="matrix(1.00, 0.00, -0.00, -1.00, 771.8, 468.0)">r</text><text xml:space="preserve" font-family="HelveticaNeue-Light" font-size="36.0" fill="#747373" transform="matrix(1.00, 0.00, -0.00, -1.00, 782.5, 468.0)">e</text><text xml:space="preserve" font-family="HelveticaNeue-Light" font-size="36.0" fill="#747373" transform="matrix(1.00, 0.00, -0.00, -1.00, 801.2, 468.0)"> </text><text xml:space="preserve" font-family="HelveticaNeue" font-size="27.0" fill="#747373" transform="matrix(1.00, 0.00, -0.00, -1.00, 49.0, 385.2)">•</text><text xml:space="preserve" font-family="HelveticaNeue-Light" font-size="36.0" fill="#747373" transform="matrix(1.00, 0.00, -0.00, -1.00, 85.0, 382.0)">5</text><text xml:space="preserve" font-family="HelveticaNeue-Light" font-size="36.0" fill="#747373" transform="matrix(1.00, 0.00, -0.00, -1.00, 105.0, 382.0)">/</text><text xml:space="preserve" font-family="HelveticaNeue-Light" font-size="36.0" fill="#747373" transform="matrix(1.00, 0.00, -0.00, -1.00, 117.0, 382.0)">1</text><text xml:space="preserve" font-family="HelveticaNeue-Light" font-size="36.0" fill="#747373" transform="matrix(1.00, 0.00, -0.00, -1.00, 137.0, 382.0)">3</text><text xml:space="preserve" font-family="HelveticaNeue-Light" font-size="36.0" fill="#747373" transform="matrix(1.00, 0.00, -0.00, -1.00, 157.0, 382.0)"> </text><text xml:space="preserve" font-family="HelveticaNeue-Light" font-size="36.0" fill="#747373" transform="matrix(1.00, 0.00, -0.00, -1.00, 167.0, 382.0)">s</text><text xml:space="preserve" font-family="HelveticaNeue-Light" font-size="36.0" fill="#747373" transform="matrix(1.00, 0.00, -0.00, -1.00, 184.4, 382.0)">u</text><text xml:space="preserve" font-family="HelveticaNeue-Light" font-size="36.0" fill="#747373" transform="matrix(1.00, 0.00, -0.00, -1.00, 203.7, 382.0)">r</text><text xml:space="preserve" font-family="HelveticaNeue-Light" font-size="36.0" fill="#747373" transform="matrix(1.00, 0.00, -0.00, -1.00, 215.0, 382.0)">v</text><text xml:space="preserve" font-family="HelveticaNeue-Light" font-size="36.0" fill="#747373" transform="matrix(1.00, 0.00, -0.00, -1.00, 231.7, 382.0)">i</text><text xml:space="preserve" font-family="HelveticaNeue-Light" font-size="36.0" fill="#747373" transform="matrix(1.00, 0.00, -0.00, -1.00, 238.4, 382.0)">v</text><text xml:space="preserve" font-family="HelveticaNeue-Light" font-size="36.0" fill="#747373" transform="matrix(1.00, 0.00, -0.00, -1.00, 255.0, 382.0)">i</text><text xml:space="preserve" font-family="HelveticaNeue-Light" font-size="36.0" fill="#747373" transform="matrix(1.00, 0.00, -0.00, -1.00, 261.7, 382.0)">n</text><text xml:space="preserve" font-family="HelveticaNeue-Light" font-size="36.0" fill="#747373" transform="matrix(1.00, 0.00, -0.00, -1.00, 281.0, 382.0)">g</text><text xml:space="preserve" font-family="HelveticaNeue-Light" font-size="36.0" fill="#747373" transform="matrix(1.00, 0.00, -0.00, -1.00, 301.0, 382.0)"> </text><text xml:space="preserve" font-family="HelveticaNeue-Light" font-size="36.0" fill="#747373" transform="matrix(1.00, 0.00, -0.00, -1.00, 311.0, 382.0)">p</text><text xml:space="preserve" font-family="HelveticaNeue-Light" font-size="36.0" fill="#747373" transform="matrix(1.00, 0.00, -0.00, -1.00, 331.7, 382.0)">a</text><text xml:space="preserve" font-family="HelveticaNeue-Light" font-size="36.0" fill="#747373" transform="matrix(1.00, 0.00, -0.00, -1.00, 350.4, 382.0)">t</text><text xml:space="preserve" font-family="HelveticaNeue-Light" font-size="36.0" fill="#747373" transform="matrix(1.00, 0.00, -0.00, -1.00, 361.0, 382.0)">i</text><text xml:space="preserve" font-family="HelveticaNeue-Light" font-size="36.0" fill="#747373" transform="matrix(1.00, 0.00, -0.00, -1.00, 367.7, 382.0)">e</text><text xml:space="preserve" font-family="HelveticaNeue-Light" font-size="36.0" fill="#747373" transform="matrix(1.00, 0.00, -0.00, -1.00, 386.4, 382.0)">n</text><text xml:space="preserve" font-family="HelveticaNeue-Light" font-size="36.0" fill="#747373" transform="matrix(1.00, 0.00, -0.00, -1.00, 405.7, 382.0)">t</text><text xml:space="preserve" font-family="HelveticaNeue-Light" font-size="36.0" fill="#747373" transform="matrix(1.00, 0.00, -0.00, -1.00, 416.4, 382.0)">s</text><text xml:space="preserve" font-family="HelveticaNeue-Light" font-size="36.0" fill="#747373" transform="matrix(1.00, 0.00, -0.00, -1.00, 433.7, 382.0)"> </text><text xml:space="preserve" font-family="HelveticaNeue-Light" font-size="36.0" fill="#747373" transform="matrix(1.00, 0.00, -0.00, -1.00, 443.7, 382.0)">w</text><text xml:space="preserve" font-family="HelveticaNeue-Light" font-size="36.0" fill="#747373" transform="matrix(1.00, 0.00, -0.00, -1.00, 470.4, 382.0)">i</text><text xml:space="preserve" font-family="HelveticaNeue-Light" font-size="36.0" fill="#747373" transform="matrix(1.00, 0.00, -0.00, -1.00, 477.0, 382.0)">t</text><text xml:space="preserve" font-family="HelveticaNeue-Light" font-size="36.0" fill="#747373" transform="matrix(1.00, 0.00, -0.00, -1.00, 487.7, 382.0)">h</text><text xml:space="preserve" font-family="HelveticaNeue-Light" font-size="36.0" fill="#747373" transform="matrix(1.00, 0.00, -0.00, -1.00, 507.0, 382.0)"> </text><text xml:space="preserve" font-family="HelveticaNeue-Light" font-size="36.0" fill="#747373" transform="matrix(1.00, 0.00, -0.00, -1.00, 517.0, 382.0)">o</text><text xml:space="preserve" font-family="HelveticaNeue-Light" font-size="36.0" fill="#747373" transform="matrix(1.00, 0.00, -0.00, -1.00, 537.1, 382.0)">n</text><text xml:space="preserve" font-family="HelveticaNeue-Light" font-size="36.0" fill="#747373" transform="matrix(1.00, 0.00, -0.00, -1.00, 556.4, 382.0)">g</text><text xml:space="preserve" font-family="HelveticaNeue-Light" font-size="36.0" fill="#747373" transform="matrix(1.00, 0.00, -0.00, -1.00, 576.4, 382.0)">o</text><text xml:space="preserve" font-family="HelveticaNeue-Light" font-size="36.0" fill="#747373" transform="matrix(1.00, 0.00, -0.00, -1.00, 596.4, 382.0)">i</text><text xml:space="preserve" font-family="HelveticaNeue-Light" font-size="36.0" fill="#747373" transform="matrix(1.00, 0.00, -0.00, -1.00, 603.1, 382.0)">n</text><text xml:space="preserve" font-family="HelveticaNeue-Light" font-size="36.0" fill="#747373" transform="matrix(1.00, 0.00, -0.00, -1.00, 622.4, 382.0)">g</text><text xml:space="preserve" font-family="HelveticaNeue-Light" font-size="36.0" fill="#747373" transform="matrix(1.00, 0.00, -0.00, -1.00, 642.4, 382.0)"> </text><text xml:space="preserve" font-family="HelveticaNeue-Light" font-size="36.0" fill="#747373" transform="matrix(1.00, 0.00, -0.00, -1.00, 652.4, 382.0)">C</text><text xml:space="preserve" font-family="HelveticaNeue-Light" font-size="36.0" fill="#747373" transform="matrix(1.00, 0.00, -0.00, -1.00, 677.8, 382.0)">R</text><text xml:space="preserve" font-family="HelveticaNeue-Light" font-size="36.0" fill="#747373" transform="matrix(1.00, 0.00, -0.00, -1.00, 701.8, 382.0)"> </text><text xml:space="preserve" font-family="HelveticaNeue" font-size="27.0" fill="#747373" transform="matrix(1.00, 0.00, -0.00, -1.00, 85.0, 299.2)">•</text><text xml:space="preserve" font-family="HelveticaNeue-Light" font-size="36.0" fill="#747373" transform="matrix(1.00, 0.00, -0.00, -1.00, 121.0, 296.0)">4</text><text xml:space="preserve" font-family="HelveticaNeue-Light" font-size="36.0" fill="#747373" transform="matrix(1.00, 0.00, -0.00, -1.00, 141.0, 296.0)">/</text><text xml:space="preserve" font-family="HelveticaNeue-Light" font-size="36.0" fill="#747373" transform="matrix(1.00, 0.00, -0.00, -1.00, 153.0, 296.0)">5</text><text xml:space="preserve" font-family="HelveticaNeue-Light" font-size="36.0" fill="#747373" transform="matrix(1.00, 0.00, -0.00, -1.00, 173.0, 296.0)"> </text><text xml:space="preserve" font-family="HelveticaNeue-Light" font-size="36.0" fill="#747373" transform="matrix(1.00, 0.00, -0.00, -1.00, 183.0, 296.0)">h</text><text xml:space="preserve" font-family="HelveticaNeue-Light" font-size="36.0" fill="#747373" transform="matrix(1.00, 0.00, -0.00, -1.00, 202.4, 296.0)">a</text><text xml:space="preserve" font-family="HelveticaNeue-Light" font-size="36.0" fill="#747373" transform="matrix(1.00, 0.00, -0.00, -1.00, 221.0, 296.0)">d</text><text xml:space="preserve" font-family="HelveticaNeue-Light" font-size="36.0" fill="#747373" transform="matrix(1.00, 0.00, -0.00, -1.00, 241.7, 296.0)"> </text><text xml:space="preserve" font-family="HelveticaNeue-Light" font-size="36.0" fill="#747373" transform="matrix(1.00, 0.00, -0.00, -1.00, 251.7, 296.0)">r</text><text xml:space="preserve" font-family="HelveticaNeue-Light" font-size="36.0" fill="#747373" transform="matrix(1.00, 0.00, -0.00, -1.00, 262.4, 296.0)">e</text><text xml:space="preserve" font-family="HelveticaNeue-Light" font-size="36.0" fill="#747373" transform="matrix(1.00, 0.00, -0.00, -1.00, 281.1, 296.0)">s</text><text xml:space="preserve" font-family="HelveticaNeue-Light" font-size="36.0" fill="#747373" transform="matrix(1.00, 0.00, -0.00, -1.00, 298.4, 296.0)">i</text><text xml:space="preserve" font-family="HelveticaNeue-Light" font-size="36.0" fill="#747373" transform="matrix(1.00, 0.00, -0.00, -1.00, 305.1, 296.0)">d</text><text xml:space="preserve" font-family="HelveticaNeue-Light" font-size="36.0" fill="#747373" transform="matrix(1.00, 0.00, -0.00, -1.00, 325.7, 296.0)">u</text><text xml:space="preserve" font-family="HelveticaNeue-Light" font-size="36.0" fill="#747373" transform="matrix(1.00, 0.00, -0.00, -1.00, 345.1, 296.0)">a</text><text xml:space="preserve" font-family="HelveticaNeue-Light" font-size="36.0" fill="#747373" transform="matrix(1.00, 0.00, -0.00, -1.00, 363.7, 296.0)">l</text><text xml:space="preserve" font-family="HelveticaNeue-Light" font-size="36.0" fill="#747373" transform="matrix(1.00, 0.00, -0.00, -1.00, 370.4, 296.0)"> </text><text xml:space="preserve" font-family="HelveticaNeue-Light" font-size="36.0" fill="#747373" transform="matrix(1.00, 0.00, -0.00, -1.00, 380.4, 296.0)">d</text><text xml:space="preserve" font-family="HelveticaNeue-Light" font-size="36.0" fill="#747373" transform="matrix(1.00, 0.00, -0.00, -1.00, 401.1, 296.0)">i</text><text xml:space="preserve" font-family="HelveticaNeue-Light" font-size="36.0" fill="#747373" transform="matrix(1.00, 0.00, -0.00, -1.00, 407.7, 296.0)">s</text><text xml:space="preserve" font-family="HelveticaNeue-Light" font-size="36.0" fill="#747373" transform="matrix(1.00, 0.00, -0.00, -1.00, 425.1, 296.0)">e</text><text xml:space="preserve" font-family="HelveticaNeue-Light" font-size="36.0" fill="#747373" transform="matrix(1.00, 0.00, -0.00, -1.00, 443.7, 296.0)">a</text><text xml:space="preserve" font-family="HelveticaNeue-Light" font-size="36.0" fill="#747373" transform="matrix(1.00, 0.00, -0.00, -1.00, 462.4, 296.0)">s</text><text xml:space="preserve" font-family="HelveticaNeue-Light" font-size="36.0" fill="#747373" transform="matrix(1.00, 0.00, -0.00, -1.00, 479.7, 296.0)">e</text><text xml:space="preserve" font-family="HelveticaNeue-Light" font-size="36.0" fill="#747373" transform="matrix(1.00, 0.00, -0.00, -1.00, 498.4, 296.0)"> </text><text xml:space="preserve" font-family="HelveticaNeue-Light" font-size="36.0" fill="#747373" transform="matrix(1.00, 0.00, -0.00, -1.00, 508.4, 296.0)">p</text><text xml:space="preserve" font-family="HelveticaNeue-Light" font-size="36.0" fill="#747373" transform="matrix(1.00, 0.00, -0.00, -1.00, 529.1, 296.0)">r</text><text xml:space="preserve" font-family="HelveticaNeue-Light" font-size="36.0" fill="#747373" transform="matrix(1.00, 0.00, -0.00, -1.00, 540.4, 296.0)">i</text><text xml:space="preserve" font-family="HelveticaNeue-Light" font-size="36.0" fill="#747373" transform="matrix(1.00, 0.00, -0.00, -1.00, 547.1, 296.0)">o</text><text xml:space="preserve" font-family="HelveticaNeue-Light" font-size="36.0" fill="#747373" transform="matrix(1.00, 0.00, -0.00, -1.00, 567.1, 296.0)">r</text><text xml:space="preserve" font-family="HelveticaNeue-Light" font-size="36.0" fill="#747373" transform="matrix(1.00, 0.00, -0.00, -1.00, 578.5, 296.0)"> </text><text xml:space="preserve" font-family="HelveticaNeue-Light" font-size="36.0" fill="#747373" transform="matrix(1.00, 0.00, -0.00, -1.00, 588.5, 296.0)">t</text><text xml:space="preserve" font-family="HelveticaNeue-Light" font-size="36.0" fill="#747373" transform="matrix(1.00, 0.00, -0.00, -1.00, 599.1, 296.0)">o</text><text xml:space="preserve" font-family="HelveticaNeue-Light" font-size="36.0" fill="#747373" transform="matrix(1.00, 0.00, -0.00, -1.00, 619.1, 296.0)"> </text><text xml:space="preserve" font-family="HelveticaNeue-Light" font-size="36.0" fill="#747373" transform="matrix(1.00, 0.00, -0.00, -1.00, 629.1, 296.0)">t</text><text xml:space="preserve" font-family="HelveticaNeue-Light" font-size="36.0" fill="#747373" transform="matrix(1.00, 0.00, -0.00, -1.00, 639.8, 296.0)">r</text><text xml:space="preserve" font-family="HelveticaNeue-Light" font-size="36.0" fill="#747373" transform="matrix(1.00, 0.00, -0.00, -1.00, 651.1, 296.0)">a</text><text xml:space="preserve" font-family="HelveticaNeue-Light" font-size="36.0" fill="#747373" transform="matrix(1.00, 0.00, -0.00, -1.00, 669.8, 296.0)">n</text><text xml:space="preserve" font-family="HelveticaNeue-Light" font-size="36.0" fill="#747373" transform="matrix(1.00, 0.00, -0.00, -1.00, 689.2, 296.0)">s</text><text xml:space="preserve" font-family="HelveticaNeue-Light" font-size="36.0" fill="#747373" transform="matrix(1.00, 0.00, -0.00, -1.00, 706.5, 296.0)">p</text><text xml:space="preserve" font-family="HelveticaNeue-Light" font-size="36.0" fill="#747373" transform="matrix(1.00, 0.00, -0.00, -1.00, 727.1, 296.0)">l</text><text xml:space="preserve" font-family="HelveticaNeue-Light" font-size="36.0" fill="#747373" transform="matrix(1.00, 0.00, -0.00, -1.00, 733.8, 296.0)">a</text><text xml:space="preserve" font-family="HelveticaNeue-Light" font-size="36.0" fill="#747373" transform="matrix(1.00, 0.00, -0.00, -1.00, 752.5, 296.0)">n</text><text xml:space="preserve" font-family="HelveticaNeue-Light" font-size="36.0" fill="#747373" transform="matrix(1.00, 0.00, -0.00, -1.00, 771.8, 296.0)">t</text><text xml:space="preserve" font-family="HelveticaNeue-Light" font-size="36.0" fill="#747373" transform="matrix(1.00, 0.00, -0.00, -1.00, 782.5, 296.0)"> </text><text xml:space="preserve" font-family="HelveticaNeue" font-size="27.0" fill="#747373" transform="matrix(1.00, 0.00, -0.00, -1.00, 85.0, 213.2)">•</text><text xml:space="preserve" font-family="HelveticaNeue-Light" font-size="36.0" fill="#747373" transform="matrix(1.00, 0.00, -0.00, -1.00, 121.0, 210.0)">2</text><text xml:space="preserve" font-family="HelveticaNeue-Light" font-size="36.0" fill="#747373" transform="matrix(1.00, 0.00, -0.00, -1.00, 141.0, 210.0)"> </text><text xml:space="preserve" font-family="HelveticaNeue-Light" font-size="36.0" fill="#747373" transform="matrix(1.00, 0.00, -0.00, -1.00, 151.0, 210.0)">p</text><text xml:space="preserve" font-family="HelveticaNeue-Light" font-size="36.0" fill="#747373" transform="matrix(1.00, 0.00, -0.00, -1.00, 171.7, 210.0)">a</text><text xml:space="preserve" font-family="HelveticaNeue-Light" font-size="36.0" fill="#747373" transform="matrix(1.00, 0.00, -0.00, -1.00, 190.4, 210.0)">t</text><text xml:space="preserve" font-family="HelveticaNeue-Light" font-size="36.0" fill="#747373" transform="matrix(1.00, 0.00, -0.00, -1.00, 201.0, 210.0)">i</text><text xml:space="preserve" font-family="HelveticaNeue-Light" font-size="36.0" fill="#747373" transform="matrix(1.00, 0.00, -0.00, -1.00, 207.7, 210.0)">e</text><text xml:space="preserve" font-family="HelveticaNeue-Light" font-size="36.0" fill="#747373" transform="matrix(1.00, 0.00, -0.00, -1.00, 226.4, 210.0)">n</text><text xml:space="preserve" font-family="HelveticaNeue-Light" font-size="36.0" fill="#747373" transform="matrix(1.00, 0.00, -0.00, -1.00, 245.7, 210.0)">t</text><text xml:space="preserve" font-family="HelveticaNeue-Light" font-size="36.0" fill="#747373" transform="matrix(1.00, 0.00, -0.00, -1.00, 256.4, 210.0)">s</text><text xml:space="preserve" font-family="HelveticaNeue-Light" font-size="36.0" fill="#747373" transform="matrix(1.00, 0.00, -0.00, -1.00, 273.7, 210.0)"> </text><text xml:space="preserve" font-family="HelveticaNeue-Light" font-size="36.0" fill="#747373" transform="matrix(1.00, 0.00, -0.00, -1.00, 283.7, 210.0)">w</text><text xml:space="preserve" font-family="HelveticaNeue-Light" font-size="36.0" fill="#747373" transform="matrix(1.00, 0.00, -0.00, -1.00, 310.4, 210.0)">i</text><text xml:space="preserve" font-family="HelveticaNeue-Light" font-size="36.0" fill="#747373" transform="matrix(1.00, 0.00, -0.00, -1.00, 317.0, 210.0)">t</text><text xml:space="preserve" font-family="HelveticaNeue-Light" font-size="36.0" fill="#747373" transform="matrix(1.00, 0.00, -0.00, -1.00, 327.7, 210.0)">h</text><text xml:space="preserve" font-family="HelveticaNeue-Light" font-size="36.0" fill="#747373" transform="matrix(1.00, 0.00, -0.00, -1.00, 347.0, 210.0)"> </text><text xml:space="preserve" font-family="HelveticaNeue-Light" font-size="36.0" fill="#747373" transform="matrix(1.00, 0.00, -0.00, -1.00, 357.0, 210.0)">M</text><text xml:space="preserve" font-family="HelveticaNeue-Light" font-size="36.0" fill="#747373" transform="matrix(1.00, 0.00, -0.00, -1.00, 386.6, 210.0)">D</text><text xml:space="preserve" font-family="HelveticaNeue-Light" font-size="36.0" fill="#747373" transform="matrix(1.00, 0.00, -0.00, -1.00, 411.2, 210.0)">S</text><text xml:space="preserve" font-family="HelveticaNeue-Light" font-size="36.0" fill="#747373" transform="matrix(1.00, 0.00, -0.00, -1.00, 433.9, 210.0)"> </text><text xml:space="preserve" font-family="HelveticaNeue-Light" font-size="36.0" fill="#747373" transform="matrix(1.00, 0.00, -0.00, -1.00, 443.9, 210.0)">a</text><text xml:space="preserve" font-family="HelveticaNeue-Light" font-size="36.0" fill="#747373" transform="matrix(1.00, 0.00, -0.00, -1.00, 462.6, 210.0)">c</text><text xml:space="preserve" font-family="HelveticaNeue-Light" font-size="36.0" fill="#747373" transform="matrix(1.00, 0.00, -0.00, -1.00, 481.3, 210.0)">h</text><text xml:space="preserve" font-family="HelveticaNeue-Light" font-size="36.0" fill="#747373" transform="matrix(1.00, 0.00, -0.00, -1.00, 500.6, 210.0)">i</text><text xml:space="preserve" font-family="HelveticaNeue-Light" font-size="36.0" fill="#747373" transform="matrix(1.00, 0.00, -0.00, -1.00, 507.3, 210.0)">e</text><text xml:space="preserve" font-family="HelveticaNeue-Light" font-size="36.0" fill="#747373" transform="matrix(1.00, 0.00, -0.00, -1.00, 526.0, 210.0)">v</text><text xml:space="preserve" font-family="HelveticaNeue-Light" font-size="36.0" fill="#747373" transform="matrix(1.00, 0.00, -0.00, -1.00, 542.6, 210.0)">e</text><text xml:space="preserve" font-family="HelveticaNeue-Light" font-size="36.0" fill="#747373" transform="matrix(1.00, 0.00, -0.00, -1.00, 561.3, 210.0)">d</text><text xml:space="preserve" font-family="HelveticaNeue-Light" font-size="36.0" fill="#747373" transform="matrix(1.00, 0.00, -0.00, -1.00, 582.0, 210.0)"> </text><text xml:space="preserve" font-family="HelveticaNeue-Light" font-size="36.0" fill="#747373" transform="matrix(1.00, 0.00, -0.00, -1.00, 592.0, 210.0)">C</text><text xml:space="preserve" font-family="HelveticaNeue-Light" font-size="36.0" fill="#747373" transform="matrix(1.00, 0.00, -0.00, -1.00, 617.3, 210.0)">R</text><text xml:space="preserve" font-family="HelveticaNeue-Light" font-size="36.0" fill="#747373" transform="matrix(1.00, 0.00, -0.00, -1.00, 641.3, 210.0)"> </text><text xml:space="preserve" font-family="HelveticaNeue-Light" font-size="36.0" fill="#747373" transform="matrix(1.00, 0.00, -0.00, -1.00, 651.4, 210.0)">d</text><text xml:space="preserve" font-family="HelveticaNeue-Light" font-size="36.0" fill="#747373" transform="matrix(1.00, 0.00, -0.00, -1.00, 672.0, 210.0)">e</text><text xml:space="preserve" font-family="HelveticaNeue-Light" font-size="36.0" fill="#747373" transform="matrix(1.00, 0.00, -0.00, -1.00, 690.7, 210.0)">s</text><text xml:space="preserve" font-family="HelveticaNeue-Light" font-size="36.0" fill="#747373" transform="matrix(1.00, 0.00, -0.00, -1.00, 708.0, 210.0)">p</text><text xml:space="preserve" font-family="HelveticaNeue-Light" font-size="36.0" fill="#747373" transform="matrix(1.00, 0.00, -0.00, -1.00, 728.7, 210.0)">i</text><text xml:space="preserve" font-family="HelveticaNeue-Light" font-size="36.0" fill="#747373" transform="matrix(1.00, 0.00, -0.00, -1.00, 735.3, 210.0)">t</text><text xml:space="preserve" font-family="HelveticaNeue-Light" font-size="36.0" fill="#747373" transform="matrix(1.00, 0.00, -0.00, -1.00, 746.0, 210.0)">e</text><text xml:space="preserve" font-family="HelveticaNeue-Light" font-size="36.0" fill="#747373" transform="matrix(1.00, 0.00, -0.00, -1.00, 764.7, 210.0)"> </text><text xml:space="preserve" font-family="HelveticaNeue-Light" font-size="36.0" fill="#747373" transform="matrix(1.00, 0.00, -0.00, -1.00, 774.7, 210.0)">g</text><text xml:space="preserve" font-family="HelveticaNeue-Light" font-size="36.0" fill="#747373" transform="matrix(1.00, 0.00, -0.00, -1.00, 794.7, 210.0)">r</text><text xml:space="preserve" font-family="HelveticaNeue-Light" font-size="36.0" fill="#747373" transform="matrix(1.00, 0.00, -0.00, -1.00, 806.0, 210.0)">a</text><text xml:space="preserve" font-family="HelveticaNeue-Light" font-size="36.0" fill="#747373" transform="matrix(1.00, 0.00, -0.00, -1.00, 824.7, 210.0)">f</text><text xml:space="preserve" font-family="HelveticaNeue-Light" font-size="36.0" fill="#747373" transform="matrix(1.00, 0.00, -0.00, -1.00, 834.1, 210.0)">t</text><text xml:space="preserve" font-family="HelveticaNeue-Light" font-size="36.0" fill="#747373" transform="matrix(1.00, 0.00, -0.00, -1.00, 844.7, 210.0)"> </text><text xml:space="preserve" font-family="HelveticaNeue-Light" font-size="36.0" fill="#747373" transform="matrix(1.00, 0.00, -0.00, -1.00, 854.7, 210.0)">f</text><text xml:space="preserve" font-family="HelveticaNeue-Light" font-size="36.0" fill="#747373" transform="matrix(1.00, 0.00, -0.00, -1.00, 864.0, 210.0)">a</text><text xml:space="preserve" font-family="HelveticaNeue-Light" font-size="36.0" fill="#747373" transform="matrix(1.00, 0.00, -0.00, -1.00, 882.7, 210.0)">i</text><text xml:space="preserve" font-family="HelveticaNeue-Light" font-size="36.0" fill="#747373" transform="matrix(1.00, 0.00, -0.00, -1.00, 889.4, 210.0)">l</text><text xml:space="preserve" font-family="HelveticaNeue-Light" font-size="36.0" fill="#747373" transform="matrix(1.00, 0.00, -0.00, -1.00, 896.0, 210.0)">u</text><text xml:space="preserve" font-family="HelveticaNeue-Light" font-size="36.0" fill="#747373" transform="matrix(1.00, 0.00, -0.00, -1.00, 915.4, 210.0)">r</text><text xml:space="preserve" font-family="HelveticaNeue-Light" font-size="36.0" fill="#747373" transform="matrix(1.00, 0.00, -0.00, -1.00, 926.1, 210.0)">e</text><text xml:space="preserve" font-family="HelveticaNeue-Light" font-size="36.0" fill="#747373" transform="matrix(1.00, 0.00, -0.00, -1.00, 944.8, 210.0)"> </text><text xml:space="preserve" font-family="HelveticaNeue" font-size="27.0" fill="#747373" transform="matrix(1.00, 0.00, -0.00, -1.00, 49.0, 127.2)">•</text><text xml:space="preserve" font-family="HelveticaNeue-Light" font-size="36.0" fill="#747373" transform="matrix(1.00, 0.00, -0.00, -1.00, 85.0, 124.0)">1</text><text xml:space="preserve" font-family="HelveticaNeue-Light" font-size="36.0" fill="#747373" transform="matrix(1.00, 0.00, -0.00, -1.00, 105.0, 124.0)">/</text><text xml:space="preserve" font-family="HelveticaNeue-Light" font-size="36.0" fill="#747373" transform="matrix(1.00, 0.00, -0.00, -1.00, 117.0, 124.0)">1</text><text xml:space="preserve" font-family="HelveticaNeue-Light" font-size="36.0" fill="#747373" transform="matrix(1.00, 0.00, -0.00, -1.00, 137.0, 124.0)">3</text><text xml:space="preserve" font-family="HelveticaNeue-Light" font-size="36.0" fill="#747373" transform="matrix(1.00, 0.00, -0.00, -1.00, 157.0, 124.0)"> </text><text xml:space="preserve" font-family="HelveticaNeue-Light" font-size="36.0" fill="#747373" transform="matrix(1.00, 0.00, -0.00, -1.00, 167.0, 124.0)">p</text><text xml:space="preserve" font-family="HelveticaNeue-Light" font-size="36.0" fill="#747373" transform="matrix(1.00, 0.00, -0.00, -1.00, 187.7, 124.0)">a</text><text xml:space="preserve" font-family="HelveticaNeue-Light" font-size="36.0" fill="#747373" transform="matrix(1.00, 0.00, -0.00, -1.00, 206.4, 124.0)">t</text><text xml:space="preserve" font-family="HelveticaNeue-Light" font-size="36.0" fill="#747373" transform="matrix(1.00, 0.00, -0.00, -1.00, 217.0, 124.0)">i</text><text xml:space="preserve" font-family="HelveticaNeue-Light" font-size="36.0" fill="#747373" transform="matrix(1.00, 0.00, -0.00, -1.00, 223.7, 124.0)">e</text><text xml:space="preserve" font-family="HelveticaNeue-Light" font-size="36.0" fill="#747373" transform="matrix(1.00, 0.00, -0.00, -1.00, 242.4, 124.0)">n</text><text xml:space="preserve" font-family="HelveticaNeue-Light" font-size="36.0" fill="#747373" transform="matrix(1.00, 0.00, -0.00, -1.00, 261.7, 124.0)">t</text><text xml:space="preserve" font-family="HelveticaNeue-Light" font-size="36.0" fill="#747373" transform="matrix(1.00, 0.00, -0.00, -1.00, 272.4, 124.0)">s</text><text xml:space="preserve" font-family="HelveticaNeue-Light" font-size="36.0" fill="#747373" transform="matrix(1.00, 0.00, -0.00, -1.00, 289.7, 124.0)"> </text><text xml:space="preserve" font-family="HelveticaNeue-Light" font-size="36.0" fill="#747373" transform="matrix(1.00, 0.00, -0.00, -1.00, 299.7, 124.0)">h</text><text xml:space="preserve" font-family="HelveticaNeue-Light" font-size="36.0" fill="#747373" transform="matrix(1.00, 0.00, -0.00, -1.00, 319.0, 124.0)">a</text><text xml:space="preserve" font-family="HelveticaNeue-Light" font-size="36.0" fill="#747373" transform="matrix(1.00, 0.00, -0.00, -1.00, 337.7, 124.0)">d</text><text xml:space="preserve" font-family="HelveticaNeue-Light" font-size="36.0" fill="#747373" transform="matrix(1.00, 0.00, -0.00, -1.00, 358.4, 124.0)"> </text><text xml:space="preserve" font-family="HelveticaNeue-Light" font-size="36.0" fill="#747373" transform="matrix(1.00, 0.00, -0.00, -1.00, 368.4, 124.0)">C</text><text xml:space="preserve" font-family="HelveticaNeue-Light" font-size="36.0" fill="#747373" transform="matrix(1.00, 0.00, -0.00, -1.00, 393.7, 124.0)">N</text><text xml:space="preserve" font-family="HelveticaNeue-Light" font-size="36.0" fill="#747373" transform="matrix(1.00, 0.00, -0.00, -1.00, 419.1, 124.0)">S</text><text xml:space="preserve" font-family="HelveticaNeue-Light" font-size="36.0" fill="#747373" transform="matrix(1.00, 0.00, -0.00, -1.00, 441.8, 124.0)"> </text><text xml:space="preserve" font-family="HelveticaNeue-Light" font-size="36.0" fill="#747373" transform="matrix(1.00, 0.00, -0.00, -1.00, 451.8, 124.0)">r</text><text xml:space="preserve" font-family="HelveticaNeue-Light" font-size="36.0" fill="#747373" transform="matrix(1.00, 0.00, -0.00, -1.00, 462.5, 124.0)">e</text><text xml:space="preserve" font-family="HelveticaNeue-Light" font-size="36.0" fill="#747373" transform="matrix(1.00, 0.00, -0.00, -1.00, 481.1, 124.0)">l</text><text xml:space="preserve" font-family="HelveticaNeue-Light" font-size="36.0" fill="#747373" transform="matrix(1.00, 0.00, -0.00, -1.00, 487.8, 124.0)">a</text><text xml:space="preserve" font-family="HelveticaNeue-Light" font-size="36.0" fill="#747373" transform="matrix(1.00, 0.00, -0.00, -1.00, 506.5, 124.0)">p</text><text xml:space="preserve" font-family="HelveticaNeue-Light" font-size="36.0" fill="#747373" transform="matrix(1.00, 0.00, -0.00, -1.00, 527.2, 124.0)">s</text><text xml:space="preserve" font-family="HelveticaNeue-Light" font-size="36.0" fill="#747373" transform="matrix(1.00, 0.00, -0.00, -1.00, 544.5, 124.0)">e</text><text xml:space="preserve" font-family="HelveticaNeue-Light" font-size="36.0" fill="#747373" transform="matrix(1.00, 0.00, -0.00, -1.00, 563.2, 124.0)"> </text><text xml:space="preserve" font-family="HelveticaNeue-Light" font-size="36.0" fill="#747373" transform="matrix(1.00, 0.00, -0.00, -1.00, 573.2, 124.0)">o</text><text xml:space="preserve" font-family="HelveticaNeue-Light" font-size="36.0" fill="#747373" transform="matrix(1.00, 0.00, -0.00, -1.00, 593.2, 124.0)">f</text><text xml:space="preserve" font-family="HelveticaNeue-Light" font-size="36.0" fill="#747373" transform="matrix(1.00, 0.00, -0.00, -1.00, 602.5, 124.0)"> </text><text xml:space="preserve" font-family="HelveticaNeue-Light" font-size="36.0" fill="#747373" transform="matrix(1.00, 0.00, -0.00, -1.00, 612.5, 124.0)">t</text><text xml:space="preserve" font-family="HelveticaNeue-Light" font-size="36.0" fill="#747373" transform="matrix(1.00, 0.00, -0.00, -1.00, 623.2, 124.0)">h</text><text xml:space="preserve" font-family="HelveticaNeue-Light" font-size="36.0" fill="#747373" transform="matrix(1.00, 0.00, -0.00, -1.00, 642.5, 124.0)">e</text><text xml:space="preserve" font-family="HelveticaNeue-Light" font-size="36.0" fill="#747373" transform="matrix(1.00, 0.00, -0.00, -1.00, 661.2, 124.0)">i</text><text xml:space="preserve" font-family="HelveticaNeue-Light" font-size="36.0" fill="#747373" transform="matrix(1.00, 0.00, -0.00, -1.00, 667.8, 124.0)">r</text><text xml:space="preserve" font-family="HelveticaNeue-Light" font-size="36.0" fill="#747373" transform="matrix(1.00, 0.00, -0.00, -1.00, 679.2, 124.0)"> </text><text xml:space="preserve" font-family="HelveticaNeue-Light" font-size="36.0" fill="#747373" transform="matrix(1.00, 0.00, -0.00, -1.00, 689.2, 124.0)">A</text><text xml:space="preserve" font-family="HelveticaNeue-Light" font-size="36.0" fill="#747373" transform="matrix(1.00, 0.00, -0.00, -1.00, 711.9, 124.0)">M</text><text xml:space="preserve" font-family="HelveticaNeue-Light" font-size="36.0" fill="#747373" transform="matrix(1.00, 0.00, -0.00, -1.00, 741.4, 124.0)">L</text><g><clipPath id="clip-634"><path d="M 5.0 36.0 L 476.0 36.0 L 476.0 2.0 L 5.0 2.0 Z M 4.5 35.8 "></path></clipPath><g clip-path="url(#clip-634)"><g><clipPath id="clip-635"><path d="M 5.0 -425.0 L 1029.0 -425.0 L 1029.0 36.0 L 5.0 36.0 Z M 5.0 -425.0 "></path></clipPath><g clip-path="url(#clip-635)"><image xlink:href="../../F02C7FE5-7F36-4514-BB5D-D97307E17BEC/assets/89254EFDAE83B2B42F520AE5FE88786F.png" width="2372.00" height="1068.00" transform="matrix(0.43, 0.00, -0.00, -0.43, 5.0, 36.0)"></image></g></g></g></g><g><clipPath id="clip-636"><path d="M 548.0 34.0 L 1019.0 34.0 L 1019.0 2.0 L 548.0 2.0 Z M 548.2 33.7 "></path></clipPath><g clip-path="url(#clip-636)"><g><clipPath id="clip-637"><path d="M 443.0 -70.0 L 1467.0 -70.0 L 1467.0 391.0 L 443.0 391.0 Z M 443.0 -70.0 "></path></clipPath><g clip-path="url(#clip-637)"><image xlink:href="../../F02C7FE5-7F36-4514-BB5D-D97307E17BEC/assets/89254EFDAE83B2B42F520AE5FE88786F.png" width="2372.00" height="1068.00" transform="matrix(0.43, 0.00, -0.00, -0.43, 443.0, 391.0)"></image></g></g></g></g></g></svg>