<?xml version="1.0" encoding="UTF-8" standalone="no"?><svg xmlns="http://www.w3.org/2000/svg" xmlns:xlink="http://www.w3.org/1999/xlink" clip-rule="evenodd" stroke-miterlimit="10" viewBox="0 0 1024 768"><desc>SVG generated by Keynote</desc><defs></defs><g transform="matrix(1.00, 0.00, -0.00, -1.00, 0.0, 768.0)"><g><clipPath id="clip0x6080014bd7c0"><path d="M 0.0 768.0 L 1024.0 768.0 L 1024.0 0.0 L 0.0 0.0 Z M 0.0 768.0 "></path></clipPath><g clip-path="url(#clip0x6080014bd7c0)"><image xlink:href="../../BE4D2DDB-FBE4-467E-AE38-B34F9028D09E/assets/9397CAD6F20342ACC2646ABBCA758461.jpeg" width="2048.00" height="1536.00" transform="matrix(0.50, 0.00, -0.00, -0.50, 0.0, 768.0)"></image></g></g><g><clipPath id="clip0x6080014bd8e0"><path d="M 97.0 741.0 L 927.0 741.0 L 927.0 119.0 L 97.0 119.0 Z M 97.5 741.1 "></path></clipPath><g clip-path="url(#clip0x6080014bd8e0)"><image xlink:href="B1400DFB99BBCB29B0E76BBD91CE3F9D.png" width="1050.00" height="799.00" transform="matrix(0.78, 0.00, -0.00, -0.78, 103.5, 741.2)"></image></g></g><image xlink:href="1F0AC656A35EE6AA37A3487F6DD64202.png" width="1004.00" height="31.00" transform="matrix(1.00, 0.00, -0.00, -1.00, 10.0, 87.0)"></image><text xml:space="preserve" font-family="HelveticaNeue-Medium,Helvetica Neue" font-size="24.0" fill="#EAEAEA" transform="matrix(1.00, 0.00, -0.00, -1.00, 12.9, 67.0)">R</text><text xml:space="preserve" font-family="HelveticaNeue-Medium,Helvetica Neue" font-size="24.0" fill="#EAEAEA" transform="matrix(1.00, 0.00, -0.00, -1.00, 29.8, 67.0)">a</text><text xml:space="preserve" font-family="HelveticaNeue-Medium,Helvetica Neue" font-size="24.0" fill="#EAEAEA" transform="matrix(1.00, 0.00, -0.00, -1.00, 43.1, 67.0)">m</text><text xml:space="preserve" font-family="HelveticaNeue-Medium,Helvetica Neue" font-size="24.0" fill="#EAEAEA" transform="matrix(1.00, 0.00, -0.00, -1.00, 64.0, 67.0)"> </text><text xml:space="preserve" font-family="HelveticaNeue-Medium,Helvetica Neue" font-size="24.0" fill="#EAEAEA" transform="matrix(1.00, 0.00, -0.00, -1.00, 70.7, 67.0)">R</text><text xml:space="preserve" font-family="HelveticaNeue-Medium,Helvetica Neue" font-size="24.0" fill="#EAEAEA" transform="matrix(1.00, 0.00, -0.00, -1.00, 87.6, 67.0)">,</text><text xml:space="preserve" font-family="HelveticaNeue-Medium,Helvetica Neue" font-size="24.0" fill="#EAEAEA" transform="matrix(1.00, 0.00, -0.00, -1.00, 94.2, 67.0)"> </text><text xml:space="preserve" font-family="HelveticaNeue-Medium,Helvetica Neue" font-size="24.0" fill="#EAEAEA" transform="matrix(1.00, 0.00, -0.00, -1.00, 100.9, 67.0)">S</text><text xml:space="preserve" font-family="HelveticaNeue-Medium,Helvetica Neue" font-size="24.0" fill="#EAEAEA" transform="matrix(1.00, 0.00, -0.00, -1.00, 116.5, 67.0)">t</text><text xml:space="preserve" font-family="HelveticaNeue-Medium,Helvetica Neue" font-size="24.0" fill="#EAEAEA" transform="matrix(1.00, 0.00, -0.00, -1.00, 124.4, 67.0)">o</text><text xml:space="preserve" font-family="HelveticaNeue-Medium,Helvetica Neue" font-size="24.0" fill="#EAEAEA" transform="matrix(1.00, 0.00, -0.00, -1.00, 138.7, 67.0)">r</text><text xml:space="preserve" font-family="HelveticaNeue-Medium,Helvetica Neue" font-size="24.0" fill="#EAEAEA" transform="matrix(1.00, 0.00, -0.00, -1.00, 147.1, 67.0)">b</text><text xml:space="preserve" font-family="HelveticaNeue-Medium,Helvetica Neue" font-size="24.0" fill="#EAEAEA" transform="matrix(1.00, 0.00, -0.00, -1.00, 161.8, 67.0)"> </text><text xml:space="preserve" font-family="HelveticaNeue-Medium,Helvetica Neue" font-size="24.0" fill="#EAEAEA" transform="matrix(1.00, 0.00, -0.00, -1.00, 168.5, 67.0)">R</text><text xml:space="preserve" font-family="HelveticaNeue-Medium,Helvetica Neue" font-size="24.0" fill="#EAEAEA" transform="matrix(1.00, 0.00, -0.00, -1.00, 185.4, 67.0)">.</text><text xml:space="preserve" font-family="HelveticaNeue-Medium,Helvetica Neue" font-size="24.0" fill="#EAEAEA" transform="matrix(1.00, 0.00, -0.00, -1.00, 192.0, 67.0)"> </text><text xml:space="preserve" font-family="HelveticaNeue-Medium,Helvetica Neue" font-size="24.0" fill="#EAEAEA" transform="matrix(1.00, 0.00, -0.00, -1.00, 198.7, 67.0)">P</text><text xml:space="preserve" font-family="HelveticaNeue-Medium,Helvetica Neue" font-size="24.0" fill="#EAEAEA" transform="matrix(1.00, 0.00, -0.00, -1.00, 214.7, 67.0)">h</text><text xml:space="preserve" font-family="HelveticaNeue-Medium,Helvetica Neue" font-size="24.0" fill="#EAEAEA" transform="matrix(1.00, 0.00, -0.00, -1.00, 228.5, 67.0)">a</text><text xml:space="preserve" font-family="HelveticaNeue-Medium,Helvetica Neue" font-size="24.0" fill="#EAEAEA" transform="matrix(1.00, 0.00, -0.00, -1.00, 241.8, 67.0)">r</text><text xml:space="preserve" font-family="HelveticaNeue-Medium,Helvetica Neue" font-size="24.0" fill="#EAEAEA" transform="matrix(1.00, 0.00, -0.00, -1.00, 250.3, 67.0)">m</text><text xml:space="preserve" font-family="HelveticaNeue-Medium,Helvetica Neue" font-size="24.0" fill="#EAEAEA" transform="matrix(1.00, 0.00, -0.00, -1.00, 271.2, 67.0)">a</text><text xml:space="preserve" font-family="HelveticaNeue-Medium,Helvetica Neue" font-size="24.0" fill="#EAEAEA" transform="matrix(1.00, 0.00, -0.00, -1.00, 284.5, 67.0)">c</text><text xml:space="preserve" font-family="HelveticaNeue-Medium,Helvetica Neue" font-size="24.0" fill="#EAEAEA" transform="matrix(1.00, 0.00, -0.00, -1.00, 297.8, 67.0)">o</text><text xml:space="preserve" font-family="HelveticaNeue-Medium,Helvetica Neue" font-size="24.0" fill="#EAEAEA" transform="matrix(1.00, 0.00, -0.00, -1.00, 312.1, 67.0)">l</text><text xml:space="preserve" font-family="HelveticaNeue-Medium,Helvetica Neue" font-size="24.0" fill="#EAEAEA" transform="matrix(1.00, 0.00, -0.00, -1.00, 317.9, 67.0)">o</text><text xml:space="preserve" font-family="HelveticaNeue-Medium,Helvetica Neue" font-size="24.0" fill="#EAEAEA" transform="matrix(1.00, 0.00, -0.00, -1.00, 332.1, 67.0)">g</text><text xml:space="preserve" font-family="HelveticaNeue-Medium,Helvetica Neue" font-size="24.0" fill="#EAEAEA" transform="matrix(1.00, 0.00, -0.00, -1.00, 346.3, 67.0)">i</text><text xml:space="preserve" font-family="HelveticaNeue-Medium,Helvetica Neue" font-size="24.0" fill="#EAEAEA" transform="matrix(1.00, 0.00, -0.00, -1.00, 352.1, 67.0)">c</text><text xml:space="preserve" font-family="HelveticaNeue-Medium,Helvetica Neue" font-size="24.0" fill="#EAEAEA" transform="matrix(1.00, 0.00, -0.00, -1.00, 365.5, 67.0)"> </text><text xml:space="preserve" font-family="HelveticaNeue-Medium,Helvetica Neue" font-size="24.0" fill="#EAEAEA" transform="matrix(1.00, 0.00, -0.00, -1.00, 372.1, 67.0)">p</text><text xml:space="preserve" font-family="HelveticaNeue-Medium,Helvetica Neue" font-size="24.0" fill="#EAEAEA" transform="matrix(1.00, 0.00, -0.00, -1.00, 386.8, 67.0)">r</text><text xml:space="preserve" font-family="HelveticaNeue-Medium,Helvetica Neue" font-size="24.0" fill="#EAEAEA" transform="matrix(1.00, 0.00, -0.00, -1.00, 394.8, 67.0)">o</text><text xml:space="preserve" font-family="HelveticaNeue-Medium,Helvetica Neue" font-size="24.0" fill="#EAEAEA" transform="matrix(1.00, 0.00, -0.00, -1.00, 409.0, 67.0)">p</text><text xml:space="preserve" font-family="HelveticaNeue-Medium,Helvetica Neue" font-size="24.0" fill="#EAEAEA" transform="matrix(1.00, 0.00, -0.00, -1.00, 423.7, 67.0)">h</text><text xml:space="preserve" font-family="HelveticaNeue-Medium,Helvetica Neue" font-size="24.0" fill="#EAEAEA" transform="matrix(1.00, 0.00, -0.00, -1.00, 437.5, 67.0)">y</text><text xml:space="preserve" font-family="HelveticaNeue-Medium,Helvetica Neue" font-size="24.0" fill="#EAEAEA" transform="matrix(1.00, 0.00, -0.00, -1.00, 449.9, 67.0)">l</text><text xml:space="preserve" font-family="HelveticaNeue-Medium,Helvetica Neue" font-size="24.0" fill="#EAEAEA" transform="matrix(1.00, 0.00, -0.00, -1.00, 455.7, 67.0)">a</text><text xml:space="preserve" font-family="HelveticaNeue-Medium,Helvetica Neue" font-size="24.0" fill="#EAEAEA" transform="matrix(1.00, 0.00, -0.00, -1.00, 469.1, 67.0)">x</text><text xml:space="preserve" font-family="HelveticaNeue-Medium,Helvetica Neue" font-size="24.0" fill="#EAEAEA" transform="matrix(1.00, 0.00, -0.00, -1.00, 482.0, 67.0)">i</text><text xml:space="preserve" font-family="HelveticaNeue-Medium,Helvetica Neue" font-size="24.0" fill="#EAEAEA" transform="matrix(1.00, 0.00, -0.00, -1.00, 487.7, 67.0)">s</text><text xml:space="preserve" font-family="HelveticaNeue-Medium,Helvetica Neue" font-size="24.0" fill="#EAEAEA" transform="matrix(1.00, 0.00, -0.00, -1.00, 500.2, 67.0)"> </text><text xml:space="preserve" font-family="HelveticaNeue-Medium,Helvetica Neue" font-size="24.0" fill="#EAEAEA" transform="matrix(1.00, 0.00, -0.00, -1.00, 506.9, 67.0)">r</text><text xml:space="preserve" font-family="HelveticaNeue-Medium,Helvetica Neue" font-size="24.0" fill="#EAEAEA" transform="matrix(1.00, 0.00, -0.00, -1.00, 514.9, 67.0)">e</text><text xml:space="preserve" font-family="HelveticaNeue-Medium,Helvetica Neue" font-size="24.0" fill="#EAEAEA" transform="matrix(1.00, 0.00, -0.00, -1.00, 528.2, 67.0)">g</text><text xml:space="preserve" font-family="HelveticaNeue-Medium,Helvetica Neue" font-size="24.0" fill="#EAEAEA" transform="matrix(1.00, 0.00, -0.00, -1.00, 542.5, 67.0)">i</text><text xml:space="preserve" font-family="HelveticaNeue-Medium,Helvetica Neue" font-size="24.0" fill="#EAEAEA" transform="matrix(1.00, 0.00, -0.00, -1.00, 548.2, 67.0)">m</text><text xml:space="preserve" font-family="HelveticaNeue-Medium,Helvetica Neue" font-size="24.0" fill="#EAEAEA" transform="matrix(1.00, 0.00, -0.00, -1.00, 569.1, 67.0)">e</text><text xml:space="preserve" font-family="HelveticaNeue-Medium,Helvetica Neue" font-size="24.0" fill="#EAEAEA" transform="matrix(1.00, 0.00, -0.00, -1.00, 582.5, 67.0)">n</text><text xml:space="preserve" font-family="HelveticaNeue-Medium,Helvetica Neue" font-size="24.0" fill="#EAEAEA" transform="matrix(1.00, 0.00, -0.00, -1.00, 596.2, 67.0)">s</text><text xml:space="preserve" font-family="HelveticaNeue-Medium,Helvetica Neue" font-size="24.0" fill="#EAEAEA" transform="matrix(1.00, 0.00, -0.00, -1.00, 608.7, 67.0)"> </text><text xml:space="preserve" font-family="HelveticaNeue-Medium,Helvetica Neue" font-size="24.0" fill="#EAEAEA" transform="matrix(1.00, 0.00, -0.00, -1.00, 615.4, 67.0)">f</text><text xml:space="preserve" font-family="HelveticaNeue-Medium,Helvetica Neue" font-size="24.0" fill="#EAEAEA" transform="matrix(1.00, 0.00, -0.00, -1.00, 622.9, 67.0)">o</text><text xml:space="preserve" font-family="HelveticaNeue-Medium,Helvetica Neue" font-size="24.0" fill="#EAEAEA" transform="matrix(1.00, 0.00, -0.00, -1.00, 637.2, 67.0)">r</text><text xml:space="preserve" font-family="HelveticaNeue-Medium,Helvetica Neue" font-size="24.0" fill="#EAEAEA" transform="matrix(1.00, 0.00, -0.00, -1.00, 645.6, 67.0)"> </text><text xml:space="preserve" font-family="HelveticaNeue-Medium,Helvetica Neue" font-size="24.0" fill="#EAEAEA" transform="matrix(1.00, 0.00, -0.00, -1.00, 652.3, 67.0)">a</text><text xml:space="preserve" font-family="HelveticaNeue-Medium,Helvetica Neue" font-size="24.0" fill="#EAEAEA" transform="matrix(1.00, 0.00, -0.00, -1.00, 665.6, 67.0)">c</text><text xml:space="preserve" font-family="HelveticaNeue-Medium,Helvetica Neue" font-size="24.0" fill="#EAEAEA" transform="matrix(1.00, 0.00, -0.00, -1.00, 679.0, 67.0)">u</text><text xml:space="preserve" font-family="HelveticaNeue-Medium,Helvetica Neue" font-size="24.0" fill="#EAEAEA" transform="matrix(1.00, 0.00, -0.00, -1.00, 692.7, 67.0)">t</text><text xml:space="preserve" font-family="HelveticaNeue-Medium,Helvetica Neue" font-size="24.0" fill="#EAEAEA" transform="matrix(1.00, 0.00, -0.00, -1.00, 700.7, 67.0)">e</text><text xml:space="preserve" font-family="HelveticaNeue-Medium,Helvetica Neue" font-size="24.0" fill="#EAEAEA" transform="matrix(1.00, 0.00, -0.00, -1.00, 714.1, 67.0)"> </text><text xml:space="preserve" font-family="HelveticaNeue-Medium,Helvetica Neue" font-size="24.0" fill="#EAEAEA" transform="matrix(1.00, 0.00, -0.00, -1.00, 720.8, 67.0)">g</text><text xml:space="preserve" font-family="HelveticaNeue-Medium,Helvetica Neue" font-size="24.0" fill="#EAEAEA" transform="matrix(1.00, 0.00, -0.00, -1.00, 735.0, 67.0)">r</text><text xml:space="preserve" font-family="HelveticaNeue-Medium,Helvetica Neue" font-size="24.0" fill="#EAEAEA" transform="matrix(1.00, 0.00, -0.00, -1.00, 743.4, 67.0)">a</text><text xml:space="preserve" font-family="HelveticaNeue-Medium,Helvetica Neue" font-size="24.0" fill="#EAEAEA" transform="matrix(1.00, 0.00, -0.00, -1.00, 756.8, 67.0)">f</text><text xml:space="preserve" font-family="HelveticaNeue-Medium,Helvetica Neue" font-size="24.0" fill="#EAEAEA" transform="matrix(1.00, 0.00, -0.00, -1.00, 764.3, 67.0)">t</text><text xml:space="preserve" font-family="HelveticaNeue-Medium,Helvetica Neue" font-size="24.0" fill="#EAEAEA" transform="matrix(1.00, 0.00, -0.00, -1.00, 772.3, 67.0)">-</text><text xml:space="preserve" font-family="HelveticaNeue-Medium,Helvetica Neue" font-size="24.0" fill="#EAEAEA" transform="matrix(1.00, 0.00, -0.00, -1.00, 781.7, 67.0)">v</text><text xml:space="preserve" font-family="HelveticaNeue-Medium,Helvetica Neue" font-size="24.0" fill="#EAEAEA" transform="matrix(1.00, 0.00, -0.00, -1.00, 794.1, 67.0)">e</text><text xml:space="preserve" font-family="HelveticaNeue-Medium,Helvetica Neue" font-size="24.0" fill="#EAEAEA" transform="matrix(1.00, 0.00, -0.00, -1.00, 807.5, 67.0)">r</text><text xml:space="preserve" font-family="HelveticaNeue-Medium,Helvetica Neue" font-size="24.0" fill="#EAEAEA" transform="matrix(1.00, 0.00, -0.00, -1.00, 815.9, 67.0)">s</text><text xml:space="preserve" font-family="HelveticaNeue-Medium,Helvetica Neue" font-size="24.0" fill="#EAEAEA" transform="matrix(1.00, 0.00, -0.00, -1.00, 828.4, 67.0)">u</text><text xml:space="preserve" font-family="HelveticaNeue-Medium,Helvetica Neue" font-size="24.0" fill="#EAEAEA" transform="matrix(1.00, 0.00, -0.00, -1.00, 842.1, 67.0)">s</text><text xml:space="preserve" font-family="HelveticaNeue-Medium,Helvetica Neue" font-size="24.0" fill="#EAEAEA" transform="matrix(1.00, 0.00, -0.00, -1.00, 854.6, 67.0)">-</text><text xml:space="preserve" font-family="HelveticaNeue-Medium,Helvetica Neue" font-size="24.0" fill="#EAEAEA" transform="matrix(1.00, 0.00, -0.00, -1.00, 863.9, 67.0)">h</text><text xml:space="preserve" font-family="HelveticaNeue-Medium,Helvetica Neue" font-size="24.0" fill="#EAEAEA" transform="matrix(1.00, 0.00, -0.00, -1.00, 877.7, 67.0)">o</text><text xml:space="preserve" font-family="HelveticaNeue-Medium,Helvetica Neue" font-size="24.0" fill="#EAEAEA" transform="matrix(1.00, 0.00, -0.00, -1.00, 891.9, 67.0)">s</text><text xml:space="preserve" font-family="HelveticaNeue-Medium,Helvetica Neue" font-size="24.0" fill="#EAEAEA" transform="matrix(1.00, 0.00, -0.00, -1.00, 904.4, 67.0)">t</text><text xml:space="preserve" font-family="HelveticaNeue-Medium,Helvetica Neue" font-size="24.0" fill="#EAEAEA" transform="matrix(1.00, 0.00, -0.00, -1.00, 912.4, 67.0)"> </text><text xml:space="preserve" font-family="HelveticaNeue-Medium,Helvetica Neue" font-size="24.0" fill="#EAEAEA" transform="matrix(1.00, 0.00, -0.00, -1.00, 919.1, 67.0)">d</text><text xml:space="preserve" font-family="HelveticaNeue-Medium,Helvetica Neue" font-size="24.0" fill="#EAEAEA" transform="matrix(1.00, 0.00, -0.00, -1.00, 933.7, 67.0)">i</text><text xml:space="preserve" font-family="HelveticaNeue-Medium,Helvetica Neue" font-size="24.0" fill="#EAEAEA" transform="matrix(1.00, 0.00, -0.00, -1.00, 939.5, 67.0)">s</text><text xml:space="preserve" font-family="HelveticaNeue-Medium,Helvetica Neue" font-size="24.0" fill="#EAEAEA" transform="matrix(1.00, 0.00, -0.00, -1.00, 952.0, 67.0)">e</text><text xml:space="preserve" font-family="HelveticaNeue-Medium,Helvetica Neue" font-size="24.0" fill="#EAEAEA" transform="matrix(1.00, 0.00, -0.00, -1.00, 965.3, 67.0)">a</text><text xml:space="preserve" font-family="HelveticaNeue-Medium,Helvetica Neue" font-size="24.0" fill="#EAEAEA" transform="matrix(1.00, 0.00, -0.00, -1.00, 978.7, 67.0)">s</text><text xml:space="preserve" font-family="HelveticaNeue-Medium,Helvetica Neue" font-size="24.0" fill="#EAEAEA" transform="matrix(1.00, 0.00, -0.00, -1.00, 991.1, 67.0)">e</text><text xml:space="preserve" font-family="HelveticaNeue-Medium,Helvetica Neue" font-size="24.0" fill="#EAEAEA" transform="matrix(1.00, 0.00, -0.00, -1.00, 1004.5, 67.0)">:</text><text xml:space="preserve" font-family="HelveticaNeue-Medium,Helvetica Neue" font-size="24.0" fill="#EAEAEA" transform="matrix(1.00, 0.00, -0.00, -1.00, 1011.1, 67.0)"> </text><image xlink:href="A8832D5D99634BE2DB33963D857411C3.png" width="764.00" height="31.00" transform="matrix(1.00, 0.00, -0.00, -1.00, 130.0, 58.0)"></image><text xml:space="preserve" font-family="HelveticaNeue-Medium,Helvetica Neue" font-size="24.0" fill="#EAEAEA" transform="matrix(1.00, 0.00, -0.00, -1.00, 132.9, 38.0)">p</text><text xml:space="preserve" font-family="HelveticaNeue-Medium,Helvetica Neue" font-size="24.0" fill="#EAEAEA" transform="matrix(1.00, 0.00, -0.00, -1.00, 147.6, 38.0)">a</text><text xml:space="preserve" font-family="HelveticaNeue-Medium,Helvetica Neue" font-size="24.0" fill="#EAEAEA" transform="matrix(1.00, 0.00, -0.00, -1.00, 161.0, 38.0)">s</text><text xml:space="preserve" font-family="HelveticaNeue-Medium,Helvetica Neue" font-size="24.0" fill="#EAEAEA" transform="matrix(1.00, 0.00, -0.00, -1.00, 173.4, 38.0)">t</text><text xml:space="preserve" font-family="HelveticaNeue-Medium,Helvetica Neue" font-size="24.0" fill="#EAEAEA" transform="matrix(1.00, 0.00, -0.00, -1.00, 181.4, 38.0)">,</text><text xml:space="preserve" font-family="HelveticaNeue-Medium,Helvetica Neue" font-size="24.0" fill="#EAEAEA" transform="matrix(1.00, 0.00, -0.00, -1.00, 188.1, 38.0)"> </text><text xml:space="preserve" font-family="HelveticaNeue-Medium,Helvetica Neue" font-size="24.0" fill="#EAEAEA" transform="matrix(1.00, 0.00, -0.00, -1.00, 194.7, 38.0)">p</text><text xml:space="preserve" font-family="HelveticaNeue-Medium,Helvetica Neue" font-size="24.0" fill="#EAEAEA" transform="matrix(1.00, 0.00, -0.00, -1.00, 209.4, 38.0)">r</text><text xml:space="preserve" font-family="HelveticaNeue-Medium,Helvetica Neue" font-size="24.0" fill="#EAEAEA" transform="matrix(1.00, 0.00, -0.00, -1.00, 217.4, 38.0)">e</text><text xml:space="preserve" font-family="HelveticaNeue-Medium,Helvetica Neue" font-size="24.0" fill="#EAEAEA" transform="matrix(1.00, 0.00, -0.00, -1.00, 230.8, 38.0)">s</text><text xml:space="preserve" font-family="HelveticaNeue-Medium,Helvetica Neue" font-size="24.0" fill="#EAEAEA" transform="matrix(1.00, 0.00, -0.00, -1.00, 243.2, 38.0)">e</text><text xml:space="preserve" font-family="HelveticaNeue-Medium,Helvetica Neue" font-size="24.0" fill="#EAEAEA" transform="matrix(1.00, 0.00, -0.00, -1.00, 256.6, 38.0)">n</text><text xml:space="preserve" font-family="HelveticaNeue-Medium,Helvetica Neue" font-size="24.0" fill="#EAEAEA" transform="matrix(1.00, 0.00, -0.00, -1.00, 270.3, 38.0)">t</text><text xml:space="preserve" font-family="HelveticaNeue-Medium,Helvetica Neue" font-size="24.0" fill="#EAEAEA" transform="matrix(1.00, 0.00, -0.00, -1.00, 278.3, 38.0)"> </text><text xml:space="preserve" font-family="HelveticaNeue-Medium,Helvetica Neue" font-size="24.0" fill="#EAEAEA" transform="matrix(1.00, 0.00, -0.00, -1.00, 285.0, 38.0)">a</text><text xml:space="preserve" font-family="HelveticaNeue-Medium,Helvetica Neue" font-size="24.0" fill="#EAEAEA" transform="matrix(1.00, 0.00, -0.00, -1.00, 298.4, 38.0)">n</text><text xml:space="preserve" font-family="HelveticaNeue-Medium,Helvetica Neue" font-size="24.0" fill="#EAEAEA" transform="matrix(1.00, 0.00, -0.00, -1.00, 312.1, 38.0)">d</text><text xml:space="preserve" font-family="HelveticaNeue-Medium,Helvetica Neue" font-size="24.0" fill="#EAEAEA" transform="matrix(1.00, 0.00, -0.00, -1.00, 326.8, 38.0)"> </text><text xml:space="preserve" font-family="HelveticaNeue-Medium,Helvetica Neue" font-size="24.0" fill="#EAEAEA" transform="matrix(1.00, 0.00, -0.00, -1.00, 333.5, 38.0)">f</text><text xml:space="preserve" font-family="HelveticaNeue-Medium,Helvetica Neue" font-size="24.0" fill="#EAEAEA" transform="matrix(1.00, 0.00, -0.00, -1.00, 341.0, 38.0)">u</text><text xml:space="preserve" font-family="HelveticaNeue-Medium,Helvetica Neue" font-size="24.0" fill="#EAEAEA" transform="matrix(1.00, 0.00, -0.00, -1.00, 354.8, 38.0)">t</text><text xml:space="preserve" font-family="HelveticaNeue-Medium,Helvetica Neue" font-size="24.0" fill="#EAEAEA" transform="matrix(1.00, 0.00, -0.00, -1.00, 362.8, 38.0)">u</text><text xml:space="preserve" font-family="HelveticaNeue-Medium,Helvetica Neue" font-size="24.0" fill="#EAEAEA" transform="matrix(1.00, 0.00, -0.00, -1.00, 376.6, 38.0)">r</text><text xml:space="preserve" font-family="HelveticaNeue-Medium,Helvetica Neue" font-size="24.0" fill="#EAEAEA" transform="matrix(1.00, 0.00, -0.00, -1.00, 384.6, 38.0)">e</text><text xml:space="preserve" font-family="HelveticaNeue-Medium,Helvetica Neue" font-size="24.0" fill="#EAEAEA" transform="matrix(1.00, 0.00, -0.00, -1.00, 397.9, 38.0)">.</text><text xml:space="preserve" font-family="HelveticaNeue-Medium,Helvetica Neue" font-size="24.0" fill="#EAEAEA" transform="matrix(1.00, 0.00, -0.00, -1.00, 404.6, 38.0)"> </text><text xml:space="preserve" font-family="HelveticaNeue-Medium,Helvetica Neue" font-size="24.0" fill="#EAEAEA" transform="matrix(1.00, 0.00, -0.00, -1.00, 411.3, 38.0)">L</text><text xml:space="preserve" font-family="HelveticaNeue-Medium,Helvetica Neue" font-size="24.0" fill="#EAEAEA" transform="matrix(1.00, 0.00, -0.00, -1.00, 425.0, 38.0)">e</text><text xml:space="preserve" font-family="HelveticaNeue-Medium,Helvetica Neue" font-size="24.0" fill="#EAEAEA" transform="matrix(1.00, 0.00, -0.00, -1.00, 438.4, 38.0)">u</text><text xml:space="preserve" font-family="HelveticaNeue-Medium,Helvetica Neue" font-size="24.0" fill="#EAEAEA" transform="matrix(1.00, 0.00, -0.00, -1.00, 452.2, 38.0)">k</text><text xml:space="preserve" font-family="HelveticaNeue-Medium,Helvetica Neue" font-size="24.0" fill="#EAEAEA" transform="matrix(1.00, 0.00, -0.00, -1.00, 465.1, 38.0)"> </text><text xml:space="preserve" font-family="HelveticaNeue-Medium,Helvetica Neue" font-size="24.0" fill="#EAEAEA" transform="matrix(1.00, 0.00, -0.00, -1.00, 471.7, 38.0)">L</text><text xml:space="preserve" font-family="HelveticaNeue-Medium,Helvetica Neue" font-size="24.0" fill="#EAEAEA" transform="matrix(1.00, 0.00, -0.00, -1.00, 484.6, 38.0)">y</text><text xml:space="preserve" font-family="HelveticaNeue-Medium,Helvetica Neue" font-size="24.0" fill="#EAEAEA" transform="matrix(1.00, 0.00, -0.00, -1.00, 497.1, 38.0)">m</text><text xml:space="preserve" font-family="HelveticaNeue-Medium,Helvetica Neue" font-size="24.0" fill="#EAEAEA" transform="matrix(1.00, 0.00, -0.00, -1.00, 518.0, 38.0)">p</text><text xml:space="preserve" font-family="HelveticaNeue-Medium,Helvetica Neue" font-size="24.0" fill="#EAEAEA" transform="matrix(1.00, 0.00, -0.00, -1.00, 532.6, 38.0)">h</text><text xml:space="preserve" font-family="HelveticaNeue-Medium,Helvetica Neue" font-size="24.0" fill="#EAEAEA" transform="matrix(1.00, 0.00, -0.00, -1.00, 546.4, 38.0)">o</text><text xml:space="preserve" font-family="HelveticaNeue-Medium,Helvetica Neue" font-size="24.0" fill="#EAEAEA" transform="matrix(1.00, 0.00, -0.00, -1.00, 560.6, 38.0)">m</text><text xml:space="preserve" font-family="HelveticaNeue-Medium,Helvetica Neue" font-size="24.0" fill="#EAEAEA" transform="matrix(1.00, 0.00, -0.00, -1.00, 581.5, 38.0)">a</text><text xml:space="preserve" font-family="HelveticaNeue-Medium,Helvetica Neue" font-size="24.0" fill="#EAEAEA" transform="matrix(1.00, 0.00, -0.00, -1.00, 594.8, 38.0)">.</text><text xml:space="preserve" font-family="HelveticaNeue-Medium,Helvetica Neue" font-size="24.0" fill="#EAEAEA" transform="matrix(1.00, 0.00, -0.00, -1.00, 601.5, 38.0)"> </text><text xml:space="preserve" font-family="HelveticaNeue-Medium,Helvetica Neue" font-size="24.0" fill="#EAEAEA" transform="matrix(1.00, 0.00, -0.00, -1.00, 608.2, 38.0)">2</text><text xml:space="preserve" font-family="HelveticaNeue-Medium,Helvetica Neue" font-size="24.0" fill="#EAEAEA" transform="matrix(1.00, 0.00, -0.00, -1.00, 621.5, 38.0)">0</text><text xml:space="preserve" font-family="HelveticaNeue-Medium,Helvetica Neue" font-size="24.0" fill="#EAEAEA" transform="matrix(1.00, 0.00, -0.00, -1.00, 634.9, 38.0)">1</text><text xml:space="preserve" font-family="HelveticaNeue-Medium,Helvetica Neue" font-size="24.0" fill="#EAEAEA" transform="matrix(1.00, 0.00, -0.00, -1.00, 648.2, 38.0)">3</text><text xml:space="preserve" font-family="HelveticaNeue-Medium,Helvetica Neue" font-size="24.0" fill="#EAEAEA" transform="matrix(1.00, 0.00, -0.00, -1.00, 661.6, 38.0)"> </text><text xml:space="preserve" font-family="HelveticaNeue-Medium,Helvetica Neue" font-size="24.0" fill="#EAEAEA" transform="matrix(1.00, 0.00, -0.00, -1.00, 668.2, 38.0)">A</text><text xml:space="preserve" font-family="HelveticaNeue-Medium,Helvetica Neue" font-size="24.0" fill="#EAEAEA" transform="matrix(1.00, 0.00, -0.00, -1.00, 684.2, 38.0)">u</text><text xml:space="preserve" font-family="HelveticaNeue-Medium,Helvetica Neue" font-size="24.0" fill="#EAEAEA" transform="matrix(1.00, 0.00, -0.00, -1.00, 698.0, 38.0)">g</text><text xml:space="preserve" font-family="HelveticaNeue-Medium,Helvetica Neue" font-size="24.0" fill="#EAEAEA" transform="matrix(1.00, 0.00, -0.00, -1.00, 712.3, 38.0)">;</text><text xml:space="preserve" font-family="HelveticaNeue-Medium,Helvetica Neue" font-size="24.0" fill="#EAEAEA" transform="matrix(1.00, 0.00, -0.00, -1.00, 718.9, 38.0)">5</text><text xml:space="preserve" font-family="HelveticaNeue-Medium,Helvetica Neue" font-size="24.0" fill="#EAEAEA" transform="matrix(1.00, 0.00, -0.00, -1.00, 732.3, 38.0)">4</text><text xml:space="preserve" font-family="HelveticaNeue-Medium,Helvetica Neue" font-size="24.0" fill="#EAEAEA" transform="matrix(1.00, 0.00, -0.00, -1.00, 745.6, 38.0)">(</text><text xml:space="preserve" font-family="HelveticaNeue-Medium,Helvetica Neue" font-size="24.0" fill="#EAEAEA" transform="matrix(1.00, 0.00, -0.00, -1.00, 752.3, 38.0)">8</text><text xml:space="preserve" font-family="HelveticaNeue-Medium,Helvetica Neue" font-size="24.0" fill="#EAEAEA" transform="matrix(1.00, 0.00, -0.00, -1.00, 765.6, 38.0)">)</text><text xml:space="preserve" font-family="HelveticaNeue-Medium,Helvetica Neue" font-size="24.0" fill="#EAEAEA" transform="matrix(1.00, 0.00, -0.00, -1.00, 772.3, 38.0)">:</text><text xml:space="preserve" font-family="HelveticaNeue-Medium,Helvetica Neue" font-size="24.0" fill="#EAEAEA" transform="matrix(1.00, 0.00, -0.00, -1.00, 779.0, 38.0)">1</text><text xml:space="preserve" font-family="HelveticaNeue-Medium,Helvetica Neue" font-size="24.0" fill="#EAEAEA" transform="matrix(1.00, 0.00, -0.00, -1.00, 792.3, 38.0)">5</text><text xml:space="preserve" font-family="HelveticaNeue-Medium,Helvetica Neue" font-size="24.0" fill="#EAEAEA" transform="matrix(1.00, 0.00, -0.00, -1.00, 805.7, 38.0)">9</text><text xml:space="preserve" font-family="HelveticaNeue-Medium,Helvetica Neue" font-size="24.0" fill="#EAEAEA" transform="matrix(1.00, 0.00, -0.00, -1.00, 819.0, 38.0)">1</text><text xml:space="preserve" font-family="HelveticaNeue-Medium,Helvetica Neue" font-size="24.0" fill="#EAEAEA" transform="matrix(1.00, 0.00, -0.00, -1.00, 832.4, 38.0)">–</text><text xml:space="preserve" font-family="HelveticaNeue-Medium,Helvetica Neue" font-size="24.0" fill="#EAEAEA" transform="matrix(1.00, 0.00, -0.00, -1.00, 844.4, 38.0)">6</text><text xml:space="preserve" font-family="HelveticaNeue-Medium,Helvetica Neue" font-size="24.0" fill="#EAEAEA" transform="matrix(1.00, 0.00, -0.00, -1.00, 857.7, 38.0)">0</text><text xml:space="preserve" font-family="HelveticaNeue-Medium,Helvetica Neue" font-size="24.0" fill="#EAEAEA" transform="matrix(1.00, 0.00, -0.00, -1.00, 871.0, 38.0)">1</text><text xml:space="preserve" font-family="HelveticaNeue-Medium,Helvetica Neue" font-size="24.0" fill="#EAEAEA" transform="matrix(1.00, 0.00, -0.00, -1.00, 884.4, 38.0)">.</text><text xml:space="preserve" font-family="HelveticaNeue-Medium,Helvetica Neue" font-size="24.0" fill="#EAEAEA" transform="matrix(1.00, 0.00, -0.00, -1.00, 891.1, 38.0)"> </text></g></svg>