<?xml version="1.0" encoding="UTF-8" standalone="no"?><svg xmlns="http://www.w3.org/2000/svg" xmlns:xlink="http://www.w3.org/1999/xlink" clip-rule="evenodd" stroke-miterlimit="10" viewBox="0 0 1024 768"><desc>SVG generated by Keynote</desc><defs></defs><g transform="matrix(1.00, 0.00, -0.00, -1.00, 0.0, 768.0)"><g><clipPath id="clip0x6000024b4640"><path d="M 0.0 768.0 L 1024.0 768.0 L 1024.0 0.0 L 0.0 0.0 Z M 0.0 768.0 "></path></clipPath><g clip-path="url(#clip0x6000024b4640)"><image xlink:href="../../384E26B0-0AD0-495F-BA75-267B55ABD0BD/assets/31D284A5C75E14674D2A89FDB99F8048.jpeg" width="2048.00" height="1536.00" transform="matrix(0.50, 0.00, -0.00, -0.50, 0.0, 768.0)"></image></g></g><g opacity="0.65"><g><clipPath id="clip0x6080024b2300"><path d="M 0.0 401.0 L 1024.0 401.0 L 1024.0 768.0 L 0.0 768.0 Z M 0.0 401.0 "></path></clipPath><g clip-path="url(#clip0x6080024b2300)"><image xlink:href="../../B63DDA4A-40DA-4049-AF0A-FFD2EB96A13D/assets/6E75AEFC15B33D1B8ECD38F932A45C4E.png" width="2374.00" height="788.00" transform="matrix(0.42, 0.00, -0.00, -0.42, 15.0, 756.0)"></image></g></g><g><clipPath id="clip0x6080022b44c0"><path d="M 0.0 401.0 L 1024.0 401.0 L 1024.0 768.0 L 0.0 768.0 Z M 0.0 401.0 "></path></clipPath><g clip-path="url(#clip0x6080022b44c0)"><image xlink:href="../../B63DDA4A-40DA-4049-AF0A-FFD2EB96A13D/assets/DA62ED928845CEE9122B20383C7D285D.png" width="1038.00" height="380.00" transform="matrix(1.00, 0.00, -0.00, 1.00, -7.0, 402.0)"></image></g></g></g><image xlink:href="../../128F56D9-08AB-4AB1-9477-B787DFBF7DEA/assets/E38CCA568DA821343C45D9F9AB675FA4.png" width="1530.00" height="432.00" transform="matrix(0.65, 0.00, -0.00, -0.65, 15.0, 548.0)"></image><image xlink:href="../../128F56D9-08AB-4AB1-9477-B787DFBF7DEA/assets/9854F4FE4E79DAC2F62ED342C5394921.png" width="1038.00" height="330.00" transform="matrix(1.00, 0.00, -0.00, 1.00, -7.0, 244.0)"></image></g></svg>