<?xml version="1.0" encoding="UTF-8" standalone="no"?><svg xmlns="http://www.w3.org/2000/svg" xmlns:xlink="http://www.w3.org/1999/xlink" clip-rule="evenodd" stroke-miterlimit="4.00" viewBox="0 0 133 331"><desc>SVG generated by Keynote</desc><defs></defs><g transform="matrix(1.00, 0.00, -0.00, -1.00, 0.0, 331.0)"><path d="M 13.5 0.0 L 110.4 0.0 C 114.2 0.0 116.2 0.0 118.3 0.7 C 120.6 1.5 122.3 3.3 123.2 5.6 C 123.8 7.6 123.8 9.6 123.8 13.5 L 123.8 308.3 C 123.8 312.2 123.8 314.1 123.2 316.2 C 122.3 318.5 120.6 320.3 118.3 321.1 C 116.2 321.8 114.2 321.8 110.3 321.8 L 13.5 321.8 C 9.6 321.8 7.6 321.8 5.6 321.1 C 3.3 320.3 1.5 318.5 0.7 316.2 C 0.0 314.1 0.0 312.2 0.0 308.2 L 0.0 13.5 C 0.0 9.6 0.0 7.6 0.7 5.6 C 1.5 3.3 3.3 1.5 5.6 0.7 C 7.6 0.0 9.6 0.0 13.5 0.0 Z M 13.5 0.0 " fill="none" stroke="#FF2600" stroke-width="6.00" transform="matrix(1.00, 0.00, 0.00, -1.00, 5.0, 326.4)"></path></g></svg>