<?xml version="1.0" encoding="UTF-8" standalone="no"?><svg xmlns="http://www.w3.org/2000/svg" xmlns:xlink="http://www.w3.org/1999/xlink" clip-rule="evenodd" stroke-miterlimit="4.00" viewBox="0 0 921 83"><desc>SVG generated by Keynote</desc><defs></defs><g transform="matrix(1.00, 0.00, -0.00, -1.00, 0.0, 83.0)"><text xml:space="preserve" font-family="HelveticaNeue-Light" font-size="38.6" fill="#000000" transform="matrix(1.00, 0.00, -0.00, -1.00, 0.0, 54.0)">N</text><text xml:space="preserve" font-family="HelveticaNeue-Light" font-size="38.6" fill="#000000" transform="matrix(1.00, 0.00, -0.00, -1.00, 27.2, 54.0)">o</text><text xml:space="preserve" font-family="HelveticaNeue-Light" font-size="38.6" fill="#000000" transform="matrix(1.00, 0.00, -0.00, -1.00, 48.7, 54.0)">n</text><text xml:space="preserve" font-family="HelveticaNeue-Light" font-size="38.6" fill="#000000" transform="matrix(1.00, 0.00, -0.00, -1.00, 69.4, 54.0)">m</text><text xml:space="preserve" font-family="HelveticaNeue-Light" font-size="38.6" fill="#000000" transform="matrix(1.00, 0.00, -0.00, -1.00, 101.6, 54.0)">y</text><text xml:space="preserve" font-family="HelveticaNeue-Light" font-size="38.6" fill="#000000" transform="matrix(1.00, 0.00, -0.00, -1.00, 119.5, 54.0)">e</text><text xml:space="preserve" font-family="HelveticaNeue-Light" font-size="38.6" fill="#000000" transform="matrix(1.00, 0.00, -0.00, -1.00, 139.6, 54.0)">l</text><text xml:space="preserve" font-family="HelveticaNeue-Light" font-size="38.6" fill="#000000" transform="matrix(1.00, 0.00, -0.00, -1.00, 146.7, 54.0)">o</text><text xml:space="preserve" font-family="HelveticaNeue-Light" font-size="38.6" fill="#000000" transform="matrix(1.00, 0.00, -0.00, -1.00, 168.2, 54.0)">a</text><text xml:space="preserve" font-family="HelveticaNeue-Light" font-size="38.6" fill="#000000" transform="matrix(1.00, 0.00, -0.00, -1.00, 188.3, 54.0)">b</text><text xml:space="preserve" font-family="HelveticaNeue-Light" font-size="38.6" fill="#000000" transform="matrix(1.00, 0.00, -0.00, -1.00, 210.4, 54.0)">l</text><text xml:space="preserve" font-family="HelveticaNeue-Light" font-size="38.6" fill="#000000" transform="matrix(1.00, 0.00, -0.00, -1.00, 217.6, 54.0)">a</text><text xml:space="preserve" font-family="HelveticaNeue-Light" font-size="38.6" fill="#000000" transform="matrix(1.00, 0.00, -0.00, -1.00, 237.6, 54.0)">t</text><text xml:space="preserve" font-family="HelveticaNeue-Light" font-size="38.6" fill="#000000" transform="matrix(1.00, 0.00, -0.00, -1.00, 249.1, 54.0)">i</text><text xml:space="preserve" font-family="HelveticaNeue-Light" font-size="38.6" fill="#000000" transform="matrix(1.00, 0.00, -0.00, -1.00, 256.2, 54.0)">v</text><text xml:space="preserve" font-family="HelveticaNeue-Light" font-size="38.6" fill="#000000" transform="matrix(1.00, 0.00, -0.00, -1.00, 274.1, 54.0)">e</text><text xml:space="preserve" font-family="HelveticaNeue-Light" font-size="38.6" fill="#000000" transform="matrix(1.00, 0.00, -0.00, -1.00, 294.2, 54.0)"> </text><text xml:space="preserve" font-family="HelveticaNeue-Light" font-size="38.6" fill="#000000" transform="matrix(1.00, 0.00, -0.00, -1.00, 304.9, 54.0)">p</text><text xml:space="preserve" font-family="HelveticaNeue-Light" font-size="38.6" fill="#000000" transform="matrix(1.00, 0.00, -0.00, -1.00, 327.1, 54.0)">e</text><text xml:space="preserve" font-family="HelveticaNeue-Light" font-size="38.6" fill="#000000" transform="matrix(1.00, 0.00, -0.00, -1.00, 347.1, 54.0)">r</text><text xml:space="preserve" font-family="HelveticaNeue-Light" font-size="38.6" fill="#000000" transform="matrix(1.00, 0.00, -0.00, -1.00, 359.3, 54.0)">i</text><text xml:space="preserve" font-family="HelveticaNeue-Light" font-size="38.6" fill="#000000" transform="matrix(1.00, 0.00, -0.00, -1.00, 366.5, 54.0)">p</text><text xml:space="preserve" font-family="HelveticaNeue-Light" font-size="38.6" fill="#000000" transform="matrix(1.00, 0.00, -0.00, -1.00, 388.6, 54.0)">h</text><text xml:space="preserve" font-family="HelveticaNeue-Light" font-size="38.6" fill="#000000" transform="matrix(1.00, 0.00, -0.00, -1.00, 409.4, 54.0)">e</text><text xml:space="preserve" font-family="HelveticaNeue-Light" font-size="38.6" fill="#000000" transform="matrix(1.00, 0.00, -0.00, -1.00, 429.4, 54.0)">r</text><text xml:space="preserve" font-family="HelveticaNeue-Light" font-size="38.6" fill="#000000" transform="matrix(1.00, 0.00, -0.00, -1.00, 441.6, 54.0)">a</text><text xml:space="preserve" font-family="HelveticaNeue-Light" font-size="38.6" fill="#000000" transform="matrix(1.00, 0.00, -0.00, -1.00, 461.7, 54.0)">l</text><text xml:space="preserve" font-family="HelveticaNeue-Light" font-size="38.6" fill="#000000" transform="matrix(1.00, 0.00, -0.00, -1.00, 468.8, 54.0)"> </text><text xml:space="preserve" font-family="HelveticaNeue-Light" font-size="38.6" fill="#000000" transform="matrix(1.00, 0.00, -0.00, -1.00, 479.6, 54.0)">b</text><text xml:space="preserve" font-family="HelveticaNeue-Light" font-size="38.6" fill="#000000" transform="matrix(1.00, 0.00, -0.00, -1.00, 501.7, 54.0)">l</text><text xml:space="preserve" font-family="HelveticaNeue-Light" font-size="38.6" fill="#000000" transform="matrix(1.00, 0.00, -0.00, -1.00, 508.9, 54.0)">o</text><text xml:space="preserve" font-family="HelveticaNeue-Light" font-size="38.6" fill="#000000" transform="matrix(1.00, 0.00, -0.00, -1.00, 530.4, 54.0)">o</text><text xml:space="preserve" font-family="HelveticaNeue-Light" font-size="38.6" fill="#000000" transform="matrix(1.00, 0.00, -0.00, -1.00, 551.9, 54.0)">d</text><text xml:space="preserve" font-family="HelveticaNeue-Light" font-size="38.6" fill="#000000" transform="matrix(1.00, 0.00, -0.00, -1.00, 574.0, 54.0)"> </text><text xml:space="preserve" font-family="HelveticaNeue-Light" font-size="38.6" fill="#000000" transform="matrix(1.00, 0.00, -0.00, -1.00, 584.8, 54.0)">h</text><text xml:space="preserve" font-family="HelveticaNeue-Light" font-size="38.6" fill="#000000" transform="matrix(1.00, 0.00, -0.00, -1.00, 605.5, 54.0)">a</text><text xml:space="preserve" font-family="HelveticaNeue-Light" font-size="38.6" fill="#000000" transform="matrix(1.00, 0.00, -0.00, -1.00, 625.6, 54.0)">p</text><text xml:space="preserve" font-family="HelveticaNeue-Light" font-size="38.6" fill="#000000" transform="matrix(1.00, 0.00, -0.00, -1.00, 647.8, 54.0)">l</text><text xml:space="preserve" font-family="HelveticaNeue-Light" font-size="38.6" fill="#000000" transform="matrix(1.00, 0.00, -0.00, -1.00, 654.9, 54.0)">o</text><text xml:space="preserve" font-family="HelveticaNeue-Light" font-size="38.6" fill="#000000" transform="matrix(1.00, 0.00, -0.00, -1.00, 676.4, 54.0)">i</text><text xml:space="preserve" font-family="HelveticaNeue-Light" font-size="38.6" fill="#000000" transform="matrix(1.00, 0.00, -0.00, -1.00, 683.5, 54.0)">d</text><text xml:space="preserve" font-family="HelveticaNeue-Light" font-size="38.6" fill="#000000" transform="matrix(1.00, 0.00, -0.00, -1.00, 705.7, 54.0)">e</text><text xml:space="preserve" font-family="HelveticaNeue-Light" font-size="38.6" fill="#000000" transform="matrix(1.00, 0.00, -0.00, -1.00, 725.8, 54.0)">n</text><text xml:space="preserve" font-family="HelveticaNeue-Light" font-size="38.6" fill="#000000" transform="matrix(1.00, 0.00, -0.00, -1.00, 746.5, 54.0)">t</text><text xml:space="preserve" font-family="HelveticaNeue-Light" font-size="38.6" fill="#000000" transform="matrix(1.00, 0.00, -0.00, -1.00, 758.0, 54.0)">i</text><text xml:space="preserve" font-family="HelveticaNeue-Light" font-size="38.6" fill="#000000" transform="matrix(1.00, 0.00, -0.00, -1.00, 765.1, 54.0)">c</text><text xml:space="preserve" font-family="HelveticaNeue-Light" font-size="38.6" fill="#000000" transform="matrix(1.00, 0.00, -0.00, -1.00, 785.2, 54.0)">a</text><text xml:space="preserve" font-family="HelveticaNeue-Light" font-size="38.6" fill="#000000" transform="matrix(1.00, 0.00, -0.00, -1.00, 805.2, 54.0)">l</text><text xml:space="preserve" font-family="HelveticaNeue-Light" font-size="38.6" fill="#000000" transform="matrix(1.00, 0.00, -0.00, -1.00, 812.4, 54.0)"> </text><text xml:space="preserve" font-family="HelveticaNeue-Light" font-size="38.6" fill="#000000" transform="matrix(1.00, 0.00, -0.00, -1.00, 823.1, 54.0)">s</text><text xml:space="preserve" font-family="HelveticaNeue-Light" font-size="38.6" fill="#000000" transform="matrix(1.00, 0.00, -0.00, -1.00, 841.7, 54.0)">t</text><text xml:space="preserve" font-family="HelveticaNeue-Light" font-size="38.6" fill="#000000" transform="matrix(1.00, 0.00, -0.00, -1.00, 853.1, 54.0)">e</text><text xml:space="preserve" font-family="HelveticaNeue-Light" font-size="38.6" fill="#000000" transform="matrix(1.00, 0.00, -0.00, -1.00, 873.2, 54.0)">m</text><text xml:space="preserve" font-family="HelveticaNeue-Light" font-size="38.6" fill="#000000" transform="matrix(1.00, 0.00, -0.00, -1.00, 905.4, 54.0)"> </text><text xml:space="preserve" font-family="HelveticaNeue-Light" font-size="38.6" fill="#000000" transform="matrix(1.00, 0.00, -0.00, -1.00, 0.0, 8.0)">c</text><text xml:space="preserve" font-family="HelveticaNeue-Light" font-size="38.6" fill="#000000" transform="matrix(1.00, 0.00, -0.00, -1.00, 20.1, 8.0)">e</text><text xml:space="preserve" font-family="HelveticaNeue-Light" font-size="38.6" fill="#000000" transform="matrix(1.00, 0.00, -0.00, -1.00, 40.1, 8.0)">l</text><text xml:space="preserve" font-family="HelveticaNeue-Light" font-size="38.6" fill="#000000" transform="matrix(1.00, 0.00, -0.00, -1.00, 47.3, 8.0)">l</text><text xml:space="preserve" font-family="HelveticaNeue-Light" font-size="38.6" fill="#000000" transform="matrix(1.00, 0.00, -0.00, -1.00, 54.4, 8.0)"> </text><text xml:space="preserve" font-family="HelveticaNeue-Light" font-size="38.6" fill="#000000" transform="matrix(1.00, 0.00, -0.00, -1.00, 65.1, 8.0)">t</text><text xml:space="preserve" font-family="HelveticaNeue-Light" font-size="38.6" fill="#000000" transform="matrix(1.00, 0.00, -0.00, -1.00, 76.6, 8.0)">r</text><text xml:space="preserve" font-family="HelveticaNeue-Light" font-size="38.6" fill="#000000" transform="matrix(1.00, 0.00, -0.00, -1.00, 88.8, 8.0)">a</text><text xml:space="preserve" font-family="HelveticaNeue-Light" font-size="38.6" fill="#000000" transform="matrix(1.00, 0.00, -0.00, -1.00, 108.8, 8.0)">n</text><text xml:space="preserve" font-family="HelveticaNeue-Light" font-size="38.6" fill="#000000" transform="matrix(1.00, 0.00, -0.00, -1.00, 129.6, 8.0)">s</text><text xml:space="preserve" font-family="HelveticaNeue-Light" font-size="38.6" fill="#000000" transform="matrix(1.00, 0.00, -0.00, -1.00, 148.1, 8.0)">p</text><text xml:space="preserve" font-family="HelveticaNeue-Light" font-size="38.6" fill="#000000" transform="matrix(1.00, 0.00, -0.00, -1.00, 170.3, 8.0)">l</text><text xml:space="preserve" font-family="HelveticaNeue-Light" font-size="38.6" fill="#000000" transform="matrix(1.00, 0.00, -0.00, -1.00, 177.5, 8.0)">a</text><text xml:space="preserve" font-family="HelveticaNeue-Light" font-size="38.6" fill="#000000" transform="matrix(1.00, 0.00, -0.00, -1.00, 197.5, 8.0)">n</text><text xml:space="preserve" font-family="HelveticaNeue-Light" font-size="38.6" fill="#000000" transform="matrix(1.00, 0.00, -0.00, -1.00, 218.3, 8.0)">t</text><text xml:space="preserve" font-family="HelveticaNeue-Light" font-size="38.6" fill="#000000" transform="matrix(1.00, 0.00, -0.00, -1.00, 229.7, 8.0)">a</text><text xml:space="preserve" font-family="HelveticaNeue-Light" font-size="38.6" fill="#000000" transform="matrix(1.00, 0.00, -0.00, -1.00, 249.8, 8.0)">t</text><text xml:space="preserve" font-family="HelveticaNeue-Light" font-size="38.6" fill="#000000" transform="matrix(1.00, 0.00, -0.00, -1.00, 261.2, 8.0)">i</text><text xml:space="preserve" font-family="HelveticaNeue-Light" font-size="38.6" fill="#000000" transform="matrix(1.00, 0.00, -0.00, -1.00, 268.4, 8.0)">o</text><text xml:space="preserve" font-family="HelveticaNeue-Light" font-size="38.6" fill="#000000" transform="matrix(1.00, 0.00, -0.00, -1.00, 289.8, 8.0)">n</text><text xml:space="preserve" font-family="HelveticaNeue-Light" font-size="38.6" fill="#000000" transform="matrix(1.00, 0.00, -0.00, -1.00, 310.6, 8.0)"> </text><text xml:space="preserve" font-family="HelveticaNeue-Light" font-size="38.6" fill="#000000" transform="matrix(1.00, 0.00, -0.00, -1.00, 321.3, 8.0)">f</text><text xml:space="preserve" font-family="HelveticaNeue-Light" font-size="38.6" fill="#000000" transform="matrix(1.00, 0.00, -0.00, -1.00, 331.3, 8.0)">o</text><text xml:space="preserve" font-family="HelveticaNeue-Light" font-size="38.6" fill="#000000" transform="matrix(1.00, 0.00, -0.00, -1.00, 352.8, 8.0)">r</text><text xml:space="preserve" font-family="HelveticaNeue-Light" font-size="38.6" fill="#000000" transform="matrix(1.00, 0.00, -0.00, -1.00, 365.0, 8.0)"> </text><text xml:space="preserve" font-family="HelveticaNeue-Light" font-size="38.6" fill="#000000" transform="matrix(1.00, 0.00, -0.00, -1.00, 375.7, 8.0)">r</text><text xml:space="preserve" font-family="HelveticaNeue-Light" font-size="38.6" fill="#000000" transform="matrix(1.00, 0.00, -0.00, -1.00, 387.2, 8.0)">e</text><text xml:space="preserve" font-family="HelveticaNeue-Light" font-size="38.6" fill="#000000" transform="matrix(1.00, 0.00, -0.00, -1.00, 407.3, 8.0)">f</text><text xml:space="preserve" font-family="HelveticaNeue-Light" font-size="38.6" fill="#000000" transform="matrix(1.00, 0.00, -0.00, -1.00, 417.3, 8.0)">r</text><text xml:space="preserve" font-family="HelveticaNeue-Light" font-size="38.6" fill="#000000" transform="matrix(1.00, 0.00, -0.00, -1.00, 429.4, 8.0)">a</text><text xml:space="preserve" font-family="HelveticaNeue-Light" font-size="38.6" fill="#000000" transform="matrix(1.00, 0.00, -0.00, -1.00, 449.5, 8.0)">c</text><text xml:space="preserve" font-family="HelveticaNeue-Light" font-size="38.6" fill="#000000" transform="matrix(1.00, 0.00, -0.00, -1.00, 469.6, 8.0)">t</text><text xml:space="preserve" font-family="HelveticaNeue-Light" font-size="38.6" fill="#000000" transform="matrix(1.00, 0.00, -0.00, -1.00, 481.0, 8.0)">o</text><text xml:space="preserve" font-family="HelveticaNeue-Light" font-size="38.6" fill="#000000" transform="matrix(1.00, 0.00, -0.00, -1.00, 502.5, 8.0)">r</text><text xml:space="preserve" font-family="HelveticaNeue-Light" font-size="38.6" fill="#000000" transform="matrix(1.00, 0.00, -0.00, -1.00, 514.6, 8.0)">y</text><text xml:space="preserve" font-family="HelveticaNeue-Light" font-size="38.6" fill="#000000" transform="matrix(1.00, 0.00, -0.00, -1.00, 532.5, 8.0)"> </text><text xml:space="preserve" font-family="HelveticaNeue-Light" font-size="38.6" fill="#000000" transform="matrix(1.00, 0.00, -0.00, -1.00, 543.3, 8.0)">s</text><text xml:space="preserve" font-family="HelveticaNeue-Light" font-size="38.6" fill="#000000" transform="matrix(1.00, 0.00, -0.00, -1.00, 561.9, 8.0)">e</text><text xml:space="preserve" font-family="HelveticaNeue-Light" font-size="38.6" fill="#000000" transform="matrix(1.00, 0.00, -0.00, -1.00, 581.9, 8.0)">v</text><text xml:space="preserve" font-family="HelveticaNeue-Light" font-size="38.6" fill="#000000" transform="matrix(1.00, 0.00, -0.00, -1.00, 599.8, 8.0)">e</text><text xml:space="preserve" font-family="HelveticaNeue-Light" font-size="38.6" fill="#000000" transform="matrix(1.00, 0.00, -0.00, -1.00, 619.9, 8.0)">r</text><text xml:space="preserve" font-family="HelveticaNeue-Light" font-size="38.6" fill="#000000" transform="matrix(1.00, 0.00, -0.00, -1.00, 631.3, 8.0)">e</text><text xml:space="preserve" font-family="HelveticaNeue-Light" font-size="38.6" fill="#000000" transform="matrix(1.00, 0.00, -0.00, -1.00, 651.4, 8.0)"> </text><text xml:space="preserve" font-family="HelveticaNeue-Light" font-size="38.6" fill="#000000" transform="matrix(1.00, 0.00, -0.00, -1.00, 662.1, 8.0)">a</text><text xml:space="preserve" font-family="HelveticaNeue-Light" font-size="38.6" fill="#000000" transform="matrix(1.00, 0.00, -0.00, -1.00, 682.2, 8.0)">p</text><text xml:space="preserve" font-family="HelveticaNeue-Light" font-size="38.6" fill="#000000" transform="matrix(1.00, 0.00, -0.00, -1.00, 704.4, 8.0)">l</text><text xml:space="preserve" font-family="HelveticaNeue-Light" font-size="38.6" fill="#000000" transform="matrix(1.00, 0.00, -0.00, -1.00, 711.5, 8.0)">a</text><text xml:space="preserve" font-family="HelveticaNeue-Light" font-size="38.6" fill="#000000" transform="matrix(1.00, 0.00, -0.00, -1.00, 731.6, 8.0)">s</text><text xml:space="preserve" font-family="HelveticaNeue-Light" font-size="38.6" fill="#000000" transform="matrix(1.00, 0.00, -0.00, -1.00, 750.2, 8.0)">t</text><text xml:space="preserve" font-family="HelveticaNeue-Light" font-size="38.6" fill="#000000" transform="matrix(1.00, 0.00, -0.00, -1.00, 761.6, 8.0)">i</text><text xml:space="preserve" font-family="HelveticaNeue-Light" font-size="38.6" fill="#000000" transform="matrix(1.00, 0.00, -0.00, -1.00, 768.7, 8.0)">c</text><text xml:space="preserve" font-family="HelveticaNeue-Light" font-size="38.6" fill="#000000" transform="matrix(1.00, 0.00, -0.00, -1.00, 788.8, 8.0)"> </text><text xml:space="preserve" font-family="HelveticaNeue-Light" font-size="38.6" fill="#000000" transform="matrix(1.00, 0.00, -0.00, -1.00, 799.5, 8.0)">a</text><text xml:space="preserve" font-family="HelveticaNeue-Light" font-size="38.6" fill="#000000" transform="matrix(1.00, 0.00, -0.00, -1.00, 819.6, 8.0)">n</text><text xml:space="preserve" font-family="HelveticaNeue-Light" font-size="38.6" fill="#000000" transform="matrix(1.00, 0.00, -0.00, -1.00, 840.3, 8.0)">e</text><text xml:space="preserve" font-family="HelveticaNeue-Light" font-size="38.6" fill="#000000" transform="matrix(1.00, 0.00, -0.00, -1.00, 860.4, 8.0)">m</text><text xml:space="preserve" font-family="HelveticaNeue-Light" font-size="38.6" fill="#000000" transform="matrix(1.00, 0.00, -0.00, -1.00, 892.6, 8.0)">i</text><text xml:space="preserve" font-family="HelveticaNeue-Light" font-size="38.6" fill="#000000" transform="matrix(1.00, 0.00, -0.00, -1.00, 899.7, 8.0)">a</text></g></svg>