<?xml version="1.0" encoding="UTF-8" standalone="no"?><svg xmlns="http://www.w3.org/2000/svg" xmlns:xlink="http://www.w3.org/1999/xlink" clip-rule="evenodd" stroke-miterlimit="4.00" viewBox="0 0 1024 768"><desc>SVG generated by Keynote</desc><defs></defs><g transform="matrix(1.00, 0.00, -0.00, -1.00, 0.0, 768.0)"><path d="M 0.0 768.0 L 1024.0 768.0 L 1024.0 0.0 L 0.0 0.0 Z M 0.0 768.0 " fill="#FEFFFE"></path><g><clipPath id="clip-105"><path d="M 0.0 543.0 L 1024.0 543.0 L 1024.0 729.0 L 0.0 729.0 Z M 0.0 543.0 "></path></clipPath><g clip-path="url(#clip-105)"><image xlink:href="../../5DBF26B9-C946-40F2-8A71-6E15BBBD0F14/assets/68AFD555AFBD6D605AB1462BA33D0064.png" width="2518.00" height="458.00" transform="matrix(0.41, 0.00, -0.00, -0.41, 0.0, 729.0)"></image></g></g><g><clipPath id="clip-106"><path d="M 455.0 738.0 L 1026.0 738.0 L 1026.0 765.0 L 455.0 765.0 Z M 455.0 738.0 "></path></clipPath><g clip-path="url(#clip-106)"><image xlink:href="../../5DBF26B9-C946-40F2-8A71-6E15BBBD0F14/assets/38D646B5EED0B776739BDC98B85BDC37.png" width="1752.00" height="82.00" transform="matrix(0.33, 0.00, -0.00, -0.33, 455.0, 765.0)"></image></g></g><text xml:space="preserve" font-family="HelveticaNeue-Light" font-size="36.0" fill="#000000" transform="matrix(1.00, 0.00, -0.00, -1.00, 26.0, 441.0)">1</text><text xml:space="preserve" font-family="HelveticaNeue-Light" font-size="36.0" fill="#000000" transform="matrix(1.00, 0.00, -0.00, -1.00, 46.0, 441.0)">6</text><text xml:space="preserve" font-family="HelveticaNeue-Light" font-size="36.0" fill="#000000" transform="matrix(1.00, 0.00, -0.00, -1.00, 66.0, 441.0)"> </text><text xml:space="preserve" font-family="HelveticaNeue-Light" font-size="36.0" fill="#000000" transform="matrix(1.00, 0.00, -0.00, -1.00, 76.0, 441.0)">p</text><text xml:space="preserve" font-family="HelveticaNeue-Light" font-size="36.0" fill="#000000" transform="matrix(1.00, 0.00, -0.00, -1.00, 96.7, 441.0)">a</text><text xml:space="preserve" font-family="HelveticaNeue-Light" font-size="36.0" fill="#000000" transform="matrix(1.00, 0.00, -0.00, -1.00, 115.4, 441.0)">t</text><text xml:space="preserve" font-family="HelveticaNeue-Light" font-size="36.0" fill="#000000" transform="matrix(1.00, 0.00, -0.00, -1.00, 126.0, 441.0)">i</text><text xml:space="preserve" font-family="HelveticaNeue-Light" font-size="36.0" fill="#000000" transform="matrix(1.00, 0.00, -0.00, -1.00, 132.7, 441.0)">e</text><text xml:space="preserve" font-family="HelveticaNeue-Light" font-size="36.0" fill="#000000" transform="matrix(1.00, 0.00, -0.00, -1.00, 151.4, 441.0)">n</text><text xml:space="preserve" font-family="HelveticaNeue-Light" font-size="36.0" fill="#000000" transform="matrix(1.00, 0.00, -0.00, -1.00, 170.7, 441.0)">t</text><text xml:space="preserve" font-family="HelveticaNeue-Light" font-size="36.0" fill="#000000" transform="matrix(1.00, 0.00, -0.00, -1.00, 181.4, 441.0)">s</text><text xml:space="preserve" font-family="HelveticaNeue-Light" font-size="36.0" fill="#000000" transform="matrix(1.00, 0.00, -0.00, -1.00, 198.7, 441.0)"> </text><text xml:space="preserve" font-family="HelveticaNeue-Light" font-size="36.0" fill="#000000" transform="matrix(1.00, 0.00, -0.00, -1.00, 208.7, 441.0)">w</text><text xml:space="preserve" font-family="HelveticaNeue-Light" font-size="36.0" fill="#000000" transform="matrix(1.00, 0.00, -0.00, -1.00, 235.4, 441.0)">i</text><text xml:space="preserve" font-family="HelveticaNeue-Light" font-size="36.0" fill="#000000" transform="matrix(1.00, 0.00, -0.00, -1.00, 242.0, 441.0)">t</text><text xml:space="preserve" font-family="HelveticaNeue-Light" font-size="36.0" fill="#000000" transform="matrix(1.00, 0.00, -0.00, -1.00, 252.7, 441.0)">h</text><text xml:space="preserve" font-family="HelveticaNeue-Light" font-size="36.0" fill="#000000" transform="matrix(1.00, 0.00, -0.00, -1.00, 272.0, 441.0)"> </text><text xml:space="preserve" font-family="HelveticaNeue-Light" font-size="36.0" fill="#000000" transform="matrix(1.00, 0.00, -0.00, -1.00, 282.0, 441.0)">r</text><text xml:space="preserve" font-family="HelveticaNeue-Light" font-size="36.0" fill="#000000" transform="matrix(1.00, 0.00, -0.00, -1.00, 292.7, 441.0)">e</text><text xml:space="preserve" font-family="HelveticaNeue-Light" font-size="36.0" fill="#000000" transform="matrix(1.00, 0.00, -0.00, -1.00, 311.4, 441.0)">f</text><text xml:space="preserve" font-family="HelveticaNeue-Light" font-size="36.0" fill="#000000" transform="matrix(1.00, 0.00, -0.00, -1.00, 320.7, 441.0)">r</text><text xml:space="preserve" font-family="HelveticaNeue-Light" font-size="36.0" fill="#000000" transform="matrix(1.00, 0.00, -0.00, -1.00, 332.1, 441.0)">a</text><text xml:space="preserve" font-family="HelveticaNeue-Light" font-size="36.0" fill="#000000" transform="matrix(1.00, 0.00, -0.00, -1.00, 350.8, 441.0)">c</text><text xml:space="preserve" font-family="HelveticaNeue-Light" font-size="36.0" fill="#000000" transform="matrix(1.00, 0.00, -0.00, -1.00, 369.4, 441.0)">t</text><text xml:space="preserve" font-family="HelveticaNeue-Light" font-size="36.0" fill="#000000" transform="matrix(1.00, 0.00, -0.00, -1.00, 380.1, 441.0)">o</text><text xml:space="preserve" font-family="HelveticaNeue-Light" font-size="36.0" fill="#000000" transform="matrix(1.00, 0.00, -0.00, -1.00, 400.1, 441.0)">r</text><text xml:space="preserve" font-family="HelveticaNeue-Light" font-size="36.0" fill="#000000" transform="matrix(1.00, 0.00, -0.00, -1.00, 411.5, 441.0)">y</text><text xml:space="preserve" font-family="HelveticaNeue-Light" font-size="36.0" fill="#000000" transform="matrix(1.00, 0.00, -0.00, -1.00, 428.1, 441.0)"> </text><text xml:space="preserve" font-family="HelveticaNeue-Light" font-size="36.0" fill="#000000" transform="matrix(1.00, 0.00, -0.00, -1.00, 438.1, 441.0)">A</text><text xml:space="preserve" font-family="HelveticaNeue-Light" font-size="36.0" fill="#000000" transform="matrix(1.00, 0.00, -0.00, -1.00, 460.8, 441.0)">M</text><text xml:space="preserve" font-family="HelveticaNeue-Light" font-size="36.0" fill="#000000" transform="matrix(1.00, 0.00, -0.00, -1.00, 490.4, 441.0)">L</text><text xml:space="preserve" font-family="HelveticaNeue-Light" font-size="36.0" fill="#000000" transform="matrix(1.00, 0.00, -0.00, -1.00, 509.7, 441.0)"> </text><text xml:space="preserve" font-family="HelveticaNeue-Light" font-size="36.0" fill="#000000" transform="matrix(1.00, 0.00, -0.00, -1.00, 519.7, 441.0)">(</text><text xml:space="preserve" font-family="HelveticaNeue-Light" font-size="36.0" fill="#000000" transform="matrix(1.00, 0.00, -0.00, -1.00, 528.4, 441.0)">g</text><text xml:space="preserve" font-family="HelveticaNeue-Light" font-size="36.0" fill="#000000" transform="matrix(1.00, 0.00, -0.00, -1.00, 548.4, 441.0)">r</text><text xml:space="preserve" font-family="HelveticaNeue-Light" font-size="36.0" fill="#000000" transform="matrix(1.00, 0.00, -0.00, -1.00, 559.1, 441.0)">o</text><text xml:space="preserve" font-family="HelveticaNeue-Light" font-size="36.0" fill="#000000" transform="matrix(1.00, 0.00, -0.00, -1.00, 579.1, 441.0)">u</text><text xml:space="preserve" font-family="HelveticaNeue-Light" font-size="36.0" fill="#000000" transform="matrix(1.00, 0.00, -0.00, -1.00, 598.4, 441.0)">p</text><text xml:space="preserve" font-family="HelveticaNeue-Light" font-size="36.0" fill="#000000" transform="matrix(1.00, 0.00, -0.00, -1.00, 619.1, 441.0)"> </text><text xml:space="preserve" font-family="HelveticaNeue-Light" font-size="36.0" fill="#000000" transform="matrix(1.00, 0.00, -0.00, -1.00, 629.1, 441.0)">I</text><text xml:space="preserve" font-family="HelveticaNeue-Light" font-size="36.0" fill="#000000" transform="matrix(1.00, 0.00, -0.00, -1.00, 637.1, 441.0)">)</text><text xml:space="preserve" font-family="HelveticaNeue-Light" font-size="36.0" fill="#000000" transform="matrix(1.00, 0.00, -0.00, -1.00, 645.8, 441.0)"> </text><text xml:space="preserve" font-family="HelveticaNeue-Light" font-size="36.0" fill="#000000" transform="matrix(1.00, 0.00, -0.00, -1.00, 26.0, 397.0)">1</text><text xml:space="preserve" font-family="HelveticaNeue-Light" font-size="36.0" fill="#000000" transform="matrix(1.00, 0.00, -0.00, -1.00, 46.0, 397.0)">7</text><text xml:space="preserve" font-family="HelveticaNeue-Light" font-size="36.0" fill="#000000" transform="matrix(1.00, 0.00, -0.00, -1.00, 66.0, 397.0)"> </text><text xml:space="preserve" font-family="HelveticaNeue-Light" font-size="36.0" fill="#000000" transform="matrix(1.00, 0.00, -0.00, -1.00, 76.0, 397.0)">p</text><text xml:space="preserve" font-family="HelveticaNeue-Light" font-size="36.0" fill="#000000" transform="matrix(1.00, 0.00, -0.00, -1.00, 96.7, 397.0)">a</text><text xml:space="preserve" font-family="HelveticaNeue-Light" font-size="36.0" fill="#000000" transform="matrix(1.00, 0.00, -0.00, -1.00, 115.4, 397.0)">t</text><text xml:space="preserve" font-family="HelveticaNeue-Light" font-size="36.0" fill="#000000" transform="matrix(1.00, 0.00, -0.00, -1.00, 126.0, 397.0)">i</text><text xml:space="preserve" font-family="HelveticaNeue-Light" font-size="36.0" fill="#000000" transform="matrix(1.00, 0.00, -0.00, -1.00, 132.7, 397.0)">e</text><text xml:space="preserve" font-family="HelveticaNeue-Light" font-size="36.0" fill="#000000" transform="matrix(1.00, 0.00, -0.00, -1.00, 151.4, 397.0)">n</text><text xml:space="preserve" font-family="HelveticaNeue-Light" font-size="36.0" fill="#000000" transform="matrix(1.00, 0.00, -0.00, -1.00, 170.7, 397.0)">t</text><text xml:space="preserve" font-family="HelveticaNeue-Light" font-size="36.0" fill="#000000" transform="matrix(1.00, 0.00, -0.00, -1.00, 181.4, 397.0)">s</text><text xml:space="preserve" font-family="HelveticaNeue-Light" font-size="36.0" fill="#000000" transform="matrix(1.00, 0.00, -0.00, -1.00, 198.7, 397.0)"> </text><text xml:space="preserve" font-family="HelveticaNeue-Light" font-size="36.0" fill="#000000" transform="matrix(1.00, 0.00, -0.00, -1.00, 208.7, 397.0)">i</text><text xml:space="preserve" font-family="HelveticaNeue-Light" font-size="36.0" fill="#000000" transform="matrix(1.00, 0.00, -0.00, -1.00, 215.4, 397.0)">n</text><text xml:space="preserve" font-family="HelveticaNeue-Light" font-size="36.0" fill="#000000" transform="matrix(1.00, 0.00, -0.00, -1.00, 234.7, 397.0)"> </text><text xml:space="preserve" font-family="HelveticaNeue-Light" font-size="36.0" fill="#000000" transform="matrix(1.00, 0.00, -0.00, -1.00, 244.7, 397.0)">C</text><text xml:space="preserve" font-family="HelveticaNeue-Light" font-size="36.0" fill="#000000" transform="matrix(1.00, 0.00, -0.00, -1.00, 270.0, 397.0)">R</text><text xml:space="preserve" font-family="HelveticaNeue-Light" font-size="36.0" fill="#000000" transform="matrix(1.00, 0.00, -0.00, -1.00, 294.1, 397.0)">2</text><text xml:space="preserve" font-family="HelveticaNeue-Light" font-size="36.0" fill="#000000" transform="matrix(1.00, 0.00, -0.00, -1.00, 314.1, 397.0)">+</text><text xml:space="preserve" font-family="HelveticaNeue-Light" font-size="36.0" fill="#000000" transform="matrix(1.00, 0.00, -0.00, -1.00, 335.7, 397.0)"> </text><text xml:space="preserve" font-family="HelveticaNeue-Light" font-size="36.0" fill="#000000" transform="matrix(1.00, 0.00, -0.00, -1.00, 345.7, 397.0)">o</text><text xml:space="preserve" font-family="HelveticaNeue-Light" font-size="36.0" fill="#000000" transform="matrix(1.00, 0.00, -0.00, -1.00, 365.7, 397.0)">r</text><text xml:space="preserve" font-family="HelveticaNeue-Light" font-size="36.0" fill="#000000" transform="matrix(1.00, 0.00, -0.00, -1.00, 377.0, 397.0)"> </text><text xml:space="preserve" font-family="HelveticaNeue-Light" font-size="36.0" fill="#000000" transform="matrix(1.00, 0.00, -0.00, -1.00, 387.0, 397.0)">e</text><text xml:space="preserve" font-family="HelveticaNeue-Light" font-size="36.0" fill="#000000" transform="matrix(1.00, 0.00, -0.00, -1.00, 405.7, 397.0)">a</text><text xml:space="preserve" font-family="HelveticaNeue-Light" font-size="36.0" fill="#000000" transform="matrix(1.00, 0.00, -0.00, -1.00, 424.4, 397.0)">r</text><text xml:space="preserve" font-family="HelveticaNeue-Light" font-size="36.0" fill="#000000" transform="matrix(1.00, 0.00, -0.00, -1.00, 435.8, 397.0)">l</text><text xml:space="preserve" font-family="HelveticaNeue-Light" font-size="36.0" fill="#000000" transform="matrix(1.00, 0.00, -0.00, -1.00, 442.4, 397.0)">y</text><text xml:space="preserve" font-family="HelveticaNeue-Light" font-size="36.0" fill="#000000" transform="matrix(1.00, 0.00, -0.00, -1.00, 459.1, 397.0)"> </text><text xml:space="preserve" font-family="HelveticaNeue-Light" font-size="36.0" fill="#000000" transform="matrix(1.00, 0.00, -0.00, -1.00, 469.1, 397.0)">r</text><text xml:space="preserve" font-family="HelveticaNeue-Light" font-size="36.0" fill="#000000" transform="matrix(1.00, 0.00, -0.00, -1.00, 479.8, 397.0)">e</text><text xml:space="preserve" font-family="HelveticaNeue-Light" font-size="36.0" fill="#000000" transform="matrix(1.00, 0.00, -0.00, -1.00, 498.5, 397.0)">l</text><text xml:space="preserve" font-family="HelveticaNeue-Light" font-size="36.0" fill="#000000" transform="matrix(1.00, 0.00, -0.00, -1.00, 505.1, 397.0)">a</text><text xml:space="preserve" font-family="HelveticaNeue-Light" font-size="36.0" fill="#000000" transform="matrix(1.00, 0.00, -0.00, -1.00, 523.8, 397.0)">p</text><text xml:space="preserve" font-family="HelveticaNeue-Light" font-size="36.0" fill="#000000" transform="matrix(1.00, 0.00, -0.00, -1.00, 544.5, 397.0)">s</text><text xml:space="preserve" font-family="HelveticaNeue-Light" font-size="36.0" fill="#000000" transform="matrix(1.00, 0.00, -0.00, -1.00, 561.8, 397.0)">e</text><text xml:space="preserve" font-family="HelveticaNeue-Light" font-size="36.0" fill="#000000" transform="matrix(1.00, 0.00, -0.00, -1.00, 580.5, 397.0)"> </text><text xml:space="preserve" font-family="HelveticaNeue-Light" font-size="36.0" fill="#000000" transform="matrix(1.00, 0.00, -0.00, -1.00, 590.5, 397.0)">(</text><text xml:space="preserve" font-family="HelveticaNeue-Light" font-size="36.0" fill="#000000" transform="matrix(1.00, 0.00, -0.00, -1.00, 599.2, 397.0)">g</text><text xml:space="preserve" font-family="HelveticaNeue-Light" font-size="36.0" fill="#000000" transform="matrix(1.00, 0.00, -0.00, -1.00, 619.2, 397.0)">r</text><text xml:space="preserve" font-family="HelveticaNeue-Light" font-size="36.0" fill="#000000" transform="matrix(1.00, 0.00, -0.00, -1.00, 629.9, 397.0)">o</text><text xml:space="preserve" font-family="HelveticaNeue-Light" font-size="36.0" fill="#000000" transform="matrix(1.00, 0.00, -0.00, -1.00, 649.9, 397.0)">u</text><text xml:space="preserve" font-family="HelveticaNeue-Light" font-size="36.0" fill="#000000" transform="matrix(1.00, 0.00, -0.00, -1.00, 669.2, 397.0)">p</text><text xml:space="preserve" font-family="HelveticaNeue-Light" font-size="36.0" fill="#000000" transform="matrix(1.00, 0.00, -0.00, -1.00, 689.9, 397.0)"> </text><text xml:space="preserve" font-family="HelveticaNeue-Light" font-size="36.0" fill="#000000" transform="matrix(1.00, 0.00, -0.00, -1.00, 699.9, 397.0)">I</text><text xml:space="preserve" font-family="HelveticaNeue-Light" font-size="36.0" fill="#000000" transform="matrix(1.00, 0.00, -0.00, -1.00, 707.9, 397.0)">I</text><text xml:space="preserve" font-family="HelveticaNeue-Light" font-size="36.0" fill="#000000" transform="matrix(1.00, 0.00, -0.00, -1.00, 715.9, 397.0)">)</text><text xml:space="preserve" font-family="HelveticaNeue-Light" font-size="36.0" fill="#000000" transform="matrix(1.00, 0.00, -0.00, -1.00, 724.5, 397.0)"> </text><text xml:space="preserve" font-family="HelveticaNeue-Light" font-size="36.0" fill="#000000" transform="matrix(1.00, 0.00, -0.00, -1.00, 26.0, 353.0)">1</text><text xml:space="preserve" font-family="HelveticaNeue-Light" font-size="36.0" fill="#000000" transform="matrix(1.00, 0.00, -0.00, -1.00, 46.0, 353.0)">8</text><text xml:space="preserve" font-family="HelveticaNeue-Light" font-size="36.0" fill="#000000" transform="matrix(1.00, 0.00, -0.00, -1.00, 66.0, 353.0)"> </text><text xml:space="preserve" font-family="HelveticaNeue-Light" font-size="36.0" fill="#000000" transform="matrix(1.00, 0.00, -0.00, -1.00, 76.0, 353.0)">p</text><text xml:space="preserve" font-family="HelveticaNeue-Light" font-size="36.0" fill="#000000" transform="matrix(1.00, 0.00, -0.00, -1.00, 96.7, 353.0)">a</text><text xml:space="preserve" font-family="HelveticaNeue-Light" font-size="36.0" fill="#000000" transform="matrix(1.00, 0.00, -0.00, -1.00, 115.4, 353.0)">t</text><text xml:space="preserve" font-family="HelveticaNeue-Light" font-size="36.0" fill="#000000" transform="matrix(1.00, 0.00, -0.00, -1.00, 126.0, 353.0)">i</text><text xml:space="preserve" font-family="HelveticaNeue-Light" font-size="36.0" fill="#000000" transform="matrix(1.00, 0.00, -0.00, -1.00, 132.7, 353.0)">e</text><text xml:space="preserve" font-family="HelveticaNeue-Light" font-size="36.0" fill="#000000" transform="matrix(1.00, 0.00, -0.00, -1.00, 151.4, 353.0)">n</text><text xml:space="preserve" font-family="HelveticaNeue-Light" font-size="36.0" fill="#000000" transform="matrix(1.00, 0.00, -0.00, -1.00, 170.7, 353.0)">t</text><text xml:space="preserve" font-family="HelveticaNeue-Light" font-size="36.0" fill="#000000" transform="matrix(1.00, 0.00, -0.00, -1.00, 181.4, 353.0)">s</text><text xml:space="preserve" font-family="HelveticaNeue-Light" font-size="36.0" fill="#000000" transform="matrix(1.00, 0.00, -0.00, -1.00, 198.7, 353.0)"> </text><text xml:space="preserve" font-family="HelveticaNeue-Light" font-size="36.0" fill="#000000" transform="matrix(1.00, 0.00, -0.00, -1.00, 208.7, 353.0)">w</text><text xml:space="preserve" font-family="HelveticaNeue-Light" font-size="36.0" fill="#000000" transform="matrix(1.00, 0.00, -0.00, -1.00, 235.4, 353.0)">i</text><text xml:space="preserve" font-family="HelveticaNeue-Light" font-size="36.0" fill="#000000" transform="matrix(1.00, 0.00, -0.00, -1.00, 242.0, 353.0)">t</text><text xml:space="preserve" font-family="HelveticaNeue-Light" font-size="36.0" fill="#000000" transform="matrix(1.00, 0.00, -0.00, -1.00, 252.7, 353.0)">h</text><text xml:space="preserve" font-family="HelveticaNeue-Light" font-size="36.0" fill="#000000" transform="matrix(1.00, 0.00, -0.00, -1.00, 272.0, 353.0)"> </text><text xml:space="preserve" font-family="HelveticaNeue-Light" font-size="36.0" fill="#000000" transform="matrix(1.00, 0.00, -0.00, -1.00, 282.0, 353.0)">A</text><text xml:space="preserve" font-family="HelveticaNeue-Light" font-size="36.0" fill="#000000" transform="matrix(1.00, 0.00, -0.00, -1.00, 304.7, 353.0)">M</text><text xml:space="preserve" font-family="HelveticaNeue-Light" font-size="36.0" fill="#000000" transform="matrix(1.00, 0.00, -0.00, -1.00, 334.3, 353.0)">L</text><text xml:space="preserve" font-family="HelveticaNeue-Light" font-size="36.0" fill="#000000" transform="matrix(1.00, 0.00, -0.00, -1.00, 353.6, 353.0)"> </text><text xml:space="preserve" font-family="HelveticaNeue-Light" font-size="36.0" fill="#000000" transform="matrix(1.00, 0.00, -0.00, -1.00, 363.6, 353.0)">i</text><text xml:space="preserve" font-family="HelveticaNeue-Light" font-size="36.0" fill="#000000" transform="matrix(1.00, 0.00, -0.00, -1.00, 370.3, 353.0)">n</text><text xml:space="preserve" font-family="HelveticaNeue-Light" font-size="36.0" fill="#000000" transform="matrix(1.00, 0.00, -0.00, -1.00, 389.6, 353.0)"> </text><text xml:space="preserve" font-family="HelveticaNeue-Light" font-size="36.0" fill="#000000" transform="matrix(1.00, 0.00, -0.00, -1.00, 399.6, 353.0)">C</text><text xml:space="preserve" font-family="HelveticaNeue-Light" font-size="36.0" fill="#000000" transform="matrix(1.00, 0.00, -0.00, -1.00, 425.0, 353.0)">R</text><text xml:space="preserve" font-family="HelveticaNeue-Light" font-size="36.0" fill="#000000" transform="matrix(1.00, 0.00, -0.00, -1.00, 449.0, 353.0)">1</text><text xml:space="preserve" font-family="HelveticaNeue-Light" font-size="36.0" fill="#000000" transform="matrix(1.00, 0.00, -0.00, -1.00, 469.0, 353.0)"> </text><text xml:space="preserve" font-family="HelveticaNeue-Light" font-size="36.0" fill="#000000" transform="matrix(1.00, 0.00, -0.00, -1.00, 479.0, 353.0)">(</text><text xml:space="preserve" font-family="HelveticaNeue-Light" font-size="36.0" fill="#000000" transform="matrix(1.00, 0.00, -0.00, -1.00, 487.7, 353.0)">g</text><text xml:space="preserve" font-family="HelveticaNeue-Light" font-size="36.0" fill="#000000" transform="matrix(1.00, 0.00, -0.00, -1.00, 507.7, 353.0)">r</text><text xml:space="preserve" font-family="HelveticaNeue-Light" font-size="36.0" fill="#000000" transform="matrix(1.00, 0.00, -0.00, -1.00, 518.4, 353.0)">o</text><text xml:space="preserve" font-family="HelveticaNeue-Light" font-size="36.0" fill="#000000" transform="matrix(1.00, 0.00, -0.00, -1.00, 538.4, 353.0)">u</text><text xml:space="preserve" font-family="HelveticaNeue-Light" font-size="36.0" fill="#000000" transform="matrix(1.00, 0.00, -0.00, -1.00, 557.7, 353.0)">p</text><text xml:space="preserve" font-family="HelveticaNeue-Light" font-size="36.0" fill="#000000" transform="matrix(1.00, 0.00, -0.00, -1.00, 578.4, 353.0)"> </text><text xml:space="preserve" font-family="HelveticaNeue-Light" font-size="36.0" fill="#000000" transform="matrix(1.00, 0.00, -0.00, -1.00, 588.4, 353.0)">I</text><text xml:space="preserve" font-family="HelveticaNeue-Light" font-size="36.0" fill="#000000" transform="matrix(1.00, 0.00, -0.00, -1.00, 596.4, 353.0)">I</text><text xml:space="preserve" font-family="HelveticaNeue-Light" font-size="36.0" fill="#000000" transform="matrix(1.00, 0.00, -0.00, -1.00, 604.4, 353.0)">I</text><text xml:space="preserve" font-family="HelveticaNeue-Light" font-size="36.0" fill="#000000" transform="matrix(1.00, 0.00, -0.00, -1.00, 612.4, 353.0)">)</text><text xml:space="preserve" font-family="HelveticaNeue-Light" font-size="36.0" fill="#000000" transform="matrix(1.00, 0.00, -0.00, -1.00, 621.0, 353.0)"> </text><text xml:space="preserve" font-family="HelveticaNeue-Light" font-size="36.0" fill="#000000" transform="matrix(1.00, 0.00, -0.00, -1.00, 26.0, 265.0)">M</text><text xml:space="preserve" font-family="HelveticaNeue-Light" font-size="36.0" fill="#000000" transform="matrix(1.00, 0.00, -0.00, -1.00, 55.6, 265.0)">R</text><text xml:space="preserve" font-family="HelveticaNeue-Light" font-size="36.0" fill="#000000" transform="matrix(1.00, 0.00, -0.00, -1.00, 79.6, 265.0)">D</text><text xml:space="preserve" font-family="HelveticaNeue-Light" font-size="36.0" fill="#000000" transform="matrix(1.00, 0.00, -0.00, -1.00, 104.2, 265.0)">-</text><text xml:space="preserve" font-family="HelveticaNeue-Light" font-size="36.0" fill="#000000" transform="matrix(1.00, 0.00, -0.00, -1.00, 117.5, 265.0)">B</text><text xml:space="preserve" font-family="HelveticaNeue-Light" font-size="36.0" fill="#000000" transform="matrix(1.00, 0.00, -0.00, -1.00, 141.6, 265.0)">M</text><text xml:space="preserve" font-family="HelveticaNeue-Light" font-size="36.0" fill="#000000" transform="matrix(1.00, 0.00, -0.00, -1.00, 171.1, 265.0)">T</text><text xml:space="preserve" font-family="HelveticaNeue-Light" font-size="36.0" fill="#000000" transform="matrix(1.00, 0.00, -0.00, -1.00, 191.1, 265.0)"> </text><text xml:space="preserve" font-family="HelveticaNeue-Light" font-size="36.0" fill="#000000" transform="matrix(1.00, 0.00, -0.00, -1.00, 201.1, 265.0)">a</text><text xml:space="preserve" font-family="HelveticaNeue-Light" font-size="36.0" fill="#000000" transform="matrix(1.00, 0.00, -0.00, -1.00, 219.8, 265.0)">f</text><text xml:space="preserve" font-family="HelveticaNeue-Light" font-size="36.0" fill="#000000" transform="matrix(1.00, 0.00, -0.00, -1.00, 229.1, 265.0)">t</text><text xml:space="preserve" font-family="HelveticaNeue-Light" font-size="36.0" fill="#000000" transform="matrix(1.00, 0.00, -0.00, -1.00, 239.8, 265.0)">e</text><text xml:space="preserve" font-family="HelveticaNeue-Light" font-size="36.0" fill="#000000" transform="matrix(1.00, 0.00, -0.00, -1.00, 258.5, 265.0)">r</text><text xml:space="preserve" font-family="HelveticaNeue-Light" font-size="36.0" fill="#000000" transform="matrix(1.00, 0.00, -0.00, -1.00, 269.8, 265.0)"> </text><text xml:space="preserve" font-family="HelveticaNeue-Light" font-size="36.0" fill="#000000" transform="matrix(1.00, 0.00, -0.00, -1.00, 279.8, 265.0)">c</text><text xml:space="preserve" font-family="HelveticaNeue-Light" font-size="36.0" fill="#000000" transform="matrix(1.00, 0.00, -0.00, -1.00, 298.5, 265.0)">o</text><text xml:space="preserve" font-family="HelveticaNeue-Light" font-size="36.0" fill="#000000" transform="matrix(1.00, 0.00, -0.00, -1.00, 318.5, 265.0)">n</text><text xml:space="preserve" font-family="HelveticaNeue-Light" font-size="36.0" fill="#000000" transform="matrix(1.00, 0.00, -0.00, -1.00, 337.9, 265.0)">d</text><text xml:space="preserve" font-family="HelveticaNeue-Light" font-size="36.0" fill="#000000" transform="matrix(1.00, 0.00, -0.00, -1.00, 358.5, 265.0)">i</text><text xml:space="preserve" font-family="HelveticaNeue-Light" font-size="36.0" fill="#000000" transform="matrix(1.00, 0.00, -0.00, -1.00, 365.2, 265.0)">t</text><text xml:space="preserve" font-family="HelveticaNeue-Light" font-size="36.0" fill="#000000" transform="matrix(1.00, 0.00, -0.00, -1.00, 375.8, 265.0)">i</text><text xml:space="preserve" font-family="HelveticaNeue-Light" font-size="36.0" fill="#000000" transform="matrix(1.00, 0.00, -0.00, -1.00, 382.5, 265.0)">o</text><text xml:space="preserve" font-family="HelveticaNeue-Light" font-size="36.0" fill="#000000" transform="matrix(1.00, 0.00, -0.00, -1.00, 402.5, 265.0)">n</text><text xml:space="preserve" font-family="HelveticaNeue-Light" font-size="36.0" fill="#000000" transform="matrix(1.00, 0.00, -0.00, -1.00, 421.9, 265.0)">i</text><text xml:space="preserve" font-family="HelveticaNeue-Light" font-size="36.0" fill="#000000" transform="matrix(1.00, 0.00, -0.00, -1.00, 428.5, 265.0)">n</text><text xml:space="preserve" font-family="HelveticaNeue-Light" font-size="36.0" fill="#000000" transform="matrix(1.00, 0.00, -0.00, -1.00, 447.8, 265.0)">g</text><text xml:space="preserve" font-family="HelveticaNeue-Light" font-size="36.0" fill="#000000" transform="matrix(1.00, 0.00, -0.00, -1.00, 467.9, 265.0)"> </text><text xml:space="preserve" font-family="HelveticaNeue-Light" font-size="36.0" fill="#000000" transform="matrix(1.00, 0.00, -0.00, -1.00, 477.9, 265.0)">w</text><text xml:space="preserve" font-family="HelveticaNeue-Light" font-size="36.0" fill="#000000" transform="matrix(1.00, 0.00, -0.00, -1.00, 504.5, 265.0)">i</text><text xml:space="preserve" font-family="HelveticaNeue-Light" font-size="36.0" fill="#000000" transform="matrix(1.00, 0.00, -0.00, -1.00, 511.2, 265.0)">t</text><text xml:space="preserve" font-family="HelveticaNeue-Light" font-size="36.0" fill="#000000" transform="matrix(1.00, 0.00, -0.00, -1.00, 521.9, 265.0)">h</text><text xml:space="preserve" font-family="LucidaGrande" font-size="36.0" fill="#000000" transform="matrix(1.00, 0.00, -0.00, -1.00, 541.2, 265.0)"> </text><text xml:space="preserve" font-family="HelveticaNeue-Light" font-size="36.0" fill="#000000" transform="matrix(1.00, 0.00, -0.00, -1.00, 26.0, 221.0)">B</text><text xml:space="preserve" font-family="HelveticaNeue-Light" font-size="36.0" fill="#000000" transform="matrix(1.00, 0.00, -0.00, -1.00, 50.0, 221.0)">u</text><text xml:space="preserve" font-family="HelveticaNeue-Light" font-size="36.0" fill="#000000" transform="matrix(1.00, 0.00, -0.00, -1.00, 69.3, 221.0)"> </text><text xml:space="preserve" font-family="HelveticaNeue-Light" font-size="36.0" fill="#000000" transform="matrix(1.00, 0.00, -0.00, -1.00, 79.4, 221.0)">(</text><text xml:space="preserve" font-family="HelveticaNeue-Light" font-size="36.0" fill="#000000" transform="matrix(1.00, 0.00, -0.00, -1.00, 88.0, 221.0)">1</text><text xml:space="preserve" font-family="HelveticaNeue-Light" font-size="36.0" fill="#000000" transform="matrix(1.00, 0.00, -0.00, -1.00, 108.0, 221.0)">6</text><text xml:space="preserve" font-family="HelveticaNeue-Light" font-size="36.0" fill="#000000" transform="matrix(1.00, 0.00, -0.00, -1.00, 128.1, 221.0)">-</text><text xml:space="preserve" font-family="HelveticaNeue-Light" font-size="36.0" fill="#000000" transform="matrix(1.00, 0.00, -0.00, -1.00, 141.4, 221.0)">2</text><text xml:space="preserve" font-family="HelveticaNeue-Light" font-size="36.0" fill="#000000" transform="matrix(1.00, 0.00, -0.00, -1.00, 161.4, 221.0)">0</text><text xml:space="preserve" font-family="HelveticaNeue-Light" font-size="36.0" fill="#000000" transform="matrix(1.00, 0.00, -0.00, -1.00, 181.4, 221.0)"> </text><text xml:space="preserve" font-family="HelveticaNeue-Light" font-size="36.0" fill="#000000" transform="matrix(1.00, 0.00, -0.00, -1.00, 191.4, 221.0)">m</text><text xml:space="preserve" font-family="HelveticaNeue-Light" font-size="36.0" fill="#000000" transform="matrix(1.00, 0.00, -0.00, -1.00, 221.4, 221.0)">g</text><text xml:space="preserve" font-family="HelveticaNeue-Light" font-size="36.0" fill="#000000" transform="matrix(1.00, 0.00, -0.00, -1.00, 241.4, 221.0)">/</text><text xml:space="preserve" font-family="HelveticaNeue-Light" font-size="36.0" fill="#000000" transform="matrix(1.00, 0.00, -0.00, -1.00, 253.4, 221.0)">k</text><text xml:space="preserve" font-family="HelveticaNeue-Light" font-size="36.0" fill="#000000" transform="matrix(1.00, 0.00, -0.00, -1.00, 271.4, 221.0)">g</text><text xml:space="preserve" font-family="HelveticaNeue-Light" font-size="36.0" fill="#000000" transform="matrix(1.00, 0.00, -0.00, -1.00, 291.4, 221.0)">)</text><text xml:space="preserve" font-family="HelveticaNeue-Light" font-size="36.0" fill="#000000" transform="matrix(1.00, 0.00, -0.00, -1.00, 300.1, 221.0)"> </text><text xml:space="preserve" font-family="HelveticaNeue-Light" font-size="36.0" fill="#000000" transform="matrix(1.00, 0.00, -0.00, -1.00, 310.1, 221.0)">a</text><text xml:space="preserve" font-family="HelveticaNeue-Light" font-size="36.0" fill="#000000" transform="matrix(1.00, 0.00, -0.00, -1.00, 328.8, 221.0)">n</text><text xml:space="preserve" font-family="HelveticaNeue-Light" font-size="36.0" fill="#000000" transform="matrix(1.00, 0.00, -0.00, -1.00, 348.1, 221.0)">d</text><text xml:space="preserve" font-family="HelveticaNeue-Light" font-size="36.0" fill="#000000" transform="matrix(1.00, 0.00, -0.00, -1.00, 368.8, 221.0)"> </text><text xml:space="preserve" font-family="HelveticaNeue-Light" font-size="36.0" fill="#000000" transform="matrix(1.00, 0.00, -0.00, -1.00, 378.8, 221.0)">C</text><text xml:space="preserve" font-family="HelveticaNeue-Light" font-size="36.0" fill="#000000" transform="matrix(1.00, 0.00, -0.00, -1.00, 404.1, 221.0)">y</text><text xml:space="preserve" font-family="HelveticaNeue-Light" font-size="36.0" fill="#000000" transform="matrix(1.00, 0.00, -0.00, -1.00, 420.8, 221.0)"> </text><text xml:space="preserve" font-family="HelveticaNeue-Light" font-size="36.0" fill="#000000" transform="matrix(1.00, 0.00, -0.00, -1.00, 430.8, 221.0)">(</text><text xml:space="preserve" font-family="HelveticaNeue-Light" font-size="36.0" fill="#000000" transform="matrix(1.00, 0.00, -0.00, -1.00, 439.5, 221.0)">5</text><text xml:space="preserve" font-family="HelveticaNeue-Light" font-size="36.0" fill="#000000" transform="matrix(1.00, 0.00, -0.00, -1.00, 459.5, 221.0)">0</text><text xml:space="preserve" font-family="HelveticaNeue-Light" font-size="36.0" fill="#000000" transform="matrix(1.00, 0.00, -0.00, -1.00, 479.5, 221.0)"> </text><text xml:space="preserve" font-family="HelveticaNeue-Light" font-size="36.0" fill="#000000" transform="matrix(1.00, 0.00, -0.00, -1.00, 489.5, 221.0)">m</text><text xml:space="preserve" font-family="HelveticaNeue-Light" font-size="36.0" fill="#000000" transform="matrix(1.00, 0.00, -0.00, -1.00, 519.5, 221.0)">g</text><text xml:space="preserve" font-family="HelveticaNeue-Light" font-size="36.0" fill="#000000" transform="matrix(1.00, 0.00, -0.00, -1.00, 539.5, 221.0)">/</text><text xml:space="preserve" font-family="HelveticaNeue-Light" font-size="36.0" fill="#000000" transform="matrix(1.00, 0.00, -0.00, -1.00, 551.5, 221.0)">k</text><text xml:space="preserve" font-family="HelveticaNeue-Light" font-size="36.0" fill="#000000" transform="matrix(1.00, 0.00, -0.00, -1.00, 569.5, 221.0)">g</text><text xml:space="preserve" font-family="HelveticaNeue-Light" font-size="36.0" fill="#000000" transform="matrix(1.00, 0.00, -0.00, -1.00, 589.5, 221.0)">)</text><text xml:space="preserve" font-family="HelveticaNeue-Light" font-size="36.0" fill="#000000" transform="matrix(1.00, 0.00, -0.00, -1.00, 598.2, 221.0)"> </text><text xml:space="preserve" font-family="HelveticaNeue-Light" font-size="36.0" fill="#000000" transform="matrix(1.00, 0.00, -0.00, -1.00, 26.0, 133.0)">G</text><text xml:space="preserve" font-family="HelveticaNeue-Light" font-size="36.0" fill="#000000" transform="matrix(1.00, 0.00, -0.00, -1.00, 52.7, 133.0)">V</text><text xml:space="preserve" font-family="HelveticaNeue-Light" font-size="36.0" fill="#000000" transform="matrix(1.00, 0.00, -0.00, -1.00, 74.0, 133.0)">H</text><text xml:space="preserve" font-family="HelveticaNeue-Light" font-size="36.0" fill="#000000" transform="matrix(1.00, 0.00, -0.00, -1.00, 99.4, 133.0)">D</text><text xml:space="preserve" font-family="HelveticaNeue-Light" font-size="36.0" fill="#000000" transform="matrix(1.00, 0.00, -0.00, -1.00, 124.0, 133.0)"> </text><text xml:space="preserve" font-family="HelveticaNeue-Light" font-size="36.0" fill="#000000" transform="matrix(1.00, 0.00, -0.00, -1.00, 134.0, 133.0)">p</text><text xml:space="preserve" font-family="HelveticaNeue-Light" font-size="36.0" fill="#000000" transform="matrix(1.00, 0.00, -0.00, -1.00, 154.7, 133.0)">r</text><text xml:space="preserve" font-family="HelveticaNeue-Light" font-size="36.0" fill="#000000" transform="matrix(1.00, 0.00, -0.00, -1.00, 165.4, 133.0)">o</text><text xml:space="preserve" font-family="HelveticaNeue-Light" font-size="36.0" fill="#000000" transform="matrix(1.00, 0.00, -0.00, -1.00, 185.4, 133.0)">p</text><text xml:space="preserve" font-family="HelveticaNeue-Light" font-size="36.0" fill="#000000" transform="matrix(1.00, 0.00, -0.00, -1.00, 206.1, 133.0)">h</text><text xml:space="preserve" font-family="HelveticaNeue-Light" font-size="36.0" fill="#000000" transform="matrix(1.00, 0.00, -0.00, -1.00, 225.4, 133.0)">y</text><text xml:space="preserve" font-family="HelveticaNeue-Light" font-size="36.0" fill="#000000" transform="matrix(1.00, 0.00, -0.00, -1.00, 242.1, 133.0)">l</text><text xml:space="preserve" font-family="HelveticaNeue-Light" font-size="36.0" fill="#000000" transform="matrix(1.00, 0.00, -0.00, -1.00, 248.7, 133.0)">a</text><text xml:space="preserve" font-family="HelveticaNeue-Light" font-size="36.0" fill="#000000" transform="matrix(1.00, 0.00, -0.00, -1.00, 267.4, 133.0)">x</text><text xml:space="preserve" font-family="HelveticaNeue-Light" font-size="36.0" fill="#000000" transform="matrix(1.00, 0.00, -0.00, -1.00, 284.7, 133.0)">i</text><text xml:space="preserve" font-family="HelveticaNeue-Light" font-size="36.0" fill="#000000" transform="matrix(1.00, 0.00, -0.00, -1.00, 291.4, 133.0)">s</text><text xml:space="preserve" font-family="HelveticaNeue-Light" font-size="36.0" fill="#000000" transform="matrix(1.00, 0.00, -0.00, -1.00, 308.7, 133.0)"> </text><text xml:space="preserve" font-family="HelveticaNeue-Light" font-size="36.0" fill="#000000" transform="matrix(1.00, 0.00, -0.00, -1.00, 318.7, 133.0)">f</text><text xml:space="preserve" font-family="HelveticaNeue-Light" font-size="36.0" fill="#000000" transform="matrix(1.00, 0.00, -0.00, -1.00, 328.0, 133.0)">o</text><text xml:space="preserve" font-family="HelveticaNeue-Light" font-size="36.0" fill="#000000" transform="matrix(1.00, 0.00, -0.00, -1.00, 348.1, 133.0)">r</text><text xml:space="preserve" font-family="HelveticaNeue-Light" font-size="36.0" fill="#000000" transform="matrix(1.00, 0.00, -0.00, -1.00, 359.4, 133.0)"> </text><text xml:space="preserve" font-family="HelveticaNeue-Light" font-size="36.0" fill="#000000" transform="matrix(1.00, 0.00, -0.00, -1.00, 369.4, 133.0)">a</text><text xml:space="preserve" font-family="HelveticaNeue-Light" font-size="36.0" fill="#000000" transform="matrix(1.00, 0.00, -0.00, -1.00, 388.1, 133.0)">l</text><text xml:space="preserve" font-family="HelveticaNeue-Light" font-size="36.0" fill="#000000" transform="matrix(1.00, 0.00, -0.00, -1.00, 394.7, 133.0)">l</text><text xml:space="preserve" font-family="HelveticaNeue-Light" font-size="36.0" fill="#000000" transform="matrix(1.00, 0.00, -0.00, -1.00, 401.4, 133.0)"> </text><text xml:space="preserve" font-family="HelveticaNeue-Light" font-size="36.0" fill="#000000" transform="matrix(1.00, 0.00, -0.00, -1.00, 411.4, 133.0)">b</text><text xml:space="preserve" font-family="HelveticaNeue-Light" font-size="36.0" fill="#000000" transform="matrix(1.00, 0.00, -0.00, -1.00, 432.1, 133.0)">u</text><text xml:space="preserve" font-family="HelveticaNeue-Light" font-size="36.0" fill="#000000" transform="matrix(1.00, 0.00, -0.00, -1.00, 451.4, 133.0)">t</text><text xml:space="preserve" font-family="HelveticaNeue-Light" font-size="36.0" fill="#000000" transform="matrix(1.00, 0.00, -0.00, -1.00, 462.1, 133.0)"> </text><text xml:space="preserve" font-family="HelveticaNeue-Light" font-size="36.0" fill="#000000" transform="matrix(1.00, 0.00, -0.00, -1.00, 472.1, 133.0)">8</text><text xml:space="preserve" font-family="HelveticaNeue-Light" font-size="36.0" fill="#000000" transform="matrix(1.00, 0.00, -0.00, -1.00, 492.1, 133.0)"> </text><text xml:space="preserve" font-family="HelveticaNeue-Light" font-size="36.0" fill="#000000" transform="matrix(1.00, 0.00, -0.00, -1.00, 502.1, 133.0)">p</text><text xml:space="preserve" font-family="HelveticaNeue-Light" font-size="36.0" fill="#000000" transform="matrix(1.00, 0.00, -0.00, -1.00, 522.8, 133.0)">a</text><text xml:space="preserve" font-family="HelveticaNeue-Light" font-size="36.0" fill="#000000" transform="matrix(1.00, 0.00, -0.00, -1.00, 541.4, 133.0)">t</text><text xml:space="preserve" font-family="HelveticaNeue-Light" font-size="36.0" fill="#000000" transform="matrix(1.00, 0.00, -0.00, -1.00, 552.1, 133.0)">i</text><text xml:space="preserve" font-family="HelveticaNeue-Light" font-size="36.0" fill="#000000" transform="matrix(1.00, 0.00, -0.00, -1.00, 558.8, 133.0)">e</text><text xml:space="preserve" font-family="HelveticaNeue-Light" font-size="36.0" fill="#000000" transform="matrix(1.00, 0.00, -0.00, -1.00, 577.4, 133.0)">n</text><text xml:space="preserve" font-family="HelveticaNeue-Light" font-size="36.0" fill="#000000" transform="matrix(1.00, 0.00, -0.00, -1.00, 596.8, 133.0)">t</text><text xml:space="preserve" font-family="HelveticaNeue-Light" font-size="36.0" fill="#000000" transform="matrix(1.00, 0.00, -0.00, -1.00, 607.4, 133.0)">s</text><text xml:space="preserve" font-family="HelveticaNeue-Light" font-size="36.0" fill="#000000" transform="matrix(1.00, 0.00, -0.00, -1.00, 624.8, 133.0)">:</text><text xml:space="preserve" font-family="LucidaGrande" font-size="36.0" fill="#000000" transform="matrix(1.00, 0.00, -0.00, -1.00, 634.8, 133.0)"> </text><text xml:space="preserve" font-family="HelveticaNeue-Bold" font-weight="bold" font-size="36.0" fill="#000000" transform="matrix(1.00, 0.00, -0.00, -1.00, 26.0, 89.0)">C</text><text xml:space="preserve" font-family="HelveticaNeue-Bold" font-weight="bold" font-size="36.0" fill="#000000" transform="matrix(1.00, 0.00, -0.00, -1.00, 52.7, 89.0)">y</text><text xml:space="preserve" font-family="HelveticaNeue-Bold" font-weight="bold" font-size="36.0" fill="#000000" transform="matrix(1.00, 0.00, -0.00, -1.00, 71.4, 89.0)"> </text><text xml:space="preserve" font-family="HelveticaNeue-Bold" font-weight="bold" font-size="36.0" fill="#000000" transform="matrix(1.00, 0.00, -0.00, -1.00, 81.4, 89.0)">(</text><text xml:space="preserve" font-family="HelveticaNeue-Bold" font-weight="bold" font-size="36.0" fill="#000000" transform="matrix(1.00, 0.00, -0.00, -1.00, 92.0, 89.0)">7</text><text xml:space="preserve" font-family="HelveticaNeue-Bold" font-weight="bold" font-size="36.0" fill="#000000" transform="matrix(1.00, 0.00, -0.00, -1.00, 112.0, 89.0)">.</text><text xml:space="preserve" font-family="HelveticaNeue-Bold" font-weight="bold" font-size="36.0" fill="#000000" transform="matrix(1.00, 0.00, -0.00, -1.00, 122.0, 89.0)">5</text><text xml:space="preserve" font-family="HelveticaNeue-Bold" font-weight="bold" font-size="36.0" fill="#000000" transform="matrix(1.00, 0.00, -0.00, -1.00, 142.1, 89.0)"> </text><text xml:space="preserve" font-family="HelveticaNeue-Bold" font-weight="bold" font-size="36.0" fill="#000000" transform="matrix(1.00, 0.00, -0.00, -1.00, 152.1, 89.0)">m</text><text xml:space="preserve" font-family="HelveticaNeue-Bold" font-weight="bold" font-size="36.0" fill="#000000" transform="matrix(1.00, 0.00, -0.00, -1.00, 184.7, 89.0)">g</text><text xml:space="preserve" font-family="HelveticaNeue-Bold" font-weight="bold" font-size="36.0" fill="#000000" transform="matrix(1.00, 0.00, -0.00, -1.00, 206.7, 89.0)">/</text><text xml:space="preserve" font-family="HelveticaNeue-Bold" font-weight="bold" font-size="36.0" fill="#000000" transform="matrix(1.00, 0.00, -0.00, -1.00, 220.0, 89.0)">k</text><text xml:space="preserve" font-family="HelveticaNeue-Bold" font-weight="bold" font-size="36.0" fill="#000000" transform="matrix(1.00, 0.00, -0.00, -1.00, 240.7, 89.0)">g</text><text xml:space="preserve" font-family="HelveticaNeue-Bold" font-weight="bold" font-size="36.0" fill="#000000" transform="matrix(1.00, 0.00, -0.00, -1.00, 262.7, 89.0)">)</text><text xml:space="preserve" font-family="HelveticaNeue-Bold" font-weight="bold" font-size="36.0" fill="#000000" transform="matrix(1.00, 0.00, -0.00, -1.00, 273.4, 89.0)"> </text><text xml:space="preserve" font-family="HelveticaNeue-Bold" font-weight="bold" font-size="36.0" fill="#000000" transform="matrix(1.00, 0.00, -0.00, -1.00, 283.4, 89.0)">o</text><text xml:space="preserve" font-family="HelveticaNeue-Bold" font-weight="bold" font-size="36.0" fill="#000000" transform="matrix(1.00, 0.00, -0.00, -1.00, 305.4, 89.0)">n</text><text xml:space="preserve" font-family="HelveticaNeue-Bold" font-weight="bold" font-size="36.0" fill="#000000" transform="matrix(1.00, 0.00, -0.00, -1.00, 326.7, 89.0)"> </text><text xml:space="preserve" font-family="HelveticaNeue-Bold" font-weight="bold" font-size="36.0" fill="#000000" transform="matrix(1.00, 0.00, -0.00, -1.00, 336.7, 89.0)">d</text><text xml:space="preserve" font-family="HelveticaNeue-Bold" font-weight="bold" font-size="36.0" fill="#000000" transform="matrix(1.00, 0.00, -0.00, -1.00, 358.7, 89.0)">a</text><text xml:space="preserve" font-family="HelveticaNeue-Bold" font-weight="bold" font-size="36.0" fill="#000000" transform="matrix(1.00, 0.00, -0.00, -1.00, 379.4, 89.0)">y</text><text xml:space="preserve" font-family="HelveticaNeue-Bold" font-weight="bold" font-size="36.0" fill="#000000" transform="matrix(1.00, 0.00, -0.00, -1.00, 398.1, 89.0)">s</text><text xml:space="preserve" font-family="HelveticaNeue-Bold" font-weight="bold" font-size="36.0" fill="#000000" transform="matrix(1.00, 0.00, -0.00, -1.00, 417.4, 89.0)"> </text><text xml:space="preserve" font-family="HelveticaNeue-Bold" font-weight="bold" font-size="36.0" fill="#000000" transform="matrix(1.00, 0.00, -0.00, -1.00, 427.4, 89.0)">1</text><text xml:space="preserve" font-family="HelveticaNeue-Bold" font-weight="bold" font-size="36.0" fill="#000000" transform="matrix(1.00, 0.00, -0.00, -1.00, 447.4, 89.0)">,</text><text xml:space="preserve" font-family="HelveticaNeue-Bold" font-weight="bold" font-size="36.0" fill="#000000" transform="matrix(1.00, 0.00, -0.00, -1.00, 457.4, 89.0)"> </text><text xml:space="preserve" font-family="HelveticaNeue-Bold" font-weight="bold" font-size="36.0" fill="#000000" transform="matrix(1.00, 0.00, -0.00, -1.00, 467.4, 89.0)">3</text><text xml:space="preserve" font-family="HelveticaNeue-Bold" font-weight="bold" font-size="36.0" fill="#000000" transform="matrix(1.00, 0.00, -0.00, -1.00, 487.4, 89.0)">,</text><text xml:space="preserve" font-family="HelveticaNeue-Bold" font-weight="bold" font-size="36.0" fill="#000000" transform="matrix(1.00, 0.00, -0.00, -1.00, 497.5, 89.0)"> </text><text xml:space="preserve" font-family="HelveticaNeue-Bold" font-weight="bold" font-size="36.0" fill="#000000" transform="matrix(1.00, 0.00, -0.00, -1.00, 507.5, 89.0)">5</text><text xml:space="preserve" font-family="HelveticaNeue-Bold" font-weight="bold" font-size="36.0" fill="#000000" transform="matrix(1.00, 0.00, -0.00, -1.00, 527.5, 89.0)">,</text><text xml:space="preserve" font-family="HelveticaNeue-Bold" font-weight="bold" font-size="36.0" fill="#000000" transform="matrix(1.00, 0.00, -0.00, -1.00, 537.5, 89.0)"> </text><text xml:space="preserve" font-family="HelveticaNeue-Bold" font-weight="bold" font-size="36.0" fill="#000000" transform="matrix(1.00, 0.00, -0.00, -1.00, 547.5, 89.0)">7</text><text xml:space="preserve" font-family="HelveticaNeue-Bold" font-weight="bold" font-size="36.0" fill="#000000" transform="matrix(1.00, 0.00, -0.00, -1.00, 567.5, 89.0)">,</text><text xml:space="preserve" font-family="HelveticaNeue-Bold" font-weight="bold" font-size="36.0" fill="#000000" transform="matrix(1.00, 0.00, -0.00, -1.00, 577.5, 89.0)"> </text><text xml:space="preserve" font-family="HelveticaNeue-Bold" font-weight="bold" font-size="36.0" fill="#000000" transform="matrix(1.00, 0.00, -0.00, -1.00, 587.5, 89.0)">a</text><text xml:space="preserve" font-family="HelveticaNeue-Bold" font-weight="bold" font-size="36.0" fill="#000000" transform="matrix(1.00, 0.00, -0.00, -1.00, 608.2, 89.0)">n</text><text xml:space="preserve" font-family="HelveticaNeue-Bold" font-weight="bold" font-size="36.0" fill="#000000" transform="matrix(1.00, 0.00, -0.00, -1.00, 629.5, 89.0)">d</text><text xml:space="preserve" font-family="HelveticaNeue-Bold" font-weight="bold" font-size="36.0" fill="#000000" transform="matrix(1.00, 0.00, -0.00, -1.00, 651.5, 89.0)"> </text><text xml:space="preserve" font-family="HelveticaNeue-Bold" font-weight="bold" font-size="36.0" fill="#000000" transform="matrix(1.00, 0.00, -0.00, -1.00, 661.5, 89.0)">9</text><text xml:space="preserve" font-family="HelveticaNeue-Light" font-size="36.0" fill="#000000" transform="matrix(1.00, 0.00, -0.00, -1.00, 681.6, 89.0)"> </text></g></svg>