<?xml version="1.0" encoding="UTF-8" standalone="no"?><svg xmlns="http://www.w3.org/2000/svg" xmlns:xlink="http://www.w3.org/1999/xlink" clip-rule="evenodd" stroke-miterlimit="4.00" viewBox="0 0 364 153"><desc>SVG generated by Keynote</desc><defs></defs><g transform="matrix(1.00, 0.00, -0.00, -1.00, 0.0, 153.0)"><g><clipPath id="clip-26"><path d="M 254.0 133.0 L 364.0 133.0 L 364.0 0.0 L 254.0 0.0 Z M 253.5 133.3 "></path></clipPath><g clip-path="url(#clip-26)"><g><clipPath id="clip-27"><path d="M 309.2 0.9 C 299.2 2.5 290.4 9.9 287.2 19.1 C 286.2 22.2 285.8 20.6 285.8 13.2 C 285.7 5.8 285.0 1.3 283.9 1.3 C 283.7 1.3 281.6 1.8 279.4 2.4 L 275.0 3.5 L 275.0 19.5 C 274.9 29.6 275.3 37.7 275.7 41.4 C 276.0 44.6 276.3 47.8 276.3 48.4 C 276.3 49.4 275.8 49.7 271.2 51.5 C 268.3 52.6 264.0 54.4 261.6 55.4 C 259.2 56.5 256.9 57.4 256.5 57.4 C 256.1 57.4 255.3 57.9 254.7 58.6 C 253.7 59.5 253.5 60.2 253.5 62.4 C 253.5 66.4 255.1 68.8 258.4 69.9 C 258.9 70.0 259.2 70.6 259.2 71.9 C 259.2 74.3 260.7 77.6 262.1 78.2 C 263.0 78.6 264.2 78.5 266.9 78.0 C 273.3 76.6 282.4 76.1 287.0 76.7 C 290.8 77.3 291.2 77.4 292.9 79.1 L 294.7 81.0 L 290.2 85.6 C 283.3 92.6 279.9 98.6 278.3 106.6 C 275.6 119.6 280.8 129.0 292.4 132.1 C 296.3 133.2 304.7 133.6 309.7 132.9 C 319.4 131.6 330.1 128.0 337.3 123.6 C 359.1 110.4 367.9 84.4 361.5 52.3 C 359.2 41.0 354.6 29.5 348.9 20.7 C 345.3 15.1 342.0 11.7 337.3 8.5 C 327.5 1.9 318.1 -0.6 309.2 0.9 "></path></clipPath><g clip-path="url(#clip-27)"><g><clipPath id="clip-28"><path d="M 253.5 0.5 L 363.6 0.5 L 363.6 133.3 L 253.5 133.3 Z M 253.5 0.5 "></path></clipPath><g clip-path="url(#clip-28)"><image xlink:href="6DDDAEBF6BEDCACC83624657A88D5071.jpeg" width="136.00" height="193.00" transform="matrix(1.00, 0.00, -0.00, -1.00, 241.0, 170.0)"></image></g></g></g></g></g></g><g><clipPath id="clip-29"><path d="M 0.8 46.7 L 250.5 92.9 L 257.8 53.2 L 8.2 7.0 Z M 0.8 46.7 "></path></clipPath><g clip-path="url(#clip-29)"><path d="M 0.0 0.0 L 213.5 0.0 L 218.5 0.0 " fill="none" stroke="#ABABAB" stroke-width="10.00" transform="matrix(0.98, 0.18, 0.18, -0.98, 5.5, 27.0)"></path><path d="M 218.9 47.0 L 253.2 72.9 L 211.9 84.8 Z M 218.9 47.0 " fill="#ABABAB"></path></g></g><g><clipPath id="clip-30"><path d="M 141.9 152.7 L 264.8 87.8 L 245.9 52.0 L 123.0 117.0 Z M 141.9 152.7 "></path></clipPath><g clip-path="url(#clip-30)"><path d="M 0.0 0.0 L 98.6 0.0 L 103.6 0.0 " fill="none" stroke="#ABABAB" stroke-width="10.00" transform="matrix(0.88, -0.47, -0.47, -0.88, 133.4, 134.4)"></path><path d="M 211.6 71.3 L 254.5 70.4 L 229.5 105.3 Z M 211.6 71.3 " fill="#ABABAB"></path></g></g></g></svg>