<?xml version="1.0" encoding="UTF-8" standalone="no"?><svg xmlns="http://www.w3.org/2000/svg" xmlns:xlink="http://www.w3.org/1999/xlink" clip-rule="evenodd" stroke-miterlimit="4.00" viewBox="0 0 591 226"><desc>SVG generated by Keynote</desc><defs></defs><g transform="matrix(1.00, 0.00, -0.00, -1.00, 0.0, 226.0)"><g><clipPath id="clip-19"><path d="M 0.9 62.1 L 224.0 62.1 L 224.0 164.1 L 0.9 164.1 Z M 0.9 62.1 "></path></clipPath><g clip-path="url(#clip-19)"><path d="M 159.0 85.8 L 159.0 63.1 L 223.0 113.1 L 159.0 163.1 L 159.0 140.3 L 1.9 140.3 L 1.9 85.8 Z M 159.0 85.8 " fill="#325D6A"></path></g></g><g><clipPath id="clip-20"><path d="M -4.8 63.1 L 223.0 63.1 L 223.0 163.1 L -4.8 163.1 Z M -4.8 63.1 "></path></clipPath><g clip-path="url(#clip-20)"><text xml:space="preserve" font-family="HelveticaNeue-Bold" font-weight="bold" font-size="36.0" fill="#FFFFFF" transform="matrix(1.00, 0.00, -0.00, -1.00, 47.0, 100.0)">A</text><text xml:space="preserve" font-family="HelveticaNeue-Bold" font-weight="bold" font-size="36.0" fill="#FFFFFF" transform="matrix(1.00, 0.00, -0.00, -1.00, 71.7, 100.0)">L</text><text xml:space="preserve" font-family="HelveticaNeue-Bold" font-weight="bold" font-size="36.0" fill="#FFFFFF" transform="matrix(1.00, 0.00, -0.00, -1.00, 93.0, 100.0)">D</text><text xml:space="preserve" font-family="HelveticaNeue-Bold" font-weight="bold" font-size="36.0" fill="#FFFFFF" transform="matrix(1.00, 0.00, -0.00, -1.00, 119.7, 100.0)">H</text></g></g><g><clipPath id="clip-21"><path d="M 227.0 225.0 L 527.0 225.0 L 527.0 57.0 L 227.0 57.0 Z M 227.3 225.2 "></path></clipPath><g clip-path="url(#clip-21)"><g><clipPath id="clip-22"><path d="M 227.3 56.5 L 527.3 56.5 L 527.3 225.2 L 227.3 225.2 Z M 227.3 56.5 "></path></clipPath><g clip-path="url(#clip-22)"><image xlink:href="7A0D653241529719C3EBEC58DE4F868A.jpeg" width="300.00" height="300.00" transform="matrix(1.00, 0.00, -0.00, -1.00, 227.0, 291.0)"></image></g></g></g></g><g><clipPath id="clip-23"><path d="M 158.2 -6.2 L 596.5 -6.2 L 596.5 59.0 L 158.2 59.0 Z M 158.2 -6.2 "></path></clipPath><g clip-path="url(#clip-23)"><text xml:space="preserve" font-family="HelveticaNeue-Light" font-size="36.0" fill="#000000" transform="matrix(1.00, 0.00, -0.00, -1.00, 169.0, 13.0)">c</text><text xml:space="preserve" font-family="HelveticaNeue-Light" font-size="36.0" fill="#000000" transform="matrix(1.00, 0.00, -0.00, -1.00, 187.7, 13.0)">a</text><text xml:space="preserve" font-family="HelveticaNeue-Light" font-size="36.0" fill="#000000" transform="matrix(1.00, 0.00, -0.00, -1.00, 206.4, 13.0)">r</text><text xml:space="preserve" font-family="HelveticaNeue-Light" font-size="36.0" fill="#000000" transform="matrix(1.00, 0.00, -0.00, -1.00, 217.7, 13.0)">b</text><text xml:space="preserve" font-family="HelveticaNeue-Light" font-size="36.0" fill="#000000" transform="matrix(1.00, 0.00, -0.00, -1.00, 238.4, 13.0)">o</text><text xml:space="preserve" font-family="HelveticaNeue-Light" font-size="36.0" fill="#000000" transform="matrix(1.00, 0.00, -0.00, -1.00, 258.4, 13.0)">x</text><text xml:space="preserve" font-family="HelveticaNeue-Light" font-size="36.0" fill="#000000" transform="matrix(1.00, 0.00, -0.00, -1.00, 275.7, 13.0)">y</text><text xml:space="preserve" font-family="HelveticaNeue-Light" font-size="36.0" fill="#000000" transform="matrix(1.00, 0.00, -0.00, -1.00, 292.4, 13.0)">c</text><text xml:space="preserve" font-family="HelveticaNeue-Light" font-size="36.0" fill="#000000" transform="matrix(1.00, 0.00, -0.00, -1.00, 311.1, 13.0)">y</text><text xml:space="preserve" font-family="HelveticaNeue-Light" font-size="36.0" fill="#000000" transform="matrix(1.00, 0.00, -0.00, -1.00, 327.7, 13.0)">c</text><text xml:space="preserve" font-family="HelveticaNeue-Light" font-size="36.0" fill="#000000" transform="matrix(1.00, 0.00, -0.00, -1.00, 346.4, 13.0)">l</text><text xml:space="preserve" font-family="HelveticaNeue-Light" font-size="36.0" fill="#000000" transform="matrix(1.00, 0.00, -0.00, -1.00, 353.1, 13.0)">o</text><text xml:space="preserve" font-family="HelveticaNeue-Light" font-size="36.0" fill="#000000" transform="matrix(1.00, 0.00, -0.00, -1.00, 373.1, 13.0)">p</text><text xml:space="preserve" font-family="HelveticaNeue-Light" font-size="36.0" fill="#000000" transform="matrix(1.00, 0.00, -0.00, -1.00, 393.7, 13.0)">h</text><text xml:space="preserve" font-family="HelveticaNeue-Light" font-size="36.0" fill="#000000" transform="matrix(1.00, 0.00, -0.00, -1.00, 413.1, 13.0)">o</text><text xml:space="preserve" font-family="HelveticaNeue-Light" font-size="36.0" fill="#000000" transform="matrix(1.00, 0.00, -0.00, -1.00, 433.1, 13.0)">s</text><text xml:space="preserve" font-family="HelveticaNeue-Light" font-size="36.0" fill="#000000" transform="matrix(1.00, 0.00, -0.00, -1.00, 450.4, 13.0)">p</text><text xml:space="preserve" font-family="HelveticaNeue-Light" font-size="36.0" fill="#000000" transform="matrix(1.00, 0.00, -0.00, -1.00, 471.1, 13.0)">h</text><text xml:space="preserve" font-family="HelveticaNeue-Light" font-size="36.0" fill="#000000" transform="matrix(1.00, 0.00, -0.00, -1.00, 490.4, 13.0)">a</text><text xml:space="preserve" font-family="HelveticaNeue-Light" font-size="36.0" fill="#000000" transform="matrix(1.00, 0.00, -0.00, -1.00, 509.1, 13.0)">m</text><text xml:space="preserve" font-family="HelveticaNeue-Light" font-size="36.0" fill="#000000" transform="matrix(1.00, 0.00, -0.00, -1.00, 539.1, 13.0)">i</text><text xml:space="preserve" font-family="HelveticaNeue-Light" font-size="36.0" fill="#000000" transform="matrix(1.00, 0.00, -0.00, -1.00, 545.7, 13.0)">d</text><text xml:space="preserve" font-family="HelveticaNeue-Light" font-size="36.0" fill="#000000" transform="matrix(1.00, 0.00, -0.00, -1.00, 566.4, 13.0)">e</text></g></g></g></svg>