<?xml version="1.0" encoding="UTF-8" standalone="no"?><svg xmlns="http://www.w3.org/2000/svg" xmlns:xlink="http://www.w3.org/1999/xlink" clip-rule="evenodd" stroke-miterlimit="4.00" viewBox="0 0 1024 768"><desc>SVG generated by Keynote</desc><defs></defs><g transform="matrix(1.00, 0.00, -0.00, -1.00, 0.0, 768.0)"><path d="M 0.0 768.0 L 1024.0 768.0 L 1024.0 0.0 L 0.0 0.0 Z M 0.0 768.0 " fill="#FEFFFE"></path><g><clipPath id="clip-1311"><path d="M 0.0 763.0 L 1024.0 763.0 L 1024.0 446.0 L 0.0 446.0 Z M 0.0 762.8 "></path></clipPath><g clip-path="url(#clip-1311)"><g><clipPath id="clip-1312"><path d="M 0.0 446.0 L 1024.0 446.0 L 1024.0 763.0 L 0.0 763.0 Z M 0.0 446.0 "></path></clipPath><g clip-path="url(#clip-1312)"><image xlink:href="../../D8108B70-9D49-4276-BEC4-D1263471C883/assets/E94D3A2544F893E3F88484E62BD73FB1.png" width="2662.00" height="824.00" transform="matrix(0.38, 0.00, -0.00, -0.38, 0.0, 763.0)"></image></g></g></g></g><text xml:space="preserve" font-family="HelveticaNeue-Light" font-size="36.0" fill="#000000" transform="matrix(1.00, 0.00, -0.00, -1.00, 15.0, 382.0)">T</text><text xml:space="preserve" font-family="HelveticaNeue-Light" font-size="36.0" fill="#000000" transform="matrix(1.00, 0.00, -0.00, -1.00, 31.7, 382.0)">r</text><text xml:space="preserve" font-family="HelveticaNeue-Light" font-size="36.0" fill="#000000" transform="matrix(1.00, 0.00, -0.00, -1.00, 42.4, 382.0)">e</text><text xml:space="preserve" font-family="HelveticaNeue-Light" font-size="36.0" fill="#000000" transform="matrix(1.00, 0.00, -0.00, -1.00, 61.1, 382.0)">g</text><text xml:space="preserve" font-family="HelveticaNeue-Light" font-size="36.0" fill="#000000" transform="matrix(1.00, 0.00, -0.00, -1.00, 81.1, 382.0)">s</text><text xml:space="preserve" font-family="HelveticaNeue-Light" font-size="36.0" fill="#000000" transform="matrix(1.00, 0.00, -0.00, -1.00, 98.4, 382.0)"> </text><text xml:space="preserve" font-family="HelveticaNeue-Light" font-size="36.0" fill="#000000" transform="matrix(1.00, 0.00, -0.00, -1.00, 108.4, 382.0)">a</text><text xml:space="preserve" font-family="HelveticaNeue-Light" font-size="36.0" fill="#000000" transform="matrix(1.00, 0.00, -0.00, -1.00, 127.1, 382.0)">r</text><text xml:space="preserve" font-family="HelveticaNeue-Light" font-size="36.0" fill="#000000" transform="matrix(1.00, 0.00, -0.00, -1.00, 137.8, 382.0)">e</text><text xml:space="preserve" font-family="HelveticaNeue-Light" font-size="36.0" fill="#000000" transform="matrix(1.00, 0.00, -0.00, -1.00, 156.5, 382.0)"> </text><text xml:space="preserve" font-family="HelveticaNeue-Light" font-size="36.0" fill="#000000" transform="matrix(1.00, 0.00, -0.00, -1.00, 166.5, 382.0)">r</text><text xml:space="preserve" font-family="HelveticaNeue-Light" font-size="36.0" fill="#000000" transform="matrix(1.00, 0.00, -0.00, -1.00, 177.2, 382.0)">e</text><text xml:space="preserve" font-family="HelveticaNeue-Light" font-size="36.0" fill="#000000" transform="matrix(1.00, 0.00, -0.00, -1.00, 195.9, 382.0)">s</text><text xml:space="preserve" font-family="HelveticaNeue-Light" font-size="36.0" fill="#000000" transform="matrix(1.00, 0.00, -0.00, -1.00, 213.2, 382.0)">i</text><text xml:space="preserve" font-family="HelveticaNeue-Light" font-size="36.0" fill="#000000" transform="matrix(1.00, 0.00, -0.00, -1.00, 219.8, 382.0)">s</text><text xml:space="preserve" font-family="HelveticaNeue-Light" font-size="36.0" fill="#000000" transform="matrix(1.00, 0.00, -0.00, -1.00, 237.2, 382.0)">t</text><text xml:space="preserve" font-family="HelveticaNeue-Light" font-size="36.0" fill="#000000" transform="matrix(1.00, 0.00, -0.00, -1.00, 247.8, 382.0)">a</text><text xml:space="preserve" font-family="HelveticaNeue-Light" font-size="36.0" fill="#000000" transform="matrix(1.00, 0.00, -0.00, -1.00, 266.5, 382.0)">n</text><text xml:space="preserve" font-family="HelveticaNeue-Light" font-size="36.0" fill="#000000" transform="matrix(1.00, 0.00, -0.00, -1.00, 285.8, 382.0)">t</text><text xml:space="preserve" font-family="HelveticaNeue-Light" font-size="36.0" fill="#000000" transform="matrix(1.00, 0.00, -0.00, -1.00, 296.5, 382.0)"> </text><text xml:space="preserve" font-family="HelveticaNeue-Light" font-size="36.0" fill="#000000" transform="matrix(1.00, 0.00, -0.00, -1.00, 306.5, 382.0)">t</text><text xml:space="preserve" font-family="HelveticaNeue-Light" font-size="36.0" fill="#000000" transform="matrix(1.00, 0.00, -0.00, -1.00, 317.1, 382.0)">o</text><text xml:space="preserve" font-family="HelveticaNeue-Light" font-size="36.0" fill="#000000" transform="matrix(1.00, 0.00, -0.00, -1.00, 337.2, 382.0)"> </text><text xml:space="preserve" font-family="HelveticaNeue-Light" font-size="36.0" fill="#000000" transform="matrix(1.00, 0.00, -0.00, -1.00, 347.2, 382.0)">C</text><text xml:space="preserve" font-family="HelveticaNeue-Light" font-size="36.0" fill="#000000" transform="matrix(1.00, 0.00, -0.00, -1.00, 372.5, 382.0)">y</text><text xml:space="preserve" font-family="HelveticaNeue-Light" font-size="36.0" fill="#000000" transform="matrix(1.00, 0.00, -0.00, -1.00, 389.2, 382.0)"> </text><text xml:space="preserve" font-family="HelveticaNeue-Light" font-size="36.0" fill="#000000" transform="matrix(1.00, 0.00, -0.00, -1.00, 399.2, 382.0)">d</text><text xml:space="preserve" font-family="HelveticaNeue-Light" font-size="36.0" fill="#000000" transform="matrix(1.00, 0.00, -0.00, -1.00, 419.9, 382.0)">u</text><text xml:space="preserve" font-family="HelveticaNeue-Light" font-size="36.0" fill="#000000" transform="matrix(1.00, 0.00, -0.00, -1.00, 439.2, 382.0)">r</text><text xml:space="preserve" font-family="HelveticaNeue-Light" font-size="36.0" fill="#000000" transform="matrix(1.00, 0.00, -0.00, -1.00, 450.5, 382.0)">i</text><text xml:space="preserve" font-family="HelveticaNeue-Light" font-size="36.0" fill="#000000" transform="matrix(1.00, 0.00, -0.00, -1.00, 457.2, 382.0)">n</text><text xml:space="preserve" font-family="HelveticaNeue-Light" font-size="36.0" fill="#000000" transform="matrix(1.00, 0.00, -0.00, -1.00, 476.5, 382.0)">g</text><text xml:space="preserve" font-family="HelveticaNeue-Light" font-size="36.0" fill="#000000" transform="matrix(1.00, 0.00, -0.00, -1.00, 496.5, 382.0)"> </text><text xml:space="preserve" font-family="HelveticaNeue-Light" font-size="36.0" fill="#000000" transform="matrix(1.00, 0.00, -0.00, -1.00, 506.5, 382.0)">a</text><text xml:space="preserve" font-family="HelveticaNeue-Light" font-size="36.0" fill="#000000" transform="matrix(1.00, 0.00, -0.00, -1.00, 525.2, 382.0)">l</text><text xml:space="preserve" font-family="HelveticaNeue-Light" font-size="36.0" fill="#000000" transform="matrix(1.00, 0.00, -0.00, -1.00, 531.9, 382.0)">l</text><text xml:space="preserve" font-family="HelveticaNeue-Light" font-size="36.0" fill="#000000" transform="matrix(1.00, 0.00, -0.00, -1.00, 538.5, 382.0)">o</text><text xml:space="preserve" font-family="HelveticaNeue-Light" font-size="36.0" fill="#000000" transform="matrix(1.00, 0.00, -0.00, -1.00, 558.6, 382.0)">i</text><text xml:space="preserve" font-family="HelveticaNeue-Light" font-size="36.0" fill="#000000" transform="matrix(1.00, 0.00, -0.00, -1.00, 565.2, 382.0)">m</text><text xml:space="preserve" font-family="HelveticaNeue-Light" font-size="36.0" fill="#000000" transform="matrix(1.00, 0.00, -0.00, -1.00, 595.2, 382.0)">m</text><text xml:space="preserve" font-family="HelveticaNeue-Light" font-size="36.0" fill="#000000" transform="matrix(1.00, 0.00, -0.00, -1.00, 625.2, 382.0)">u</text><text xml:space="preserve" font-family="HelveticaNeue-Light" font-size="36.0" fill="#000000" transform="matrix(1.00, 0.00, -0.00, -1.00, 644.5, 382.0)">n</text><text xml:space="preserve" font-family="HelveticaNeue-Light" font-size="36.0" fill="#000000" transform="matrix(1.00, 0.00, -0.00, -1.00, 663.9, 382.0)">e</text><text xml:space="preserve" font-family="HelveticaNeue-Light" font-size="36.0" fill="#000000" transform="matrix(1.00, 0.00, -0.00, -1.00, 682.5, 382.0)"> </text><text xml:space="preserve" font-family="HelveticaNeue-Light" font-size="36.0" fill="#000000" transform="matrix(1.00, 0.00, -0.00, -1.00, 692.6, 382.0)">r</text><text xml:space="preserve" font-family="HelveticaNeue-Light" font-size="36.0" fill="#000000" transform="matrix(1.00, 0.00, -0.00, -1.00, 703.2, 382.0)">e</text><text xml:space="preserve" font-family="HelveticaNeue-Light" font-size="36.0" fill="#000000" transform="matrix(1.00, 0.00, -0.00, -1.00, 721.9, 382.0)">s</text><text xml:space="preserve" font-family="HelveticaNeue-Light" font-size="36.0" fill="#000000" transform="matrix(1.00, 0.00, -0.00, -1.00, 739.2, 382.0)">p</text><text xml:space="preserve" font-family="HelveticaNeue-Light" font-size="36.0" fill="#000000" transform="matrix(1.00, 0.00, -0.00, -1.00, 759.9, 382.0)">o</text><text xml:space="preserve" font-family="HelveticaNeue-Light" font-size="36.0" fill="#000000" transform="matrix(1.00, 0.00, -0.00, -1.00, 779.9, 382.0)">n</text><text xml:space="preserve" font-family="HelveticaNeue-Light" font-size="36.0" fill="#000000" transform="matrix(1.00, 0.00, -0.00, -1.00, 799.3, 382.0)">s</text><text xml:space="preserve" font-family="HelveticaNeue-Light" font-size="36.0" fill="#000000" transform="matrix(1.00, 0.00, -0.00, -1.00, 816.6, 382.0)">e</text><text xml:space="preserve" font-family="HelveticaNeue-Light" font-size="36.0" fill="#000000" transform="matrix(1.00, 0.00, -0.00, -1.00, 835.3, 382.0)">s</text><text xml:space="preserve" font-family="HelveticaNeue-Light" font-size="36.0" fill="#000000" transform="matrix(1.00, 0.00, -0.00, -1.00, 852.6, 382.0)"> </text><text xml:space="preserve" font-family="HelveticaNeue-Light" font-size="36.0" fill="#000000" transform="matrix(1.00, 0.00, -0.00, -1.00, 862.6, 382.0)">t</text><text xml:space="preserve" font-family="HelveticaNeue-Light" font-size="36.0" fill="#000000" transform="matrix(1.00, 0.00, -0.00, -1.00, 873.2, 382.0)">h</text><text xml:space="preserve" font-family="HelveticaNeue-Light" font-size="36.0" fill="#000000" transform="matrix(1.00, 0.00, -0.00, -1.00, 892.6, 382.0)">r</text><text xml:space="preserve" font-family="HelveticaNeue-Light" font-size="36.0" fill="#000000" transform="matrix(1.00, 0.00, -0.00, -1.00, 903.3, 382.0)">o</text><text xml:space="preserve" font-family="HelveticaNeue-Light" font-size="36.0" fill="#000000" transform="matrix(1.00, 0.00, -0.00, -1.00, 923.3, 382.0)">u</text><text xml:space="preserve" font-family="HelveticaNeue-Light" font-size="36.0" fill="#000000" transform="matrix(1.00, 0.00, -0.00, -1.00, 942.6, 382.0)">g</text><text xml:space="preserve" font-family="HelveticaNeue-Light" font-size="36.0" fill="#000000" transform="matrix(1.00, 0.00, -0.00, -1.00, 962.6, 382.0)">h</text><text xml:space="preserve" font-family="HelveticaNeue-Light" font-size="36.0" fill="#000000" transform="matrix(1.00, 0.00, -0.00, -1.00, 982.0, 382.0)"> </text><text xml:space="preserve" font-family="HelveticaNeue-Light" font-size="36.0" fill="#000000" transform="matrix(1.00, 0.00, -0.00, -1.00, 15.0, 338.0)">e</text><text xml:space="preserve" font-family="HelveticaNeue-Light" font-size="36.0" fill="#000000" transform="matrix(1.00, 0.00, -0.00, -1.00, 33.7, 338.0)">x</text><text xml:space="preserve" font-family="HelveticaNeue-Light" font-size="36.0" fill="#000000" transform="matrix(1.00, 0.00, -0.00, -1.00, 51.0, 338.0)">p</text><text xml:space="preserve" font-family="HelveticaNeue-Light" font-size="36.0" fill="#000000" transform="matrix(1.00, 0.00, -0.00, -1.00, 71.7, 338.0)">r</text><text xml:space="preserve" font-family="HelveticaNeue-Light" font-size="36.0" fill="#000000" transform="matrix(1.00, 0.00, -0.00, -1.00, 82.4, 338.0)">e</text><text xml:space="preserve" font-family="HelveticaNeue-Light" font-size="36.0" fill="#000000" transform="matrix(1.00, 0.00, -0.00, -1.00, 101.0, 338.0)">s</text><text xml:space="preserve" font-family="HelveticaNeue-Light" font-size="36.0" fill="#000000" transform="matrix(1.00, 0.00, -0.00, -1.00, 118.4, 338.0)">s</text><text xml:space="preserve" font-family="HelveticaNeue-Light" font-size="36.0" fill="#000000" transform="matrix(1.00, 0.00, -0.00, -1.00, 135.7, 338.0)">i</text><text xml:space="preserve" font-family="HelveticaNeue-Light" font-size="36.0" fill="#000000" transform="matrix(1.00, 0.00, -0.00, -1.00, 142.3, 338.0)">o</text><text xml:space="preserve" font-family="HelveticaNeue-Light" font-size="36.0" fill="#000000" transform="matrix(1.00, 0.00, -0.00, -1.00, 162.3, 338.0)">n</text><text xml:space="preserve" font-family="HelveticaNeue-Light" font-size="36.0" fill="#000000" transform="matrix(1.00, 0.00, -0.00, -1.00, 181.7, 338.0)"> </text><text xml:space="preserve" font-family="HelveticaNeue-Light" font-size="36.0" fill="#000000" transform="matrix(1.00, 0.00, -0.00, -1.00, 191.7, 338.0)">o</text><text xml:space="preserve" font-family="HelveticaNeue-Light" font-size="36.0" fill="#000000" transform="matrix(1.00, 0.00, -0.00, -1.00, 211.7, 338.0)">f</text><text xml:space="preserve" font-family="HelveticaNeue-Light" font-size="36.0" fill="#000000" transform="matrix(1.00, 0.00, -0.00, -1.00, 221.0, 338.0)"> </text><text xml:space="preserve" font-family="HelveticaNeue-Light" font-size="36.0" fill="#000000" transform="matrix(1.00, 0.00, -0.00, -1.00, 231.0, 338.0)">A</text><text xml:space="preserve" font-family="HelveticaNeue-Light" font-size="36.0" fill="#000000" transform="matrix(1.00, 0.00, -0.00, -1.00, 253.7, 338.0)">L</text><text xml:space="preserve" font-family="HelveticaNeue-Light" font-size="36.0" fill="#000000" transform="matrix(1.00, 0.00, -0.00, -1.00, 273.0, 338.0)">D</text><text xml:space="preserve" font-family="HelveticaNeue-Light" font-size="36.0" fill="#000000" transform="matrix(1.00, 0.00, -0.00, -1.00, 297.7, 338.0)">H</text><text xml:space="preserve" font-family="HelveticaNeue-Light" font-size="36.0" fill="#000000" transform="matrix(1.00, 0.00, -0.00, -1.00, 323.1, 338.0)"> </text><text xml:space="preserve" font-family="HelveticaNeue-Light" font-size="36.0" fill="#000000" transform="matrix(1.00, 0.00, -0.00, -1.00, 15.0, 250.0)">P</text><text xml:space="preserve" font-family="HelveticaNeue-Light" font-size="36.0" fill="#000000" transform="matrix(1.00, 0.00, -0.00, -1.00, 37.7, 250.0)">a</text><text xml:space="preserve" font-family="HelveticaNeue-Light" font-size="36.0" fill="#000000" transform="matrix(1.00, 0.00, -0.00, -1.00, 56.4, 250.0)">t</text><text xml:space="preserve" font-family="HelveticaNeue-Light" font-size="36.0" fill="#000000" transform="matrix(1.00, 0.00, -0.00, -1.00, 67.0, 250.0)">i</text><text xml:space="preserve" font-family="HelveticaNeue-Light" font-size="36.0" fill="#000000" transform="matrix(1.00, 0.00, -0.00, -1.00, 73.7, 250.0)">e</text><text xml:space="preserve" font-family="HelveticaNeue-Light" font-size="36.0" fill="#000000" transform="matrix(1.00, 0.00, -0.00, -1.00, 92.4, 250.0)">n</text><text xml:space="preserve" font-family="HelveticaNeue-Light" font-size="36.0" fill="#000000" transform="matrix(1.00, 0.00, -0.00, -1.00, 111.7, 250.0)">t</text><text xml:space="preserve" font-family="HelveticaNeue-Light" font-size="36.0" fill="#000000" transform="matrix(1.00, 0.00, -0.00, -1.00, 122.4, 250.0)">s</text><text xml:space="preserve" font-family="HelveticaNeue-Light" font-size="36.0" fill="#000000" transform="matrix(1.00, 0.00, -0.00, -1.00, 139.7, 250.0)"> </text><text xml:space="preserve" font-family="HelveticaNeue-Light" font-size="36.0" fill="#000000" transform="matrix(1.00, 0.00, -0.00, -1.00, 149.7, 250.0)">t</text><text xml:space="preserve" font-family="HelveticaNeue-Light" font-size="36.0" fill="#000000" transform="matrix(1.00, 0.00, -0.00, -1.00, 160.3, 250.0)">r</text><text xml:space="preserve" font-family="HelveticaNeue-Light" font-size="36.0" fill="#000000" transform="matrix(1.00, 0.00, -0.00, -1.00, 171.0, 250.0)">e</text><text xml:space="preserve" font-family="HelveticaNeue-Light" font-size="36.0" fill="#000000" transform="matrix(1.00, 0.00, -0.00, -1.00, 189.7, 250.0)">a</text><text xml:space="preserve" font-family="HelveticaNeue-Light" font-size="36.0" fill="#000000" transform="matrix(1.00, 0.00, -0.00, -1.00, 208.4, 250.0)">t</text><text xml:space="preserve" font-family="HelveticaNeue-Light" font-size="36.0" fill="#000000" transform="matrix(1.00, 0.00, -0.00, -1.00, 219.0, 250.0)">e</text><text xml:space="preserve" font-family="HelveticaNeue-Light" font-size="36.0" fill="#000000" transform="matrix(1.00, 0.00, -0.00, -1.00, 237.7, 250.0)">d</text><text xml:space="preserve" font-family="HelveticaNeue-Light" font-size="36.0" fill="#000000" transform="matrix(1.00, 0.00, -0.00, -1.00, 258.4, 250.0)"> </text><text xml:space="preserve" font-family="HelveticaNeue-Light" font-size="36.0" fill="#000000" transform="matrix(1.00, 0.00, -0.00, -1.00, 268.4, 250.0)">w</text><text xml:space="preserve" font-family="HelveticaNeue-Light" font-size="36.0" fill="#000000" transform="matrix(1.00, 0.00, -0.00, -1.00, 295.1, 250.0)">i</text><text xml:space="preserve" font-family="HelveticaNeue-Light" font-size="36.0" fill="#000000" transform="matrix(1.00, 0.00, -0.00, -1.00, 301.7, 250.0)">t</text><text xml:space="preserve" font-family="HelveticaNeue-Light" font-size="36.0" fill="#000000" transform="matrix(1.00, 0.00, -0.00, -1.00, 312.4, 250.0)">h</text><text xml:space="preserve" font-family="HelveticaNeue-Light" font-size="36.0" fill="#000000" transform="matrix(1.00, 0.00, -0.00, -1.00, 331.7, 250.0)"> </text><text xml:space="preserve" font-family="HelveticaNeue-Light" font-size="36.0" fill="#000000" transform="matrix(1.00, 0.00, -0.00, -1.00, 341.7, 250.0)">P</text><text xml:space="preserve" font-family="HelveticaNeue-Light" font-size="36.0" fill="#000000" transform="matrix(1.00, 0.00, -0.00, -1.00, 364.4, 250.0)">T</text><text xml:space="preserve" font-family="HelveticaNeue-Light" font-size="36.0" fill="#000000" transform="matrix(1.00, 0.00, -0.00, -1.00, 384.4, 250.0)">C</text><text xml:space="preserve" font-family="HelveticaNeue-Light" font-size="36.0" fill="#000000" transform="matrix(1.00, 0.00, -0.00, -1.00, 409.8, 250.0)">y</text><text xml:space="preserve" font-family="HelveticaNeue-Light" font-size="36.0" fill="#000000" transform="matrix(1.00, 0.00, -0.00, -1.00, 426.4, 250.0)"> </text><text xml:space="preserve" font-family="HelveticaNeue-Light" font-size="36.0" fill="#000000" transform="matrix(1.00, 0.00, -0.00, -1.00, 436.5, 250.0)">h</text><text xml:space="preserve" font-family="HelveticaNeue-Light" font-size="36.0" fill="#000000" transform="matrix(1.00, 0.00, -0.00, -1.00, 455.8, 250.0)">a</text><text xml:space="preserve" font-family="HelveticaNeue-Light" font-size="36.0" fill="#000000" transform="matrix(1.00, 0.00, -0.00, -1.00, 474.5, 250.0)">v</text><text xml:space="preserve" font-family="HelveticaNeue-Light" font-size="36.0" fill="#000000" transform="matrix(1.00, 0.00, -0.00, -1.00, 491.1, 250.0)">e</text><text xml:space="preserve" font-family="HelveticaNeue-Light" font-size="36.0" fill="#000000" transform="matrix(1.00, 0.00, -0.00, -1.00, 509.8, 250.0)"> </text><text xml:space="preserve" font-family="HelveticaNeue-Light" font-size="36.0" fill="#000000" transform="matrix(1.00, 0.00, -0.00, -1.00, 519.8, 250.0)">i</text><text xml:space="preserve" font-family="HelveticaNeue-Light" font-size="36.0" fill="#000000" transform="matrix(1.00, 0.00, -0.00, -1.00, 526.5, 250.0)">n</text><text xml:space="preserve" font-family="HelveticaNeue-Light" font-size="36.0" fill="#000000" transform="matrix(1.00, 0.00, -0.00, -1.00, 545.8, 250.0)">c</text><text xml:space="preserve" font-family="HelveticaNeue-Light" font-size="36.0" fill="#000000" transform="matrix(1.00, 0.00, -0.00, -1.00, 564.5, 250.0)">r</text><text xml:space="preserve" font-family="HelveticaNeue-Light" font-size="36.0" fill="#000000" transform="matrix(1.00, 0.00, -0.00, -1.00, 575.2, 250.0)">e</text><text xml:space="preserve" font-family="HelveticaNeue-Light" font-size="36.0" fill="#000000" transform="matrix(1.00, 0.00, -0.00, -1.00, 593.9, 250.0)">a</text><text xml:space="preserve" font-family="HelveticaNeue-Light" font-size="36.0" fill="#000000" transform="matrix(1.00, 0.00, -0.00, -1.00, 612.6, 250.0)">s</text><text xml:space="preserve" font-family="HelveticaNeue-Light" font-size="36.0" fill="#000000" transform="matrix(1.00, 0.00, -0.00, -1.00, 629.9, 250.0)">e</text><text xml:space="preserve" font-family="HelveticaNeue-Light" font-size="36.0" fill="#000000" transform="matrix(1.00, 0.00, -0.00, -1.00, 648.6, 250.0)">d</text><text xml:space="preserve" font-family="HelveticaNeue-Light" font-size="36.0" fill="#000000" transform="matrix(1.00, 0.00, -0.00, -1.00, 669.2, 250.0)"> </text><text xml:space="preserve" font-family="HelveticaNeue-Light" font-size="36.0" fill="#000000" transform="matrix(1.00, 0.00, -0.00, -1.00, 679.2, 250.0)">p</text><text xml:space="preserve" font-family="HelveticaNeue-Light" font-size="36.0" fill="#000000" transform="matrix(1.00, 0.00, -0.00, -1.00, 699.9, 250.0)">e</text><text xml:space="preserve" font-family="HelveticaNeue-Light" font-size="36.0" fill="#000000" transform="matrix(1.00, 0.00, -0.00, -1.00, 718.6, 250.0)">r</text><text xml:space="preserve" font-family="HelveticaNeue-Light" font-size="36.0" fill="#000000" transform="matrix(1.00, 0.00, -0.00, -1.00, 729.3, 250.0)">c</text><text xml:space="preserve" font-family="HelveticaNeue-Light" font-size="36.0" fill="#000000" transform="matrix(1.00, 0.00, -0.00, -1.00, 748.0, 250.0)">e</text><text xml:space="preserve" font-family="HelveticaNeue-Light" font-size="36.0" fill="#000000" transform="matrix(1.00, 0.00, -0.00, -1.00, 766.6, 250.0)">n</text><text xml:space="preserve" font-family="HelveticaNeue-Light" font-size="36.0" fill="#000000" transform="matrix(1.00, 0.00, -0.00, -1.00, 786.0, 250.0)">t</text><text xml:space="preserve" font-family="HelveticaNeue-Light" font-size="36.0" fill="#000000" transform="matrix(1.00, 0.00, -0.00, -1.00, 796.6, 250.0)">a</text><text xml:space="preserve" font-family="HelveticaNeue-Light" font-size="36.0" fill="#000000" transform="matrix(1.00, 0.00, -0.00, -1.00, 815.3, 250.0)">g</text><text xml:space="preserve" font-family="HelveticaNeue-Light" font-size="36.0" fill="#000000" transform="matrix(1.00, 0.00, -0.00, -1.00, 835.3, 250.0)">e</text><text xml:space="preserve" font-family="HelveticaNeue-Light" font-size="36.0" fill="#000000" transform="matrix(1.00, 0.00, -0.00, -1.00, 854.0, 250.0)">s</text><text xml:space="preserve" font-family="HelveticaNeue-Light" font-size="36.0" fill="#000000" transform="matrix(1.00, 0.00, -0.00, -1.00, 871.3, 250.0)"> </text><text xml:space="preserve" font-family="HelveticaNeue-Light" font-size="36.0" fill="#000000" transform="matrix(1.00, 0.00, -0.00, -1.00, 881.3, 250.0)">o</text><text xml:space="preserve" font-family="HelveticaNeue-Light" font-size="36.0" fill="#000000" transform="matrix(1.00, 0.00, -0.00, -1.00, 901.4, 250.0)">f</text><text xml:space="preserve" font-family="HelveticaNeue-Light" font-size="36.0" fill="#000000" transform="matrix(1.00, 0.00, -0.00, -1.00, 910.7, 250.0)"> </text><text xml:space="preserve" font-family="HelveticaNeue-Light" font-size="36.0" fill="#000000" transform="matrix(1.00, 0.00, -0.00, -1.00, 15.0, 206.0)">e</text><text xml:space="preserve" font-family="HelveticaNeue-Light" font-size="36.0" fill="#000000" transform="matrix(1.00, 0.00, -0.00, -1.00, 33.7, 206.0)">T</text><text xml:space="preserve" font-family="HelveticaNeue-Light" font-size="36.0" fill="#000000" transform="matrix(1.00, 0.00, -0.00, -1.00, 50.4, 206.0)">r</text><text xml:space="preserve" font-family="HelveticaNeue-Light" font-size="36.0" fill="#000000" transform="matrix(1.00, 0.00, -0.00, -1.00, 61.1, 206.0)">e</text><text xml:space="preserve" font-family="HelveticaNeue-Light" font-size="36.0" fill="#000000" transform="matrix(1.00, 0.00, -0.00, -1.00, 79.8, 206.0)">g</text><text xml:space="preserve" font-family="HelveticaNeue-Light" font-size="36.0" fill="#000000" transform="matrix(1.00, 0.00, -0.00, -1.00, 99.8, 206.0)">s</text><text xml:space="preserve" font-family="HelveticaNeue-Light" font-size="36.0" fill="#000000" transform="matrix(1.00, 0.00, -0.00, -1.00, 117.1, 206.0)"> </text><text xml:space="preserve" font-family="HelveticaNeue-Light" font-size="36.0" fill="#000000" transform="matrix(1.00, 0.00, -0.00, -1.00, 127.1, 206.0)">c</text><text xml:space="preserve" font-family="HelveticaNeue-Light" font-size="36.0" fill="#000000" transform="matrix(1.00, 0.00, -0.00, -1.00, 145.8, 206.0)">o</text><text xml:space="preserve" font-family="HelveticaNeue-Light" font-size="36.0" fill="#000000" transform="matrix(1.00, 0.00, -0.00, -1.00, 165.8, 206.0)">m</text><text xml:space="preserve" font-family="HelveticaNeue-Light" font-size="36.0" fill="#000000" transform="matrix(1.00, 0.00, -0.00, -1.00, 195.8, 206.0)">p</text><text xml:space="preserve" font-family="HelveticaNeue-Light" font-size="36.0" fill="#000000" transform="matrix(1.00, 0.00, -0.00, -1.00, 216.5, 206.0)">a</text><text xml:space="preserve" font-family="HelveticaNeue-Light" font-size="36.0" fill="#000000" transform="matrix(1.00, 0.00, -0.00, -1.00, 235.1, 206.0)">r</text><text xml:space="preserve" font-family="HelveticaNeue-Light" font-size="36.0" fill="#000000" transform="matrix(1.00, 0.00, -0.00, -1.00, 245.8, 206.0)">e</text><text xml:space="preserve" font-family="HelveticaNeue-Light" font-size="36.0" fill="#000000" transform="matrix(1.00, 0.00, -0.00, -1.00, 264.5, 206.0)">d</text><text xml:space="preserve" font-family="HelveticaNeue-Light" font-size="36.0" fill="#000000" transform="matrix(1.00, 0.00, -0.00, -1.00, 285.2, 206.0)"> </text><text xml:space="preserve" font-family="HelveticaNeue-Light" font-size="36.0" fill="#000000" transform="matrix(1.00, 0.00, -0.00, -1.00, 295.2, 206.0)">w</text><text xml:space="preserve" font-family="HelveticaNeue-Light" font-size="36.0" fill="#000000" transform="matrix(1.00, 0.00, -0.00, -1.00, 321.9, 206.0)">i</text><text xml:space="preserve" font-family="HelveticaNeue-Light" font-size="36.0" fill="#000000" transform="matrix(1.00, 0.00, -0.00, -1.00, 328.5, 206.0)">t</text><text xml:space="preserve" font-family="HelveticaNeue-Light" font-size="36.0" fill="#000000" transform="matrix(1.00, 0.00, -0.00, -1.00, 339.2, 206.0)">h</text><text xml:space="preserve" font-family="HelveticaNeue-Light" font-size="36.0" fill="#000000" transform="matrix(1.00, 0.00, -0.00, -1.00, 358.5, 206.0)"> </text><text xml:space="preserve" font-family="HelveticaNeue-Light" font-size="36.0" fill="#000000" transform="matrix(1.00, 0.00, -0.00, -1.00, 368.5, 206.0)">d</text><text xml:space="preserve" font-family="HelveticaNeue-Light" font-size="36.0" fill="#000000" transform="matrix(1.00, 0.00, -0.00, -1.00, 389.2, 206.0)">o</text><text xml:space="preserve" font-family="HelveticaNeue-Light" font-size="36.0" fill="#000000" transform="matrix(1.00, 0.00, -0.00, -1.00, 409.2, 206.0)">n</text><text xml:space="preserve" font-family="HelveticaNeue-Light" font-size="36.0" fill="#000000" transform="matrix(1.00, 0.00, -0.00, -1.00, 428.5, 206.0)">o</text><text xml:space="preserve" font-family="HelveticaNeue-Light" font-size="36.0" fill="#000000" transform="matrix(1.00, 0.00, -0.00, -1.00, 448.5, 206.0)">r</text><text xml:space="preserve" font-family="HelveticaNeue-Light" font-size="36.0" fill="#000000" transform="matrix(1.00, 0.00, -0.00, -1.00, 459.9, 206.0)">s</text><text xml:space="preserve" font-family="HelveticaNeue-Light" font-size="36.0" fill="#000000" transform="matrix(1.00, 0.00, -0.00, -1.00, 477.2, 206.0)">,</text><text xml:space="preserve" font-family="HelveticaNeue-Light" font-size="36.0" fill="#000000" transform="matrix(1.00, 0.00, -0.00, -1.00, 487.2, 206.0)"> </text><text xml:space="preserve" font-family="HelveticaNeue-Light" font-size="36.0" fill="#000000" transform="matrix(1.00, 0.00, -0.00, -1.00, 497.2, 206.0)">a</text><text xml:space="preserve" font-family="HelveticaNeue-Light" font-size="36.0" fill="#000000" transform="matrix(1.00, 0.00, -0.00, -1.00, 515.9, 206.0)">n</text><text xml:space="preserve" font-family="HelveticaNeue-Light" font-size="36.0" fill="#000000" transform="matrix(1.00, 0.00, -0.00, -1.00, 535.2, 206.0)">d</text><text xml:space="preserve" font-family="HelveticaNeue-Light" font-size="36.0" fill="#000000" transform="matrix(1.00, 0.00, -0.00, -1.00, 555.9, 206.0)"> </text><text xml:space="preserve" font-family="HelveticaNeue-Light" font-size="36.0" fill="#000000" transform="matrix(1.00, 0.00, -0.00, -1.00, 565.9, 206.0)">e</text><text xml:space="preserve" font-family="HelveticaNeue-Light" font-size="36.0" fill="#000000" transform="matrix(1.00, 0.00, -0.00, -1.00, 584.6, 206.0)">T</text><text xml:space="preserve" font-family="HelveticaNeue-Light" font-size="36.0" fill="#000000" transform="matrix(1.00, 0.00, -0.00, -1.00, 601.3, 206.0)">r</text><text xml:space="preserve" font-family="HelveticaNeue-Light" font-size="36.0" fill="#000000" transform="matrix(1.00, 0.00, -0.00, -1.00, 612.0, 206.0)">e</text><text xml:space="preserve" font-family="HelveticaNeue-Light" font-size="36.0" fill="#000000" transform="matrix(1.00, 0.00, -0.00, -1.00, 630.7, 206.0)">g</text><text xml:space="preserve" font-family="HelveticaNeue-Light" font-size="36.0" fill="#000000" transform="matrix(1.00, 0.00, -0.00, -1.00, 650.7, 206.0)"> </text><text xml:space="preserve" font-family="HelveticaNeue-Light" font-size="36.0" fill="#000000" transform="matrix(1.00, 0.00, -0.00, -1.00, 660.7, 206.0)">c</text><text xml:space="preserve" font-family="HelveticaNeue-Light" font-size="36.0" fill="#000000" transform="matrix(1.00, 0.00, -0.00, -1.00, 679.4, 206.0)">o</text><text xml:space="preserve" font-family="HelveticaNeue-Light" font-size="36.0" fill="#000000" transform="matrix(1.00, 0.00, -0.00, -1.00, 699.4, 206.0)">u</text><text xml:space="preserve" font-family="HelveticaNeue-Light" font-size="36.0" fill="#000000" transform="matrix(1.00, 0.00, -0.00, -1.00, 718.7, 206.0)">n</text><text xml:space="preserve" font-family="HelveticaNeue-Light" font-size="36.0" fill="#000000" transform="matrix(1.00, 0.00, -0.00, -1.00, 738.1, 206.0)">t</text><text xml:space="preserve" font-family="HelveticaNeue-Light" font-size="36.0" fill="#000000" transform="matrix(1.00, 0.00, -0.00, -1.00, 748.7, 206.0)">s</text><text xml:space="preserve" font-family="HelveticaNeue-Light" font-size="36.0" fill="#000000" transform="matrix(1.00, 0.00, -0.00, -1.00, 766.0, 206.0)"> </text><text xml:space="preserve" font-family="HelveticaNeue-Light" font-size="36.0" fill="#000000" transform="matrix(1.00, 0.00, -0.00, -1.00, 776.0, 206.0)">r</text><text xml:space="preserve" font-family="HelveticaNeue-Light" font-size="36.0" fill="#000000" transform="matrix(1.00, 0.00, -0.00, -1.00, 786.7, 206.0)">e</text><text xml:space="preserve" font-family="HelveticaNeue-Light" font-size="36.0" fill="#000000" transform="matrix(1.00, 0.00, -0.00, -1.00, 805.4, 206.0)">c</text><text xml:space="preserve" font-family="HelveticaNeue-Light" font-size="36.0" fill="#000000" transform="matrix(1.00, 0.00, -0.00, -1.00, 824.1, 206.0)">o</text><text xml:space="preserve" font-family="HelveticaNeue-Light" font-size="36.0" fill="#000000" transform="matrix(1.00, 0.00, -0.00, -1.00, 844.1, 206.0)">v</text><text xml:space="preserve" font-family="HelveticaNeue-Light" font-size="36.0" fill="#000000" transform="matrix(1.00, 0.00, -0.00, -1.00, 860.8, 206.0)">e</text><text xml:space="preserve" font-family="HelveticaNeue-Light" font-size="36.0" fill="#000000" transform="matrix(1.00, 0.00, -0.00, -1.00, 879.5, 206.0)">r</text><text xml:space="preserve" font-family="HelveticaNeue-Light" font-size="36.0" fill="#000000" transform="matrix(1.00, 0.00, -0.00, -1.00, 890.8, 206.0)"> </text><text xml:space="preserve" font-family="HelveticaNeue-Light" font-size="36.0" fill="#000000" transform="matrix(1.00, 0.00, -0.00, -1.00, 900.8, 206.0)">q</text><text xml:space="preserve" font-family="HelveticaNeue-Light" font-size="36.0" fill="#000000" transform="matrix(1.00, 0.00, -0.00, -1.00, 921.5, 206.0)">u</text><text xml:space="preserve" font-family="HelveticaNeue-Light" font-size="36.0" fill="#000000" transform="matrix(1.00, 0.00, -0.00, -1.00, 940.8, 206.0)">i</text><text xml:space="preserve" font-family="HelveticaNeue-Light" font-size="36.0" fill="#000000" transform="matrix(1.00, 0.00, -0.00, -1.00, 947.5, 206.0)">c</text><text xml:space="preserve" font-family="HelveticaNeue-Light" font-size="36.0" fill="#000000" transform="matrix(1.00, 0.00, -0.00, -1.00, 966.2, 206.0)">k</text><text xml:space="preserve" font-family="HelveticaNeue-Light" font-size="36.0" fill="#000000" transform="matrix(1.00, 0.00, -0.00, -1.00, 984.2, 206.0)">l</text><text xml:space="preserve" font-family="HelveticaNeue-Light" font-size="36.0" fill="#000000" transform="matrix(1.00, 0.00, -0.00, -1.00, 990.8, 206.0)">y</text><text xml:space="preserve" font-family="HelveticaNeue-Light" font-size="36.0" fill="#000000" transform="matrix(1.00, 0.00, -0.00, -1.00, 1007.5, 206.0)"> </text><text xml:space="preserve" font-family="HelveticaNeue-Light" font-size="36.0" fill="#000000" transform="matrix(1.00, 0.00, -0.00, -1.00, 15.0, 162.0)">a</text><text xml:space="preserve" font-family="HelveticaNeue-Light" font-size="36.0" fill="#000000" transform="matrix(1.00, 0.00, -0.00, -1.00, 33.7, 162.0)">f</text><text xml:space="preserve" font-family="HelveticaNeue-Light" font-size="36.0" fill="#000000" transform="matrix(1.00, 0.00, -0.00, -1.00, 43.0, 162.0)">t</text><text xml:space="preserve" font-family="HelveticaNeue-Light" font-size="36.0" fill="#000000" transform="matrix(1.00, 0.00, -0.00, -1.00, 53.7, 162.0)">e</text><text xml:space="preserve" font-family="HelveticaNeue-Light" font-size="36.0" fill="#000000" transform="matrix(1.00, 0.00, -0.00, -1.00, 72.3, 162.0)">r</text><text xml:space="preserve" font-family="HelveticaNeue-Light" font-size="36.0" fill="#000000" transform="matrix(1.00, 0.00, -0.00, -1.00, 83.7, 162.0)"> </text><text xml:space="preserve" font-family="HelveticaNeue-Light" font-size="36.0" fill="#000000" transform="matrix(1.00, 0.00, -0.00, -1.00, 93.7, 162.0)">a</text><text xml:space="preserve" font-family="HelveticaNeue-Light" font-size="36.0" fill="#000000" transform="matrix(1.00, 0.00, -0.00, -1.00, 112.4, 162.0)">l</text><text xml:space="preserve" font-family="HelveticaNeue-Light" font-size="36.0" fill="#000000" transform="matrix(1.00, 0.00, -0.00, -1.00, 119.0, 162.0)">l</text><text xml:space="preserve" font-family="HelveticaNeue-Light" font-size="36.0" fill="#000000" transform="matrix(1.00, 0.00, -0.00, -1.00, 125.7, 162.0)">o</text><text xml:space="preserve" font-family="HelveticaNeue-Light" font-size="36.0" fill="#000000" transform="matrix(1.00, 0.00, -0.00, -1.00, 145.7, 162.0)">B</text><text xml:space="preserve" font-family="HelveticaNeue-Light" font-size="36.0" fill="#000000" transform="matrix(1.00, 0.00, -0.00, -1.00, 169.7, 162.0)">M</text><text xml:space="preserve" font-family="HelveticaNeue-Light" font-size="36.0" fill="#000000" transform="matrix(1.00, 0.00, -0.00, -1.00, 199.3, 162.0)">T</text><text xml:space="preserve" font-family="HelveticaNeue-Light" font-size="36.0" fill="#000000" transform="matrix(1.00, 0.00, -0.00, -1.00, 219.3, 162.0)"> </text><text xml:space="preserve" font-family="HelveticaNeue-Light" font-size="36.0" fill="#000000" transform="matrix(1.00, 0.00, -0.00, -1.00, 229.3, 162.0)">d</text><text xml:space="preserve" font-family="HelveticaNeue-Light" font-size="36.0" fill="#000000" transform="matrix(1.00, 0.00, -0.00, -1.00, 250.0, 162.0)">e</text><text xml:space="preserve" font-family="HelveticaNeue-Light" font-size="36.0" fill="#000000" transform="matrix(1.00, 0.00, -0.00, -1.00, 268.7, 162.0)">s</text><text xml:space="preserve" font-family="HelveticaNeue-Light" font-size="36.0" fill="#000000" transform="matrix(1.00, 0.00, -0.00, -1.00, 286.0, 162.0)">p</text><text xml:space="preserve" font-family="HelveticaNeue-Light" font-size="36.0" fill="#000000" transform="matrix(1.00, 0.00, -0.00, -1.00, 306.6, 162.0)">i</text><text xml:space="preserve" font-family="HelveticaNeue-Light" font-size="36.0" fill="#000000" transform="matrix(1.00, 0.00, -0.00, -1.00, 313.3, 162.0)">t</text><text xml:space="preserve" font-family="HelveticaNeue-Light" font-size="36.0" fill="#000000" transform="matrix(1.00, 0.00, -0.00, -1.00, 324.0, 162.0)">e</text><text xml:space="preserve" font-family="HelveticaNeue-Light" font-size="36.0" fill="#000000" transform="matrix(1.00, 0.00, -0.00, -1.00, 342.6, 162.0)"> </text><text xml:space="preserve" font-family="HelveticaNeue-Light" font-size="36.0" fill="#000000" transform="matrix(1.00, 0.00, -0.00, -1.00, 352.6, 162.0)">c</text><text xml:space="preserve" font-family="HelveticaNeue-Light" font-size="36.0" fill="#000000" transform="matrix(1.00, 0.00, -0.00, -1.00, 371.3, 162.0)">o</text><text xml:space="preserve" font-family="HelveticaNeue-Light" font-size="36.0" fill="#000000" transform="matrix(1.00, 0.00, -0.00, -1.00, 391.3, 162.0)">n</text><text xml:space="preserve" font-family="HelveticaNeue-Light" font-size="36.0" fill="#000000" transform="matrix(1.00, 0.00, -0.00, -1.00, 410.7, 162.0)">t</text><text xml:space="preserve" font-family="HelveticaNeue-Light" font-size="36.0" fill="#000000" transform="matrix(1.00, 0.00, -0.00, -1.00, 421.3, 162.0)">i</text><text xml:space="preserve" font-family="HelveticaNeue-Light" font-size="36.0" fill="#000000" transform="matrix(1.00, 0.00, -0.00, -1.00, 428.0, 162.0)">n</text><text xml:space="preserve" font-family="HelveticaNeue-Light" font-size="36.0" fill="#000000" transform="matrix(1.00, 0.00, -0.00, -1.00, 447.3, 162.0)">u</text><text xml:space="preserve" font-family="HelveticaNeue-Light" font-size="36.0" fill="#000000" transform="matrix(1.00, 0.00, -0.00, -1.00, 466.7, 162.0)">e</text><text xml:space="preserve" font-family="HelveticaNeue-Light" font-size="36.0" fill="#000000" transform="matrix(1.00, 0.00, -0.00, -1.00, 485.3, 162.0)">d</text><text xml:space="preserve" font-family="HelveticaNeue-Light" font-size="36.0" fill="#000000" transform="matrix(1.00, 0.00, -0.00, -1.00, 506.0, 162.0)"> </text><text xml:space="preserve" font-family="HelveticaNeue-Light" font-size="36.0" fill="#000000" transform="matrix(1.00, 0.00, -0.00, -1.00, 516.0, 162.0)">p</text><text xml:space="preserve" font-family="HelveticaNeue-Light" font-size="36.0" fill="#000000" transform="matrix(1.00, 0.00, -0.00, -1.00, 536.7, 162.0)">o</text><text xml:space="preserve" font-family="HelveticaNeue-Light" font-size="36.0" fill="#000000" transform="matrix(1.00, 0.00, -0.00, -1.00, 556.7, 162.0)">s</text><text xml:space="preserve" font-family="HelveticaNeue-Light" font-size="36.0" fill="#000000" transform="matrix(1.00, 0.00, -0.00, -1.00, 574.0, 162.0)">t</text><text xml:space="preserve" font-family="HelveticaNeue-Light" font-size="36.0" fill="#000000" transform="matrix(1.00, 0.00, -0.00, -1.00, 584.7, 162.0)">t</text><text xml:space="preserve" font-family="HelveticaNeue-Light" font-size="36.0" fill="#000000" transform="matrix(1.00, 0.00, -0.00, -1.00, 595.3, 162.0)">r</text><text xml:space="preserve" font-family="HelveticaNeue-Light" font-size="36.0" fill="#000000" transform="matrix(1.00, 0.00, -0.00, -1.00, 606.7, 162.0)">a</text><text xml:space="preserve" font-family="HelveticaNeue-Light" font-size="36.0" fill="#000000" transform="matrix(1.00, 0.00, -0.00, -1.00, 625.3, 162.0)">n</text><text xml:space="preserve" font-family="HelveticaNeue-Light" font-size="36.0" fill="#000000" transform="matrix(1.00, 0.00, -0.00, -1.00, 644.7, 162.0)">s</text><text xml:space="preserve" font-family="HelveticaNeue-Light" font-size="36.0" fill="#000000" transform="matrix(1.00, 0.00, -0.00, -1.00, 662.0, 162.0)">p</text><text xml:space="preserve" font-family="HelveticaNeue-Light" font-size="36.0" fill="#000000" transform="matrix(1.00, 0.00, -0.00, -1.00, 682.7, 162.0)">l</text><text xml:space="preserve" font-family="HelveticaNeue-Light" font-size="36.0" fill="#000000" transform="matrix(1.00, 0.00, -0.00, -1.00, 689.3, 162.0)">a</text><text xml:space="preserve" font-family="HelveticaNeue-Light" font-size="36.0" fill="#000000" transform="matrix(1.00, 0.00, -0.00, -1.00, 708.0, 162.0)">n</text><text xml:space="preserve" font-family="HelveticaNeue-Light" font-size="36.0" fill="#000000" transform="matrix(1.00, 0.00, -0.00, -1.00, 727.3, 162.0)">t</text><text xml:space="preserve" font-family="HelveticaNeue-Light" font-size="36.0" fill="#000000" transform="matrix(1.00, 0.00, -0.00, -1.00, 738.0, 162.0)"> </text><text xml:space="preserve" font-family="HelveticaNeue-Light" font-size="36.0" fill="#000000" transform="matrix(1.00, 0.00, -0.00, -1.00, 748.0, 162.0)">C</text><text xml:space="preserve" font-family="HelveticaNeue-Light" font-size="36.0" fill="#000000" transform="matrix(1.00, 0.00, -0.00, -1.00, 773.3, 162.0)">D</text><text xml:space="preserve" font-family="HelveticaNeue-Light" font-size="36.0" fill="#000000" transform="matrix(1.00, 0.00, -0.00, -1.00, 798.0, 162.0)">4</text><text xml:space="preserve" font-family="HelveticaNeue-Light" font-size="36.0" fill="#000000" transform="matrix(1.00, 0.00, -0.00, -1.00, 818.0, 162.0)">+</text><text xml:space="preserve" font-family="HelveticaNeue-Light" font-size="36.0" fill="#000000" transform="matrix(1.00, 0.00, -0.00, -1.00, 839.6, 162.0)"> </text><text xml:space="preserve" font-family="HelveticaNeue-Light" font-size="36.0" fill="#000000" transform="matrix(1.00, 0.00, -0.00, -1.00, 15.0, 118.0)">l</text><text xml:space="preserve" font-family="HelveticaNeue-Light" font-size="36.0" fill="#000000" transform="matrix(1.00, 0.00, -0.00, -1.00, 21.7, 118.0)">y</text><text xml:space="preserve" font-family="HelveticaNeue-Light" font-size="36.0" fill="#000000" transform="matrix(1.00, 0.00, -0.00, -1.00, 38.3, 118.0)">m</text><text xml:space="preserve" font-family="HelveticaNeue-Light" font-size="36.0" fill="#000000" transform="matrix(1.00, 0.00, -0.00, -1.00, 68.3, 118.0)">p</text><text xml:space="preserve" font-family="HelveticaNeue-Light" font-size="36.0" fill="#000000" transform="matrix(1.00, 0.00, -0.00, -1.00, 89.0, 118.0)">h</text><text xml:space="preserve" font-family="HelveticaNeue-Light" font-size="36.0" fill="#000000" transform="matrix(1.00, 0.00, -0.00, -1.00, 108.3, 118.0)">o</text><text xml:space="preserve" font-family="HelveticaNeue-Light" font-size="36.0" fill="#000000" transform="matrix(1.00, 0.00, -0.00, -1.00, 128.3, 118.0)">p</text><text xml:space="preserve" font-family="HelveticaNeue-Light" font-size="36.0" fill="#000000" transform="matrix(1.00, 0.00, -0.00, -1.00, 149.0, 118.0)">e</text><text xml:space="preserve" font-family="HelveticaNeue-Light" font-size="36.0" fill="#000000" transform="matrix(1.00, 0.00, -0.00, -1.00, 167.7, 118.0)">n</text><text xml:space="preserve" font-family="HelveticaNeue-Light" font-size="36.0" fill="#000000" transform="matrix(1.00, 0.00, -0.00, -1.00, 187.0, 118.0)">i</text><text xml:space="preserve" font-family="HelveticaNeue-Light" font-size="36.0" fill="#000000" transform="matrix(1.00, 0.00, -0.00, -1.00, 193.7, 118.0)">a</text></g></svg>