<?xml version="1.0" encoding="UTF-8" standalone="no"?><svg xmlns="http://www.w3.org/2000/svg" xmlns:xlink="http://www.w3.org/1999/xlink" clip-rule="evenodd" stroke-miterlimit="10" viewBox="0 0 1024 768"><desc>SVG generated by Keynote</desc><defs></defs><g transform="matrix(1.00, 0.00, -0.00, -1.00, 0.0, 768.0)"><g><clipPath id="clip0x608000ab89c0"><path d="M 0.0 768.0 L 1024.0 768.0 L 1024.0 0.0 L 0.0 0.0 Z M 0.0 768.0 "></path></clipPath><g clip-path="url(#clip0x608000ab89c0)"><image xlink:href="../../BE4D2DDB-FBE4-467E-AE38-B34F9028D09E/assets/9397CAD6F20342ACC2646ABBCA758461.jpeg" width="2048.00" height="1536.00" transform="matrix(0.50, 0.00, -0.00, -0.50, 0.0, 768.0)"></image></g></g><image xlink:href="../../EFFF2419-2567-4EBE-8A68-F4F98CA2554D/assets/B9945E6F76F4E310D3F0BA3592A2B9C7.png" width="130.00" height="66.00" transform="matrix(1.00, 0.00, -0.00, -1.00, 768.0, 259.0)"></image><text xml:space="preserve" font-family="HelveticaNeue-Bold,Helvetica Neue" font-weight="bold" font-size="64.0" fill="#FEFFFE" transform="matrix(1.00, 0.00, -0.00, -1.00, 768.3, 211.2)">I</text><text xml:space="preserve" font-family="HelveticaNeue-Bold,Helvetica Neue" font-weight="bold" font-size="64.0" fill="#FEFFFE" transform="matrix(1.00, 0.00, -0.00, -1.00, 787.2, 211.2)">p</text><text xml:space="preserve" font-family="HelveticaNeue-Bold,Helvetica Neue" font-weight="bold" font-size="64.0" fill="#FEFFFE" transform="matrix(1.00, 0.00, -0.00, -1.00, 826.3, 211.2)">s</text><text xml:space="preserve" font-family="HelveticaNeue-Bold,Helvetica Neue" font-weight="bold" font-size="64.0" fill="#FEFFFE" transform="matrix(1.00, 0.00, -0.00, -1.00, 860.7, 211.2)">s</text><g><clipPath id="clip0x6000010a1560"><path d="M 62.0 732.0 L 942.0 732.0 L 942.0 463.0 L 62.0 463.0 Z M 62.4 732.2 "></path></clipPath><g clip-path="url(#clip0x6000010a1560)"><g><clipPath id="clip0x6000010a1b60"><path d="M 40.4 439.3 L 963.6 439.3 L 963.6 758.2 L 40.4 758.2 Z M 40.4 439.3 "></path></clipPath><g clip-path="url(#clip0x6000010a1b60)"><image xlink:href="../../EFFF2419-2567-4EBE-8A68-F4F98CA2554D/assets/62D82F1406B2012EF07C7C46A1060FFF.png" width="1322.00" height="822.00" transform="matrix(0.67, 0.00, -0.00, -0.67, 62.4, 732.2)"></image></g></g></g></g><g><clipPath id="clip0x608000ab7e80"><path d="M 40.4 439.3 L 963.6 439.3 L 963.6 758.2 L 40.4 758.2 Z M 40.4 439.3 "></path></clipPath><g clip-path="url(#clip0x608000ab7e80)"><image xlink:href="../../EFFF2419-2567-4EBE-8A68-F4F98CA2554D/assets/1CAF32E395EA657E343750CE16DA7597.png" width="923.00" height="319.00" transform="matrix(1.00, 0.00, -0.00, 1.00, 40.4, 439.3)"></image></g></g><g><clipPath id="clip0x6000010a22e0"><path d="M 62.0 482.0 L 942.0 482.0 L 942.0 429.0 L 62.0 429.0 Z M 62.4 482.1 "></path></clipPath><g clip-path="url(#clip0x6000010a22e0)"><g><clipPath id="clip0x6000010a26a0"><path d="M 40.4 405.3 L 963.6 405.3 L 963.6 508.1 L 40.4 508.1 Z M 40.4 405.3 "></path></clipPath><g clip-path="url(#clip0x6000010a26a0)"><image xlink:href="../../EFFF2419-2567-4EBE-8A68-F4F98CA2554D/assets/62D82F1406B2012EF07C7C46A1060FFF.png" width="1322.00" height="822.00" transform="matrix(0.67, 0.00, -0.00, -0.67, 62.4, 967.8)"></image></g></g></g></g><g><clipPath id="clip0x6000010a2400"><path d="M 40.4 405.3 L 963.6 405.3 L 963.6 508.1 L 40.4 508.1 Z M 40.4 405.3 "></path></clipPath><g clip-path="url(#clip0x6000010a2400)"><image xlink:href="../../EFFF2419-2567-4EBE-8A68-F4F98CA2554D/assets/B62D8183C10BD08070FAA2CB4F231F30.png" width="923.00" height="103.00" transform="matrix(1.00, 0.00, -0.00, 1.00, 40.4, 405.3)"></image></g></g><image xlink:href="../../EFFF2419-2567-4EBE-8A68-F4F98CA2554D/assets/1FAA181F46B1600E644B89F4F1D50208.png" width="1014.00" height="564.00" transform="matrix(0.62, 0.00, -0.00, -0.62, 63.6, 408.4)"></image><image xlink:href="../../EFFF2419-2567-4EBE-8A68-F4F98CA2554D/assets/0CA0022BFAFC9E7B534A90BBD10EE7BC.png" width="671.00" height="399.00" transform="matrix(1.00, 0.00, -0.00, 1.00, 41.6, 35.8)"></image><image xlink:href="../../9A1DA70B-AAD6-45E6-8A01-F2DAF7258632/assets/329533995EEF6F0B98CA6A54ED4E1FA6.png" width="679.00" height="72.00" transform="matrix(1.00, 0.00, -0.00, -1.00, 37.6, 221.5)" opacity="0.50"></image><path d="M 0.4 44.0 L 0.4 15.0 C 0.4 6.7 6.7 0.5 15.0 0.5 L 650.8 0.5 C 659.0 0.5 665.4 6.7 665.4 15.0 L 665.4 44.0 C 665.4 52.3 659.0 59.5 650.8 59.5 L 15.0 59.5 C 6.7 59.5 0.4 52.3 0.4 44.0 Z M 0.0 44.0 " fill="none" stroke="#D31D03" stroke-width="5.00" transform="matrix(1.00, 0.00, 0.00, -1.00, 44.1, 217.0)"></path><image xlink:href="../../9A1DA70B-AAD6-45E6-8A01-F2DAF7258632/assets/36B896D61F018E38D95913F2A4507412.png" width="91.00" height="72.00" transform="matrix(1.00, 0.00, -0.00, -1.00, 741.5, 633.9)" opacity="0.50"></image><path d="M 0.5 44.4 L 0.5 15.0 C 0.5 6.7 6.7 -0.1 15.0 -0.1 L 63.2 -0.1 C 71.5 -0.1 78.5 6.7 78.5 15.0 L 78.5 44.0 C 78.5 52.3 71.5 58.9 63.2 58.9 L 15.0 58.9 C 6.7 58.9 0.5 52.6 0.5 44.4 Z M 0.0 44.0 " fill="none" stroke="#D31D03" stroke-width="5.00" transform="matrix(1.00, 0.00, 0.00, -1.00, 748.0, 629.4)"></path><image xlink:href="../../9A1DA70B-AAD6-45E6-8A01-F2DAF7258632/assets/80B7CA27DD068D58C11AC810D239BFF5.png" width="91.00" height="72.00" transform="matrix(1.00, 0.00, -0.00, -1.00, 267.7, 558.8)" opacity="0.50"></image><path d="M 0.3 44.3 L 0.3 15.0 C 0.3 6.7 6.7 -0.2 15.0 -0.2 L 63.2 -0.2 C 71.5 -0.2 78.3 6.7 78.3 15.0 L 78.3 44.0 C 78.3 52.3 71.5 58.8 63.2 58.8 L 15.0 58.8 C 6.7 58.8 0.3 52.6 0.3 44.3 Z M 0.0 44.0 " fill="none" stroke="#D31D03" stroke-width="5.00" transform="matrix(1.00, 0.00, 0.00, -1.00, 274.2, 554.3)"></path><image xlink:href="../../9A1DA70B-AAD6-45E6-8A01-F2DAF7258632/assets/50F57ACA6628BF774F71A680EAF2EFD0.png" width="91.00" height="72.00" transform="matrix(1.00, 0.00, -0.00, -1.00, 390.2, 490.3)" opacity="0.50"></image><path d="M -0.2 43.8 L -0.2 15.0 C -0.2 6.7 6.7 0.3 15.0 0.3 L 63.2 0.3 C 71.5 0.3 77.8 6.7 77.8 15.0 L 77.8 44.0 C 77.8 52.3 71.5 59.3 63.2 59.3 L 15.0 59.3 C 6.7 59.3 -0.2 52.1 -0.2 43.8 Z M 0.0 44.0 " fill="none" stroke="#D31D03" stroke-width="5.00" transform="matrix(1.00, 0.00, 0.00, -1.00, 396.7, 485.8)"></path></g></svg>