<?xml version="1.0" encoding="UTF-8" standalone="no"?><svg xmlns="http://www.w3.org/2000/svg" xmlns:xlink="http://www.w3.org/1999/xlink" clip-rule="evenodd" stroke-miterlimit="10" viewBox="0 0 1024 768"><desc>SVG generated by Keynote</desc><defs></defs><g transform="matrix(1.00, 0.00, -0.00, -1.00, 0.0, 768.0)"><g><clipPath id="clip0x7fba81a204a0"><path d="M 0.0 768.0 L 1024.0 768.0 L 1024.0 0.0 L 0.0 0.0 Z M 0.0 768.0 "></path></clipPath><g clip-path="url(#clip0x7fba81a204a0)"><image xlink:href="../../384E26B0-0AD0-495F-BA75-267B55ABD0BD/assets/31D284A5C75E14674D2A89FDB99F8048.jpeg" width="2048.00" height="1536.00" transform="matrix(0.50, 0.00, -0.00, -0.50, 0.0, 768.0)"></image></g></g><image xlink:href="2353FEF3E4563FFEE4F75E7BF163EA50.png" width="752.00" height="1264.00" transform="matrix(0.60, 0.00, -0.00, -0.60, 6.0, 762.0)"></image><image xlink:href="D06C86B922A1A265C7A2A21C380DB1A8.png" width="494.00" height="808.00" transform="matrix(1.00, 0.00, -0.00, 1.00, -16.0, -20.0)"></image><g><clipPath id="clip0x7fba81a22830"><path d="M 494.0 723.0 L 1002.0 723.0 L 1002.0 337.0 L 494.0 337.0 Z M 493.9 723.1 "></path></clipPath><g clip-path="url(#clip0x7fba81a22830)"><image xlink:href="E45FF34DF0776B94F36549BAE392F557.png" width="508.00" height="396.00" transform="matrix(1.00, 0.00, -0.00, -1.00, 494.0, 733.0)"></image></g></g><image xlink:href="BB665A413B68A3CADA4F08C6DC804E61.png" width="552.00" height="436.00" transform="matrix(1.00, 0.00, -0.00, 1.00, 471.9, 313.4)"></image><g><clipPath id="clip0x7fba81b0e7b0"><path d="M 498.0 316.0 L 998.0 316.0 L 998.0 43.0 L 498.0 43.0 Z M 497.9 316.5 "></path></clipPath><g clip-path="url(#clip0x7fba81b0e7b0)"><image xlink:href="EC01CD7D4D4A7BDC8F1ABBFBD1F5FCF5.png" width="500.00" height="626.00" transform="matrix(1.00, 0.00, -0.00, -1.00, 498.0, 316.0)"></image></g></g><image xlink:href="63250AD961EB634E7EAE0716A818B092.png" width="544.00" height="324.00" transform="matrix(1.00, 0.00, -0.00, 1.00, 475.9, 18.9)"></image></g></svg>