<?xml version="1.0" encoding="UTF-8" standalone="no"?><svg xmlns="http://www.w3.org/2000/svg" xmlns:xlink="http://www.w3.org/1999/xlink" clip-rule="evenodd" stroke-miterlimit="4.00" viewBox="0 0 1024 768"><desc>SVG generated by Keynote</desc><defs></defs><g transform="matrix(1.00, 0.00, -0.00, -1.00, 0.0, 768.0)"><path d="M 0.0 768.0 L 1024.0 768.0 L 1024.0 0.0 L 0.0 0.0 Z M 0.0 768.0 " fill="#FEFFFE"></path><path d="M 0.0 0.0 L 934.5 0.0 " fill="none" stroke="#9A9A9A" stroke-width="1.00" transform="matrix(1.00, 0.00, 0.00, -1.00, 45.0, 613.0)"></path><text xml:space="preserve" font-family="HelveticaNeue-Light" font-size="39.9" fill="#000000" transform="matrix(1.00, 0.00, -0.00, -1.00, 49.0, 699.0)">U</text><text xml:space="preserve" font-family="HelveticaNeue-Light" font-size="39.9" fill="#000000" transform="matrix(1.00, 0.00, -0.00, -1.00, 76.3, 699.0)">n</text><text xml:space="preserve" font-family="HelveticaNeue-Light" font-size="39.9" fill="#000000" transform="matrix(1.00, 0.00, -0.00, -1.00, 97.8, 699.0)">c</text><text xml:space="preserve" font-family="HelveticaNeue-Light" font-size="39.9" fill="#000000" transform="matrix(1.00, 0.00, -0.00, -1.00, 118.5, 699.0)">h</text><text xml:space="preserve" font-family="HelveticaNeue-Light" font-size="39.9" fill="#000000" transform="matrix(1.00, 0.00, -0.00, -1.00, 139.9, 699.0)">a</text><text xml:space="preserve" font-family="HelveticaNeue-Light" font-size="39.9" fill="#000000" transform="matrix(1.00, 0.00, -0.00, -1.00, 160.6, 699.0)">n</text><text xml:space="preserve" font-family="HelveticaNeue-Light" font-size="39.9" fill="#000000" transform="matrix(1.00, 0.00, -0.00, -1.00, 182.0, 699.0)">g</text><text xml:space="preserve" font-family="HelveticaNeue-Light" font-size="39.9" fill="#000000" transform="matrix(1.00, 0.00, -0.00, -1.00, 204.2, 699.0)">e</text><text xml:space="preserve" font-family="HelveticaNeue-Light" font-size="39.9" fill="#000000" transform="matrix(1.00, 0.00, -0.00, -1.00, 224.9, 699.0)">d</text><text xml:space="preserve" font-family="HelveticaNeue-Light" font-size="39.9" fill="#000000" transform="matrix(1.00, 0.00, -0.00, -1.00, 247.8, 699.0)"> </text><text xml:space="preserve" font-family="HelveticaNeue-Light" font-size="39.9" fill="#000000" transform="matrix(1.00, 0.00, -0.00, -1.00, 258.9, 699.0)">a</text><text xml:space="preserve" font-family="HelveticaNeue-Light" font-size="39.9" fill="#000000" transform="matrix(1.00, 0.00, -0.00, -1.00, 279.6, 699.0)">b</text><text xml:space="preserve" font-family="HelveticaNeue-Light" font-size="39.9" fill="#000000" transform="matrix(1.00, 0.00, -0.00, -1.00, 302.5, 699.0)">s</text><text xml:space="preserve" font-family="HelveticaNeue-Light" font-size="39.9" fill="#000000" transform="matrix(1.00, 0.00, -0.00, -1.00, 321.7, 699.0)">o</text><text xml:space="preserve" font-family="HelveticaNeue-Light" font-size="39.9" fill="#000000" transform="matrix(1.00, 0.00, -0.00, -1.00, 343.9, 699.0)">l</text><text xml:space="preserve" font-family="HelveticaNeue-Light" font-size="39.9" fill="#000000" transform="matrix(1.00, 0.00, -0.00, -1.00, 351.3, 699.0)">u</text><text xml:space="preserve" font-family="HelveticaNeue-Light" font-size="39.9" fill="#000000" transform="matrix(1.00, 0.00, -0.00, -1.00, 372.7, 699.0)">t</text><text xml:space="preserve" font-family="HelveticaNeue-Light" font-size="39.9" fill="#000000" transform="matrix(1.00, 0.00, -0.00, -1.00, 384.5, 699.0)">e</text><text xml:space="preserve" font-family="HelveticaNeue-Light" font-size="39.9" fill="#000000" transform="matrix(1.00, 0.00, -0.00, -1.00, 405.2, 699.0)"> </text><text xml:space="preserve" font-family="HelveticaNeue-Light" font-size="39.9" fill="#000000" transform="matrix(1.00, 0.00, -0.00, -1.00, 416.3, 699.0)">n</text><text xml:space="preserve" font-family="HelveticaNeue-Light" font-size="39.9" fill="#000000" transform="matrix(1.00, 0.00, -0.00, -1.00, 437.7, 699.0)">u</text><text xml:space="preserve" font-family="HelveticaNeue-Light" font-size="39.9" fill="#000000" transform="matrix(1.00, 0.00, -0.00, -1.00, 459.2, 699.0)">m</text><text xml:space="preserve" font-family="HelveticaNeue-Light" font-size="39.9" fill="#000000" transform="matrix(1.00, 0.00, -0.00, -1.00, 492.4, 699.0)">b</text><text xml:space="preserve" font-family="HelveticaNeue-Light" font-size="39.9" fill="#000000" transform="matrix(1.00, 0.00, -0.00, -1.00, 515.3, 699.0)">e</text><text xml:space="preserve" font-family="HelveticaNeue-Light" font-size="39.9" fill="#000000" transform="matrix(1.00, 0.00, -0.00, -1.00, 536.0, 699.0)">r</text><text xml:space="preserve" font-family="HelveticaNeue-Light" font-size="39.9" fill="#000000" transform="matrix(1.00, 0.00, -0.00, -1.00, 548.6, 699.0)"> </text><text xml:space="preserve" font-family="HelveticaNeue-Light" font-size="39.9" fill="#000000" transform="matrix(1.00, 0.00, -0.00, -1.00, 559.7, 699.0)">o</text><text xml:space="preserve" font-family="HelveticaNeue-Light" font-size="39.9" fill="#000000" transform="matrix(1.00, 0.00, -0.00, -1.00, 581.9, 699.0)">f</text><text xml:space="preserve" font-family="HelveticaNeue-Light" font-size="39.9" fill="#000000" transform="matrix(1.00, 0.00, -0.00, -1.00, 592.2, 699.0)"> </text><text xml:space="preserve" font-family="HelveticaNeue-Light" font-size="39.9" fill="#000000" transform="matrix(1.00, 0.00, -0.00, -1.00, 603.3, 699.0)">e</text><text xml:space="preserve" font-family="HelveticaNeue-Light" font-size="39.9" fill="#000000" transform="matrix(1.00, 0.00, -0.00, -1.00, 624.0, 699.0)">T</text><text xml:space="preserve" font-family="HelveticaNeue-Light" font-size="39.9" fill="#000000" transform="matrix(1.00, 0.00, -0.00, -1.00, 642.5, 699.0)">r</text><text xml:space="preserve" font-family="HelveticaNeue-Light" font-size="39.9" fill="#000000" transform="matrix(1.00, 0.00, -0.00, -1.00, 654.4, 699.0)">e</text><text xml:space="preserve" font-family="HelveticaNeue-Light" font-size="39.9" fill="#000000" transform="matrix(1.00, 0.00, -0.00, -1.00, 675.1, 699.0)">g</text><text xml:space="preserve" font-family="HelveticaNeue-Light" font-size="39.9" fill="#000000" transform="matrix(1.00, 0.00, -0.00, -1.00, 697.3, 699.0)">s</text><text xml:space="preserve" font-family="HelveticaNeue-Light" font-size="39.9" fill="#000000" transform="matrix(1.00, 0.00, -0.00, -1.00, 716.4, 699.0)"> </text><text xml:space="preserve" font-family="HelveticaNeue-Light" font-size="39.9" fill="#000000" transform="matrix(1.00, 0.00, -0.00, -1.00, 727.5, 699.0)">p</text><text xml:space="preserve" font-family="HelveticaNeue-Light" font-size="39.9" fill="#000000" transform="matrix(1.00, 0.00, -0.00, -1.00, 750.4, 699.0)">o</text><text xml:space="preserve" font-family="HelveticaNeue-Light" font-size="39.9" fill="#000000" transform="matrix(1.00, 0.00, -0.00, -1.00, 772.6, 699.0)">s</text><text xml:space="preserve" font-family="HelveticaNeue-Light" font-size="39.9" fill="#000000" transform="matrix(1.00, 0.00, -0.00, -1.00, 791.8, 699.0)">t</text><text xml:space="preserve" font-family="HelveticaNeue-Light" font-size="39.9" fill="#000000" transform="matrix(1.00, 0.00, -0.00, -1.00, 803.6, 699.0)">-</text><text xml:space="preserve" font-family="HelveticaNeue-Light" font-size="39.9" fill="#000000" transform="matrix(1.00, 0.00, -0.00, -1.00, 49.0, 645.0)">t</text><text xml:space="preserve" font-family="HelveticaNeue-Light" font-size="39.9" fill="#000000" transform="matrix(1.00, 0.00, -0.00, -1.00, 60.8, 645.0)">r</text><text xml:space="preserve" font-family="HelveticaNeue-Light" font-size="39.9" fill="#000000" transform="matrix(1.00, 0.00, -0.00, -1.00, 73.4, 645.0)">a</text><text xml:space="preserve" font-family="HelveticaNeue-Light" font-size="39.9" fill="#000000" transform="matrix(1.00, 0.00, -0.00, -1.00, 94.1, 645.0)">n</text><text xml:space="preserve" font-family="HelveticaNeue-Light" font-size="39.9" fill="#000000" transform="matrix(1.00, 0.00, -0.00, -1.00, 115.5, 645.0)">s</text><text xml:space="preserve" font-family="HelveticaNeue-Light" font-size="39.9" fill="#000000" transform="matrix(1.00, 0.00, -0.00, -1.00, 134.7, 645.0)">p</text><text xml:space="preserve" font-family="HelveticaNeue-Light" font-size="39.9" fill="#000000" transform="matrix(1.00, 0.00, -0.00, -1.00, 157.6, 645.0)">l</text><text xml:space="preserve" font-family="HelveticaNeue-Light" font-size="39.9" fill="#000000" transform="matrix(1.00, 0.00, -0.00, -1.00, 165.0, 645.0)">a</text><text xml:space="preserve" font-family="HelveticaNeue-Light" font-size="39.9" fill="#000000" transform="matrix(1.00, 0.00, -0.00, -1.00, 185.7, 645.0)">n</text><text xml:space="preserve" font-family="HelveticaNeue-Light" font-size="39.9" fill="#000000" transform="matrix(1.00, 0.00, -0.00, -1.00, 207.1, 645.0)">t</text><text xml:space="preserve" font-family="HelveticaNeue-Light" font-size="39.9" fill="#000000" transform="matrix(1.00, 0.00, -0.00, -1.00, 218.9, 645.0)"> </text><text xml:space="preserve" font-family="HelveticaNeue-Light" font-size="39.9" fill="#000000" transform="matrix(1.00, 0.00, -0.00, -1.00, 230.0, 645.0)">d</text><text xml:space="preserve" font-family="HelveticaNeue-Light" font-size="39.9" fill="#000000" transform="matrix(1.00, 0.00, -0.00, -1.00, 252.9, 645.0)">e</text><text xml:space="preserve" font-family="HelveticaNeue-Light" font-size="39.9" fill="#000000" transform="matrix(1.00, 0.00, -0.00, -1.00, 273.6, 645.0)">s</text><text xml:space="preserve" font-family="HelveticaNeue-Light" font-size="39.9" fill="#000000" transform="matrix(1.00, 0.00, -0.00, -1.00, 292.8, 645.0)">p</text><text xml:space="preserve" font-family="HelveticaNeue-Light" font-size="39.9" fill="#000000" transform="matrix(1.00, 0.00, -0.00, -1.00, 315.7, 645.0)">i</text><text xml:space="preserve" font-family="HelveticaNeue-Light" font-size="39.9" fill="#000000" transform="matrix(1.00, 0.00, -0.00, -1.00, 323.1, 645.0)">t</text><text xml:space="preserve" font-family="HelveticaNeue-Light" font-size="39.9" fill="#000000" transform="matrix(1.00, 0.00, -0.00, -1.00, 334.9, 645.0)">e</text><text xml:space="preserve" font-family="HelveticaNeue-Light" font-size="39.9" fill="#000000" transform="matrix(1.00, 0.00, -0.00, -1.00, 355.6, 645.0)"> </text><text xml:space="preserve" font-family="HelveticaNeue-Light" font-size="39.9" fill="#000000" transform="matrix(1.00, 0.00, -0.00, -1.00, 366.7, 645.0)">l</text><text xml:space="preserve" font-family="HelveticaNeue-Light" font-size="39.9" fill="#000000" transform="matrix(1.00, 0.00, -0.00, -1.00, 374.1, 645.0)">o</text><text xml:space="preserve" font-family="HelveticaNeue-Light" font-size="39.9" fill="#000000" transform="matrix(1.00, 0.00, -0.00, -1.00, 396.3, 645.0)">w</text><text xml:space="preserve" font-family="HelveticaNeue-Light" font-size="39.9" fill="#000000" transform="matrix(1.00, 0.00, -0.00, -1.00, 425.9, 645.0)">e</text><text xml:space="preserve" font-family="HelveticaNeue-Light" font-size="39.9" fill="#000000" transform="matrix(1.00, 0.00, -0.00, -1.00, 446.6, 645.0)">r</text><text xml:space="preserve" font-family="HelveticaNeue-Light" font-size="39.9" fill="#000000" transform="matrix(1.00, 0.00, -0.00, -1.00, 459.1, 645.0)"> </text><text xml:space="preserve" font-family="HelveticaNeue-Light" font-size="39.9" fill="#000000" transform="matrix(1.00, 0.00, -0.00, -1.00, 470.2, 645.0)">C</text><text xml:space="preserve" font-family="HelveticaNeue-Light" font-size="39.9" fill="#000000" transform="matrix(1.00, 0.00, -0.00, -1.00, 498.3, 645.0)">D</text><text xml:space="preserve" font-family="HelveticaNeue-Light" font-size="39.9" fill="#000000" transform="matrix(1.00, 0.00, -0.00, -1.00, 525.6, 645.0)">4</text><text xml:space="preserve" font-family="EuphemiaUCAS" font-size="39.9" fill="#000000" transform="matrix(1.00, 0.00, -0.00, -1.00, 547.8, 645.0)">á©</text><text xml:space="preserve" font-family="HelveticaNeue-Light" font-size="39.9" fill="#000000" transform="matrix(1.00, 0.00, -0.00, -1.00, 564.3, 645.0)"> </text><text xml:space="preserve" font-family="HelveticaNeue-Light" font-size="39.9" fill="#000000" transform="matrix(1.00, 0.00, -0.00, -1.00, 575.4, 645.0)">T</text><text xml:space="preserve" font-family="HelveticaNeue-Light" font-size="39.9" fill="#000000" transform="matrix(1.00, 0.00, -0.00, -1.00, 592.4, 645.0)">-</text><text xml:space="preserve" font-family="HelveticaNeue-Light" font-size="39.9" fill="#000000" transform="matrix(1.00, 0.00, -0.00, -1.00, 607.2, 645.0)">c</text><text xml:space="preserve" font-family="HelveticaNeue-Light" font-size="39.9" fill="#000000" transform="matrix(1.00, 0.00, -0.00, -1.00, 627.9, 645.0)">e</text><text xml:space="preserve" font-family="HelveticaNeue-Light" font-size="39.9" fill="#000000" transform="matrix(1.00, 0.00, -0.00, -1.00, 648.6, 645.0)">l</text><text xml:space="preserve" font-family="HelveticaNeue-Light" font-size="39.9" fill="#000000" transform="matrix(1.00, 0.00, -0.00, -1.00, 656.0, 645.0)">l</text><text xml:space="preserve" font-family="HelveticaNeue-Light" font-size="39.9" fill="#000000" transform="matrix(1.00, 0.00, -0.00, -1.00, 663.4, 645.0)"> </text><text xml:space="preserve" font-family="HelveticaNeue-Light" font-size="39.9" fill="#000000" transform="matrix(1.00, 0.00, -0.00, -1.00, 674.5, 645.0)">c</text><text xml:space="preserve" font-family="HelveticaNeue-Light" font-size="39.9" fill="#000000" transform="matrix(1.00, 0.00, -0.00, -1.00, 695.2, 645.0)">o</text><text xml:space="preserve" font-family="HelveticaNeue-Light" font-size="39.9" fill="#000000" transform="matrix(1.00, 0.00, -0.00, -1.00, 717.3, 645.0)">u</text><text xml:space="preserve" font-family="HelveticaNeue-Light" font-size="39.9" fill="#000000" transform="matrix(1.00, 0.00, -0.00, -1.00, 738.8, 645.0)">n</text><text xml:space="preserve" font-family="HelveticaNeue-Light" font-size="39.9" fill="#000000" transform="matrix(1.00, 0.00, -0.00, -1.00, 760.2, 645.0)">t</text><text xml:space="preserve" font-family="HelveticaNeue-Light" font-size="39.9" fill="#000000" transform="matrix(1.00, 0.00, -0.00, -1.00, 772.0, 645.0)">s</text><g><clipPath id="clip-1303"><path d="M 584.0 33.0 L 1021.0 33.0 L 1021.0 -3.0 L 584.0 -3.0 Z M 584.1 33.4 "></path></clipPath><g clip-path="url(#clip-1303)"><g><clipPath id="clip-1304"><path d="M 584.0 -284.0 L 1608.0 -284.0 L 1608.0 33.0 L 584.0 33.0 Z M 584.0 -284.0 "></path></clipPath><g clip-path="url(#clip-1304)"><image xlink:href="../../D8108B70-9D49-4276-BEC4-D1263471C883/assets/E94D3A2544F893E3F88484E62BD73FB1.png" width="2662.00" height="824.00" transform="matrix(0.38, 0.00, -0.00, -0.38, 584.0, 33.0)"></image></g></g></g></g><g><clipPath id="clip-1305"><path d="M 3.0 36.0 L 478.0 36.0 L 478.0 0.0 L 3.0 0.0 Z M 3.3 36.4 "></path></clipPath><g clip-path="url(#clip-1305)"><g><clipPath id="clip-1306"><path d="M 2.0 -67.0 L 1026.0 -67.0 L 1026.0 250.0 L 2.0 250.0 Z M 2.0 -67.0 "></path></clipPath><g clip-path="url(#clip-1306)"><image xlink:href="../../D8108B70-9D49-4276-BEC4-D1263471C883/assets/E94D3A2544F893E3F88484E62BD73FB1.png" width="2662.00" height="824.00" transform="matrix(0.38, 0.00, -0.00, -0.38, 2.0, 250.0)"></image></g></g></g></g><g><clipPath id="clip-1307"><path d="M 225.0 587.0 L 799.0 587.0 L 799.0 41.0 L 225.0 41.0 Z M 225.1 587.1 "></path></clipPath><g clip-path="url(#clip-1307)"><g><clipPath id="clip-1308"><path d="M 225.0 41.0 L 799.0 41.0 L 799.0 590.0 L 225.0 590.0 Z M 225.0 41.0 "></path></clipPath><g clip-path="url(#clip-1308)"><image xlink:href="../../D8108B70-9D49-4276-BEC4-D1263471C883/assets/C08BE1902DA649D4EDBA0B2118770F8E.png" width="1642.00" height="1570.00" transform="matrix(0.35, 0.00, -0.00, -0.35, 225.0, 590.0)"></image></g></g></g></g></g></svg>