<?xml version="1.0" encoding="UTF-8" standalone="no"?><svg xmlns="http://www.w3.org/2000/svg" xmlns:xlink="http://www.w3.org/1999/xlink" clip-rule="evenodd" stroke-miterlimit="10" viewBox="0 0 1024 768"><desc>SVG generated by Keynote</desc><defs></defs><g transform="matrix(1.00, 0.00, -0.00, -1.00, 0.0, 768.0)"><path d="M 0.0 768.0 L 1024.0 768.0 L 1024.0 0.0 L 0.0 0.0 Z M 0.0 768.0 " fill="#FEFFFE"></path><path d="M 0.5 0.5 L 934.5 0.5 L 934.5 0.5 L 0.5 0.5 Z M 0.0 0.0 " fill="none" stroke="#9A9A99" stroke-width="1.00" transform="matrix(1.00, 0.00, 0.00, -1.00, 45.0, 613.0)"></path><text xml:space="preserve" font-family="HelveticaNeue-Light,Helvetica Neue" font-size="42.0" fill="#000000" transform="matrix(1.00, 0.00, -0.00, -1.00, 49.0, 696.2)">C</text><text xml:space="preserve" font-family="HelveticaNeue-Light,Helvetica Neue" font-size="42.0" fill="#000000" transform="matrix(1.00, 0.00, -0.00, -1.00, 78.6, 696.2)">h</text><text xml:space="preserve" font-family="HelveticaNeue-Light,Helvetica Neue" font-size="42.0" fill="#000000" transform="matrix(1.00, 0.00, -0.00, -1.00, 101.1, 696.2)">a</text><text xml:space="preserve" font-family="HelveticaNeue-Light,Helvetica Neue" font-size="42.0" fill="#000000" transform="matrix(1.00, 0.00, -0.00, -1.00, 122.9, 696.2)">n</text><text xml:space="preserve" font-family="HelveticaNeue-Light,Helvetica Neue" font-size="42.0" fill="#000000" transform="matrix(1.00, 0.00, -0.00, -1.00, 145.5, 696.2)">g</text><text xml:space="preserve" font-family="HelveticaNeue-Light,Helvetica Neue" font-size="42.0" fill="#000000" transform="matrix(1.00, 0.00, -0.00, -1.00, 168.8, 696.2)">e</text><text xml:space="preserve" font-family="HelveticaNeue-Light,Helvetica Neue" font-size="42.0" fill="#000000" transform="matrix(1.00, 0.00, -0.00, -1.00, 190.6, 696.2)">s</text><text xml:space="preserve" font-family="HelveticaNeue-Light,Helvetica Neue" font-size="42.0" fill="#000000" transform="matrix(1.00, 0.00, -0.00, -1.00, 210.8, 696.2)"> </text><text xml:space="preserve" font-family="HelveticaNeue-Light,Helvetica Neue" font-size="42.0" fill="#000000" transform="matrix(1.00, 0.00, -0.00, -1.00, 222.5, 696.2)">i</text><text xml:space="preserve" font-family="HelveticaNeue-Light,Helvetica Neue" font-size="42.0" fill="#000000" transform="matrix(1.00, 0.00, -0.00, -1.00, 230.3, 696.2)">n</text><text xml:space="preserve" font-family="HelveticaNeue-Light,Helvetica Neue" font-size="42.0" fill="#000000" transform="matrix(1.00, 0.00, -0.00, -1.00, 252.8, 696.2)"> </text><text xml:space="preserve" font-family="HelveticaNeue-Light,Helvetica Neue" font-size="42.0" fill="#000000" transform="matrix(1.00, 0.00, -0.00, -1.00, 264.5, 696.2)">E</text><text xml:space="preserve" font-family="HelveticaNeue-Light,Helvetica Neue" font-size="42.0" fill="#000000" transform="matrix(1.00, 0.00, -0.00, -1.00, 289.4, 696.2)">2</text><text xml:space="preserve" font-family="HelveticaNeue-Light,Helvetica Neue" font-size="42.0" fill="#000000" transform="matrix(1.00, 0.00, -0.00, -1.00, 312.8, 696.2)"> </text><text xml:space="preserve" font-family="HelveticaNeue-Light,Helvetica Neue" font-size="42.0" fill="#000000" transform="matrix(1.00, 0.00, -0.00, -1.00, 324.4, 696.2)">c</text><text xml:space="preserve" font-family="HelveticaNeue-Light,Helvetica Neue" font-size="42.0" fill="#000000" transform="matrix(1.00, 0.00, -0.00, -1.00, 346.2, 696.2)">o</text><text xml:space="preserve" font-family="HelveticaNeue-Light,Helvetica Neue" font-size="42.0" fill="#000000" transform="matrix(1.00, 0.00, -0.00, -1.00, 369.6, 696.2)">n</text><text xml:space="preserve" font-family="HelveticaNeue-Light,Helvetica Neue" font-size="42.0" fill="#000000" transform="matrix(1.00, 0.00, -0.00, -1.00, 392.1, 696.2)">c</text><text xml:space="preserve" font-family="HelveticaNeue-Light,Helvetica Neue" font-size="42.0" fill="#000000" transform="matrix(1.00, 0.00, -0.00, -1.00, 413.9, 696.2)">e</text><text xml:space="preserve" font-family="HelveticaNeue-Light,Helvetica Neue" font-size="42.0" fill="#000000" transform="matrix(1.00, 0.00, -0.00, -1.00, 435.7, 696.2)">n</text><text xml:space="preserve" font-family="HelveticaNeue-Light,Helvetica Neue" font-size="42.0" fill="#000000" transform="matrix(1.00, 0.00, -0.00, -1.00, 458.3, 696.2)">t</text><text xml:space="preserve" font-family="HelveticaNeue-Light,Helvetica Neue" font-size="42.0" fill="#000000" transform="matrix(1.00, 0.00, -0.00, -1.00, 470.7, 696.2)">r</text><text xml:space="preserve" font-family="HelveticaNeue-Light,Helvetica Neue" font-size="42.0" fill="#000000" transform="matrix(1.00, 0.00, -0.00, -1.00, 484.0, 696.2)">a</text><text xml:space="preserve" font-family="HelveticaNeue-Light,Helvetica Neue" font-size="42.0" fill="#000000" transform="matrix(1.00, 0.00, -0.00, -1.00, 505.8, 696.2)">t</text><text xml:space="preserve" font-family="HelveticaNeue-Light,Helvetica Neue" font-size="42.0" fill="#000000" transform="matrix(1.00, 0.00, -0.00, -1.00, 518.2, 696.2)">i</text><text xml:space="preserve" font-family="HelveticaNeue-Light,Helvetica Neue" font-size="42.0" fill="#000000" transform="matrix(1.00, 0.00, -0.00, -1.00, 526.0, 696.2)">o</text><text xml:space="preserve" font-family="HelveticaNeue-Light,Helvetica Neue" font-size="42.0" fill="#000000" transform="matrix(1.00, 0.00, -0.00, -1.00, 549.3, 696.2)">n</text><text xml:space="preserve" font-family="HelveticaNeue-Light,Helvetica Neue" font-size="42.0" fill="#000000" transform="matrix(1.00, 0.00, -0.00, -1.00, 571.9, 696.2)">s</text><text xml:space="preserve" font-family="HelveticaNeue-Light,Helvetica Neue" font-size="42.0" fill="#000000" transform="matrix(1.00, 0.00, -0.00, -1.00, 592.1, 696.2)"> </text><text xml:space="preserve" font-family="HelveticaNeue-Light,Helvetica Neue" font-size="42.0" fill="#000000" transform="matrix(1.00, 0.00, -0.00, -1.00, 603.7, 696.2)">i</text><text xml:space="preserve" font-family="HelveticaNeue-Light,Helvetica Neue" font-size="42.0" fill="#000000" transform="matrix(1.00, 0.00, -0.00, -1.00, 611.5, 696.2)">n</text><text xml:space="preserve" font-family="HelveticaNeue-Light,Helvetica Neue" font-size="42.0" fill="#000000" transform="matrix(1.00, 0.00, -0.00, -1.00, 634.1, 696.2)"> </text><text xml:space="preserve" font-family="HelveticaNeue-Light,Helvetica Neue" font-size="42.0" fill="#000000" transform="matrix(1.00, 0.00, -0.00, -1.00, 645.7, 696.2)">h</text><text xml:space="preserve" font-family="HelveticaNeue-Light,Helvetica Neue" font-size="42.0" fill="#000000" transform="matrix(1.00, 0.00, -0.00, -1.00, 668.3, 696.2)">e</text><text xml:space="preserve" font-family="HelveticaNeue-Light,Helvetica Neue" font-size="42.0" fill="#000000" transform="matrix(1.00, 0.00, -0.00, -1.00, 690.1, 696.2)">a</text><text xml:space="preserve" font-family="HelveticaNeue-Light,Helvetica Neue" font-size="42.0" fill="#000000" transform="matrix(1.00, 0.00, -0.00, -1.00, 711.9, 696.2)">l</text><text xml:space="preserve" font-family="HelveticaNeue-Light,Helvetica Neue" font-size="42.0" fill="#000000" transform="matrix(1.00, 0.00, -0.00, -1.00, 719.7, 696.2)">t</text><text xml:space="preserve" font-family="HelveticaNeue-Light,Helvetica Neue" font-size="42.0" fill="#000000" transform="matrix(1.00, 0.00, -0.00, -1.00, 732.1, 696.2)">h</text><text xml:space="preserve" font-family="HelveticaNeue-Light,Helvetica Neue" font-size="42.0" fill="#000000" transform="matrix(1.00, 0.00, -0.00, -1.00, 754.6, 696.2)">y</text><text xml:space="preserve" font-family="HelveticaNeue-Light,Helvetica Neue" font-size="42.0" fill="#000000" transform="matrix(1.00, 0.00, -0.00, -1.00, 774.1, 696.2)"> </text><text xml:space="preserve" font-family="HelveticaNeue-Light,Helvetica Neue" font-size="42.0" fill="#000000" transform="matrix(1.00, 0.00, -0.00, -1.00, 785.8, 696.2)">1</text><text xml:space="preserve" font-family="HelveticaNeue-Light,Helvetica Neue" font-size="42.0" fill="#000000" transform="matrix(1.00, 0.00, -0.00, -1.00, 809.1, 696.2)">5</text><text xml:space="preserve" font-family="HelveticaNeue-Light,Helvetica Neue" font-size="42.0" fill="#000000" transform="matrix(1.00, 0.00, -0.00, -1.00, 832.5, 696.2)">-</text><text xml:space="preserve" font-family="HelveticaNeue-Light,Helvetica Neue" font-size="42.0" fill="#000000" transform="matrix(1.00, 0.00, -0.00, -1.00, 848.0, 696.2)">2</text><text xml:space="preserve" font-family="HelveticaNeue-Light,Helvetica Neue" font-size="42.0" fill="#000000" transform="matrix(1.00, 0.00, -0.00, -1.00, 871.4, 696.2)">2</text><text xml:space="preserve" font-family="HelveticaNeue-Light,Helvetica Neue" font-size="42.0" fill="#000000" transform="matrix(1.00, 0.00, -0.00, -1.00, 894.7, 696.2)"> </text><text xml:space="preserve" font-family="HelveticaNeue-Light,Helvetica Neue" font-size="42.0" fill="#000000" transform="matrix(1.00, 0.00, -0.00, -1.00, 49.0, 645.2)">y</text><text xml:space="preserve" font-family="HelveticaNeue-Light,Helvetica Neue" font-size="42.0" fill="#000000" transform="matrix(1.00, 0.00, -0.00, -1.00, 68.4, 645.2)">e</text><text xml:space="preserve" font-family="HelveticaNeue-Light,Helvetica Neue" font-size="42.0" fill="#000000" transform="matrix(1.00, 0.00, -0.00, -1.00, 90.2, 645.2)">a</text><text xml:space="preserve" font-family="HelveticaNeue-Light,Helvetica Neue" font-size="42.0" fill="#000000" transform="matrix(1.00, 0.00, -0.00, -1.00, 112.0, 645.2)">r</text><text xml:space="preserve" font-family="HelveticaNeue-Light,Helvetica Neue" font-size="42.0" fill="#000000" transform="matrix(1.00, 0.00, -0.00, -1.00, 123.0, 645.2)">-</text><text xml:space="preserve" font-family="HelveticaNeue-Light,Helvetica Neue" font-size="42.0" fill="#000000" transform="matrix(1.00, 0.00, -0.00, -1.00, 138.5, 645.2)">o</text><text xml:space="preserve" font-family="HelveticaNeue-Light,Helvetica Neue" font-size="42.0" fill="#000000" transform="matrix(1.00, 0.00, -0.00, -1.00, 161.9, 645.2)">l</text><text xml:space="preserve" font-family="HelveticaNeue-Light,Helvetica Neue" font-size="42.0" fill="#000000" transform="matrix(1.00, 0.00, -0.00, -1.00, 169.6, 645.2)">d</text><text xml:space="preserve" font-family="HelveticaNeue-Light,Helvetica Neue" font-size="42.0" fill="#000000" transform="matrix(1.00, 0.00, -0.00, -1.00, 193.7, 645.2)"> </text><text xml:space="preserve" font-family="HelveticaNeue-Light,Helvetica Neue" font-size="42.0" fill="#000000" transform="matrix(1.00, 0.00, -0.00, -1.00, 205.4, 645.2)">m</text><text xml:space="preserve" font-family="HelveticaNeue-Light,Helvetica Neue" font-size="42.0" fill="#000000" transform="matrix(1.00, 0.00, -0.00, -1.00, 240.4, 645.2)">e</text><text xml:space="preserve" font-family="HelveticaNeue-Light,Helvetica Neue" font-size="42.0" fill="#000000" transform="matrix(1.00, 0.00, -0.00, -1.00, 262.2, 645.2)">n</text><text xml:space="preserve" font-family="HelveticaNeue-Light,Helvetica Neue" font-size="42.0" fill="#000000" transform="matrix(1.00, 0.00, -0.00, -1.00, 284.7, 645.2)"> </text><text xml:space="preserve" font-family="HelveticaNeue-Light,Helvetica Neue" font-size="42.0" fill="#000000" transform="matrix(1.00, 0.00, -0.00, -1.00, 296.4, 645.2)">b</text><text xml:space="preserve" font-family="HelveticaNeue-Light,Helvetica Neue" font-size="42.0" fill="#000000" transform="matrix(1.00, 0.00, -0.00, -1.00, 320.5, 645.2)">e</text><text xml:space="preserve" font-family="HelveticaNeue-Light,Helvetica Neue" font-size="42.0" fill="#000000" transform="matrix(1.00, 0.00, -0.00, -1.00, 342.3, 645.2)">f</text><text xml:space="preserve" font-family="HelveticaNeue-Light,Helvetica Neue" font-size="42.0" fill="#000000" transform="matrix(1.00, 0.00, -0.00, -1.00, 353.2, 645.2)">o</text><text xml:space="preserve" font-family="HelveticaNeue-Light,Helvetica Neue" font-size="42.0" fill="#000000" transform="matrix(1.00, 0.00, -0.00, -1.00, 376.6, 645.2)">r</text><text xml:space="preserve" font-family="HelveticaNeue-Light,Helvetica Neue" font-size="42.0" fill="#000000" transform="matrix(1.00, 0.00, -0.00, -1.00, 389.0, 645.2)">e</text><text xml:space="preserve" font-family="HelveticaNeue-Light,Helvetica Neue" font-size="42.0" fill="#000000" transform="matrix(1.00, 0.00, -0.00, -1.00, 410.8, 645.2)"> </text><text xml:space="preserve" font-family="HelveticaNeue-Light,Helvetica Neue" font-size="42.0" fill="#000000" transform="matrix(1.00, 0.00, -0.00, -1.00, 422.5, 645.2)">a</text><text xml:space="preserve" font-family="HelveticaNeue-Light,Helvetica Neue" font-size="42.0" fill="#000000" transform="matrix(1.00, 0.00, -0.00, -1.00, 444.3, 645.2)">n</text><text xml:space="preserve" font-family="HelveticaNeue-Light,Helvetica Neue" font-size="42.0" fill="#000000" transform="matrix(1.00, 0.00, -0.00, -1.00, 466.9, 645.2)">d</text><text xml:space="preserve" font-family="HelveticaNeue-Light,Helvetica Neue" font-size="42.0" fill="#000000" transform="matrix(1.00, 0.00, -0.00, -1.00, 491.0, 645.2)"> </text><text xml:space="preserve" font-family="HelveticaNeue-Light,Helvetica Neue" font-size="42.0" fill="#000000" transform="matrix(1.00, 0.00, -0.00, -1.00, 502.6, 645.2)">1</text><text xml:space="preserve" font-family="HelveticaNeue-Light,Helvetica Neue" font-size="42.0" fill="#000000" transform="matrix(1.00, 0.00, -0.00, -1.00, 526.0, 645.2)">0</text><text xml:space="preserve" font-family="HelveticaNeue-Light,Helvetica Neue" font-size="42.0" fill="#000000" transform="matrix(1.00, 0.00, -0.00, -1.00, 549.3, 645.2)"> </text><text xml:space="preserve" font-family="HelveticaNeue-Light,Helvetica Neue" font-size="42.0" fill="#000000" transform="matrix(1.00, 0.00, -0.00, -1.00, 561.0, 645.2)">d</text><text xml:space="preserve" font-family="HelveticaNeue-Light,Helvetica Neue" font-size="42.0" fill="#000000" transform="matrix(1.00, 0.00, -0.00, -1.00, 585.1, 645.2)">a</text><text xml:space="preserve" font-family="HelveticaNeue-Light,Helvetica Neue" font-size="42.0" fill="#000000" transform="matrix(1.00, 0.00, -0.00, -1.00, 606.9, 645.2)">y</text><text xml:space="preserve" font-family="HelveticaNeue-Light,Helvetica Neue" font-size="42.0" fill="#000000" transform="matrix(1.00, 0.00, -0.00, -1.00, 626.4, 645.2)">s</text><text xml:space="preserve" font-family="HelveticaNeue-Light,Helvetica Neue" font-size="42.0" fill="#000000" transform="matrix(1.00, 0.00, -0.00, -1.00, 646.6, 645.2)"> </text><text xml:space="preserve" font-family="HelveticaNeue-Light,Helvetica Neue" font-size="42.0" fill="#000000" transform="matrix(1.00, 0.00, -0.00, -1.00, 658.3, 645.2)">a</text><text xml:space="preserve" font-family="HelveticaNeue-Light,Helvetica Neue" font-size="42.0" fill="#000000" transform="matrix(1.00, 0.00, -0.00, -1.00, 680.0, 645.2)">f</text><text xml:space="preserve" font-family="HelveticaNeue-Light,Helvetica Neue" font-size="42.0" fill="#000000" transform="matrix(1.00, 0.00, -0.00, -1.00, 690.9, 645.2)">t</text><text xml:space="preserve" font-family="HelveticaNeue-Light,Helvetica Neue" font-size="42.0" fill="#000000" transform="matrix(1.00, 0.00, -0.00, -1.00, 703.4, 645.2)">e</text><text xml:space="preserve" font-family="HelveticaNeue-Light,Helvetica Neue" font-size="42.0" fill="#000000" transform="matrix(1.00, 0.00, -0.00, -1.00, 725.2, 645.2)">r</text><text xml:space="preserve" font-family="HelveticaNeue-Light,Helvetica Neue" font-size="42.0" fill="#000000" transform="matrix(1.00, 0.00, -0.00, -1.00, 738.4, 645.2)"> </text><text xml:space="preserve" font-family="HelveticaNeue-Light,Helvetica Neue" font-size="42.0" fill="#000000" transform="matrix(1.00, 0.00, -0.00, -1.00, 750.1, 645.2)">a</text><text xml:space="preserve" font-family="HelveticaNeue-Light,Helvetica Neue" font-size="42.0" fill="#000000" transform="matrix(1.00, 0.00, -0.00, -1.00, 771.9, 645.2)">n</text><text xml:space="preserve" font-family="HelveticaNeue-Light,Helvetica Neue" font-size="42.0" fill="#000000" transform="matrix(1.00, 0.00, -0.00, -1.00, 794.4, 645.2)">a</text><text xml:space="preserve" font-family="HelveticaNeue-Light,Helvetica Neue" font-size="42.0" fill="#000000" transform="matrix(1.00, 0.00, -0.00, -1.00, 816.2, 645.2)">s</text><text xml:space="preserve" font-family="HelveticaNeue-Light,Helvetica Neue" font-size="42.0" fill="#000000" transform="matrix(1.00, 0.00, -0.00, -1.00, 836.4, 645.2)">t</text><text xml:space="preserve" font-family="HelveticaNeue-Light,Helvetica Neue" font-size="42.0" fill="#000000" transform="matrix(1.00, 0.00, -0.00, -1.00, 848.8, 645.2)">r</text><text xml:space="preserve" font-family="HelveticaNeue-Light,Helvetica Neue" font-size="42.0" fill="#000000" transform="matrix(1.00, 0.00, -0.00, -1.00, 861.3, 645.2)">o</text><text xml:space="preserve" font-family="HelveticaNeue-Light,Helvetica Neue" font-size="42.0" fill="#000000" transform="matrix(1.00, 0.00, -0.00, -1.00, 884.7, 645.2)">z</text><text xml:space="preserve" font-family="HelveticaNeue-Light,Helvetica Neue" font-size="42.0" fill="#000000" transform="matrix(1.00, 0.00, -0.00, -1.00, 904.1, 645.2)">o</text><text xml:space="preserve" font-family="HelveticaNeue-Light,Helvetica Neue" font-size="42.0" fill="#000000" transform="matrix(1.00, 0.00, -0.00, -1.00, 927.5, 645.2)">l</text><text xml:space="preserve" font-family="HelveticaNeue-Light,Helvetica Neue" font-size="42.0" fill="#000000" transform="matrix(1.00, 0.00, -0.00, -1.00, 935.2, 645.2)">e</text><text xml:space="preserve" font-family="HelveticaNeue-Light,Helvetica Neue" font-size="42.0" fill="#000000" transform="matrix(1.00, 0.00, -0.00, -1.00, 957.0, 645.2)"> </text><g><clipPath id="clip0x7f8ff593eeb0"><path d="M 127.0 566.0 L 897.0 566.0 L 897.0 146.0 L 127.0 146.0 Z M 126.7 566.0 "></path></clipPath><g clip-path="url(#clip0x7f8ff593eeb0)"><image xlink:href="51E08A82E72ACE55FCBC792671587084.png" width="930.00" height="1376.00" transform="matrix(0.83, 0.00, -0.00, -0.83, 127.0, 667.0)"></image></g></g><text xml:space="preserve" font-family="HelveticaNeue-Light,Helvetica Neue" font-size="32.0" fill="#000000" transform="matrix(1.00, 0.00, -0.00, -1.00, 24.7, 64.3)">M</text><text xml:space="preserve" font-family="HelveticaNeue-Light,Helvetica Neue" font-size="32.0" fill="#000000" transform="matrix(1.00, 0.00, -0.00, -1.00, 51.0, 64.3)">a</text><text xml:space="preserve" font-family="HelveticaNeue-Light,Helvetica Neue" font-size="32.0" fill="#000000" transform="matrix(1.00, 0.00, -0.00, -1.00, 67.6, 64.3)">u</text><text xml:space="preserve" font-family="HelveticaNeue-Light,Helvetica Neue" font-size="32.0" fill="#000000" transform="matrix(1.00, 0.00, -0.00, -1.00, 84.8, 64.3)">r</text><text xml:space="preserve" font-family="HelveticaNeue-Light,Helvetica Neue" font-size="32.0" fill="#000000" transform="matrix(1.00, 0.00, -0.00, -1.00, 94.9, 64.3)">a</text><text xml:space="preserve" font-family="HelveticaNeue-Light,Helvetica Neue" font-size="32.0" fill="#000000" transform="matrix(1.00, 0.00, -0.00, -1.00, 111.5, 64.3)">s</text><text xml:space="preserve" font-family="HelveticaNeue-Light,Helvetica Neue" font-size="32.0" fill="#000000" transform="matrix(1.00, 0.00, -0.00, -1.00, 126.9, 64.3)"> </text><text xml:space="preserve" font-family="HelveticaNeue-Light,Helvetica Neue" font-size="32.0" fill="#000000" transform="matrix(1.00, 0.00, -0.00, -1.00, 135.8, 64.3)">N</text><text xml:space="preserve" font-family="HelveticaNeue-Light,Helvetica Neue" font-size="32.0" fill="#000000" transform="matrix(1.00, 0.00, -0.00, -1.00, 158.3, 64.3)">,</text><text xml:space="preserve" font-family="HelveticaNeue-Light,Helvetica Neue" font-size="32.0" fill="#000000" transform="matrix(1.00, 0.00, -0.00, -1.00, 167.2, 64.3)"> </text><text xml:space="preserve" font-family="HelveticaNeue-Light,Helvetica Neue" font-size="32.0" fill="#000000" transform="matrix(1.00, 0.00, -0.00, -1.00, 176.1, 64.3)">e</text><text xml:space="preserve" font-family="HelveticaNeue-Light,Helvetica Neue" font-size="32.0" fill="#000000" transform="matrix(1.00, 0.00, -0.00, -1.00, 192.7, 64.3)">t</text><text xml:space="preserve" font-family="HelveticaNeue-Light,Helvetica Neue" font-size="32.0" fill="#000000" transform="matrix(1.00, 0.00, -0.00, -1.00, 202.2, 64.3)"> </text><text xml:space="preserve" font-family="HelveticaNeue-Light,Helvetica Neue" font-size="32.0" fill="#000000" transform="matrix(1.00, 0.00, -0.00, -1.00, 211.1, 64.3)">a</text><text xml:space="preserve" font-family="HelveticaNeue-Light,Helvetica Neue" font-size="32.0" fill="#000000" transform="matrix(1.00, 0.00, -0.00, -1.00, 227.7, 64.3)">l</text><text xml:space="preserve" font-family="HelveticaNeue-Light,Helvetica Neue" font-size="32.0" fill="#000000" transform="matrix(1.00, 0.00, -0.00, -1.00, 233.6, 64.3)">.</text><text xml:space="preserve" font-family="HelveticaNeue-Light,Helvetica Neue" font-size="32.0" fill="#000000" transform="matrix(1.00, 0.00, -0.00, -1.00, 242.5, 64.3)"> </text><text xml:space="preserve" font-family="HelveticaNeue-Light,Helvetica Neue" font-size="32.0" fill="#000000" transform="matrix(1.00, 0.00, -0.00, -1.00, 251.4, 64.3)">E</text><text xml:space="preserve" font-family="HelveticaNeue-Light,Helvetica Neue" font-size="32.0" fill="#000000" transform="matrix(1.00, 0.00, -0.00, -1.00, 270.4, 64.3)">s</text><text xml:space="preserve" font-family="HelveticaNeue-Light,Helvetica Neue" font-size="32.0" fill="#000000" transform="matrix(1.00, 0.00, -0.00, -1.00, 285.8, 64.3)">t</text><text xml:space="preserve" font-family="HelveticaNeue-Light,Helvetica Neue" font-size="32.0" fill="#000000" transform="matrix(1.00, 0.00, -0.00, -1.00, 295.2, 64.3)">r</text><text xml:space="preserve" font-family="HelveticaNeue-Light,Helvetica Neue" font-size="32.0" fill="#000000" transform="matrix(1.00, 0.00, -0.00, -1.00, 304.7, 64.3)">o</text><text xml:space="preserve" font-family="HelveticaNeue-Light,Helvetica Neue" font-size="32.0" fill="#000000" transform="matrix(1.00, 0.00, -0.00, -1.00, 322.5, 64.3)">g</text><text xml:space="preserve" font-family="HelveticaNeue-Light,Helvetica Neue" font-size="32.0" fill="#000000" transform="matrix(1.00, 0.00, -0.00, -1.00, 340.3, 64.3)">e</text><text xml:space="preserve" font-family="HelveticaNeue-Light,Helvetica Neue" font-size="32.0" fill="#000000" transform="matrix(1.00, 0.00, -0.00, -1.00, 356.9, 64.3)">n</text><text xml:space="preserve" font-family="HelveticaNeue-Light,Helvetica Neue" font-size="32.0" fill="#000000" transform="matrix(1.00, 0.00, -0.00, -1.00, 374.1, 64.3)"> </text><text xml:space="preserve" font-family="HelveticaNeue-Light,Helvetica Neue" font-size="32.0" fill="#000000" transform="matrix(1.00, 0.00, -0.00, -1.00, 383.0, 64.3)">S</text><text xml:space="preserve" font-family="HelveticaNeue-Light,Helvetica Neue" font-size="32.0" fill="#000000" transform="matrix(1.00, 0.00, -0.00, -1.00, 403.2, 64.3)">u</text><text xml:space="preserve" font-family="HelveticaNeue-Light,Helvetica Neue" font-size="32.0" fill="#000000" transform="matrix(1.00, 0.00, -0.00, -1.00, 420.4, 64.3)">p</text><text xml:space="preserve" font-family="HelveticaNeue-Light,Helvetica Neue" font-size="32.0" fill="#000000" transform="matrix(1.00, 0.00, -0.00, -1.00, 438.7, 64.3)">p</text><text xml:space="preserve" font-family="HelveticaNeue-Light,Helvetica Neue" font-size="32.0" fill="#000000" transform="matrix(1.00, 0.00, -0.00, -1.00, 457.1, 64.3)">r</text><text xml:space="preserve" font-family="HelveticaNeue-Light,Helvetica Neue" font-size="32.0" fill="#000000" transform="matrix(1.00, 0.00, -0.00, -1.00, 466.6, 64.3)">e</text><text xml:space="preserve" font-family="HelveticaNeue-Light,Helvetica Neue" font-size="32.0" fill="#000000" transform="matrix(1.00, 0.00, -0.00, -1.00, 483.2, 64.3)">s</text><text xml:space="preserve" font-family="HelveticaNeue-Light,Helvetica Neue" font-size="32.0" fill="#000000" transform="matrix(1.00, 0.00, -0.00, -1.00, 498.6, 64.3)">s</text><text xml:space="preserve" font-family="HelveticaNeue-Light,Helvetica Neue" font-size="32.0" fill="#000000" transform="matrix(1.00, 0.00, -0.00, -1.00, 514.0, 64.3)">i</text><text xml:space="preserve" font-family="HelveticaNeue-Light,Helvetica Neue" font-size="32.0" fill="#000000" transform="matrix(1.00, 0.00, -0.00, -1.00, 519.9, 64.3)">o</text><text xml:space="preserve" font-family="HelveticaNeue-Light,Helvetica Neue" font-size="32.0" fill="#000000" transform="matrix(1.00, 0.00, -0.00, -1.00, 537.7, 64.3)">n</text><text xml:space="preserve" font-family="HelveticaNeue-Light,Helvetica Neue" font-size="32.0" fill="#000000" transform="matrix(1.00, 0.00, -0.00, -1.00, 554.9, 64.3)"> </text><text xml:space="preserve" font-family="HelveticaNeue-Light,Helvetica Neue" font-size="32.0" fill="#000000" transform="matrix(1.00, 0.00, -0.00, -1.00, 563.8, 64.3)">i</text><text xml:space="preserve" font-family="HelveticaNeue-Light,Helvetica Neue" font-size="32.0" fill="#000000" transform="matrix(1.00, 0.00, -0.00, -1.00, 569.7, 64.3)">n</text><text xml:space="preserve" font-family="HelveticaNeue-Light,Helvetica Neue" font-size="32.0" fill="#000000" transform="matrix(1.00, 0.00, -0.00, -1.00, 586.9, 64.3)"> </text><text xml:space="preserve" font-family="HelveticaNeue-Light,Helvetica Neue" font-size="32.0" fill="#000000" transform="matrix(1.00, 0.00, -0.00, -1.00, 595.8, 64.3)">M</text><text xml:space="preserve" font-family="HelveticaNeue-Light,Helvetica Neue" font-size="32.0" fill="#000000" transform="matrix(1.00, 0.00, -0.00, -1.00, 622.0, 64.3)">a</text><text xml:space="preserve" font-family="HelveticaNeue-Light,Helvetica Neue" font-size="32.0" fill="#000000" transform="matrix(1.00, 0.00, -0.00, -1.00, 638.7, 64.3)">l</text><text xml:space="preserve" font-family="HelveticaNeue-Light,Helvetica Neue" font-size="32.0" fill="#000000" transform="matrix(1.00, 0.00, -0.00, -1.00, 644.6, 64.3)">e</text><text xml:space="preserve" font-family="HelveticaNeue-Light,Helvetica Neue" font-size="32.0" fill="#000000" transform="matrix(1.00, 0.00, -0.00, -1.00, 661.2, 64.3)">s</text><text xml:space="preserve" font-family="HelveticaNeue-Light,Helvetica Neue" font-size="32.0" fill="#000000" transform="matrix(1.00, 0.00, -0.00, -1.00, 676.6, 64.3)">:</text><text xml:space="preserve" font-family="HelveticaNeue-Light,Helvetica Neue" font-size="32.0" fill="#000000" transform="matrix(1.00, 0.00, -0.00, -1.00, 685.5, 64.3)"> </text><text xml:space="preserve" font-family="HelveticaNeue-Light,Helvetica Neue" font-size="32.0" fill="#000000" transform="matrix(1.00, 0.00, -0.00, -1.00, 694.4, 64.3)">M</text><text xml:space="preserve" font-family="HelveticaNeue-Light,Helvetica Neue" font-size="32.0" fill="#000000" transform="matrix(1.00, 0.00, -0.00, -1.00, 720.6, 64.3)">e</text><text xml:space="preserve" font-family="HelveticaNeue-Light,Helvetica Neue" font-size="32.0" fill="#000000" transform="matrix(1.00, 0.00, -0.00, -1.00, 737.2, 64.3)">t</text><text xml:space="preserve" font-family="HelveticaNeue-Light,Helvetica Neue" font-size="32.0" fill="#000000" transform="matrix(1.00, 0.00, -0.00, -1.00, 746.7, 64.3)">a</text><text xml:space="preserve" font-family="HelveticaNeue-Light,Helvetica Neue" font-size="32.0" fill="#000000" transform="matrix(1.00, 0.00, -0.00, -1.00, 763.3, 64.3)">b</text><text xml:space="preserve" font-family="HelveticaNeue-Light,Helvetica Neue" font-size="32.0" fill="#000000" transform="matrix(1.00, 0.00, -0.00, -1.00, 781.7, 64.3)">o</text><text xml:space="preserve" font-family="HelveticaNeue-Light,Helvetica Neue" font-size="32.0" fill="#000000" transform="matrix(1.00, 0.00, -0.00, -1.00, 799.5, 64.3)">l</text><text xml:space="preserve" font-family="HelveticaNeue-Light,Helvetica Neue" font-size="32.0" fill="#000000" transform="matrix(1.00, 0.00, -0.00, -1.00, 805.4, 64.3)">i</text><text xml:space="preserve" font-family="HelveticaNeue-Light,Helvetica Neue" font-size="32.0" fill="#000000" transform="matrix(1.00, 0.00, -0.00, -1.00, 811.3, 64.3)">c</text><text xml:space="preserve" font-family="HelveticaNeue-Light,Helvetica Neue" font-size="32.0" fill="#000000" transform="matrix(1.00, 0.00, -0.00, -1.00, 827.9, 64.3)"> </text><text xml:space="preserve" font-family="HelveticaNeue-Light,Helvetica Neue" font-size="32.0" fill="#000000" transform="matrix(1.00, 0.00, -0.00, -1.00, 836.8, 64.3)">E</text><text xml:space="preserve" font-family="HelveticaNeue-Light,Helvetica Neue" font-size="32.0" fill="#000000" transform="matrix(1.00, 0.00, -0.00, -1.00, 855.8, 64.3)">f</text><text xml:space="preserve" font-family="HelveticaNeue-Light,Helvetica Neue" font-size="32.0" fill="#000000" transform="matrix(1.00, 0.00, -0.00, -1.00, 863.5, 64.3)">f</text><text xml:space="preserve" font-family="HelveticaNeue-Light,Helvetica Neue" font-size="32.0" fill="#000000" transform="matrix(1.00, 0.00, -0.00, -1.00, 871.8, 64.3)">e</text><text xml:space="preserve" font-family="HelveticaNeue-Light,Helvetica Neue" font-size="32.0" fill="#000000" transform="matrix(1.00, 0.00, -0.00, -1.00, 888.4, 64.3)">c</text><text xml:space="preserve" font-family="HelveticaNeue-Light,Helvetica Neue" font-size="32.0" fill="#000000" transform="matrix(1.00, 0.00, -0.00, -1.00, 905.0, 64.3)">t</text><text xml:space="preserve" font-family="HelveticaNeue-Light,Helvetica Neue" font-size="32.0" fill="#000000" transform="matrix(1.00, 0.00, -0.00, -1.00, 914.5, 64.3)">s</text><text xml:space="preserve" font-family="HelveticaNeue-Light,Helvetica Neue" font-size="32.0" fill="#000000" transform="matrix(1.00, 0.00, -0.00, -1.00, 929.9, 64.3)">.</text><text xml:space="preserve" font-family="HelveticaNeue-Light,Helvetica Neue" font-size="32.0" fill="#000000" transform="matrix(1.00, 0.00, -0.00, -1.00, 938.8, 64.3)"> </text><text xml:space="preserve" font-family="HelveticaNeue-Light,Helvetica Neue" font-size="32.0" fill="#000000" transform="matrix(1.00, 0.00, -0.00, -1.00, 947.7, 64.3)">T</text><text xml:space="preserve" font-family="HelveticaNeue-Light,Helvetica Neue" font-size="32.0" fill="#000000" transform="matrix(1.00, 0.00, -0.00, -1.00, 965.5, 64.3)">h</text><text xml:space="preserve" font-family="HelveticaNeue-Light,Helvetica Neue" font-size="32.0" fill="#000000" transform="matrix(1.00, 0.00, -0.00, -1.00, 982.7, 64.3)">e</text><text xml:space="preserve" font-family="HelveticaNeue-Light,Helvetica Neue" font-size="32.0" fill="#000000" transform="matrix(1.00, 0.00, -0.00, -1.00, 999.3, 64.3)"> </text><text xml:space="preserve" font-family="HelveticaNeue-Light,Helvetica Neue" font-size="32.0" fill="#000000" transform="matrix(1.00, 0.00, -0.00, -1.00, 8.3, 25.3)">J</text><text xml:space="preserve" font-family="HelveticaNeue-Light,Helvetica Neue" font-size="32.0" fill="#000000" transform="matrix(1.00, 0.00, -0.00, -1.00, 24.3, 25.3)">o</text><text xml:space="preserve" font-family="HelveticaNeue-Light,Helvetica Neue" font-size="32.0" fill="#000000" transform="matrix(1.00, 0.00, -0.00, -1.00, 42.1, 25.3)">u</text><text xml:space="preserve" font-family="HelveticaNeue-Light,Helvetica Neue" font-size="32.0" fill="#000000" transform="matrix(1.00, 0.00, -0.00, -1.00, 59.3, 25.3)">r</text><text xml:space="preserve" font-family="HelveticaNeue-Light,Helvetica Neue" font-size="32.0" fill="#000000" transform="matrix(1.00, 0.00, -0.00, -1.00, 69.9, 25.3)">n</text><text xml:space="preserve" font-family="HelveticaNeue-Light,Helvetica Neue" font-size="32.0" fill="#000000" transform="matrix(1.00, 0.00, -0.00, -1.00, 87.1, 25.3)">a</text><text xml:space="preserve" font-family="HelveticaNeue-Light,Helvetica Neue" font-size="32.0" fill="#000000" transform="matrix(1.00, 0.00, -0.00, -1.00, 103.7, 25.3)">l</text><text xml:space="preserve" font-family="HelveticaNeue-Light,Helvetica Neue" font-size="32.0" fill="#000000" transform="matrix(1.00, 0.00, -0.00, -1.00, 109.6, 25.3)"> </text><text xml:space="preserve" font-family="HelveticaNeue-Light,Helvetica Neue" font-size="32.0" fill="#000000" transform="matrix(1.00, 0.00, -0.00, -1.00, 118.5, 25.3)">o</text><text xml:space="preserve" font-family="HelveticaNeue-Light,Helvetica Neue" font-size="32.0" fill="#000000" transform="matrix(1.00, 0.00, -0.00, -1.00, 136.3, 25.3)">f</text><text xml:space="preserve" font-family="HelveticaNeue-Light,Helvetica Neue" font-size="32.0" fill="#000000" transform="matrix(1.00, 0.00, -0.00, -1.00, 144.6, 25.3)"> </text><text xml:space="preserve" font-family="HelveticaNeue-Light,Helvetica Neue" font-size="32.0" fill="#000000" transform="matrix(1.00, 0.00, -0.00, -1.00, 153.5, 25.3)">C</text><text xml:space="preserve" font-family="HelveticaNeue-Light,Helvetica Neue" font-size="32.0" fill="#000000" transform="matrix(1.00, 0.00, -0.00, -1.00, 176.0, 25.3)">l</text><text xml:space="preserve" font-family="HelveticaNeue-Light,Helvetica Neue" font-size="32.0" fill="#000000" transform="matrix(1.00, 0.00, -0.00, -1.00, 182.0, 25.3)">i</text><text xml:space="preserve" font-family="HelveticaNeue-Light,Helvetica Neue" font-size="32.0" fill="#000000" transform="matrix(1.00, 0.00, -0.00, -1.00, 187.9, 25.3)">n</text><text xml:space="preserve" font-family="HelveticaNeue-Light,Helvetica Neue" font-size="32.0" fill="#000000" transform="matrix(1.00, 0.00, -0.00, -1.00, 205.1, 25.3)">i</text><text xml:space="preserve" font-family="HelveticaNeue-Light,Helvetica Neue" font-size="32.0" fill="#000000" transform="matrix(1.00, 0.00, -0.00, -1.00, 211.0, 25.3)">c</text><text xml:space="preserve" font-family="HelveticaNeue-Light,Helvetica Neue" font-size="32.0" fill="#000000" transform="matrix(1.00, 0.00, -0.00, -1.00, 227.6, 25.3)">a</text><text xml:space="preserve" font-family="HelveticaNeue-Light,Helvetica Neue" font-size="32.0" fill="#000000" transform="matrix(1.00, 0.00, -0.00, -1.00, 244.2, 25.3)">l</text><text xml:space="preserve" font-family="HelveticaNeue-Light,Helvetica Neue" font-size="32.0" fill="#000000" transform="matrix(1.00, 0.00, -0.00, -1.00, 250.1, 25.3)"> </text><text xml:space="preserve" font-family="HelveticaNeue-Light,Helvetica Neue" font-size="32.0" fill="#000000" transform="matrix(1.00, 0.00, -0.00, -1.00, 259.0, 25.3)">E</text><text xml:space="preserve" font-family="HelveticaNeue-Light,Helvetica Neue" font-size="32.0" fill="#000000" transform="matrix(1.00, 0.00, -0.00, -1.00, 278.0, 25.3)">n</text><text xml:space="preserve" font-family="HelveticaNeue-Light,Helvetica Neue" font-size="32.0" fill="#000000" transform="matrix(1.00, 0.00, -0.00, -1.00, 295.2, 25.3)">d</text><text xml:space="preserve" font-family="HelveticaNeue-Light,Helvetica Neue" font-size="32.0" fill="#000000" transform="matrix(1.00, 0.00, -0.00, -1.00, 313.6, 25.3)">o</text><text xml:space="preserve" font-family="HelveticaNeue-Light,Helvetica Neue" font-size="32.0" fill="#000000" transform="matrix(1.00, 0.00, -0.00, -1.00, 331.3, 25.3)">c</text><text xml:space="preserve" font-family="HelveticaNeue-Light,Helvetica Neue" font-size="32.0" fill="#000000" transform="matrix(1.00, 0.00, -0.00, -1.00, 348.0, 25.3)">r</text><text xml:space="preserve" font-family="HelveticaNeue-Light,Helvetica Neue" font-size="32.0" fill="#000000" transform="matrix(1.00, 0.00, -0.00, -1.00, 358.0, 25.3)">i</text><text xml:space="preserve" font-family="HelveticaNeue-Light,Helvetica Neue" font-size="32.0" fill="#000000" transform="matrix(1.00, 0.00, -0.00, -1.00, 364.0, 25.3)">n</text><text xml:space="preserve" font-family="HelveticaNeue-Light,Helvetica Neue" font-size="32.0" fill="#000000" transform="matrix(1.00, 0.00, -0.00, -1.00, 381.1, 25.3)">o</text><text xml:space="preserve" font-family="HelveticaNeue-Light,Helvetica Neue" font-size="32.0" fill="#000000" transform="matrix(1.00, 0.00, -0.00, -1.00, 398.9, 25.3)">l</text><text xml:space="preserve" font-family="HelveticaNeue-Light,Helvetica Neue" font-size="32.0" fill="#000000" transform="matrix(1.00, 0.00, -0.00, -1.00, 404.8, 25.3)">o</text><text xml:space="preserve" font-family="HelveticaNeue-Light,Helvetica Neue" font-size="32.0" fill="#000000" transform="matrix(1.00, 0.00, -0.00, -1.00, 422.6, 25.3)">g</text><text xml:space="preserve" font-family="HelveticaNeue-Light,Helvetica Neue" font-size="32.0" fill="#000000" transform="matrix(1.00, 0.00, -0.00, -1.00, 440.4, 25.3)">y</text><text xml:space="preserve" font-family="HelveticaNeue-Light,Helvetica Neue" font-size="32.0" fill="#000000" transform="matrix(1.00, 0.00, -0.00, -1.00, 455.2, 25.3)"> </text><text xml:space="preserve" font-family="HelveticaNeue-Light,Helvetica Neue" font-size="32.0" fill="#000000" transform="matrix(1.00, 0.00, -0.00, -1.00, 464.1, 25.3)">&amp;</text><text xml:space="preserve" font-family="HelveticaNeue-Light,Helvetica Neue" font-size="32.0" fill="#000000" transform="matrix(1.00, 0.00, -0.00, -1.00, 483.7, 25.3)"> </text><text xml:space="preserve" font-family="HelveticaNeue-Light,Helvetica Neue" font-size="32.0" fill="#000000" transform="matrix(1.00, 0.00, -0.00, -1.00, 492.6, 25.3)">M</text><text xml:space="preserve" font-family="HelveticaNeue-Light,Helvetica Neue" font-size="32.0" fill="#000000" transform="matrix(1.00, 0.00, -0.00, -1.00, 518.9, 25.3)">e</text><text xml:space="preserve" font-family="HelveticaNeue-Light,Helvetica Neue" font-size="32.0" fill="#000000" transform="matrix(1.00, 0.00, -0.00, -1.00, 535.5, 25.3)">t</text><text xml:space="preserve" font-family="HelveticaNeue-Light,Helvetica Neue" font-size="32.0" fill="#000000" transform="matrix(1.00, 0.00, -0.00, -1.00, 544.9, 25.3)">a</text><text xml:space="preserve" font-family="HelveticaNeue-Light,Helvetica Neue" font-size="32.0" fill="#000000" transform="matrix(1.00, 0.00, -0.00, -1.00, 561.6, 25.3)">b</text><text xml:space="preserve" font-family="HelveticaNeue-Light,Helvetica Neue" font-size="32.0" fill="#000000" transform="matrix(1.00, 0.00, -0.00, -1.00, 579.9, 25.3)">o</text><text xml:space="preserve" font-family="HelveticaNeue-Light,Helvetica Neue" font-size="32.0" fill="#000000" transform="matrix(1.00, 0.00, -0.00, -1.00, 597.7, 25.3)">l</text><text xml:space="preserve" font-family="HelveticaNeue-Light,Helvetica Neue" font-size="32.0" fill="#000000" transform="matrix(1.00, 0.00, -0.00, -1.00, 603.6, 25.3)">i</text><text xml:space="preserve" font-family="HelveticaNeue-Light,Helvetica Neue" font-size="32.0" fill="#000000" transform="matrix(1.00, 0.00, -0.00, -1.00, 609.6, 25.3)">s</text><text xml:space="preserve" font-family="HelveticaNeue-Light,Helvetica Neue" font-size="32.0" fill="#000000" transform="matrix(1.00, 0.00, -0.00, -1.00, 624.9, 25.3)">m</text><text xml:space="preserve" font-family="HelveticaNeue-Light,Helvetica Neue" font-size="32.0" fill="#000000" transform="matrix(1.00, 0.00, -0.00, -1.00, 651.6, 25.3)">.</text><text xml:space="preserve" font-family="HelveticaNeue-Light,Helvetica Neue" font-size="32.0" fill="#000000" transform="matrix(1.00, 0.00, -0.00, -1.00, 660.5, 25.3)"> </text><text xml:space="preserve" font-family="HelveticaNeue-Light,Helvetica Neue" font-size="32.0" fill="#000000" transform="matrix(1.00, 0.00, -0.00, -1.00, 669.4, 25.3)">2</text><text xml:space="preserve" font-family="HelveticaNeue-Light,Helvetica Neue" font-size="32.0" fill="#000000" transform="matrix(1.00, 0.00, -0.00, -1.00, 687.2, 25.3)">0</text><text xml:space="preserve" font-family="HelveticaNeue-Light,Helvetica Neue" font-size="32.0" fill="#000000" transform="matrix(1.00, 0.00, -0.00, -1.00, 705.0, 25.3)">0</text><text xml:space="preserve" font-family="HelveticaNeue-Light,Helvetica Neue" font-size="32.0" fill="#000000" transform="matrix(1.00, 0.00, -0.00, -1.00, 722.8, 25.3)">0</text><text xml:space="preserve" font-family="HelveticaNeue-Light,Helvetica Neue" font-size="32.0" fill="#000000" transform="matrix(1.00, 0.00, -0.00, -1.00, 740.6, 25.3)"> </text><text xml:space="preserve" font-family="HelveticaNeue-Light,Helvetica Neue" font-size="32.0" fill="#000000" transform="matrix(1.00, 0.00, -0.00, -1.00, 749.5, 25.3)">J</text><text xml:space="preserve" font-family="HelveticaNeue-Light,Helvetica Neue" font-size="32.0" fill="#000000" transform="matrix(1.00, 0.00, -0.00, -1.00, 765.5, 25.3)">u</text><text xml:space="preserve" font-family="HelveticaNeue-Light,Helvetica Neue" font-size="32.0" fill="#000000" transform="matrix(1.00, 0.00, -0.00, -1.00, 782.6, 25.3)">l</text><text xml:space="preserve" font-family="HelveticaNeue-Light,Helvetica Neue" font-size="32.0" fill="#000000" transform="matrix(1.00, 0.00, -0.00, -1.00, 788.6, 25.3)"> </text><text xml:space="preserve" font-family="HelveticaNeue-Light,Helvetica Neue" font-size="32.0" fill="#000000" transform="matrix(1.00, 0.00, -0.00, -1.00, 797.5, 25.3)">1</text><text xml:space="preserve" font-family="HelveticaNeue-Light,Helvetica Neue" font-size="32.0" fill="#000000" transform="matrix(1.00, 0.00, -0.00, -1.00, 815.2, 25.3)">;</text><text xml:space="preserve" font-family="HelveticaNeue-Light,Helvetica Neue" font-size="32.0" fill="#000000" transform="matrix(1.00, 0.00, -0.00, -1.00, 824.1, 25.3)">8</text><text xml:space="preserve" font-family="HelveticaNeue-Light,Helvetica Neue" font-size="32.0" fill="#000000" transform="matrix(1.00, 0.00, -0.00, -1.00, 841.9, 25.3)">5</text><text xml:space="preserve" font-family="HelveticaNeue-Light,Helvetica Neue" font-size="32.0" fill="#000000" transform="matrix(1.00, 0.00, -0.00, -1.00, 859.7, 25.3)">(</text><text xml:space="preserve" font-family="HelveticaNeue-Light,Helvetica Neue" font-size="32.0" fill="#000000" transform="matrix(1.00, 0.00, -0.00, -1.00, 867.4, 25.3)">7</text><text xml:space="preserve" font-family="HelveticaNeue-Light,Helvetica Neue" font-size="32.0" fill="#000000" transform="matrix(1.00, 0.00, -0.00, -1.00, 885.2, 25.3)">)</text><text xml:space="preserve" font-family="HelveticaNeue-Light,Helvetica Neue" font-size="32.0" fill="#000000" transform="matrix(1.00, 0.00, -0.00, -1.00, 892.9, 25.3)">:</text><text xml:space="preserve" font-family="HelveticaNeue-Light,Helvetica Neue" font-size="32.0" fill="#000000" transform="matrix(1.00, 0.00, -0.00, -1.00, 901.8, 25.3)">2</text><text xml:space="preserve" font-family="HelveticaNeue-Light,Helvetica Neue" font-size="32.0" fill="#000000" transform="matrix(1.00, 0.00, -0.00, -1.00, 919.6, 25.3)">3</text><text xml:space="preserve" font-family="HelveticaNeue-Light,Helvetica Neue" font-size="32.0" fill="#000000" transform="matrix(1.00, 0.00, -0.00, -1.00, 937.4, 25.3)">7</text><text xml:space="preserve" font-family="HelveticaNeue-Light,Helvetica Neue" font-size="32.0" fill="#000000" transform="matrix(1.00, 0.00, -0.00, -1.00, 955.2, 25.3)">0</text><text xml:space="preserve" font-family="HelveticaNeue-Light,Helvetica Neue" font-size="32.0" fill="#000000" transform="matrix(1.00, 0.00, -0.00, -1.00, 973.0, 25.3)">–</text><text xml:space="preserve" font-family="HelveticaNeue-Light,Helvetica Neue" font-size="32.0" fill="#000000" transform="matrix(1.00, 0.00, -0.00, -1.00, 989.0, 25.3)">7</text><text xml:space="preserve" font-family="HelveticaNeue-Light,Helvetica Neue" font-size="32.0" fill="#000000" transform="matrix(1.00, 0.00, -0.00, -1.00, 1006.8, 25.3)">.</text></g></svg>