<?xml version="1.0" encoding="UTF-8" standalone="no"?><svg xmlns="http://www.w3.org/2000/svg" xmlns:xlink="http://www.w3.org/1999/xlink" clip-rule="evenodd" stroke-miterlimit="4.00" viewBox="0 0 921 91"><desc>SVG generated by Keynote</desc><defs></defs><g transform="matrix(1.00, 0.00, -0.00, -1.00, 0.0, 91.0)"><text xml:space="preserve" font-family="HelveticaNeue-Light" font-size="41.2" fill="#000000" transform="matrix(1.00, 0.00, -0.00, -1.00, 0.0, 60.0)">P</text><text xml:space="preserve" font-family="HelveticaNeue-Light" font-size="41.2" fill="#000000" transform="matrix(1.00, 0.00, -0.00, -1.00, 25.9, 60.0)">o</text><text xml:space="preserve" font-family="HelveticaNeue-Light" font-size="41.2" fill="#000000" transform="matrix(1.00, 0.00, -0.00, -1.00, 48.8, 60.0)">s</text><text xml:space="preserve" font-family="HelveticaNeue-Light" font-size="41.2" fill="#000000" transform="matrix(1.00, 0.00, -0.00, -1.00, 68.6, 60.0)">t</text><text xml:space="preserve" font-family="HelveticaNeue-Light" font-size="41.2" fill="#000000" transform="matrix(1.00, 0.00, -0.00, -1.00, 80.8, 60.0)">t</text><text xml:space="preserve" font-family="HelveticaNeue-Light" font-size="41.2" fill="#000000" transform="matrix(1.00, 0.00, -0.00, -1.00, 93.0, 60.0)">r</text><text xml:space="preserve" font-family="HelveticaNeue-Light" font-size="41.2" fill="#000000" transform="matrix(1.00, 0.00, -0.00, -1.00, 105.9, 60.0)">a</text><text xml:space="preserve" font-family="HelveticaNeue-Light" font-size="41.2" fill="#000000" transform="matrix(1.00, 0.00, -0.00, -1.00, 127.3, 60.0)">n</text><text xml:space="preserve" font-family="HelveticaNeue-Light" font-size="41.2" fill="#000000" transform="matrix(1.00, 0.00, -0.00, -1.00, 149.4, 60.0)">s</text><text xml:space="preserve" font-family="HelveticaNeue-Light" font-size="41.2" fill="#000000" transform="matrix(1.00, 0.00, -0.00, -1.00, 169.2, 60.0)">p</text><text xml:space="preserve" font-family="HelveticaNeue-Light" font-size="41.2" fill="#000000" transform="matrix(1.00, 0.00, -0.00, -1.00, 192.8, 60.0)">l</text><text xml:space="preserve" font-family="HelveticaNeue-Light" font-size="41.2" fill="#000000" transform="matrix(1.00, 0.00, -0.00, -1.00, 200.4, 60.0)">a</text><text xml:space="preserve" font-family="HelveticaNeue-Light" font-size="41.2" fill="#000000" transform="matrix(1.00, 0.00, -0.00, -1.00, 221.8, 60.0)">n</text><text xml:space="preserve" font-family="HelveticaNeue-Light" font-size="41.2" fill="#000000" transform="matrix(1.00, 0.00, -0.00, -1.00, 243.9, 60.0)">t</text><text xml:space="preserve" font-family="HelveticaNeue-Light" font-size="41.2" fill="#000000" transform="matrix(1.00, 0.00, -0.00, -1.00, 256.1, 60.0)">a</text><text xml:space="preserve" font-family="HelveticaNeue-Light" font-size="41.2" fill="#000000" transform="matrix(1.00, 0.00, -0.00, -1.00, 277.5, 60.0)">t</text><text xml:space="preserve" font-family="HelveticaNeue-Light" font-size="41.2" fill="#000000" transform="matrix(1.00, 0.00, -0.00, -1.00, 289.6, 60.0)">i</text><text xml:space="preserve" font-family="HelveticaNeue-Light" font-size="41.2" fill="#000000" transform="matrix(1.00, 0.00, -0.00, -1.00, 297.3, 60.0)">o</text><text xml:space="preserve" font-family="HelveticaNeue-Light" font-size="41.2" fill="#000000" transform="matrix(1.00, 0.00, -0.00, -1.00, 320.1, 60.0)">n</text><text xml:space="preserve" font-family="HelveticaNeue-Light" font-size="41.2" fill="#000000" transform="matrix(1.00, 0.00, -0.00, -1.00, 342.2, 60.0)"> </text><text xml:space="preserve" font-family="HelveticaNeue-Light" font-size="41.2" fill="#000000" transform="matrix(1.00, 0.00, -0.00, -1.00, 353.7, 60.0)">C</text><text xml:space="preserve" font-family="HelveticaNeue-Light" font-size="41.2" fill="#000000" transform="matrix(1.00, 0.00, -0.00, -1.00, 382.7, 60.0)">y</text><text xml:space="preserve" font-family="HelveticaNeue-Light" font-size="41.2" fill="#000000" transform="matrix(1.00, 0.00, -0.00, -1.00, 401.7, 60.0)"> </text><text xml:space="preserve" font-family="HelveticaNeue-Light" font-size="41.2" fill="#000000" transform="matrix(1.00, 0.00, -0.00, -1.00, 413.2, 60.0)">a</text><text xml:space="preserve" font-family="HelveticaNeue-Light" font-size="41.2" fill="#000000" transform="matrix(1.00, 0.00, -0.00, -1.00, 434.5, 60.0)">m</text><text xml:space="preserve" font-family="HelveticaNeue-Light" font-size="41.2" fill="#000000" transform="matrix(1.00, 0.00, -0.00, -1.00, 468.8, 60.0)">e</text><text xml:space="preserve" font-family="HelveticaNeue-Light" font-size="41.2" fill="#000000" transform="matrix(1.00, 0.00, -0.00, -1.00, 490.2, 60.0)">l</text><text xml:space="preserve" font-family="HelveticaNeue-Light" font-size="41.2" fill="#000000" transform="matrix(1.00, 0.00, -0.00, -1.00, 497.8, 60.0)">i</text><text xml:space="preserve" font-family="HelveticaNeue-Light" font-size="41.2" fill="#000000" transform="matrix(1.00, 0.00, -0.00, -1.00, 505.4, 60.0)">o</text><text xml:space="preserve" font-family="HelveticaNeue-Light" font-size="41.2" fill="#000000" transform="matrix(1.00, 0.00, -0.00, -1.00, 528.3, 60.0)">r</text><text xml:space="preserve" font-family="HelveticaNeue-Light" font-size="41.2" fill="#000000" transform="matrix(1.00, 0.00, -0.00, -1.00, 541.3, 60.0)">a</text><text xml:space="preserve" font-family="HelveticaNeue-Light" font-size="41.2" fill="#000000" transform="matrix(1.00, 0.00, -0.00, -1.00, 562.6, 60.0)">t</text><text xml:space="preserve" font-family="HelveticaNeue-Light" font-size="41.2" fill="#000000" transform="matrix(1.00, 0.00, -0.00, -1.00, 574.8, 60.0)">e</text><text xml:space="preserve" font-family="HelveticaNeue-Light" font-size="41.2" fill="#000000" transform="matrix(1.00, 0.00, -0.00, -1.00, 596.2, 60.0)">d</text><text xml:space="preserve" font-family="HelveticaNeue-Light" font-size="41.2" fill="#000000" transform="matrix(1.00, 0.00, -0.00, -1.00, 619.8, 60.0)"> </text><text xml:space="preserve" font-family="HelveticaNeue-Light" font-size="41.2" fill="#000000" transform="matrix(1.00, 0.00, -0.00, -1.00, 631.2, 60.0)">G</text><text xml:space="preserve" font-family="HelveticaNeue-Light" font-size="41.2" fill="#000000" transform="matrix(1.00, 0.00, -0.00, -1.00, 661.7, 60.0)">V</text><text xml:space="preserve" font-family="HelveticaNeue-Light" font-size="41.2" fill="#000000" transform="matrix(1.00, 0.00, -0.00, -1.00, 686.1, 60.0)">H</text><text xml:space="preserve" font-family="HelveticaNeue-Light" font-size="41.2" fill="#000000" transform="matrix(1.00, 0.00, -0.00, -1.00, 715.1, 60.0)">D</text><text xml:space="preserve" font-family="HelveticaNeue-Light" font-size="41.2" fill="#000000" transform="matrix(1.00, 0.00, -0.00, -1.00, 743.3, 60.0)"> </text><text xml:space="preserve" font-family="HelveticaNeue-Light" font-size="41.2" fill="#000000" transform="matrix(1.00, 0.00, -0.00, -1.00, 754.8, 60.0)">d</text><text xml:space="preserve" font-family="HelveticaNeue-Light" font-size="41.2" fill="#000000" transform="matrix(1.00, 0.00, -0.00, -1.00, 778.4, 60.0)">i</text><text xml:space="preserve" font-family="HelveticaNeue-Light" font-size="41.2" fill="#000000" transform="matrix(1.00, 0.00, -0.00, -1.00, 786.0, 60.0)">r</text><text xml:space="preserve" font-family="HelveticaNeue-Light" font-size="41.2" fill="#000000" transform="matrix(1.00, 0.00, -0.00, -1.00, 798.2, 60.0)">e</text><text xml:space="preserve" font-family="HelveticaNeue-Light" font-size="41.2" fill="#000000" transform="matrix(1.00, 0.00, -0.00, -1.00, 819.6, 60.0)">c</text><text xml:space="preserve" font-family="HelveticaNeue-Light" font-size="41.2" fill="#000000" transform="matrix(1.00, 0.00, -0.00, -1.00, 840.9, 60.0)">t</text><text xml:space="preserve" font-family="HelveticaNeue-Light" font-size="41.2" fill="#000000" transform="matrix(1.00, 0.00, -0.00, -1.00, 853.1, 60.0)">e</text><text xml:space="preserve" font-family="HelveticaNeue-Light" font-size="41.2" fill="#000000" transform="matrix(1.00, 0.00, -0.00, -1.00, 874.5, 60.0)">d</text><text xml:space="preserve" font-family="HelveticaNeue-Light" font-size="41.2" fill="#000000" transform="matrix(1.00, 0.00, -0.00, -1.00, 898.1, 60.0)"> </text><text xml:space="preserve" font-family="HelveticaNeue-Light" font-size="41.2" fill="#000000" transform="matrix(1.00, 0.00, -0.00, -1.00, 0.0, 10.0)">a</text><text xml:space="preserve" font-family="HelveticaNeue-Light" font-size="41.2" fill="#000000" transform="matrix(1.00, 0.00, -0.00, -1.00, 21.4, 10.0)">g</text><text xml:space="preserve" font-family="HelveticaNeue-Light" font-size="41.2" fill="#000000" transform="matrix(1.00, 0.00, -0.00, -1.00, 44.2, 10.0)">a</text><text xml:space="preserve" font-family="HelveticaNeue-Light" font-size="41.2" fill="#000000" transform="matrix(1.00, 0.00, -0.00, -1.00, 65.6, 10.0)">i</text><text xml:space="preserve" font-family="HelveticaNeue-Light" font-size="41.2" fill="#000000" transform="matrix(1.00, 0.00, -0.00, -1.00, 73.2, 10.0)">n</text><text xml:space="preserve" font-family="HelveticaNeue-Light" font-size="41.2" fill="#000000" transform="matrix(1.00, 0.00, -0.00, -1.00, 95.3, 10.0)">s</text><text xml:space="preserve" font-family="HelveticaNeue-Light" font-size="41.2" fill="#000000" transform="matrix(1.00, 0.00, -0.00, -1.00, 115.1, 10.0)">t</text><text xml:space="preserve" font-family="HelveticaNeue-Light" font-size="41.2" fill="#000000" transform="matrix(1.00, 0.00, -0.00, -1.00, 127.3, 10.0)"> </text><text xml:space="preserve" font-family="HelveticaNeue-Light" font-size="41.2" fill="#000000" transform="matrix(1.00, 0.00, -0.00, -1.00, 138.8, 10.0)">m</text><text xml:space="preserve" font-family="HelveticaNeue-Light" font-size="41.2" fill="#000000" transform="matrix(1.00, 0.00, -0.00, -1.00, 173.0, 10.0)">a</text><text xml:space="preserve" font-family="HelveticaNeue-Light" font-size="41.2" fill="#000000" transform="matrix(1.00, 0.00, -0.00, -1.00, 194.4, 10.0)">j</text><text xml:space="preserve" font-family="HelveticaNeue-Light" font-size="41.2" fill="#000000" transform="matrix(1.00, 0.00, -0.00, -1.00, 202.0, 10.0)">o</text><text xml:space="preserve" font-family="HelveticaNeue-Light" font-size="41.2" fill="#000000" transform="matrix(1.00, 0.00, -0.00, -1.00, 224.9, 10.0)">r</text><text xml:space="preserve" font-family="HelveticaNeue-Light" font-size="41.2" fill="#000000" transform="matrix(1.00, 0.00, -0.00, -1.00, 237.9, 10.0)"> </text><text xml:space="preserve" font-family="HelveticaNeue-Light" font-size="41.2" fill="#000000" transform="matrix(1.00, 0.00, -0.00, -1.00, 249.3, 10.0)">p</text><text xml:space="preserve" font-family="HelveticaNeue-Light" font-size="41.2" fill="#000000" transform="matrix(1.00, 0.00, -0.00, -1.00, 272.9, 10.0)">l</text><text xml:space="preserve" font-family="HelveticaNeue-Light" font-size="41.2" fill="#000000" transform="matrix(1.00, 0.00, -0.00, -1.00, 280.5, 10.0)">u</text><text xml:space="preserve" font-family="HelveticaNeue-Light" font-size="41.2" fill="#000000" transform="matrix(1.00, 0.00, -0.00, -1.00, 302.6, 10.0)">s</text><text xml:space="preserve" font-family="HelveticaNeue-Light" font-size="41.2" fill="#000000" transform="matrix(1.00, 0.00, -0.00, -1.00, 322.4, 10.0)"> </text><text xml:space="preserve" font-family="HelveticaNeue-Light" font-size="41.2" fill="#000000" transform="matrix(1.00, 0.00, -0.00, -1.00, 333.9, 10.0)">m</text><text xml:space="preserve" font-family="HelveticaNeue-Light" font-size="41.2" fill="#000000" transform="matrix(1.00, 0.00, -0.00, -1.00, 368.2, 10.0)">i</text><text xml:space="preserve" font-family="HelveticaNeue-Light" font-size="41.2" fill="#000000" transform="matrix(1.00, 0.00, -0.00, -1.00, 375.8, 10.0)">n</text><text xml:space="preserve" font-family="HelveticaNeue-Light" font-size="41.2" fill="#000000" transform="matrix(1.00, 0.00, -0.00, -1.00, 397.9, 10.0)">o</text><text xml:space="preserve" font-family="HelveticaNeue-Light" font-size="41.2" fill="#000000" transform="matrix(1.00, 0.00, -0.00, -1.00, 420.8, 10.0)">r</text><text xml:space="preserve" font-family="HelveticaNeue-Light" font-size="41.2" fill="#000000" transform="matrix(1.00, 0.00, -0.00, -1.00, 433.7, 10.0)"> </text><text xml:space="preserve" font-family="HelveticaNeue-Light" font-size="41.2" fill="#000000" transform="matrix(1.00, 0.00, -0.00, -1.00, 445.2, 10.0)">h</text><text xml:space="preserve" font-family="HelveticaNeue-Light" font-size="41.2" fill="#000000" transform="matrix(1.00, 0.00, -0.00, -1.00, 467.3, 10.0)">i</text><text xml:space="preserve" font-family="HelveticaNeue-Light" font-size="41.2" fill="#000000" transform="matrix(1.00, 0.00, -0.00, -1.00, 474.9, 10.0)">s</text><text xml:space="preserve" font-family="HelveticaNeue-Light" font-size="41.2" fill="#000000" transform="matrix(1.00, 0.00, -0.00, -1.00, 494.7, 10.0)">t</text><text xml:space="preserve" font-family="HelveticaNeue-Light" font-size="41.2" fill="#000000" transform="matrix(1.00, 0.00, -0.00, -1.00, 506.9, 10.0)">o</text><text xml:space="preserve" font-family="HelveticaNeue-Light" font-size="41.2" fill="#000000" transform="matrix(1.00, 0.00, -0.00, -1.00, 529.8, 10.0)">c</text><text xml:space="preserve" font-family="HelveticaNeue-Light" font-size="41.2" fill="#000000" transform="matrix(1.00, 0.00, -0.00, -1.00, 551.1, 10.0)">o</text><text xml:space="preserve" font-family="HelveticaNeue-Light" font-size="41.2" fill="#000000" transform="matrix(1.00, 0.00, -0.00, -1.00, 574.0, 10.0)">m</text><text xml:space="preserve" font-family="HelveticaNeue-Light" font-size="41.2" fill="#000000" transform="matrix(1.00, 0.00, -0.00, -1.00, 608.3, 10.0)">p</text><text xml:space="preserve" font-family="HelveticaNeue-Light" font-size="41.2" fill="#000000" transform="matrix(1.00, 0.00, -0.00, -1.00, 631.9, 10.0)">a</text><text xml:space="preserve" font-family="HelveticaNeue-Light" font-size="41.2" fill="#000000" transform="matrix(1.00, 0.00, -0.00, -1.00, 653.3, 10.0)">t</text><text xml:space="preserve" font-family="HelveticaNeue-Light" font-size="41.2" fill="#000000" transform="matrix(1.00, 0.00, -0.00, -1.00, 665.5, 10.0)">i</text><text xml:space="preserve" font-family="HelveticaNeue-Light" font-size="41.2" fill="#000000" transform="matrix(1.00, 0.00, -0.00, -1.00, 673.1, 10.0)">b</text><text xml:space="preserve" font-family="HelveticaNeue-Light" font-size="41.2" fill="#000000" transform="matrix(1.00, 0.00, -0.00, -1.00, 696.7, 10.0)">i</text><text xml:space="preserve" font-family="HelveticaNeue-Light" font-size="41.2" fill="#000000" transform="matrix(1.00, 0.00, -0.00, -1.00, 704.3, 10.0)">l</text><text xml:space="preserve" font-family="HelveticaNeue-Light" font-size="41.2" fill="#000000" transform="matrix(1.00, 0.00, -0.00, -1.00, 711.9, 10.0)">i</text><text xml:space="preserve" font-family="HelveticaNeue-Light" font-size="41.2" fill="#000000" transform="matrix(1.00, 0.00, -0.00, -1.00, 719.6, 10.0)">t</text><text xml:space="preserve" font-family="HelveticaNeue-Light" font-size="41.2" fill="#000000" transform="matrix(1.00, 0.00, -0.00, -1.00, 731.7, 10.0)">y</text><text xml:space="preserve" font-family="HelveticaNeue-Light" font-size="41.2" fill="#000000" transform="matrix(1.00, 0.00, -0.00, -1.00, 750.8, 10.0)"> </text><text xml:space="preserve" font-family="HelveticaNeue-Light" font-size="41.2" fill="#000000" transform="matrix(1.00, 0.00, -0.00, -1.00, 762.2, 10.0)">a</text><text xml:space="preserve" font-family="HelveticaNeue-Light" font-size="41.2" fill="#000000" transform="matrix(1.00, 0.00, -0.00, -1.00, 783.6, 10.0)">n</text><text xml:space="preserve" font-family="HelveticaNeue-Light" font-size="41.2" fill="#000000" transform="matrix(1.00, 0.00, -0.00, -1.00, 805.7, 10.0)">t</text><text xml:space="preserve" font-family="HelveticaNeue-Light" font-size="41.2" fill="#000000" transform="matrix(1.00, 0.00, -0.00, -1.00, 817.9, 10.0)">i</text><text xml:space="preserve" font-family="HelveticaNeue-Light" font-size="41.2" fill="#000000" transform="matrix(1.00, 0.00, -0.00, -1.00, 825.5, 10.0)">g</text><text xml:space="preserve" font-family="HelveticaNeue-Light" font-size="41.2" fill="#000000" transform="matrix(1.00, 0.00, -0.00, -1.00, 848.4, 10.0)">e</text><text xml:space="preserve" font-family="HelveticaNeue-Light" font-size="41.2" fill="#000000" transform="matrix(1.00, 0.00, -0.00, -1.00, 869.8, 10.0)">n</text><text xml:space="preserve" font-family="HelveticaNeue-Light" font-size="41.2" fill="#000000" transform="matrix(1.00, 0.00, -0.00, -1.00, 891.9, 10.0)">s</text><text xml:space="preserve" font-family="HelveticaNeue-Light" font-size="41.2" fill="#000000" transform="matrix(1.00, 0.00, -0.00, -1.00, 911.7, 10.0)">.</text></g></svg>