<?xml version="1.0" encoding="UTF-8" standalone="no"?><svg xmlns="http://www.w3.org/2000/svg" xmlns:xlink="http://www.w3.org/1999/xlink" clip-rule="evenodd" stroke-miterlimit="10" viewBox="0 0 1024 768"><desc>SVG generated by Keynote</desc><defs></defs><g transform="matrix(1.00, 0.00, -0.00, -1.00, 0.0, 768.0)"><path d="M 0.0 768.0 L 1024.0 768.0 L 1024.0 0.0 L 0.0 0.0 Z M 0.0 768.0 " fill="#FEFFFE"></path><path d="M 0.5 0.5 L 934.5 0.5 L 934.5 0.5 L 0.5 0.5 Z M 0.0 0.0 " fill="none" stroke="#9A9A99" stroke-width="1.00" transform="matrix(1.00, 0.00, 0.00, -1.00, 45.0, 613.0)"></path><text xml:space="preserve" font-family="HelveticaNeue-Light,Helvetica Neue" font-size="42.0" fill="#000000" transform="matrix(1.00, 0.00, -0.00, -1.00, 49.0, 645.2)">R</text><text xml:space="preserve" font-family="HelveticaNeue-Light,Helvetica Neue" font-size="42.0" fill="#000000" transform="matrix(1.00, 0.00, -0.00, -1.00, 77.0, 645.2)">i</text><text xml:space="preserve" font-family="HelveticaNeue-Light,Helvetica Neue" font-size="42.0" fill="#000000" transform="matrix(1.00, 0.00, -0.00, -1.00, 84.8, 645.2)">s</text><text xml:space="preserve" font-family="HelveticaNeue-Light,Helvetica Neue" font-size="42.0" fill="#000000" transform="matrix(1.00, 0.00, -0.00, -1.00, 105.0, 645.2)">k</text><text xml:space="preserve" font-family="HelveticaNeue-Light,Helvetica Neue" font-size="42.0" fill="#000000" transform="matrix(1.00, 0.00, -0.00, -1.00, 126.0, 645.2)"> </text><text xml:space="preserve" font-family="HelveticaNeue-Light,Helvetica Neue" font-size="42.0" fill="#000000" transform="matrix(1.00, 0.00, -0.00, -1.00, 137.7, 645.2)">f</text><text xml:space="preserve" font-family="HelveticaNeue-Light,Helvetica Neue" font-size="42.0" fill="#000000" transform="matrix(1.00, 0.00, -0.00, -1.00, 148.5, 645.2)">a</text><text xml:space="preserve" font-family="HelveticaNeue-Light,Helvetica Neue" font-size="42.0" fill="#000000" transform="matrix(1.00, 0.00, -0.00, -1.00, 170.3, 645.2)">c</text><text xml:space="preserve" font-family="HelveticaNeue-Light,Helvetica Neue" font-size="42.0" fill="#000000" transform="matrix(1.00, 0.00, -0.00, -1.00, 192.1, 645.2)">t</text><text xml:space="preserve" font-family="HelveticaNeue-Light,Helvetica Neue" font-size="42.0" fill="#000000" transform="matrix(1.00, 0.00, -0.00, -1.00, 204.6, 645.2)">o</text><text xml:space="preserve" font-family="HelveticaNeue-Light,Helvetica Neue" font-size="42.0" fill="#000000" transform="matrix(1.00, 0.00, -0.00, -1.00, 227.9, 645.2)">r</text><text xml:space="preserve" font-family="HelveticaNeue-Light,Helvetica Neue" font-size="42.0" fill="#000000" transform="matrix(1.00, 0.00, -0.00, -1.00, 241.2, 645.2)">s</text><text xml:space="preserve" font-family="HelveticaNeue-Light,Helvetica Neue" font-size="42.0" fill="#000000" transform="matrix(1.00, 0.00, -0.00, -1.00, 261.4, 645.2)"> </text><text xml:space="preserve" font-family="HelveticaNeue-Light,Helvetica Neue" font-size="42.0" fill="#000000" transform="matrix(1.00, 0.00, -0.00, -1.00, 273.0, 645.2)">f</text><text xml:space="preserve" font-family="HelveticaNeue-Light,Helvetica Neue" font-size="42.0" fill="#000000" transform="matrix(1.00, 0.00, -0.00, -1.00, 283.9, 645.2)">o</text><text xml:space="preserve" font-family="HelveticaNeue-Light,Helvetica Neue" font-size="42.0" fill="#000000" transform="matrix(1.00, 0.00, -0.00, -1.00, 307.3, 645.2)">r</text><text xml:space="preserve" font-family="HelveticaNeue-Light,Helvetica Neue" font-size="42.0" fill="#000000" transform="matrix(1.00, 0.00, -0.00, -1.00, 320.5, 645.2)"> </text><text xml:space="preserve" font-family="HelveticaNeue-Light,Helvetica Neue" font-size="42.0" fill="#000000" transform="matrix(1.00, 0.00, -0.00, -1.00, 332.2, 645.2)">m</text><text xml:space="preserve" font-family="HelveticaNeue-Light,Helvetica Neue" font-size="42.0" fill="#000000" transform="matrix(1.00, 0.00, -0.00, -1.00, 367.1, 645.2)">a</text><text xml:space="preserve" font-family="HelveticaNeue-Light,Helvetica Neue" font-size="42.0" fill="#000000" transform="matrix(1.00, 0.00, -0.00, -1.00, 388.9, 645.2)">l</text><text xml:space="preserve" font-family="HelveticaNeue-Light,Helvetica Neue" font-size="42.0" fill="#000000" transform="matrix(1.00, 0.00, -0.00, -1.00, 396.7, 645.2)">e</text><text xml:space="preserve" font-family="HelveticaNeue-Light,Helvetica Neue" font-size="42.0" fill="#000000" transform="matrix(1.00, 0.00, -0.00, -1.00, 418.5, 645.2)"> </text><text xml:space="preserve" font-family="HelveticaNeue-Light,Helvetica Neue" font-size="42.0" fill="#000000" transform="matrix(1.00, 0.00, -0.00, -1.00, 430.2, 645.2)">b</text><text xml:space="preserve" font-family="HelveticaNeue-Light,Helvetica Neue" font-size="42.0" fill="#000000" transform="matrix(1.00, 0.00, -0.00, -1.00, 454.3, 645.2)">r</text><text xml:space="preserve" font-family="HelveticaNeue-Light,Helvetica Neue" font-size="42.0" fill="#000000" transform="matrix(1.00, 0.00, -0.00, -1.00, 466.8, 645.2)">e</text><text xml:space="preserve" font-family="HelveticaNeue-Light,Helvetica Neue" font-size="42.0" fill="#000000" transform="matrix(1.00, 0.00, -0.00, -1.00, 488.6, 645.2)">a</text><text xml:space="preserve" font-family="HelveticaNeue-Light,Helvetica Neue" font-size="42.0" fill="#000000" transform="matrix(1.00, 0.00, -0.00, -1.00, 510.4, 645.2)">s</text><text xml:space="preserve" font-family="HelveticaNeue-Light,Helvetica Neue" font-size="42.0" fill="#000000" transform="matrix(1.00, 0.00, -0.00, -1.00, 530.6, 645.2)">t</text><text xml:space="preserve" font-family="HelveticaNeue-Light,Helvetica Neue" font-size="42.0" fill="#000000" transform="matrix(1.00, 0.00, -0.00, -1.00, 543.0, 645.2)"> </text><text xml:space="preserve" font-family="HelveticaNeue-Light,Helvetica Neue" font-size="42.0" fill="#000000" transform="matrix(1.00, 0.00, -0.00, -1.00, 554.7, 645.2)">c</text><text xml:space="preserve" font-family="HelveticaNeue-Light,Helvetica Neue" font-size="42.0" fill="#000000" transform="matrix(1.00, 0.00, -0.00, -1.00, 576.5, 645.2)">a</text><text xml:space="preserve" font-family="HelveticaNeue-Light,Helvetica Neue" font-size="42.0" fill="#000000" transform="matrix(1.00, 0.00, -0.00, -1.00, 598.3, 645.2)">n</text><text xml:space="preserve" font-family="HelveticaNeue-Light,Helvetica Neue" font-size="42.0" fill="#000000" transform="matrix(1.00, 0.00, -0.00, -1.00, 620.8, 645.2)">c</text><text xml:space="preserve" font-family="HelveticaNeue-Light,Helvetica Neue" font-size="42.0" fill="#000000" transform="matrix(1.00, 0.00, -0.00, -1.00, 642.6, 645.2)">e</text><text xml:space="preserve" font-family="HelveticaNeue-Light,Helvetica Neue" font-size="42.0" fill="#000000" transform="matrix(1.00, 0.00, -0.00, -1.00, 664.4, 645.2)">r</text><text xml:space="preserve" font-family="HelveticaNeue-Light,Helvetica Neue" font-size="36.0" fill="#747373" transform="matrix(1.00, 0.00, -0.00, -1.00, 47.6, 553.7)">H</text><text xml:space="preserve" font-family="HelveticaNeue-Light,Helvetica Neue" font-size="36.0" fill="#747373" transform="matrix(1.00, 0.00, -0.00, -1.00, 73.0, 553.7)">o</text><text xml:space="preserve" font-family="HelveticaNeue-Light,Helvetica Neue" font-size="36.0" fill="#747373" transform="matrix(1.00, 0.00, -0.00, -1.00, 93.0, 553.7)">r</text><text xml:space="preserve" font-family="HelveticaNeue-Light,Helvetica Neue" font-size="36.0" fill="#747373" transform="matrix(1.00, 0.00, -0.00, -1.00, 104.3, 553.7)">m</text><text xml:space="preserve" font-family="HelveticaNeue-Light,Helvetica Neue" font-size="36.0" fill="#747373" transform="matrix(1.00, 0.00, -0.00, -1.00, 134.3, 553.7)">o</text><text xml:space="preserve" font-family="HelveticaNeue-Light,Helvetica Neue" font-size="36.0" fill="#747373" transform="matrix(1.00, 0.00, -0.00, -1.00, 154.3, 553.7)">n</text><text xml:space="preserve" font-family="HelveticaNeue-Light,Helvetica Neue" font-size="36.0" fill="#747373" transform="matrix(1.00, 0.00, -0.00, -1.00, 173.7, 553.7)">a</text><text xml:space="preserve" font-family="HelveticaNeue-Light,Helvetica Neue" font-size="36.0" fill="#747373" transform="matrix(1.00, 0.00, -0.00, -1.00, 192.4, 553.7)">l</text><text xml:space="preserve" font-family="HelveticaNeue-Light,Helvetica Neue" font-size="36.0" fill="#747373" transform="matrix(1.00, 0.00, -0.00, -1.00, 199.0, 553.7)"> </text><text xml:space="preserve" font-family="HelveticaNeue,Helvetica Neue" font-size="27.0" fill="#747373" transform="matrix(1.00, 0.00, -0.00, -1.00, 83.6, 471.2)">•</text><text xml:space="preserve" font-family="HelveticaNeue-Light,Helvetica Neue" font-size="36.0" fill="#747373" transform="matrix(1.00, 0.00, -0.00, -1.00, 119.6, 467.7)">t</text><text xml:space="preserve" font-family="HelveticaNeue-Light,Helvetica Neue" font-size="36.0" fill="#747373" transform="matrix(1.00, 0.00, -0.00, -1.00, 130.3, 467.7)">e</text><text xml:space="preserve" font-family="HelveticaNeue-Light,Helvetica Neue" font-size="36.0" fill="#747373" transform="matrix(1.00, 0.00, -0.00, -1.00, 149.0, 467.7)">s</text><text xml:space="preserve" font-family="HelveticaNeue-Light,Helvetica Neue" font-size="36.0" fill="#747373" transform="matrix(1.00, 0.00, -0.00, -1.00, 166.3, 467.7)">t</text><text xml:space="preserve" font-family="HelveticaNeue-Light,Helvetica Neue" font-size="36.0" fill="#747373" transform="matrix(1.00, 0.00, -0.00, -1.00, 176.9, 467.7)">i</text><text xml:space="preserve" font-family="HelveticaNeue-Light,Helvetica Neue" font-size="36.0" fill="#747373" transform="matrix(1.00, 0.00, -0.00, -1.00, 183.6, 467.7)">c</text><text xml:space="preserve" font-family="HelveticaNeue-Light,Helvetica Neue" font-size="36.0" fill="#747373" transform="matrix(1.00, 0.00, -0.00, -1.00, 202.3, 467.7)">u</text><text xml:space="preserve" font-family="HelveticaNeue-Light,Helvetica Neue" font-size="36.0" fill="#747373" transform="matrix(1.00, 0.00, -0.00, -1.00, 221.6, 467.7)">l</text><text xml:space="preserve" font-family="HelveticaNeue-Light,Helvetica Neue" font-size="36.0" fill="#747373" transform="matrix(1.00, 0.00, -0.00, -1.00, 228.3, 467.7)">a</text><text xml:space="preserve" font-family="HelveticaNeue-Light,Helvetica Neue" font-size="36.0" fill="#747373" transform="matrix(1.00, 0.00, -0.00, -1.00, 247.0, 467.7)">r</text><text xml:space="preserve" font-family="HelveticaNeue-Light,Helvetica Neue" font-size="36.0" fill="#747373" transform="matrix(1.00, 0.00, -0.00, -1.00, 258.3, 467.7)"> </text><text xml:space="preserve" font-family="HelveticaNeue-Light,Helvetica Neue" font-size="36.0" fill="#747373" transform="matrix(1.00, 0.00, -0.00, -1.00, 268.3, 467.7)">a</text><text xml:space="preserve" font-family="HelveticaNeue-Light,Helvetica Neue" font-size="36.0" fill="#747373" transform="matrix(1.00, 0.00, -0.00, -1.00, 287.0, 467.7)">b</text><text xml:space="preserve" font-family="HelveticaNeue-Light,Helvetica Neue" font-size="36.0" fill="#747373" transform="matrix(1.00, 0.00, -0.00, -1.00, 307.7, 467.7)">n</text><text xml:space="preserve" font-family="HelveticaNeue-Light,Helvetica Neue" font-size="36.0" fill="#747373" transform="matrix(1.00, 0.00, -0.00, -1.00, 327.0, 467.7)">o</text><text xml:space="preserve" font-family="HelveticaNeue-Light,Helvetica Neue" font-size="36.0" fill="#747373" transform="matrix(1.00, 0.00, -0.00, -1.00, 347.0, 467.7)">r</text><text xml:space="preserve" font-family="HelveticaNeue-Light,Helvetica Neue" font-size="36.0" fill="#747373" transform="matrix(1.00, 0.00, -0.00, -1.00, 358.3, 467.7)">m</text><text xml:space="preserve" font-family="HelveticaNeue-Light,Helvetica Neue" font-size="36.0" fill="#747373" transform="matrix(1.00, 0.00, -0.00, -1.00, 388.3, 467.7)">a</text><text xml:space="preserve" font-family="HelveticaNeue-Light,Helvetica Neue" font-size="36.0" fill="#747373" transform="matrix(1.00, 0.00, -0.00, -1.00, 407.0, 467.7)">l</text><text xml:space="preserve" font-family="HelveticaNeue-Light,Helvetica Neue" font-size="36.0" fill="#747373" transform="matrix(1.00, 0.00, -0.00, -1.00, 413.7, 467.7)">i</text><text xml:space="preserve" font-family="HelveticaNeue-Light,Helvetica Neue" font-size="36.0" fill="#747373" transform="matrix(1.00, 0.00, -0.00, -1.00, 420.3, 467.7)">t</text><text xml:space="preserve" font-family="HelveticaNeue-Light,Helvetica Neue" font-size="36.0" fill="#747373" transform="matrix(1.00, 0.00, -0.00, -1.00, 431.0, 467.7)">i</text><text xml:space="preserve" font-family="HelveticaNeue-Light,Helvetica Neue" font-size="36.0" fill="#747373" transform="matrix(1.00, 0.00, -0.00, -1.00, 437.7, 467.7)">e</text><text xml:space="preserve" font-family="HelveticaNeue-Light,Helvetica Neue" font-size="36.0" fill="#747373" transform="matrix(1.00, 0.00, -0.00, -1.00, 456.3, 467.7)">s</text><text xml:space="preserve" font-family="HelveticaNeue-Light,Helvetica Neue" font-size="36.0" fill="#747373" transform="matrix(1.00, 0.00, -0.00, -1.00, 473.7, 467.7)"> </text><text xml:space="preserve" font-family="HelveticaNeue,Helvetica Neue" font-size="27.0" fill="#747373" transform="matrix(1.00, 0.00, -0.00, -1.00, 83.6, 385.2)">•</text><text xml:space="preserve" font-family="HelveticaNeue-Light,Helvetica Neue" font-size="36.0" fill="#747373" transform="matrix(1.00, 0.00, -0.00, -1.00, 119.6, 381.7)">l</text><text xml:space="preserve" font-family="HelveticaNeue-Light,Helvetica Neue" font-size="36.0" fill="#747373" transform="matrix(1.00, 0.00, -0.00, -1.00, 126.3, 381.7)">i</text><text xml:space="preserve" font-family="HelveticaNeue-Light,Helvetica Neue" font-size="36.0" fill="#747373" transform="matrix(1.00, 0.00, -0.00, -1.00, 133.0, 381.7)">v</text><text xml:space="preserve" font-family="HelveticaNeue-Light,Helvetica Neue" font-size="36.0" fill="#747373" transform="matrix(1.00, 0.00, -0.00, -1.00, 149.6, 381.7)">e</text><text xml:space="preserve" font-family="HelveticaNeue-Light,Helvetica Neue" font-size="36.0" fill="#747373" transform="matrix(1.00, 0.00, -0.00, -1.00, 168.3, 381.7)">r</text><text xml:space="preserve" font-family="HelveticaNeue-Light,Helvetica Neue" font-size="36.0" fill="#747373" transform="matrix(1.00, 0.00, -0.00, -1.00, 179.6, 381.7)"> </text><text xml:space="preserve" font-family="HelveticaNeue-Light,Helvetica Neue" font-size="36.0" fill="#747373" transform="matrix(1.00, 0.00, -0.00, -1.00, 189.7, 381.7)">d</text><text xml:space="preserve" font-family="HelveticaNeue-Light,Helvetica Neue" font-size="36.0" fill="#747373" transform="matrix(1.00, 0.00, -0.00, -1.00, 210.3, 381.7)">i</text><text xml:space="preserve" font-family="HelveticaNeue-Light,Helvetica Neue" font-size="36.0" fill="#747373" transform="matrix(1.00, 0.00, -0.00, -1.00, 217.0, 381.7)">s</text><text xml:space="preserve" font-family="HelveticaNeue-Light,Helvetica Neue" font-size="36.0" fill="#747373" transform="matrix(1.00, 0.00, -0.00, -1.00, 234.3, 381.7)">e</text><text xml:space="preserve" font-family="HelveticaNeue-Light,Helvetica Neue" font-size="36.0" fill="#747373" transform="matrix(1.00, 0.00, -0.00, -1.00, 253.0, 381.7)">a</text><text xml:space="preserve" font-family="HelveticaNeue-Light,Helvetica Neue" font-size="36.0" fill="#747373" transform="matrix(1.00, 0.00, -0.00, -1.00, 271.7, 381.7)">s</text><text xml:space="preserve" font-family="HelveticaNeue-Light,Helvetica Neue" font-size="36.0" fill="#747373" transform="matrix(1.00, 0.00, -0.00, -1.00, 289.0, 381.7)">e</text><text xml:space="preserve" font-family="HelveticaNeue-Light,Helvetica Neue" font-size="36.0" fill="#747373" transform="matrix(1.00, 0.00, -0.00, -1.00, 307.7, 381.7)"> </text><text xml:space="preserve" font-family="HelveticaNeue,Helvetica Neue" font-size="27.0" fill="#747373" transform="matrix(1.00, 0.00, -0.00, -1.00, 83.6, 298.5)">•</text><text xml:space="preserve" font-family="HelveticaNeue-Light,Helvetica Neue" font-size="36.0" fill="#747373" transform="matrix(1.00, 0.00, -0.00, -1.00, 119.6, 295.7)">o</text><text xml:space="preserve" font-family="HelveticaNeue-Light,Helvetica Neue" font-size="36.0" fill="#747373" transform="matrix(1.00, 0.00, -0.00, -1.00, 139.6, 295.7)">b</text><text xml:space="preserve" font-family="HelveticaNeue-Light,Helvetica Neue" font-size="36.0" fill="#747373" transform="matrix(1.00, 0.00, -0.00, -1.00, 160.3, 295.7)">e</text><text xml:space="preserve" font-family="HelveticaNeue-Light,Helvetica Neue" font-size="36.0" fill="#747373" transform="matrix(1.00, 0.00, -0.00, -1.00, 179.0, 295.7)">s</text><text xml:space="preserve" font-family="HelveticaNeue-Light,Helvetica Neue" font-size="36.0" fill="#747373" transform="matrix(1.00, 0.00, -0.00, -1.00, 196.3, 295.7)">i</text><text xml:space="preserve" font-family="HelveticaNeue-Light,Helvetica Neue" font-size="36.0" fill="#747373" transform="matrix(1.00, 0.00, -0.00, -1.00, 203.0, 295.7)">t</text><text xml:space="preserve" font-family="HelveticaNeue-Light,Helvetica Neue" font-size="36.0" fill="#747373" transform="matrix(1.00, 0.00, -0.00, -1.00, 213.6, 295.7)">y</text><text xml:space="preserve" font-family="HelveticaNeue-Light,Helvetica Neue" font-size="36.0" fill="#747373" transform="matrix(1.00, 0.00, -0.00, -1.00, 230.3, 295.7)"> </text><text xml:space="preserve" font-family="HelveticaNeue-Light,Helvetica Neue" font-size="36.0" fill="#747373" transform="matrix(1.00, 0.00, -0.00, -1.00, 240.3, 295.7)">(</text><text xml:space="preserve" font-family="AppleSymbols,Apple Symbols" font-size="36.0" fill="#747373" transform="matrix(1.00, 0.00, -0.00, -1.00, 249.0, 295.7)">⨉</text><text xml:space="preserve" font-family="HelveticaNeue-Light,Helvetica Neue" font-size="36.0" fill="#747373" transform="matrix(1.00, 0.00, -0.00, -1.00, 273.0, 295.7)">2</text><text xml:space="preserve" font-family="HelveticaNeue-Light,Helvetica Neue" font-size="36.0" fill="#747373" transform="matrix(1.00, 0.00, -0.00, -1.00, 293.0, 295.7)">)</text><text xml:space="preserve" font-family="HelveticaNeue-Light,Helvetica Neue" font-size="36.0" fill="#747373" transform="matrix(1.00, 0.00, -0.00, -1.00, 301.6, 295.7)"> </text><text xml:space="preserve" font-family="HelveticaNeue,Helvetica Neue" font-size="27.0" fill="#747373" transform="matrix(1.00, 0.00, -0.00, -1.00, 83.6, 209.2)">•</text><text xml:space="preserve" font-family="HelveticaNeue-Light,Helvetica Neue" font-size="36.0" fill="#747373" transform="matrix(1.00, 0.00, -0.00, -1.00, 119.6, 206.4)">K</text><text xml:space="preserve" font-family="HelveticaNeue-Light,Helvetica Neue" font-size="36.0" fill="#747373" transform="matrix(1.00, 0.00, -0.00, -1.00, 143.0, 206.4)">l</text><text xml:space="preserve" font-family="HelveticaNeue-Light,Helvetica Neue" font-size="36.0" fill="#747373" transform="matrix(1.00, 0.00, -0.00, -1.00, 149.6, 206.4)">i</text><text xml:space="preserve" font-family="HelveticaNeue-Light,Helvetica Neue" font-size="36.0" fill="#747373" transform="matrix(1.00, 0.00, -0.00, -1.00, 156.3, 206.4)">n</text><text xml:space="preserve" font-family="HelveticaNeue-Light,Helvetica Neue" font-size="36.0" fill="#747373" transform="matrix(1.00, 0.00, -0.00, -1.00, 175.6, 206.4)">e</text><text xml:space="preserve" font-family="HelveticaNeue-Light,Helvetica Neue" font-size="36.0" fill="#747373" transform="matrix(1.00, 0.00, -0.00, -1.00, 194.3, 206.4)">f</text><text xml:space="preserve" font-family="HelveticaNeue-Light,Helvetica Neue" font-size="36.0" fill="#747373" transform="matrix(1.00, 0.00, -0.00, -1.00, 203.6, 206.4)">e</text><text xml:space="preserve" font-family="HelveticaNeue-Light,Helvetica Neue" font-size="36.0" fill="#747373" transform="matrix(1.00, 0.00, -0.00, -1.00, 222.3, 206.4)">l</text><text xml:space="preserve" font-family="HelveticaNeue-Light,Helvetica Neue" font-size="36.0" fill="#747373" transform="matrix(1.00, 0.00, -0.00, -1.00, 229.0, 206.4)">t</text><text xml:space="preserve" font-family="HelveticaNeue-Light,Helvetica Neue" font-size="36.0" fill="#747373" transform="matrix(1.00, 0.00, -0.00, -1.00, 239.6, 206.4)">e</text><text xml:space="preserve" font-family="HelveticaNeue-Light,Helvetica Neue" font-size="36.0" fill="#747373" transform="matrix(1.00, 0.00, -0.00, -1.00, 258.3, 206.4)">r</text><text xml:space="preserve" font-family="HelveticaNeue-Light,Helvetica Neue" font-size="36.0" fill="#747373" transform="matrix(1.00, 0.00, -0.00, -1.00, 269.6, 206.4)">’</text><text xml:space="preserve" font-family="HelveticaNeue-Light,Helvetica Neue" font-size="36.0" fill="#747373" transform="matrix(1.00, 0.00, -0.00, -1.00, 275.7, 206.4)">s</text><text xml:space="preserve" font-family="HelveticaNeue-Light,Helvetica Neue" font-size="36.0" fill="#747373" transform="matrix(1.00, 0.00, -0.00, -1.00, 293.0, 206.4)"> </text><text xml:space="preserve" font-family="HelveticaNeue-Light,Helvetica Neue" font-size="36.0" fill="#747373" transform="matrix(1.00, 0.00, -0.00, -1.00, 303.0, 206.4)">(</text><text xml:space="preserve" font-family="AppleSymbols,Apple Symbols" font-size="36.0" fill="#747373" transform="matrix(1.00, 0.00, -0.00, -1.00, 311.7, 206.4)">⨉</text><text xml:space="preserve" font-family="HelveticaNeue-Light,Helvetica Neue" font-size="36.0" fill="#747373" transform="matrix(1.00, 0.00, -0.00, -1.00, 335.6, 206.4)">2</text><text xml:space="preserve" font-family="HelveticaNeue-Light,Helvetica Neue" font-size="36.0" fill="#747373" transform="matrix(1.00, 0.00, -0.00, -1.00, 355.6, 206.4)">0</text><text xml:space="preserve" font-family="HelveticaNeue-Light,Helvetica Neue" font-size="36.0" fill="#747373" transform="matrix(1.00, 0.00, -0.00, -1.00, 375.7, 206.4)">-</text><text xml:space="preserve" font-family="HelveticaNeue-Light,Helvetica Neue" font-size="36.0" fill="#747373" transform="matrix(1.00, 0.00, -0.00, -1.00, 389.0, 206.4)">5</text><text xml:space="preserve" font-family="HelveticaNeue-Light,Helvetica Neue" font-size="36.0" fill="#747373" transform="matrix(1.00, 0.00, -0.00, -1.00, 409.0, 206.4)">0</text><text xml:space="preserve" font-family="HelveticaNeue-Light,Helvetica Neue" font-size="36.0" fill="#747373" transform="matrix(1.00, 0.00, -0.00, -1.00, 429.0, 206.4)">)</text><text xml:space="preserve" font-family="HelveticaNeue-Light,Helvetica Neue" font-size="36.0" fill="#747373" transform="matrix(1.00, 0.00, -0.00, -1.00, 437.7, 206.4)"> </text><text xml:space="preserve" font-family="HelveticaNeue-Light,Helvetica Neue" font-size="36.0" fill="#747373" transform="matrix(1.00, 0.00, -0.00, -1.00, 65.6, 117.1)">A</text><text xml:space="preserve" font-family="HelveticaNeue-Light,Helvetica Neue" font-size="36.0" fill="#747373" transform="matrix(1.00, 0.00, -0.00, -1.00, 88.3, 117.1)">l</text><text xml:space="preserve" font-family="HelveticaNeue-Light,Helvetica Neue" font-size="36.0" fill="#747373" transform="matrix(1.00, 0.00, -0.00, -1.00, 95.0, 117.1)">c</text><text xml:space="preserve" font-family="HelveticaNeue-Light,Helvetica Neue" font-size="36.0" fill="#747373" transform="matrix(1.00, 0.00, -0.00, -1.00, 113.7, 117.1)">o</text><text xml:space="preserve" font-family="HelveticaNeue-Light,Helvetica Neue" font-size="36.0" fill="#747373" transform="matrix(1.00, 0.00, -0.00, -1.00, 133.7, 117.1)">h</text><text xml:space="preserve" font-family="HelveticaNeue-Light,Helvetica Neue" font-size="36.0" fill="#747373" transform="matrix(1.00, 0.00, -0.00, -1.00, 153.0, 117.1)">o</text><text xml:space="preserve" font-family="HelveticaNeue-Light,Helvetica Neue" font-size="36.0" fill="#747373" transform="matrix(1.00, 0.00, -0.00, -1.00, 173.0, 117.1)">l</text><text xml:space="preserve" font-family="HelveticaNeue-Light,Helvetica Neue" font-size="36.0" fill="#747373" transform="matrix(1.00, 0.00, -0.00, -1.00, 179.7, 117.1)"> </text><text xml:space="preserve" font-family="HelveticaNeue-Light,Helvetica Neue" font-size="36.0" fill="#747373" transform="matrix(1.00, 0.00, -0.00, -1.00, 189.7, 117.1)">c</text><text xml:space="preserve" font-family="HelveticaNeue-Light,Helvetica Neue" font-size="36.0" fill="#747373" transform="matrix(1.00, 0.00, -0.00, -1.00, 208.4, 117.1)">o</text><text xml:space="preserve" font-family="HelveticaNeue-Light,Helvetica Neue" font-size="36.0" fill="#747373" transform="matrix(1.00, 0.00, -0.00, -1.00, 228.4, 117.1)">n</text><text xml:space="preserve" font-family="HelveticaNeue-Light,Helvetica Neue" font-size="36.0" fill="#747373" transform="matrix(1.00, 0.00, -0.00, -1.00, 247.7, 117.1)">s</text><text xml:space="preserve" font-family="HelveticaNeue-Light,Helvetica Neue" font-size="36.0" fill="#747373" transform="matrix(1.00, 0.00, -0.00, -1.00, 265.0, 117.1)">u</text><text xml:space="preserve" font-family="HelveticaNeue-Light,Helvetica Neue" font-size="36.0" fill="#747373" transform="matrix(1.00, 0.00, -0.00, -1.00, 284.4, 117.1)">m</text><text xml:space="preserve" font-family="HelveticaNeue-Light,Helvetica Neue" font-size="36.0" fill="#747373" transform="matrix(1.00, 0.00, -0.00, -1.00, 314.4, 117.1)">p</text><text xml:space="preserve" font-family="HelveticaNeue-Light,Helvetica Neue" font-size="36.0" fill="#747373" transform="matrix(1.00, 0.00, -0.00, -1.00, 335.0, 117.1)">t</text><text xml:space="preserve" font-family="HelveticaNeue-Light,Helvetica Neue" font-size="36.0" fill="#747373" transform="matrix(1.00, 0.00, -0.00, -1.00, 345.7, 117.1)">i</text><text xml:space="preserve" font-family="HelveticaNeue-Light,Helvetica Neue" font-size="36.0" fill="#747373" transform="matrix(1.00, 0.00, -0.00, -1.00, 352.3, 117.1)">o</text><text xml:space="preserve" font-family="HelveticaNeue-Light,Helvetica Neue" font-size="36.0" fill="#747373" transform="matrix(1.00, 0.00, -0.00, -1.00, 372.4, 117.1)">n</text><text xml:space="preserve" font-family="HelveticaNeue-Light,Helvetica Neue" font-size="36.0" fill="#747373" transform="matrix(1.00, 0.00, -0.00, -1.00, 517.8, 553.7)">F</text><text xml:space="preserve" font-family="HelveticaNeue-Light,Helvetica Neue" font-size="36.0" fill="#747373" transform="matrix(1.00, 0.00, -0.00, -1.00, 537.1, 553.7)">a</text><text xml:space="preserve" font-family="HelveticaNeue-Light,Helvetica Neue" font-size="36.0" fill="#747373" transform="matrix(1.00, 0.00, -0.00, -1.00, 555.8, 553.7)">m</text><text xml:space="preserve" font-family="HelveticaNeue-Light,Helvetica Neue" font-size="36.0" fill="#747373" transform="matrix(1.00, 0.00, -0.00, -1.00, 585.8, 553.7)">i</text><text xml:space="preserve" font-family="HelveticaNeue-Light,Helvetica Neue" font-size="36.0" fill="#747373" transform="matrix(1.00, 0.00, -0.00, -1.00, 592.5, 553.7)">l</text><text xml:space="preserve" font-family="HelveticaNeue-Light,Helvetica Neue" font-size="36.0" fill="#747373" transform="matrix(1.00, 0.00, -0.00, -1.00, 599.1, 553.7)">y</text><text xml:space="preserve" font-family="HelveticaNeue-Light,Helvetica Neue" font-size="36.0" fill="#747373" transform="matrix(1.00, 0.00, -0.00, -1.00, 615.8, 553.7)"> </text><text xml:space="preserve" font-family="HelveticaNeue-Light,Helvetica Neue" font-size="36.0" fill="#747373" transform="matrix(1.00, 0.00, -0.00, -1.00, 625.8, 553.7)">a</text><text xml:space="preserve" font-family="HelveticaNeue-Light,Helvetica Neue" font-size="36.0" fill="#747373" transform="matrix(1.00, 0.00, -0.00, -1.00, 644.5, 553.7)">n</text><text xml:space="preserve" font-family="HelveticaNeue-Light,Helvetica Neue" font-size="36.0" fill="#747373" transform="matrix(1.00, 0.00, -0.00, -1.00, 663.8, 553.7)">d</text><text xml:space="preserve" font-family="HelveticaNeue-Light,Helvetica Neue" font-size="36.0" fill="#747373" transform="matrix(1.00, 0.00, -0.00, -1.00, 684.5, 553.7)"> </text><text xml:space="preserve" font-family="HelveticaNeue-Light,Helvetica Neue" font-size="36.0" fill="#747373" transform="matrix(1.00, 0.00, -0.00, -1.00, 694.5, 553.7)">p</text><text xml:space="preserve" font-family="HelveticaNeue-Light,Helvetica Neue" font-size="36.0" fill="#747373" transform="matrix(1.00, 0.00, -0.00, -1.00, 715.2, 553.7)">e</text><text xml:space="preserve" font-family="HelveticaNeue-Light,Helvetica Neue" font-size="36.0" fill="#747373" transform="matrix(1.00, 0.00, -0.00, -1.00, 733.8, 553.7)">r</text><text xml:space="preserve" font-family="HelveticaNeue-Light,Helvetica Neue" font-size="36.0" fill="#747373" transform="matrix(1.00, 0.00, -0.00, -1.00, 745.2, 553.7)">s</text><text xml:space="preserve" font-family="HelveticaNeue-Light,Helvetica Neue" font-size="36.0" fill="#747373" transform="matrix(1.00, 0.00, -0.00, -1.00, 762.5, 553.7)">o</text><text xml:space="preserve" font-family="HelveticaNeue-Light,Helvetica Neue" font-size="36.0" fill="#747373" transform="matrix(1.00, 0.00, -0.00, -1.00, 782.5, 553.7)">n</text><text xml:space="preserve" font-family="HelveticaNeue-Light,Helvetica Neue" font-size="36.0" fill="#747373" transform="matrix(1.00, 0.00, -0.00, -1.00, 801.9, 553.7)">a</text><text xml:space="preserve" font-family="HelveticaNeue-Light,Helvetica Neue" font-size="36.0" fill="#747373" transform="matrix(1.00, 0.00, -0.00, -1.00, 820.5, 553.7)">l</text><text xml:space="preserve" font-family="HelveticaNeue-Light,Helvetica Neue" font-size="36.0" fill="#747373" transform="matrix(1.00, 0.00, -0.00, -1.00, 827.2, 553.7)"> </text><text xml:space="preserve" font-family="HelveticaNeue-Light,Helvetica Neue" font-size="36.0" fill="#747373" transform="matrix(1.00, 0.00, -0.00, -1.00, 837.2, 553.7)">h</text><text xml:space="preserve" font-family="HelveticaNeue-Light,Helvetica Neue" font-size="36.0" fill="#747373" transform="matrix(1.00, 0.00, -0.00, -1.00, 856.5, 553.7)">i</text><text xml:space="preserve" font-family="HelveticaNeue-Light,Helvetica Neue" font-size="36.0" fill="#747373" transform="matrix(1.00, 0.00, -0.00, -1.00, 863.2, 553.7)">s</text><text xml:space="preserve" font-family="HelveticaNeue-Light,Helvetica Neue" font-size="36.0" fill="#747373" transform="matrix(1.00, 0.00, -0.00, -1.00, 880.5, 553.7)">t</text><text xml:space="preserve" font-family="HelveticaNeue-Light,Helvetica Neue" font-size="36.0" fill="#747373" transform="matrix(1.00, 0.00, -0.00, -1.00, 891.2, 553.7)">o</text><text xml:space="preserve" font-family="HelveticaNeue-Light,Helvetica Neue" font-size="36.0" fill="#747373" transform="matrix(1.00, 0.00, -0.00, -1.00, 911.2, 553.7)">r</text><text xml:space="preserve" font-family="HelveticaNeue-Light,Helvetica Neue" font-size="36.0" fill="#747373" transform="matrix(1.00, 0.00, -0.00, -1.00, 922.5, 553.7)">y</text><text xml:space="preserve" font-family="HelveticaNeue-Light,Helvetica Neue" font-size="36.0" fill="#747373" transform="matrix(1.00, 0.00, -0.00, -1.00, 939.2, 553.7)"> </text><text xml:space="preserve" font-family="HelveticaNeue,Helvetica Neue" font-size="27.0" fill="#747373" transform="matrix(1.00, 0.00, -0.00, -1.00, 553.8, 470.5)">•</text><text xml:space="preserve" font-family="HelveticaNeue-Light,Helvetica Neue" font-size="36.0" fill="#747373" transform="matrix(1.00, 0.00, -0.00, -1.00, 589.8, 467.7)">c</text><text xml:space="preserve" font-family="HelveticaNeue-Light,Helvetica Neue" font-size="36.0" fill="#747373" transform="matrix(1.00, 0.00, -0.00, -1.00, 608.5, 467.7)">o</text><text xml:space="preserve" font-family="HelveticaNeue-Light,Helvetica Neue" font-size="36.0" fill="#747373" transform="matrix(1.00, 0.00, -0.00, -1.00, 628.5, 467.7)">n</text><text xml:space="preserve" font-family="HelveticaNeue-Light,Helvetica Neue" font-size="36.0" fill="#747373" transform="matrix(1.00, 0.00, -0.00, -1.00, 647.8, 467.7)">t</text><text xml:space="preserve" font-family="HelveticaNeue-Light,Helvetica Neue" font-size="36.0" fill="#747373" transform="matrix(1.00, 0.00, -0.00, -1.00, 658.5, 467.7)">r</text><text xml:space="preserve" font-family="HelveticaNeue-Light,Helvetica Neue" font-size="36.0" fill="#747373" transform="matrix(1.00, 0.00, -0.00, -1.00, 669.8, 467.7)">a</text><text xml:space="preserve" font-family="HelveticaNeue-Light,Helvetica Neue" font-size="36.0" fill="#747373" transform="matrix(1.00, 0.00, -0.00, -1.00, 688.5, 467.7)">l</text><text xml:space="preserve" font-family="HelveticaNeue-Light,Helvetica Neue" font-size="36.0" fill="#747373" transform="matrix(1.00, 0.00, -0.00, -1.00, 695.2, 467.7)">a</text><text xml:space="preserve" font-family="HelveticaNeue-Light,Helvetica Neue" font-size="36.0" fill="#747373" transform="matrix(1.00, 0.00, -0.00, -1.00, 713.9, 467.7)">t</text><text xml:space="preserve" font-family="HelveticaNeue-Light,Helvetica Neue" font-size="36.0" fill="#747373" transform="matrix(1.00, 0.00, -0.00, -1.00, 724.5, 467.7)">e</text><text xml:space="preserve" font-family="HelveticaNeue-Light,Helvetica Neue" font-size="36.0" fill="#747373" transform="matrix(1.00, 0.00, -0.00, -1.00, 743.2, 467.7)">r</text><text xml:space="preserve" font-family="HelveticaNeue-Light,Helvetica Neue" font-size="36.0" fill="#747373" transform="matrix(1.00, 0.00, -0.00, -1.00, 754.5, 467.7)">a</text><text xml:space="preserve" font-family="HelveticaNeue-Light,Helvetica Neue" font-size="36.0" fill="#747373" transform="matrix(1.00, 0.00, -0.00, -1.00, 773.2, 467.7)">l</text><text xml:space="preserve" font-family="HelveticaNeue-Light,Helvetica Neue" font-size="36.0" fill="#747373" transform="matrix(1.00, 0.00, -0.00, -1.00, 779.9, 467.7)"> </text><text xml:space="preserve" font-family="HelveticaNeue-Light,Helvetica Neue" font-size="36.0" fill="#747373" transform="matrix(1.00, 0.00, -0.00, -1.00, 789.9, 467.7)">b</text><text xml:space="preserve" font-family="HelveticaNeue-Light,Helvetica Neue" font-size="36.0" fill="#747373" transform="matrix(1.00, 0.00, -0.00, -1.00, 810.6, 467.7)">r</text><text xml:space="preserve" font-family="HelveticaNeue-Light,Helvetica Neue" font-size="36.0" fill="#747373" transform="matrix(1.00, 0.00, -0.00, -1.00, 821.3, 467.7)">e</text><text xml:space="preserve" font-family="HelveticaNeue-Light,Helvetica Neue" font-size="36.0" fill="#747373" transform="matrix(1.00, 0.00, -0.00, -1.00, 839.9, 467.7)">a</text><text xml:space="preserve" font-family="HelveticaNeue-Light,Helvetica Neue" font-size="36.0" fill="#747373" transform="matrix(1.00, 0.00, -0.00, -1.00, 858.6, 467.7)">s</text><text xml:space="preserve" font-family="HelveticaNeue-Light,Helvetica Neue" font-size="36.0" fill="#747373" transform="matrix(1.00, 0.00, -0.00, -1.00, 875.9, 467.7)">t</text><text xml:space="preserve" font-family="HelveticaNeue-Light,Helvetica Neue" font-size="36.0" fill="#747373" transform="matrix(1.00, 0.00, -0.00, -1.00, 886.6, 467.7)"> </text><text xml:space="preserve" font-family="HelveticaNeue-Light,Helvetica Neue" font-size="36.0" fill="#747373" transform="matrix(1.00, 0.00, -0.00, -1.00, 896.6, 467.7)">(</text><text xml:space="preserve" font-family="AppleSymbols,Apple Symbols" font-size="36.0" fill="#747373" transform="matrix(1.00, 0.00, -0.00, -1.00, 905.3, 467.7)">⨉</text><text xml:space="preserve" font-family="HelveticaNeue-Light,Helvetica Neue" font-size="36.0" fill="#747373" transform="matrix(1.00, 0.00, -0.00, -1.00, 929.3, 467.7)">3</text><text xml:space="preserve" font-family="HelveticaNeue-Light,Helvetica Neue" font-size="36.0" fill="#747373" transform="matrix(1.00, 0.00, -0.00, -1.00, 949.3, 467.7)">0</text><text xml:space="preserve" font-family="HelveticaNeue-Light,Helvetica Neue" font-size="36.0" fill="#747373" transform="matrix(1.00, 0.00, -0.00, -1.00, 969.3, 467.7)">)</text><text xml:space="preserve" font-family="HelveticaNeue-Light,Helvetica Neue" font-size="36.0" fill="#747373" transform="matrix(1.00, 0.00, -0.00, -1.00, 978.0, 467.7)"> </text><text xml:space="preserve" font-family="HelveticaNeue-Light,Helvetica Neue" font-size="36.0" fill="#747373" transform="matrix(1.00, 0.00, -0.00, -1.00, 535.8, 378.4)">G</text><text xml:space="preserve" font-family="HelveticaNeue-Light,Helvetica Neue" font-size="36.0" fill="#747373" transform="matrix(1.00, 0.00, -0.00, -1.00, 562.5, 378.4)">e</text><text xml:space="preserve" font-family="HelveticaNeue-Light,Helvetica Neue" font-size="36.0" fill="#747373" transform="matrix(1.00, 0.00, -0.00, -1.00, 581.2, 378.4)">r</text><text xml:space="preserve" font-family="HelveticaNeue-Light,Helvetica Neue" font-size="36.0" fill="#747373" transform="matrix(1.00, 0.00, -0.00, -1.00, 592.5, 378.4)">m</text><text xml:space="preserve" font-family="HelveticaNeue-Light,Helvetica Neue" font-size="36.0" fill="#747373" transform="matrix(1.00, 0.00, -0.00, -1.00, 622.5, 378.4)">-</text><text xml:space="preserve" font-family="HelveticaNeue-Light,Helvetica Neue" font-size="36.0" fill="#747373" transform="matrix(1.00, 0.00, -0.00, -1.00, 635.8, 378.4)">l</text><text xml:space="preserve" font-family="HelveticaNeue-Light,Helvetica Neue" font-size="36.0" fill="#747373" transform="matrix(1.00, 0.00, -0.00, -1.00, 642.5, 378.4)">i</text><text xml:space="preserve" font-family="HelveticaNeue-Light,Helvetica Neue" font-size="36.0" fill="#747373" transform="matrix(1.00, 0.00, -0.00, -1.00, 649.1, 378.4)">n</text><text xml:space="preserve" font-family="HelveticaNeue-Light,Helvetica Neue" font-size="36.0" fill="#747373" transform="matrix(1.00, 0.00, -0.00, -1.00, 668.5, 378.4)">e</text><text xml:space="preserve" font-family="HelveticaNeue-Light,Helvetica Neue" font-size="36.0" fill="#747373" transform="matrix(1.00, 0.00, -0.00, -1.00, 687.2, 378.4)"> </text><text xml:space="preserve" font-family="HelveticaNeue-Light,Helvetica Neue" font-size="36.0" fill="#747373" transform="matrix(1.00, 0.00, -0.00, -1.00, 697.2, 378.4)">m</text><text xml:space="preserve" font-family="HelveticaNeue-Light,Helvetica Neue" font-size="36.0" fill="#747373" transform="matrix(1.00, 0.00, -0.00, -1.00, 727.2, 378.4)">u</text><text xml:space="preserve" font-family="HelveticaNeue-Light,Helvetica Neue" font-size="36.0" fill="#747373" transform="matrix(1.00, 0.00, -0.00, -1.00, 746.5, 378.4)">t</text><text xml:space="preserve" font-family="HelveticaNeue-Light,Helvetica Neue" font-size="36.0" fill="#747373" transform="matrix(1.00, 0.00, -0.00, -1.00, 757.1, 378.4)">a</text><text xml:space="preserve" font-family="HelveticaNeue-Light,Helvetica Neue" font-size="36.0" fill="#747373" transform="matrix(1.00, 0.00, -0.00, -1.00, 775.8, 378.4)">t</text><text xml:space="preserve" font-family="HelveticaNeue-Light,Helvetica Neue" font-size="36.0" fill="#747373" transform="matrix(1.00, 0.00, -0.00, -1.00, 786.5, 378.4)">i</text><text xml:space="preserve" font-family="HelveticaNeue-Light,Helvetica Neue" font-size="36.0" fill="#747373" transform="matrix(1.00, 0.00, -0.00, -1.00, 793.1, 378.4)">o</text><text xml:space="preserve" font-family="HelveticaNeue-Light,Helvetica Neue" font-size="36.0" fill="#747373" transform="matrix(1.00, 0.00, -0.00, -1.00, 813.2, 378.4)">n</text><text xml:space="preserve" font-family="HelveticaNeue-Light,Helvetica Neue" font-size="36.0" fill="#747373" transform="matrix(1.00, 0.00, -0.00, -1.00, 832.5, 378.4)">s</text><text xml:space="preserve" font-family="HelveticaNeue-Light,Helvetica Neue" font-size="36.0" fill="#747373" transform="matrix(1.00, 0.00, -0.00, -1.00, 849.8, 378.4)"> </text><text xml:space="preserve" font-family="HelveticaNeue,Helvetica Neue" font-size="27.0" fill="#763A33" transform="matrix(1.00, 0.00, -0.00, -1.00, 553.8, 295.9)">•</text><text xml:space="preserve" font-family="HelveticaNeue-Light,Helvetica Neue" font-size="36.0" fill="#763A33" transform="matrix(1.00, 0.00, -0.00, -1.00, 589.8, 292.4)">B</text><text xml:space="preserve" font-family="HelveticaNeue-Light,Helvetica Neue" font-size="36.0" fill="#763A33" transform="matrix(1.00, 0.00, -0.00, -1.00, 613.8, 292.4)">R</text><text xml:space="preserve" font-family="HelveticaNeue-Light,Helvetica Neue" font-size="36.0" fill="#763A33" transform="matrix(1.00, 0.00, -0.00, -1.00, 637.8, 292.4)">C</text><text xml:space="preserve" font-family="HelveticaNeue-Light,Helvetica Neue" font-size="36.0" fill="#763A33" transform="matrix(1.00, 0.00, -0.00, -1.00, 663.2, 292.4)">A</text><text xml:space="preserve" font-family="HelveticaNeue-Light,Helvetica Neue" font-size="36.0" fill="#763A33" transform="matrix(1.00, 0.00, -0.00, -1.00, 685.9, 292.4)">1</text><text xml:space="preserve" font-family="HelveticaNeue-Light,Helvetica Neue" font-size="36.0" fill="#763A33" transform="matrix(1.00, 0.00, -0.00, -1.00, 705.9, 292.4)"> </text><text xml:space="preserve" font-family="HelveticaNeue-Light,Helvetica Neue" font-size="36.0" fill="#763A33" transform="matrix(1.00, 0.00, -0.00, -1.00, 715.9, 292.4)">a</text><text xml:space="preserve" font-family="HelveticaNeue-Light,Helvetica Neue" font-size="36.0" fill="#763A33" transform="matrix(1.00, 0.00, -0.00, -1.00, 734.6, 292.4)">n</text><text xml:space="preserve" font-family="HelveticaNeue-Light,Helvetica Neue" font-size="36.0" fill="#763A33" transform="matrix(1.00, 0.00, -0.00, -1.00, 753.9, 292.4)">d</text><text xml:space="preserve" font-family="HelveticaNeue-Light,Helvetica Neue" font-size="36.0" fill="#763A33" transform="matrix(1.00, 0.00, -0.00, -1.00, 774.6, 292.4)"> </text><text xml:space="preserve" font-family="HelveticaNeue-Light,Helvetica Neue" font-size="36.0" fill="#763A33" transform="matrix(1.00, 0.00, -0.00, -1.00, 784.6, 292.4)">B</text><text xml:space="preserve" font-family="HelveticaNeue-Light,Helvetica Neue" font-size="36.0" fill="#763A33" transform="matrix(1.00, 0.00, -0.00, -1.00, 808.6, 292.4)">R</text><text xml:space="preserve" font-family="HelveticaNeue-Light,Helvetica Neue" font-size="36.0" fill="#763A33" transform="matrix(1.00, 0.00, -0.00, -1.00, 832.6, 292.4)">C</text><text xml:space="preserve" font-family="HelveticaNeue-Light,Helvetica Neue" font-size="36.0" fill="#763A33" transform="matrix(1.00, 0.00, -0.00, -1.00, 857.9, 292.4)">A</text><text xml:space="preserve" font-family="HelveticaNeue-Light,Helvetica Neue" font-size="36.0" fill="#763A33" transform="matrix(1.00, 0.00, -0.00, -1.00, 880.6, 292.4)">2</text><text xml:space="preserve" font-family="HelveticaNeue-Light,Helvetica Neue" font-size="36.0" fill="#763A33" transform="matrix(1.00, 0.00, -0.00, -1.00, 900.6, 292.4)"> </text><text xml:space="preserve" font-family="HelveticaNeue,Helvetica Neue" font-size="27.0" fill="#747373" transform="matrix(1.00, 0.00, -0.00, -1.00, 553.8, 209.9)">•</text><text xml:space="preserve" font-family="HelveticaNeue-Light,Helvetica Neue" font-size="36.0" fill="#747373" transform="matrix(1.00, 0.00, -0.00, -1.00, 589.8, 206.4)">C</text><text xml:space="preserve" font-family="HelveticaNeue-Light,Helvetica Neue" font-size="36.0" fill="#747373" transform="matrix(1.00, 0.00, -0.00, -1.00, 615.2, 206.4)">H</text><text xml:space="preserve" font-family="HelveticaNeue-Light,Helvetica Neue" font-size="36.0" fill="#747373" transform="matrix(1.00, 0.00, -0.00, -1.00, 640.5, 206.4)">E</text><text xml:space="preserve" font-family="HelveticaNeue-Light,Helvetica Neue" font-size="36.0" fill="#747373" transform="matrix(1.00, 0.00, -0.00, -1.00, 661.8, 206.4)">K</text><text xml:space="preserve" font-family="HelveticaNeue-Light,Helvetica Neue" font-size="36.0" fill="#747373" transform="matrix(1.00, 0.00, -0.00, -1.00, 685.2, 206.4)">2</text><text xml:space="preserve" font-family="HelveticaNeue-Light,Helvetica Neue" font-size="36.0" fill="#747373" transform="matrix(1.00, 0.00, -0.00, -1.00, 705.2, 206.4)"> </text><text xml:space="preserve" font-family="HelveticaNeue-Light,Helvetica Neue" font-size="36.0" fill="#747373" transform="matrix(1.00, 0.00, -0.00, -1.00, 535.8, 120.4)">E</text><text xml:space="preserve" font-family="HelveticaNeue-Light,Helvetica Neue" font-size="36.0" fill="#747373" transform="matrix(1.00, 0.00, -0.00, -1.00, 557.2, 120.4)">n</text><text xml:space="preserve" font-family="HelveticaNeue-Light,Helvetica Neue" font-size="36.0" fill="#747373" transform="matrix(1.00, 0.00, -0.00, -1.00, 576.5, 120.4)">v</text><text xml:space="preserve" font-family="HelveticaNeue-Light,Helvetica Neue" font-size="36.0" fill="#747373" transform="matrix(1.00, 0.00, -0.00, -1.00, 593.2, 120.4)">i</text><text xml:space="preserve" font-family="HelveticaNeue-Light,Helvetica Neue" font-size="36.0" fill="#747373" transform="matrix(1.00, 0.00, -0.00, -1.00, 599.8, 120.4)">r</text><text xml:space="preserve" font-family="HelveticaNeue-Light,Helvetica Neue" font-size="36.0" fill="#747373" transform="matrix(1.00, 0.00, -0.00, -1.00, 610.5, 120.4)">o</text><text xml:space="preserve" font-family="HelveticaNeue-Light,Helvetica Neue" font-size="36.0" fill="#747373" transform="matrix(1.00, 0.00, -0.00, -1.00, 630.5, 120.4)">n</text><text xml:space="preserve" font-family="HelveticaNeue-Light,Helvetica Neue" font-size="36.0" fill="#747373" transform="matrix(1.00, 0.00, -0.00, -1.00, 649.9, 120.4)">m</text><text xml:space="preserve" font-family="HelveticaNeue-Light,Helvetica Neue" font-size="36.0" fill="#747373" transform="matrix(1.00, 0.00, -0.00, -1.00, 679.8, 120.4)">e</text><text xml:space="preserve" font-family="HelveticaNeue-Light,Helvetica Neue" font-size="36.0" fill="#747373" transform="matrix(1.00, 0.00, -0.00, -1.00, 698.5, 120.4)">n</text><text xml:space="preserve" font-family="HelveticaNeue-Light,Helvetica Neue" font-size="36.0" fill="#747373" transform="matrix(1.00, 0.00, -0.00, -1.00, 717.9, 120.4)">t</text><text xml:space="preserve" font-family="HelveticaNeue-Light,Helvetica Neue" font-size="36.0" fill="#747373" transform="matrix(1.00, 0.00, -0.00, -1.00, 728.5, 120.4)">a</text><text xml:space="preserve" font-family="HelveticaNeue-Light,Helvetica Neue" font-size="36.0" fill="#747373" transform="matrix(1.00, 0.00, -0.00, -1.00, 747.2, 120.4)">l</text><text xml:space="preserve" font-family="HelveticaNeue-Light,Helvetica Neue" font-size="36.0" fill="#747373" transform="matrix(1.00, 0.00, -0.00, -1.00, 753.9, 120.4)"> </text><text xml:space="preserve" font-family="HelveticaNeue-Light,Helvetica Neue" font-size="36.0" fill="#747373" transform="matrix(1.00, 0.00, -0.00, -1.00, 763.9, 120.4)">(</text><text xml:space="preserve" font-family="HelveticaNeue-Light,Helvetica Neue" font-size="36.0" fill="#747373" transform="matrix(1.00, 0.00, -0.00, -1.00, 772.5, 120.4)">r</text><text xml:space="preserve" font-family="HelveticaNeue-Light,Helvetica Neue" font-size="36.0" fill="#747373" transform="matrix(1.00, 0.00, -0.00, -1.00, 783.9, 120.4)">a</text><text xml:space="preserve" font-family="HelveticaNeue-Light,Helvetica Neue" font-size="36.0" fill="#747373" transform="matrix(1.00, 0.00, -0.00, -1.00, 802.6, 120.4)">d</text><text xml:space="preserve" font-family="HelveticaNeue-Light,Helvetica Neue" font-size="36.0" fill="#747373" transform="matrix(1.00, 0.00, -0.00, -1.00, 823.2, 120.4)">i</text><text xml:space="preserve" font-family="HelveticaNeue-Light,Helvetica Neue" font-size="36.0" fill="#747373" transform="matrix(1.00, 0.00, -0.00, -1.00, 829.9, 120.4)">a</text><text xml:space="preserve" font-family="HelveticaNeue-Light,Helvetica Neue" font-size="36.0" fill="#747373" transform="matrix(1.00, 0.00, -0.00, -1.00, 848.6, 120.4)">t</text><text xml:space="preserve" font-family="HelveticaNeue-Light,Helvetica Neue" font-size="36.0" fill="#747373" transform="matrix(1.00, 0.00, -0.00, -1.00, 859.2, 120.4)">i</text><text xml:space="preserve" font-family="HelveticaNeue-Light,Helvetica Neue" font-size="36.0" fill="#747373" transform="matrix(1.00, 0.00, -0.00, -1.00, 865.9, 120.4)">o</text><text xml:space="preserve" font-family="HelveticaNeue-Light,Helvetica Neue" font-size="36.0" fill="#747373" transform="matrix(1.00, 0.00, -0.00, -1.00, 885.9, 120.4)">n</text><text xml:space="preserve" font-family="HelveticaNeue-Light,Helvetica Neue" font-size="36.0" fill="#747373" transform="matrix(1.00, 0.00, -0.00, -1.00, 905.2, 120.4)">)</text></g></svg>