<?xml version="1.0" encoding="UTF-8" standalone="no"?><svg xmlns="http://www.w3.org/2000/svg" xmlns:xlink="http://www.w3.org/1999/xlink" clip-rule="evenodd" stroke-miterlimit="10" viewBox="0 0 1024 768"><desc>SVG generated by Keynote</desc><defs></defs><g transform="matrix(1.00, 0.00, -0.00, -1.00, 0.0, 768.0)"><g><clipPath id="clip0x7fba7ac44ff0"><path d="M 0.0 768.0 L 1024.0 768.0 L 1024.0 0.0 L 0.0 0.0 Z M 0.0 768.0 "></path></clipPath><g clip-path="url(#clip0x7fba7ac44ff0)"><image xlink:href="../../384E26B0-0AD0-495F-BA75-267B55ABD0BD/assets/31D284A5C75E14674D2A89FDB99F8048.jpeg" width="2048.00" height="1536.00" transform="matrix(0.50, 0.00, -0.00, -0.50, 0.0, 768.0)"></image></g></g><image xlink:href="../../2040BFD9-F9D1-4CAE-A1DE-D96179C3C7E6/assets/24B974E6860A2A10ADE0091465642DC7.png" width="947.00" height="33.00" transform="matrix(1.00, 0.00, -0.00, -1.00, 39.0, 102.0)"></image><text xml:space="preserve" font-family="HelveticaNeue-Medium,Helvetica Neue" font-size="26.0" fill="#EAEAEA" transform="matrix(1.00, 0.00, -0.00, -1.00, 41.4, 80.4)">D</text><text xml:space="preserve" font-family="HelveticaNeue-Medium,Helvetica Neue" font-size="26.0" fill="#EAEAEA" transform="matrix(1.00, 0.00, -0.00, -1.00, 60.2, 80.4)">a</text><text xml:space="preserve" font-family="HelveticaNeue-Medium,Helvetica Neue" font-size="26.0" fill="#EAEAEA" transform="matrix(1.00, 0.00, -0.00, -1.00, 74.7, 80.4)">v</text><text xml:space="preserve" font-family="HelveticaNeue-Medium,Helvetica Neue" font-size="26.0" fill="#EAEAEA" transform="matrix(1.00, 0.00, -0.00, -1.00, 88.1, 80.4)">i</text><text xml:space="preserve" font-family="HelveticaNeue-Medium,Helvetica Neue" font-size="26.0" fill="#EAEAEA" transform="matrix(1.00, 0.00, -0.00, -1.00, 94.4, 80.4)">d</text><text xml:space="preserve" font-family="HelveticaNeue-Medium,Helvetica Neue" font-size="26.0" fill="#EAEAEA" transform="matrix(1.00, 0.00, -0.00, -1.00, 110.3, 80.4)">s</text><text xml:space="preserve" font-family="HelveticaNeue-Medium,Helvetica Neue" font-size="26.0" fill="#EAEAEA" transform="matrix(1.00, 0.00, -0.00, -1.00, 123.8, 80.4)">o</text><text xml:space="preserve" font-family="HelveticaNeue-Medium,Helvetica Neue" font-size="26.0" fill="#EAEAEA" transform="matrix(1.00, 0.00, -0.00, -1.00, 139.2, 80.4)">n</text><text xml:space="preserve" font-family="HelveticaNeue-Medium,Helvetica Neue" font-size="26.0" fill="#EAEAEA" transform="matrix(1.00, 0.00, -0.00, -1.00, 154.1, 80.4)"> </text><text xml:space="preserve" font-family="HelveticaNeue-Medium,Helvetica Neue" font-size="26.0" fill="#EAEAEA" transform="matrix(1.00, 0.00, -0.00, -1.00, 161.4, 80.4)">N</text><text xml:space="preserve" font-family="HelveticaNeue-Medium,Helvetica Neue" font-size="26.0" fill="#EAEAEA" transform="matrix(1.00, 0.00, -0.00, -1.00, 180.1, 80.4)">E</text><text xml:space="preserve" font-family="HelveticaNeue-Medium,Helvetica Neue" font-size="26.0" fill="#EAEAEA" transform="matrix(1.00, 0.00, -0.00, -1.00, 196.5, 80.4)">,</text><text xml:space="preserve" font-family="HelveticaNeue-Medium,Helvetica Neue" font-size="26.0" fill="#EAEAEA" transform="matrix(1.00, 0.00, -0.00, -1.00, 203.7, 80.4)"> </text><text xml:space="preserve" font-family="HelveticaNeue-Medium,Helvetica Neue" font-size="26.0" fill="#EAEAEA" transform="matrix(1.00, 0.00, -0.00, -1.00, 211.0, 80.4)">e</text><text xml:space="preserve" font-family="HelveticaNeue-Medium,Helvetica Neue" font-size="26.0" fill="#EAEAEA" transform="matrix(1.00, 0.00, -0.00, -1.00, 225.4, 80.4)">t</text><text xml:space="preserve" font-family="HelveticaNeue-Medium,Helvetica Neue" font-size="26.0" fill="#EAEAEA" transform="matrix(1.00, 0.00, -0.00, -1.00, 234.1, 80.4)"> </text><text xml:space="preserve" font-family="HelveticaNeue-Medium,Helvetica Neue" font-size="26.0" fill="#EAEAEA" transform="matrix(1.00, 0.00, -0.00, -1.00, 241.3, 80.4)">a</text><text xml:space="preserve" font-family="HelveticaNeue-Medium,Helvetica Neue" font-size="26.0" fill="#EAEAEA" transform="matrix(1.00, 0.00, -0.00, -1.00, 255.8, 80.4)">l</text><text xml:space="preserve" font-family="HelveticaNeue-Medium,Helvetica Neue" font-size="26.0" fill="#EAEAEA" transform="matrix(1.00, 0.00, -0.00, -1.00, 262.0, 80.4)">.</text><text xml:space="preserve" font-family="HelveticaNeue-Medium,Helvetica Neue" font-size="26.0" fill="#EAEAEA" transform="matrix(1.00, 0.00, -0.00, -1.00, 269.3, 80.4)"> </text><text xml:space="preserve" font-family="HelveticaNeue-Medium,Helvetica Neue" font-size="26.0" fill="#EAEAEA" transform="matrix(1.00, 0.00, -0.00, -1.00, 276.5, 80.4)">C</text><text xml:space="preserve" font-family="HelveticaNeue-Medium,Helvetica Neue" font-size="26.0" fill="#EAEAEA" transform="matrix(1.00, 0.00, -0.00, -1.00, 295.3, 80.4)">h</text><text xml:space="preserve" font-family="HelveticaNeue-Medium,Helvetica Neue" font-size="26.0" fill="#EAEAEA" transform="matrix(1.00, 0.00, -0.00, -1.00, 310.2, 80.4)">e</text><text xml:space="preserve" font-family="HelveticaNeue-Medium,Helvetica Neue" font-size="26.0" fill="#EAEAEA" transform="matrix(1.00, 0.00, -0.00, -1.00, 324.6, 80.4)">m</text><text xml:space="preserve" font-family="HelveticaNeue-Medium,Helvetica Neue" font-size="26.0" fill="#EAEAEA" transform="matrix(1.00, 0.00, -0.00, -1.00, 347.3, 80.4)">o</text><text xml:space="preserve" font-family="HelveticaNeue-Medium,Helvetica Neue" font-size="26.0" fill="#EAEAEA" transform="matrix(1.00, 0.00, -0.00, -1.00, 362.7, 80.4)">e</text><text xml:space="preserve" font-family="HelveticaNeue-Medium,Helvetica Neue" font-size="26.0" fill="#EAEAEA" transform="matrix(1.00, 0.00, -0.00, -1.00, 377.1, 80.4)">n</text><text xml:space="preserve" font-family="HelveticaNeue-Medium,Helvetica Neue" font-size="26.0" fill="#EAEAEA" transform="matrix(1.00, 0.00, -0.00, -1.00, 392.1, 80.4)">d</text><text xml:space="preserve" font-family="HelveticaNeue-Medium,Helvetica Neue" font-size="26.0" fill="#EAEAEA" transform="matrix(1.00, 0.00, -0.00, -1.00, 407.9, 80.4)">o</text><text xml:space="preserve" font-family="HelveticaNeue-Medium,Helvetica Neue" font-size="26.0" fill="#EAEAEA" transform="matrix(1.00, 0.00, -0.00, -1.00, 423.4, 80.4)">c</text><text xml:space="preserve" font-family="HelveticaNeue-Medium,Helvetica Neue" font-size="26.0" fill="#EAEAEA" transform="matrix(1.00, 0.00, -0.00, -1.00, 437.8, 80.4)">r</text><text xml:space="preserve" font-family="HelveticaNeue-Medium,Helvetica Neue" font-size="26.0" fill="#EAEAEA" transform="matrix(1.00, 0.00, -0.00, -1.00, 447.0, 80.4)">i</text><text xml:space="preserve" font-family="HelveticaNeue-Medium,Helvetica Neue" font-size="26.0" fill="#EAEAEA" transform="matrix(1.00, 0.00, -0.00, -1.00, 453.2, 80.4)">n</text><text xml:space="preserve" font-family="HelveticaNeue-Medium,Helvetica Neue" font-size="26.0" fill="#EAEAEA" transform="matrix(1.00, 0.00, -0.00, -1.00, 468.2, 80.4)">e</text><text xml:space="preserve" font-family="HelveticaNeue-Medium,Helvetica Neue" font-size="26.0" fill="#EAEAEA" transform="matrix(1.00, 0.00, -0.00, -1.00, 482.6, 80.4)"> </text><text xml:space="preserve" font-family="HelveticaNeue-Medium,Helvetica Neue" font-size="26.0" fill="#EAEAEA" transform="matrix(1.00, 0.00, -0.00, -1.00, 489.8, 80.4)">T</text><text xml:space="preserve" font-family="HelveticaNeue-Medium,Helvetica Neue" font-size="26.0" fill="#EAEAEA" transform="matrix(1.00, 0.00, -0.00, -1.00, 505.3, 80.4)">h</text><text xml:space="preserve" font-family="HelveticaNeue-Medium,Helvetica Neue" font-size="26.0" fill="#EAEAEA" transform="matrix(1.00, 0.00, -0.00, -1.00, 520.2, 80.4)">e</text><text xml:space="preserve" font-family="HelveticaNeue-Medium,Helvetica Neue" font-size="26.0" fill="#EAEAEA" transform="matrix(1.00, 0.00, -0.00, -1.00, 534.6, 80.4)">r</text><text xml:space="preserve" font-family="HelveticaNeue-Medium,Helvetica Neue" font-size="26.0" fill="#EAEAEA" transform="matrix(1.00, 0.00, -0.00, -1.00, 543.8, 80.4)">a</text><text xml:space="preserve" font-family="HelveticaNeue-Medium,Helvetica Neue" font-size="26.0" fill="#EAEAEA" transform="matrix(1.00, 0.00, -0.00, -1.00, 558.3, 80.4)">p</text><text xml:space="preserve" font-family="HelveticaNeue-Medium,Helvetica Neue" font-size="26.0" fill="#EAEAEA" transform="matrix(1.00, 0.00, -0.00, -1.00, 574.1, 80.4)">y</text><text xml:space="preserve" font-family="HelveticaNeue-Medium,Helvetica Neue" font-size="26.0" fill="#EAEAEA" transform="matrix(1.00, 0.00, -0.00, -1.00, 587.6, 80.4)"> </text><text xml:space="preserve" font-family="HelveticaNeue-Medium,Helvetica Neue" font-size="26.0" fill="#EAEAEA" transform="matrix(1.00, 0.00, -0.00, -1.00, 594.9, 80.4)">f</text><text xml:space="preserve" font-family="HelveticaNeue-Medium,Helvetica Neue" font-size="26.0" fill="#EAEAEA" transform="matrix(1.00, 0.00, -0.00, -1.00, 603.1, 80.4)">o</text><text xml:space="preserve" font-family="HelveticaNeue-Medium,Helvetica Neue" font-size="26.0" fill="#EAEAEA" transform="matrix(1.00, 0.00, -0.00, -1.00, 618.5, 80.4)">r</text><text xml:space="preserve" font-family="HelveticaNeue-Medium,Helvetica Neue" font-size="26.0" fill="#EAEAEA" transform="matrix(1.00, 0.00, -0.00, -1.00, 627.6, 80.4)"> </text><text xml:space="preserve" font-family="HelveticaNeue-Medium,Helvetica Neue" font-size="26.0" fill="#EAEAEA" transform="matrix(1.00, 0.00, -0.00, -1.00, 634.9, 80.4)">P</text><text xml:space="preserve" font-family="HelveticaNeue-Medium,Helvetica Neue" font-size="26.0" fill="#EAEAEA" transform="matrix(1.00, 0.00, -0.00, -1.00, 652.2, 80.4)">r</text><text xml:space="preserve" font-family="HelveticaNeue-Medium,Helvetica Neue" font-size="26.0" fill="#EAEAEA" transform="matrix(1.00, 0.00, -0.00, -1.00, 660.9, 80.4)">e</text><text xml:space="preserve" font-family="HelveticaNeue-Medium,Helvetica Neue" font-size="26.0" fill="#EAEAEA" transform="matrix(1.00, 0.00, -0.00, -1.00, 675.3, 80.4)">m</text><text xml:space="preserve" font-family="HelveticaNeue-Medium,Helvetica Neue" font-size="26.0" fill="#EAEAEA" transform="matrix(1.00, 0.00, -0.00, -1.00, 698.0, 80.4)">e</text><text xml:space="preserve" font-family="HelveticaNeue-Medium,Helvetica Neue" font-size="26.0" fill="#EAEAEA" transform="matrix(1.00, 0.00, -0.00, -1.00, 712.4, 80.4)">n</text><text xml:space="preserve" font-family="HelveticaNeue-Medium,Helvetica Neue" font-size="26.0" fill="#EAEAEA" transform="matrix(1.00, 0.00, -0.00, -1.00, 727.3, 80.4)">o</text><text xml:space="preserve" font-family="HelveticaNeue-Medium,Helvetica Neue" font-size="26.0" fill="#EAEAEA" transform="matrix(1.00, 0.00, -0.00, -1.00, 742.8, 80.4)">p</text><text xml:space="preserve" font-family="HelveticaNeue-Medium,Helvetica Neue" font-size="26.0" fill="#EAEAEA" transform="matrix(1.00, 0.00, -0.00, -1.00, 758.6, 80.4)">a</text><text xml:space="preserve" font-family="HelveticaNeue-Medium,Helvetica Neue" font-size="26.0" fill="#EAEAEA" transform="matrix(1.00, 0.00, -0.00, -1.00, 773.1, 80.4)">u</text><text xml:space="preserve" font-family="HelveticaNeue-Medium,Helvetica Neue" font-size="26.0" fill="#EAEAEA" transform="matrix(1.00, 0.00, -0.00, -1.00, 788.0, 80.4)">s</text><text xml:space="preserve" font-family="HelveticaNeue-Medium,Helvetica Neue" font-size="26.0" fill="#EAEAEA" transform="matrix(1.00, 0.00, -0.00, -1.00, 801.5, 80.4)">a</text><text xml:space="preserve" font-family="HelveticaNeue-Medium,Helvetica Neue" font-size="26.0" fill="#EAEAEA" transform="matrix(1.00, 0.00, -0.00, -1.00, 816.0, 80.4)">l</text><text xml:space="preserve" font-family="HelveticaNeue-Medium,Helvetica Neue" font-size="26.0" fill="#EAEAEA" transform="matrix(1.00, 0.00, -0.00, -1.00, 822.2, 80.4)"> </text><text xml:space="preserve" font-family="HelveticaNeue-Medium,Helvetica Neue" font-size="26.0" fill="#EAEAEA" transform="matrix(1.00, 0.00, -0.00, -1.00, 829.5, 80.4)">W</text><text xml:space="preserve" font-family="HelveticaNeue-Medium,Helvetica Neue" font-size="26.0" fill="#EAEAEA" transform="matrix(1.00, 0.00, -0.00, -1.00, 853.5, 80.4)">o</text><text xml:space="preserve" font-family="HelveticaNeue-Medium,Helvetica Neue" font-size="26.0" fill="#EAEAEA" transform="matrix(1.00, 0.00, -0.00, -1.00, 869.0, 80.4)">m</text><text xml:space="preserve" font-family="HelveticaNeue-Medium,Helvetica Neue" font-size="26.0" fill="#EAEAEA" transform="matrix(1.00, 0.00, -0.00, -1.00, 891.6, 80.4)">e</text><text xml:space="preserve" font-family="HelveticaNeue-Medium,Helvetica Neue" font-size="26.0" fill="#EAEAEA" transform="matrix(1.00, 0.00, -0.00, -1.00, 906.0, 80.4)">n</text><text xml:space="preserve" font-family="HelveticaNeue-Medium,Helvetica Neue" font-size="26.0" fill="#EAEAEA" transform="matrix(1.00, 0.00, -0.00, -1.00, 921.0, 80.4)"> </text><text xml:space="preserve" font-family="HelveticaNeue-Medium,Helvetica Neue" font-size="26.0" fill="#EAEAEA" transform="matrix(1.00, 0.00, -0.00, -1.00, 928.2, 80.4)">W</text><text xml:space="preserve" font-family="HelveticaNeue-Medium,Helvetica Neue" font-size="26.0" fill="#EAEAEA" transform="matrix(1.00, 0.00, -0.00, -1.00, 952.7, 80.4)">i</text><text xml:space="preserve" font-family="HelveticaNeue-Medium,Helvetica Neue" font-size="26.0" fill="#EAEAEA" transform="matrix(1.00, 0.00, -0.00, -1.00, 959.0, 80.4)">t</text><text xml:space="preserve" font-family="HelveticaNeue-Medium,Helvetica Neue" font-size="26.0" fill="#EAEAEA" transform="matrix(1.00, 0.00, -0.00, -1.00, 967.7, 80.4)">h</text><text xml:space="preserve" font-family="HelveticaNeue-Medium,Helvetica Neue" font-size="26.0" fill="#EAEAEA" transform="matrix(1.00, 0.00, -0.00, -1.00, 982.6, 80.4)"> </text><image xlink:href="../../2040BFD9-F9D1-4CAE-A1DE-D96179C3C7E6/assets/C49612E57D569E9C848462870EE62611.png" width="994.00" height="33.00" transform="matrix(1.00, 0.00, -0.00, -1.00, 14.0, 70.0)"></image><text xml:space="preserve" font-family="HelveticaNeue-Medium,Helvetica Neue" font-size="26.0" fill="#EAEAEA" transform="matrix(1.00, 0.00, -0.00, -1.00, 18.8, 48.4)">A</text><text xml:space="preserve" font-family="HelveticaNeue-Medium,Helvetica Neue" font-size="26.0" fill="#EAEAEA" transform="matrix(1.00, 0.00, -0.00, -1.00, 36.1, 48.4)">x</text><text xml:space="preserve" font-family="HelveticaNeue-Medium,Helvetica Neue" font-size="26.0" fill="#EAEAEA" transform="matrix(1.00, 0.00, -0.00, -1.00, 50.1, 48.4)">i</text><text xml:space="preserve" font-family="HelveticaNeue-Medium,Helvetica Neue" font-size="26.0" fill="#EAEAEA" transform="matrix(1.00, 0.00, -0.00, -1.00, 56.3, 48.4)">l</text><text xml:space="preserve" font-family="HelveticaNeue-Medium,Helvetica Neue" font-size="26.0" fill="#EAEAEA" transform="matrix(1.00, 0.00, -0.00, -1.00, 62.6, 48.4)">l</text><text xml:space="preserve" font-family="HelveticaNeue-Medium,Helvetica Neue" font-size="26.0" fill="#EAEAEA" transform="matrix(1.00, 0.00, -0.00, -1.00, 68.9, 48.4)">a</text><text xml:space="preserve" font-family="HelveticaNeue-Medium,Helvetica Neue" font-size="26.0" fill="#EAEAEA" transform="matrix(1.00, 0.00, -0.00, -1.00, 83.3, 48.4)">r</text><text xml:space="preserve" font-family="HelveticaNeue-Medium,Helvetica Neue" font-size="26.0" fill="#EAEAEA" transform="matrix(1.00, 0.00, -0.00, -1.00, 92.5, 48.4)">y</text><text xml:space="preserve" font-family="HelveticaNeue-Medium,Helvetica Neue" font-size="26.0" fill="#EAEAEA" transform="matrix(1.00, 0.00, -0.00, -1.00, 106.0, 48.4)"> </text><text xml:space="preserve" font-family="HelveticaNeue-Medium,Helvetica Neue" font-size="26.0" fill="#EAEAEA" transform="matrix(1.00, 0.00, -0.00, -1.00, 113.2, 48.4)">L</text><text xml:space="preserve" font-family="HelveticaNeue-Medium,Helvetica Neue" font-size="26.0" fill="#EAEAEA" transform="matrix(1.00, 0.00, -0.00, -1.00, 127.1, 48.4)">y</text><text xml:space="preserve" font-family="HelveticaNeue-Medium,Helvetica Neue" font-size="26.0" fill="#EAEAEA" transform="matrix(1.00, 0.00, -0.00, -1.00, 140.6, 48.4)">m</text><text xml:space="preserve" font-family="HelveticaNeue-Medium,Helvetica Neue" font-size="26.0" fill="#EAEAEA" transform="matrix(1.00, 0.00, -0.00, -1.00, 163.3, 48.4)">p</text><text xml:space="preserve" font-family="HelveticaNeue-Medium,Helvetica Neue" font-size="26.0" fill="#EAEAEA" transform="matrix(1.00, 0.00, -0.00, -1.00, 179.1, 48.4)">h</text><text xml:space="preserve" font-family="HelveticaNeue-Medium,Helvetica Neue" font-size="26.0" fill="#EAEAEA" transform="matrix(1.00, 0.00, -0.00, -1.00, 194.1, 48.4)"> </text><text xml:space="preserve" font-family="HelveticaNeue-Medium,Helvetica Neue" font-size="26.0" fill="#EAEAEA" transform="matrix(1.00, 0.00, -0.00, -1.00, 201.3, 48.4)">N</text><text xml:space="preserve" font-family="HelveticaNeue-Medium,Helvetica Neue" font-size="26.0" fill="#EAEAEA" transform="matrix(1.00, 0.00, -0.00, -1.00, 220.1, 48.4)">o</text><text xml:space="preserve" font-family="HelveticaNeue-Medium,Helvetica Neue" font-size="26.0" fill="#EAEAEA" transform="matrix(1.00, 0.00, -0.00, -1.00, 235.5, 48.4)">d</text><text xml:space="preserve" font-family="HelveticaNeue-Medium,Helvetica Neue" font-size="26.0" fill="#EAEAEA" transform="matrix(1.00, 0.00, -0.00, -1.00, 251.4, 48.4)">e</text><text xml:space="preserve" font-family="HelveticaNeue-Medium,Helvetica Neue" font-size="26.0" fill="#EAEAEA" transform="matrix(1.00, 0.00, -0.00, -1.00, 265.8, 48.4)">–</text><text xml:space="preserve" font-family="HelveticaNeue-Medium,Helvetica Neue" font-size="26.0" fill="#EAEAEA" transform="matrix(1.00, 0.00, -0.00, -1.00, 278.8, 48.4)">P</text><text xml:space="preserve" font-family="HelveticaNeue-Medium,Helvetica Neue" font-size="26.0" fill="#EAEAEA" transform="matrix(1.00, 0.00, -0.00, -1.00, 296.2, 48.4)">o</text><text xml:space="preserve" font-family="HelveticaNeue-Medium,Helvetica Neue" font-size="26.0" fill="#EAEAEA" transform="matrix(1.00, 0.00, -0.00, -1.00, 311.6, 48.4)">s</text><text xml:space="preserve" font-family="HelveticaNeue-Medium,Helvetica Neue" font-size="26.0" fill="#EAEAEA" transform="matrix(1.00, 0.00, -0.00, -1.00, 325.1, 48.4)">i</text><text xml:space="preserve" font-family="HelveticaNeue-Medium,Helvetica Neue" font-size="26.0" fill="#EAEAEA" transform="matrix(1.00, 0.00, -0.00, -1.00, 331.4, 48.4)">t</text><text xml:space="preserve" font-family="HelveticaNeue-Medium,Helvetica Neue" font-size="26.0" fill="#EAEAEA" transform="matrix(1.00, 0.00, -0.00, -1.00, 340.0, 48.4)">i</text><text xml:space="preserve" font-family="HelveticaNeue-Medium,Helvetica Neue" font-size="26.0" fill="#EAEAEA" transform="matrix(1.00, 0.00, -0.00, -1.00, 346.3, 48.4)">v</text><text xml:space="preserve" font-family="HelveticaNeue-Medium,Helvetica Neue" font-size="26.0" fill="#EAEAEA" transform="matrix(1.00, 0.00, -0.00, -1.00, 359.8, 48.4)">e</text><text xml:space="preserve" font-family="HelveticaNeue-Medium,Helvetica Neue" font-size="26.0" fill="#EAEAEA" transform="matrix(1.00, 0.00, -0.00, -1.00, 374.2, 48.4)">,</text><text xml:space="preserve" font-family="HelveticaNeue-Medium,Helvetica Neue" font-size="26.0" fill="#EAEAEA" transform="matrix(1.00, 0.00, -0.00, -1.00, 381.5, 48.4)"> </text><text xml:space="preserve" font-family="HelveticaNeue-Medium,Helvetica Neue" font-size="26.0" fill="#EAEAEA" transform="matrix(1.00, 0.00, -0.00, -1.00, 388.7, 48.4)">S</text><text xml:space="preserve" font-family="HelveticaNeue-Medium,Helvetica Neue" font-size="26.0" fill="#EAEAEA" transform="matrix(1.00, 0.00, -0.00, -1.00, 405.5, 48.4)">t</text><text xml:space="preserve" font-family="HelveticaNeue-Medium,Helvetica Neue" font-size="26.0" fill="#EAEAEA" transform="matrix(1.00, 0.00, -0.00, -1.00, 414.2, 48.4)">e</text><text xml:space="preserve" font-family="HelveticaNeue-Medium,Helvetica Neue" font-size="26.0" fill="#EAEAEA" transform="matrix(1.00, 0.00, -0.00, -1.00, 428.6, 48.4)">r</text><text xml:space="preserve" font-family="HelveticaNeue-Medium,Helvetica Neue" font-size="26.0" fill="#EAEAEA" transform="matrix(1.00, 0.00, -0.00, -1.00, 437.3, 48.4)">o</text><text xml:space="preserve" font-family="HelveticaNeue-Medium,Helvetica Neue" font-size="26.0" fill="#EAEAEA" transform="matrix(1.00, 0.00, -0.00, -1.00, 452.7, 48.4)">i</text><text xml:space="preserve" font-family="HelveticaNeue-Medium,Helvetica Neue" font-size="26.0" fill="#EAEAEA" transform="matrix(1.00, 0.00, -0.00, -1.00, 459.0, 48.4)">d</text><text xml:space="preserve" font-family="HelveticaNeue-Medium,Helvetica Neue" font-size="26.0" fill="#EAEAEA" transform="matrix(1.00, 0.00, -0.00, -1.00, 474.9, 48.4)"> </text><text xml:space="preserve" font-family="HelveticaNeue-Medium,Helvetica Neue" font-size="26.0" fill="#EAEAEA" transform="matrix(1.00, 0.00, -0.00, -1.00, 482.1, 48.4)">H</text><text xml:space="preserve" font-family="HelveticaNeue-Medium,Helvetica Neue" font-size="26.0" fill="#EAEAEA" transform="matrix(1.00, 0.00, -0.00, -1.00, 500.9, 48.4)">o</text><text xml:space="preserve" font-family="HelveticaNeue-Medium,Helvetica Neue" font-size="26.0" fill="#EAEAEA" transform="matrix(1.00, 0.00, -0.00, -1.00, 516.3, 48.4)">r</text><text xml:space="preserve" font-family="HelveticaNeue-Medium,Helvetica Neue" font-size="26.0" fill="#EAEAEA" transform="matrix(1.00, 0.00, -0.00, -1.00, 525.5, 48.4)">m</text><text xml:space="preserve" font-family="HelveticaNeue-Medium,Helvetica Neue" font-size="26.0" fill="#EAEAEA" transform="matrix(1.00, 0.00, -0.00, -1.00, 548.1, 48.4)">o</text><text xml:space="preserve" font-family="HelveticaNeue-Medium,Helvetica Neue" font-size="26.0" fill="#EAEAEA" transform="matrix(1.00, 0.00, -0.00, -1.00, 563.5, 48.4)">n</text><text xml:space="preserve" font-family="HelveticaNeue-Medium,Helvetica Neue" font-size="26.0" fill="#EAEAEA" transform="matrix(1.00, 0.00, -0.00, -1.00, 578.4, 48.4)">e</text><text xml:space="preserve" font-family="HelveticaNeue-Medium,Helvetica Neue" font-size="26.0" fill="#EAEAEA" transform="matrix(1.00, 0.00, -0.00, -1.00, 592.9, 48.4)"> </text><text xml:space="preserve" font-family="HelveticaNeue-Medium,Helvetica Neue" font-size="26.0" fill="#EAEAEA" transform="matrix(1.00, 0.00, -0.00, -1.00, 600.1, 48.4)">R</text><text xml:space="preserve" font-family="HelveticaNeue-Medium,Helvetica Neue" font-size="26.0" fill="#EAEAEA" transform="matrix(1.00, 0.00, -0.00, -1.00, 618.4, 48.4)">e</text><text xml:space="preserve" font-family="HelveticaNeue-Medium,Helvetica Neue" font-size="26.0" fill="#EAEAEA" transform="matrix(1.00, 0.00, -0.00, -1.00, 632.9, 48.4)">c</text><text xml:space="preserve" font-family="HelveticaNeue-Medium,Helvetica Neue" font-size="26.0" fill="#EAEAEA" transform="matrix(1.00, 0.00, -0.00, -1.00, 647.3, 48.4)">e</text><text xml:space="preserve" font-family="HelveticaNeue-Medium,Helvetica Neue" font-size="26.0" fill="#EAEAEA" transform="matrix(1.00, 0.00, -0.00, -1.00, 661.8, 48.4)">p</text><text xml:space="preserve" font-family="HelveticaNeue-Medium,Helvetica Neue" font-size="26.0" fill="#EAEAEA" transform="matrix(1.00, 0.00, -0.00, -1.00, 677.7, 48.4)">t</text><text xml:space="preserve" font-family="HelveticaNeue-Medium,Helvetica Neue" font-size="26.0" fill="#EAEAEA" transform="matrix(1.00, 0.00, -0.00, -1.00, 686.3, 48.4)">o</text><text xml:space="preserve" font-family="HelveticaNeue-Medium,Helvetica Neue" font-size="26.0" fill="#EAEAEA" transform="matrix(1.00, 0.00, -0.00, -1.00, 701.7, 48.4)">r</text><text xml:space="preserve" font-family="HelveticaNeue-Medium,Helvetica Neue" font-size="26.0" fill="#EAEAEA" transform="matrix(1.00, 0.00, -0.00, -1.00, 710.9, 48.4)">–</text><text xml:space="preserve" font-family="HelveticaNeue-Medium,Helvetica Neue" font-size="26.0" fill="#EAEAEA" transform="matrix(1.00, 0.00, -0.00, -1.00, 723.9, 48.4)">P</text><text xml:space="preserve" font-family="HelveticaNeue-Medium,Helvetica Neue" font-size="26.0" fill="#EAEAEA" transform="matrix(1.00, 0.00, -0.00, -1.00, 741.2, 48.4)">o</text><text xml:space="preserve" font-family="HelveticaNeue-Medium,Helvetica Neue" font-size="26.0" fill="#EAEAEA" transform="matrix(1.00, 0.00, -0.00, -1.00, 756.7, 48.4)">s</text><text xml:space="preserve" font-family="HelveticaNeue-Medium,Helvetica Neue" font-size="26.0" fill="#EAEAEA" transform="matrix(1.00, 0.00, -0.00, -1.00, 770.2, 48.4)">i</text><text xml:space="preserve" font-family="HelveticaNeue-Medium,Helvetica Neue" font-size="26.0" fill="#EAEAEA" transform="matrix(1.00, 0.00, -0.00, -1.00, 776.4, 48.4)">t</text><text xml:space="preserve" font-family="HelveticaNeue-Medium,Helvetica Neue" font-size="26.0" fill="#EAEAEA" transform="matrix(1.00, 0.00, -0.00, -1.00, 785.1, 48.4)">i</text><text xml:space="preserve" font-family="HelveticaNeue-Medium,Helvetica Neue" font-size="26.0" fill="#EAEAEA" transform="matrix(1.00, 0.00, -0.00, -1.00, 791.3, 48.4)">v</text><text xml:space="preserve" font-family="HelveticaNeue-Medium,Helvetica Neue" font-size="26.0" fill="#EAEAEA" transform="matrix(1.00, 0.00, -0.00, -1.00, 804.8, 48.4)">e</text><text xml:space="preserve" font-family="HelveticaNeue-Medium,Helvetica Neue" font-size="26.0" fill="#EAEAEA" transform="matrix(1.00, 0.00, -0.00, -1.00, 819.3, 48.4)"> </text><text xml:space="preserve" font-family="HelveticaNeue-Medium,Helvetica Neue" font-size="26.0" fill="#EAEAEA" transform="matrix(1.00, 0.00, -0.00, -1.00, 826.5, 48.4)">B</text><text xml:space="preserve" font-family="HelveticaNeue-Medium,Helvetica Neue" font-size="26.0" fill="#EAEAEA" transform="matrix(1.00, 0.00, -0.00, -1.00, 844.8, 48.4)">r</text><text xml:space="preserve" font-family="HelveticaNeue-Medium,Helvetica Neue" font-size="26.0" fill="#EAEAEA" transform="matrix(1.00, 0.00, -0.00, -1.00, 853.5, 48.4)">e</text><text xml:space="preserve" font-family="HelveticaNeue-Medium,Helvetica Neue" font-size="26.0" fill="#EAEAEA" transform="matrix(1.00, 0.00, -0.00, -1.00, 868.0, 48.4)">a</text><text xml:space="preserve" font-family="HelveticaNeue-Medium,Helvetica Neue" font-size="26.0" fill="#EAEAEA" transform="matrix(1.00, 0.00, -0.00, -1.00, 882.4, 48.4)">s</text><text xml:space="preserve" font-family="HelveticaNeue-Medium,Helvetica Neue" font-size="26.0" fill="#EAEAEA" transform="matrix(1.00, 0.00, -0.00, -1.00, 895.9, 48.4)">t</text><text xml:space="preserve" font-family="HelveticaNeue-Medium,Helvetica Neue" font-size="26.0" fill="#EAEAEA" transform="matrix(1.00, 0.00, -0.00, -1.00, 904.6, 48.4)"> </text><text xml:space="preserve" font-family="HelveticaNeue-Medium,Helvetica Neue" font-size="26.0" fill="#EAEAEA" transform="matrix(1.00, 0.00, -0.00, -1.00, 911.8, 48.4)">C</text><text xml:space="preserve" font-family="HelveticaNeue-Medium,Helvetica Neue" font-size="26.0" fill="#EAEAEA" transform="matrix(1.00, 0.00, -0.00, -1.00, 930.6, 48.4)">a</text><text xml:space="preserve" font-family="HelveticaNeue-Medium,Helvetica Neue" font-size="26.0" fill="#EAEAEA" transform="matrix(1.00, 0.00, -0.00, -1.00, 945.0, 48.4)">n</text><text xml:space="preserve" font-family="HelveticaNeue-Medium,Helvetica Neue" font-size="26.0" fill="#EAEAEA" transform="matrix(1.00, 0.00, -0.00, -1.00, 960.0, 48.4)">c</text><text xml:space="preserve" font-family="HelveticaNeue-Medium,Helvetica Neue" font-size="26.0" fill="#EAEAEA" transform="matrix(1.00, 0.00, -0.00, -1.00, 974.4, 48.4)">e</text><text xml:space="preserve" font-family="HelveticaNeue-Medium,Helvetica Neue" font-size="26.0" fill="#EAEAEA" transform="matrix(1.00, 0.00, -0.00, -1.00, 988.9, 48.4)">r</text><text xml:space="preserve" font-family="HelveticaNeue-Medium,Helvetica Neue" font-size="26.0" fill="#EAEAEA" transform="matrix(1.00, 0.00, -0.00, -1.00, 998.0, 48.4)">:</text><text xml:space="preserve" font-family="HelveticaNeue-Medium,Helvetica Neue" font-size="26.0" fill="#EAEAEA" transform="matrix(1.00, 0.00, -0.00, -1.00, 1005.2, 48.4)"> </text><image xlink:href="../../2040BFD9-F9D1-4CAE-A1DE-D96179C3C7E6/assets/16E2FA6C7E637FE6B7DD99778A166493.png" width="782.00" height="33.00" transform="matrix(1.00, 0.00, -0.00, -1.00, 121.0, 38.0)"></image><text xml:space="preserve" font-family="HelveticaNeue-Medium,Helvetica Neue" font-size="26.0" fill="#EAEAEA" transform="matrix(1.00, 0.00, -0.00, -1.00, 123.2, 16.4)">R</text><text xml:space="preserve" font-family="HelveticaNeue-Medium,Helvetica Neue" font-size="26.0" fill="#EAEAEA" transform="matrix(1.00, 0.00, -0.00, -1.00, 141.5, 16.4)">e</text><text xml:space="preserve" font-family="HelveticaNeue-Medium,Helvetica Neue" font-size="26.0" fill="#EAEAEA" transform="matrix(1.00, 0.00, -0.00, -1.00, 156.0, 16.4)">s</text><text xml:space="preserve" font-family="HelveticaNeue-Medium,Helvetica Neue" font-size="26.0" fill="#EAEAEA" transform="matrix(1.00, 0.00, -0.00, -1.00, 169.5, 16.4)">u</text><text xml:space="preserve" font-family="HelveticaNeue-Medium,Helvetica Neue" font-size="26.0" fill="#EAEAEA" transform="matrix(1.00, 0.00, -0.00, -1.00, 184.4, 16.4)">l</text><text xml:space="preserve" font-family="HelveticaNeue-Medium,Helvetica Neue" font-size="26.0" fill="#EAEAEA" transform="matrix(1.00, 0.00, -0.00, -1.00, 190.7, 16.4)">t</text><text xml:space="preserve" font-family="HelveticaNeue-Medium,Helvetica Neue" font-size="26.0" fill="#EAEAEA" transform="matrix(1.00, 0.00, -0.00, -1.00, 199.3, 16.4)">s</text><text xml:space="preserve" font-family="HelveticaNeue-Medium,Helvetica Neue" font-size="26.0" fill="#EAEAEA" transform="matrix(1.00, 0.00, -0.00, -1.00, 212.8, 16.4)"> </text><text xml:space="preserve" font-family="HelveticaNeue-Medium,Helvetica Neue" font-size="26.0" fill="#EAEAEA" transform="matrix(1.00, 0.00, -0.00, -1.00, 220.0, 16.4)">F</text><text xml:space="preserve" font-family="HelveticaNeue-Medium,Helvetica Neue" font-size="26.0" fill="#EAEAEA" transform="matrix(1.00, 0.00, -0.00, -1.00, 235.5, 16.4)">r</text><text xml:space="preserve" font-family="HelveticaNeue-Medium,Helvetica Neue" font-size="26.0" fill="#EAEAEA" transform="matrix(1.00, 0.00, -0.00, -1.00, 244.1, 16.4)">o</text><text xml:space="preserve" font-family="HelveticaNeue-Medium,Helvetica Neue" font-size="26.0" fill="#EAEAEA" transform="matrix(1.00, 0.00, -0.00, -1.00, 259.6, 16.4)">m</text><text xml:space="preserve" font-family="HelveticaNeue-Medium,Helvetica Neue" font-size="26.0" fill="#EAEAEA" transform="matrix(1.00, 0.00, -0.00, -1.00, 282.2, 16.4)"> </text><text xml:space="preserve" font-family="HelveticaNeue-Medium,Helvetica Neue" font-size="26.0" fill="#EAEAEA" transform="matrix(1.00, 0.00, -0.00, -1.00, 289.4, 16.4)">I</text><text xml:space="preserve" font-family="HelveticaNeue-Medium,Helvetica Neue" font-size="26.0" fill="#EAEAEA" transform="matrix(1.00, 0.00, -0.00, -1.00, 296.6, 16.4)">N</text><text xml:space="preserve" font-family="HelveticaNeue-Medium,Helvetica Neue" font-size="26.0" fill="#EAEAEA" transform="matrix(1.00, 0.00, -0.00, -1.00, 315.4, 16.4)">T</text><text xml:space="preserve" font-family="HelveticaNeue-Medium,Helvetica Neue" font-size="26.0" fill="#EAEAEA" transform="matrix(1.00, 0.00, -0.00, -1.00, 330.8, 16.4)"> </text><text xml:space="preserve" font-family="HelveticaNeue-Medium,Helvetica Neue" font-size="26.0" fill="#EAEAEA" transform="matrix(1.00, 0.00, -0.00, -1.00, 338.0, 16.4)">0</text><text xml:space="preserve" font-family="HelveticaNeue-Medium,Helvetica Neue" font-size="26.0" fill="#EAEAEA" transform="matrix(1.00, 0.00, -0.00, -1.00, 352.5, 16.4)">1</text><text xml:space="preserve" font-family="HelveticaNeue-Medium,Helvetica Neue" font-size="26.0" fill="#EAEAEA" transform="matrix(1.00, 0.00, -0.00, -1.00, 367.0, 16.4)">0</text><text xml:space="preserve" font-family="HelveticaNeue-Medium,Helvetica Neue" font-size="26.0" fill="#EAEAEA" transform="matrix(1.00, 0.00, -0.00, -1.00, 381.4, 16.4)">1</text><text xml:space="preserve" font-family="HelveticaNeue-Medium,Helvetica Neue" font-size="26.0" fill="#EAEAEA" transform="matrix(1.00, 0.00, -0.00, -1.00, 395.9, 16.4)"> </text><text xml:space="preserve" font-family="HelveticaNeue-Medium,Helvetica Neue" font-size="26.0" fill="#EAEAEA" transform="matrix(1.00, 0.00, -0.00, -1.00, 403.1, 16.4)">(</text><text xml:space="preserve" font-family="HelveticaNeue-Medium,Helvetica Neue" font-size="26.0" fill="#EAEAEA" transform="matrix(1.00, 0.00, -0.00, -1.00, 410.3, 16.4)">E</text><text xml:space="preserve" font-family="HelveticaNeue-Medium,Helvetica Neue" font-size="26.0" fill="#EAEAEA" transform="matrix(1.00, 0.00, -0.00, -1.00, 426.7, 16.4)">5</text><text xml:space="preserve" font-family="HelveticaNeue-Medium,Helvetica Neue" font-size="26.0" fill="#EAEAEA" transform="matrix(1.00, 0.00, -0.00, -1.00, 441.2, 16.4)">1</text><text xml:space="preserve" font-family="HelveticaNeue-Medium,Helvetica Neue" font-size="26.0" fill="#EAEAEA" transform="matrix(1.00, 0.00, -0.00, -1.00, 455.6, 16.4)">8</text><text xml:space="preserve" font-family="HelveticaNeue-Medium,Helvetica Neue" font-size="26.0" fill="#EAEAEA" transform="matrix(1.00, 0.00, -0.00, -1.00, 470.1, 16.4)">8</text><text xml:space="preserve" font-family="HelveticaNeue-Medium,Helvetica Neue" font-size="26.0" fill="#EAEAEA" transform="matrix(1.00, 0.00, -0.00, -1.00, 484.5, 16.4)">)</text><text xml:space="preserve" font-family="HelveticaNeue-Medium,Helvetica Neue" font-size="26.0" fill="#EAEAEA" transform="matrix(1.00, 0.00, -0.00, -1.00, 491.8, 16.4)">.</text><text xml:space="preserve" font-family="HelveticaNeue-Medium,Helvetica Neue" font-size="26.0" fill="#EAEAEA" transform="matrix(1.00, 0.00, -0.00, -1.00, 499.0, 16.4)"> </text><text xml:space="preserve" font-family="HelveticaNeue-Medium,Helvetica Neue" font-size="26.0" fill="#EAEAEA" transform="matrix(1.00, 0.00, -0.00, -1.00, 506.2, 16.4)">J</text><text xml:space="preserve" font-family="HelveticaNeue-Medium,Helvetica Neue" font-size="26.0" fill="#EAEAEA" transform="matrix(1.00, 0.00, -0.00, -1.00, 520.2, 16.4)">C</text><text xml:space="preserve" font-family="HelveticaNeue-Medium,Helvetica Neue" font-size="26.0" fill="#EAEAEA" transform="matrix(1.00, 0.00, -0.00, -1.00, 538.9, 16.4)">O</text><text xml:space="preserve" font-family="HelveticaNeue-Medium,Helvetica Neue" font-size="26.0" fill="#EAEAEA" transform="matrix(1.00, 0.00, -0.00, -1.00, 558.7, 16.4)">.</text><text xml:space="preserve" font-family="HelveticaNeue-Medium,Helvetica Neue" font-size="26.0" fill="#EAEAEA" transform="matrix(1.00, 0.00, -0.00, -1.00, 565.9, 16.4)"> </text><text xml:space="preserve" font-family="HelveticaNeue-Medium,Helvetica Neue" font-size="26.0" fill="#EAEAEA" transform="matrix(1.00, 0.00, -0.00, -1.00, 573.2, 16.4)">2</text><text xml:space="preserve" font-family="HelveticaNeue-Medium,Helvetica Neue" font-size="26.0" fill="#EAEAEA" transform="matrix(1.00, 0.00, -0.00, -1.00, 587.6, 16.4)">0</text><text xml:space="preserve" font-family="HelveticaNeue-Medium,Helvetica Neue" font-size="26.0" fill="#EAEAEA" transform="matrix(1.00, 0.00, -0.00, -1.00, 602.1, 16.4)">0</text><text xml:space="preserve" font-family="HelveticaNeue-Medium,Helvetica Neue" font-size="26.0" fill="#EAEAEA" transform="matrix(1.00, 0.00, -0.00, -1.00, 616.5, 16.4)">5</text><text xml:space="preserve" font-family="HelveticaNeue-Medium,Helvetica Neue" font-size="26.0" fill="#EAEAEA" transform="matrix(1.00, 0.00, -0.00, -1.00, 631.0, 16.4)"> </text><text xml:space="preserve" font-family="HelveticaNeue-Medium,Helvetica Neue" font-size="26.0" fill="#EAEAEA" transform="matrix(1.00, 0.00, -0.00, -1.00, 638.2, 16.4)">S</text><text xml:space="preserve" font-family="HelveticaNeue-Medium,Helvetica Neue" font-size="26.0" fill="#EAEAEA" transform="matrix(1.00, 0.00, -0.00, -1.00, 655.1, 16.4)">e</text><text xml:space="preserve" font-family="HelveticaNeue-Medium,Helvetica Neue" font-size="26.0" fill="#EAEAEA" transform="matrix(1.00, 0.00, -0.00, -1.00, 669.5, 16.4)">p</text><text xml:space="preserve" font-family="HelveticaNeue-Medium,Helvetica Neue" font-size="26.0" fill="#EAEAEA" transform="matrix(1.00, 0.00, -0.00, -1.00, 685.4, 16.4)"> </text><text xml:space="preserve" font-family="HelveticaNeue-Medium,Helvetica Neue" font-size="26.0" fill="#EAEAEA" transform="matrix(1.00, 0.00, -0.00, -1.00, 692.6, 16.4)">1</text><text xml:space="preserve" font-family="HelveticaNeue-Medium,Helvetica Neue" font-size="26.0" fill="#EAEAEA" transform="matrix(1.00, 0.00, -0.00, -1.00, 707.1, 16.4)">;</text><text xml:space="preserve" font-family="HelveticaNeue-Medium,Helvetica Neue" font-size="26.0" fill="#EAEAEA" transform="matrix(1.00, 0.00, -0.00, -1.00, 714.3, 16.4)">2</text><text xml:space="preserve" font-family="HelveticaNeue-Medium,Helvetica Neue" font-size="26.0" fill="#EAEAEA" transform="matrix(1.00, 0.00, -0.00, -1.00, 728.8, 16.4)">3</text><text xml:space="preserve" font-family="HelveticaNeue-Medium,Helvetica Neue" font-size="26.0" fill="#EAEAEA" transform="matrix(1.00, 0.00, -0.00, -1.00, 743.2, 16.4)">(</text><text xml:space="preserve" font-family="HelveticaNeue-Medium,Helvetica Neue" font-size="26.0" fill="#EAEAEA" transform="matrix(1.00, 0.00, -0.00, -1.00, 750.5, 16.4)">2</text><text xml:space="preserve" font-family="HelveticaNeue-Medium,Helvetica Neue" font-size="26.0" fill="#EAEAEA" transform="matrix(1.00, 0.00, -0.00, -1.00, 764.9, 16.4)">5</text><text xml:space="preserve" font-family="HelveticaNeue-Medium,Helvetica Neue" font-size="26.0" fill="#EAEAEA" transform="matrix(1.00, 0.00, -0.00, -1.00, 779.4, 16.4)">)</text><text xml:space="preserve" font-family="HelveticaNeue-Medium,Helvetica Neue" font-size="26.0" fill="#EAEAEA" transform="matrix(1.00, 0.00, -0.00, -1.00, 786.6, 16.4)">:</text><text xml:space="preserve" font-family="HelveticaNeue-Medium,Helvetica Neue" font-size="26.0" fill="#EAEAEA" transform="matrix(1.00, 0.00, -0.00, -1.00, 793.8, 16.4)">5</text><text xml:space="preserve" font-family="HelveticaNeue-Medium,Helvetica Neue" font-size="26.0" fill="#EAEAEA" transform="matrix(1.00, 0.00, -0.00, -1.00, 808.3, 16.4)">9</text><text xml:space="preserve" font-family="HelveticaNeue-Medium,Helvetica Neue" font-size="26.0" fill="#EAEAEA" transform="matrix(1.00, 0.00, -0.00, -1.00, 822.7, 16.4)">7</text><text xml:space="preserve" font-family="HelveticaNeue-Medium,Helvetica Neue" font-size="26.0" fill="#EAEAEA" transform="matrix(1.00, 0.00, -0.00, -1.00, 837.2, 16.4)">3</text><text xml:space="preserve" font-family="HelveticaNeue-Medium,Helvetica Neue" font-size="26.0" fill="#EAEAEA" transform="matrix(1.00, 0.00, -0.00, -1.00, 851.7, 16.4)">–</text><text xml:space="preserve" font-family="HelveticaNeue-Medium,Helvetica Neue" font-size="26.0" fill="#EAEAEA" transform="matrix(1.00, 0.00, -0.00, -1.00, 864.7, 16.4)">8</text><text xml:space="preserve" font-family="HelveticaNeue-Medium,Helvetica Neue" font-size="26.0" fill="#EAEAEA" transform="matrix(1.00, 0.00, -0.00, -1.00, 879.1, 16.4)">2</text><text xml:space="preserve" font-family="HelveticaNeue-Medium,Helvetica Neue" font-size="26.0" fill="#EAEAEA" transform="matrix(1.00, 0.00, -0.00, -1.00, 893.6, 16.4)">.</text><image xlink:href="../../936CF4C6-E3E6-42C1-81BD-3CD1380DE3D2/assets/268A1ED835AFC79007298CDA8687C267.png" width="1392.00" height="754.00" transform="matrix(0.71, 0.00, -0.00, -0.71, 15.0, 694.0)"></image><image xlink:href="../../936CF4C6-E3E6-42C1-81BD-3CD1380DE3D2/assets/24EBE6ED1CC64808A92499F8352A0099.png" width="1038.00" height="589.00" transform="matrix(1.00, 0.00, -0.00, 1.00, -7.0, 131.0)"></image></g></svg>