<?xml version="1.0" encoding="UTF-8" standalone="no"?><svg xmlns="http://www.w3.org/2000/svg" xmlns:xlink="http://www.w3.org/1999/xlink" clip-rule="evenodd" stroke-miterlimit="4.00" viewBox="0 0 1024 768"><desc>SVG generated by Keynote</desc><defs></defs><g transform="matrix(1.00, 0.00, -0.00, -1.00, 0.0, 768.0)"><path d="M 0.0 768.0 L 1024.0 768.0 L 1024.0 0.0 L 0.0 0.0 Z M 0.0 768.0 " fill="#FEFFFE"></path><g><clipPath id="clip-554"><path d="M 5.0 36.0 L 476.0 36.0 L 476.0 2.0 L 5.0 2.0 Z M 4.5 35.8 "></path></clipPath><g clip-path="url(#clip-554)"><g><clipPath id="clip-555"><path d="M 5.0 -425.0 L 1029.0 -425.0 L 1029.0 36.0 L 5.0 36.0 Z M 5.0 -425.0 "></path></clipPath><g clip-path="url(#clip-555)"><image xlink:href="../../F02C7FE5-7F36-4514-BB5D-D97307E17BEC/assets/89254EFDAE83B2B42F520AE5FE88786F.png" width="2372.00" height="1068.00" transform="matrix(0.43, 0.00, -0.00, -0.43, 5.0, 36.0)"></image></g></g></g></g><g><clipPath id="clip-556"><path d="M 548.0 34.0 L 1019.0 34.0 L 1019.0 2.0 L 548.0 2.0 Z M 548.2 33.7 "></path></clipPath><g clip-path="url(#clip-556)"><g><clipPath id="clip-557"><path d="M 443.0 -70.0 L 1467.0 -70.0 L 1467.0 391.0 L 443.0 391.0 Z M 443.0 -70.0 "></path></clipPath><g clip-path="url(#clip-557)"><image xlink:href="../../F02C7FE5-7F36-4514-BB5D-D97307E17BEC/assets/89254EFDAE83B2B42F520AE5FE88786F.png" width="2372.00" height="1068.00" transform="matrix(0.43, 0.00, -0.00, -0.43, 443.0, 391.0)"></image></g></g></g></g></g></svg>