<?xml version="1.0" encoding="UTF-8" standalone="no"?><svg xmlns="http://www.w3.org/2000/svg" xmlns:xlink="http://www.w3.org/1999/xlink" clip-rule="evenodd" stroke-miterlimit="10" viewBox="0 0 897 126"><desc>SVG generated by Keynote</desc><defs></defs><g transform="matrix(1.00, 0.00, -0.00, -1.00, 0.0, 126.0)"><image xlink:href="../../9B7F44EA-AF0F-4580-91EC-2446027B510D/assets/6F6A599A13C4286E4AF893417590975A.png" width="830.00" height="62.00" transform="matrix(1.00, 0.00, -0.00, -1.00, 35.0, 125.0)"></image><text xml:space="preserve" font-family="HelveticaNeue-Bold,Helvetica Neue" font-weight="bold" font-size="58.2" fill="#FEFFFE" transform="matrix(1.00, 0.00, -0.00, -1.00, 35.6, 80.3)">H</text><text xml:space="preserve" font-family="HelveticaNeue-Bold,Helvetica Neue" font-weight="bold" font-size="58.2" fill="#FEFFFE" transform="matrix(1.00, 0.00, -0.00, -1.00, 78.7, 80.3)">C</text><text xml:space="preserve" font-family="HelveticaNeue-Bold,Helvetica Neue" font-weight="bold" font-size="58.2" fill="#FEFFFE" transform="matrix(1.00, 0.00, -0.00, -1.00, 121.9, 80.3)">T</text><text xml:space="preserve" font-family="HelveticaNeue-Bold,Helvetica Neue" font-weight="bold" font-size="58.2" fill="#FEFFFE" transform="matrix(1.00, 0.00, -0.00, -1.00, 150.0, 80.3)">-</text><text xml:space="preserve" font-family="HelveticaNeue-Bold,Helvetica Neue" font-weight="bold" font-size="58.2" fill="#FEFFFE" transform="matrix(1.00, 0.00, -0.00, -1.00, 173.7, 80.3)">C</text><text xml:space="preserve" font-family="HelveticaNeue-Bold,Helvetica Neue" font-weight="bold" font-size="58.2" fill="#FEFFFE" transform="matrix(1.00, 0.00, -0.00, -1.00, 216.8, 80.3)">I</text><text xml:space="preserve" font-family="HelveticaNeue-Bold,Helvetica Neue" font-weight="bold" font-size="58.2" fill="#FEFFFE" transform="matrix(1.00, 0.00, -0.00, -1.00, 234.0, 80.3)">:</text><text xml:space="preserve" font-family="HelveticaNeue-Bold,Helvetica Neue" font-weight="bold" font-size="58.2" fill="#FEFFFE" transform="matrix(1.00, 0.00, -0.00, -1.00, 250.2, 80.3)"> </text><text xml:space="preserve" font-family="HelveticaNeue-Bold,Helvetica Neue" font-weight="bold" font-size="58.2" fill="#FEFFFE" transform="matrix(1.00, 0.00, -0.00, -1.00, 266.4, 80.3)">n</text><text xml:space="preserve" font-family="HelveticaNeue-Bold,Helvetica Neue" font-weight="bold" font-size="58.2" fill="#FEFFFE" transform="matrix(1.00, 0.00, -0.00, -1.00, 300.9, 80.3)">o</text><text xml:space="preserve" font-family="HelveticaNeue-Bold,Helvetica Neue" font-weight="bold" font-size="58.2" fill="#FEFFFE" transform="matrix(1.00, 0.00, -0.00, -1.00, 336.5, 80.3)">n</text><text xml:space="preserve" font-family="HelveticaNeue-Bold,Helvetica Neue" font-weight="bold" font-size="58.2" fill="#FEFFFE" transform="matrix(1.00, 0.00, -0.00, -1.00, 371.0, 80.3)">-</text><text xml:space="preserve" font-family="HelveticaNeue-Bold,Helvetica Neue" font-weight="bold" font-size="58.2" fill="#FEFFFE" transform="matrix(1.00, 0.00, -0.00, -1.00, 394.7, 80.3)">r</text><text xml:space="preserve" font-family="HelveticaNeue-Bold,Helvetica Neue" font-weight="bold" font-size="58.2" fill="#FEFFFE" transform="matrix(1.00, 0.00, -0.00, -1.00, 416.3, 80.3)">e</text><text xml:space="preserve" font-family="HelveticaNeue-Bold,Helvetica Neue" font-weight="bold" font-size="58.2" fill="#FEFFFE" transform="matrix(1.00, 0.00, -0.00, -1.00, 449.8, 80.3)">l</text><text xml:space="preserve" font-family="HelveticaNeue-Bold,Helvetica Neue" font-weight="bold" font-size="58.2" fill="#FEFFFE" transform="matrix(1.00, 0.00, -0.00, -1.00, 464.8, 80.3)">a</text><text xml:space="preserve" font-family="HelveticaNeue-Bold,Helvetica Neue" font-weight="bold" font-size="58.2" fill="#FEFFFE" transform="matrix(1.00, 0.00, -0.00, -1.00, 498.2, 80.3)">p</text><text xml:space="preserve" font-family="HelveticaNeue-Bold,Helvetica Neue" font-weight="bold" font-size="58.2" fill="#FEFFFE" transform="matrix(1.00, 0.00, -0.00, -1.00, 533.8, 80.3)">s</text><text xml:space="preserve" font-family="HelveticaNeue-Bold,Helvetica Neue" font-weight="bold" font-size="58.2" fill="#FEFFFE" transform="matrix(1.00, 0.00, -0.00, -1.00, 565.1, 80.3)">e</text><text xml:space="preserve" font-family="HelveticaNeue-Bold,Helvetica Neue" font-weight="bold" font-size="58.2" fill="#FEFFFE" transform="matrix(1.00, 0.00, -0.00, -1.00, 598.5, 80.3)"> </text><text xml:space="preserve" font-family="HelveticaNeue-Bold,Helvetica Neue" font-weight="bold" font-size="58.2" fill="#FEFFFE" transform="matrix(1.00, 0.00, -0.00, -1.00, 614.7, 80.3)">m</text><text xml:space="preserve" font-family="HelveticaNeue-Bold,Helvetica Neue" font-weight="bold" font-size="58.2" fill="#FEFFFE" transform="matrix(1.00, 0.00, -0.00, -1.00, 667.5, 80.3)">o</text><text xml:space="preserve" font-family="HelveticaNeue-Bold,Helvetica Neue" font-weight="bold" font-size="58.2" fill="#FEFFFE" transform="matrix(1.00, 0.00, -0.00, -1.00, 703.1, 80.3)">r</text><text xml:space="preserve" font-family="HelveticaNeue-Bold,Helvetica Neue" font-weight="bold" font-size="58.2" fill="#FEFFFE" transform="matrix(1.00, 0.00, -0.00, -1.00, 725.7, 80.3)">t</text><text xml:space="preserve" font-family="HelveticaNeue-Bold,Helvetica Neue" font-weight="bold" font-size="58.2" fill="#FEFFFE" transform="matrix(1.00, 0.00, -0.00, -1.00, 746.2, 80.3)">a</text><text xml:space="preserve" font-family="HelveticaNeue-Bold,Helvetica Neue" font-weight="bold" font-size="58.2" fill="#FEFFFE" transform="matrix(1.00, 0.00, -0.00, -1.00, 779.6, 80.3)">l</text><text xml:space="preserve" font-family="HelveticaNeue-Bold,Helvetica Neue" font-weight="bold" font-size="58.2" fill="#FEFFFE" transform="matrix(1.00, 0.00, -0.00, -1.00, 794.7, 80.3)">i</text><text xml:space="preserve" font-family="HelveticaNeue-Bold,Helvetica Neue" font-weight="bold" font-size="58.2" fill="#FEFFFE" transform="matrix(1.00, 0.00, -0.00, -1.00, 809.7, 80.3)">t</text><text xml:space="preserve" font-family="HelveticaNeue-Bold,Helvetica Neue" font-weight="bold" font-size="58.2" fill="#FEFFFE" transform="matrix(1.00, 0.00, -0.00, -1.00, 830.2, 80.3)">y</text><text xml:space="preserve" font-family="HelveticaNeue-Bold,Helvetica Neue" font-weight="bold" font-size="58.2" fill="#FEFFFE" transform="matrix(1.00, 0.00, -0.00, -1.00, 860.4, 80.3)"> </text><image xlink:href="../../9B7F44EA-AF0F-4580-91EC-2446027B510D/assets/19F25F7130E705D2D801F08DE7568DC7.png" width="895.00" height="51.00" transform="matrix(1.00, 0.00, -0.00, -1.00, 1.0, 52.0)"></image><text xml:space="preserve" font-family="HelveticaNeue-Bold,Helvetica Neue" font-weight="bold" font-size="58.2" fill="#FEFFFE" transform="matrix(1.00, 0.00, -0.00, -1.00, 3.7, 8.3)">a</text><text xml:space="preserve" font-family="HelveticaNeue-Bold,Helvetica Neue" font-weight="bold" font-size="58.2" fill="#FEFFFE" transform="matrix(1.00, 0.00, -0.00, -1.00, 37.1, 8.3)">n</text><text xml:space="preserve" font-family="HelveticaNeue-Bold,Helvetica Neue" font-weight="bold" font-size="58.2" fill="#FEFFFE" transform="matrix(1.00, 0.00, -0.00, -1.00, 71.6, 8.3)">d</text><text xml:space="preserve" font-family="HelveticaNeue-Bold,Helvetica Neue" font-weight="bold" font-size="58.2" fill="#FEFFFE" transform="matrix(1.00, 0.00, -0.00, -1.00, 107.2, 8.3)"> </text><text xml:space="preserve" font-family="HelveticaNeue-Bold,Helvetica Neue" font-weight="bold" font-size="58.2" fill="#FEFFFE" transform="matrix(1.00, 0.00, -0.00, -1.00, 123.4, 8.3)">s</text><text xml:space="preserve" font-family="HelveticaNeue-Bold,Helvetica Neue" font-weight="bold" font-size="58.2" fill="#FEFFFE" transform="matrix(1.00, 0.00, -0.00, -1.00, 154.7, 8.3)">u</text><text xml:space="preserve" font-family="HelveticaNeue-Bold,Helvetica Neue" font-weight="bold" font-size="58.2" fill="#FEFFFE" transform="matrix(1.00, 0.00, -0.00, -1.00, 189.2, 8.3)">r</text><text xml:space="preserve" font-family="HelveticaNeue-Bold,Helvetica Neue" font-weight="bold" font-size="58.2" fill="#FEFFFE" transform="matrix(1.00, 0.00, -0.00, -1.00, 211.9, 8.3)">v</text><text xml:space="preserve" font-family="HelveticaNeue-Bold,Helvetica Neue" font-weight="bold" font-size="58.2" fill="#FEFFFE" transform="matrix(1.00, 0.00, -0.00, -1.00, 242.2, 8.3)">i</text><text xml:space="preserve" font-family="HelveticaNeue-Bold,Helvetica Neue" font-weight="bold" font-size="58.2" fill="#FEFFFE" transform="matrix(1.00, 0.00, -0.00, -1.00, 257.2, 8.3)">v</text><text xml:space="preserve" font-family="HelveticaNeue-Bold,Helvetica Neue" font-weight="bold" font-size="58.2" fill="#FEFFFE" transform="matrix(1.00, 0.00, -0.00, -1.00, 287.5, 8.3)">a</text><text xml:space="preserve" font-family="HelveticaNeue-Bold,Helvetica Neue" font-weight="bold" font-size="58.2" fill="#FEFFFE" transform="matrix(1.00, 0.00, -0.00, -1.00, 320.9, 8.3)">l</text><text xml:space="preserve" font-family="HelveticaNeue-Bold,Helvetica Neue" font-weight="bold" font-size="58.2" fill="#FEFFFE" transform="matrix(1.00, 0.00, -0.00, -1.00, 335.9, 8.3)"> </text><text xml:space="preserve" font-family="HelveticaNeue-Bold,Helvetica Neue" font-weight="bold" font-size="58.2" fill="#FEFFFE" transform="matrix(1.00, 0.00, -0.00, -1.00, 352.1, 8.3)">i</text><text xml:space="preserve" font-family="HelveticaNeue-Bold,Helvetica Neue" font-weight="bold" font-size="58.2" fill="#FEFFFE" transform="matrix(1.00, 0.00, -0.00, -1.00, 367.1, 8.3)">n</text><text xml:space="preserve" font-family="HelveticaNeue-Bold,Helvetica Neue" font-weight="bold" font-size="58.2" fill="#FEFFFE" transform="matrix(1.00, 0.00, -0.00, -1.00, 401.7, 8.3)"> </text><text xml:space="preserve" font-family="HelveticaNeue-Bold,Helvetica Neue" font-weight="bold" font-size="58.2" fill="#FEFFFE" transform="matrix(1.00, 0.00, -0.00, -1.00, 417.9, 8.3)">t</text><text xml:space="preserve" font-family="HelveticaNeue-Bold,Helvetica Neue" font-weight="bold" font-size="58.2" fill="#FEFFFE" transform="matrix(1.00, 0.00, -0.00, -1.00, 438.4, 8.3)">h</text><text xml:space="preserve" font-family="HelveticaNeue-Bold,Helvetica Neue" font-weight="bold" font-size="58.2" fill="#FEFFFE" transform="matrix(1.00, 0.00, -0.00, -1.00, 472.9, 8.3)">e</text><text xml:space="preserve" font-family="HelveticaNeue-Bold,Helvetica Neue" font-weight="bold" font-size="58.2" fill="#FEFFFE" transform="matrix(1.00, 0.00, -0.00, -1.00, 506.3, 8.3)"> </text><text xml:space="preserve" font-family="HelveticaNeue-Bold,Helvetica Neue" font-weight="bold" font-size="58.2" fill="#FEFFFE" transform="matrix(1.00, 0.00, -0.00, -1.00, 522.5, 8.3)">v</text><text xml:space="preserve" font-family="HelveticaNeue-Bold,Helvetica Neue" font-weight="bold" font-size="58.2" fill="#FEFFFE" transform="matrix(1.00, 0.00, -0.00, -1.00, 552.8, 8.3)">a</text><text xml:space="preserve" font-family="HelveticaNeue-Bold,Helvetica Neue" font-weight="bold" font-size="58.2" fill="#FEFFFE" transform="matrix(1.00, 0.00, -0.00, -1.00, 586.2, 8.3)">l</text><text xml:space="preserve" font-family="HelveticaNeue-Bold,Helvetica Neue" font-weight="bold" font-size="58.2" fill="#FEFFFE" transform="matrix(1.00, 0.00, -0.00, -1.00, 601.3, 8.3)">i</text><text xml:space="preserve" font-family="HelveticaNeue-Bold,Helvetica Neue" font-weight="bold" font-size="58.2" fill="#FEFFFE" transform="matrix(1.00, 0.00, -0.00, -1.00, 616.3, 8.3)">d</text><text xml:space="preserve" font-family="HelveticaNeue-Bold,Helvetica Neue" font-weight="bold" font-size="58.2" fill="#FEFFFE" transform="matrix(1.00, 0.00, -0.00, -1.00, 651.9, 8.3)">a</text><text xml:space="preserve" font-family="HelveticaNeue-Bold,Helvetica Neue" font-weight="bold" font-size="58.2" fill="#FEFFFE" transform="matrix(1.00, 0.00, -0.00, -1.00, 685.3, 8.3)">t</text><text xml:space="preserve" font-family="HelveticaNeue-Bold,Helvetica Neue" font-weight="bold" font-size="58.2" fill="#FEFFFE" transform="matrix(1.00, 0.00, -0.00, -1.00, 705.8, 8.3)">i</text><text xml:space="preserve" font-family="HelveticaNeue-Bold,Helvetica Neue" font-weight="bold" font-size="58.2" fill="#FEFFFE" transform="matrix(1.00, 0.00, -0.00, -1.00, 720.8, 8.3)">o</text><text xml:space="preserve" font-family="HelveticaNeue-Bold,Helvetica Neue" font-weight="bold" font-size="58.2" fill="#FEFFFE" transform="matrix(1.00, 0.00, -0.00, -1.00, 756.4, 8.3)">n</text><text xml:space="preserve" font-family="HelveticaNeue-Bold,Helvetica Neue" font-weight="bold" font-size="58.2" fill="#FEFFFE" transform="matrix(1.00, 0.00, -0.00, -1.00, 790.9, 8.3)"> </text><text xml:space="preserve" font-family="HelveticaNeue-Bold,Helvetica Neue" font-weight="bold" font-size="58.2" fill="#FEFFFE" transform="matrix(1.00, 0.00, -0.00, -1.00, 807.1, 8.3)">s</text><text xml:space="preserve" font-family="HelveticaNeue-Bold,Helvetica Neue" font-weight="bold" font-size="58.2" fill="#FEFFFE" transform="matrix(1.00, 0.00, -0.00, -1.00, 838.4, 8.3)">e</text><text xml:space="preserve" font-family="HelveticaNeue-Bold,Helvetica Neue" font-weight="bold" font-size="58.2" fill="#FEFFFE" transform="matrix(1.00, 0.00, -0.00, -1.00, 871.8, 8.3)">t</text></g></svg>