<?xml version="1.0" encoding="UTF-8" standalone="no"?><svg xmlns="http://www.w3.org/2000/svg" xmlns:xlink="http://www.w3.org/1999/xlink" clip-rule="evenodd" stroke-miterlimit="10" viewBox="0 0 1024 768"><desc>SVG generated by Keynote</desc><defs></defs><g transform="matrix(1.00, 0.00, -0.00, -1.00, 0.0, 768.0)"><g><clipPath id="clip0x6080014b38c0"><path d="M 0.0 768.0 L 1024.0 768.0 L 1024.0 0.0 L 0.0 0.0 Z M 0.0 768.0 "></path></clipPath><g clip-path="url(#clip0x6080014b38c0)"><image xlink:href="../../BE4D2DDB-FBE4-467E-AE38-B34F9028D09E/assets/9397CAD6F20342ACC2646ABBCA758461.jpeg" width="2048.00" height="1536.00" transform="matrix(0.50, 0.00, -0.00, -0.50, 0.0, 768.0)"></image></g></g><g><clipPath id="clip0x6080014b3bc0"><path d="M 0.0 529.0 L 1024.0 529.0 L 1024.0 141.0 L 0.0 141.0 Z M 0.0 528.7 "></path></clipPath><g clip-path="url(#clip0x6080014b3bc0)"><image xlink:href="../../9B7F44EA-AF0F-4580-91EC-2446027B510D/assets/AE890A775C70F6DB6FB182C36E5F6BBC.png" width="1816.00" height="684.00" transform="matrix(0.56, 0.00, -0.00, -0.56, 0.0, 523.0)"></image></g></g><image xlink:href="../../9B7F44EA-AF0F-4580-91EC-2446027B510D/assets/0BCA97BACB703141D135D58AB189A891.png" width="1026.00" height="406.00" transform="matrix(1.00, 0.00, -0.00, 1.00, -1.0, 132.4)"></image><image xlink:href="../../4EE5B31D-F2F6-4CD6-B36F-B266E4F8A23A/assets/F6D3440EC8D7D5105440BAED95A04741.png" width="310.00" height="94.00" transform="matrix(0.50, 0.00, -0.00, -0.50, 434.5, 556.7)"></image><image xlink:href="../../73B39F0A-5531-4B34-B55A-3F6E27DA0D70/assets/C2E5B2AB8C4A9C651F415B004DFE7C0E.png" width="971.00" height="31.00" transform="matrix(1.00, 0.00, -0.00, -1.00, 27.0, 102.0)"></image><text xml:space="preserve" font-family="HelveticaNeue-Medium,Helvetica Neue" font-size="24.0" fill="#EAEAEA" transform="matrix(1.00, 0.00, -0.00, -1.00, 30.7, 82.0)">S</text><text xml:space="preserve" font-family="HelveticaNeue-Medium,Helvetica Neue" font-size="24.0" fill="#EAEAEA" transform="matrix(1.00, 0.00, -0.00, -1.00, 46.3, 82.0)">o</text><text xml:space="preserve" font-family="HelveticaNeue-Medium,Helvetica Neue" font-size="24.0" fill="#EAEAEA" transform="matrix(1.00, 0.00, -0.00, -1.00, 60.5, 82.0)">r</text><text xml:space="preserve" font-family="HelveticaNeue-Medium,Helvetica Neue" font-size="24.0" fill="#EAEAEA" transform="matrix(1.00, 0.00, -0.00, -1.00, 68.9, 82.0)">r</text><text xml:space="preserve" font-family="HelveticaNeue-Medium,Helvetica Neue" font-size="24.0" fill="#EAEAEA" transform="matrix(1.00, 0.00, -0.00, -1.00, 77.0, 82.0)">o</text><text xml:space="preserve" font-family="HelveticaNeue-Medium,Helvetica Neue" font-size="24.0" fill="#EAEAEA" transform="matrix(1.00, 0.00, -0.00, -1.00, 91.2, 82.0)">r</text><text xml:space="preserve" font-family="HelveticaNeue-Medium,Helvetica Neue" font-size="24.0" fill="#EAEAEA" transform="matrix(1.00, 0.00, -0.00, -1.00, 99.6, 82.0)"> </text><text xml:space="preserve" font-family="HelveticaNeue-Medium,Helvetica Neue" font-size="24.0" fill="#EAEAEA" transform="matrix(1.00, 0.00, -0.00, -1.00, 106.3, 82.0)">M</text><text xml:space="preserve" font-family="HelveticaNeue-Medium,Helvetica Neue" font-size="24.0" fill="#EAEAEA" transform="matrix(1.00, 0.00, -0.00, -1.00, 127.6, 82.0)">L</text><text xml:space="preserve" font-family="HelveticaNeue-Medium,Helvetica Neue" font-size="24.0" fill="#EAEAEA" transform="matrix(1.00, 0.00, -0.00, -1.00, 141.4, 82.0)">,</text><text xml:space="preserve" font-family="HelveticaNeue-Medium,Helvetica Neue" font-size="24.0" fill="#EAEAEA" transform="matrix(1.00, 0.00, -0.00, -1.00, 148.1, 82.0)"> </text><text xml:space="preserve" font-family="HelveticaNeue-Medium,Helvetica Neue" font-size="24.0" fill="#EAEAEA" transform="matrix(1.00, 0.00, -0.00, -1.00, 154.8, 82.0)">e</text><text xml:space="preserve" font-family="HelveticaNeue-Medium,Helvetica Neue" font-size="24.0" fill="#EAEAEA" transform="matrix(1.00, 0.00, -0.00, -1.00, 168.1, 82.0)">t</text><text xml:space="preserve" font-family="HelveticaNeue-Medium,Helvetica Neue" font-size="24.0" fill="#EAEAEA" transform="matrix(1.00, 0.00, -0.00, -1.00, 176.1, 82.0)"> </text><text xml:space="preserve" font-family="HelveticaNeue-Medium,Helvetica Neue" font-size="24.0" fill="#EAEAEA" transform="matrix(1.00, 0.00, -0.00, -1.00, 182.8, 82.0)">a</text><text xml:space="preserve" font-family="HelveticaNeue-Medium,Helvetica Neue" font-size="24.0" fill="#EAEAEA" transform="matrix(1.00, 0.00, -0.00, -1.00, 196.1, 82.0)">l</text><text xml:space="preserve" font-family="HelveticaNeue-Medium,Helvetica Neue" font-size="24.0" fill="#EAEAEA" transform="matrix(1.00, 0.00, -0.00, -1.00, 201.9, 82.0)">.</text><text xml:space="preserve" font-family="HelveticaNeue-Medium,Helvetica Neue" font-size="24.0" fill="#EAEAEA" transform="matrix(1.00, 0.00, -0.00, -1.00, 208.6, 82.0)"> </text><text xml:space="preserve" font-family="HelveticaNeue-Medium,Helvetica Neue" font-size="24.0" fill="#EAEAEA" transform="matrix(1.00, 0.00, -0.00, -1.00, 215.2, 82.0)">H</text><text xml:space="preserve" font-family="HelveticaNeue-Medium,Helvetica Neue" font-size="24.0" fill="#EAEAEA" transform="matrix(1.00, 0.00, -0.00, -1.00, 232.6, 82.0)">e</text><text xml:space="preserve" font-family="HelveticaNeue-Medium,Helvetica Neue" font-size="24.0" fill="#EAEAEA" transform="matrix(1.00, 0.00, -0.00, -1.00, 245.9, 82.0)">m</text><text xml:space="preserve" font-family="HelveticaNeue-Medium,Helvetica Neue" font-size="24.0" fill="#EAEAEA" transform="matrix(1.00, 0.00, -0.00, -1.00, 266.8, 82.0)">a</text><text xml:space="preserve" font-family="HelveticaNeue-Medium,Helvetica Neue" font-size="24.0" fill="#EAEAEA" transform="matrix(1.00, 0.00, -0.00, -1.00, 280.1, 82.0)">t</text><text xml:space="preserve" font-family="HelveticaNeue-Medium,Helvetica Neue" font-size="24.0" fill="#EAEAEA" transform="matrix(1.00, 0.00, -0.00, -1.00, 288.1, 82.0)">o</text><text xml:space="preserve" font-family="HelveticaNeue-Medium,Helvetica Neue" font-size="24.0" fill="#EAEAEA" transform="matrix(1.00, 0.00, -0.00, -1.00, 302.4, 82.0)">p</text><text xml:space="preserve" font-family="HelveticaNeue-Medium,Helvetica Neue" font-size="24.0" fill="#EAEAEA" transform="matrix(1.00, 0.00, -0.00, -1.00, 317.0, 82.0)">o</text><text xml:space="preserve" font-family="HelveticaNeue-Medium,Helvetica Neue" font-size="24.0" fill="#EAEAEA" transform="matrix(1.00, 0.00, -0.00, -1.00, 331.3, 82.0)">i</text><text xml:space="preserve" font-family="HelveticaNeue-Medium,Helvetica Neue" font-size="24.0" fill="#EAEAEA" transform="matrix(1.00, 0.00, -0.00, -1.00, 337.0, 82.0)">e</text><text xml:space="preserve" font-family="HelveticaNeue-Medium,Helvetica Neue" font-size="24.0" fill="#EAEAEA" transform="matrix(1.00, 0.00, -0.00, -1.00, 350.4, 82.0)">t</text><text xml:space="preserve" font-family="HelveticaNeue-Medium,Helvetica Neue" font-size="24.0" fill="#EAEAEA" transform="matrix(1.00, 0.00, -0.00, -1.00, 358.4, 82.0)">i</text><text xml:space="preserve" font-family="HelveticaNeue-Medium,Helvetica Neue" font-size="24.0" fill="#EAEAEA" transform="matrix(1.00, 0.00, -0.00, -1.00, 364.2, 82.0)">c</text><text xml:space="preserve" font-family="HelveticaNeue-Medium,Helvetica Neue" font-size="24.0" fill="#EAEAEA" transform="matrix(1.00, 0.00, -0.00, -1.00, 377.5, 82.0)"> </text><text xml:space="preserve" font-family="HelveticaNeue-Medium,Helvetica Neue" font-size="24.0" fill="#EAEAEA" transform="matrix(1.00, 0.00, -0.00, -1.00, 384.2, 82.0)">c</text><text xml:space="preserve" font-family="HelveticaNeue-Medium,Helvetica Neue" font-size="24.0" fill="#EAEAEA" transform="matrix(1.00, 0.00, -0.00, -1.00, 397.5, 82.0)">e</text><text xml:space="preserve" font-family="HelveticaNeue-Medium,Helvetica Neue" font-size="24.0" fill="#EAEAEA" transform="matrix(1.00, 0.00, -0.00, -1.00, 410.9, 82.0)">l</text><text xml:space="preserve" font-family="HelveticaNeue-Medium,Helvetica Neue" font-size="24.0" fill="#EAEAEA" transform="matrix(1.00, 0.00, -0.00, -1.00, 416.6, 82.0)">l</text><text xml:space="preserve" font-family="HelveticaNeue-Medium,Helvetica Neue" font-size="24.0" fill="#EAEAEA" transform="matrix(1.00, 0.00, -0.00, -1.00, 422.4, 82.0)"> </text><text xml:space="preserve" font-family="HelveticaNeue-Medium,Helvetica Neue" font-size="24.0" fill="#EAEAEA" transform="matrix(1.00, 0.00, -0.00, -1.00, 429.1, 82.0)">t</text><text xml:space="preserve" font-family="HelveticaNeue-Medium,Helvetica Neue" font-size="24.0" fill="#EAEAEA" transform="matrix(1.00, 0.00, -0.00, -1.00, 437.1, 82.0)">r</text><text xml:space="preserve" font-family="HelveticaNeue-Medium,Helvetica Neue" font-size="24.0" fill="#EAEAEA" transform="matrix(1.00, 0.00, -0.00, -1.00, 445.5, 82.0)">a</text><text xml:space="preserve" font-family="HelveticaNeue-Medium,Helvetica Neue" font-size="24.0" fill="#EAEAEA" transform="matrix(1.00, 0.00, -0.00, -1.00, 458.9, 82.0)">n</text><text xml:space="preserve" font-family="HelveticaNeue-Medium,Helvetica Neue" font-size="24.0" fill="#EAEAEA" transform="matrix(1.00, 0.00, -0.00, -1.00, 472.7, 82.0)">s</text><text xml:space="preserve" font-family="HelveticaNeue-Medium,Helvetica Neue" font-size="24.0" fill="#EAEAEA" transform="matrix(1.00, 0.00, -0.00, -1.00, 485.1, 82.0)">p</text><text xml:space="preserve" font-family="HelveticaNeue-Medium,Helvetica Neue" font-size="24.0" fill="#EAEAEA" transform="matrix(1.00, 0.00, -0.00, -1.00, 499.8, 82.0)">l</text><text xml:space="preserve" font-family="HelveticaNeue-Medium,Helvetica Neue" font-size="24.0" fill="#EAEAEA" transform="matrix(1.00, 0.00, -0.00, -1.00, 505.6, 82.0)">a</text><text xml:space="preserve" font-family="HelveticaNeue-Medium,Helvetica Neue" font-size="24.0" fill="#EAEAEA" transform="matrix(1.00, 0.00, -0.00, -1.00, 518.9, 82.0)">n</text><text xml:space="preserve" font-family="HelveticaNeue-Medium,Helvetica Neue" font-size="24.0" fill="#EAEAEA" transform="matrix(1.00, 0.00, -0.00, -1.00, 532.7, 82.0)">t</text><text xml:space="preserve" font-family="HelveticaNeue-Medium,Helvetica Neue" font-size="24.0" fill="#EAEAEA" transform="matrix(1.00, 0.00, -0.00, -1.00, 540.7, 82.0)">a</text><text xml:space="preserve" font-family="HelveticaNeue-Medium,Helvetica Neue" font-size="24.0" fill="#EAEAEA" transform="matrix(1.00, 0.00, -0.00, -1.00, 554.0, 82.0)">t</text><text xml:space="preserve" font-family="HelveticaNeue-Medium,Helvetica Neue" font-size="24.0" fill="#EAEAEA" transform="matrix(1.00, 0.00, -0.00, -1.00, 562.0, 82.0)">i</text><text xml:space="preserve" font-family="HelveticaNeue-Medium,Helvetica Neue" font-size="24.0" fill="#EAEAEA" transform="matrix(1.00, 0.00, -0.00, -1.00, 567.8, 82.0)">o</text><text xml:space="preserve" font-family="HelveticaNeue-Medium,Helvetica Neue" font-size="24.0" fill="#EAEAEA" transform="matrix(1.00, 0.00, -0.00, -1.00, 582.0, 82.0)">n</text><text xml:space="preserve" font-family="HelveticaNeue-Medium,Helvetica Neue" font-size="24.0" fill="#EAEAEA" transform="matrix(1.00, 0.00, -0.00, -1.00, 595.8, 82.0)"> </text><text xml:space="preserve" font-family="HelveticaNeue-Medium,Helvetica Neue" font-size="24.0" fill="#EAEAEA" transform="matrix(1.00, 0.00, -0.00, -1.00, 602.5, 82.0)">(</text><text xml:space="preserve" font-family="HelveticaNeue-Medium,Helvetica Neue" font-size="24.0" fill="#EAEAEA" transform="matrix(1.00, 0.00, -0.00, -1.00, 609.2, 82.0)">H</text><text xml:space="preserve" font-family="HelveticaNeue-Medium,Helvetica Neue" font-size="24.0" fill="#EAEAEA" transform="matrix(1.00, 0.00, -0.00, -1.00, 626.5, 82.0)">C</text><text xml:space="preserve" font-family="HelveticaNeue-Medium,Helvetica Neue" font-size="24.0" fill="#EAEAEA" transform="matrix(1.00, 0.00, -0.00, -1.00, 643.8, 82.0)">T</text><text xml:space="preserve" font-family="HelveticaNeue-Medium,Helvetica Neue" font-size="24.0" fill="#EAEAEA" transform="matrix(1.00, 0.00, -0.00, -1.00, 658.0, 82.0)">)</text><text xml:space="preserve" font-family="HelveticaNeue-Medium,Helvetica Neue" font-size="24.0" fill="#EAEAEA" transform="matrix(1.00, 0.00, -0.00, -1.00, 664.7, 82.0)">-</text><text xml:space="preserve" font-family="HelveticaNeue-Medium,Helvetica Neue" font-size="24.0" fill="#EAEAEA" transform="matrix(1.00, 0.00, -0.00, -1.00, 674.0, 82.0)">s</text><text xml:space="preserve" font-family="HelveticaNeue-Medium,Helvetica Neue" font-size="24.0" fill="#EAEAEA" transform="matrix(1.00, 0.00, -0.00, -1.00, 686.5, 82.0)">p</text><text xml:space="preserve" font-family="HelveticaNeue-Medium,Helvetica Neue" font-size="24.0" fill="#EAEAEA" transform="matrix(1.00, 0.00, -0.00, -1.00, 701.2, 82.0)">e</text><text xml:space="preserve" font-family="HelveticaNeue-Medium,Helvetica Neue" font-size="24.0" fill="#EAEAEA" transform="matrix(1.00, 0.00, -0.00, -1.00, 714.5, 82.0)">c</text><text xml:space="preserve" font-family="HelveticaNeue-Medium,Helvetica Neue" font-size="24.0" fill="#EAEAEA" transform="matrix(1.00, 0.00, -0.00, -1.00, 727.9, 82.0)">i</text><text xml:space="preserve" font-family="HelveticaNeue-Medium,Helvetica Neue" font-size="24.0" fill="#EAEAEA" transform="matrix(1.00, 0.00, -0.00, -1.00, 733.6, 82.0)">ﬁ</text><text xml:space="preserve" font-family="HelveticaNeue-Medium,Helvetica Neue" font-size="24.0" fill="#EAEAEA" transform="matrix(1.00, 0.00, -0.00, -1.00, 747.0, 82.0)">c</text><text xml:space="preserve" font-family="HelveticaNeue-Medium,Helvetica Neue" font-size="24.0" fill="#EAEAEA" transform="matrix(1.00, 0.00, -0.00, -1.00, 760.3, 82.0)"> </text><text xml:space="preserve" font-family="HelveticaNeue-Medium,Helvetica Neue" font-size="24.0" fill="#EAEAEA" transform="matrix(1.00, 0.00, -0.00, -1.00, 767.0, 82.0)">c</text><text xml:space="preserve" font-family="HelveticaNeue-Medium,Helvetica Neue" font-size="24.0" fill="#EAEAEA" transform="matrix(1.00, 0.00, -0.00, -1.00, 780.3, 82.0)">o</text><text xml:space="preserve" font-family="HelveticaNeue-Medium,Helvetica Neue" font-size="24.0" fill="#EAEAEA" transform="matrix(1.00, 0.00, -0.00, -1.00, 794.6, 82.0)">m</text><text xml:space="preserve" font-family="HelveticaNeue-Medium,Helvetica Neue" font-size="24.0" fill="#EAEAEA" transform="matrix(1.00, 0.00, -0.00, -1.00, 815.5, 82.0)">o</text><text xml:space="preserve" font-family="HelveticaNeue-Medium,Helvetica Neue" font-size="24.0" fill="#EAEAEA" transform="matrix(1.00, 0.00, -0.00, -1.00, 829.7, 82.0)">r</text><text xml:space="preserve" font-family="HelveticaNeue-Medium,Helvetica Neue" font-size="24.0" fill="#EAEAEA" transform="matrix(1.00, 0.00, -0.00, -1.00, 838.1, 82.0)">b</text><text xml:space="preserve" font-family="HelveticaNeue-Medium,Helvetica Neue" font-size="24.0" fill="#EAEAEA" transform="matrix(1.00, 0.00, -0.00, -1.00, 852.8, 82.0)">i</text><text xml:space="preserve" font-family="HelveticaNeue-Medium,Helvetica Neue" font-size="24.0" fill="#EAEAEA" transform="matrix(1.00, 0.00, -0.00, -1.00, 858.6, 82.0)">d</text><text xml:space="preserve" font-family="HelveticaNeue-Medium,Helvetica Neue" font-size="24.0" fill="#EAEAEA" transform="matrix(1.00, 0.00, -0.00, -1.00, 873.2, 82.0)">i</text><text xml:space="preserve" font-family="HelveticaNeue-Medium,Helvetica Neue" font-size="24.0" fill="#EAEAEA" transform="matrix(1.00, 0.00, -0.00, -1.00, 879.0, 82.0)">t</text><text xml:space="preserve" font-family="HelveticaNeue-Medium,Helvetica Neue" font-size="24.0" fill="#EAEAEA" transform="matrix(1.00, 0.00, -0.00, -1.00, 887.0, 82.0)">y</text><text xml:space="preserve" font-family="HelveticaNeue-Medium,Helvetica Neue" font-size="24.0" fill="#EAEAEA" transform="matrix(1.00, 0.00, -0.00, -1.00, 899.5, 82.0)"> </text><text xml:space="preserve" font-family="HelveticaNeue-Medium,Helvetica Neue" font-size="24.0" fill="#EAEAEA" transform="matrix(1.00, 0.00, -0.00, -1.00, 906.2, 82.0)">i</text><text xml:space="preserve" font-family="HelveticaNeue-Medium,Helvetica Neue" font-size="24.0" fill="#EAEAEA" transform="matrix(1.00, 0.00, -0.00, -1.00, 911.9, 82.0)">n</text><text xml:space="preserve" font-family="HelveticaNeue-Medium,Helvetica Neue" font-size="24.0" fill="#EAEAEA" transform="matrix(1.00, 0.00, -0.00, -1.00, 925.7, 82.0)">d</text><text xml:space="preserve" font-family="HelveticaNeue-Medium,Helvetica Neue" font-size="24.0" fill="#EAEAEA" transform="matrix(1.00, 0.00, -0.00, -1.00, 940.4, 82.0)">e</text><text xml:space="preserve" font-family="HelveticaNeue-Medium,Helvetica Neue" font-size="24.0" fill="#EAEAEA" transform="matrix(1.00, 0.00, -0.00, -1.00, 953.7, 82.0)">x</text><text xml:space="preserve" font-family="HelveticaNeue-Medium,Helvetica Neue" font-size="24.0" fill="#EAEAEA" transform="matrix(1.00, 0.00, -0.00, -1.00, 966.6, 82.0)">:</text><text xml:space="preserve" font-family="HelveticaNeue-Medium,Helvetica Neue" font-size="24.0" fill="#EAEAEA" transform="matrix(1.00, 0.00, -0.00, -1.00, 973.3, 82.0)"> </text><text xml:space="preserve" font-family="HelveticaNeue-Medium,Helvetica Neue" font-size="24.0" fill="#EAEAEA" transform="matrix(1.00, 0.00, -0.00, -1.00, 980.0, 82.0)">a</text><text xml:space="preserve" font-family="HelveticaNeue-Medium,Helvetica Neue" font-size="24.0" fill="#EAEAEA" transform="matrix(1.00, 0.00, -0.00, -1.00, 993.3, 82.0)"> </text><image xlink:href="../../73B39F0A-5531-4B34-B55A-3F6E27DA0D70/assets/B2EBB5040383BF0E325CEE3AE957355D.png" width="964.00" height="31.00" transform="matrix(1.00, 0.00, -0.00, -1.00, 30.0, 73.0)"></image><text xml:space="preserve" font-family="HelveticaNeue-Medium,Helvetica Neue" font-size="24.0" fill="#EAEAEA" transform="matrix(1.00, 0.00, -0.00, -1.00, 32.8, 53.0)">n</text><text xml:space="preserve" font-family="HelveticaNeue-Medium,Helvetica Neue" font-size="24.0" fill="#EAEAEA" transform="matrix(1.00, 0.00, -0.00, -1.00, 46.6, 53.0)">e</text><text xml:space="preserve" font-family="HelveticaNeue-Medium,Helvetica Neue" font-size="24.0" fill="#EAEAEA" transform="matrix(1.00, 0.00, -0.00, -1.00, 59.9, 53.0)">w</text><text xml:space="preserve" font-family="HelveticaNeue-Medium,Helvetica Neue" font-size="24.0" fill="#EAEAEA" transform="matrix(1.00, 0.00, -0.00, -1.00, 78.6, 53.0)"> </text><text xml:space="preserve" font-family="HelveticaNeue-Medium,Helvetica Neue" font-size="24.0" fill="#EAEAEA" transform="matrix(1.00, 0.00, -0.00, -1.00, 85.3, 53.0)">t</text><text xml:space="preserve" font-family="HelveticaNeue-Medium,Helvetica Neue" font-size="24.0" fill="#EAEAEA" transform="matrix(1.00, 0.00, -0.00, -1.00, 93.3, 53.0)">o</text><text xml:space="preserve" font-family="HelveticaNeue-Medium,Helvetica Neue" font-size="24.0" fill="#EAEAEA" transform="matrix(1.00, 0.00, -0.00, -1.00, 107.5, 53.0)">o</text><text xml:space="preserve" font-family="HelveticaNeue-Medium,Helvetica Neue" font-size="24.0" fill="#EAEAEA" transform="matrix(1.00, 0.00, -0.00, -1.00, 121.7, 53.0)">l</text><text xml:space="preserve" font-family="HelveticaNeue-Medium,Helvetica Neue" font-size="24.0" fill="#EAEAEA" transform="matrix(1.00, 0.00, -0.00, -1.00, 127.5, 53.0)"> </text><text xml:space="preserve" font-family="HelveticaNeue-Medium,Helvetica Neue" font-size="24.0" fill="#EAEAEA" transform="matrix(1.00, 0.00, -0.00, -1.00, 134.2, 53.0)">f</text><text xml:space="preserve" font-family="HelveticaNeue-Medium,Helvetica Neue" font-size="24.0" fill="#EAEAEA" transform="matrix(1.00, 0.00, -0.00, -1.00, 141.8, 53.0)">o</text><text xml:space="preserve" font-family="HelveticaNeue-Medium,Helvetica Neue" font-size="24.0" fill="#EAEAEA" transform="matrix(1.00, 0.00, -0.00, -1.00, 156.0, 53.0)">r</text><text xml:space="preserve" font-family="HelveticaNeue-Medium,Helvetica Neue" font-size="24.0" fill="#EAEAEA" transform="matrix(1.00, 0.00, -0.00, -1.00, 164.4, 53.0)"> </text><text xml:space="preserve" font-family="HelveticaNeue-Medium,Helvetica Neue" font-size="24.0" fill="#EAEAEA" transform="matrix(1.00, 0.00, -0.00, -1.00, 171.1, 53.0)">r</text><text xml:space="preserve" font-family="HelveticaNeue-Medium,Helvetica Neue" font-size="24.0" fill="#EAEAEA" transform="matrix(1.00, 0.00, -0.00, -1.00, 179.6, 53.0)">i</text><text xml:space="preserve" font-family="HelveticaNeue-Medium,Helvetica Neue" font-size="24.0" fill="#EAEAEA" transform="matrix(1.00, 0.00, -0.00, -1.00, 185.3, 53.0)">s</text><text xml:space="preserve" font-family="HelveticaNeue-Medium,Helvetica Neue" font-size="24.0" fill="#EAEAEA" transform="matrix(1.00, 0.00, -0.00, -1.00, 197.8, 53.0)">k</text><text xml:space="preserve" font-family="HelveticaNeue-Medium,Helvetica Neue" font-size="24.0" fill="#EAEAEA" transform="matrix(1.00, 0.00, -0.00, -1.00, 210.7, 53.0)"> </text><text xml:space="preserve" font-family="HelveticaNeue-Medium,Helvetica Neue" font-size="24.0" fill="#EAEAEA" transform="matrix(1.00, 0.00, -0.00, -1.00, 217.4, 53.0)">a</text><text xml:space="preserve" font-family="HelveticaNeue-Medium,Helvetica Neue" font-size="24.0" fill="#EAEAEA" transform="matrix(1.00, 0.00, -0.00, -1.00, 230.7, 53.0)">s</text><text xml:space="preserve" font-family="HelveticaNeue-Medium,Helvetica Neue" font-size="24.0" fill="#EAEAEA" transform="matrix(1.00, 0.00, -0.00, -1.00, 243.2, 53.0)">s</text><text xml:space="preserve" font-family="HelveticaNeue-Medium,Helvetica Neue" font-size="24.0" fill="#EAEAEA" transform="matrix(1.00, 0.00, -0.00, -1.00, 255.6, 53.0)">e</text><text xml:space="preserve" font-family="HelveticaNeue-Medium,Helvetica Neue" font-size="24.0" fill="#EAEAEA" transform="matrix(1.00, 0.00, -0.00, -1.00, 269.0, 53.0)">s</text><text xml:space="preserve" font-family="HelveticaNeue-Medium,Helvetica Neue" font-size="24.0" fill="#EAEAEA" transform="matrix(1.00, 0.00, -0.00, -1.00, 281.4, 53.0)">s</text><text xml:space="preserve" font-family="HelveticaNeue-Medium,Helvetica Neue" font-size="24.0" fill="#EAEAEA" transform="matrix(1.00, 0.00, -0.00, -1.00, 293.9, 53.0)">m</text><text xml:space="preserve" font-family="HelveticaNeue-Medium,Helvetica Neue" font-size="24.0" fill="#EAEAEA" transform="matrix(1.00, 0.00, -0.00, -1.00, 314.8, 53.0)">e</text><text xml:space="preserve" font-family="HelveticaNeue-Medium,Helvetica Neue" font-size="24.0" fill="#EAEAEA" transform="matrix(1.00, 0.00, -0.00, -1.00, 328.1, 53.0)">n</text><text xml:space="preserve" font-family="HelveticaNeue-Medium,Helvetica Neue" font-size="24.0" fill="#EAEAEA" transform="matrix(1.00, 0.00, -0.00, -1.00, 341.9, 53.0)">t</text><text xml:space="preserve" font-family="HelveticaNeue-Medium,Helvetica Neue" font-size="24.0" fill="#EAEAEA" transform="matrix(1.00, 0.00, -0.00, -1.00, 349.9, 53.0)"> </text><text xml:space="preserve" font-family="HelveticaNeue-Medium,Helvetica Neue" font-size="24.0" fill="#EAEAEA" transform="matrix(1.00, 0.00, -0.00, -1.00, 356.5, 53.0)">b</text><text xml:space="preserve" font-family="HelveticaNeue-Medium,Helvetica Neue" font-size="24.0" fill="#EAEAEA" transform="matrix(1.00, 0.00, -0.00, -1.00, 371.2, 53.0)">e</text><text xml:space="preserve" font-family="HelveticaNeue-Medium,Helvetica Neue" font-size="24.0" fill="#EAEAEA" transform="matrix(1.00, 0.00, -0.00, -1.00, 384.5, 53.0)">f</text><text xml:space="preserve" font-family="HelveticaNeue-Medium,Helvetica Neue" font-size="24.0" fill="#EAEAEA" transform="matrix(1.00, 0.00, -0.00, -1.00, 392.1, 53.0)">o</text><text xml:space="preserve" font-family="HelveticaNeue-Medium,Helvetica Neue" font-size="24.0" fill="#EAEAEA" transform="matrix(1.00, 0.00, -0.00, -1.00, 406.3, 53.0)">r</text><text xml:space="preserve" font-family="HelveticaNeue-Medium,Helvetica Neue" font-size="24.0" fill="#EAEAEA" transform="matrix(1.00, 0.00, -0.00, -1.00, 414.4, 53.0)">e</text><text xml:space="preserve" font-family="HelveticaNeue-Medium,Helvetica Neue" font-size="24.0" fill="#EAEAEA" transform="matrix(1.00, 0.00, -0.00, -1.00, 427.7, 53.0)"> </text><text xml:space="preserve" font-family="HelveticaNeue-Medium,Helvetica Neue" font-size="24.0" fill="#EAEAEA" transform="matrix(1.00, 0.00, -0.00, -1.00, 434.4, 53.0)">a</text><text xml:space="preserve" font-family="HelveticaNeue-Medium,Helvetica Neue" font-size="24.0" fill="#EAEAEA" transform="matrix(1.00, 0.00, -0.00, -1.00, 447.7, 53.0)">l</text><text xml:space="preserve" font-family="HelveticaNeue-Medium,Helvetica Neue" font-size="24.0" fill="#EAEAEA" transform="matrix(1.00, 0.00, -0.00, -1.00, 453.5, 53.0)">l</text><text xml:space="preserve" font-family="HelveticaNeue-Medium,Helvetica Neue" font-size="24.0" fill="#EAEAEA" transform="matrix(1.00, 0.00, -0.00, -1.00, 459.3, 53.0)">o</text><text xml:space="preserve" font-family="HelveticaNeue-Medium,Helvetica Neue" font-size="24.0" fill="#EAEAEA" transform="matrix(1.00, 0.00, -0.00, -1.00, 473.5, 53.0)">g</text><text xml:space="preserve" font-family="HelveticaNeue-Medium,Helvetica Neue" font-size="24.0" fill="#EAEAEA" transform="matrix(1.00, 0.00, -0.00, -1.00, 487.7, 53.0)">e</text><text xml:space="preserve" font-family="HelveticaNeue-Medium,Helvetica Neue" font-size="24.0" fill="#EAEAEA" transform="matrix(1.00, 0.00, -0.00, -1.00, 501.1, 53.0)">n</text><text xml:space="preserve" font-family="HelveticaNeue-Medium,Helvetica Neue" font-size="24.0" fill="#EAEAEA" transform="matrix(1.00, 0.00, -0.00, -1.00, 514.9, 53.0)">e</text><text xml:space="preserve" font-family="HelveticaNeue-Medium,Helvetica Neue" font-size="24.0" fill="#EAEAEA" transform="matrix(1.00, 0.00, -0.00, -1.00, 528.2, 53.0)">i</text><text xml:space="preserve" font-family="HelveticaNeue-Medium,Helvetica Neue" font-size="24.0" fill="#EAEAEA" transform="matrix(1.00, 0.00, -0.00, -1.00, 534.0, 53.0)">c</text><text xml:space="preserve" font-family="HelveticaNeue-Medium,Helvetica Neue" font-size="24.0" fill="#EAEAEA" transform="matrix(1.00, 0.00, -0.00, -1.00, 547.3, 53.0)"> </text><text xml:space="preserve" font-family="HelveticaNeue-Medium,Helvetica Neue" font-size="24.0" fill="#EAEAEA" transform="matrix(1.00, 0.00, -0.00, -1.00, 554.0, 53.0)">H</text><text xml:space="preserve" font-family="HelveticaNeue-Medium,Helvetica Neue" font-size="24.0" fill="#EAEAEA" transform="matrix(1.00, 0.00, -0.00, -1.00, 571.3, 53.0)">C</text><text xml:space="preserve" font-family="HelveticaNeue-Medium,Helvetica Neue" font-size="24.0" fill="#EAEAEA" transform="matrix(1.00, 0.00, -0.00, -1.00, 588.7, 53.0)">T</text><text xml:space="preserve" font-family="HelveticaNeue-Medium,Helvetica Neue" font-size="24.0" fill="#EAEAEA" transform="matrix(1.00, 0.00, -0.00, -1.00, 600.2, 53.0)">.</text><text xml:space="preserve" font-family="HelveticaNeue-Medium,Helvetica Neue" font-size="24.0" fill="#EAEAEA" transform="matrix(1.00, 0.00, -0.00, -1.00, 606.9, 53.0)"> </text><text xml:space="preserve" font-family="HelveticaNeue-Medium,Helvetica Neue" font-size="24.0" fill="#EAEAEA" transform="matrix(1.00, 0.00, -0.00, -1.00, 613.6, 53.0)">B</text><text xml:space="preserve" font-family="HelveticaNeue-Medium,Helvetica Neue" font-size="24.0" fill="#EAEAEA" transform="matrix(1.00, 0.00, -0.00, -1.00, 630.5, 53.0)">l</text><text xml:space="preserve" font-family="HelveticaNeue-Medium,Helvetica Neue" font-size="24.0" fill="#EAEAEA" transform="matrix(1.00, 0.00, -0.00, -1.00, 636.3, 53.0)">o</text><text xml:space="preserve" font-family="HelveticaNeue-Medium,Helvetica Neue" font-size="24.0" fill="#EAEAEA" transform="matrix(1.00, 0.00, -0.00, -1.00, 650.5, 53.0)">o</text><text xml:space="preserve" font-family="HelveticaNeue-Medium,Helvetica Neue" font-size="24.0" fill="#EAEAEA" transform="matrix(1.00, 0.00, -0.00, -1.00, 664.7, 53.0)">d</text><text xml:space="preserve" font-family="HelveticaNeue-Medium,Helvetica Neue" font-size="24.0" fill="#EAEAEA" transform="matrix(1.00, 0.00, -0.00, -1.00, 679.4, 53.0)">.</text><text xml:space="preserve" font-family="HelveticaNeue-Medium,Helvetica Neue" font-size="24.0" fill="#EAEAEA" transform="matrix(1.00, 0.00, -0.00, -1.00, 686.1, 53.0)"> </text><text xml:space="preserve" font-family="HelveticaNeue-Medium,Helvetica Neue" font-size="24.0" fill="#EAEAEA" transform="matrix(1.00, 0.00, -0.00, -1.00, 692.7, 53.0)">2</text><text xml:space="preserve" font-family="HelveticaNeue-Medium,Helvetica Neue" font-size="24.0" fill="#EAEAEA" transform="matrix(1.00, 0.00, -0.00, -1.00, 706.1, 53.0)">0</text><text xml:space="preserve" font-family="HelveticaNeue-Medium,Helvetica Neue" font-size="24.0" fill="#EAEAEA" transform="matrix(1.00, 0.00, -0.00, -1.00, 719.4, 53.0)">0</text><text xml:space="preserve" font-family="HelveticaNeue-Medium,Helvetica Neue" font-size="24.0" fill="#EAEAEA" transform="matrix(1.00, 0.00, -0.00, -1.00, 732.8, 53.0)">5</text><text xml:space="preserve" font-family="HelveticaNeue-Medium,Helvetica Neue" font-size="24.0" fill="#EAEAEA" transform="matrix(1.00, 0.00, -0.00, -1.00, 746.1, 53.0)"> </text><text xml:space="preserve" font-family="HelveticaNeue-Medium,Helvetica Neue" font-size="24.0" fill="#EAEAEA" transform="matrix(1.00, 0.00, -0.00, -1.00, 752.8, 53.0)">O</text><text xml:space="preserve" font-family="HelveticaNeue-Medium,Helvetica Neue" font-size="24.0" fill="#EAEAEA" transform="matrix(1.00, 0.00, -0.00, -1.00, 771.0, 53.0)">c</text><text xml:space="preserve" font-family="HelveticaNeue-Medium,Helvetica Neue" font-size="24.0" fill="#EAEAEA" transform="matrix(1.00, 0.00, -0.00, -1.00, 784.4, 53.0)">t</text><text xml:space="preserve" font-family="HelveticaNeue-Medium,Helvetica Neue" font-size="24.0" fill="#EAEAEA" transform="matrix(1.00, 0.00, -0.00, -1.00, 792.4, 53.0)"> </text><text xml:space="preserve" font-family="HelveticaNeue-Medium,Helvetica Neue" font-size="24.0" fill="#EAEAEA" transform="matrix(1.00, 0.00, -0.00, -1.00, 799.0, 53.0)">1</text><text xml:space="preserve" font-family="HelveticaNeue-Medium,Helvetica Neue" font-size="24.0" fill="#EAEAEA" transform="matrix(1.00, 0.00, -0.00, -1.00, 812.4, 53.0)">5</text><text xml:space="preserve" font-family="HelveticaNeue-Medium,Helvetica Neue" font-size="24.0" fill="#EAEAEA" transform="matrix(1.00, 0.00, -0.00, -1.00, 825.7, 53.0)">;</text><text xml:space="preserve" font-family="HelveticaNeue-Medium,Helvetica Neue" font-size="24.0" fill="#EAEAEA" transform="matrix(1.00, 0.00, -0.00, -1.00, 832.4, 53.0)">1</text><text xml:space="preserve" font-family="HelveticaNeue-Medium,Helvetica Neue" font-size="24.0" fill="#EAEAEA" transform="matrix(1.00, 0.00, -0.00, -1.00, 845.7, 53.0)">0</text><text xml:space="preserve" font-family="HelveticaNeue-Medium,Helvetica Neue" font-size="24.0" fill="#EAEAEA" transform="matrix(1.00, 0.00, -0.00, -1.00, 859.1, 53.0)">6</text><text xml:space="preserve" font-family="HelveticaNeue-Medium,Helvetica Neue" font-size="24.0" fill="#EAEAEA" transform="matrix(1.00, 0.00, -0.00, -1.00, 872.4, 53.0)">(</text><text xml:space="preserve" font-family="HelveticaNeue-Medium,Helvetica Neue" font-size="24.0" fill="#EAEAEA" transform="matrix(1.00, 0.00, -0.00, -1.00, 879.1, 53.0)">8</text><text xml:space="preserve" font-family="HelveticaNeue-Medium,Helvetica Neue" font-size="24.0" fill="#EAEAEA" transform="matrix(1.00, 0.00, -0.00, -1.00, 892.4, 53.0)">)</text><text xml:space="preserve" font-family="HelveticaNeue-Medium,Helvetica Neue" font-size="24.0" fill="#EAEAEA" transform="matrix(1.00, 0.00, -0.00, -1.00, 899.1, 53.0)">:</text><text xml:space="preserve" font-family="HelveticaNeue-Medium,Helvetica Neue" font-size="24.0" fill="#EAEAEA" transform="matrix(1.00, 0.00, -0.00, -1.00, 905.8, 53.0)">2</text><text xml:space="preserve" font-family="HelveticaNeue-Medium,Helvetica Neue" font-size="24.0" fill="#EAEAEA" transform="matrix(1.00, 0.00, -0.00, -1.00, 919.1, 53.0)">9</text><text xml:space="preserve" font-family="HelveticaNeue-Medium,Helvetica Neue" font-size="24.0" fill="#EAEAEA" transform="matrix(1.00, 0.00, -0.00, -1.00, 932.5, 53.0)">1</text><text xml:space="preserve" font-family="HelveticaNeue-Medium,Helvetica Neue" font-size="24.0" fill="#EAEAEA" transform="matrix(1.00, 0.00, -0.00, -1.00, 945.8, 53.0)">2</text><text xml:space="preserve" font-family="HelveticaNeue-Medium,Helvetica Neue" font-size="24.0" fill="#EAEAEA" transform="matrix(1.00, 0.00, -0.00, -1.00, 959.2, 53.0)">–</text><text xml:space="preserve" font-family="HelveticaNeue-Medium,Helvetica Neue" font-size="24.0" fill="#EAEAEA" transform="matrix(1.00, 0.00, -0.00, -1.00, 971.2, 53.0)">9</text><text xml:space="preserve" font-family="HelveticaNeue-Medium,Helvetica Neue" font-size="24.0" fill="#EAEAEA" transform="matrix(1.00, 0.00, -0.00, -1.00, 984.5, 53.0)">.</text><image xlink:href="../../9B7F44EA-AF0F-4580-91EC-2446027B510D/assets/6F6A599A13C4286E4AF893417590975A.png" width="830.00" height="62.00" transform="matrix(1.00, 0.00, -0.00, -1.00, 99.0, 723.0)"></image><text xml:space="preserve" font-family="HelveticaNeue-Bold,Helvetica Neue" font-weight="bold" font-size="58.2" fill="#FEFFFE" transform="matrix(1.00, 0.00, -0.00, -1.00, 99.6, 678.3)">H</text><text xml:space="preserve" font-family="HelveticaNeue-Bold,Helvetica Neue" font-weight="bold" font-size="58.2" fill="#FEFFFE" transform="matrix(1.00, 0.00, -0.00, -1.00, 142.7, 678.3)">C</text><text xml:space="preserve" font-family="HelveticaNeue-Bold,Helvetica Neue" font-weight="bold" font-size="58.2" fill="#FEFFFE" transform="matrix(1.00, 0.00, -0.00, -1.00, 185.9, 678.3)">T</text><text xml:space="preserve" font-family="HelveticaNeue-Bold,Helvetica Neue" font-weight="bold" font-size="58.2" fill="#FEFFFE" transform="matrix(1.00, 0.00, -0.00, -1.00, 214.0, 678.3)">-</text><text xml:space="preserve" font-family="HelveticaNeue-Bold,Helvetica Neue" font-weight="bold" font-size="58.2" fill="#FEFFFE" transform="matrix(1.00, 0.00, -0.00, -1.00, 237.7, 678.3)">C</text><text xml:space="preserve" font-family="HelveticaNeue-Bold,Helvetica Neue" font-weight="bold" font-size="58.2" fill="#FEFFFE" transform="matrix(1.00, 0.00, -0.00, -1.00, 280.8, 678.3)">I</text><text xml:space="preserve" font-family="HelveticaNeue-Bold,Helvetica Neue" font-weight="bold" font-size="58.2" fill="#FEFFFE" transform="matrix(1.00, 0.00, -0.00, -1.00, 298.0, 678.3)">:</text><text xml:space="preserve" font-family="HelveticaNeue-Bold,Helvetica Neue" font-weight="bold" font-size="58.2" fill="#FEFFFE" transform="matrix(1.00, 0.00, -0.00, -1.00, 314.2, 678.3)"> </text><text xml:space="preserve" font-family="HelveticaNeue-Bold,Helvetica Neue" font-weight="bold" font-size="58.2" fill="#FEFFFE" transform="matrix(1.00, 0.00, -0.00, -1.00, 330.4, 678.3)">n</text><text xml:space="preserve" font-family="HelveticaNeue-Bold,Helvetica Neue" font-weight="bold" font-size="58.2" fill="#FEFFFE" transform="matrix(1.00, 0.00, -0.00, -1.00, 364.9, 678.3)">o</text><text xml:space="preserve" font-family="HelveticaNeue-Bold,Helvetica Neue" font-weight="bold" font-size="58.2" fill="#FEFFFE" transform="matrix(1.00, 0.00, -0.00, -1.00, 400.5, 678.3)">n</text><text xml:space="preserve" font-family="HelveticaNeue-Bold,Helvetica Neue" font-weight="bold" font-size="58.2" fill="#FEFFFE" transform="matrix(1.00, 0.00, -0.00, -1.00, 435.0, 678.3)">-</text><text xml:space="preserve" font-family="HelveticaNeue-Bold,Helvetica Neue" font-weight="bold" font-size="58.2" fill="#FEFFFE" transform="matrix(1.00, 0.00, -0.00, -1.00, 458.7, 678.3)">r</text><text xml:space="preserve" font-family="HelveticaNeue-Bold,Helvetica Neue" font-weight="bold" font-size="58.2" fill="#FEFFFE" transform="matrix(1.00, 0.00, -0.00, -1.00, 480.3, 678.3)">e</text><text xml:space="preserve" font-family="HelveticaNeue-Bold,Helvetica Neue" font-weight="bold" font-size="58.2" fill="#FEFFFE" transform="matrix(1.00, 0.00, -0.00, -1.00, 513.8, 678.3)">l</text><text xml:space="preserve" font-family="HelveticaNeue-Bold,Helvetica Neue" font-weight="bold" font-size="58.2" fill="#FEFFFE" transform="matrix(1.00, 0.00, -0.00, -1.00, 528.8, 678.3)">a</text><text xml:space="preserve" font-family="HelveticaNeue-Bold,Helvetica Neue" font-weight="bold" font-size="58.2" fill="#FEFFFE" transform="matrix(1.00, 0.00, -0.00, -1.00, 562.2, 678.3)">p</text><text xml:space="preserve" font-family="HelveticaNeue-Bold,Helvetica Neue" font-weight="bold" font-size="58.2" fill="#FEFFFE" transform="matrix(1.00, 0.00, -0.00, -1.00, 597.8, 678.3)">s</text><text xml:space="preserve" font-family="HelveticaNeue-Bold,Helvetica Neue" font-weight="bold" font-size="58.2" fill="#FEFFFE" transform="matrix(1.00, 0.00, -0.00, -1.00, 629.1, 678.3)">e</text><text xml:space="preserve" font-family="HelveticaNeue-Bold,Helvetica Neue" font-weight="bold" font-size="58.2" fill="#FEFFFE" transform="matrix(1.00, 0.00, -0.00, -1.00, 662.5, 678.3)"> </text><text xml:space="preserve" font-family="HelveticaNeue-Bold,Helvetica Neue" font-weight="bold" font-size="58.2" fill="#FEFFFE" transform="matrix(1.00, 0.00, -0.00, -1.00, 678.7, 678.3)">m</text><text xml:space="preserve" font-family="HelveticaNeue-Bold,Helvetica Neue" font-weight="bold" font-size="58.2" fill="#FEFFFE" transform="matrix(1.00, 0.00, -0.00, -1.00, 731.5, 678.3)">o</text><text xml:space="preserve" font-family="HelveticaNeue-Bold,Helvetica Neue" font-weight="bold" font-size="58.2" fill="#FEFFFE" transform="matrix(1.00, 0.00, -0.00, -1.00, 767.1, 678.3)">r</text><text xml:space="preserve" font-family="HelveticaNeue-Bold,Helvetica Neue" font-weight="bold" font-size="58.2" fill="#FEFFFE" transform="matrix(1.00, 0.00, -0.00, -1.00, 789.7, 678.3)">t</text><text xml:space="preserve" font-family="HelveticaNeue-Bold,Helvetica Neue" font-weight="bold" font-size="58.2" fill="#FEFFFE" transform="matrix(1.00, 0.00, -0.00, -1.00, 810.2, 678.3)">a</text><text xml:space="preserve" font-family="HelveticaNeue-Bold,Helvetica Neue" font-weight="bold" font-size="58.2" fill="#FEFFFE" transform="matrix(1.00, 0.00, -0.00, -1.00, 843.6, 678.3)">l</text><text xml:space="preserve" font-family="HelveticaNeue-Bold,Helvetica Neue" font-weight="bold" font-size="58.2" fill="#FEFFFE" transform="matrix(1.00, 0.00, -0.00, -1.00, 858.7, 678.3)">i</text><text xml:space="preserve" font-family="HelveticaNeue-Bold,Helvetica Neue" font-weight="bold" font-size="58.2" fill="#FEFFFE" transform="matrix(1.00, 0.00, -0.00, -1.00, 873.7, 678.3)">t</text><text xml:space="preserve" font-family="HelveticaNeue-Bold,Helvetica Neue" font-weight="bold" font-size="58.2" fill="#FEFFFE" transform="matrix(1.00, 0.00, -0.00, -1.00, 894.2, 678.3)">y</text><text xml:space="preserve" font-family="HelveticaNeue-Bold,Helvetica Neue" font-weight="bold" font-size="58.2" fill="#FEFFFE" transform="matrix(1.00, 0.00, -0.00, -1.00, 924.4, 678.3)"> </text><image xlink:href="../../9B7F44EA-AF0F-4580-91EC-2446027B510D/assets/19F25F7130E705D2D801F08DE7568DC7.png" width="895.00" height="51.00" transform="matrix(1.00, 0.00, -0.00, -1.00, 65.0, 650.0)"></image><text xml:space="preserve" font-family="HelveticaNeue-Bold,Helvetica Neue" font-weight="bold" font-size="58.2" fill="#FEFFFE" transform="matrix(1.00, 0.00, -0.00, -1.00, 67.7, 606.3)">a</text><text xml:space="preserve" font-family="HelveticaNeue-Bold,Helvetica Neue" font-weight="bold" font-size="58.2" fill="#FEFFFE" transform="matrix(1.00, 0.00, -0.00, -1.00, 101.1, 606.3)">n</text><text xml:space="preserve" font-family="HelveticaNeue-Bold,Helvetica Neue" font-weight="bold" font-size="58.2" fill="#FEFFFE" transform="matrix(1.00, 0.00, -0.00, -1.00, 135.6, 606.3)">d</text><text xml:space="preserve" font-family="HelveticaNeue-Bold,Helvetica Neue" font-weight="bold" font-size="58.2" fill="#FEFFFE" transform="matrix(1.00, 0.00, -0.00, -1.00, 171.2, 606.3)"> </text><text xml:space="preserve" font-family="HelveticaNeue-Bold,Helvetica Neue" font-weight="bold" font-size="58.2" fill="#FEFFFE" transform="matrix(1.00, 0.00, -0.00, -1.00, 187.4, 606.3)">s</text><text xml:space="preserve" font-family="HelveticaNeue-Bold,Helvetica Neue" font-weight="bold" font-size="58.2" fill="#FEFFFE" transform="matrix(1.00, 0.00, -0.00, -1.00, 218.7, 606.3)">u</text><text xml:space="preserve" font-family="HelveticaNeue-Bold,Helvetica Neue" font-weight="bold" font-size="58.2" fill="#FEFFFE" transform="matrix(1.00, 0.00, -0.00, -1.00, 253.2, 606.3)">r</text><text xml:space="preserve" font-family="HelveticaNeue-Bold,Helvetica Neue" font-weight="bold" font-size="58.2" fill="#FEFFFE" transform="matrix(1.00, 0.00, -0.00, -1.00, 275.9, 606.3)">v</text><text xml:space="preserve" font-family="HelveticaNeue-Bold,Helvetica Neue" font-weight="bold" font-size="58.2" fill="#FEFFFE" transform="matrix(1.00, 0.00, -0.00, -1.00, 306.2, 606.3)">i</text><text xml:space="preserve" font-family="HelveticaNeue-Bold,Helvetica Neue" font-weight="bold" font-size="58.2" fill="#FEFFFE" transform="matrix(1.00, 0.00, -0.00, -1.00, 321.2, 606.3)">v</text><text xml:space="preserve" font-family="HelveticaNeue-Bold,Helvetica Neue" font-weight="bold" font-size="58.2" fill="#FEFFFE" transform="matrix(1.00, 0.00, -0.00, -1.00, 351.5, 606.3)">a</text><text xml:space="preserve" font-family="HelveticaNeue-Bold,Helvetica Neue" font-weight="bold" font-size="58.2" fill="#FEFFFE" transform="matrix(1.00, 0.00, -0.00, -1.00, 384.9, 606.3)">l</text><text xml:space="preserve" font-family="HelveticaNeue-Bold,Helvetica Neue" font-weight="bold" font-size="58.2" fill="#FEFFFE" transform="matrix(1.00, 0.00, -0.00, -1.00, 399.9, 606.3)"> </text><text xml:space="preserve" font-family="HelveticaNeue-Bold,Helvetica Neue" font-weight="bold" font-size="58.2" fill="#FEFFFE" transform="matrix(1.00, 0.00, -0.00, -1.00, 416.1, 606.3)">i</text><text xml:space="preserve" font-family="HelveticaNeue-Bold,Helvetica Neue" font-weight="bold" font-size="58.2" fill="#FEFFFE" transform="matrix(1.00, 0.00, -0.00, -1.00, 431.1, 606.3)">n</text><text xml:space="preserve" font-family="HelveticaNeue-Bold,Helvetica Neue" font-weight="bold" font-size="58.2" fill="#FEFFFE" transform="matrix(1.00, 0.00, -0.00, -1.00, 465.7, 606.3)"> </text><text xml:space="preserve" font-family="HelveticaNeue-Bold,Helvetica Neue" font-weight="bold" font-size="58.2" fill="#FEFFFE" transform="matrix(1.00, 0.00, -0.00, -1.00, 481.9, 606.3)">t</text><text xml:space="preserve" font-family="HelveticaNeue-Bold,Helvetica Neue" font-weight="bold" font-size="58.2" fill="#FEFFFE" transform="matrix(1.00, 0.00, -0.00, -1.00, 502.4, 606.3)">h</text><text xml:space="preserve" font-family="HelveticaNeue-Bold,Helvetica Neue" font-weight="bold" font-size="58.2" fill="#FEFFFE" transform="matrix(1.00, 0.00, -0.00, -1.00, 536.9, 606.3)">e</text><text xml:space="preserve" font-family="HelveticaNeue-Bold,Helvetica Neue" font-weight="bold" font-size="58.2" fill="#FEFFFE" transform="matrix(1.00, 0.00, -0.00, -1.00, 570.3, 606.3)"> </text><text xml:space="preserve" font-family="HelveticaNeue-Bold,Helvetica Neue" font-weight="bold" font-size="58.2" fill="#FEFFFE" transform="matrix(1.00, 0.00, -0.00, -1.00, 586.5, 606.3)">v</text><text xml:space="preserve" font-family="HelveticaNeue-Bold,Helvetica Neue" font-weight="bold" font-size="58.2" fill="#FEFFFE" transform="matrix(1.00, 0.00, -0.00, -1.00, 616.8, 606.3)">a</text><text xml:space="preserve" font-family="HelveticaNeue-Bold,Helvetica Neue" font-weight="bold" font-size="58.2" fill="#FEFFFE" transform="matrix(1.00, 0.00, -0.00, -1.00, 650.2, 606.3)">l</text><text xml:space="preserve" font-family="HelveticaNeue-Bold,Helvetica Neue" font-weight="bold" font-size="58.2" fill="#FEFFFE" transform="matrix(1.00, 0.00, -0.00, -1.00, 665.3, 606.3)">i</text><text xml:space="preserve" font-family="HelveticaNeue-Bold,Helvetica Neue" font-weight="bold" font-size="58.2" fill="#FEFFFE" transform="matrix(1.00, 0.00, -0.00, -1.00, 680.3, 606.3)">d</text><text xml:space="preserve" font-family="HelveticaNeue-Bold,Helvetica Neue" font-weight="bold" font-size="58.2" fill="#FEFFFE" transform="matrix(1.00, 0.00, -0.00, -1.00, 715.9, 606.3)">a</text><text xml:space="preserve" font-family="HelveticaNeue-Bold,Helvetica Neue" font-weight="bold" font-size="58.2" fill="#FEFFFE" transform="matrix(1.00, 0.00, -0.00, -1.00, 749.3, 606.3)">t</text><text xml:space="preserve" font-family="HelveticaNeue-Bold,Helvetica Neue" font-weight="bold" font-size="58.2" fill="#FEFFFE" transform="matrix(1.00, 0.00, -0.00, -1.00, 769.8, 606.3)">i</text><text xml:space="preserve" font-family="HelveticaNeue-Bold,Helvetica Neue" font-weight="bold" font-size="58.2" fill="#FEFFFE" transform="matrix(1.00, 0.00, -0.00, -1.00, 784.8, 606.3)">o</text><text xml:space="preserve" font-family="HelveticaNeue-Bold,Helvetica Neue" font-weight="bold" font-size="58.2" fill="#FEFFFE" transform="matrix(1.00, 0.00, -0.00, -1.00, 820.4, 606.3)">n</text><text xml:space="preserve" font-family="HelveticaNeue-Bold,Helvetica Neue" font-weight="bold" font-size="58.2" fill="#FEFFFE" transform="matrix(1.00, 0.00, -0.00, -1.00, 854.9, 606.3)"> </text><text xml:space="preserve" font-family="HelveticaNeue-Bold,Helvetica Neue" font-weight="bold" font-size="58.2" fill="#FEFFFE" transform="matrix(1.00, 0.00, -0.00, -1.00, 871.1, 606.3)">s</text><text xml:space="preserve" font-family="HelveticaNeue-Bold,Helvetica Neue" font-weight="bold" font-size="58.2" fill="#FEFFFE" transform="matrix(1.00, 0.00, -0.00, -1.00, 902.4, 606.3)">e</text><text xml:space="preserve" font-family="HelveticaNeue-Bold,Helvetica Neue" font-weight="bold" font-size="58.2" fill="#FEFFFE" transform="matrix(1.00, 0.00, -0.00, -1.00, 935.8, 606.3)">t</text><image xlink:href="../../47A28D4B-375C-41DF-AF0F-B6B350CB9A72/assets/8353FF6946169C5617C55415973317E4.png" width="1032.00" height="61.00" transform="matrix(1.00, 0.00, -0.00, -1.00, -4.0, 258.2)" opacity="0.50"></image><path d="M 0.0 33.7 L 0.0 15.0 C 0.0 6.7 6.7 0.2 15.0 0.2 L 1004.0 0.2 C 1012.3 0.2 1019.0 6.7 1019.0 15.0 L 1019.0 33.3 C 1019.0 41.6 1012.3 48.2 1004.0 48.2 L 15.0 48.2 C 6.7 48.2 0.0 42.0 0.0 33.7 Z M 0.0 33.3 " fill="none" stroke="#D31D03" stroke-width="5.00" transform="matrix(1.00, 0.00, 0.00, -1.00, 2.5, 253.7)"></path></g></svg>