<?xml version="1.0" encoding="UTF-8" standalone="no"?><svg xmlns="http://www.w3.org/2000/svg" xmlns:xlink="http://www.w3.org/1999/xlink" clip-rule="evenodd" stroke-miterlimit="4.00" viewBox="0 0 87 207"><desc>SVG generated by Keynote</desc><defs></defs><g transform="matrix(1.00, 0.00, -0.00, -1.00, 0.0, 207.0)"><path d="M 18.5 0.0 L 59.1 0.0 C 64.4 0.0 67.1 0.0 69.9 0.9 C 73.0 2.0 75.5 4.5 76.6 7.6 C 77.5 10.5 77.5 13.2 77.5 18.5 L 77.5 180.1 C 77.5 185.4 77.5 188.1 76.6 190.9 C 75.5 194.1 73.0 196.5 69.9 197.7 C 67.1 198.6 64.4 198.6 59.0 198.6 L 18.5 198.6 C 13.2 198.6 10.5 198.6 7.6 197.7 C 4.5 196.5 2.0 194.1 0.9 190.9 C 0.0 188.1 0.0 185.4 0.0 180.0 L 0.0 18.5 C 0.0 13.2 0.0 10.5 0.9 7.6 C 2.0 4.5 4.5 2.0 7.6 0.9 C 10.5 0.0 13.2 0.0 18.5 0.0 Z M 18.5 0.0 " fill="none" stroke="#FF2600" stroke-width="6.00" transform="matrix(1.00, 0.00, 0.00, -1.00, 4.6, 202.8)"></path></g></svg>