<?xml version="1.0" encoding="UTF-8" standalone="no"?><svg xmlns="http://www.w3.org/2000/svg" xmlns:xlink="http://www.w3.org/1999/xlink" clip-rule="evenodd" stroke-miterlimit="4.00" viewBox="0 0 864 93"><desc>SVG generated by Keynote</desc><defs></defs><g transform="matrix(1.00, 0.00, -0.00, -1.00, 0.0, 93.0)"><text xml:space="preserve" font-family="HelveticaNeue-Light" font-size="42.0" fill="#000000" transform="matrix(1.00, 0.00, -0.00, -1.00, -1.0, 61.0)">L</text><text xml:space="preserve" font-family="HelveticaNeue-Light" font-size="42.0" fill="#000000" transform="matrix(1.00, 0.00, -0.00, -1.00, 21.6, 61.0)">o</text><text xml:space="preserve" font-family="HelveticaNeue-Light" font-size="42.0" fill="#000000" transform="matrix(1.00, 0.00, -0.00, -1.00, 44.9, 61.0)">n</text><text xml:space="preserve" font-family="HelveticaNeue-Light" font-size="42.0" fill="#000000" transform="matrix(1.00, 0.00, -0.00, -1.00, 67.5, 61.0)">g</text><text xml:space="preserve" font-family="HelveticaNeue-Light" font-size="42.0" fill="#000000" transform="matrix(1.00, 0.00, -0.00, -1.00, 90.8, 61.0)">-</text><text xml:space="preserve" font-family="HelveticaNeue-Light" font-size="42.0" fill="#000000" transform="matrix(1.00, 0.00, -0.00, -1.00, 106.4, 61.0)">t</text><text xml:space="preserve" font-family="HelveticaNeue-Light" font-size="42.0" fill="#000000" transform="matrix(1.00, 0.00, -0.00, -1.00, 118.8, 61.0)">e</text><text xml:space="preserve" font-family="HelveticaNeue-Light" font-size="42.0" fill="#000000" transform="matrix(1.00, 0.00, -0.00, -1.00, 140.6, 61.0)">r</text><text xml:space="preserve" font-family="HelveticaNeue-Light" font-size="42.0" fill="#000000" transform="matrix(1.00, 0.00, -0.00, -1.00, 153.8, 61.0)">m</text><text xml:space="preserve" font-family="HelveticaNeue-Light" font-size="42.0" fill="#000000" transform="matrix(1.00, 0.00, -0.00, -1.00, 188.8, 61.0)"> </text><text xml:space="preserve" font-family="HelveticaNeue-Light" font-size="42.0" fill="#000000" transform="matrix(1.00, 0.00, -0.00, -1.00, 200.5, 61.0)">f</text><text xml:space="preserve" font-family="HelveticaNeue-Light" font-size="42.0" fill="#000000" transform="matrix(1.00, 0.00, -0.00, -1.00, 211.4, 61.0)">o</text><text xml:space="preserve" font-family="HelveticaNeue-Light" font-size="42.0" fill="#000000" transform="matrix(1.00, 0.00, -0.00, -1.00, 234.7, 61.0)">l</text><text xml:space="preserve" font-family="HelveticaNeue-Light" font-size="42.0" fill="#000000" transform="matrix(1.00, 0.00, -0.00, -1.00, 242.5, 61.0)">l</text><text xml:space="preserve" font-family="HelveticaNeue-Light" font-size="42.0" fill="#000000" transform="matrix(1.00, 0.00, -0.00, -1.00, 250.2, 61.0)">o</text><text xml:space="preserve" font-family="HelveticaNeue-Light" font-size="42.0" fill="#000000" transform="matrix(1.00, 0.00, -0.00, -1.00, 273.6, 61.0)">w</text><text xml:space="preserve" font-family="HelveticaNeue-Light" font-size="42.0" fill="#000000" transform="matrix(1.00, 0.00, -0.00, -1.00, 304.7, 61.0)">-</text><text xml:space="preserve" font-family="HelveticaNeue-Light" font-size="42.0" fill="#000000" transform="matrix(1.00, 0.00, -0.00, -1.00, 320.3, 61.0)">u</text><text xml:space="preserve" font-family="HelveticaNeue-Light" font-size="42.0" fill="#000000" transform="matrix(1.00, 0.00, -0.00, -1.00, 342.8, 61.0)">p</text><text xml:space="preserve" font-family="HelveticaNeue-Light" font-size="42.0" fill="#000000" transform="matrix(1.00, 0.00, -0.00, -1.00, 366.9, 61.0)"> </text><text xml:space="preserve" font-family="HelveticaNeue-Light" font-size="42.0" fill="#000000" transform="matrix(1.00, 0.00, -0.00, -1.00, 378.6, 61.0)">a</text><text xml:space="preserve" font-family="HelveticaNeue-Light" font-size="42.0" fill="#000000" transform="matrix(1.00, 0.00, -0.00, -1.00, 400.4, 61.0)">n</text><text xml:space="preserve" font-family="HelveticaNeue-Light" font-size="42.0" fill="#000000" transform="matrix(1.00, 0.00, -0.00, -1.00, 422.9, 61.0)">d</text><text xml:space="preserve" font-family="HelveticaNeue-Light" font-size="42.0" fill="#000000" transform="matrix(1.00, 0.00, -0.00, -1.00, 447.1, 61.0)"> </text><text xml:space="preserve" font-family="HelveticaNeue-Light" font-size="42.0" fill="#000000" transform="matrix(1.00, 0.00, -0.00, -1.00, 458.7, 61.0)">c</text><text xml:space="preserve" font-family="HelveticaNeue-Light" font-size="42.0" fill="#000000" transform="matrix(1.00, 0.00, -0.00, -1.00, 480.5, 61.0)">o</text><text xml:space="preserve" font-family="HelveticaNeue-Light" font-size="42.0" fill="#000000" transform="matrix(1.00, 0.00, -0.00, -1.00, 503.9, 61.0)">m</text><text xml:space="preserve" font-family="HelveticaNeue-Light" font-size="42.0" fill="#000000" transform="matrix(1.00, 0.00, -0.00, -1.00, 538.9, 61.0)">p</text><text xml:space="preserve" font-family="HelveticaNeue-Light" font-size="42.0" fill="#000000" transform="matrix(1.00, 0.00, -0.00, -1.00, 563.0, 61.0)">a</text><text xml:space="preserve" font-family="HelveticaNeue-Light" font-size="42.0" fill="#000000" transform="matrix(1.00, 0.00, -0.00, -1.00, 584.8, 61.0)">r</text><text xml:space="preserve" font-family="HelveticaNeue-Light" font-size="42.0" fill="#000000" transform="matrix(1.00, 0.00, -0.00, -1.00, 598.0, 61.0)">i</text><text xml:space="preserve" font-family="HelveticaNeue-Light" font-size="42.0" fill="#000000" transform="matrix(1.00, 0.00, -0.00, -1.00, 605.8, 61.0)">s</text><text xml:space="preserve" font-family="HelveticaNeue-Light" font-size="42.0" fill="#000000" transform="matrix(1.00, 0.00, -0.00, -1.00, 626.0, 61.0)">o</text><text xml:space="preserve" font-family="HelveticaNeue-Light" font-size="42.0" fill="#000000" transform="matrix(1.00, 0.00, -0.00, -1.00, 649.3, 61.0)">n</text><text xml:space="preserve" font-family="HelveticaNeue-Light" font-size="42.0" fill="#000000" transform="matrix(1.00, 0.00, -0.00, -1.00, 671.9, 61.0)"> </text><text xml:space="preserve" font-family="HelveticaNeue-Light" font-size="42.0" fill="#000000" transform="matrix(1.00, 0.00, -0.00, -1.00, 683.6, 61.0)">w</text><text xml:space="preserve" font-family="HelveticaNeue-Light" font-size="42.0" fill="#000000" transform="matrix(1.00, 0.00, -0.00, -1.00, 714.7, 61.0)">i</text><text xml:space="preserve" font-family="HelveticaNeue-Light" font-size="42.0" fill="#000000" transform="matrix(1.00, 0.00, -0.00, -1.00, 722.4, 61.0)">t</text><text xml:space="preserve" font-family="HelveticaNeue-Light" font-size="42.0" fill="#000000" transform="matrix(1.00, 0.00, -0.00, -1.00, 734.9, 61.0)">h</text><text xml:space="preserve" font-family="HelveticaNeue-Light" font-size="42.0" fill="#000000" transform="matrix(1.00, 0.00, -0.00, -1.00, 757.4, 61.0)"> </text><text xml:space="preserve" font-family="HelveticaNeue-Light" font-size="42.0" fill="#000000" transform="matrix(1.00, 0.00, -0.00, -1.00, 769.1, 61.0)">o</text><text xml:space="preserve" font-family="HelveticaNeue-Light" font-size="42.0" fill="#000000" transform="matrix(1.00, 0.00, -0.00, -1.00, 792.5, 61.0)">t</text><text xml:space="preserve" font-family="HelveticaNeue-Light" font-size="42.0" fill="#000000" transform="matrix(1.00, 0.00, -0.00, -1.00, 804.9, 61.0)">h</text><text xml:space="preserve" font-family="HelveticaNeue-Light" font-size="42.0" fill="#000000" transform="matrix(1.00, 0.00, -0.00, -1.00, 827.4, 61.0)">e</text><text xml:space="preserve" font-family="HelveticaNeue-Light" font-size="42.0" fill="#000000" transform="matrix(1.00, 0.00, -0.00, -1.00, 849.2, 61.0)">r</text><text xml:space="preserve" font-family="HelveticaNeue-Light" font-size="42.0" fill="#000000" transform="matrix(1.00, 0.00, -0.00, -1.00, 862.5, 61.0)"> </text><text xml:space="preserve" font-family="HelveticaNeue-Light" font-size="42.0" fill="#000000" transform="matrix(1.00, 0.00, -0.00, -1.00, -1.0, 10.0)">r</text><text xml:space="preserve" font-family="HelveticaNeue-Light" font-size="42.0" fill="#000000" transform="matrix(1.00, 0.00, -0.00, -1.00, 11.5, 10.0)">e</text><text xml:space="preserve" font-family="HelveticaNeue-Light" font-size="42.0" fill="#000000" transform="matrix(1.00, 0.00, -0.00, -1.00, 33.3, 10.0)">g</text><text xml:space="preserve" font-family="HelveticaNeue-Light" font-size="42.0" fill="#000000" transform="matrix(1.00, 0.00, -0.00, -1.00, 56.6, 10.0)">i</text><text xml:space="preserve" font-family="HelveticaNeue-Light" font-size="42.0" fill="#000000" transform="matrix(1.00, 0.00, -0.00, -1.00, 64.4, 10.0)">m</text><text xml:space="preserve" font-family="HelveticaNeue-Light" font-size="42.0" fill="#000000" transform="matrix(1.00, 0.00, -0.00, -1.00, 99.4, 10.0)">e</text><text xml:space="preserve" font-family="HelveticaNeue-Light" font-size="42.0" fill="#000000" transform="matrix(1.00, 0.00, -0.00, -1.00, 121.2, 10.0)">n</text><text xml:space="preserve" font-family="HelveticaNeue-Light" font-size="42.0" fill="#000000" transform="matrix(1.00, 0.00, -0.00, -1.00, 143.7, 10.0)">s</text></g></svg>