<?xml version="1.0" encoding="UTF-8" standalone="no"?><svg xmlns="http://www.w3.org/2000/svg" xmlns:xlink="http://www.w3.org/1999/xlink" clip-rule="evenodd" stroke-miterlimit="4.00" viewBox="0 0 100 185"><desc>SVG generated by Keynote</desc><defs></defs><g transform="matrix(1.00, 0.00, -0.00, -1.00, 0.0, 185.0)"><path d="M 18.5 0.0 L 71.9 0.0 C 77.2 0.0 79.9 0.0 82.7 0.9 C 85.9 2.0 88.3 4.5 89.4 7.6 C 90.4 10.5 90.4 13.2 90.4 18.5 L 90.4 158.0 C 90.4 163.3 90.4 166.0 89.4 168.9 C 88.3 172.0 85.9 174.5 82.7 175.6 C 79.9 176.5 77.2 176.5 71.8 176.5 L 18.5 176.5 C 13.2 176.5 10.5 176.5 7.6 175.6 C 4.5 174.5 2.0 172.0 0.9 168.9 C 0.0 166.0 0.0 163.3 0.0 158.0 L 0.0 18.5 C 0.0 13.2 0.0 10.5 0.9 7.6 C 2.0 4.5 4.5 2.0 7.6 0.9 C 10.5 0.0 13.2 0.0 18.5 0.0 Z M 18.5 0.0 " fill="none" stroke="#FF2600" stroke-width="6.00" transform="matrix(1.00, 0.00, 0.00, -1.00, 4.9, 180.8)"></path></g></svg>