<?xml version="1.0" encoding="UTF-8" standalone="no"?><svg xmlns="http://www.w3.org/2000/svg" xmlns:xlink="http://www.w3.org/1999/xlink" clip-rule="evenodd" stroke-miterlimit="10" viewBox="0 0 105 81"><desc>SVG generated by Keynote</desc><defs></defs><g transform="matrix(1.00, 0.00, -0.00, -1.00, 0.0, 81.0)"><image xlink:href="09F7D5DFDB4BD32ABF0D25876BEFFFA7.png" width="94.00" height="55.00" transform="matrix(0.97, 0.23, 0.23, -0.97, 0.7, 54.5)" opacity="0.50"></image><path d="M 87.4 52.1 C 87.5 52.4 86.8 52.8 86.8 53.1 M 87.4 52.1 C 85.8 51.8 85.2 52.5 83.6 53.3 C 82.0 54.4 84.4 54.4 84.6 55.0 C 82.5 57.2 81.6 56.1 81.3 54.5 C 80.8 56.0 76.1 55.6 77.6 57.2 C 83.6 55.4 73.4 59.1 78.9 58.5 C 79.5 58.6 78.1 59.6 77.5 59.8 C 79.6 60.1 76.7 61.9 79.9 61.5 C 80.7 62.6 80.0 62.3 82.2 62.5 C 83.1 62.3 82.6 62.0 82.4 61.8 C 82.1 60.3 85.0 61.6 85.8 60.0 C 87.9 61.0 87.8 58.3 86.5 58.3 C 87.6 57.8 90.1 58.2 90.0 56.4 C 91.1 56.5 92.5 53.6 90.5 54.4 C 89.1 55.0 89.5 53.5 89.2 53.1 C 88.7 53.2 88.1 54.8 87.7 54.7 C 87.8 54.1 88.6 52.2 87.3 53.8 C 87.2 52.9 86.4 53.3 87.4 52.1 C 87.4 52.1 87.4 52.1 87.4 52.1 Z M 80.9 55.7 C 80.7 55.2 81.7 55.3 80.9 55.7 C 80.9 55.7 80.9 55.7 80.9 55.7 Z M 89.9 57.8 C 89.6 57.5 90.6 57.2 89.9 57.8 C 89.9 57.8 89.9 57.8 89.9 57.8 Z M 82.9 61.6 C 82.7 61.2 83.9 61.2 82.9 61.6 C 82.9 61.6 82.9 61.6 82.9 61.6 Z M 83.0 54.9 C 84.3 54.7 82.4 56.1 82.0 55.8 C 82.3 55.7 82.5 54.7 83.0 54.9 C 83.0 54.9 83.0 54.9 83.0 54.9 Z M 84.7 57.4 C 84.7 57.2 85.2 56.8 85.4 57.2 C 85.1 57.6 84.7 57.6 84.7 57.4 C 84.7 57.4 84.7 57.4 84.7 57.4 Z M 76.4 58.4 C 76.5 58.2 77.2 57.9 77.3 58.5 C 76.9 58.7 76.3 58.6 76.4 58.4 C 76.4 58.4 76.4 58.4 76.4 58.4 Z M 85.0 55.3 C 85.3 55.2 85.7 55.5 85.4 55.8 C 85.1 55.7 84.3 56.1 85.0 55.3 C 85.0 55.3 85.0 55.3 85.0 55.3 Z M 85.3 52.8 C 86.1 52.4 85.2 54.2 85.1 54.0 C 84.6 53.9 84.7 52.9 85.3 52.8 C 85.3 52.8 85.3 52.8 85.3 52.8 Z M 85.9 55.5 C 86.7 55.1 85.8 56.0 85.9 55.5 C 85.9 55.5 85.9 55.5 85.9 55.5 Z M 78.6 61.7 C 80.0 61.6 78.2 62.2 78.6 61.7 C 78.6 61.7 78.6 61.7 78.6 61.7 Z M 85.4 60.7 C 86.6 60.3 85.2 61.3 85.4 60.7 C 85.4 60.7 85.4 60.7 85.4 60.7 Z M 81.2 57.0 C 79.5 57.7 80.4 55.9 81.2 57.0 C 81.2 57.0 81.2 57.0 81.2 57.0 Z M 86.4 51.4 C 85.7 52.2 85.3 50.8 86.4 51.4 C 86.4 51.4 86.4 51.4 86.4 51.4 Z M 73.9 58.1 C 75.2 57.6 69.6 56.7 71.9 58.4 C 72.8 60.0 69.0 60.2 69.8 58.6 C 68.7 58.6 68.6 58.5 68.1 59.3 C 67.8 58.1 65.1 57.5 64.2 58.2 C 63.5 59.2 66.0 58.3 64.4 59.4 C 60.9 59.7 64.7 60.5 63.2 61.9 C 63.1 61.9 63.0 61.2 62.7 61.6 C 62.5 62.8 64.7 63.7 63.7 64.7 C 64.2 64.5 67.0 65.9 65.8 64.8 C 65.4 63.6 68.9 66.1 68.5 64.2 C 69.4 65.0 70.3 63.7 71.2 64.7 C 71.9 64.9 71.8 63.8 71.6 63.6 C 71.5 62.7 72.7 65.5 73.5 63.8 C 73.6 64.2 76.4 63.6 74.2 63.2 C 74.8 63.3 78.0 63.0 76.0 61.7 C 73.8 61.3 77.8 59.5 75.4 59.9 C 73.5 60.1 73.2 60.5 74.4 59.3 C 74.8 59.3 76.8 58.7 74.9 58.3 C 74.6 58.6 73.7 58.6 73.9 58.1 C 73.9 58.1 73.9 58.1 73.9 58.1 Z M 74.7 60.6 C 73.7 60.8 74.5 59.9 74.7 60.6 C 74.7 60.6 74.7 60.6 74.7 60.6 Z M 71.1 65.1 C 69.8 65.3 70.9 64.5 71.1 65.1 C 71.1 65.1 71.1 65.1 71.1 65.1 Z M 70.5 58.1 C 70.0 58.7 69.7 56.9 70.5 58.1 C 70.5 58.1 70.5 58.1 70.5 58.1 Z M 72.9 63.4 C 72.8 63.4 73.1 63.2 73.3 63.0 C 73.3 63.1 73.0 63.4 72.9 63.4 C 72.9 63.4 72.9 63.4 72.9 63.4 Z M 68.7 58.3 C 67.1 59.2 68.2 56.9 68.7 58.3 C 68.7 58.3 68.7 58.3 68.7 58.3 Z M 65.3 60.1 C 65.1 61.9 63.4 59.7 65.3 60.1 C 65.3 60.1 65.3 60.1 65.3 60.1 Z M 67.9 64.1 C 68.2 63.7 68.2 64.3 67.9 64.1 C 67.9 64.1 67.9 64.1 67.9 64.1 Z M 75.8 63.4 C 76.0 62.9 76.1 63.5 75.8 63.4 C 75.8 63.4 75.8 63.4 75.8 63.4 Z M 65.6 64.0 C 65.7 63.3 66.3 64.3 65.6 64.0 C 65.6 64.0 65.6 64.0 65.6 64.0 Z M 70.3 58.9 C 71.6 57.3 72.3 60.8 70.3 58.9 C 70.3 58.9 70.3 58.9 70.3 58.9 Z M 72.9 58.4 C 73.8 57.9 72.9 59.3 72.4 59.2 C 72.4 59.0 72.8 58.5 72.9 58.4 C 72.9 58.4 72.9 58.4 72.9 58.4 Z M 68.7 59.2 C 69.7 58.4 69.7 59.5 68.7 59.2 C 68.7 59.2 68.7 59.2 68.7 59.2 Z M 71.2 58.1 C 71.7 58.2 70.8 58.4 71.2 58.1 C 71.2 58.1 71.2 58.1 71.2 58.1 Z M 66.5 57.7 C 67.1 57.9 66.1 57.9 66.5 57.7 C 66.5 57.7 66.5 57.7 66.5 57.7 Z M 74.0 57.4 C 74.5 57.5 73.6 57.7 74.0 57.4 C 74.0 57.4 74.0 57.4 74.0 57.4 Z M 67.0 58.7 C 66.9 59.3 68.4 60.8 65.6 59.6 C 65.2 59.1 66.3 58.2 67.0 58.7 C 67.0 58.7 67.0 58.7 67.0 58.7 Z M 88.8 49.1 C 87.3 51.1 87.0 51.7 87.3 52.4 C 87.7 53.1 88.7 53.6 88.8 53.9 C 89.1 55.2 90.1 55.0 91.5 54.1 C 94.2 54.0 90.4 51.4 92.8 51.0 C 96.3 50.0 90.7 48.7 93.9 48.0 C 94.8 48.4 94.0 45.4 93.8 45.6 C 95.1 43.9 91.8 42.4 91.5 42.5 C 91.5 41.5 94.2 39.8 90.4 38.1 C 88.3 36.3 89.4 33.5 88.5 35.4 C 88.7 32.4 87.1 34.8 85.9 32.7 C 85.5 30.7 84.3 33.7 84.2 30.6 C 82.3 31.4 85.9 30.0 80.3 27.9 C 82.6 29.6 77.3 27.8 78.9 27.3 C 81.2 27.2 76.3 26.3 74.3 24.4 C 73.3 24.7 69.7 24.9 70.9 23.4 C 69.2 20.4 67.8 23.5 67.3 21.5 C 66.6 20.5 65.8 21.8 65.2 21.5 C 64.6 19.9 63.5 20.4 60.1 19.1 C 52.6 16.4 58.1 22.0 55.2 21.8 C 54.6 22.3 57.7 27.4 56.8 23.9 C 57.2 24.9 63.8 23.3 60.0 25.9 C 62.6 25.1 59.1 27.0 63.9 26.9 C 58.9 22.5 70.9 28.3 64.9 27.4 C 65.5 28.5 67.8 29.2 66.5 28.0 C 66.6 25.7 69.9 30.6 68.7 27.1 C 71.9 29.3 72.1 26.7 72.2 28.7 C 71.7 31.8 72.4 27.9 73.7 29.6 C 77.5 31.6 72.8 32.9 76.1 32.3 C 78.7 35.7 77.6 31.7 78.9 32.2 C 80.4 30.7 81.2 35.8 78.7 34.3 C 80.6 34.3 78.3 35.2 80.5 35.2 C 80.7 33.0 81.3 38.6 81.8 37.0 C 83.7 38.1 83.6 36.5 84.1 36.9 C 86.4 39.2 84.1 39.7 85.6 39.2 C 86.6 39.2 85.3 41.7 86.0 41.6 C 84.7 39.5 88.7 42.4 87.9 43.0 C 87.2 41.8 85.8 44.5 87.5 44.8 C 91.2 42.6 86.8 46.3 88.3 47.0 C 89.4 46.6 89.6 47.6 89.1 48.4 C 88.6 49.3 87.7 49.6 87.4 48.8 C 87.5 48.9 88.9 49.0 88.8 49.1 M 86.6 42.0 C 85.8 40.2 88.1 43.6 86.6 42.0 M 86.1 42.4 C 86.4 41.3 86.5 44.2 85.9 42.4 C 85.9 42.4 86.2 42.5 86.1 42.4 M 79.7 35.6 C 80.3 35.2 80.3 36.5 79.7 35.6 M 79.4 33.5 C 78.6 32.2 80.9 34.5 79.4 33.5 M 61.1 25.3 C 64.2 22.7 62.7 27.8 61.1 25.3 M 73.3 31.1 C 75.6 31.8 71.9 32.0 73.3 31.1 M 74.4 30.7 C 75.6 30.7 74.2 31.5 74.4 30.7 M 64.9 26.6 C 64.8 26.5 64.8 26.5 64.9 26.6 C 64.9 26.6 64.9 26.6 64.9 26.6 Z M 59.0 24.6 C 59.0 24.7 59.0 24.7 59.0 24.6 C 59.0 24.6 59.0 24.6 59.0 24.6 Z M 70.5 28.5 C 71.9 30.0 67.7 27.5 70.5 28.5 C 70.5 28.5 70.5 28.5 70.5 28.5 Z M 63.4 20.5 C 63.6 20.5 63.6 20.5 63.4 20.5 C 63.4 20.5 63.4 20.5 63.4 20.5 Z M 88.7 42.7 C 88.8 42.7 88.8 42.7 88.7 42.7 C 88.7 42.7 88.7 42.7 88.7 42.7 Z M 88.5 47.9 C 89.0 47.9 88.1 48.6 88.5 47.9 C 88.5 47.9 88.5 47.9 88.5 47.9 Z M 90.9 53.1 C 90.9 53.2 90.9 53.2 90.9 53.1 C 90.9 53.1 90.9 53.1 90.9 53.1 Z M 91.1 44.0 C 91.2 44.1 91.2 44.1 91.1 44.0 C 91.1 44.0 91.1 44.0 91.1 44.0 Z M 88.5 44.0 C 87.0 45.5 88.2 41.8 88.5 44.0 C 88.5 44.0 88.5 44.0 88.5 44.0 Z M 74.8 25.3 C 74.3 26.0 73.4 24.3 74.8 25.3 C 74.8 25.3 74.8 25.3 74.8 25.3 Z M 79.6 32.8 C 79.1 32.9 79.0 32.0 79.6 32.8 C 79.6 32.8 79.6 32.8 79.6 32.8 Z M 80.8 36.9 C 80.2 37.0 80.0 36.0 80.8 36.9 C 80.8 36.9 80.8 36.9 80.8 36.9 Z M 88.0 47.8 C 87.9 47.7 87.9 47.7 88.0 47.8 C 88.0 47.8 88.0 47.8 88.0 47.8 Z M 89.4 46.1 C 87.8 47.6 90.0 44.1 89.4 46.1 C 89.4 46.1 89.4 46.1 89.4 46.1 Z M 89.9 48.2 C 90.6 47.6 89.5 49.8 89.9 48.2 M 92.6 46.9 C 91.8 44.9 95.9 48.6 92.6 46.9 C 92.6 46.9 92.6 46.9 92.6 46.9 Z M 88.7 36.2 C 88.7 36.0 88.7 36.0 88.7 36.2 C 88.7 36.2 88.7 36.2 88.7 36.2 Z M 85.4 40.4 C 84.4 38.9 86.5 41.0 85.4 40.4 C 85.4 40.4 85.4 40.4 85.4 40.4 Z M 87.0 50.6 C 87.6 49.6 87.0 51.4 87.0 50.6 C 87.0 50.6 87.0 50.6 87.0 50.6 Z M 82.0 32.2 C 79.6 30.7 84.0 32.5 82.0 32.2 C 82.0 32.2 82.0 32.2 82.0 32.2 Z M 71.8 28.3 C 71.7 28.3 71.7 28.3 71.8 28.3 C 71.8 28.3 71.8 28.3 71.8 28.3 Z M 69.6 28.1 C 69.6 28.1 69.6 28.1 69.6 28.1 C 69.6 28.1 69.6 28.1 69.6 28.1 Z M 62.0 23.3 C 61.8 23.2 61.8 23.2 62.0 23.3 C 62.0 23.3 62.0 23.3 62.0 23.3 Z M 67.6 28.2 C 67.5 28.1 67.5 28.1 67.6 28.2 C 67.6 28.2 67.6 28.2 67.6 28.2 Z M 62.1 25.7 C 62.0 25.6 62.0 25.6 62.1 25.7 C 62.1 25.7 62.1 25.7 62.1 25.7 Z M 62.4 27.4 C 62.3 27.3 62.3 27.3 62.4 27.4 C 62.4 27.4 62.4 27.4 62.4 27.4 Z M 77.9 25.9 C 77.9 25.7 77.9 25.7 77.9 25.9 C 77.9 25.9 77.9 25.9 77.9 25.9 Z M 87.3 45.9 C 87.4 45.8 87.4 45.8 87.3 45.9 C 87.3 45.9 87.3 45.9 87.3 45.9 Z M 62.7 25.2 C 62.7 25.1 62.7 25.1 62.7 25.2 C 62.7 25.2 62.7 25.2 62.7 25.2 Z M 76.7 29.9 C 77.4 28.6 76.7 32.2 76.3 29.8 C 76.4 29.7 76.7 30.1 76.7 29.9 M 76.2 26.7 C 76.3 26.7 76.3 26.7 76.2 26.7 C 76.2 26.7 76.2 26.7 76.2 26.7 Z M 82.4 29.5 C 82.5 29.5 82.5 29.5 82.4 29.5 C 82.4 29.5 82.4 29.5 82.4 29.5 Z M 68.4 28.8 C 68.3 29.7 67.2 27.6 68.6 28.9 M 62.7 20.8 C 62.7 21.7 61.1 19.6 62.9 20.8 M 86.8 52.0 C 87.2 52.5 86.0 52.4 86.8 52.0 M 84.0 29.8 C 84.6 29.4 84.8 30.9 84.0 29.8 M 80.4 29.5 C 80.2 30.4 79.5 28.1 80.7 29.6 M 67.3 22.4 C 67.2 22.4 67.2 22.4 67.3 22.4 C 67.3 22.4 67.3 22.4 67.3 22.4 Z M 83.6 38.0 C 83.6 37.9 83.6 37.9 83.6 38.0 C 83.6 38.0 83.6 38.0 83.6 38.0 Z M 78.4 31.5 C 78.6 33.0 77.7 30.1 78.4 31.5 M 86.9 38.6 C 86.8 40.9 85.5 36.2 86.9 38.6 M 59.1 19.4 C 60.6 21.6 57.9 18.2 59.1 19.4 M 66.8 26.4 C 67.9 28.7 65.9 25.1 66.8 26.4 M 82.8 36.1 C 82.3 36.9 81.5 34.2 82.8 36.1 M 87.9 49.6 C 87.4 50.5 87.6 48.2 87.9 49.6 M 71.7 24.2 C 71.6 24.1 71.6 24.1 71.7 24.2 C 71.7 24.2 71.7 24.2 71.7 24.2 Z M 94.7 45.5 C 94.8 45.4 94.8 45.4 94.7 45.5 C 94.7 45.5 94.7 45.5 94.7 45.5 Z M 55.4 24.4 C 55.4 24.3 55.4 24.3 55.4 24.4 C 55.4 24.4 55.4 24.4 55.4 24.4 Z M 68.1 26.1 C 68.1 26.0 68.1 26.0 68.1 26.1 C 68.1 26.1 68.1 26.1 68.1 26.1 Z M 58.8 25.5 C 58.7 25.3 58.7 25.3 58.8 25.5 C 58.8 25.5 58.8 25.5 58.8 25.5 Z M 73.9 27.3 C 73.8 27.2 73.8 27.2 73.9 27.3 C 73.9 27.3 73.9 27.3 73.9 27.3 Z M 72.8 31.7 C 72.8 31.6 72.8 31.6 72.8 31.7 C 72.8 31.7 72.8 31.7 72.8 31.7 Z M 78.5 33.0 C 78.5 32.9 78.5 32.9 78.5 33.0 C 78.5 33.0 78.5 33.0 78.5 33.0 Z M 70.6 30.2 C 67.3 28.9 72.8 29.6 70.6 30.2 C 70.6 30.2 70.6 30.2 70.6 30.2 Z M 78.1 29.3 C 78.1 29.2 78.1 29.2 78.1 29.3 C 78.1 29.3 78.1 29.3 78.1 29.3 Z M 76.8 32.1 C 74.4 32.1 77.0 29.7 76.8 32.1 M 83.9 39.3 C 82.9 39.2 84.5 38.4 83.9 39.3 M 91.1 39.5 C 91.2 39.5 91.2 39.5 91.1 39.5 C 91.1 39.5 91.1 39.5 91.1 39.5 Z M 90.1 38.7 C 90.1 38.5 90.1 38.5 90.1 38.7 C 90.1 38.7 90.1 38.7 90.1 38.7 Z M 85.2 41.4 C 85.2 41.3 85.2 41.3 85.2 41.4 C 85.2 41.4 85.2 41.4 85.2 41.4 Z M 91.4 37.6 C 91.3 37.5 91.3 37.5 91.4 37.6 C 91.4 37.6 91.4 37.6 91.4 37.6 Z M 74.0 32.2 C 73.9 32.1 73.9 32.1 74.0 32.2 C 74.0 32.2 74.0 32.2 74.0 32.2 Z M 56.9 25.6 C 56.8 25.6 56.8 25.6 56.9 25.6 C 56.9 25.6 56.9 25.6 56.9 25.6 Z M 92.4 50.6 C 92.5 50.5 92.5 50.5 92.4 50.6 C 92.4 50.6 92.4 50.6 92.4 50.6 Z M 73.2 29.8 C 73.2 29.7 73.2 29.7 73.2 29.8 C 73.2 29.8 73.2 29.8 73.2 29.8 Z M 92.2 42.3 C 92.2 42.2 92.2 42.2 92.2 42.3 C 92.2 42.3 92.2 42.3 92.2 42.3 Z M 74.0 30.7 C 74.0 30.6 74.0 30.6 74.0 30.7 C 74.0 30.7 74.0 30.7 74.0 30.7 Z M 72.4 24.1 C 72.3 24.0 72.3 24.0 72.4 24.1 C 72.4 24.1 72.4 24.1 72.4 24.1 Z M 68.8 21.5 C 68.7 21.4 68.7 21.4 68.8 21.5 C 68.8 21.5 68.8 21.5 68.8 21.5 Z M 71.4 27.0 C 71.3 26.9 71.3 26.9 71.4 27.0 C 71.4 27.0 71.4 27.0 71.4 27.0 Z M 90.8 44.1 C 91.2 51.0 88.7 39.2 90.8 44.1 M 70.3 26.1 C 75.0 28.6 65.8 26.0 70.3 26.1 C 69.6 26.3 70.3 26.2 70.3 26.1 M 53.5 24.7 C 55.9 23.5 56.3 22.1 55.7 20.2 C 54.7 19.2 54.1 22.4 54.6 19.7 C 57.3 19.7 54.2 15.4 53.7 18.9 C 50.2 18.8 53.5 16.5 51.2 17.6 C 47.5 17.4 49.5 16.6 46.6 16.6 C 44.8 18.4 45.0 15.5 44.2 17.3 C 45.7 15.4 41.2 17.7 41.1 16.8 C 43.7 15.6 31.7 17.1 38.2 17.4 C 35.6 18.5 36.0 16.8 35.1 16.7 C 34.1 17.9 30.7 16.3 29.4 17.7 C 29.8 17.9 30.5 17.9 30.8 18.2 C 31.4 18.9 29.1 18.4 29.4 18.4 C 28.9 18.7 27.4 19.5 26.6 19.8 C 26.2 20.0 26.0 20.0 26.3 19.8 C 26.5 19.5 27.6 18.8 28.6 18.1 C 28.6 17.1 24.0 19.9 23.8 19.1 C 19.0 20.8 23.4 21.2 20.9 20.9 C 17.9 22.4 16.4 23.9 16.6 24.1 C 15.1 25.1 13.9 24.8 13.9 26.7 C 12.1 27.6 12.7 28.7 13.3 29.3 C 13.9 29.9 14.4 30.0 12.2 30.0 C 12.8 31.3 10.1 31.6 12.6 31.9 C 11.6 30.6 10.6 37.7 12.3 34.6 C 13.0 35.4 11.1 40.6 13.3 39.1 C 15.6 39.9 16.8 38.2 18.0 35.7 C 16.7 36.3 19.2 33.2 16.9 35.3 C 16.4 37.3 16.1 31.8 16.9 33.0 C 18.4 33.3 17.9 32.8 17.6 31.9 C 17.3 31.1 17.2 29.7 18.4 29.9 C 16.9 30.0 19.6 25.9 20.1 28.4 C 20.9 28.0 20.5 26.9 22.1 27.4 C 19.3 29.1 22.1 24.7 22.6 26.0 C 22.4 27.0 28.1 25.3 27.1 24.3 C 23.8 22.1 29.2 24.4 29.8 23.0 C 32.4 21.7 29.8 25.6 31.5 23.0 C 32.1 23.3 35.9 22.8 33.6 23.7 C 32.7 23.5 35.6 20.1 36.2 22.7 C 32.1 24.5 41.3 23.3 39.8 22.5 C 32.9 21.2 47.1 21.0 41.7 22.3 C 44.7 23.8 40.7 22.8 44.6 22.4 C 44.2 21.5 47.3 21.0 46.4 22.6 C 46.8 25.2 48.0 19.3 49.9 23.1 C 50.1 24.6 54.9 22.8 52.9 24.1 C 52.8 24.3 53.3 24.7 53.5 24.7 M 52.1 24.2 C 52.7 23.7 52.9 25.0 52.1 24.2 M 52.8 23.7 C 52.8 23.8 52.8 23.8 52.8 23.7 C 52.8 23.7 52.8 23.7 52.8 23.7 Z M 45.2 22.4 C 45.3 22.4 45.3 22.4 45.2 22.4 C 45.2 22.4 45.2 22.4 45.2 22.4 Z M 39.2 15.9 C 39.2 15.9 39.2 15.9 39.2 15.9 C 39.2 15.9 39.2 15.9 39.2 15.9 Z M 40.2 22.0 C 40.3 22.0 40.3 22.0 40.2 22.0 C 40.2 22.0 40.2 22.0 40.2 22.0 Z M 48.0 22.2 C 48.0 22.2 48.0 22.2 48.0 22.2 C 48.0 22.2 48.0 22.2 48.0 22.2 Z M 40.7 23.0 C 40.3 22.0 42.4 23.7 40.6 23.1 C 40.5 23.0 40.9 23.0 40.7 23.0 M 34.6 23.7 C 34.6 23.5 34.6 23.5 34.6 23.7 M 17.2 22.0 C 17.1 21.9 17.1 21.9 17.2 22.0 M 21.0 28.5 C 20.8 28.5 20.8 28.5 21.0 28.5 M 28.5 23.8 C 26.1 24.6 27.7 23.5 28.5 23.8 M 18.5 30.8 C 19.7 29.8 18.2 32.4 18.5 30.8 M 18.5 32.2 C 18.4 32.3 18.4 32.3 18.5 32.2 M 23.2 26.6 C 23.3 26.5 23.3 26.5 23.2 26.6 C 23.2 26.6 23.2 26.6 23.2 26.6 Z M 29.6 23.9 C 32.9 23.6 26.6 25.6 29.6 23.9 M 44.3 23.2 C 42.8 23.6 44.3 22.0 44.3 23.2 M 47.3 22.9 C 47.3 22.9 47.3 22.9 47.3 22.9 C 47.3 22.9 47.3 22.9 47.3 22.9 Z M 20.0 28.8 C 20.1 28.7 20.1 28.7 20.0 28.8 C 20.0 28.8 20.0 28.8 20.0 28.8 Z M 19.0 30.3 C 19.0 30.3 19.0 30.3 19.0 30.3 C 19.0 30.3 19.0 30.3 19.0 30.3 Z M 11.2 31.5 C 11.2 31.4 11.2 31.4 11.2 31.5 C 11.2 31.5 11.2 31.5 11.2 31.5 Z M 45.3 19.8 C 47.3 20.5 43.1 22.0 43.6 20.3 C 43.4 19.6 45.0 20.0 45.3 19.8 M 30.8 21.5 C 29.9 19.3 33.2 24.3 30.8 21.5 M 16.9 32.0 C 13.9 32.5 19.3 31.0 16.9 32.0 M 17.2 34.5 C 16.7 35.3 17.0 30.2 17.6 33.7 C 18.1 34.0 17.5 34.2 17.2 34.5 M 34.4 22.5 C 33.7 21.3 37.3 22.8 34.4 22.5 M 20.8 22.5 C 20.2 23.7 18.6 25.9 18.7 24.0 C 17.6 22.5 21.6 21.2 20.8 22.5 M 51.7 22.7 C 49.8 24.5 52.1 21.0 51.7 22.7 M 44.0 21.7 C 43.9 21.8 43.9 21.8 44.0 21.7 C 44.0 21.7 44.0 21.7 44.0 21.7 Z M 41.0 21.9 C 40.8 21.8 40.8 21.8 41.0 21.9 M 50.2 24.4 C 50.1 24.2 50.1 24.2 50.2 24.4 M 21.9 24.3 C 21.7 24.3 21.7 24.3 21.9 24.3 M 29.0 23.1 C 24.9 22.0 30.9 22.2 29.0 23.1 M 35.2 18.1 C 34.2 17.2 37.1 17.8 35.2 18.1 M 24.1 25.7 C 21.4 24.8 25.9 22.8 24.1 25.7 M 30.5 23.0 C 30.3 23.0 30.3 23.0 30.5 23.0 C 30.5 23.0 30.5 23.0 30.5 23.0 Z M 19.9 22.7 C 19.9 22.7 19.9 22.7 19.9 22.7 C 19.9 22.7 19.9 22.7 19.9 22.7 Z M 19.1 23.4 C 19.2 23.3 19.2 23.3 19.1 23.4 C 19.1 23.4 19.1 23.4 19.1 23.4 Z M 22.1 27.0 C 22.2 26.9 22.2 26.9 22.1 27.0 C 22.1 27.0 22.1 27.0 22.1 27.0 Z M 48.1 17.6 C 45.8 17.2 49.9 17.4 48.1 17.6 C 48.1 17.6 48.1 17.6 48.1 17.6 Z M 38.4 23.0 C 35.1 21.5 40.6 21.4 38.4 23.0 C 38.4 23.0 38.4 23.0 38.4 23.0 Z M 34.5 20.7 C 34.5 20.6 34.5 20.6 34.5 20.7 C 34.5 20.7 34.5 20.7 34.5 20.7 Z M 25.8 26.2 C 25.8 26.1 25.8 26.1 25.8 26.2 C 25.8 26.2 25.8 26.2 25.8 26.2 Z M 46.9 17.2 C 47.0 17.1 47.0 17.1 46.9 17.2 C 46.9 17.2 46.9 17.2 46.9 17.2 Z M 18.1 29.3 C 18.0 29.3 18.0 29.3 18.1 29.3 C 18.1 29.3 18.1 29.3 18.1 29.3 Z M 26.2 19.7 C 25.4 20.7 25.8 19.1 26.2 19.7 C 26.2 19.7 26.2 19.7 26.2 19.7 Z M 22.4 21.0 C 22.3 21.1 22.3 21.1 22.4 21.0 C 22.4 21.0 22.4 21.0 22.4 21.0 Z M 18.5 32.6 C 18.6 32.7 18.6 32.7 18.5 32.6 C 18.5 32.6 18.5 32.6 18.5 32.6 Z M 13.9 25.1 C 13.8 25.2 13.8 25.2 13.9 25.1 C 13.9 25.1 13.9 25.1 13.9 25.1 Z M 14.3 28.6 C 14.3 28.6 14.3 28.6 14.3 28.6 C 14.3 28.6 14.3 28.6 14.3 28.6 Z M 22.3 26.3 C 20.1 28.1 22.4 25.3 22.3 26.3 C 22.3 26.3 22.3 26.3 22.3 26.3 Z M 13.8 35.6 C 13.6 35.7 13.6 35.7 13.8 35.6 C 13.8 35.6 13.8 35.6 13.8 35.6 Z M 16.7 36.4 C 16.6 36.5 16.6 36.5 16.7 36.4 C 16.7 36.4 16.7 36.4 16.7 36.4 Z M 18.2 36.5 C 18.1 36.6 18.1 36.6 18.2 36.5 C 18.2 36.5 18.2 36.5 18.2 36.5 Z M 41.0 19.0 C 41.1 19.1 41.1 19.1 41.0 19.0 C 41.0 19.0 41.0 19.0 41.0 19.0 Z M 42.2 23.4 C 42.2 23.5 42.2 23.5 42.2 23.4 C 42.2 23.4 42.2 23.4 42.2 23.4 Z M 38.2 23.7 C 38.2 23.7 38.2 23.7 38.2 23.7 C 38.2 23.7 38.2 23.7 38.2 23.7 Z M 41.9 16.4 C 41.9 16.5 41.9 16.5 41.9 16.4 C 41.9 16.4 41.9 16.4 41.9 16.4 Z M 25.9 22.2 C 26.0 22.3 26.0 22.3 25.9 22.2 C 25.9 22.2 25.9 22.2 25.9 22.2 Z M 23.5 21.2 C 23.7 21.3 23.7 21.3 23.5 21.2 C 23.5 21.2 23.5 21.2 23.5 21.2 Z M 27.6 17.5 C 27.6 17.5 27.6 17.5 27.6 17.5 C 27.6 17.5 27.6 17.5 27.6 17.5 Z M 21.6 20.4 C 21.7 20.4 21.7 20.4 21.6 20.4 C 21.6 20.4 21.6 20.4 21.6 20.4 Z M 53.3 18.4 C 53.3 18.3 53.3 18.3 53.3 18.4 C 53.3 18.4 53.3 18.4 53.3 18.4 Z M 53.1 21.7 C 53.2 21.6 53.2 21.6 53.1 21.7 C 53.1 21.7 53.1 21.7 53.1 21.7 Z M 26.2 24.7 C 25.7 25.7 24.3 24.4 26.2 24.7 M 32.1 22.8 C 32.2 22.7 32.2 22.7 32.1 22.8 C 32.1 22.8 32.1 22.8 32.1 22.8 Z M 18.8 29.4 C 17.5 29.0 20.5 28.3 18.8 29.4 C 18.8 29.4 18.8 29.4 18.8 29.4 Z M 16.8 23.5 C 16.7 23.5 16.7 23.5 16.8 23.5 C 16.8 23.5 16.8 23.5 16.8 23.5 Z M 15.9 25.1 C 15.7 25.1 15.7 25.1 15.9 25.1 C 15.9 25.1 15.9 25.1 15.9 25.1 Z M 15.9 33.2 C 15.7 33.4 15.7 33.4 15.9 33.2 M 33.0 23.8 C 32.1 23.4 32.3 23.5 33.0 23.8 M 18.1 30.5 C 18.1 30.4 18.1 30.4 18.1 30.5 C 18.1 30.5 18.1 30.5 18.1 30.5 Z M 16.6 34.6 C 16.6 34.5 16.6 34.5 16.6 34.6 C 16.6 34.6 16.6 34.6 16.6 34.6 Z M 36.7 22.5 C 36.5 20.9 37.3 21.2 36.7 22.5 M 48.6 22.4 C 48.6 22.3 48.6 22.3 48.6 22.4 C 48.6 22.4 48.6 22.4 48.6 22.4 Z M 20.7 41.1 C 20.1 37.5 18.4 39.0 18.4 39.0 C 21.5 37.7 16.1 37.2 15.7 38.0 C 15.5 38.1 14.2 39.2 13.6 40.6 C 13.1 42.0 13.4 43.7 15.7 43.8 C 16.5 44.1 16.0 45.1 16.3 45.6 C 19.7 49.5 15.0 41.9 19.5 46.4 C 19.7 47.0 19.1 47.5 19.0 48.1 C 18.9 48.7 19.6 49.7 21.3 49.9 C 21.3 50.2 23.2 53.0 23.0 51.2 C 23.4 53.2 25.2 52.5 26.6 53.0 C 27.4 54.3 24.5 54.3 29.6 55.3 C 30.3 58.3 32.8 55.0 33.6 58.2 C 34.7 58.8 38.2 55.6 34.5 56.7 C 35.0 56.6 34.1 54.1 37.4 56.2 C 36.7 56.5 33.0 59.9 39.7 60.0 C 40.7 60.5 43.4 60.2 43.8 60.8 C 40.5 60.3 47.7 63.8 47.2 62.3 C 52.1 64.4 49.5 61.8 53.0 63.9 C 56.0 64.4 52.3 61.9 55.9 63.5 C 58.7 63.6 56.7 64.4 56.4 64.3 C 58.8 64.8 59.8 64.1 60.6 64.2 C 61.1 64.5 62.2 65.4 62.8 64.3 C 65.4 62.5 63.2 60.5 64.2 58.5 C 62.6 57.6 63.4 60.0 62.3 58.5 C 61.4 59.7 62.3 58.6 57.5 58.3 C 57.6 58.6 58.6 59.6 57.4 59.5 C 55.6 59.2 57.4 56.1 54.0 57.9 C 57.5 59.2 48.6 58.0 51.9 59.3 C 47.5 58.9 50.7 58.9 47.8 57.4 C 47.5 59.6 48.2 55.0 46.6 56.4 C 46.6 55.5 41.8 54.5 44.8 56.8 C 39.7 55.9 43.1 55.6 41.8 53.9 C 39.7 53.0 40.4 57.2 40.0 54.2 C 37.7 52.0 39.4 55.4 38.2 52.6 C 38.4 54.7 36.2 51.8 36.2 54.0 C 31.4 52.1 37.6 52.3 33.8 52.1 C 34.8 52.6 35.6 50.0 32.9 50.6 C 32.2 53.9 32.0 46.7 31.2 51.3 C 24.6 49.1 31.0 49.2 28.2 47.3 C 27.4 46.8 28.2 49.0 27.5 48.6 C 24.0 45.5 27.9 46.8 24.7 47.1 C 22.8 45.9 22.5 44.9 22.8 44.5 C 23.2 44.1 23.8 43.8 22.9 42.8 C 22.0 43.4 19.2 42.9 20.7 41.1 M 23.4 45.4 C 24.8 45.7 23.5 46.4 23.4 45.4 M 18.3 37.1 C 19.2 37.5 17.8 37.8 18.3 37.1 M 26.8 47.3 C 28.2 47.4 26.4 48.4 26.8 47.3 M 50.6 58.3 C 48.7 57.9 51.5 57.9 50.6 58.3 M 19.9 39.8 C 21.4 40.5 19.2 40.8 19.9 39.8 M 17.7 39.3 C 17.7 39.4 17.7 39.4 17.7 39.3 M 53.6 57.1 C 53.6 57.1 53.6 57.1 53.6 57.1 M 46.5 55.5 C 48.0 55.9 45.5 55.7 46.5 55.5 M 44.3 62.3 C 45.9 62.8 43.2 62.5 44.3 62.3 M 57.4 57.6 C 59.0 57.2 57.8 58.4 57.4 57.6 M 61.3 59.5 C 62.7 58.9 62.1 60.3 61.3 59.5 M 20.9 46.4 C 20.8 46.5 20.8 46.5 20.9 46.4 C 20.9 46.4 20.9 46.4 20.9 46.4 Z M 31.0 55.5 C 29.8 54.1 32.3 57.2 31.0 55.5 M 31.1 50.2 C 31.2 52.0 29.5 49.2 31.1 50.2 C 31.1 50.2 31.1 50.2 31.1 50.2 Z M 28.9 49.7 C 28.8 49.8 28.8 49.8 28.9 49.7 C 28.9 49.7 28.9 49.7 28.9 49.7 Z M 35.1 53.2 C 35.1 53.2 35.1 53.2 35.1 53.2 C 35.1 53.2 35.1 53.2 35.1 53.2 Z M 33.7 52.6 C 33.1 52.7 33.1 52.0 33.7 52.6 C 33.7 52.6 33.7 52.6 33.7 52.6 Z M 42.5 61.0 C 41.8 61.1 41.8 60.5 42.5 61.0 C 42.5 61.0 42.5 61.0 42.5 61.0 Z M 31.5 52.0 C 30.6 53.2 31.0 50.7 31.5 52.0 C 31.5 52.0 31.5 52.0 31.5 52.0 Z M 37.5 58.6 C 38.3 58.5 38.3 60.4 37.5 58.6 M 55.0 57.6 C 55.7 57.3 56.2 59.2 55.0 57.6 M 39.8 53.2 C 40.6 53.0 40.6 54.9 39.8 53.2 M 24.6 45.5 C 24.6 45.8 24.6 45.8 24.6 45.5 M 27.8 55.4 C 29.0 55.5 28.0 56.3 27.8 55.4 M 15.2 44.2 C 16.4 44.9 15.1 45.0 15.2 44.2 M 51.6 63.8 C 51.6 63.4 53.3 64.3 51.6 63.8 M 40.8 56.0 C 42.1 56.6 43.2 57.9 40.4 56.8 C 40.3 56.4 41.2 56.5 40.8 56.0 C 40.8 56.0 40.8 56.0 40.8 56.0 Z M 44.8 60.7 C 44.9 60.9 44.9 60.9 44.8 60.7 M 43.6 55.5 C 43.7 55.7 43.7 55.7 43.6 55.5 M 51.5 57.7 C 51.6 57.9 51.6 57.9 51.5 57.7 M 52.6 57.5 C 52.6 57.5 52.6 57.5 52.6 57.5 C 52.6 57.5 52.6 57.5 52.6 57.5 Z M 61.4 58.0 C 61.4 58.0 61.4 58.0 61.4 58.0 C 61.4 58.0 61.4 58.0 61.4 58.0 Z M 48.9 57.3 C 48.9 57.4 48.9 57.4 48.9 57.3 C 48.9 57.3 48.9 57.3 48.9 57.3 Z M 55.5 64.2 C 55.5 64.2 55.5 64.2 55.5 64.2 C 55.5 64.2 55.5 64.2 55.5 64.2 Z M 54.6 63.2 C 54.6 63.2 54.6 63.2 54.6 63.2 C 54.6 63.2 54.6 63.2 54.6 63.2 Z M 21.2 41.6 C 22.7 41.9 19.7 43.8 21.2 41.6 M 58.8 63.7 C 60.0 64.8 56.6 63.7 58.8 63.7 C 58.8 63.7 58.8 63.7 58.8 63.7 Z M 47.6 58.3 C 47.7 58.5 47.7 58.5 47.6 58.3 M 53.1 57.7 C 53.2 57.9 53.2 57.9 53.1 57.7 M 31.7 49.1 C 31.7 49.3 31.7 49.3 31.7 49.1 M 59.2 58.8 C 63.0 59.5 57.4 60.7 59.2 58.8 M 29.6 49.5 C 29.6 49.3 29.6 49.3 29.6 49.5 M 35.7 55.6 C 38.1 56.6 34.6 56.0 35.7 55.6 M 42.5 56.3 C 42.5 56.3 42.5 56.3 42.5 56.3 C 42.5 56.3 42.5 56.3 42.5 56.3 Z M 39.0 55.0 C 37.1 54.5 38.7 54.4 39.0 55.0 C 39.0 55.0 39.0 55.0 39.0 55.0 Z M 21.5 44.0 C 23.2 46.1 19.2 42.3 21.5 44.0 C 21.5 44.0 21.5 44.0 21.5 44.0 Z M 57.1 62.0 C 57.0 62.1 57.0 62.1 57.1 62.0 C 57.1 62.0 57.1 62.0 57.1 62.0 Z M 48.7 56.2 C 47.5 56.3 48.3 55.7 48.7 56.2 C 48.7 56.2 48.7 56.2 48.7 56.2 Z M 62.7 58.0 C 61.6 58.4 62.2 57.6 62.7 58.0 C 62.7 58.0 62.7 58.0 62.7 58.0 Z M 19.6 41.5 C 23.0 49.9 13.0 31.8 19.6 41.5 C 19.6 41.5 19.6 41.5 19.6 41.5 Z M 40.7 54.6 C 40.6 54.6 40.6 54.6 40.7 54.6 C 40.7 54.6 40.7 54.6 40.7 54.6 Z M 27.6 46.8 C 27.6 46.9 27.6 46.9 27.6 46.8 C 27.6 46.8 27.6 46.8 27.6 46.8 Z M 24.9 46.5 C 24.9 46.5 24.9 46.5 24.9 46.5 C 24.9 46.5 24.9 46.5 24.9 46.5 Z M 22.0 51.4 C 21.9 51.4 21.9 51.4 22.0 51.4 C 22.0 51.4 22.0 51.4 22.0 51.4 Z M 24.3 49.9 C 24.1 50.0 24.1 50.0 24.3 49.9 C 24.3 49.9 24.3 49.9 24.3 49.9 Z M 18.8 46.4 C 18.7 46.4 18.7 46.4 18.8 46.4 C 18.8 46.4 18.8 46.4 18.8 46.4 Z M 18.4 47.1 C 18.3 47.1 18.3 47.1 18.4 47.1 C 18.4 47.1 18.4 47.1 18.4 47.1 Z M 52.8 59.3 C 52.7 59.4 52.7 59.4 52.8 59.3 C 52.8 59.3 52.8 59.3 52.8 59.3 Z M 49.2 61.0 C 51.5 60.6 48.3 62.0 49.2 61.0 C 49.2 61.0 49.2 61.0 49.2 61.0 Z M 31.9 53.6 C 33.7 54.2 30.5 53.7 31.9 53.6 C 31.9 53.6 31.9 53.6 31.9 53.6 Z M 32.4 57.3 C 32.4 57.3 32.4 57.3 32.4 57.3 C 32.4 57.3 32.4 57.3 32.4 57.3 Z M 25.8 45.4 C 25.7 45.5 25.7 45.5 25.8 45.4 C 25.8 45.4 25.8 45.4 25.8 45.4 Z M 22.4 43.7 C 21.4 44.5 22.0 42.4 22.4 43.7 M 36.4 52.0 C 36.4 52.2 36.4 52.2 36.4 52.0 C 36.4 52.0 36.4 52.0 36.4 52.0 Z M 46.2 57.5 C 46.1 57.5 46.1 57.5 46.2 57.5 C 46.2 57.5 46.2 57.5 46.2 57.5 Z M 57.2 58.8 C 57.2 59.0 57.2 59.0 57.2 58.8 C 57.2 58.8 57.2 58.8 57.2 58.8 Z M 42.6 54.6 C 42.5 54.7 42.5 54.7 42.6 54.6 C 42.6 54.6 42.6 54.6 42.6 54.6 Z M 37.4 53.8 C 37.3 53.9 37.3 53.9 37.4 53.8 C 37.4 53.8 37.4 53.8 37.4 53.8 Z M 59.5 60.8 C 59.4 60.8 59.4 60.8 59.5 60.8 C 59.5 60.8 59.5 60.8 59.5 60.8 Z M 43.8 54.8 C 43.8 54.8 43.8 54.8 43.8 54.8 C 43.8 54.8 43.8 54.8 43.8 54.8 Z M 45.9 59.4 C 45.8 59.4 45.8 59.4 45.9 59.4 C 45.9 59.4 45.9 59.4 45.9 59.4 Z M 24.0 42.9 C 23.9 42.9 23.9 42.9 24.0 42.9 C 24.0 42.9 24.0 42.9 24.0 42.9 Z M 59.7 59.2 C 59.7 59.2 59.7 59.2 59.7 59.2 C 59.7 59.2 59.7 59.2 59.7 59.2 Z M 60.5 58.2 C 60.4 58.2 60.4 58.2 60.5 58.2 C 60.5 58.2 60.5 58.2 60.5 58.2 Z M 51.9 62.8 C 47.9 61.4 55.5 63.2 52.8 61.4 C 58.6 62.1 52.7 63.0 51.9 62.8 C 51.9 62.8 51.9 62.8 51.9 62.8 Z M 51.9 62.8 " fill="#D31D03"></path></g></svg>