<?xml version="1.0" encoding="UTF-8" standalone="no"?><svg xmlns="http://www.w3.org/2000/svg" xmlns:xlink="http://www.w3.org/1999/xlink" clip-rule="evenodd" stroke-miterlimit="10" viewBox="0 0 1024 768"><desc>SVG generated by Keynote</desc><defs></defs><g transform="matrix(1.00, 0.00, -0.00, -1.00, 0.0, 768.0)"><g><clipPath id="clip0x6080024bb300"><path d="M 0.0 768.0 L 1024.0 768.0 L 1024.0 0.0 L 0.0 0.0 Z M 0.0 768.0 "></path></clipPath><g clip-path="url(#clip0x6080024bb300)"><image xlink:href="../../384E26B0-0AD0-495F-BA75-267B55ABD0BD/assets/31D284A5C75E14674D2A89FDB99F8048.jpeg" width="2048.00" height="1536.00" transform="matrix(0.50, 0.00, -0.00, -0.50, 0.0, 768.0)"></image></g></g><image xlink:href="../../B7926E29-F1B0-439B-ACE4-87329F578DA9/assets/7138F6C341E8B9819B2C3B3714808FCB.png" width="1786.00" height="1090.00" transform="matrix(0.57, 0.00, -0.00, -0.57, 0.0, 754.0)"></image><image xlink:href="../../B7926E29-F1B0-439B-ACE4-87329F578DA9/assets/2B896FA376FB928881131A8C77E6778B.png" width="1068.00" height="675.00" transform="matrix(1.00, 0.00, -0.00, 1.00, -22.0, 105.0)"></image><image xlink:href="../../B7926E29-F1B0-439B-ACE4-87329F578DA9/assets/6B9F8BF3C8C822230C8EEF1112EB6529.png" width="987.00" height="32.00" transform="matrix(1.00, 0.00, -0.00, -1.00, 20.0, 111.0)"></image><text xml:space="preserve" font-family="HelveticaNeue-Medium,Helvetica Neue" font-size="26.0" fill="#EAEAEA" transform="matrix(1.00, 0.00, -0.00, -1.00, 22.1, 90.4)">D</text><text xml:space="preserve" font-family="HelveticaNeue-Medium,Helvetica Neue" font-size="26.0" fill="#EAEAEA" transform="matrix(1.00, 0.00, -0.00, -1.00, 40.9, 90.4)">u</text><text xml:space="preserve" font-family="HelveticaNeue-Medium,Helvetica Neue" font-size="26.0" fill="#EAEAEA" transform="matrix(1.00, 0.00, -0.00, -1.00, 55.8, 90.4)">n</text><text xml:space="preserve" font-family="HelveticaNeue-Medium,Helvetica Neue" font-size="26.0" fill="#EAEAEA" transform="matrix(1.00, 0.00, -0.00, -1.00, 70.7, 90.4)">l</text><text xml:space="preserve" font-family="HelveticaNeue-Medium,Helvetica Neue" font-size="26.0" fill="#EAEAEA" transform="matrix(1.00, 0.00, -0.00, -1.00, 77.0, 90.4)">e</text><text xml:space="preserve" font-family="HelveticaNeue-Medium,Helvetica Neue" font-size="26.0" fill="#EAEAEA" transform="matrix(1.00, 0.00, -0.00, -1.00, 91.5, 90.4)">a</text><text xml:space="preserve" font-family="HelveticaNeue-Medium,Helvetica Neue" font-size="26.0" fill="#EAEAEA" transform="matrix(1.00, 0.00, -0.00, -1.00, 105.9, 90.4)">v</text><text xml:space="preserve" font-family="HelveticaNeue-Medium,Helvetica Neue" font-size="26.0" fill="#EAEAEA" transform="matrix(1.00, 0.00, -0.00, -1.00, 119.4, 90.4)">y</text><text xml:space="preserve" font-family="HelveticaNeue-Medium,Helvetica Neue" font-size="26.0" fill="#EAEAEA" transform="matrix(1.00, 0.00, -0.00, -1.00, 132.9, 90.4)"> </text><text xml:space="preserve" font-family="HelveticaNeue-Medium,Helvetica Neue" font-size="26.0" fill="#EAEAEA" transform="matrix(1.00, 0.00, -0.00, -1.00, 140.1, 90.4)">K</text><text xml:space="preserve" font-family="HelveticaNeue-Medium,Helvetica Neue" font-size="26.0" fill="#EAEAEA" transform="matrix(1.00, 0.00, -0.00, -1.00, 157.9, 90.4)">,</text><text xml:space="preserve" font-family="HelveticaNeue-Medium,Helvetica Neue" font-size="26.0" fill="#EAEAEA" transform="matrix(1.00, 0.00, -0.00, -1.00, 165.2, 90.4)"> </text><text xml:space="preserve" font-family="HelveticaNeue-Medium,Helvetica Neue" font-size="26.0" fill="#EAEAEA" transform="matrix(1.00, 0.00, -0.00, -1.00, 172.4, 90.4)">R</text><text xml:space="preserve" font-family="HelveticaNeue-Medium,Helvetica Neue" font-size="26.0" fill="#EAEAEA" transform="matrix(1.00, 0.00, -0.00, -1.00, 190.7, 90.4)">o</text><text xml:space="preserve" font-family="HelveticaNeue-Medium,Helvetica Neue" font-size="26.0" fill="#EAEAEA" transform="matrix(1.00, 0.00, -0.00, -1.00, 206.1, 90.4)">s</text><text xml:space="preserve" font-family="HelveticaNeue-Medium,Helvetica Neue" font-size="26.0" fill="#EAEAEA" transform="matrix(1.00, 0.00, -0.00, -1.00, 219.6, 90.4)">c</text><text xml:space="preserve" font-family="HelveticaNeue-Medium,Helvetica Neue" font-size="26.0" fill="#EAEAEA" transform="matrix(1.00, 0.00, -0.00, -1.00, 234.1, 90.4)">h</text><text xml:space="preserve" font-family="HelveticaNeue-Medium,Helvetica Neue" font-size="26.0" fill="#EAEAEA" transform="matrix(1.00, 0.00, -0.00, -1.00, 249.0, 90.4)">e</text><text xml:space="preserve" font-family="HelveticaNeue-Medium,Helvetica Neue" font-size="26.0" fill="#EAEAEA" transform="matrix(1.00, 0.00, -0.00, -1.00, 263.5, 90.4)">w</text><text xml:space="preserve" font-family="HelveticaNeue-Medium,Helvetica Neue" font-size="26.0" fill="#EAEAEA" transform="matrix(1.00, 0.00, -0.00, -1.00, 283.7, 90.4)">s</text><text xml:space="preserve" font-family="HelveticaNeue-Medium,Helvetica Neue" font-size="26.0" fill="#EAEAEA" transform="matrix(1.00, 0.00, -0.00, -1.00, 297.2, 90.4)">k</text><text xml:space="preserve" font-family="HelveticaNeue-Medium,Helvetica Neue" font-size="26.0" fill="#EAEAEA" transform="matrix(1.00, 0.00, -0.00, -1.00, 311.1, 90.4)">i</text><text xml:space="preserve" font-family="HelveticaNeue-Medium,Helvetica Neue" font-size="26.0" fill="#EAEAEA" transform="matrix(1.00, 0.00, -0.00, -1.00, 317.4, 90.4)"> </text><text xml:space="preserve" font-family="HelveticaNeue-Medium,Helvetica Neue" font-size="26.0" fill="#EAEAEA" transform="matrix(1.00, 0.00, -0.00, -1.00, 324.6, 90.4)">M</text><text xml:space="preserve" font-family="HelveticaNeue-Medium,Helvetica Neue" font-size="26.0" fill="#EAEAEA" transform="matrix(1.00, 0.00, -0.00, -1.00, 347.7, 90.4)">,</text><text xml:space="preserve" font-family="HelveticaNeue-Medium,Helvetica Neue" font-size="26.0" fill="#EAEAEA" transform="matrix(1.00, 0.00, -0.00, -1.00, 355.0, 90.4)"> </text><text xml:space="preserve" font-family="HelveticaNeue-Medium,Helvetica Neue" font-size="26.0" fill="#EAEAEA" transform="matrix(1.00, 0.00, -0.00, -1.00, 362.2, 90.4)">W</text><text xml:space="preserve" font-family="HelveticaNeue-Medium,Helvetica Neue" font-size="26.0" fill="#EAEAEA" transform="matrix(1.00, 0.00, -0.00, -1.00, 386.7, 90.4)">i</text><text xml:space="preserve" font-family="HelveticaNeue-Medium,Helvetica Neue" font-size="26.0" fill="#EAEAEA" transform="matrix(1.00, 0.00, -0.00, -1.00, 393.0, 90.4)">l</text><text xml:space="preserve" font-family="HelveticaNeue-Medium,Helvetica Neue" font-size="26.0" fill="#EAEAEA" transform="matrix(1.00, 0.00, -0.00, -1.00, 399.3, 90.4)">s</text><text xml:space="preserve" font-family="HelveticaNeue-Medium,Helvetica Neue" font-size="26.0" fill="#EAEAEA" transform="matrix(1.00, 0.00, -0.00, -1.00, 412.8, 90.4)">o</text><text xml:space="preserve" font-family="HelveticaNeue-Medium,Helvetica Neue" font-size="26.0" fill="#EAEAEA" transform="matrix(1.00, 0.00, -0.00, -1.00, 428.2, 90.4)">n</text><text xml:space="preserve" font-family="HelveticaNeue-Medium,Helvetica Neue" font-size="26.0" fill="#EAEAEA" transform="matrix(1.00, 0.00, -0.00, -1.00, 443.1, 90.4)"> </text><text xml:space="preserve" font-family="HelveticaNeue-Medium,Helvetica Neue" font-size="26.0" fill="#EAEAEA" transform="matrix(1.00, 0.00, -0.00, -1.00, 450.3, 90.4)">W</text><text xml:space="preserve" font-family="HelveticaNeue-Medium,Helvetica Neue" font-size="26.0" fill="#EAEAEA" transform="matrix(1.00, 0.00, -0.00, -1.00, 474.9, 90.4)">H</text><text xml:space="preserve" font-family="HelveticaNeue-Medium,Helvetica Neue" font-size="26.0" fill="#EAEAEA" transform="matrix(1.00, 0.00, -0.00, -1.00, 493.7, 90.4)">.</text><text xml:space="preserve" font-family="HelveticaNeue-Medium,Helvetica Neue" font-size="26.0" fill="#EAEAEA" transform="matrix(1.00, 0.00, -0.00, -1.00, 500.9, 90.4)"> </text><text xml:space="preserve" font-family="HelveticaNeue-Medium,Helvetica Neue" font-size="26.0" fill="#EAEAEA" transform="matrix(1.00, 0.00, -0.00, -1.00, 508.1, 90.4)">P</text><text xml:space="preserve" font-family="HelveticaNeue-Medium,Helvetica Neue" font-size="26.0" fill="#EAEAEA" transform="matrix(1.00, 0.00, -0.00, -1.00, 525.5, 90.4)">r</text><text xml:space="preserve" font-family="HelveticaNeue-Medium,Helvetica Neue" font-size="26.0" fill="#EAEAEA" transform="matrix(1.00, 0.00, -0.00, -1.00, 534.1, 90.4)">e</text><text xml:space="preserve" font-family="HelveticaNeue-Medium,Helvetica Neue" font-size="26.0" fill="#EAEAEA" transform="matrix(1.00, 0.00, -0.00, -1.00, 548.6, 90.4)">c</text><text xml:space="preserve" font-family="HelveticaNeue-Medium,Helvetica Neue" font-size="26.0" fill="#EAEAEA" transform="matrix(1.00, 0.00, -0.00, -1.00, 563.1, 90.4)">i</text><text xml:space="preserve" font-family="HelveticaNeue-Medium,Helvetica Neue" font-size="26.0" fill="#EAEAEA" transform="matrix(1.00, 0.00, -0.00, -1.00, 569.3, 90.4)">s</text><text xml:space="preserve" font-family="HelveticaNeue-Medium,Helvetica Neue" font-size="26.0" fill="#EAEAEA" transform="matrix(1.00, 0.00, -0.00, -1.00, 582.8, 90.4)">i</text><text xml:space="preserve" font-family="HelveticaNeue-Medium,Helvetica Neue" font-size="26.0" fill="#EAEAEA" transform="matrix(1.00, 0.00, -0.00, -1.00, 589.1, 90.4)">o</text><text xml:space="preserve" font-family="HelveticaNeue-Medium,Helvetica Neue" font-size="26.0" fill="#EAEAEA" transform="matrix(1.00, 0.00, -0.00, -1.00, 604.5, 90.4)">n</text><text xml:space="preserve" font-family="HelveticaNeue-Medium,Helvetica Neue" font-size="26.0" fill="#EAEAEA" transform="matrix(1.00, 0.00, -0.00, -1.00, 619.4, 90.4)"> </text><text xml:space="preserve" font-family="HelveticaNeue-Medium,Helvetica Neue" font-size="26.0" fill="#EAEAEA" transform="matrix(1.00, 0.00, -0.00, -1.00, 626.6, 90.4)">T</text><text xml:space="preserve" font-family="HelveticaNeue-Medium,Helvetica Neue" font-size="26.0" fill="#EAEAEA" transform="matrix(1.00, 0.00, -0.00, -1.00, 639.7, 90.4)">r</text><text xml:space="preserve" font-family="HelveticaNeue-Medium,Helvetica Neue" font-size="26.0" fill="#EAEAEA" transform="matrix(1.00, 0.00, -0.00, -1.00, 648.4, 90.4)">e</text><text xml:space="preserve" font-family="HelveticaNeue-Medium,Helvetica Neue" font-size="26.0" fill="#EAEAEA" transform="matrix(1.00, 0.00, -0.00, -1.00, 662.8, 90.4)">a</text><text xml:space="preserve" font-family="HelveticaNeue-Medium,Helvetica Neue" font-size="26.0" fill="#EAEAEA" transform="matrix(1.00, 0.00, -0.00, -1.00, 677.3, 90.4)">t</text><text xml:space="preserve" font-family="HelveticaNeue-Medium,Helvetica Neue" font-size="26.0" fill="#EAEAEA" transform="matrix(1.00, 0.00, -0.00, -1.00, 685.9, 90.4)">m</text><text xml:space="preserve" font-family="HelveticaNeue-Medium,Helvetica Neue" font-size="26.0" fill="#EAEAEA" transform="matrix(1.00, 0.00, -0.00, -1.00, 708.5, 90.4)">e</text><text xml:space="preserve" font-family="HelveticaNeue-Medium,Helvetica Neue" font-size="26.0" fill="#EAEAEA" transform="matrix(1.00, 0.00, -0.00, -1.00, 723.0, 90.4)">n</text><text xml:space="preserve" font-family="HelveticaNeue-Medium,Helvetica Neue" font-size="26.0" fill="#EAEAEA" transform="matrix(1.00, 0.00, -0.00, -1.00, 737.9, 90.4)">t</text><text xml:space="preserve" font-family="HelveticaNeue-Medium,Helvetica Neue" font-size="26.0" fill="#EAEAEA" transform="matrix(1.00, 0.00, -0.00, -1.00, 746.6, 90.4)"> </text><text xml:space="preserve" font-family="HelveticaNeue-Medium,Helvetica Neue" font-size="26.0" fill="#EAEAEA" transform="matrix(1.00, 0.00, -0.00, -1.00, 753.8, 90.4)">o</text><text xml:space="preserve" font-family="HelveticaNeue-Medium,Helvetica Neue" font-size="26.0" fill="#EAEAEA" transform="matrix(1.00, 0.00, -0.00, -1.00, 769.2, 90.4)">f</text><text xml:space="preserve" font-family="HelveticaNeue-Medium,Helvetica Neue" font-size="26.0" fill="#EAEAEA" transform="matrix(1.00, 0.00, -0.00, -1.00, 777.4, 90.4)"> </text><text xml:space="preserve" font-family="HelveticaNeue-Medium,Helvetica Neue" font-size="26.0" fill="#EAEAEA" transform="matrix(1.00, 0.00, -0.00, -1.00, 784.6, 90.4)">D</text><text xml:space="preserve" font-family="HelveticaNeue-Medium,Helvetica Neue" font-size="26.0" fill="#EAEAEA" transform="matrix(1.00, 0.00, -0.00, -1.00, 803.4, 90.4)">i</text><text xml:space="preserve" font-family="HelveticaNeue-Medium,Helvetica Neue" font-size="26.0" fill="#EAEAEA" transform="matrix(1.00, 0.00, -0.00, -1.00, 809.7, 90.4)">s</text><text xml:space="preserve" font-family="HelveticaNeue-Medium,Helvetica Neue" font-size="26.0" fill="#EAEAEA" transform="matrix(1.00, 0.00, -0.00, -1.00, 823.2, 90.4)">t</text><text xml:space="preserve" font-family="HelveticaNeue-Medium,Helvetica Neue" font-size="26.0" fill="#EAEAEA" transform="matrix(1.00, 0.00, -0.00, -1.00, 831.8, 90.4)">i</text><text xml:space="preserve" font-family="HelveticaNeue-Medium,Helvetica Neue" font-size="26.0" fill="#EAEAEA" transform="matrix(1.00, 0.00, -0.00, -1.00, 838.1, 90.4)">n</text><text xml:space="preserve" font-family="HelveticaNeue-Medium,Helvetica Neue" font-size="26.0" fill="#EAEAEA" transform="matrix(1.00, 0.00, -0.00, -1.00, 853.0, 90.4)">c</text><text xml:space="preserve" font-family="HelveticaNeue-Medium,Helvetica Neue" font-size="26.0" fill="#EAEAEA" transform="matrix(1.00, 0.00, -0.00, -1.00, 867.5, 90.4)">t</text><text xml:space="preserve" font-family="HelveticaNeue-Medium,Helvetica Neue" font-size="26.0" fill="#EAEAEA" transform="matrix(1.00, 0.00, -0.00, -1.00, 876.1, 90.4)"> </text><text xml:space="preserve" font-family="HelveticaNeue-Medium,Helvetica Neue" font-size="26.0" fill="#EAEAEA" transform="matrix(1.00, 0.00, -0.00, -1.00, 883.4, 90.4)">M</text><text xml:space="preserve" font-family="HelveticaNeue-Medium,Helvetica Neue" font-size="26.0" fill="#EAEAEA" transform="matrix(1.00, 0.00, -0.00, -1.00, 906.5, 90.4)">o</text><text xml:space="preserve" font-family="HelveticaNeue-Medium,Helvetica Neue" font-size="26.0" fill="#EAEAEA" transform="matrix(1.00, 0.00, -0.00, -1.00, 921.9, 90.4)">l</text><text xml:space="preserve" font-family="HelveticaNeue-Medium,Helvetica Neue" font-size="26.0" fill="#EAEAEA" transform="matrix(1.00, 0.00, -0.00, -1.00, 928.2, 90.4)">e</text><text xml:space="preserve" font-family="HelveticaNeue-Medium,Helvetica Neue" font-size="26.0" fill="#EAEAEA" transform="matrix(1.00, 0.00, -0.00, -1.00, 942.6, 90.4)">c</text><text xml:space="preserve" font-family="HelveticaNeue-Medium,Helvetica Neue" font-size="26.0" fill="#EAEAEA" transform="matrix(1.00, 0.00, -0.00, -1.00, 957.1, 90.4)">u</text><text xml:space="preserve" font-family="HelveticaNeue-Medium,Helvetica Neue" font-size="26.0" fill="#EAEAEA" transform="matrix(1.00, 0.00, -0.00, -1.00, 972.0, 90.4)">l</text><text xml:space="preserve" font-family="HelveticaNeue-Medium,Helvetica Neue" font-size="26.0" fill="#EAEAEA" transform="matrix(1.00, 0.00, -0.00, -1.00, 978.3, 90.4)">a</text><text xml:space="preserve" font-family="HelveticaNeue-Medium,Helvetica Neue" font-size="26.0" fill="#EAEAEA" transform="matrix(1.00, 0.00, -0.00, -1.00, 992.7, 90.4)">r</text><text xml:space="preserve" font-family="HelveticaNeue-Medium,Helvetica Neue" font-size="26.0" fill="#EAEAEA" transform="matrix(1.00, 0.00, -0.00, -1.00, 1001.9, 90.4)"> </text><image xlink:href="../../B7926E29-F1B0-439B-ACE4-87329F578DA9/assets/5EE2226A3C589D2AE91572B8F50F2BDB.png" width="958.00" height="33.00" transform="matrix(1.00, 0.00, -0.00, -1.00, 33.0, 80.0)"></image><text xml:space="preserve" font-family="HelveticaNeue-Medium,Helvetica Neue" font-size="26.0" fill="#EAEAEA" transform="matrix(1.00, 0.00, -0.00, -1.00, 36.8, 58.4)">S</text><text xml:space="preserve" font-family="HelveticaNeue-Medium,Helvetica Neue" font-size="26.0" fill="#EAEAEA" transform="matrix(1.00, 0.00, -0.00, -1.00, 53.7, 58.4)">u</text><text xml:space="preserve" font-family="HelveticaNeue-Medium,Helvetica Neue" font-size="26.0" fill="#EAEAEA" transform="matrix(1.00, 0.00, -0.00, -1.00, 68.6, 58.4)">b</text><text xml:space="preserve" font-family="HelveticaNeue-Medium,Helvetica Neue" font-size="26.0" fill="#EAEAEA" transform="matrix(1.00, 0.00, -0.00, -1.00, 84.5, 58.4)">t</text><text xml:space="preserve" font-family="HelveticaNeue-Medium,Helvetica Neue" font-size="26.0" fill="#EAEAEA" transform="matrix(1.00, 0.00, -0.00, -1.00, 93.1, 58.4)">y</text><text xml:space="preserve" font-family="HelveticaNeue-Medium,Helvetica Neue" font-size="26.0" fill="#EAEAEA" transform="matrix(1.00, 0.00, -0.00, -1.00, 106.6, 58.4)">p</text><text xml:space="preserve" font-family="HelveticaNeue-Medium,Helvetica Neue" font-size="26.0" fill="#EAEAEA" transform="matrix(1.00, 0.00, -0.00, -1.00, 122.5, 58.4)">e</text><text xml:space="preserve" font-family="HelveticaNeue-Medium,Helvetica Neue" font-size="26.0" fill="#EAEAEA" transform="matrix(1.00, 0.00, -0.00, -1.00, 137.0, 58.4)">s</text><text xml:space="preserve" font-family="HelveticaNeue-Medium,Helvetica Neue" font-size="26.0" fill="#EAEAEA" transform="matrix(1.00, 0.00, -0.00, -1.00, 150.5, 58.4)"> </text><text xml:space="preserve" font-family="HelveticaNeue-Medium,Helvetica Neue" font-size="26.0" fill="#EAEAEA" transform="matrix(1.00, 0.00, -0.00, -1.00, 157.7, 58.4)">o</text><text xml:space="preserve" font-family="HelveticaNeue-Medium,Helvetica Neue" font-size="26.0" fill="#EAEAEA" transform="matrix(1.00, 0.00, -0.00, -1.00, 173.1, 58.4)">f</text><text xml:space="preserve" font-family="HelveticaNeue-Medium,Helvetica Neue" font-size="26.0" fill="#EAEAEA" transform="matrix(1.00, 0.00, -0.00, -1.00, 181.3, 58.4)"> </text><text xml:space="preserve" font-family="HelveticaNeue-Medium,Helvetica Neue" font-size="26.0" fill="#EAEAEA" transform="matrix(1.00, 0.00, -0.00, -1.00, 188.5, 58.4)">D</text><text xml:space="preserve" font-family="HelveticaNeue-Medium,Helvetica Neue" font-size="26.0" fill="#EAEAEA" transform="matrix(1.00, 0.00, -0.00, -1.00, 207.3, 58.4)">i</text><text xml:space="preserve" font-family="HelveticaNeue-Medium,Helvetica Neue" font-size="26.0" fill="#EAEAEA" transform="matrix(1.00, 0.00, -0.00, -1.00, 213.6, 58.4)">f</text><text xml:space="preserve" font-family="HelveticaNeue-Medium,Helvetica Neue" font-size="26.0" fill="#EAEAEA" transform="matrix(1.00, 0.00, -0.00, -1.00, 221.3, 58.4)">f</text><text xml:space="preserve" font-family="HelveticaNeue-Medium,Helvetica Neue" font-size="26.0" fill="#EAEAEA" transform="matrix(1.00, 0.00, -0.00, -1.00, 229.5, 58.4)">u</text><text xml:space="preserve" font-family="HelveticaNeue-Medium,Helvetica Neue" font-size="26.0" fill="#EAEAEA" transform="matrix(1.00, 0.00, -0.00, -1.00, 244.4, 58.4)">s</text><text xml:space="preserve" font-family="HelveticaNeue-Medium,Helvetica Neue" font-size="26.0" fill="#EAEAEA" transform="matrix(1.00, 0.00, -0.00, -1.00, 257.9, 58.4)">e</text><text xml:space="preserve" font-family="HelveticaNeue-Medium,Helvetica Neue" font-size="26.0" fill="#EAEAEA" transform="matrix(1.00, 0.00, -0.00, -1.00, 272.4, 58.4)"> </text><text xml:space="preserve" font-family="HelveticaNeue-Medium,Helvetica Neue" font-size="26.0" fill="#EAEAEA" transform="matrix(1.00, 0.00, -0.00, -1.00, 279.6, 58.4)">L</text><text xml:space="preserve" font-family="HelveticaNeue-Medium,Helvetica Neue" font-size="26.0" fill="#EAEAEA" transform="matrix(1.00, 0.00, -0.00, -1.00, 294.5, 58.4)">a</text><text xml:space="preserve" font-family="HelveticaNeue-Medium,Helvetica Neue" font-size="26.0" fill="#EAEAEA" transform="matrix(1.00, 0.00, -0.00, -1.00, 309.0, 58.4)">r</text><text xml:space="preserve" font-family="HelveticaNeue-Medium,Helvetica Neue" font-size="26.0" fill="#EAEAEA" transform="matrix(1.00, 0.00, -0.00, -1.00, 318.1, 58.4)">g</text><text xml:space="preserve" font-family="HelveticaNeue-Medium,Helvetica Neue" font-size="26.0" fill="#EAEAEA" transform="matrix(1.00, 0.00, -0.00, -1.00, 333.5, 58.4)">e</text><text xml:space="preserve" font-family="HelveticaNeue-Medium,Helvetica Neue" font-size="26.0" fill="#EAEAEA" transform="matrix(1.00, 0.00, -0.00, -1.00, 348.0, 58.4)"> </text><text xml:space="preserve" font-family="HelveticaNeue-Medium,Helvetica Neue" font-size="26.0" fill="#EAEAEA" transform="matrix(1.00, 0.00, -0.00, -1.00, 355.2, 58.4)">B</text><text xml:space="preserve" font-family="HelveticaNeue-Medium,Helvetica Neue" font-size="26.0" fill="#EAEAEA" transform="matrix(1.00, 0.00, -0.00, -1.00, 373.5, 58.4)">-</text><text xml:space="preserve" font-family="HelveticaNeue-Medium,Helvetica Neue" font-size="26.0" fill="#EAEAEA" transform="matrix(1.00, 0.00, -0.00, -1.00, 383.6, 58.4)">c</text><text xml:space="preserve" font-family="HelveticaNeue-Medium,Helvetica Neue" font-size="26.0" fill="#EAEAEA" transform="matrix(1.00, 0.00, -0.00, -1.00, 398.1, 58.4)">e</text><text xml:space="preserve" font-family="HelveticaNeue-Medium,Helvetica Neue" font-size="26.0" fill="#EAEAEA" transform="matrix(1.00, 0.00, -0.00, -1.00, 412.6, 58.4)">l</text><text xml:space="preserve" font-family="HelveticaNeue-Medium,Helvetica Neue" font-size="26.0" fill="#EAEAEA" transform="matrix(1.00, 0.00, -0.00, -1.00, 418.8, 58.4)">l</text><text xml:space="preserve" font-family="HelveticaNeue-Medium,Helvetica Neue" font-size="26.0" fill="#EAEAEA" transform="matrix(1.00, 0.00, -0.00, -1.00, 425.1, 58.4)"> </text><text xml:space="preserve" font-family="HelveticaNeue-Medium,Helvetica Neue" font-size="26.0" fill="#EAEAEA" transform="matrix(1.00, 0.00, -0.00, -1.00, 432.3, 58.4)">L</text><text xml:space="preserve" font-family="HelveticaNeue-Medium,Helvetica Neue" font-size="26.0" fill="#EAEAEA" transform="matrix(1.00, 0.00, -0.00, -1.00, 446.3, 58.4)">y</text><text xml:space="preserve" font-family="HelveticaNeue-Medium,Helvetica Neue" font-size="26.0" fill="#EAEAEA" transform="matrix(1.00, 0.00, -0.00, -1.00, 459.8, 58.4)">m</text><text xml:space="preserve" font-family="HelveticaNeue-Medium,Helvetica Neue" font-size="26.0" fill="#EAEAEA" transform="matrix(1.00, 0.00, -0.00, -1.00, 482.4, 58.4)">p</text><text xml:space="preserve" font-family="HelveticaNeue-Medium,Helvetica Neue" font-size="26.0" fill="#EAEAEA" transform="matrix(1.00, 0.00, -0.00, -1.00, 498.3, 58.4)">h</text><text xml:space="preserve" font-family="HelveticaNeue-Medium,Helvetica Neue" font-size="26.0" fill="#EAEAEA" transform="matrix(1.00, 0.00, -0.00, -1.00, 513.2, 58.4)">o</text><text xml:space="preserve" font-family="HelveticaNeue-Medium,Helvetica Neue" font-size="26.0" fill="#EAEAEA" transform="matrix(1.00, 0.00, -0.00, -1.00, 528.6, 58.4)">m</text><text xml:space="preserve" font-family="HelveticaNeue-Medium,Helvetica Neue" font-size="26.0" fill="#EAEAEA" transform="matrix(1.00, 0.00, -0.00, -1.00, 551.2, 58.4)">a</text><text xml:space="preserve" font-family="HelveticaNeue-Medium,Helvetica Neue" font-size="26.0" fill="#EAEAEA" transform="matrix(1.00, 0.00, -0.00, -1.00, 565.7, 58.4)">:</text><text xml:space="preserve" font-family="HelveticaNeue-Medium,Helvetica Neue" font-size="26.0" fill="#EAEAEA" transform="matrix(1.00, 0.00, -0.00, -1.00, 572.9, 58.4)"> </text><text xml:space="preserve" font-family="HelveticaNeue-Medium,Helvetica Neue" font-size="26.0" fill="#EAEAEA" transform="matrix(1.00, 0.00, -0.00, -1.00, 580.1, 58.4)">A</text><text xml:space="preserve" font-family="HelveticaNeue-Medium,Helvetica Neue" font-size="26.0" fill="#EAEAEA" transform="matrix(1.00, 0.00, -0.00, -1.00, 597.5, 58.4)">s</text><text xml:space="preserve" font-family="HelveticaNeue-Medium,Helvetica Neue" font-size="26.0" fill="#EAEAEA" transform="matrix(1.00, 0.00, -0.00, -1.00, 611.0, 58.4)">c</text><text xml:space="preserve" font-family="HelveticaNeue-Medium,Helvetica Neue" font-size="26.0" fill="#EAEAEA" transform="matrix(1.00, 0.00, -0.00, -1.00, 625.4, 58.4)">r</text><text xml:space="preserve" font-family="HelveticaNeue-Medium,Helvetica Neue" font-size="26.0" fill="#EAEAEA" transform="matrix(1.00, 0.00, -0.00, -1.00, 634.6, 58.4)">i</text><text xml:space="preserve" font-family="HelveticaNeue-Medium,Helvetica Neue" font-size="26.0" fill="#EAEAEA" transform="matrix(1.00, 0.00, -0.00, -1.00, 640.9, 58.4)">b</text><text xml:space="preserve" font-family="HelveticaNeue-Medium,Helvetica Neue" font-size="26.0" fill="#EAEAEA" transform="matrix(1.00, 0.00, -0.00, -1.00, 656.7, 58.4)">i</text><text xml:space="preserve" font-family="HelveticaNeue-Medium,Helvetica Neue" font-size="26.0" fill="#EAEAEA" transform="matrix(1.00, 0.00, -0.00, -1.00, 663.0, 58.4)">n</text><text xml:space="preserve" font-family="HelveticaNeue-Medium,Helvetica Neue" font-size="26.0" fill="#EAEAEA" transform="matrix(1.00, 0.00, -0.00, -1.00, 677.9, 58.4)">g</text><text xml:space="preserve" font-family="HelveticaNeue-Medium,Helvetica Neue" font-size="26.0" fill="#EAEAEA" transform="matrix(1.00, 0.00, -0.00, -1.00, 693.4, 58.4)"> </text><text xml:space="preserve" font-family="HelveticaNeue-Medium,Helvetica Neue" font-size="26.0" fill="#EAEAEA" transform="matrix(1.00, 0.00, -0.00, -1.00, 700.6, 58.4)">T</text><text xml:space="preserve" font-family="HelveticaNeue-Medium,Helvetica Neue" font-size="26.0" fill="#EAEAEA" transform="matrix(1.00, 0.00, -0.00, -1.00, 713.6, 58.4)">r</text><text xml:space="preserve" font-family="HelveticaNeue-Medium,Helvetica Neue" font-size="26.0" fill="#EAEAEA" transform="matrix(1.00, 0.00, -0.00, -1.00, 722.3, 58.4)">e</text><text xml:space="preserve" font-family="HelveticaNeue-Medium,Helvetica Neue" font-size="26.0" fill="#EAEAEA" transform="matrix(1.00, 0.00, -0.00, -1.00, 736.7, 58.4)">a</text><text xml:space="preserve" font-family="HelveticaNeue-Medium,Helvetica Neue" font-size="26.0" fill="#EAEAEA" transform="matrix(1.00, 0.00, -0.00, -1.00, 751.2, 58.4)">t</text><text xml:space="preserve" font-family="HelveticaNeue-Medium,Helvetica Neue" font-size="26.0" fill="#EAEAEA" transform="matrix(1.00, 0.00, -0.00, -1.00, 759.9, 58.4)">m</text><text xml:space="preserve" font-family="HelveticaNeue-Medium,Helvetica Neue" font-size="26.0" fill="#EAEAEA" transform="matrix(1.00, 0.00, -0.00, -1.00, 782.5, 58.4)">e</text><text xml:space="preserve" font-family="HelveticaNeue-Medium,Helvetica Neue" font-size="26.0" fill="#EAEAEA" transform="matrix(1.00, 0.00, -0.00, -1.00, 796.9, 58.4)">n</text><text xml:space="preserve" font-family="HelveticaNeue-Medium,Helvetica Neue" font-size="26.0" fill="#EAEAEA" transform="matrix(1.00, 0.00, -0.00, -1.00, 811.9, 58.4)">t</text><text xml:space="preserve" font-family="HelveticaNeue-Medium,Helvetica Neue" font-size="26.0" fill="#EAEAEA" transform="matrix(1.00, 0.00, -0.00, -1.00, 820.5, 58.4)"> </text><text xml:space="preserve" font-family="HelveticaNeue-Medium,Helvetica Neue" font-size="26.0" fill="#EAEAEA" transform="matrix(1.00, 0.00, -0.00, -1.00, 827.7, 58.4)">B</text><text xml:space="preserve" font-family="HelveticaNeue-Medium,Helvetica Neue" font-size="26.0" fill="#EAEAEA" transform="matrix(1.00, 0.00, -0.00, -1.00, 846.0, 58.4)">a</text><text xml:space="preserve" font-family="HelveticaNeue-Medium,Helvetica Neue" font-size="26.0" fill="#EAEAEA" transform="matrix(1.00, 0.00, -0.00, -1.00, 860.5, 58.4)">s</text><text xml:space="preserve" font-family="HelveticaNeue-Medium,Helvetica Neue" font-size="26.0" fill="#EAEAEA" transform="matrix(1.00, 0.00, -0.00, -1.00, 874.0, 58.4)">e</text><text xml:space="preserve" font-family="HelveticaNeue-Medium,Helvetica Neue" font-size="26.0" fill="#EAEAEA" transform="matrix(1.00, 0.00, -0.00, -1.00, 888.5, 58.4)">d</text><text xml:space="preserve" font-family="HelveticaNeue-Medium,Helvetica Neue" font-size="26.0" fill="#EAEAEA" transform="matrix(1.00, 0.00, -0.00, -1.00, 904.3, 58.4)"> </text><text xml:space="preserve" font-family="HelveticaNeue-Medium,Helvetica Neue" font-size="26.0" fill="#EAEAEA" transform="matrix(1.00, 0.00, -0.00, -1.00, 911.6, 58.4)">o</text><text xml:space="preserve" font-family="HelveticaNeue-Medium,Helvetica Neue" font-size="26.0" fill="#EAEAEA" transform="matrix(1.00, 0.00, -0.00, -1.00, 927.0, 58.4)">n</text><text xml:space="preserve" font-family="HelveticaNeue-Medium,Helvetica Neue" font-size="26.0" fill="#EAEAEA" transform="matrix(1.00, 0.00, -0.00, -1.00, 941.9, 58.4)"> </text><text xml:space="preserve" font-family="HelveticaNeue-Medium,Helvetica Neue" font-size="26.0" fill="#EAEAEA" transform="matrix(1.00, 0.00, -0.00, -1.00, 949.1, 58.4)">t</text><text xml:space="preserve" font-family="HelveticaNeue-Medium,Helvetica Neue" font-size="26.0" fill="#EAEAEA" transform="matrix(1.00, 0.00, -0.00, -1.00, 957.8, 58.4)">h</text><text xml:space="preserve" font-family="HelveticaNeue-Medium,Helvetica Neue" font-size="26.0" fill="#EAEAEA" transform="matrix(1.00, 0.00, -0.00, -1.00, 972.7, 58.4)">e</text><text xml:space="preserve" font-family="HelveticaNeue-Medium,Helvetica Neue" font-size="26.0" fill="#EAEAEA" transform="matrix(1.00, 0.00, -0.00, -1.00, 987.2, 58.4)"> </text><image xlink:href="../../B7926E29-F1B0-439B-ACE4-87329F578DA9/assets/FD91C04653F6CEED175A0701E1F7AF7F.png" width="820.00" height="33.00" transform="matrix(1.00, 0.00, -0.00, -1.00, 102.0, 48.0)"></image><text xml:space="preserve" font-family="HelveticaNeue-Medium,Helvetica Neue" font-size="26.0" fill="#EAEAEA" transform="matrix(1.00, 0.00, -0.00, -1.00, 104.4, 26.4)">M</text><text xml:space="preserve" font-family="HelveticaNeue-Medium,Helvetica Neue" font-size="26.0" fill="#EAEAEA" transform="matrix(1.00, 0.00, -0.00, -1.00, 127.6, 26.4)">o</text><text xml:space="preserve" font-family="HelveticaNeue-Medium,Helvetica Neue" font-size="26.0" fill="#EAEAEA" transform="matrix(1.00, 0.00, -0.00, -1.00, 143.0, 26.4)">l</text><text xml:space="preserve" font-family="HelveticaNeue-Medium,Helvetica Neue" font-size="26.0" fill="#EAEAEA" transform="matrix(1.00, 0.00, -0.00, -1.00, 149.2, 26.4)">e</text><text xml:space="preserve" font-family="HelveticaNeue-Medium,Helvetica Neue" font-size="26.0" fill="#EAEAEA" transform="matrix(1.00, 0.00, -0.00, -1.00, 163.7, 26.4)">c</text><text xml:space="preserve" font-family="HelveticaNeue-Medium,Helvetica Neue" font-size="26.0" fill="#EAEAEA" transform="matrix(1.00, 0.00, -0.00, -1.00, 178.1, 26.4)">u</text><text xml:space="preserve" font-family="HelveticaNeue-Medium,Helvetica Neue" font-size="26.0" fill="#EAEAEA" transform="matrix(1.00, 0.00, -0.00, -1.00, 193.1, 26.4)">l</text><text xml:space="preserve" font-family="HelveticaNeue-Medium,Helvetica Neue" font-size="26.0" fill="#EAEAEA" transform="matrix(1.00, 0.00, -0.00, -1.00, 199.3, 26.4)">a</text><text xml:space="preserve" font-family="HelveticaNeue-Medium,Helvetica Neue" font-size="26.0" fill="#EAEAEA" transform="matrix(1.00, 0.00, -0.00, -1.00, 213.8, 26.4)">r</text><text xml:space="preserve" font-family="HelveticaNeue-Medium,Helvetica Neue" font-size="26.0" fill="#EAEAEA" transform="matrix(1.00, 0.00, -0.00, -1.00, 222.9, 26.4)"> </text><text xml:space="preserve" font-family="HelveticaNeue-Medium,Helvetica Neue" font-size="26.0" fill="#EAEAEA" transform="matrix(1.00, 0.00, -0.00, -1.00, 230.2, 26.4)">P</text><text xml:space="preserve" font-family="HelveticaNeue-Medium,Helvetica Neue" font-size="26.0" fill="#EAEAEA" transform="matrix(1.00, 0.00, -0.00, -1.00, 247.5, 26.4)">h</text><text xml:space="preserve" font-family="HelveticaNeue-Medium,Helvetica Neue" font-size="26.0" fill="#EAEAEA" transform="matrix(1.00, 0.00, -0.00, -1.00, 262.4, 26.4)">e</text><text xml:space="preserve" font-family="HelveticaNeue-Medium,Helvetica Neue" font-size="26.0" fill="#EAEAEA" transform="matrix(1.00, 0.00, -0.00, -1.00, 276.9, 26.4)">n</text><text xml:space="preserve" font-family="HelveticaNeue-Medium,Helvetica Neue" font-size="26.0" fill="#EAEAEA" transform="matrix(1.00, 0.00, -0.00, -1.00, 291.8, 26.4)">o</text><text xml:space="preserve" font-family="HelveticaNeue-Medium,Helvetica Neue" font-size="26.0" fill="#EAEAEA" transform="matrix(1.00, 0.00, -0.00, -1.00, 307.2, 26.4)">t</text><text xml:space="preserve" font-family="HelveticaNeue-Medium,Helvetica Neue" font-size="26.0" fill="#EAEAEA" transform="matrix(1.00, 0.00, -0.00, -1.00, 315.9, 26.4)">y</text><text xml:space="preserve" font-family="HelveticaNeue-Medium,Helvetica Neue" font-size="26.0" fill="#EAEAEA" transform="matrix(1.00, 0.00, -0.00, -1.00, 329.4, 26.4)">p</text><text xml:space="preserve" font-family="HelveticaNeue-Medium,Helvetica Neue" font-size="26.0" fill="#EAEAEA" transform="matrix(1.00, 0.00, -0.00, -1.00, 345.3, 26.4)">e</text><text xml:space="preserve" font-family="HelveticaNeue-Medium,Helvetica Neue" font-size="26.0" fill="#EAEAEA" transform="matrix(1.00, 0.00, -0.00, -1.00, 359.7, 26.4)">.</text><text xml:space="preserve" font-family="HelveticaNeue-Medium,Helvetica Neue" font-size="26.0" fill="#EAEAEA" transform="matrix(1.00, 0.00, -0.00, -1.00, 367.0, 26.4)"> </text><text xml:space="preserve" font-family="HelveticaNeue-Medium,Helvetica Neue" font-size="26.0" fill="#EAEAEA" transform="matrix(1.00, 0.00, -0.00, -1.00, 374.2, 26.4)">C</text><text xml:space="preserve" font-family="HelveticaNeue-Medium,Helvetica Neue" font-size="26.0" fill="#EAEAEA" transform="matrix(1.00, 0.00, -0.00, -1.00, 393.0, 26.4)">l</text><text xml:space="preserve" font-family="HelveticaNeue-Medium,Helvetica Neue" font-size="26.0" fill="#EAEAEA" transform="matrix(1.00, 0.00, -0.00, -1.00, 399.2, 26.4)">i</text><text xml:space="preserve" font-family="HelveticaNeue-Medium,Helvetica Neue" font-size="26.0" fill="#EAEAEA" transform="matrix(1.00, 0.00, -0.00, -1.00, 405.5, 26.4)">n</text><text xml:space="preserve" font-family="HelveticaNeue-Medium,Helvetica Neue" font-size="26.0" fill="#EAEAEA" transform="matrix(1.00, 0.00, -0.00, -1.00, 420.4, 26.4)"> </text><text xml:space="preserve" font-family="HelveticaNeue-Medium,Helvetica Neue" font-size="26.0" fill="#EAEAEA" transform="matrix(1.00, 0.00, -0.00, -1.00, 427.6, 26.4)">C</text><text xml:space="preserve" font-family="HelveticaNeue-Medium,Helvetica Neue" font-size="26.0" fill="#EAEAEA" transform="matrix(1.00, 0.00, -0.00, -1.00, 446.4, 26.4)">a</text><text xml:space="preserve" font-family="HelveticaNeue-Medium,Helvetica Neue" font-size="26.0" fill="#EAEAEA" transform="matrix(1.00, 0.00, -0.00, -1.00, 460.9, 26.4)">n</text><text xml:space="preserve" font-family="HelveticaNeue-Medium,Helvetica Neue" font-size="26.0" fill="#EAEAEA" transform="matrix(1.00, 0.00, -0.00, -1.00, 475.8, 26.4)">c</text><text xml:space="preserve" font-family="HelveticaNeue-Medium,Helvetica Neue" font-size="26.0" fill="#EAEAEA" transform="matrix(1.00, 0.00, -0.00, -1.00, 490.3, 26.4)">e</text><text xml:space="preserve" font-family="HelveticaNeue-Medium,Helvetica Neue" font-size="26.0" fill="#EAEAEA" transform="matrix(1.00, 0.00, -0.00, -1.00, 504.7, 26.4)">r</text><text xml:space="preserve" font-family="HelveticaNeue-Medium,Helvetica Neue" font-size="26.0" fill="#EAEAEA" transform="matrix(1.00, 0.00, -0.00, -1.00, 513.9, 26.4)"> </text><text xml:space="preserve" font-family="HelveticaNeue-Medium,Helvetica Neue" font-size="26.0" fill="#EAEAEA" transform="matrix(1.00, 0.00, -0.00, -1.00, 521.1, 26.4)">R</text><text xml:space="preserve" font-family="HelveticaNeue-Medium,Helvetica Neue" font-size="26.0" fill="#EAEAEA" transform="matrix(1.00, 0.00, -0.00, -1.00, 539.4, 26.4)">e</text><text xml:space="preserve" font-family="HelveticaNeue-Medium,Helvetica Neue" font-size="26.0" fill="#EAEAEA" transform="matrix(1.00, 0.00, -0.00, -1.00, 553.8, 26.4)">s</text><text xml:space="preserve" font-family="HelveticaNeue-Medium,Helvetica Neue" font-size="26.0" fill="#EAEAEA" transform="matrix(1.00, 0.00, -0.00, -1.00, 567.3, 26.4)">.</text><text xml:space="preserve" font-family="HelveticaNeue-Medium,Helvetica Neue" font-size="26.0" fill="#EAEAEA" transform="matrix(1.00, 0.00, -0.00, -1.00, 574.6, 26.4)"> </text><text xml:space="preserve" font-family="HelveticaNeue-Medium,Helvetica Neue" font-size="26.0" fill="#EAEAEA" transform="matrix(1.00, 0.00, -0.00, -1.00, 581.8, 26.4)">2</text><text xml:space="preserve" font-family="HelveticaNeue-Medium,Helvetica Neue" font-size="26.0" fill="#EAEAEA" transform="matrix(1.00, 0.00, -0.00, -1.00, 596.3, 26.4)">0</text><text xml:space="preserve" font-family="HelveticaNeue-Medium,Helvetica Neue" font-size="26.0" fill="#EAEAEA" transform="matrix(1.00, 0.00, -0.00, -1.00, 610.7, 26.4)">1</text><text xml:space="preserve" font-family="HelveticaNeue-Medium,Helvetica Neue" font-size="26.0" fill="#EAEAEA" transform="matrix(1.00, 0.00, -0.00, -1.00, 625.2, 26.4)">4</text><text xml:space="preserve" font-family="HelveticaNeue-Medium,Helvetica Neue" font-size="26.0" fill="#EAEAEA" transform="matrix(1.00, 0.00, -0.00, -1.00, 639.6, 26.4)"> </text><text xml:space="preserve" font-family="HelveticaNeue-Medium,Helvetica Neue" font-size="26.0" fill="#EAEAEA" transform="matrix(1.00, 0.00, -0.00, -1.00, 646.8, 26.4)">O</text><text xml:space="preserve" font-family="HelveticaNeue-Medium,Helvetica Neue" font-size="26.0" fill="#EAEAEA" transform="matrix(1.00, 0.00, -0.00, -1.00, 666.6, 26.4)">c</text><text xml:space="preserve" font-family="HelveticaNeue-Medium,Helvetica Neue" font-size="26.0" fill="#EAEAEA" transform="matrix(1.00, 0.00, -0.00, -1.00, 681.1, 26.4)">t</text><text xml:space="preserve" font-family="HelveticaNeue-Medium,Helvetica Neue" font-size="26.0" fill="#EAEAEA" transform="matrix(1.00, 0.00, -0.00, -1.00, 689.7, 26.4)"> </text><text xml:space="preserve" font-family="HelveticaNeue-Medium,Helvetica Neue" font-size="26.0" fill="#EAEAEA" transform="matrix(1.00, 0.00, -0.00, -1.00, 697.0, 26.4)">1</text><text xml:space="preserve" font-family="HelveticaNeue-Medium,Helvetica Neue" font-size="26.0" fill="#EAEAEA" transform="matrix(1.00, 0.00, -0.00, -1.00, 711.4, 26.4)">5</text><text xml:space="preserve" font-family="HelveticaNeue-Medium,Helvetica Neue" font-size="26.0" fill="#EAEAEA" transform="matrix(1.00, 0.00, -0.00, -1.00, 725.9, 26.4)">;</text><text xml:space="preserve" font-family="HelveticaNeue-Medium,Helvetica Neue" font-size="26.0" fill="#EAEAEA" transform="matrix(1.00, 0.00, -0.00, -1.00, 733.1, 26.4)">2</text><text xml:space="preserve" font-family="HelveticaNeue-Medium,Helvetica Neue" font-size="26.0" fill="#EAEAEA" transform="matrix(1.00, 0.00, -0.00, -1.00, 747.5, 26.4)">0</text><text xml:space="preserve" font-family="HelveticaNeue-Medium,Helvetica Neue" font-size="26.0" fill="#EAEAEA" transform="matrix(1.00, 0.00, -0.00, -1.00, 762.0, 26.4)">(</text><text xml:space="preserve" font-family="HelveticaNeue-Medium,Helvetica Neue" font-size="26.0" fill="#EAEAEA" transform="matrix(1.00, 0.00, -0.00, -1.00, 769.2, 26.4)">2</text><text xml:space="preserve" font-family="HelveticaNeue-Medium,Helvetica Neue" font-size="26.0" fill="#EAEAEA" transform="matrix(1.00, 0.00, -0.00, -1.00, 783.7, 26.4)">0</text><text xml:space="preserve" font-family="HelveticaNeue-Medium,Helvetica Neue" font-size="26.0" fill="#EAEAEA" transform="matrix(1.00, 0.00, -0.00, -1.00, 798.1, 26.4)">)</text><text xml:space="preserve" font-family="HelveticaNeue-Medium,Helvetica Neue" font-size="26.0" fill="#EAEAEA" transform="matrix(1.00, 0.00, -0.00, -1.00, 805.4, 26.4)">:</text><text xml:space="preserve" font-family="HelveticaNeue-Medium,Helvetica Neue" font-size="26.0" fill="#EAEAEA" transform="matrix(1.00, 0.00, -0.00, -1.00, 812.6, 26.4)">5</text><text xml:space="preserve" font-family="HelveticaNeue-Medium,Helvetica Neue" font-size="26.0" fill="#EAEAEA" transform="matrix(1.00, 0.00, -0.00, -1.00, 827.1, 26.4)">1</text><text xml:space="preserve" font-family="HelveticaNeue-Medium,Helvetica Neue" font-size="26.0" fill="#EAEAEA" transform="matrix(1.00, 0.00, -0.00, -1.00, 841.5, 26.4)">8</text><text xml:space="preserve" font-family="HelveticaNeue-Medium,Helvetica Neue" font-size="26.0" fill="#EAEAEA" transform="matrix(1.00, 0.00, -0.00, -1.00, 856.0, 26.4)">2</text><text xml:space="preserve" font-family="HelveticaNeue-Medium,Helvetica Neue" font-size="26.0" fill="#EAEAEA" transform="matrix(1.00, 0.00, -0.00, -1.00, 870.4, 26.4)">–</text><text xml:space="preserve" font-family="HelveticaNeue-Medium,Helvetica Neue" font-size="26.0" fill="#EAEAEA" transform="matrix(1.00, 0.00, -0.00, -1.00, 883.4, 26.4)">9</text><text xml:space="preserve" font-family="HelveticaNeue-Medium,Helvetica Neue" font-size="26.0" fill="#EAEAEA" transform="matrix(1.00, 0.00, -0.00, -1.00, 897.9, 26.4)">3</text><text xml:space="preserve" font-family="HelveticaNeue-Medium,Helvetica Neue" font-size="26.0" fill="#EAEAEA" transform="matrix(1.00, 0.00, -0.00, -1.00, 912.3, 26.4)">.</text></g></svg>