<?xml version="1.0" encoding="UTF-8" standalone="no"?><svg xmlns="http://www.w3.org/2000/svg" xmlns:xlink="http://www.w3.org/1999/xlink" clip-rule="evenodd" stroke-miterlimit="4.00" viewBox="0 0 735 188"><desc>SVG generated by Keynote</desc><defs></defs><g transform="matrix(1.00, 0.00, -0.00, -1.00, 0.0, 188.0)"><g><clipPath id="clip-1198"><path d="M 1.0 0.5 L 734.3 0.5 L 734.3 63.1 L 1.0 63.1 Z M 1.0 0.5 "></path></clipPath><g clip-path="url(#clip-1198)"><path d="M 690.9 1.5 L 690.9 1.5 L 733.3 31.8 L 690.9 62.1 L 690.9 62.1 L 2.0 62.1 L 2.0 1.5 Z M 690.9 1.5 " fill="#325D6A"></path></g></g><g><clipPath id="clip-1199"><path d="M -4.7 -1.5 L 733.3 -1.5 L 733.3 63.7 L -4.7 63.7 Z M -4.7 -1.5 "></path></clipPath><g clip-path="url(#clip-1199)"><text xml:space="preserve" font-family="HelveticaNeue-Light" font-size="36.0" fill="#FFFFFF" transform="matrix(1.00, 0.00, -0.00, -1.00, 6.0, 18.0)">-</text><text xml:space="preserve" font-family="HelveticaNeue-Light" font-size="36.0" fill="#FFFFFF" transform="matrix(1.00, 0.00, -0.00, -1.00, 19.3, 18.0)">7</text><text xml:space="preserve" font-family="HelveticaNeue-Light" font-size="36.0" fill="#FFFFFF" transform="matrix(1.00, 0.00, -0.00, -1.00, 39.3, 18.0)"> </text><text xml:space="preserve" font-family="HelveticaNeue-Light" font-size="36.0" fill="#FFFFFF" transform="matrix(1.00, 0.00, -0.00, -1.00, 49.3, 18.0)"> </text><text xml:space="preserve" font-family="HelveticaNeue-Light" font-size="36.0" fill="#FFFFFF" transform="matrix(1.00, 0.00, -0.00, -1.00, 59.4, 18.0)">-</text><text xml:space="preserve" font-family="HelveticaNeue-Light" font-size="36.0" fill="#FFFFFF" transform="matrix(1.00, 0.00, -0.00, -1.00, 72.7, 18.0)">6</text><text xml:space="preserve" font-family="HelveticaNeue-Light" font-size="36.0" fill="#FFFFFF" transform="matrix(1.00, 0.00, -0.00, -1.00, 92.7, 18.0)"> </text><text xml:space="preserve" font-family="HelveticaNeue-Light" font-size="36.0" fill="#FFFFFF" transform="matrix(1.00, 0.00, -0.00, -1.00, 102.7, 18.0)"> </text><text xml:space="preserve" font-family="HelveticaNeue-Light" font-size="36.0" fill="#FFFFFF" transform="matrix(1.00, 0.00, -0.00, -1.00, 112.7, 18.0)">-</text><text xml:space="preserve" font-family="HelveticaNeue-Light" font-size="36.0" fill="#FFFFFF" transform="matrix(1.00, 0.00, -0.00, -1.00, 126.0, 18.0)">5</text><text xml:space="preserve" font-family="HelveticaNeue-Light" font-size="36.0" fill="#FFFFFF" transform="matrix(1.00, 0.00, -0.00, -1.00, 146.0, 18.0)"> </text><text xml:space="preserve" font-family="HelveticaNeue-Light" font-size="36.0" fill="#FFFFFF" transform="matrix(1.00, 0.00, -0.00, -1.00, 156.0, 18.0)"> </text><text xml:space="preserve" font-family="HelveticaNeue-Light" font-size="36.0" fill="#FFFFFF" transform="matrix(1.00, 0.00, -0.00, -1.00, 166.1, 18.0)">-</text><text xml:space="preserve" font-family="HelveticaNeue-Light" font-size="36.0" fill="#FFFFFF" transform="matrix(1.00, 0.00, -0.00, -1.00, 179.4, 18.0)">4</text><text xml:space="preserve" font-family="HelveticaNeue-Light" font-size="36.0" fill="#FFFFFF" transform="matrix(1.00, 0.00, -0.00, -1.00, 199.4, 18.0)"> </text><text xml:space="preserve" font-family="HelveticaNeue-Light" font-size="36.0" fill="#FFFFFF" transform="matrix(1.00, 0.00, -0.00, -1.00, 209.4, 18.0)"> </text><text xml:space="preserve" font-family="HelveticaNeue-Light" font-size="36.0" fill="#FFFFFF" transform="matrix(1.00, 0.00, -0.00, -1.00, 219.4, 18.0)">-</text><text xml:space="preserve" font-family="HelveticaNeue-Light" font-size="36.0" fill="#FFFFFF" transform="matrix(1.00, 0.00, -0.00, -1.00, 232.7, 18.0)">3</text><text xml:space="preserve" font-family="HelveticaNeue-Light" font-size="36.0" fill="#FFFFFF" transform="matrix(1.00, 0.00, -0.00, -1.00, 252.7, 18.0)"> </text><text xml:space="preserve" font-family="HelveticaNeue-Light" font-size="36.0" fill="#FFFFFF" transform="matrix(1.00, 0.00, -0.00, -1.00, 262.8, 18.0)"> </text><text xml:space="preserve" font-family="HelveticaNeue-Light" font-size="36.0" fill="#FFFFFF" transform="matrix(1.00, 0.00, -0.00, -1.00, 272.8, 18.0)">-</text><text xml:space="preserve" font-family="HelveticaNeue-Light" font-size="36.0" fill="#FFFFFF" transform="matrix(1.00, 0.00, -0.00, -1.00, 286.1, 18.0)">2</text><text xml:space="preserve" font-family="HelveticaNeue-Light" font-size="36.0" fill="#FFFFFF" transform="matrix(1.00, 0.00, -0.00, -1.00, 306.1, 18.0)"> </text><text xml:space="preserve" font-family="HelveticaNeue-Light" font-size="36.0" fill="#FFFFFF" transform="matrix(1.00, 0.00, -0.00, -1.00, 316.1, 18.0)"> </text><text xml:space="preserve" font-family="HelveticaNeue-Light" font-size="36.0" fill="#FFFFFF" transform="matrix(1.00, 0.00, -0.00, -1.00, 326.1, 18.0)">-</text><text xml:space="preserve" font-family="HelveticaNeue-Light" font-size="36.0" fill="#FFFFFF" transform="matrix(1.00, 0.00, -0.00, -1.00, 339.4, 18.0)">1</text><text xml:space="preserve" font-family="HelveticaNeue-Light" font-size="36.0" fill="#FFFFFF" transform="matrix(1.00, 0.00, -0.00, -1.00, 359.4, 18.0)"> </text><text xml:space="preserve" font-family="HelveticaNeue-Light" font-size="36.0" fill="#FFFFFF" transform="matrix(1.00, 0.00, -0.00, -1.00, 369.5, 18.0)"> </text><text xml:space="preserve" font-family="HelveticaNeue-Light" font-size="36.0" fill="#FFFFFF" transform="matrix(1.00, 0.00, -0.00, -1.00, 379.5, 18.0)">•</text><text xml:space="preserve" font-family="HelveticaNeue-Light" font-size="36.0" fill="#FFFFFF" transform="matrix(1.00, 0.00, -0.00, -1.00, 397.5, 18.0)">0</text><text xml:space="preserve" font-family="HelveticaNeue-Light" font-size="36.0" fill="#FFFFFF" transform="matrix(1.00, 0.00, -0.00, -1.00, 417.5, 18.0)"> </text><text xml:space="preserve" font-family="HelveticaNeue-Light" font-size="36.0" fill="#FFFFFF" transform="matrix(1.00, 0.00, -0.00, -1.00, 427.5, 18.0)"> </text><text xml:space="preserve" font-family="HelveticaNeue-Light" font-size="36.0" fill="#FFFFFF" transform="matrix(1.00, 0.00, -0.00, -1.00, 437.5, 18.0)">+</text><text xml:space="preserve" font-family="HelveticaNeue-Light" font-size="36.0" fill="#FFFFFF" transform="matrix(1.00, 0.00, -0.00, -1.00, 459.1, 18.0)">1</text><text xml:space="preserve" font-family="HelveticaNeue-Light" font-size="36.0" fill="#FFFFFF" transform="matrix(1.00, 0.00, -0.00, -1.00, 479.1, 18.0)"> </text><text xml:space="preserve" font-family="HelveticaNeue-Light" font-size="36.0" fill="#FFFFFF" transform="matrix(1.00, 0.00, -0.00, -1.00, 489.1, 18.0)"> </text><text xml:space="preserve" font-family="HelveticaNeue-Light" font-size="36.0" fill="#FFFFFF" transform="matrix(1.00, 0.00, -0.00, -1.00, 499.1, 18.0)">+</text><text xml:space="preserve" font-family="HelveticaNeue-Light" font-size="36.0" fill="#FFFFFF" transform="matrix(1.00, 0.00, -0.00, -1.00, 520.7, 18.0)">2</text><text xml:space="preserve" font-family="HelveticaNeue-Light" font-size="36.0" fill="#FFFFFF" transform="matrix(1.00, 0.00, -0.00, -1.00, 540.7, 18.0)"> </text><text xml:space="preserve" font-family="HelveticaNeue-Light" font-size="36.0" fill="#FFFFFF" transform="matrix(1.00, 0.00, -0.00, -1.00, 550.8, 18.0)"> </text><text xml:space="preserve" font-family="HelveticaNeue-Light" font-size="36.0" fill="#FFFFFF" transform="matrix(1.00, 0.00, -0.00, -1.00, 560.8, 18.0)">+</text><text xml:space="preserve" font-family="HelveticaNeue-Light" font-size="36.0" fill="#FFFFFF" transform="matrix(1.00, 0.00, -0.00, -1.00, 582.4, 18.0)">3</text><text xml:space="preserve" font-family="HelveticaNeue-Light" font-size="36.0" fill="#FFFFFF" transform="matrix(1.00, 0.00, -0.00, -1.00, 602.4, 18.0)"> </text><text xml:space="preserve" font-family="HelveticaNeue-Light" font-size="36.0" fill="#FFFFFF" transform="matrix(1.00, 0.00, -0.00, -1.00, 612.4, 18.0)"> </text><text xml:space="preserve" font-family="HelveticaNeue-Light" font-size="36.0" fill="#FFFFFF" transform="matrix(1.00, 0.00, -0.00, -1.00, 622.4, 18.0)">+</text><text xml:space="preserve" font-family="HelveticaNeue-Light" font-size="36.0" fill="#FFFFFF" transform="matrix(1.00, 0.00, -0.00, -1.00, 644.0, 18.0)">4</text><text xml:space="preserve" font-family="HelveticaNeue-Light" font-size="36.0" fill="#FFFFFF" transform="matrix(1.00, 0.00, -0.00, -1.00, 664.0, 18.0)"> </text><text xml:space="preserve" font-family="HelveticaNeue-Light" font-size="36.0" fill="#FFFFFF" transform="matrix(1.00, 0.00, -0.00, -1.00, 674.0, 18.0)"> </text><text xml:space="preserve" font-family="HelveticaNeue-Light" font-size="36.0" fill="#FFFFFF" transform="matrix(1.00, 0.00, -0.00, -1.00, 684.0, 18.0)"> </text><text xml:space="preserve" font-family="HelveticaNeue-Light" font-size="36.0" fill="#FFFFFF" transform="matrix(1.00, 0.00, -0.00, -1.00, 694.0, 18.0)"> </text><text xml:space="preserve" font-family="HelveticaNeue-Light" font-size="36.0" fill="#FFFFFF" transform="matrix(1.00, 0.00, -0.00, -1.00, 704.0, 18.0)"> </text><text xml:space="preserve" font-family="HelveticaNeue-Light" font-size="36.0" fill="#FFFFFF" transform="matrix(1.00, 0.00, -0.00, -1.00, 714.0, 18.0)"> </text><text xml:space="preserve" font-family="HelveticaNeue-Light" font-size="36.0" fill="#FFFFFF" transform="matrix(1.00, 0.00, -0.00, -1.00, 724.1, 18.0)"> </text></g></g><g><clipPath id="clip-1200"><path d="M 50.5 139.7 L 50.5 63.7 L 11.4 63.7 L 11.4 139.7 Z M 50.5 139.7 "></path></clipPath><g clip-path="url(#clip-1200)"><path d="M 24.3 92.6 L 14.2 92.6 L 30.9 66.5 L 47.7 92.6 L 37.6 92.6 L 37.6 137.7 L 24.3 137.7 Z M 24.3 92.6 " fill="#878859"></path><path d="M 45.1 23.4 L 45.1 33.4 L 71.2 16.7 L 45.1 0.0 L 45.1 10.1 L 0.0 10.1 L 0.0 23.4 Z M 45.1 23.4 " fill="none" stroke="#3B3C1B" stroke-width="2.00" transform="matrix(0.00, -1.00, -1.00, 0.00, 47.7, 137.7)"></path></g></g><g><clipPath id="clip-1201"><path d="M -3.6 127.3 L 65.5 127.3 L 65.5 192.8 L -3.6 192.8 Z M -3.6 127.3 "></path></clipPath><g clip-path="url(#clip-1201)"><text xml:space="preserve" font-family="HelveticaNeue-Bold" font-weight="bold" font-size="36.0" fill="#000000" transform="matrix(1.00, 0.00, -0.00, -1.00, 8.0, 147.0)">B</text><text xml:space="preserve" font-family="HelveticaNeue-Bold" font-weight="bold" font-size="36.0" fill="#000000" transform="matrix(1.00, 0.00, -0.00, -1.00, 33.3, 147.0)">u</text></g></g><g><clipPath id="clip-1202"><path d="M 101.3 139.7 L 101.3 63.7 L 62.3 63.7 L 62.3 139.7 Z M 101.3 139.7 "></path></clipPath><g clip-path="url(#clip-1202)"><path d="M 75.1 92.6 L 65.1 92.6 L 81.8 66.5 L 98.5 92.6 L 88.4 92.6 L 88.4 137.7 L 75.1 137.7 Z M 75.1 92.6 " fill="#878859"></path><path d="M 45.1 23.4 L 45.1 33.4 L 71.2 16.7 L 45.1 0.0 L 45.1 10.1 L 0.0 10.1 L 0.0 23.4 Z M 45.1 23.4 " fill="none" stroke="#3B3C1B" stroke-width="2.00" transform="matrix(0.00, -1.00, -1.00, 0.00, 98.5, 137.7)"></path></g></g><g><clipPath id="clip-1203"><path d="M 47.2 127.3 L 116.4 127.3 L 116.4 192.8 L 47.2 192.8 Z M 47.2 127.3 "></path></clipPath><g clip-path="url(#clip-1203)"><text xml:space="preserve" font-family="HelveticaNeue-Bold" font-weight="bold" font-size="36.0" fill="#000000" transform="matrix(1.00, 0.00, -0.00, -1.00, 58.0, 147.0)">B</text><text xml:space="preserve" font-family="HelveticaNeue-Bold" font-weight="bold" font-size="36.0" fill="#000000" transform="matrix(1.00, 0.00, -0.00, -1.00, 83.3, 147.0)">u</text></g></g><g><clipPath id="clip-1204"><path d="M 156.5 139.7 L 156.5 63.7 L 117.4 63.7 L 117.4 139.7 Z M 156.5 139.7 "></path></clipPath><g clip-path="url(#clip-1204)"><path d="M 130.3 92.6 L 120.2 92.6 L 136.9 66.5 L 153.6 92.6 L 143.6 92.6 L 143.6 137.7 L 130.3 137.7 Z M 130.3 92.6 " fill="#878859"></path><path d="M 45.1 23.4 L 45.1 33.4 L 71.2 16.7 L 45.1 0.0 L 45.1 10.1 L 0.0 10.1 L 0.0 23.4 Z M 45.1 23.4 " fill="none" stroke="#3B3C1B" stroke-width="2.00" transform="matrix(0.00, -1.00, -1.00, 0.00, 153.6, 137.7)"></path></g></g><g><clipPath id="clip-1205"><path d="M 102.3 127.3 L 171.5 127.3 L 171.5 192.8 L 102.3 192.8 Z M 102.3 127.3 "></path></clipPath><g clip-path="url(#clip-1205)"><text xml:space="preserve" font-family="HelveticaNeue-Bold" font-weight="bold" font-size="36.0" fill="#000000" transform="matrix(1.00, 0.00, -0.00, -1.00, 114.0, 147.0)">B</text><text xml:space="preserve" font-family="HelveticaNeue-Bold" font-weight="bold" font-size="36.0" fill="#000000" transform="matrix(1.00, 0.00, -0.00, -1.00, 139.3, 147.0)">u</text></g></g><g><clipPath id="clip-1206"><path d="M 207.3 139.7 L 207.3 63.7 L 168.2 63.7 L 168.2 139.7 Z M 207.3 139.7 "></path></clipPath><g clip-path="url(#clip-1206)"><path d="M 181.1 92.6 L 171.1 92.6 L 187.8 66.5 L 204.5 92.6 L 194.4 92.6 L 194.4 137.7 L 181.1 137.7 Z M 181.1 92.6 " fill="#878859"></path><path d="M 45.1 23.4 L 45.1 33.4 L 71.2 16.7 L 45.1 0.0 L 45.1 10.1 L 0.0 10.1 L 0.0 23.4 Z M 45.1 23.4 " fill="none" stroke="#3B3C1B" stroke-width="2.00" transform="matrix(0.00, -1.00, -1.00, 0.00, 204.5, 137.7)"></path></g></g><g><clipPath id="clip-1207"><path d="M 153.2 127.3 L 222.3 127.3 L 222.3 192.8 L 153.2 192.8 Z M 153.2 127.3 "></path></clipPath><g clip-path="url(#clip-1207)"><text xml:space="preserve" font-family="HelveticaNeue-Bold" font-weight="bold" font-size="36.0" fill="#000000" transform="matrix(1.00, 0.00, -0.00, -1.00, 164.0, 147.0)">B</text><text xml:space="preserve" font-family="HelveticaNeue-Bold" font-weight="bold" font-size="36.0" fill="#000000" transform="matrix(1.00, 0.00, -0.00, -1.00, 189.3, 147.0)">u</text></g></g><g><clipPath id="clip-1208"><path d="M 605.9 139.7 L 605.9 63.7 L 566.9 63.7 L 566.9 139.7 Z M 605.9 139.7 "></path></clipPath><g clip-path="url(#clip-1208)"><path d="M 579.8 92.6 L 569.7 92.6 L 586.4 66.5 L 603.1 92.6 L 593.0 92.6 L 593.0 137.7 L 579.8 137.7 Z M 579.8 92.6 " fill="#A85648"></path><path d="M 45.1 23.4 L 45.1 33.4 L 71.2 16.7 L 45.1 0.0 L 45.1 10.1 L 0.0 10.1 L 0.0 23.4 Z M 45.1 23.4 " fill="none" stroke="#763A33" stroke-width="2.00" transform="matrix(0.00, -1.00, -1.00, 0.00, 603.1, 137.7)"></path></g></g><g><clipPath id="clip-1209"><path d="M 552.5 127.3 L 620.3 127.3 L 620.3 192.8 L 552.5 192.8 Z M 552.5 127.3 "></path></clipPath><g clip-path="url(#clip-1209)"><text xml:space="preserve" font-family="HelveticaNeue-Bold" font-weight="bold" font-size="36.0" fill="#000000" transform="matrix(1.00, 0.00, -0.00, -1.00, 564.0, 147.0)">C</text><text xml:space="preserve" font-family="HelveticaNeue-Bold" font-weight="bold" font-size="36.0" fill="#000000" transform="matrix(1.00, 0.00, -0.00, -1.00, 590.7, 147.0)">y</text></g></g><g><clipPath id="clip-1210"><path d="M 420.7 138.9 L 420.7 62.8 L 381.6 62.8 L 381.6 138.9 Z M 420.7 138.9 "></path></clipPath><g clip-path="url(#clip-1210)"><path d="M 394.5 91.7 L 384.4 91.7 L 401.1 65.7 L 417.9 91.7 L 407.8 91.7 L 407.8 136.9 L 394.5 136.9 Z M 394.5 91.7 " fill="#FF2600"></path><path d="M 45.1 23.4 L 45.1 33.4 L 71.2 16.7 L 45.1 0.0 L 45.1 10.1 L 0.0 10.1 L 0.0 23.4 Z M 45.1 23.4 " fill="none" stroke="#163D40" stroke-width="2.00" transform="matrix(0.00, -1.00, -1.00, 0.00, 417.9, 136.9)"></path></g></g><g><clipPath id="clip-1211"><path d="M 261.8 139.7 L 261.8 63.7 L 222.7 63.7 L 222.7 139.7 Z M 261.8 139.7 "></path></clipPath><g clip-path="url(#clip-1211)"><path d="M 235.6 92.6 L 225.5 92.6 L 242.2 66.5 L 258.9 92.6 L 248.9 92.6 L 248.9 137.7 L 235.6 137.7 Z M 235.6 92.6 " fill="#A85648"></path><path d="M 45.1 23.4 L 45.1 33.4 L 71.2 16.7 L 45.1 0.0 L 45.1 10.1 L 0.0 10.1 L 0.0 23.4 Z M 45.1 23.4 " fill="none" stroke="#763A33" stroke-width="2.00" transform="matrix(0.00, -1.00, -1.00, 0.00, 258.9, 137.7)"></path></g></g><g><clipPath id="clip-1212"><path d="M 208.3 127.3 L 276.1 127.3 L 276.1 192.8 L 208.3 192.8 Z M 208.3 127.3 "></path></clipPath><g clip-path="url(#clip-1212)"><text xml:space="preserve" font-family="HelveticaNeue-Bold" font-weight="bold" font-size="36.0" fill="#000000" transform="matrix(1.00, 0.00, -0.00, -1.00, 220.0, 147.0)">C</text><text xml:space="preserve" font-family="HelveticaNeue-Bold" font-weight="bold" font-size="36.0" fill="#000000" transform="matrix(1.00, 0.00, -0.00, -1.00, 246.7, 147.0)">y</text></g></g><g><clipPath id="clip-1213"><path d="M 317.3 139.7 L 317.3 63.7 L 278.2 63.7 L 278.2 139.7 Z M 317.3 139.7 "></path></clipPath><g clip-path="url(#clip-1213)"><path d="M 291.1 92.6 L 281.1 92.6 L 297.8 66.5 L 314.5 92.6 L 304.4 92.6 L 304.4 137.7 L 291.1 137.7 Z M 291.1 92.6 " fill="#A85648"></path><path d="M 45.1 23.4 L 45.1 33.4 L 71.2 16.7 L 45.1 0.0 L 45.1 10.1 L 0.0 10.1 L 0.0 23.4 Z M 45.1 23.4 " fill="none" stroke="#763A33" stroke-width="2.00" transform="matrix(0.00, -1.00, -1.00, 0.00, 314.5, 137.7)"></path></g></g><g><clipPath id="clip-1214"><path d="M 263.9 127.3 L 331.7 127.3 L 331.7 192.8 L 263.9 192.8 Z M 263.9 127.3 "></path></clipPath><g clip-path="url(#clip-1214)"><text xml:space="preserve" font-family="HelveticaNeue-Bold" font-weight="bold" font-size="36.0" fill="#000000" transform="matrix(1.00, 0.00, -0.00, -1.00, 275.0, 147.0)">C</text><text xml:space="preserve" font-family="HelveticaNeue-Bold" font-weight="bold" font-size="36.0" fill="#000000" transform="matrix(1.00, 0.00, -0.00, -1.00, 301.7, 147.0)">y</text></g></g><g><clipPath id="clip-1215"><path d="M 662.8 139.7 L 662.8 63.7 L 623.7 63.7 L 623.7 139.7 Z M 662.8 139.7 "></path></clipPath><g clip-path="url(#clip-1215)"><path d="M 636.6 92.6 L 626.6 92.6 L 643.3 66.5 L 660.0 92.6 L 649.9 92.6 L 649.9 137.7 L 636.6 137.7 Z M 636.6 92.6 " fill="#A85648"></path><path d="M 45.1 23.4 L 45.1 33.4 L 71.2 16.7 L 45.1 0.0 L 45.1 10.1 L 0.0 10.1 L 0.0 23.4 Z M 45.1 23.4 " fill="none" stroke="#763A33" stroke-width="2.00" transform="matrix(0.00, -1.00, -1.00, 0.00, 660.0, 137.7)"></path></g></g><g><clipPath id="clip-1216"><path d="M 609.4 127.3 L 677.2 127.3 L 677.2 192.8 L 609.4 192.8 Z M 609.4 127.3 "></path></clipPath><g clip-path="url(#clip-1216)"><text xml:space="preserve" font-family="HelveticaNeue-Bold" font-weight="bold" font-size="36.0" fill="#000000" transform="matrix(1.00, 0.00, -0.00, -1.00, 621.0, 147.0)">C</text><text xml:space="preserve" font-family="HelveticaNeue-Bold" font-weight="bold" font-size="36.0" fill="#000000" transform="matrix(1.00, 0.00, -0.00, -1.00, 647.7, 147.0)">y</text></g></g><g><clipPath id="clip-1217"><path d="M 360.9 127.3 L 441.4 127.3 L 441.4 192.8 L 360.9 192.8 Z M 360.9 127.3 "></path></clipPath><g clip-path="url(#clip-1217)"><text xml:space="preserve" font-family="HelveticaNeue-Bold" font-weight="bold" font-size="36.0" fill="#000000" transform="matrix(1.00, 0.00, -0.00, -1.00, 372.0, 147.0)">B</text><text xml:space="preserve" font-family="HelveticaNeue-Bold" font-weight="bold" font-size="36.0" fill="#000000" transform="matrix(1.00, 0.00, -0.00, -1.00, 397.3, 147.0)">M</text></g></g><g><clipPath id="clip-1218"><path d="M 428.7 138.4 L 551.5 138.4 L 551.5 180.8 L 428.7 180.8 Z M 428.7 138.4 "></path></clipPath><g clip-path="url(#clip-1218)"><text xml:space="preserve" font-family="HelveticaNeue-Light" font-size="22.0" fill="#000000" transform="matrix(1.00, 0.00, -0.00, -1.00, 436.0, 152.0)">4</text><text xml:space="preserve" font-family="HelveticaNeue-Light" font-size="22.0" fill="#000000" transform="matrix(1.00, 0.00, -0.00, -1.00, 448.2, 152.0)"> </text><text xml:space="preserve" font-family="AppleSymbols" font-size="22.0" fill="#000000" transform="matrix(1.00, 0.00, -0.00, -1.00, 454.3, 152.0)">⨉</text><text xml:space="preserve" font-family="HelveticaNeue-Light" font-size="22.0" fill="#000000" transform="matrix(1.00, 0.00, -0.00, -1.00, 469.0, 152.0)"> </text><text xml:space="preserve" font-family="HelveticaNeue-Light" font-size="22.0" fill="#000000" transform="matrix(1.00, 0.00, -0.00, -1.00, 475.1, 152.0)">1</text><text xml:space="preserve" font-family="HelveticaNeue-Light" font-size="22.0" fill="#000000" transform="matrix(1.00, 0.00, -0.00, -1.00, 487.3, 152.0)">0</text><text xml:space="preserve" font-family="HelveticaNeue-Light" font-size="14.7" fill="#000000" transform="matrix(1.00, 0.00, -0.00, -1.00, 499.6, 159.1)">8</text><text xml:space="preserve" font-family="HelveticaNeue-Light" font-size="22.0" fill="#000000" transform="matrix(1.00, 0.00, -0.00, -1.00, 507.7, 152.0)"> </text><text xml:space="preserve" font-family="HelveticaNeue-Light" font-size="22.0" fill="#000000" transform="matrix(1.00, 0.00, -0.00, -1.00, 513.9, 152.0)">/</text><text xml:space="preserve" font-family="HelveticaNeue-Light" font-size="22.0" fill="#000000" transform="matrix(1.00, 0.00, -0.00, -1.00, 521.2, 152.0)">k</text><text xml:space="preserve" font-family="HelveticaNeue-Light" font-size="22.0" fill="#000000" transform="matrix(1.00, 0.00, -0.00, -1.00, 532.2, 152.0)">g</text></g></g></g></svg>