<?xml version="1.0" encoding="UTF-8" standalone="no"?><svg xmlns="http://www.w3.org/2000/svg" xmlns:xlink="http://www.w3.org/1999/xlink" clip-rule="evenodd" stroke-miterlimit="4.00" viewBox="0 0 1024 768"><desc>SVG generated by Keynote</desc><defs></defs><g transform="matrix(1.00, 0.00, -0.00, -1.00, 0.0, 768.0)"><path d="M 0.0 768.0 L 1024.0 768.0 L 1024.0 0.0 L 0.0 0.0 Z M 0.0 768.0 " fill="#FEFFFE"></path><g><clipPath id="clip-670"><path d="M 38.0 46.0 L 612.0 46.0 L 612.0 753.0 L 38.0 753.0 Z M 38.0 46.0 "></path></clipPath><g clip-path="url(#clip-670)"><image xlink:href="../../C400F096-584A-4B56-BD68-9E1307D23D25/assets/F12DC6DF0D8AEB823A10BEBBD1A4A80E.png" width="1248.00" height="1536.00" transform="matrix(0.46, 0.00, -0.00, -0.46, 38.0, 753.0)"></image></g></g><g><clipPath id="clip-671"><path d="M 10.0 37.0 L 469.0 37.0 L 469.0 8.0 L 10.0 8.0 Z M 9.8 37.1 "></path></clipPath><g clip-path="url(#clip-671)"><g><clipPath id="clip-672"><path d="M 10.0 -471.0 L 950.0 -471.0 L 950.0 37.0 L 10.0 37.0 Z M 10.0 -471.0 "></path></clipPath><g clip-path="url(#clip-672)"><image xlink:href="../../A2206527-5151-4634-824F-61D7FB82647B/assets/CE748C1795A42AC65A47A3CB0000529D.png" width="1880.00" height="1016.00" transform="matrix(0.50, 0.00, -0.00, -0.50, 10.0, 37.0)"></image></g></g></g></g><g><clipPath id="clip-673"><path d="M 555.0 36.0 L 1014.0 36.0 L 1014.0 9.0 L 555.0 9.0 Z M 555.2 36.0 "></path></clipPath><g clip-path="url(#clip-673)"><g><clipPath id="clip-674"><path d="M 448.0 -89.0 L 1388.0 -89.0 L 1388.0 419.0 L 448.0 419.0 Z M 448.0 -89.0 "></path></clipPath><g clip-path="url(#clip-674)"><image xlink:href="../../A2206527-5151-4634-824F-61D7FB82647B/assets/CE748C1795A42AC65A47A3CB0000529D.png" width="1880.00" height="1016.00" transform="matrix(0.50, 0.00, -0.00, -0.50, 448.0, 419.0)"></image></g></g></g></g><path d="M 15.7 0.0 L 578.8 0.0 C 578.8 0.0 579.3 0.0 580.2 0.0 C 587.9 0.4 594.1 6.6 594.4 14.3 C 594.5 15.2 594.5 15.7 594.5 15.7 C 594.5 15.7 594.5 16.1 594.4 17.1 C 594.1 24.8 587.9 31.0 580.2 31.3 C 579.3 31.3 578.8 31.3 578.8 31.3 L 15.7 31.3 C 15.7 31.3 15.2 31.3 14.3 31.3 C 6.6 31.0 0.4 24.8 0.0 17.1 C 0.0 16.1 0.0 15.7 0.0 15.7 C 0.0 15.7 0.0 15.2 0.0 14.3 C 0.4 6.6 6.6 0.4 14.3 0.0 C 15.2 0.0 15.7 0.0 15.7 0.0 Z M 15.7 0.0 " fill="none" stroke="#FF2600" stroke-width="6.00" transform="matrix(1.00, 0.00, 0.00, -1.00, 27.7, 677.0)"></path><path d="M 22.9 0.0 L 571.5 0.0 C 578.1 0.0 581.4 0.0 585.0 1.1 C 588.9 2.5 591.9 5.6 593.3 9.5 C 594.5 13.0 594.5 16.4 594.5 23.0 L 594.5 56.9 C 594.5 63.5 594.5 66.8 593.3 70.4 C 591.9 74.3 588.9 77.3 585.0 78.7 C 581.4 79.8 578.1 79.8 571.4 79.8 L 22.9 79.8 C 16.4 79.8 13.0 79.8 9.5 78.7 C 5.6 77.3 2.5 74.3 1.1 70.4 C 0.0 66.8 0.0 63.5 0.0 56.8 L 0.0 22.9 C 0.0 16.4 0.0 13.0 1.1 9.5 C 2.5 5.6 5.6 2.5 9.5 1.1 C 13.0 0.0 16.4 0.0 23.0 0.0 Z M 22.9 0.0 " fill="none" stroke="#FF2600" stroke-width="6.00" transform="matrix(1.00, 0.00, 0.00, -1.00, 27.8, 131.6)"></path><text xml:space="preserve" font-family="HelveticaNeue-Light" font-size="36.0" fill="#000000" transform="matrix(1.00, 0.00, -0.00, -1.00, 656.0, 647.0)">O</text><text xml:space="preserve" font-family="HelveticaNeue-Light" font-size="36.0" fill="#000000" transform="matrix(1.00, 0.00, -0.00, -1.00, 682.7, 647.0)">l</text><text xml:space="preserve" font-family="HelveticaNeue-Light" font-size="36.0" fill="#000000" transform="matrix(1.00, 0.00, -0.00, -1.00, 689.3, 647.0)">d</text><text xml:space="preserve" font-family="HelveticaNeue-Light" font-size="36.0" fill="#000000" transform="matrix(1.00, 0.00, -0.00, -1.00, 710.0, 647.0)">e</text><text xml:space="preserve" font-family="HelveticaNeue-Light" font-size="36.0" fill="#000000" transform="matrix(1.00, 0.00, -0.00, -1.00, 728.7, 647.0)">r</text><text xml:space="preserve" font-family="HelveticaNeue-Light" font-size="36.0" fill="#000000" transform="matrix(1.00, 0.00, -0.00, -1.00, 740.0, 647.0)"> </text><text xml:space="preserve" font-family="HelveticaNeue-Light" font-size="36.0" fill="#000000" transform="matrix(1.00, 0.00, -0.00, -1.00, 750.0, 647.0)">p</text><text xml:space="preserve" font-family="HelveticaNeue-Light" font-size="36.0" fill="#000000" transform="matrix(1.00, 0.00, -0.00, -1.00, 770.7, 647.0)">a</text><text xml:space="preserve" font-family="HelveticaNeue-Light" font-size="36.0" fill="#000000" transform="matrix(1.00, 0.00, -0.00, -1.00, 789.4, 647.0)">t</text><text xml:space="preserve" font-family="HelveticaNeue-Light" font-size="36.0" fill="#000000" transform="matrix(1.00, 0.00, -0.00, -1.00, 800.0, 647.0)">i</text><text xml:space="preserve" font-family="HelveticaNeue-Light" font-size="36.0" fill="#000000" transform="matrix(1.00, 0.00, -0.00, -1.00, 806.7, 647.0)">e</text><text xml:space="preserve" font-family="HelveticaNeue-Light" font-size="36.0" fill="#000000" transform="matrix(1.00, 0.00, -0.00, -1.00, 825.4, 647.0)">n</text><text xml:space="preserve" font-family="HelveticaNeue-Light" font-size="36.0" fill="#000000" transform="matrix(1.00, 0.00, -0.00, -1.00, 844.7, 647.0)">t</text><text xml:space="preserve" font-family="HelveticaNeue-Light" font-size="36.0" fill="#000000" transform="matrix(1.00, 0.00, -0.00, -1.00, 855.4, 647.0)">s</text><text xml:space="preserve" font-family="HelveticaNeue-Light" font-size="36.0" fill="#000000" transform="matrix(1.00, 0.00, -0.00, -1.00, 656.0, 103.0)">H</text><text xml:space="preserve" font-family="HelveticaNeue-Light" font-size="36.0" fill="#000000" transform="matrix(1.00, 0.00, -0.00, -1.00, 681.3, 103.0)">i</text><text xml:space="preserve" font-family="HelveticaNeue-Light" font-size="36.0" fill="#000000" transform="matrix(1.00, 0.00, -0.00, -1.00, 688.0, 103.0)">g</text><text xml:space="preserve" font-family="HelveticaNeue-Light" font-size="36.0" fill="#000000" transform="matrix(1.00, 0.00, -0.00, -1.00, 708.0, 103.0)">h</text><text xml:space="preserve" font-family="HelveticaNeue-Light" font-size="36.0" fill="#000000" transform="matrix(1.00, 0.00, -0.00, -1.00, 727.4, 103.0)">-</text><text xml:space="preserve" font-family="HelveticaNeue-Light" font-size="36.0" fill="#000000" transform="matrix(1.00, 0.00, -0.00, -1.00, 740.7, 103.0)">r</text><text xml:space="preserve" font-family="HelveticaNeue-Light" font-size="36.0" fill="#000000" transform="matrix(1.00, 0.00, -0.00, -1.00, 752.0, 103.0)">i</text><text xml:space="preserve" font-family="HelveticaNeue-Light" font-size="36.0" fill="#000000" transform="matrix(1.00, 0.00, -0.00, -1.00, 758.7, 103.0)">s</text><text xml:space="preserve" font-family="HelveticaNeue-Light" font-size="36.0" fill="#000000" transform="matrix(1.00, 0.00, -0.00, -1.00, 776.0, 103.0)">k</text><text xml:space="preserve" font-family="LucidaGrande" font-size="36.0" fill="#000000" transform="matrix(1.00, 0.00, -0.00, -1.00, 794.0, 103.0)"> </text><text xml:space="preserve" font-family="HelveticaNeue-Light" font-size="36.0" fill="#000000" transform="matrix(1.00, 0.00, -0.00, -1.00, 656.0, 59.0)">P</text><text xml:space="preserve" font-family="HelveticaNeue-Light" font-size="36.0" fill="#000000" transform="matrix(1.00, 0.00, -0.00, -1.00, 678.7, 59.0)">r</text><text xml:space="preserve" font-family="HelveticaNeue-Light" font-size="36.0" fill="#000000" transform="matrix(1.00, 0.00, -0.00, -1.00, 689.4, 59.0)">e</text><text xml:space="preserve" font-family="HelveticaNeue-Light" font-size="36.0" fill="#000000" transform="matrix(1.00, 0.00, -0.00, -1.00, 708.1, 59.0)">-</text><text xml:space="preserve" font-family="HelveticaNeue-Light" font-size="36.0" fill="#000000" transform="matrix(1.00, 0.00, -0.00, -1.00, 721.4, 59.0)">t</text><text xml:space="preserve" font-family="HelveticaNeue-Light" font-size="36.0" fill="#000000" transform="matrix(1.00, 0.00, -0.00, -1.00, 732.0, 59.0)">r</text><text xml:space="preserve" font-family="HelveticaNeue-Light" font-size="36.0" fill="#000000" transform="matrix(1.00, 0.00, -0.00, -1.00, 742.7, 59.0)">e</text><text xml:space="preserve" font-family="HelveticaNeue-Light" font-size="36.0" fill="#000000" transform="matrix(1.00, 0.00, -0.00, -1.00, 761.4, 59.0)">a</text><text xml:space="preserve" font-family="HelveticaNeue-Light" font-size="36.0" fill="#000000" transform="matrix(1.00, 0.00, -0.00, -1.00, 780.1, 59.0)">t</text><text xml:space="preserve" font-family="HelveticaNeue-Light" font-size="36.0" fill="#000000" transform="matrix(1.00, 0.00, -0.00, -1.00, 790.7, 59.0)">e</text><text xml:space="preserve" font-family="HelveticaNeue-Light" font-size="36.0" fill="#000000" transform="matrix(1.00, 0.00, -0.00, -1.00, 809.4, 59.0)">d</text></g></svg>