<?xml version="1.0" encoding="UTF-8" standalone="no"?><svg xmlns="http://www.w3.org/2000/svg" xmlns:xlink="http://www.w3.org/1999/xlink" clip-rule="evenodd" stroke-miterlimit="4.00" viewBox="0 0 1024 768"><desc>SVG generated by Keynote</desc><defs></defs><g transform="matrix(1.00, 0.00, -0.00, -1.00, 0.0, 768.0)"><path d="M 0.0 768.0 L 1024.0 768.0 L 1024.0 0.0 L 0.0 0.0 Z M 0.0 768.0 " fill="#FEFFFE"></path><path d="M 0.0 0.0 L 934.5 0.0 " fill="none" stroke="#9A9A9A" stroke-width="1.00" transform="matrix(1.00, 0.00, 0.00, -1.00, 45.0, 613.0)"></path><text xml:space="preserve" font-family="HelveticaNeue-Light" font-size="38.6" fill="#000000" transform="matrix(1.00, 0.00, -0.00, -1.00, 49.0, 690.0)">N</text><text xml:space="preserve" font-family="HelveticaNeue-Light" font-size="38.6" fill="#000000" transform="matrix(1.00, 0.00, -0.00, -1.00, 76.2, 690.0)">o</text><text xml:space="preserve" font-family="HelveticaNeue-Light" font-size="38.6" fill="#000000" transform="matrix(1.00, 0.00, -0.00, -1.00, 97.7, 690.0)">n</text><text xml:space="preserve" font-family="HelveticaNeue-Light" font-size="38.6" fill="#000000" transform="matrix(1.00, 0.00, -0.00, -1.00, 118.4, 690.0)">m</text><text xml:space="preserve" font-family="HelveticaNeue-Light" font-size="38.6" fill="#000000" transform="matrix(1.00, 0.00, -0.00, -1.00, 150.6, 690.0)">y</text><text xml:space="preserve" font-family="HelveticaNeue-Light" font-size="38.6" fill="#000000" transform="matrix(1.00, 0.00, -0.00, -1.00, 168.5, 690.0)">e</text><text xml:space="preserve" font-family="HelveticaNeue-Light" font-size="38.6" fill="#000000" transform="matrix(1.00, 0.00, -0.00, -1.00, 188.6, 690.0)">l</text><text xml:space="preserve" font-family="HelveticaNeue-Light" font-size="38.6" fill="#000000" transform="matrix(1.00, 0.00, -0.00, -1.00, 195.7, 690.0)">o</text><text xml:space="preserve" font-family="HelveticaNeue-Light" font-size="38.6" fill="#000000" transform="matrix(1.00, 0.00, -0.00, -1.00, 217.2, 690.0)">a</text><text xml:space="preserve" font-family="HelveticaNeue-Light" font-size="38.6" fill="#000000" transform="matrix(1.00, 0.00, -0.00, -1.00, 237.3, 690.0)">b</text><text xml:space="preserve" font-family="HelveticaNeue-Light" font-size="38.6" fill="#000000" transform="matrix(1.00, 0.00, -0.00, -1.00, 259.4, 690.0)">l</text><text xml:space="preserve" font-family="HelveticaNeue-Light" font-size="38.6" fill="#000000" transform="matrix(1.00, 0.00, -0.00, -1.00, 266.6, 690.0)">a</text><text xml:space="preserve" font-family="HelveticaNeue-Light" font-size="38.6" fill="#000000" transform="matrix(1.00, 0.00, -0.00, -1.00, 286.6, 690.0)">t</text><text xml:space="preserve" font-family="HelveticaNeue-Light" font-size="38.6" fill="#000000" transform="matrix(1.00, 0.00, -0.00, -1.00, 298.1, 690.0)">i</text><text xml:space="preserve" font-family="HelveticaNeue-Light" font-size="38.6" fill="#000000" transform="matrix(1.00, 0.00, -0.00, -1.00, 305.2, 690.0)">v</text><text xml:space="preserve" font-family="HelveticaNeue-Light" font-size="38.6" fill="#000000" transform="matrix(1.00, 0.00, -0.00, -1.00, 323.1, 690.0)">e</text><text xml:space="preserve" font-family="HelveticaNeue-Light" font-size="38.6" fill="#000000" transform="matrix(1.00, 0.00, -0.00, -1.00, 343.2, 690.0)"> </text><text xml:space="preserve" font-family="HelveticaNeue-Light" font-size="38.6" fill="#000000" transform="matrix(1.00, 0.00, -0.00, -1.00, 353.9, 690.0)">p</text><text xml:space="preserve" font-family="HelveticaNeue-Light" font-size="38.6" fill="#000000" transform="matrix(1.00, 0.00, -0.00, -1.00, 376.1, 690.0)">e</text><text xml:space="preserve" font-family="HelveticaNeue-Light" font-size="38.6" fill="#000000" transform="matrix(1.00, 0.00, -0.00, -1.00, 396.1, 690.0)">r</text><text xml:space="preserve" font-family="HelveticaNeue-Light" font-size="38.6" fill="#000000" transform="matrix(1.00, 0.00, -0.00, -1.00, 408.3, 690.0)">i</text><text xml:space="preserve" font-family="HelveticaNeue-Light" font-size="38.6" fill="#000000" transform="matrix(1.00, 0.00, -0.00, -1.00, 415.5, 690.0)">p</text><text xml:space="preserve" font-family="HelveticaNeue-Light" font-size="38.6" fill="#000000" transform="matrix(1.00, 0.00, -0.00, -1.00, 437.6, 690.0)">h</text><text xml:space="preserve" font-family="HelveticaNeue-Light" font-size="38.6" fill="#000000" transform="matrix(1.00, 0.00, -0.00, -1.00, 458.4, 690.0)">e</text><text xml:space="preserve" font-family="HelveticaNeue-Light" font-size="38.6" fill="#000000" transform="matrix(1.00, 0.00, -0.00, -1.00, 478.4, 690.0)">r</text><text xml:space="preserve" font-family="HelveticaNeue-Light" font-size="38.6" fill="#000000" transform="matrix(1.00, 0.00, -0.00, -1.00, 490.6, 690.0)">a</text><text xml:space="preserve" font-family="HelveticaNeue-Light" font-size="38.6" fill="#000000" transform="matrix(1.00, 0.00, -0.00, -1.00, 510.7, 690.0)">l</text><text xml:space="preserve" font-family="HelveticaNeue-Light" font-size="38.6" fill="#000000" transform="matrix(1.00, 0.00, -0.00, -1.00, 517.8, 690.0)"> </text><text xml:space="preserve" font-family="HelveticaNeue-Light" font-size="38.6" fill="#000000" transform="matrix(1.00, 0.00, -0.00, -1.00, 528.6, 690.0)">b</text><text xml:space="preserve" font-family="HelveticaNeue-Light" font-size="38.6" fill="#000000" transform="matrix(1.00, 0.00, -0.00, -1.00, 550.7, 690.0)">l</text><text xml:space="preserve" font-family="HelveticaNeue-Light" font-size="38.6" fill="#000000" transform="matrix(1.00, 0.00, -0.00, -1.00, 557.9, 690.0)">o</text><text xml:space="preserve" font-family="HelveticaNeue-Light" font-size="38.6" fill="#000000" transform="matrix(1.00, 0.00, -0.00, -1.00, 579.4, 690.0)">o</text><text xml:space="preserve" font-family="HelveticaNeue-Light" font-size="38.6" fill="#000000" transform="matrix(1.00, 0.00, -0.00, -1.00, 600.9, 690.0)">d</text><text xml:space="preserve" font-family="HelveticaNeue-Light" font-size="38.6" fill="#000000" transform="matrix(1.00, 0.00, -0.00, -1.00, 623.0, 690.0)"> </text><text xml:space="preserve" font-family="HelveticaNeue-Light" font-size="38.6" fill="#000000" transform="matrix(1.00, 0.00, -0.00, -1.00, 633.8, 690.0)">h</text><text xml:space="preserve" font-family="HelveticaNeue-Light" font-size="38.6" fill="#000000" transform="matrix(1.00, 0.00, -0.00, -1.00, 654.5, 690.0)">a</text><text xml:space="preserve" font-family="HelveticaNeue-Light" font-size="38.6" fill="#000000" transform="matrix(1.00, 0.00, -0.00, -1.00, 674.6, 690.0)">p</text><text xml:space="preserve" font-family="HelveticaNeue-Light" font-size="38.6" fill="#000000" transform="matrix(1.00, 0.00, -0.00, -1.00, 696.8, 690.0)">l</text><text xml:space="preserve" font-family="HelveticaNeue-Light" font-size="38.6" fill="#000000" transform="matrix(1.00, 0.00, -0.00, -1.00, 703.9, 690.0)">o</text><text xml:space="preserve" font-family="HelveticaNeue-Light" font-size="38.6" fill="#000000" transform="matrix(1.00, 0.00, -0.00, -1.00, 725.4, 690.0)">i</text><text xml:space="preserve" font-family="HelveticaNeue-Light" font-size="38.6" fill="#000000" transform="matrix(1.00, 0.00, -0.00, -1.00, 732.5, 690.0)">d</text><text xml:space="preserve" font-family="HelveticaNeue-Light" font-size="38.6" fill="#000000" transform="matrix(1.00, 0.00, -0.00, -1.00, 754.7, 690.0)">e</text><text xml:space="preserve" font-family="HelveticaNeue-Light" font-size="38.6" fill="#000000" transform="matrix(1.00, 0.00, -0.00, -1.00, 774.8, 690.0)">n</text><text xml:space="preserve" font-family="HelveticaNeue-Light" font-size="38.6" fill="#000000" transform="matrix(1.00, 0.00, -0.00, -1.00, 795.5, 690.0)">t</text><text xml:space="preserve" font-family="HelveticaNeue-Light" font-size="38.6" fill="#000000" transform="matrix(1.00, 0.00, -0.00, -1.00, 807.0, 690.0)">i</text><text xml:space="preserve" font-family="HelveticaNeue-Light" font-size="38.6" fill="#000000" transform="matrix(1.00, 0.00, -0.00, -1.00, 814.1, 690.0)">c</text><text xml:space="preserve" font-family="HelveticaNeue-Light" font-size="38.6" fill="#000000" transform="matrix(1.00, 0.00, -0.00, -1.00, 834.2, 690.0)">a</text><text xml:space="preserve" font-family="HelveticaNeue-Light" font-size="38.6" fill="#000000" transform="matrix(1.00, 0.00, -0.00, -1.00, 854.2, 690.0)">l</text><text xml:space="preserve" font-family="HelveticaNeue-Light" font-size="38.6" fill="#000000" transform="matrix(1.00, 0.00, -0.00, -1.00, 861.4, 690.0)"> </text><text xml:space="preserve" font-family="HelveticaNeue-Light" font-size="38.6" fill="#000000" transform="matrix(1.00, 0.00, -0.00, -1.00, 872.1, 690.0)">s</text><text xml:space="preserve" font-family="HelveticaNeue-Light" font-size="38.6" fill="#000000" transform="matrix(1.00, 0.00, -0.00, -1.00, 890.7, 690.0)">t</text><text xml:space="preserve" font-family="HelveticaNeue-Light" font-size="38.6" fill="#000000" transform="matrix(1.00, 0.00, -0.00, -1.00, 902.1, 690.0)">e</text><text xml:space="preserve" font-family="HelveticaNeue-Light" font-size="38.6" fill="#000000" transform="matrix(1.00, 0.00, -0.00, -1.00, 922.2, 690.0)">m</text><text xml:space="preserve" font-family="HelveticaNeue-Light" font-size="38.6" fill="#000000" transform="matrix(1.00, 0.00, -0.00, -1.00, 954.4, 690.0)"> </text><text xml:space="preserve" font-family="HelveticaNeue-Light" font-size="38.6" fill="#000000" transform="matrix(1.00, 0.00, -0.00, -1.00, 49.0, 644.0)">c</text><text xml:space="preserve" font-family="HelveticaNeue-Light" font-size="38.6" fill="#000000" transform="matrix(1.00, 0.00, -0.00, -1.00, 69.1, 644.0)">e</text><text xml:space="preserve" font-family="HelveticaNeue-Light" font-size="38.6" fill="#000000" transform="matrix(1.00, 0.00, -0.00, -1.00, 89.1, 644.0)">l</text><text xml:space="preserve" font-family="HelveticaNeue-Light" font-size="38.6" fill="#000000" transform="matrix(1.00, 0.00, -0.00, -1.00, 96.3, 644.0)">l</text><text xml:space="preserve" font-family="HelveticaNeue-Light" font-size="38.6" fill="#000000" transform="matrix(1.00, 0.00, -0.00, -1.00, 103.4, 644.0)"> </text><text xml:space="preserve" font-family="HelveticaNeue-Light" font-size="38.6" fill="#000000" transform="matrix(1.00, 0.00, -0.00, -1.00, 114.1, 644.0)">t</text><text xml:space="preserve" font-family="HelveticaNeue-Light" font-size="38.6" fill="#000000" transform="matrix(1.00, 0.00, -0.00, -1.00, 125.6, 644.0)">r</text><text xml:space="preserve" font-family="HelveticaNeue-Light" font-size="38.6" fill="#000000" transform="matrix(1.00, 0.00, -0.00, -1.00, 137.8, 644.0)">a</text><text xml:space="preserve" font-family="HelveticaNeue-Light" font-size="38.6" fill="#000000" transform="matrix(1.00, 0.00, -0.00, -1.00, 157.8, 644.0)">n</text><text xml:space="preserve" font-family="HelveticaNeue-Light" font-size="38.6" fill="#000000" transform="matrix(1.00, 0.00, -0.00, -1.00, 178.6, 644.0)">s</text><text xml:space="preserve" font-family="HelveticaNeue-Light" font-size="38.6" fill="#000000" transform="matrix(1.00, 0.00, -0.00, -1.00, 197.1, 644.0)">p</text><text xml:space="preserve" font-family="HelveticaNeue-Light" font-size="38.6" fill="#000000" transform="matrix(1.00, 0.00, -0.00, -1.00, 219.3, 644.0)">l</text><text xml:space="preserve" font-family="HelveticaNeue-Light" font-size="38.6" fill="#000000" transform="matrix(1.00, 0.00, -0.00, -1.00, 226.5, 644.0)">a</text><text xml:space="preserve" font-family="HelveticaNeue-Light" font-size="38.6" fill="#000000" transform="matrix(1.00, 0.00, -0.00, -1.00, 246.5, 644.0)">n</text><text xml:space="preserve" font-family="HelveticaNeue-Light" font-size="38.6" fill="#000000" transform="matrix(1.00, 0.00, -0.00, -1.00, 267.3, 644.0)">t</text><text xml:space="preserve" font-family="HelveticaNeue-Light" font-size="38.6" fill="#000000" transform="matrix(1.00, 0.00, -0.00, -1.00, 278.7, 644.0)">a</text><text xml:space="preserve" font-family="HelveticaNeue-Light" font-size="38.6" fill="#000000" transform="matrix(1.00, 0.00, -0.00, -1.00, 298.8, 644.0)">t</text><text xml:space="preserve" font-family="HelveticaNeue-Light" font-size="38.6" fill="#000000" transform="matrix(1.00, 0.00, -0.00, -1.00, 310.2, 644.0)">i</text><text xml:space="preserve" font-family="HelveticaNeue-Light" font-size="38.6" fill="#000000" transform="matrix(1.00, 0.00, -0.00, -1.00, 317.4, 644.0)">o</text><text xml:space="preserve" font-family="HelveticaNeue-Light" font-size="38.6" fill="#000000" transform="matrix(1.00, 0.00, -0.00, -1.00, 338.8, 644.0)">n</text><text xml:space="preserve" font-family="HelveticaNeue-Light" font-size="38.6" fill="#000000" transform="matrix(1.00, 0.00, -0.00, -1.00, 359.6, 644.0)"> </text><text xml:space="preserve" font-family="HelveticaNeue-Light" font-size="38.6" fill="#000000" transform="matrix(1.00, 0.00, -0.00, -1.00, 370.3, 644.0)">f</text><text xml:space="preserve" font-family="HelveticaNeue-Light" font-size="38.6" fill="#000000" transform="matrix(1.00, 0.00, -0.00, -1.00, 380.3, 644.0)">o</text><text xml:space="preserve" font-family="HelveticaNeue-Light" font-size="38.6" fill="#000000" transform="matrix(1.00, 0.00, -0.00, -1.00, 401.8, 644.0)">r</text><text xml:space="preserve" font-family="HelveticaNeue-Light" font-size="38.6" fill="#000000" transform="matrix(1.00, 0.00, -0.00, -1.00, 414.0, 644.0)"> </text><text xml:space="preserve" font-family="HelveticaNeue-Light" font-size="38.6" fill="#000000" transform="matrix(1.00, 0.00, -0.00, -1.00, 424.7, 644.0)">r</text><text xml:space="preserve" font-family="HelveticaNeue-Light" font-size="38.6" fill="#000000" transform="matrix(1.00, 0.00, -0.00, -1.00, 436.2, 644.0)">e</text><text xml:space="preserve" font-family="HelveticaNeue-Light" font-size="38.6" fill="#000000" transform="matrix(1.00, 0.00, -0.00, -1.00, 456.3, 644.0)">f</text><text xml:space="preserve" font-family="HelveticaNeue-Light" font-size="38.6" fill="#000000" transform="matrix(1.00, 0.00, -0.00, -1.00, 466.3, 644.0)">r</text><text xml:space="preserve" font-family="HelveticaNeue-Light" font-size="38.6" fill="#000000" transform="matrix(1.00, 0.00, -0.00, -1.00, 478.4, 644.0)">a</text><text xml:space="preserve" font-family="HelveticaNeue-Light" font-size="38.6" fill="#000000" transform="matrix(1.00, 0.00, -0.00, -1.00, 498.5, 644.0)">c</text><text xml:space="preserve" font-family="HelveticaNeue-Light" font-size="38.6" fill="#000000" transform="matrix(1.00, 0.00, -0.00, -1.00, 518.6, 644.0)">t</text><text xml:space="preserve" font-family="HelveticaNeue-Light" font-size="38.6" fill="#000000" transform="matrix(1.00, 0.00, -0.00, -1.00, 530.0, 644.0)">o</text><text xml:space="preserve" font-family="HelveticaNeue-Light" font-size="38.6" fill="#000000" transform="matrix(1.00, 0.00, -0.00, -1.00, 551.5, 644.0)">r</text><text xml:space="preserve" font-family="HelveticaNeue-Light" font-size="38.6" fill="#000000" transform="matrix(1.00, 0.00, -0.00, -1.00, 563.6, 644.0)">y</text><text xml:space="preserve" font-family="HelveticaNeue-Light" font-size="38.6" fill="#000000" transform="matrix(1.00, 0.00, -0.00, -1.00, 581.5, 644.0)"> </text><text xml:space="preserve" font-family="HelveticaNeue-Light" font-size="38.6" fill="#000000" transform="matrix(1.00, 0.00, -0.00, -1.00, 592.3, 644.0)">s</text><text xml:space="preserve" font-family="HelveticaNeue-Light" font-size="38.6" fill="#000000" transform="matrix(1.00, 0.00, -0.00, -1.00, 610.9, 644.0)">e</text><text xml:space="preserve" font-family="HelveticaNeue-Light" font-size="38.6" fill="#000000" transform="matrix(1.00, 0.00, -0.00, -1.00, 630.9, 644.0)">v</text><text xml:space="preserve" font-family="HelveticaNeue-Light" font-size="38.6" fill="#000000" transform="matrix(1.00, 0.00, -0.00, -1.00, 648.8, 644.0)">e</text><text xml:space="preserve" font-family="HelveticaNeue-Light" font-size="38.6" fill="#000000" transform="matrix(1.00, 0.00, -0.00, -1.00, 668.9, 644.0)">r</text><text xml:space="preserve" font-family="HelveticaNeue-Light" font-size="38.6" fill="#000000" transform="matrix(1.00, 0.00, -0.00, -1.00, 680.3, 644.0)">e</text><text xml:space="preserve" font-family="HelveticaNeue-Light" font-size="38.6" fill="#000000" transform="matrix(1.00, 0.00, -0.00, -1.00, 700.4, 644.0)"> </text><text xml:space="preserve" font-family="HelveticaNeue-Light" font-size="38.6" fill="#000000" transform="matrix(1.00, 0.00, -0.00, -1.00, 711.1, 644.0)">a</text><text xml:space="preserve" font-family="HelveticaNeue-Light" font-size="38.6" fill="#000000" transform="matrix(1.00, 0.00, -0.00, -1.00, 731.2, 644.0)">p</text><text xml:space="preserve" font-family="HelveticaNeue-Light" font-size="38.6" fill="#000000" transform="matrix(1.00, 0.00, -0.00, -1.00, 753.4, 644.0)">l</text><text xml:space="preserve" font-family="HelveticaNeue-Light" font-size="38.6" fill="#000000" transform="matrix(1.00, 0.00, -0.00, -1.00, 760.5, 644.0)">a</text><text xml:space="preserve" font-family="HelveticaNeue-Light" font-size="38.6" fill="#000000" transform="matrix(1.00, 0.00, -0.00, -1.00, 780.6, 644.0)">s</text><text xml:space="preserve" font-family="HelveticaNeue-Light" font-size="38.6" fill="#000000" transform="matrix(1.00, 0.00, -0.00, -1.00, 799.2, 644.0)">t</text><text xml:space="preserve" font-family="HelveticaNeue-Light" font-size="38.6" fill="#000000" transform="matrix(1.00, 0.00, -0.00, -1.00, 810.6, 644.0)">i</text><text xml:space="preserve" font-family="HelveticaNeue-Light" font-size="38.6" fill="#000000" transform="matrix(1.00, 0.00, -0.00, -1.00, 817.7, 644.0)">c</text><text xml:space="preserve" font-family="HelveticaNeue-Light" font-size="38.6" fill="#000000" transform="matrix(1.00, 0.00, -0.00, -1.00, 837.8, 644.0)"> </text><text xml:space="preserve" font-family="HelveticaNeue-Light" font-size="38.6" fill="#000000" transform="matrix(1.00, 0.00, -0.00, -1.00, 848.5, 644.0)">a</text><text xml:space="preserve" font-family="HelveticaNeue-Light" font-size="38.6" fill="#000000" transform="matrix(1.00, 0.00, -0.00, -1.00, 868.6, 644.0)">n</text><text xml:space="preserve" font-family="HelveticaNeue-Light" font-size="38.6" fill="#000000" transform="matrix(1.00, 0.00, -0.00, -1.00, 889.3, 644.0)">e</text><text xml:space="preserve" font-family="HelveticaNeue-Light" font-size="38.6" fill="#000000" transform="matrix(1.00, 0.00, -0.00, -1.00, 909.4, 644.0)">m</text><text xml:space="preserve" font-family="HelveticaNeue-Light" font-size="38.6" fill="#000000" transform="matrix(1.00, 0.00, -0.00, -1.00, 941.6, 644.0)">i</text><text xml:space="preserve" font-family="HelveticaNeue-Light" font-size="38.6" fill="#000000" transform="matrix(1.00, 0.00, -0.00, -1.00, 948.7, 644.0)">a</text><text xml:space="preserve" font-family="HelveticaNeue-Light" font-size="36.0" fill="#747373" transform="matrix(1.00, 0.00, -0.00, -1.00, 49.0, 554.0)">8</text><text xml:space="preserve" font-family="HelveticaNeue-Light" font-size="36.0" fill="#747373" transform="matrix(1.00, 0.00, -0.00, -1.00, 69.0, 554.0)"> </text><text xml:space="preserve" font-family="HelveticaNeue-Light" font-size="36.0" fill="#747373" transform="matrix(1.00, 0.00, -0.00, -1.00, 79.0, 554.0)">p</text><text xml:space="preserve" font-family="HelveticaNeue-Light" font-size="36.0" fill="#747373" transform="matrix(1.00, 0.00, -0.00, -1.00, 99.7, 554.0)">a</text><text xml:space="preserve" font-family="HelveticaNeue-Light" font-size="36.0" fill="#747373" transform="matrix(1.00, 0.00, -0.00, -1.00, 118.4, 554.0)">t</text><text xml:space="preserve" font-family="HelveticaNeue-Light" font-size="36.0" fill="#747373" transform="matrix(1.00, 0.00, -0.00, -1.00, 129.0, 554.0)">i</text><text xml:space="preserve" font-family="HelveticaNeue-Light" font-size="36.0" fill="#747373" transform="matrix(1.00, 0.00, -0.00, -1.00, 135.7, 554.0)">e</text><text xml:space="preserve" font-family="HelveticaNeue-Light" font-size="36.0" fill="#747373" transform="matrix(1.00, 0.00, -0.00, -1.00, 154.4, 554.0)">n</text><text xml:space="preserve" font-family="HelveticaNeue-Light" font-size="36.0" fill="#747373" transform="matrix(1.00, 0.00, -0.00, -1.00, 173.7, 554.0)">t</text><text xml:space="preserve" font-family="HelveticaNeue-Light" font-size="36.0" fill="#747373" transform="matrix(1.00, 0.00, -0.00, -1.00, 184.4, 554.0)">s</text><text xml:space="preserve" font-family="HelveticaNeue-Light" font-size="36.0" fill="#747373" transform="matrix(1.00, 0.00, -0.00, -1.00, 201.7, 554.0)">,</text><text xml:space="preserve" font-family="HelveticaNeue-Light" font-size="36.0" fill="#747373" transform="matrix(1.00, 0.00, -0.00, -1.00, 211.7, 554.0)"> </text><text xml:space="preserve" font-family="HelveticaNeue-Light" font-size="36.0" fill="#747373" transform="matrix(1.00, 0.00, -0.00, -1.00, 221.7, 554.0)">R</text><text xml:space="preserve" font-family="HelveticaNeue-Light" font-size="36.0" fill="#747373" transform="matrix(1.00, 0.00, -0.00, -1.00, 245.7, 554.0)">I</text><text xml:space="preserve" font-family="HelveticaNeue-Light" font-size="36.0" fill="#747373" transform="matrix(1.00, 0.00, -0.00, -1.00, 253.7, 554.0)"> </text><text xml:space="preserve" font-family="HelveticaNeue-Light" font-size="36.0" fill="#747373" transform="matrix(1.00, 0.00, -0.00, -1.00, 263.7, 554.0)">F</text><text xml:space="preserve" font-family="HelveticaNeue-Light" font-size="36.0" fill="#747373" transform="matrix(1.00, 0.00, -0.00, -1.00, 283.0, 554.0)">l</text><text xml:space="preserve" font-family="HelveticaNeue-Light" font-size="36.0" fill="#747373" transform="matrix(1.00, 0.00, -0.00, -1.00, 289.7, 554.0)">u</text><text xml:space="preserve" font-family="HelveticaNeue-Light" font-size="36.0" fill="#747373" transform="matrix(1.00, 0.00, -0.00, -1.00, 309.0, 554.0)">/</text><text xml:space="preserve" font-family="HelveticaNeue-Light" font-size="36.0" fill="#747373" transform="matrix(1.00, 0.00, -0.00, -1.00, 321.0, 554.0)">C</text><text xml:space="preserve" font-family="HelveticaNeue-Light" font-size="36.0" fill="#747373" transform="matrix(1.00, 0.00, -0.00, -1.00, 346.4, 554.0)">y</text><text xml:space="preserve" font-family="HelveticaNeue-Light" font-size="36.0" fill="#747373" transform="matrix(1.00, 0.00, -0.00, -1.00, 363.0, 554.0)">/</text><text xml:space="preserve" font-family="HelveticaNeue-Light" font-size="36.0" fill="#747373" transform="matrix(1.00, 0.00, -0.00, -1.00, 375.0, 554.0)">T</text><text xml:space="preserve" font-family="HelveticaNeue-Light" font-size="36.0" fill="#747373" transform="matrix(1.00, 0.00, -0.00, -1.00, 395.0, 554.0)">B</text><text xml:space="preserve" font-family="HelveticaNeue-Light" font-size="36.0" fill="#747373" transform="matrix(1.00, 0.00, -0.00, -1.00, 419.0, 554.0)">I</text><text xml:space="preserve" font-family="HelveticaNeue-Light" font-size="36.0" fill="#747373" transform="matrix(1.00, 0.00, -0.00, -1.00, 427.0, 554.0)"> </text><text xml:space="preserve" font-family="HelveticaNeue-Light" font-size="36.0" fill="#747373" transform="matrix(1.00, 0.00, -0.00, -1.00, 437.0, 554.0)">c</text><text xml:space="preserve" font-family="HelveticaNeue-Light" font-size="36.0" fill="#747373" transform="matrix(1.00, 0.00, -0.00, -1.00, 455.7, 554.0)">o</text><text xml:space="preserve" font-family="HelveticaNeue-Light" font-size="36.0" fill="#747373" transform="matrix(1.00, 0.00, -0.00, -1.00, 475.7, 554.0)">n</text><text xml:space="preserve" font-family="HelveticaNeue-Light" font-size="36.0" fill="#747373" transform="matrix(1.00, 0.00, -0.00, -1.00, 495.1, 554.0)">d</text><text xml:space="preserve" font-family="HelveticaNeue-Light" font-size="36.0" fill="#747373" transform="matrix(1.00, 0.00, -0.00, -1.00, 515.7, 554.0)">i</text><text xml:space="preserve" font-family="HelveticaNeue-Light" font-size="36.0" fill="#747373" transform="matrix(1.00, 0.00, -0.00, -1.00, 522.4, 554.0)">t</text><text xml:space="preserve" font-family="HelveticaNeue-Light" font-size="36.0" fill="#747373" transform="matrix(1.00, 0.00, -0.00, -1.00, 533.1, 554.0)">i</text><text xml:space="preserve" font-family="HelveticaNeue-Light" font-size="36.0" fill="#747373" transform="matrix(1.00, 0.00, -0.00, -1.00, 539.7, 554.0)">o</text><text xml:space="preserve" font-family="HelveticaNeue-Light" font-size="36.0" fill="#747373" transform="matrix(1.00, 0.00, -0.00, -1.00, 559.7, 554.0)">n</text><text xml:space="preserve" font-family="HelveticaNeue-Light" font-size="36.0" fill="#747373" transform="matrix(1.00, 0.00, -0.00, -1.00, 579.1, 554.0)">i</text><text xml:space="preserve" font-family="HelveticaNeue-Light" font-size="36.0" fill="#747373" transform="matrix(1.00, 0.00, -0.00, -1.00, 585.7, 554.0)">n</text><text xml:space="preserve" font-family="HelveticaNeue-Light" font-size="36.0" fill="#747373" transform="matrix(1.00, 0.00, -0.00, -1.00, 605.1, 554.0)">g</text><g><clipPath id="clip-1528"><path d="M 0.0 108.0 L 1024.0 108.0 L 1024.0 527.0 L 0.0 527.0 Z M 0.0 108.0 "></path></clipPath><g clip-path="url(#clip-1528)"><image xlink:href="553FF2568CA09C9E6359C7941B8302E3.png" width="2408.00" height="984.00" transform="matrix(0.43, 0.00, -0.00, -0.43, 0.0, 527.0)"></image></g></g><text xml:space="preserve" font-family="HelveticaNeue-Light" font-size="22.0" fill="#000000" transform="matrix(1.00, 0.00, -0.00, -1.00, 367.0, 3.0)">C</text><text xml:space="preserve" font-family="HelveticaNeue-Light" font-size="22.0" fill="#000000" transform="matrix(1.00, 0.00, -0.00, -1.00, 382.5, 3.0)">l</text><text xml:space="preserve" font-family="HelveticaNeue-Light" font-size="22.0" fill="#000000" transform="matrix(1.00, 0.00, -0.00, -1.00, 386.6, 3.0)">a</text><text xml:space="preserve" font-family="HelveticaNeue-Light" font-size="22.0" fill="#000000" transform="matrix(1.00, 0.00, -0.00, -1.00, 398.0, 3.0)">y</text><text xml:space="preserve" font-family="HelveticaNeue-Light" font-size="22.0" fill="#000000" transform="matrix(1.00, 0.00, -0.00, -1.00, 408.2, 3.0)"> </text><text xml:space="preserve" font-family="HelveticaNeue-Light" font-size="22.0" fill="#000000" transform="matrix(1.00, 0.00, -0.00, -1.00, 414.3, 3.0)">J</text><text xml:space="preserve" font-family="HelveticaNeue-Light" font-size="22.0" fill="#000000" transform="matrix(1.00, 0.00, -0.00, -1.00, 425.3, 3.0)">,</text><text xml:space="preserve" font-family="HelveticaNeue-Light" font-size="22.0" fill="#000000" transform="matrix(1.00, 0.00, -0.00, -1.00, 431.4, 3.0)"> </text><text xml:space="preserve" font-family="HelveticaNeue-Light" font-size="22.0" fill="#000000" transform="matrix(1.00, 0.00, -0.00, -1.00, 437.5, 3.0)">e</text><text xml:space="preserve" font-family="HelveticaNeue-Light" font-size="22.0" fill="#000000" transform="matrix(1.00, 0.00, -0.00, -1.00, 448.9, 3.0)">t</text><text xml:space="preserve" font-family="HelveticaNeue-Light" font-size="22.0" fill="#000000" transform="matrix(1.00, 0.00, -0.00, -1.00, 455.4, 3.0)"> </text><text xml:space="preserve" font-family="HelveticaNeue-Light" font-size="22.0" fill="#000000" transform="matrix(1.00, 0.00, -0.00, -1.00, 461.6, 3.0)">a</text><text xml:space="preserve" font-family="HelveticaNeue-Light" font-size="22.0" fill="#000000" transform="matrix(1.00, 0.00, -0.00, -1.00, 473.0, 3.0)">l</text><text xml:space="preserve" font-family="HelveticaNeue-Light" font-size="22.0" fill="#000000" transform="matrix(1.00, 0.00, -0.00, -1.00, 477.0, 3.0)">.</text><text xml:space="preserve" font-family="HelveticaNeue-Light" font-size="22.0" fill="#000000" transform="matrix(1.00, 0.00, -0.00, -1.00, 483.2, 3.0)"> </text><text xml:space="preserve" font-family="HelveticaNeue-Light" font-size="22.0" fill="#000000" transform="matrix(1.00, 0.00, -0.00, -1.00, 489.3, 3.0)">B</text><text xml:space="preserve" font-family="HelveticaNeue-Light" font-size="22.0" fill="#000000" transform="matrix(1.00, 0.00, -0.00, -1.00, 503.9, 3.0)">i</text><text xml:space="preserve" font-family="HelveticaNeue-Light" font-size="22.0" fill="#000000" transform="matrix(1.00, 0.00, -0.00, -1.00, 508.0, 3.0)">o</text><text xml:space="preserve" font-family="HelveticaNeue-Light" font-size="22.0" fill="#000000" transform="matrix(1.00, 0.00, -0.00, -1.00, 520.3, 3.0)">l</text><text xml:space="preserve" font-family="HelveticaNeue-Light" font-size="22.0" fill="#000000" transform="matrix(1.00, 0.00, -0.00, -1.00, 524.3, 3.0)"> </text><text xml:space="preserve" font-family="HelveticaNeue-Light" font-size="22.0" fill="#000000" transform="matrix(1.00, 0.00, -0.00, -1.00, 530.4, 3.0)">B</text><text xml:space="preserve" font-family="HelveticaNeue-Light" font-size="22.0" fill="#000000" transform="matrix(1.00, 0.00, -0.00, -1.00, 545.1, 3.0)">l</text><text xml:space="preserve" font-family="HelveticaNeue-Light" font-size="22.0" fill="#000000" transform="matrix(1.00, 0.00, -0.00, -1.00, 549.2, 3.0)">o</text><text xml:space="preserve" font-family="HelveticaNeue-Light" font-size="22.0" fill="#000000" transform="matrix(1.00, 0.00, -0.00, -1.00, 561.4, 3.0)">o</text><text xml:space="preserve" font-family="HelveticaNeue-Light" font-size="22.0" fill="#000000" transform="matrix(1.00, 0.00, -0.00, -1.00, 573.6, 3.0)">d</text><text xml:space="preserve" font-family="HelveticaNeue-Light" font-size="22.0" fill="#000000" transform="matrix(1.00, 0.00, -0.00, -1.00, 586.3, 3.0)"> </text><text xml:space="preserve" font-family="HelveticaNeue-Light" font-size="22.0" fill="#000000" transform="matrix(1.00, 0.00, -0.00, -1.00, 592.4, 3.0)">M</text><text xml:space="preserve" font-family="HelveticaNeue-Light" font-size="22.0" fill="#000000" transform="matrix(1.00, 0.00, -0.00, -1.00, 610.5, 3.0)">a</text><text xml:space="preserve" font-family="HelveticaNeue-Light" font-size="22.0" fill="#000000" transform="matrix(1.00, 0.00, -0.00, -1.00, 621.9, 3.0)">r</text><text xml:space="preserve" font-family="HelveticaNeue-Light" font-size="22.0" fill="#000000" transform="matrix(1.00, 0.00, -0.00, -1.00, 628.8, 3.0)">r</text><text xml:space="preserve" font-family="HelveticaNeue-Light" font-size="22.0" fill="#000000" transform="matrix(1.00, 0.00, -0.00, -1.00, 635.3, 3.0)">o</text><text xml:space="preserve" font-family="HelveticaNeue-Light" font-size="22.0" fill="#000000" transform="matrix(1.00, 0.00, -0.00, -1.00, 647.6, 3.0)">w</text><text xml:space="preserve" font-family="HelveticaNeue-Light" font-size="22.0" fill="#000000" transform="matrix(1.00, 0.00, -0.00, -1.00, 663.9, 3.0)"> </text><text xml:space="preserve" font-family="HelveticaNeue-Light" font-size="22.0" fill="#000000" transform="matrix(1.00, 0.00, -0.00, -1.00, 670.0, 3.0)">T</text><text xml:space="preserve" font-family="HelveticaNeue-Light" font-size="22.0" fill="#000000" transform="matrix(1.00, 0.00, -0.00, -1.00, 680.2, 3.0)">r</text><text xml:space="preserve" font-family="HelveticaNeue-Light" font-size="22.0" fill="#000000" transform="matrix(1.00, 0.00, -0.00, -1.00, 687.1, 3.0)">a</text><text xml:space="preserve" font-family="HelveticaNeue-Light" font-size="22.0" fill="#000000" transform="matrix(1.00, 0.00, -0.00, -1.00, 698.5, 3.0)">n</text><text xml:space="preserve" font-family="HelveticaNeue-Light" font-size="22.0" fill="#000000" transform="matrix(1.00, 0.00, -0.00, -1.00, 710.4, 3.0)">s</text><text xml:space="preserve" font-family="HelveticaNeue-Light" font-size="22.0" fill="#000000" transform="matrix(1.00, 0.00, -0.00, -1.00, 720.9, 3.0)">p</text><text xml:space="preserve" font-family="HelveticaNeue-Light" font-size="22.0" fill="#000000" transform="matrix(1.00, 0.00, -0.00, -1.00, 733.6, 3.0)">l</text><text xml:space="preserve" font-family="HelveticaNeue-Light" font-size="22.0" fill="#000000" transform="matrix(1.00, 0.00, -0.00, -1.00, 737.6, 3.0)">a</text><text xml:space="preserve" font-family="HelveticaNeue-Light" font-size="22.0" fill="#000000" transform="matrix(1.00, 0.00, -0.00, -1.00, 749.1, 3.0)">n</text><text xml:space="preserve" font-family="HelveticaNeue-Light" font-size="22.0" fill="#000000" transform="matrix(1.00, 0.00, -0.00, -1.00, 760.9, 3.0)">t</text><text xml:space="preserve" font-family="HelveticaNeue-Light" font-size="22.0" fill="#000000" transform="matrix(1.00, 0.00, -0.00, -1.00, 767.4, 3.0)">.</text><text xml:space="preserve" font-family="HelveticaNeue-Light" font-size="22.0" fill="#000000" transform="matrix(1.00, 0.00, -0.00, -1.00, 773.5, 3.0)"> </text><text xml:space="preserve" font-family="HelveticaNeue-Light" font-size="22.0" fill="#000000" transform="matrix(1.00, 0.00, -0.00, -1.00, 779.6, 3.0)">2</text><text xml:space="preserve" font-family="HelveticaNeue-Light" font-size="22.0" fill="#000000" transform="matrix(1.00, 0.00, -0.00, -1.00, 791.8, 3.0)">0</text><text xml:space="preserve" font-family="HelveticaNeue-Light" font-size="22.0" fill="#000000" transform="matrix(1.00, 0.00, -0.00, -1.00, 804.1, 3.0)">1</text><text xml:space="preserve" font-family="HelveticaNeue-Light" font-size="22.0" fill="#000000" transform="matrix(1.00, 0.00, -0.00, -1.00, 816.3, 3.0)">4</text><text xml:space="preserve" font-family="HelveticaNeue-Light" font-size="22.0" fill="#000000" transform="matrix(1.00, 0.00, -0.00, -1.00, 828.5, 3.0)"> </text><text xml:space="preserve" font-family="HelveticaNeue-Light" font-size="22.0" fill="#000000" transform="matrix(1.00, 0.00, -0.00, -1.00, 834.7, 3.0)">N</text><text xml:space="preserve" font-family="HelveticaNeue-Light" font-size="22.0" fill="#000000" transform="matrix(1.00, 0.00, -0.00, -1.00, 850.1, 3.0)">o</text><text xml:space="preserve" font-family="HelveticaNeue-Light" font-size="22.0" fill="#000000" transform="matrix(1.00, 0.00, -0.00, -1.00, 862.4, 3.0)">v</text><text xml:space="preserve" font-family="HelveticaNeue-Light" font-size="22.0" fill="#000000" transform="matrix(1.00, 0.00, -0.00, -1.00, 872.6, 3.0)">;</text><text xml:space="preserve" font-family="HelveticaNeue-Light" font-size="22.0" fill="#000000" transform="matrix(1.00, 0.00, -0.00, -1.00, 878.7, 3.0)">2</text><text xml:space="preserve" font-family="HelveticaNeue-Light" font-size="22.0" fill="#000000" transform="matrix(1.00, 0.00, -0.00, -1.00, 890.9, 3.0)">0</text><text xml:space="preserve" font-family="HelveticaNeue-Light" font-size="22.0" fill="#000000" transform="matrix(1.00, 0.00, -0.00, -1.00, 903.1, 3.0)">(</text><text xml:space="preserve" font-family="HelveticaNeue-Light" font-size="22.0" fill="#000000" transform="matrix(1.00, 0.00, -0.00, -1.00, 908.4, 3.0)">1</text><text xml:space="preserve" font-family="HelveticaNeue-Light" font-size="22.0" fill="#000000" transform="matrix(1.00, 0.00, -0.00, -1.00, 920.7, 3.0)">1</text><text xml:space="preserve" font-family="HelveticaNeue-Light" font-size="22.0" fill="#000000" transform="matrix(1.00, 0.00, -0.00, -1.00, 932.9, 3.0)">)</text><text xml:space="preserve" font-family="HelveticaNeue-Light" font-size="22.0" fill="#000000" transform="matrix(1.00, 0.00, -0.00, -1.00, 938.2, 3.0)">:</text><text xml:space="preserve" font-family="HelveticaNeue-Light" font-size="22.0" fill="#000000" transform="matrix(1.00, 0.00, -0.00, -1.00, 944.3, 3.0)">1</text><text xml:space="preserve" font-family="HelveticaNeue-Light" font-size="22.0" fill="#000000" transform="matrix(1.00, 0.00, -0.00, -1.00, 956.6, 3.0)">7</text><text xml:space="preserve" font-family="HelveticaNeue-Light" font-size="22.0" fill="#000000" transform="matrix(1.00, 0.00, -0.00, -1.00, 968.8, 3.0)">1</text><text xml:space="preserve" font-family="HelveticaNeue-Light" font-size="22.0" fill="#000000" transform="matrix(1.00, 0.00, -0.00, -1.00, 981.0, 3.0)">1</text><text xml:space="preserve" font-family="HelveticaNeue-Light" font-size="22.0" fill="#000000" transform="matrix(1.00, 0.00, -0.00, -1.00, 993.3, 3.0)">–</text><text xml:space="preserve" font-family="HelveticaNeue-Light" font-size="22.0" fill="#000000" transform="matrix(1.00, 0.00, -0.00, -1.00, 1004.3, 3.0)">6</text><text xml:space="preserve" font-family="HelveticaNeue-Light" font-size="22.0" fill="#000000" transform="matrix(1.00, 0.00, -0.00, -1.00, 1016.5, 3.0)">.</text><text xml:space="preserve" font-family="HelveticaNeue-Light" font-size="22.0" fill="#000000" transform="matrix(1.00, 0.00, -0.00, -1.00, 1022.6, 3.0)"> </text></g></svg>