<?xml version="1.0" encoding="UTF-8" standalone="no"?><svg xmlns="http://www.w3.org/2000/svg" xmlns:xlink="http://www.w3.org/1999/xlink" clip-rule="evenodd" stroke-miterlimit="4.00" viewBox="0 0 560 154"><desc>SVG generated by Keynote</desc><defs></defs><g transform="matrix(1.00, 0.00, -0.00, -1.00, 0.0, 154.0)"><path d="M 19.2 0.0 L 532.8 0.0 C 538.3 0.0 541.1 0.0 544.0 0.9 C 547.3 2.1 549.9 4.7 551.0 7.9 C 552.0 10.9 552.0 13.7 552.0 19.3 L 552.0 126.0 C 552.0 131.5 552.0 134.3 551.0 137.3 C 549.9 140.5 547.3 143.1 544.0 144.3 C 541.1 145.2 538.3 145.2 532.7 145.2 L 19.2 145.2 C 13.7 145.2 10.9 145.2 7.9 144.3 C 4.7 143.1 2.1 140.5 0.9 137.3 C 0.0 134.3 0.0 131.5 0.0 125.9 L 0.0 19.2 C 0.0 13.7 0.0 10.9 0.9 7.9 C 2.1 4.7 4.7 2.1 7.9 0.9 C 10.9 0.0 13.7 0.0 19.3 0.0 Z M 19.2 0.0 " fill="none" stroke="#FF2600" stroke-width="6.00" transform="matrix(1.00, 0.00, 0.00, -1.00, 4.0, 150.0)"></path></g></svg>