<?xml version="1.0" encoding="UTF-8" standalone="no"?><svg xmlns="http://www.w3.org/2000/svg" xmlns:xlink="http://www.w3.org/1999/xlink" clip-rule="evenodd" stroke-miterlimit="10" viewBox="0 0 79 80"><desc>SVG generated by Keynote</desc><defs></defs><g transform="matrix(1.00, 0.00, -0.00, -1.00, 0.0, 80.0)"><path d="M 57.5 60.2 C 57.8 60.3 58.1 60.9 58.4 61.0 M 57.5 60.2 C 57.2 61.5 58.1 62.5 59.2 63.8 C 60.5 65.2 59.8 63.1 60.3 62.9 C 62.4 64.4 61.8 64.9 60.7 65.5 C 62.0 65.6 63.0 68.6 63.6 67.2 C 60.8 64.3 65.9 68.9 64.1 65.9 C 64.0 65.5 65.0 65.9 65.2 66.2 C 64.9 65.0 66.7 65.8 65.8 64.2 C 66.3 63.4 66.2 63.9 65.9 62.6 C 65.6 62.2 65.6 62.5 65.4 62.7 C 64.5 63.4 64.9 61.3 63.8 61.1 C 64.2 59.5 62.3 60.1 62.5 61.1 C 62.0 60.3 62.3 58.6 61.0 58.7 C 61.1 57.9 59.2 56.6 59.5 58.2 C 59.8 59.3 58.7 58.8 58.4 58.9 C 58.4 59.4 59.7 60.1 59.7 60.4 C 59.2 60.3 57.6 59.4 59.0 60.7 C 58.2 60.6 58.6 61.5 57.5 60.2 C 57.5 60.2 57.5 60.2 57.5 60.2 Z M 61.7 65.6 C 61.4 65.8 61.2 65.1 61.7 65.6 C 61.7 65.6 61.7 65.6 61.7 65.6 Z M 62.0 58.7 C 61.7 59.0 61.6 58.2 62.0 58.7 C 62.0 58.7 62.0 58.7 62.0 58.7 Z M 65.2 62.5 C 65.0 62.8 64.8 62.0 65.2 62.5 C 65.2 62.5 65.2 62.5 65.2 62.5 Z M 60.6 64.1 C 60.1 63.2 61.6 64.4 61.5 64.8 C 61.3 64.6 60.6 64.5 60.6 64.1 C 60.6 64.1 60.6 64.1 60.6 64.1 Z M 62.1 62.5 C 61.9 62.5 61.5 62.2 61.9 62.0 C 62.1 62.1 62.2 62.4 62.1 62.5 C 62.1 62.5 62.1 62.5 62.1 62.5 Z M 64.7 67.3 C 64.5 67.4 64.2 67.1 64.5 66.8 C 64.8 67.0 64.8 67.3 64.7 67.3 C 64.7 67.3 64.7 67.3 64.7 67.3 Z M 60.5 62.6 C 60.3 62.3 60.5 62.0 60.8 62.2 C 60.7 62.4 61.2 63.0 60.5 62.6 C 60.5 62.6 60.5 62.6 60.5 62.6 Z M 58.4 62.3 C 57.9 61.5 59.6 62.4 59.4 62.5 C 59.4 62.9 58.5 62.8 58.4 62.3 C 58.4 62.3 58.4 62.3 58.4 62.3 Z M 60.5 61.8 C 60.1 61.2 60.9 61.9 60.5 61.8 C 60.5 61.8 60.5 61.8 60.5 61.8 Z M 66.2 64.8 C 65.8 64.2 66.6 64.8 66.2 64.8 C 66.2 64.8 66.2 64.8 66.2 64.8 Z M 64.2 61.2 C 63.9 60.6 64.7 61.2 64.2 61.2 C 64.2 61.2 64.2 61.2 64.2 61.2 Z M 62.5 65.0 C 63.4 65.9 62.0 65.8 62.5 65.0 C 62.5 65.0 62.5 65.0 62.5 65.0 Z M 56.9 60.9 C 57.7 61.8 56.3 61.7 56.9 60.9 C 56.9 60.9 56.9 60.9 56.9 60.9 Z M 25.3 28.8 C 24.3 28.1 26.7 32.3 26.5 30.0 C 27.0 28.8 29.2 31.1 27.8 31.3 C 28.3 32.1 28.3 32.1 29.1 32.1 C 28.5 32.8 29.8 34.7 30.6 34.9 C 31.5 34.7 29.7 33.8 31.1 34.1 C 33.2 35.8 31.6 33.3 33.1 33.3 C 33.1 33.4 32.8 33.8 33.2 33.8 C 33.9 33.2 33.3 31.6 34.3 31.6 C 33.9 31.4 33.2 29.3 33.2 30.5 C 32.8 31.3 32.5 28.2 31.6 29.4 C 31.6 28.4 30.4 28.6 30.6 27.6 C 30.4 27.1 29.8 27.7 29.7 27.8 C 29.3 28.4 30.4 26.3 29.0 26.7 C 29.2 26.3 27.6 24.9 28.3 26.4 C 28.1 26.0 26.5 24.0 26.6 25.9 C 27.3 27.6 24.3 25.6 25.7 27.1 C 26.7 28.3 27.1 28.3 25.8 28.0 C 25.6 27.7 24.2 26.5 24.9 28.0 C 25.3 28.1 25.7 28.7 25.3 28.8 C 25.3 28.8 25.3 28.8 25.3 28.8 Z M 26.4 27.2 C 27.1 27.8 26.1 27.6 26.4 27.2 C 26.4 27.2 26.4 27.2 26.4 27.2 Z M 30.9 27.5 C 31.6 28.1 30.6 27.9 30.9 27.5 C 30.9 27.5 30.9 27.5 30.9 27.5 Z M 27.1 31.1 C 27.7 31.1 26.8 32.2 27.1 31.1 C 27.1 31.1 27.1 31.1 27.1 31.1 Z M 29.0 27.2 C 29.1 27.2 28.8 27.2 28.6 27.1 C 28.7 27.1 29.0 27.1 29.0 27.2 C 29.0 27.2 29.0 27.2 29.0 27.2 Z M 28.2 32.2 C 29.6 32.7 27.6 33.1 28.2 32.2 C 28.2 32.2 28.2 32.2 28.2 32.2 Z M 31.0 33.2 C 32.1 32.4 31.8 34.4 31.0 33.2 C 31.0 33.2 31.0 33.2 31.0 33.2 Z M 31.8 29.7 C 31.4 29.8 31.8 29.4 31.8 29.7 C 31.8 29.7 31.8 29.7 31.8 29.7 Z M 27.8 25.4 C 27.4 25.4 27.7 25.1 27.8 25.4 C 27.8 25.4 27.8 25.4 27.8 25.4 Z M 32.9 31.0 C 32.5 31.3 32.8 30.5 32.9 31.0 C 32.9 31.0 32.9 31.0 32.9 31.0 Z M 27.7 30.9 C 26.0 30.8 27.7 28.7 27.7 30.9 C 27.7 30.9 27.7 30.9 27.7 30.9 Z M 26.0 29.4 C 25.2 28.9 26.6 29.0 26.7 29.4 C 26.6 29.4 26.1 29.4 26.0 29.4 C 26.0 29.4 26.0 29.4 26.0 29.4 Z M 28.7 31.7 C 27.7 31.5 28.3 31.0 28.7 31.7 C 28.7 31.7 28.7 31.7 28.7 31.7 Z M 26.7 30.6 C 26.5 30.2 27.1 30.8 26.7 30.6 C 26.7 30.6 26.7 30.6 26.7 30.6 Z M 29.1 33.7 C 28.8 33.3 29.4 33.9 29.1 33.7 C 29.1 33.7 29.1 33.7 29.1 33.7 Z M 24.9 29.0 C 24.6 28.7 25.2 29.2 24.9 29.0 C 24.9 29.0 24.9 29.0 24.9 29.0 Z M 29.3 33.0 C 29.8 32.7 29.7 31.1 30.6 33.3 C 30.6 33.8 29.4 33.6 29.3 33.0 C 29.3 33.0 29.3 33.0 29.3 33.0 Z M 55.0 57.7 C 57.5 62.3 58.5 59.6 59.1 59.4 C 60.0 59.4 59.9 58.6 59.6 57.5 C 60.0 55.5 57.2 57.6 57.9 55.9 C 58.5 53.3 55.4 56.2 56.7 54.1 C 57.2 53.8 55.5 52.8 55.5 53.0 C 55.6 51.5 53.2 51.9 53.0 52.1 C 52.8 51.4 54.3 49.8 51.7 49.5 C 50.2 48.8 51.2 46.8 50.5 48.2 C 50.8 46.2 49.6 47.9 49.1 46.8 C 49.2 45.5 48.1 47.7 48.3 45.5 C 46.9 46.0 49.5 45.3 46.0 43.2 C 47.3 44.7 44.0 42.7 45.1 42.6 C 46.8 42.8 43.6 41.6 42.8 39.9 C 42.1 39.9 39.7 39.3 40.9 38.6 C 40.7 36.2 38.9 38.0 39.3 36.5 C 39.2 35.7 38.2 36.3 38.0 36.0 C 38.2 34.8 37.4 34.9 36.0 33.1 C 32.8 29.2 33.7 34.3 32.1 33.2 C 31.5 33.3 31.2 37.5 32.1 35.1 C 31.9 35.8 36.6 36.9 33.3 37.3 C 35.1 37.7 32.3 37.9 35.4 39.2 C 33.7 34.9 39.3 42.1 35.8 39.8 C 35.9 40.7 37.1 41.8 36.6 40.6 C 37.5 39.1 38.1 43.2 38.4 40.6 C 39.8 42.8 40.6 41.1 40.2 42.5 C 39.1 44.5 40.6 42.0 41.0 43.4 C 43.2 45.6 39.7 45.7 42.2 45.8 C 43.6 48.7 43.4 45.6 44.3 46.1 C 45.6 45.3 45.7 49.2 43.9 47.7 C 45.3 47.9 43.5 48.3 45.2 48.6 C 45.5 46.9 45.4 51.0 45.9 49.9 C 47.0 50.5 47.2 49.4 47.5 49.7 C 48.8 51.0 47.4 51.6 48.4 51.1 C 49.1 51.0 48.4 52.9 48.9 52.7 C 47.6 51.3 51.1 52.8 50.7 53.5 C 49.8 52.7 49.8 55.2 51.1 54.9 C 52.6 52.1 51.7 56.7 53.1 56.5 C 53.7 54.7 56.1 59.3 54.3 58.5 C 54.4 58.5 55.0 57.7 55.0 57.7 M 49.5 52.9 C 48.5 51.7 50.9 53.9 49.5 52.9 M 49.2 53.3 C 49.1 52.4 49.9 54.7 49.0 53.4 C 49.0 53.4 49.2 53.4 49.2 53.3 M 44.6 48.8 C 45.1 48.6 45.0 49.6 44.6 48.8 M 44.5 47.2 C 44.1 46.1 45.5 48.1 44.5 47.2 M 34.2 37.3 C 37.0 36.5 34.2 39.4 34.2 37.3 M 40.5 44.4 C 41.9 45.4 39.3 44.7 40.5 44.4 M 41.3 44.3 C 42.1 44.6 41.0 44.8 41.3 44.3 M 36.1 39.3 C 36.0 39.1 36.0 39.1 36.1 39.3 C 36.1 39.3 36.1 39.3 36.1 39.3 Z M 33.2 36.2 C 33.1 36.2 33.1 36.2 33.2 36.2 C 33.2 36.2 33.2 36.2 33.2 36.2 Z M 39.2 42.0 C 39.7 43.3 37.5 40.6 39.2 42.0 C 39.2 42.0 39.2 42.0 39.2 42.0 Z M 37.3 34.9 C 37.4 34.9 37.4 34.9 37.3 34.9 C 37.3 34.9 37.3 34.9 37.3 34.9 Z M 51.2 53.0 C 51.2 53.0 51.2 53.0 51.2 53.0 C 51.2 53.0 51.2 53.0 51.2 53.0 Z M 53.9 57.1 C 54.1 56.8 54.3 57.9 53.9 57.1 C 53.9 57.1 53.9 57.1 53.9 57.1 Z M 58.7 57.7 C 58.8 57.8 58.8 57.8 58.7 57.7 C 58.7 57.7 58.7 57.7 58.7 57.7 Z M 53.3 53.2 C 53.3 53.2 53.3 53.2 53.3 53.2 C 53.3 53.2 53.3 53.2 53.3 53.2 Z M 51.4 54.0 C 51.0 55.6 50.4 52.5 51.4 54.0 C 51.4 54.0 51.4 54.0 51.4 54.0 Z M 42.8 40.6 C 42.4 41.0 42.2 39.7 42.8 40.6 C 42.8 40.6 42.8 40.6 42.8 40.6 Z M 44.8 46.6 C 44.4 46.7 44.4 46.0 44.8 46.6 C 44.8 46.6 44.8 46.6 44.8 46.6 Z M 45.3 49.9 C 44.9 49.9 44.9 49.3 45.3 49.9 C 45.3 49.9 45.3 49.9 45.3 49.9 Z M 53.6 57.3 C 53.4 57.3 53.4 57.3 53.6 57.3 C 53.6 57.3 53.6 57.3 53.6 57.3 Z M 53.1 55.3 C 53.0 57.1 52.3 53.5 53.1 55.3 C 53.1 55.3 53.1 55.3 53.1 55.3 Z M 54.8 56.5 C 54.7 55.7 55.7 57.7 54.8 56.5 M 55.4 54.2 C 54.0 53.6 58.0 53.5 55.4 54.2 C 55.4 54.2 55.4 54.2 55.4 54.2 Z M 50.6 48.6 C 50.5 48.5 50.5 48.5 50.6 48.6 C 50.6 48.6 50.6 48.6 50.6 48.6 Z M 48.4 51.9 C 47.5 51.0 49.2 52.3 48.4 51.9 C 48.4 51.9 48.4 51.9 48.4 51.9 Z M 56.0 60.0 C 55.2 59.1 56.9 60.4 56.0 60.0 C 56.0 60.0 56.0 60.0 56.0 60.0 Z M 46.6 46.5 C 45.0 45.2 48.0 46.9 46.6 46.5 C 46.6 46.5 46.6 46.5 46.6 46.5 Z M 40.1 42.1 C 40.0 42.1 40.0 42.1 40.1 42.1 C 40.1 42.1 40.1 42.1 40.1 42.1 Z M 38.7 41.5 C 38.6 41.4 38.6 41.4 38.7 41.5 C 38.7 41.5 38.7 41.5 38.7 41.5 Z M 35.4 36.3 C 35.4 36.2 35.4 36.2 35.4 36.3 C 35.4 36.3 35.4 36.3 35.4 36.3 Z M 37.3 41.0 C 37.3 41.0 37.3 41.0 37.3 41.0 C 37.3 41.0 37.3 41.0 37.3 41.0 Z M 34.6 37.8 C 34.6 37.8 34.6 37.8 34.6 37.8 C 34.6 37.8 34.6 37.8 34.6 37.8 Z M 34.2 39.1 C 34.2 39.0 34.2 39.0 34.2 39.1 C 34.2 39.1 34.2 39.1 34.2 39.1 Z M 44.8 41.5 C 44.8 41.4 44.8 41.4 44.8 41.5 C 44.8 41.5 44.8 41.5 44.8 41.5 Z M 51.6 56.0 C 51.6 55.8 51.6 55.8 51.6 56.0 C 51.6 56.0 51.6 56.0 51.6 56.0 Z M 35.2 37.7 C 35.2 37.7 35.2 37.7 35.2 37.7 C 35.2 37.7 35.2 37.7 35.2 37.7 Z M 43.1 44.1 C 43.9 43.3 42.6 45.8 42.9 44.0 C 42.9 44.0 43.0 44.3 43.1 44.1 M 43.5 41.8 C 43.5 41.9 43.5 41.9 43.5 41.8 C 43.5 41.8 43.5 41.8 43.5 41.8 Z M 47.2 44.6 C 47.3 44.6 47.3 44.6 47.2 44.6 C 47.2 44.6 47.2 44.6 47.2 44.6 Z M 37.6 41.7 C 37.3 42.3 37.2 40.6 37.8 41.8 M 36.8 34.9 C 36.4 35.4 36.3 33.7 36.9 35.0 M 57.4 60.7 C 57.8 60.5 57.8 61.5 57.4 60.7 M 48.3 44.9 C 48.8 44.7 48.7 45.7 48.3 44.9 M 45.8 44.4 C 45.5 45.0 45.4 43.3 46.0 44.5 M 39.0 37.1 C 38.9 37.1 38.9 37.1 39.0 37.1 C 39.0 37.1 39.0 37.1 39.0 37.1 Z M 47.1 50.4 C 47.0 50.4 47.0 50.4 47.1 50.4 C 47.1 50.4 47.1 50.4 47.1 50.4 Z M 44.1 45.5 C 44.0 46.7 43.8 44.4 44.1 45.5 M 49.3 50.5 C 49.3 52.1 48.3 49.0 49.3 50.5 M 35.3 33.0 C 35.2 34.8 35.1 31.9 35.3 33.0 M 37.3 39.6 C 37.3 41.4 37.2 38.5 37.3 39.6 M 46.7 49.2 C 46.2 49.8 46.1 48.1 46.7 49.2 M 55.2 58.8 C 56.0 59.7 53.8 58.0 55.2 58.8 M 41.1 39.2 C 41.1 39.2 41.1 39.2 41.1 39.2 C 41.1 39.2 41.1 39.2 41.1 39.2 Z M 56.0 52.5 C 56.0 52.4 56.0 52.4 56.0 52.5 C 56.0 52.5 56.0 52.5 56.0 52.5 Z M 31.1 34.9 C 31.1 34.8 31.1 34.8 31.1 34.9 C 31.1 34.9 31.1 34.9 31.1 34.9 Z M 38.3 39.8 C 38.3 39.7 38.3 39.7 38.3 39.8 C 38.3 39.8 38.3 39.8 38.3 39.8 Z M 32.7 36.7 C 32.7 36.6 32.7 36.6 32.7 36.7 C 32.7 36.7 32.7 36.7 32.7 36.7 Z M 41.7 41.8 C 41.7 41.7 41.7 41.7 41.7 41.8 C 41.7 41.8 41.7 41.8 41.7 41.8 Z M 39.9 44.7 C 39.9 44.6 39.9 44.6 39.9 44.7 C 39.9 44.7 39.9 44.7 39.9 44.7 Z M 43.9 46.7 C 43.9 46.6 43.9 46.6 43.9 46.7 C 43.9 46.7 43.9 46.7 43.9 46.7 Z M 38.8 43.1 C 36.8 41.5 40.5 43.3 38.8 43.1 C 38.8 43.1 38.8 43.1 38.8 43.1 Z M 44.2 43.9 C 44.2 43.9 44.2 43.9 44.2 43.9 C 44.2 43.9 44.2 43.9 44.2 43.9 Z M 42.8 45.8 C 41.0 45.3 43.3 44.1 42.8 45.8 M 47.2 51.3 C 46.5 51.3 47.6 50.6 47.2 51.3 M 52.3 50.3 C 52.3 50.2 52.3 50.2 52.3 50.3 C 52.3 50.3 52.3 50.3 52.3 50.3 Z M 51.5 50.0 C 51.5 49.9 51.5 49.9 51.5 50.0 C 51.5 50.0 51.5 50.0 51.5 50.0 Z M 48.3 52.7 C 48.3 52.6 48.3 52.6 48.3 52.7 C 48.3 52.7 48.3 52.7 48.3 52.7 Z M 52.3 49.0 C 52.3 48.9 52.3 48.9 52.3 49.0 C 52.3 49.0 52.3 49.0 52.3 49.0 Z M 40.7 45.3 C 40.7 45.3 40.7 45.3 40.7 45.3 C 40.7 45.3 40.7 45.3 40.7 45.3 Z M 31.5 36.2 C 31.5 36.1 31.5 36.1 31.5 36.2 C 31.5 36.2 31.5 36.2 31.5 36.2 Z M 57.4 56.0 C 57.4 56.0 57.4 56.0 57.4 56.0 C 57.4 56.0 57.4 56.0 57.4 56.0 Z M 40.7 43.4 C 40.7 43.4 40.7 43.4 40.7 43.4 C 40.7 43.4 40.7 43.4 40.7 43.4 Z M 53.4 51.7 C 53.4 51.6 53.4 51.6 53.4 51.7 C 53.4 51.7 53.4 51.7 53.4 51.7 Z M 41.1 44.2 C 41.0 44.2 41.0 44.2 41.1 44.2 C 41.1 44.2 41.1 44.2 41.1 44.2 Z M 41.6 39.3 C 41.6 39.3 41.6 39.3 41.6 39.3 C 41.6 39.3 41.6 39.3 41.6 39.3 Z M 40.2 36.8 C 40.2 36.8 40.2 36.8 40.2 36.8 C 40.2 36.8 40.2 36.8 40.2 36.8 Z M 40.1 41.1 C 40.1 41.0 40.1 41.0 40.1 41.1 C 40.1 41.1 40.1 41.1 40.1 41.1 Z M 53.1 53.3 C 55.9 57.7 49.9 50.8 53.1 53.3 M 39.7 40.3 C 42.0 43.0 36.8 39.2 39.7 40.3 C 39.2 40.3 39.6 40.3 39.7 40.3 " fill="#FEFFFE"></path><path d="M 35.9 17.7 C 36.3 17.4 37.8 18.2 36.3 18.1 C 36.2 18.1 35.7 17.8 35.9 17.7 Z M 33.2 17.0 C 33.4 17.1 33.5 17.1 33.6 17.3 C 33.8 17.9 32.5 16.8 33.2 17.0 Z M 37.0 18.6 C 37.1 18.5 37.9 18.8 37.7 18.9 C 37.5 19.0 36.9 18.6 37.0 18.6 Z M 30.5 17.5 C 30.6 17.2 31.5 17.5 31.6 17.6 C 31.9 18.1 30.3 17.9 30.5 17.5 Z M 32.2 25.0 C 32.2 25.0 32.1 25.1 32.1 25.1 C 32.1 25.1 32.2 25.0 32.2 25.0 Z M 18.0 13.7 C 18.2 13.7 18.5 14.0 18.4 14.2 C 18.2 14.4 17.5 13.7 18.0 13.7 Z M 21.4 36.5 C 21.4 36.5 21.8 36.3 21.8 36.5 C 21.7 36.7 21.4 36.7 21.4 36.5 Z M 21.6 36.7 C 21.8 36.7 21.6 37.1 21.5 36.9 C 21.4 36.7 21.4 36.6 21.6 36.7 Z M 14.9 25.3 C 14.9 25.1 14.8 25.1 15.0 25.1 C 15.1 25.2 15.0 25.4 14.9 25.3 Z M 15.3 25.6 C 15.6 25.6 15.3 26.0 15.2 25.8 C 15.1 25.6 15.1 25.5 15.3 25.6 Z M 14.8 28.6 C 14.8 28.5 14.7 28.4 14.8 28.4 C 14.9 28.5 14.9 28.7 14.8 28.6 Z M 26.5 32.3 C 26.5 32.5 26.0 32.7 25.9 32.6 C 25.8 32.3 26.5 32.1 26.5 32.3 Z M 26.1 32.9 C 26.3 33.0 26.1 33.3 26.0 33.1 C 25.9 32.9 26.0 32.8 26.1 32.9 Z M 27.2 31.2 C 27.1 31.0 27.5 30.6 27.6 30.6 C 27.7 30.5 27.9 30.4 28.1 30.3 C 28.2 30.3 27.5 31.4 27.2 31.2 Z M 30.1 28.0 C 30.1 28.1 30.1 28.2 29.9 28.2 C 29.7 28.3 30.0 27.9 30.1 28.0 Z M 28.5 29.8 C 28.5 29.9 28.5 30.0 28.3 30.0 C 28.2 30.1 28.4 29.7 28.5 29.8 Z M 25.5 15.6 C 25.5 15.4 26.1 15.7 26.2 15.8 C 26.2 15.8 26.0 15.8 26.1 15.9 C 26.3 16.0 25.7 16.4 25.5 15.6 Z M 31.6 16.7 C 31.8 16.8 31.8 16.9 31.7 17.0 C 31.7 17.0 31.2 16.7 31.6 16.7 Z M 26.2 16.7 C 26.2 16.6 26.4 16.6 26.4 16.7 C 26.4 16.8 26.2 16.7 26.2 16.7 Z M 25.7 16.7 C 25.9 16.7 26.2 17.0 26.0 17.1 C 25.9 17.3 25.2 16.6 25.7 16.7 Z M 24.8 15.2 C 25.0 15.2 25.0 15.2 24.8 15.3 C 24.7 15.3 24.8 15.2 24.8 15.2 Z M 28.3 15.7 C 28.5 15.8 28.5 15.8 28.4 15.8 C 28.3 15.9 28.3 15.7 28.3 15.7 Z M 23.0 15.2 C 23.0 15.2 23.6 15.0 23.6 15.4 C 23.6 16.0 23.1 15.2 23.0 15.2 Z M 20.5 15.1 C 20.6 15.1 20.5 15.3 20.4 15.2 C 20.2 15.1 20.3 15.0 20.5 15.1 Z M 19.4 15.7 C 19.1 15.5 19.0 15.2 19.4 15.4 C 19.8 15.5 19.6 15.9 19.4 15.7 Z M 19.9 15.6 C 19.9 15.7 19.7 15.6 19.7 15.5 C 19.7 15.4 19.9 15.5 19.9 15.6 Z M 22.1 15.5 C 22.3 15.4 22.5 15.7 22.2 15.7 C 21.8 15.7 21.9 15.6 22.1 15.5 Z M 34.6 24.2 C 34.6 24.1 34.8 24.2 34.8 24.4 C 34.8 24.5 34.5 24.4 34.6 24.2 Z M 27.4 30.0 C 27.6 30.0 27.6 30.1 27.4 30.2 C 27.1 30.3 27.3 30.0 27.4 30.0 Z M 23.0 33.7 C 23.2 33.7 23.2 33.8 22.9 33.9 C 22.7 34.0 22.8 33.7 23.0 33.7 Z M 29.1 28.3 C 29.2 28.3 29.1 29.1 28.6 29.0 C 28.0 29.0 28.7 28.2 29.1 28.3 Z M 29.8 21.1 C 29.9 20.9 30.0 21.1 30.0 21.1 C 29.8 21.2 29.8 21.2 29.8 21.1 Z M 27.7 28.8 C 27.7 28.6 27.9 28.8 27.9 29.0 C 27.9 29.1 27.6 28.9 27.7 28.8 Z M 24.0 33.2 C 24.2 33.1 24.4 33.5 24.4 33.7 C 24.3 34.3 23.8 34.2 23.3 34.3 C 23.0 34.3 23.8 33.3 24.0 33.2 Z M 34.9 22.6 C 34.8 22.6 34.7 22.7 34.6 22.8 C 34.6 22.9 34.5 22.9 34.4 23.0 C 34.0 23.4 34.1 24.0 34.0 24.4 C 33.6 25.2 32.6 24.6 32.2 25.0 C 32.3 24.9 32.4 24.8 32.4 24.6 C 32.3 24.3 31.0 25.8 30.9 25.9 C 29.9 27.3 31.6 26.0 32.0 26.5 C 32.2 26.6 30.9 27.0 30.8 27.0 C 30.2 27.2 30.6 27.7 30.1 27.9 C 29.9 27.9 28.5 27.5 28.4 27.8 C 28.4 28.0 28.0 28.3 27.8 28.4 C 27.6 28.6 27.2 29.0 27.8 29.2 C 28.2 29.3 28.5 29.4 27.9 29.5 C 27.6 29.6 25.6 30.4 26.3 31.0 C 26.4 31.1 26.9 31.0 26.9 31.0 C 26.7 31.5 25.2 32.5 25.2 33.1 C 25.2 34.3 25.0 32.5 24.5 32.6 C 23.7 32.9 23.2 33.0 22.6 33.8 C 22.4 34.0 21.8 34.7 22.5 34.7 C 23.0 34.7 23.0 35.1 23.4 34.7 C 23.3 35.6 22.4 35.2 22.4 35.4 C 22.5 35.7 22.9 35.6 22.5 35.9 C 22.0 36.2 22.3 36.2 21.9 35.9 C 21.8 35.8 21.3 36.1 21.3 36.1 C 21.3 36.1 21.3 36.0 21.2 36.0 C 20.9 36.4 21.1 37.5 20.8 37.5 C 20.6 37.4 20.4 36.8 20.2 36.7 C 20.2 36.7 20.2 36.7 20.1 36.7 C 20.0 36.9 20.0 37.5 19.9 37.5 C 19.7 37.5 19.4 36.6 19.4 37.0 C 19.4 37.3 18.5 37.8 18.3 37.7 C 18.0 37.5 17.0 36.9 16.8 37.0 C 16.7 37.1 16.5 36.4 16.5 36.2 C 16.4 36.1 16.6 35.6 16.7 35.5 C 16.7 35.4 16.5 35.0 16.5 35.0 C 16.5 35.0 16.3 34.8 16.2 34.5 C 16.1 34.1 16.3 33.7 16.3 33.2 C 16.3 32.7 16.0 32.6 15.8 32.2 C 15.6 31.8 16.2 31.2 16.2 30.8 C 16.2 30.4 15.7 30.5 15.5 30.0 C 15.3 29.6 15.4 29.3 15.5 29.4 C 15.7 29.5 15.8 29.3 15.7 29.2 C 15.7 29.1 15.7 28.5 15.6 28.3 C 15.4 28.1 15.3 29.7 14.9 27.8 C 14.7 26.9 15.2 26.1 15.2 26.3 C 15.4 27.0 16.0 25.4 15.7 25.5 C 15.4 25.5 15.1 24.0 14.7 24.4 C 14.6 24.6 14.0 23.1 14.0 22.8 C 14.1 22.6 13.7 21.9 14.2 21.6 C 14.4 21.4 13.5 20.7 13.5 20.5 C 13.4 20.3 13.2 19.1 13.3 18.8 C 13.3 18.5 13.5 19.1 13.6 19.4 C 13.6 19.7 13.5 20.1 13.6 20.3 C 13.7 20.5 13.8 20.0 13.7 19.7 C 13.7 19.4 13.9 19.2 14.0 18.9 C 13.9 18.8 13.8 18.6 13.8 18.4 C 13.8 18.3 13.7 18.2 13.6 18.2 C 13.5 18.2 13.4 18.4 13.3 18.4 C 13.2 18.4 13.0 18.2 13.0 17.8 C 12.9 17.5 12.8 17.1 12.9 16.6 C 12.9 16.1 12.7 16.0 12.6 15.7 C 12.5 15.3 12.4 15.0 12.5 15.0 C 12.6 14.9 12.8 15.3 12.9 15.3 C 13.0 15.4 13.2 14.8 13.1 14.6 C 13.0 13.7 14.0 14.2 13.9 13.2 C 13.8 12.7 14.2 13.2 14.6 13.4 C 14.6 13.3 14.7 13.3 15.1 13.3 C 15.1 13.2 15.7 13.5 16.0 13.5 C 16.2 13.5 17.4 13.6 16.6 13.7 C 16.6 13.7 16.5 13.8 16.4 13.8 C 16.4 13.8 16.4 13.8 16.5 13.8 C 16.5 13.8 16.0 14.2 16.0 14.2 C 16.0 14.2 16.5 13.8 16.5 13.8 C 16.5 14.0 16.6 14.2 16.7 14.4 C 16.8 14.3 16.8 14.3 16.9 14.3 C 16.9 14.3 16.9 14.2 17.0 14.2 C 17.0 14.2 17.0 14.2 17.0 14.2 C 17.0 14.0 17.0 14.1 17.2 14.2 C 17.7 14.0 18.5 14.6 18.9 14.8 C 17.6 15.5 19.4 16.0 20.0 16.0 C 20.7 16.0 20.9 14.8 20.7 14.7 C 21.1 14.8 21.2 15.0 21.2 15.4 C 21.2 15.4 21.5 16.2 21.4 16.2 C 22.4 16.9 22.4 15.8 22.7 15.8 C 23.0 15.7 23.3 15.8 23.7 15.8 C 24.0 15.8 23.8 15.5 23.9 15.4 C 24.4 15.0 24.9 16.1 25.2 16.2 C 24.9 16.3 24.6 16.2 24.3 16.3 C 24.7 16.2 24.8 16.8 24.9 16.9 C 25.2 17.1 25.6 17.2 26.0 17.2 C 26.6 17.3 27.2 17.4 27.7 17.4 C 27.6 17.3 26.9 16.4 26.8 16.4 C 27.0 16.4 27.5 16.7 27.4 16.2 C 27.3 15.4 28.6 16.2 28.9 16.2 C 29.6 16.5 30.6 16.0 31.1 17.0 C 31.1 17.0 29.9 16.9 30.0 17.0 C 30.1 17.7 30.3 18.2 31.1 18.2 C 31.3 18.2 32.5 18.0 32.5 17.9 C 32.4 18.0 31.7 16.2 32.6 17.0 C 32.7 17.1 32.3 17.3 32.5 17.4 C 32.8 17.7 33.3 17.7 33.7 17.8 C 33.7 17.8 34.3 18.2 34.3 18.2 C 34.5 18.0 34.6 17.7 34.8 17.6 C 35.1 17.6 35.3 17.8 35.3 18.1 C 35.3 18.1 35.2 18.1 35.2 18.1 C 35.3 18.2 35.3 18.3 35.3 18.4 C 35.4 18.4 35.5 18.4 35.6 18.6 C 35.7 18.7 35.4 18.7 35.2 18.5 C 35.2 18.6 35.2 18.7 35.1 18.7 C 35.5 18.8 35.8 18.8 35.8 18.8 C 36.4 18.5 36.5 18.3 37.1 19.1 C 37.6 19.8 36.6 21.5 35.6 22.1 C 35.5 22.3 35.3 22.5 34.9 22.6 Z M 14.0 17.7 C 14.0 17.7 14.0 17.7 14.0 17.8 C 14.1 17.7 14.2 17.7 14.4 17.7 C 14.4 17.4 14.2 17.8 14.1 17.5 C 14.1 17.2 14.0 17.3 14.0 17.7 Z M 16.0 16.0 C 15.8 15.8 15.8 15.9 15.8 16.0 C 15.9 16.0 15.9 16.0 16.0 16.0 Z M 16.4 14.8 C 16.0 14.8 16.4 15.4 17.0 15.5 C 16.7 15.1 16.5 14.9 16.4 14.8 Z M 17.4 14.5 C 17.3 14.6 17.3 14.7 17.3 14.7 C 17.2 14.9 17.6 14.8 17.5 14.9 C 17.4 15.0 17.0 15.1 17.3 15.2 C 17.3 15.3 17.4 15.3 17.4 15.4 C 17.5 15.4 17.5 15.3 17.6 15.3 C 17.8 15.2 17.6 14.7 17.4 14.5 Z M 15.3 19.1 C 15.1 19.0 15.1 19.1 15.2 19.2 C 15.3 19.4 15.4 19.3 15.3 19.1 Z M 14.8 21.5 C 14.8 21.3 14.7 21.1 14.6 21.3 C 14.5 21.5 14.7 21.7 14.8 21.5 Z M 18.9 21.4 C 18.8 21.3 18.8 21.4 18.8 21.5 C 18.9 21.7 19.0 21.4 18.9 21.4 Z M 20.5 20.0 C 20.7 20.0 20.6 19.7 20.5 19.7 C 20.4 19.8 20.3 20.0 20.5 20.0 Z M 16.8 23.2 C 16.9 23.4 17.0 23.2 16.9 23.1 C 16.8 23.0 16.8 23.1 16.8 23.2 Z M 18.6 20.9 C 18.5 21.1 18.6 21.1 18.7 21.2 C 18.8 21.2 18.9 21.0 18.8 20.8 C 18.7 20.6 18.6 20.6 18.6 20.9 Z M 19.7 19.5 C 20.3 19.7 20.4 19.4 19.7 19.3 C 18.9 19.3 19.4 19.4 19.7 19.5 Z M 14.5 23.3 C 14.5 23.2 14.4 22.9 14.4 22.9 C 14.4 22.9 14.4 23.8 14.5 23.3 Z M 23.3 16.2 C 23.1 16.1 22.9 16.3 23.2 16.4 C 23.5 16.5 23.5 16.3 23.3 16.2 Z M 23.4 17.6 C 23.3 17.0 23.0 16.8 23.0 16.8 C 23.0 16.9 22.8 17.2 22.6 17.2 C 22.2 17.3 21.9 16.7 21.4 16.9 C 20.9 17.1 21.8 17.4 21.9 17.4 C 21.8 17.4 21.7 17.5 21.7 17.6 C 21.7 17.7 21.8 17.8 22.0 17.7 C 22.2 17.7 23.5 18.2 23.4 17.6 Z M 19.8 21.1 C 19.7 20.9 19.4 20.9 19.4 21.1 C 19.3 21.4 19.4 21.6 19.5 21.7 C 19.6 21.7 19.9 21.3 19.8 21.1 Z M 18.8 22.4 C 18.6 22.3 18.6 22.4 18.7 22.6 C 18.8 22.9 19.0 22.5 18.8 22.4 Z M 16.1 29.3 C 16.2 29.4 16.2 29.0 16.0 29.0 C 15.9 29.1 16.0 29.2 16.1 29.3 Z M 17.9 27.3 C 18.1 27.7 18.2 27.2 18.1 27.1 C 18.0 27.0 17.8 27.1 17.9 27.3 Z M 17.9 25.1 C 18.0 25.3 18.1 24.9 17.9 24.9 C 17.8 24.8 17.9 25.0 17.9 25.1 Z M 18.5 24.2 C 18.6 24.4 18.8 24.2 18.6 24.0 C 18.5 23.9 18.4 24.1 18.5 24.2 Z M 25.2 18.7 C 25.2 18.7 25.0 19.1 25.3 18.9 C 25.7 18.8 25.7 18.8 25.2 18.7 Z M 22.5 20.4 C 22.2 20.3 21.8 20.3 21.4 21.1 C 21.0 21.9 21.4 21.8 21.8 21.5 C 22.3 21.3 21.6 22.5 22.4 22.0 C 22.8 21.8 22.8 20.4 22.5 20.4 Z M 19.7 25.3 C 19.8 24.7 19.2 24.3 19.3 24.8 C 19.3 25.4 19.5 25.8 19.7 25.3 Z M 19.4 25.6 C 19.4 25.5 19.3 25.6 19.4 25.7 C 19.5 25.9 19.5 25.7 19.4 25.6 Z M 28.1 16.3 C 27.0 16.3 28.0 17.2 28.0 17.2 C 29.0 17.8 29.2 16.4 28.1 16.3 Z M 21.3 35.4 C 21.3 35.3 21.3 35.3 21.4 35.3 C 21.4 35.3 21.4 35.3 21.4 35.2 C 21.4 35.0 21.0 35.2 21.0 35.2 C 21.0 35.3 21.2 35.4 21.3 35.4 Z M 25.3 31.6 C 25.1 31.8 25.1 31.9 25.1 32.1 C 25.5 32.4 26.6 31.2 25.6 31.1 C 25.4 31.1 24.2 31.3 24.4 31.7 C 24.5 31.9 25.7 31.3 25.3 31.6 Z M 23.6 32.4 C 24.1 31.9 22.8 32.3 23.1 32.4 C 23.3 32.5 23.5 32.5 23.6 32.4 Z M 19.1 34.7 C 18.7 35.6 19.8 36.4 20.3 35.0 C 20.7 33.5 20.4 33.1 20.0 33.7 C 19.7 34.3 19.6 33.5 19.1 34.7 Z M 24.2 29.7 C 24.7 30.5 24.8 30.0 24.5 29.3 C 24.4 29.2 23.8 29.2 24.2 29.7 Z M 25.5 28.2 C 25.7 28.0 25.7 28.1 25.5 28.0 C 25.2 28.0 25.2 28.3 25.5 28.2 Z M 17.2 34.8 C 17.0 35.2 17.1 35.6 17.0 35.4 C 16.8 35.3 16.8 35.4 16.8 35.7 C 16.8 36.0 17.1 35.6 17.2 35.5 C 17.4 35.3 17.3 34.5 17.2 34.8 Z M 20.3 27.2 C 20.4 27.3 20.5 27.1 20.4 27.0 C 20.3 26.9 20.3 27.0 20.3 27.2 Z M 25.0 21.1 C 25.0 21.1 24.9 21.3 25.1 21.2 C 25.3 21.2 25.3 21.2 25.0 21.1 Z M 29.5 17.0 C 29.3 17.0 29.5 17.4 29.3 17.5 C 29.2 17.6 29.2 17.4 29.2 17.3 C 29.2 17.4 28.7 18.0 29.3 17.8 C 29.5 17.8 30.1 17.0 29.5 17.0 Z M 22.0 25.8 C 22.0 25.4 20.9 26.1 20.9 25.8 C 20.9 25.5 20.8 25.6 20.8 26.0 C 20.8 26.4 21.9 26.3 22.0 25.8 Z M 19.8 28.3 C 20.0 28.1 19.9 27.3 19.8 27.6 C 19.6 27.9 19.8 28.4 19.6 28.2 C 19.4 28.1 19.5 28.2 19.4 28.4 C 19.4 28.8 19.7 28.4 19.8 28.3 Z M 16.2 32.2 C 16.2 32.1 16.1 31.7 16.0 32.0 C 16.0 32.1 16.2 32.4 16.2 32.2 Z M 27.0 21.9 C 26.8 22.0 26.8 22.1 27.1 22.1 C 27.4 22.1 27.3 21.8 27.0 21.9 Z M 17.2 32.5 C 17.2 32.1 17.0 32.6 17.0 32.3 C 16.9 32.0 16.8 32.0 16.8 32.5 C 16.8 32.8 17.1 33.0 17.2 32.5 Z M 31.1 19.0 C 30.9 19.1 30.9 19.3 31.0 19.3 C 31.2 19.3 31.2 19.0 31.1 19.0 Z M 30.2 21.0 C 30.1 20.9 30.0 20.9 29.9 20.9 C 28.4 20.6 30.6 21.8 30.2 21.0 Z M 27.9 23.0 C 28.1 22.7 27.6 22.9 27.6 22.9 C 27.6 23.1 27.7 23.1 27.9 23.0 Z M 25.5 25.5 C 25.6 25.6 25.8 25.4 25.6 25.3 C 25.4 25.2 25.4 25.3 25.5 25.5 Z M 33.7 18.1 C 33.5 18.0 33.4 18.2 33.6 18.2 C 33.7 18.3 33.8 18.2 33.7 18.1 Z M 27.8 24.2 C 27.8 24.1 27.7 24.1 27.6 24.3 C 27.6 24.4 27.8 24.3 27.8 24.2 Z M 20.5 31.6 C 20.5 31.4 20.5 31.3 20.5 31.2 C 20.3 31.1 19.8 31.5 19.6 31.4 C 19.6 31.4 19.6 31.4 19.6 31.4 C 19.6 31.3 19.6 31.3 19.6 31.3 C 19.5 31.2 19.5 31.1 19.6 31.2 C 19.6 31.1 19.7 31.0 19.8 30.8 C 19.5 30.8 19.2 30.9 19.2 31.1 C 19.2 31.4 19.5 31.8 19.8 32.0 C 19.9 32.0 20.1 31.9 20.2 31.8 C 20.2 31.8 20.2 31.8 20.2 31.8 C 20.1 31.5 20.1 31.4 20.2 31.5 C 20.3 31.6 20.4 31.7 20.4 31.7 C 20.4 31.7 20.5 31.6 20.5 31.6 Z M 27.2 25.5 C 27.3 25.2 27.1 25.3 26.8 25.4 C 26.6 25.6 27.1 25.8 27.2 25.5 Z M 33.6 18.7 C 33.6 18.7 33.5 18.8 33.5 18.9 C 33.6 18.9 33.6 18.9 33.7 18.8 C 33.8 18.7 34.0 18.6 34.2 18.5 C 34.0 18.4 33.8 18.4 33.6 18.7 Z M 32.2 21.4 C 32.3 21.3 33.2 20.5 32.8 20.5 C 32.3 20.4 32.3 19.7 31.8 20.5 C 31.6 20.9 31.8 21.5 31.5 21.9 C 30.4 23.8 32.4 21.9 32.9 21.6 C 33.0 21.5 32.2 21.6 32.2 21.4 Z M 30.7 23.9 C 30.7 24.1 31.1 24.1 31.2 24.0 C 31.6 23.5 30.6 23.7 30.7 23.9 Z M 35.2 19.8 C 35.2 19.8 35.2 19.8 35.1 19.7 C 35.1 19.8 35.1 19.9 35.2 19.9 C 35.2 19.9 35.2 19.9 35.2 19.8 Z M 36.5 18.9 C 35.6 18.9 36.5 19.6 36.8 19.8 C 37.2 19.9 36.9 19.0 36.5 18.9 Z M 32.5 23.5 C 32.2 23.8 32.8 25.0 33.3 24.5 C 33.7 23.9 33.3 22.9 32.5 23.5 Z M 30.5 27.9 C 30.5 27.6 31.0 27.5 30.9 27.8 C 30.9 28.0 30.5 28.0 30.5 27.9 Z M 35.8 23.6 C 35.6 23.6 35.7 23.5 35.7 23.5 C 35.9 23.5 35.9 23.5 35.8 23.6 Z M 34.7 23.3 C 34.9 23.3 35.1 23.1 35.3 23.0 C 35.4 23.0 35.2 23.4 35.1 23.4 C 35.0 23.5 34.7 23.3 34.7 23.3 Z M 32.0 25.8 C 32.3 25.8 32.0 26.0 31.9 26.1 C 31.8 26.2 31.8 25.9 32.0 25.8 Z M 32.8 25.4 C 32.7 25.5 32.7 25.3 32.8 25.2 C 33.0 25.1 33.0 25.4 32.8 25.4 Z M 31.3 26.0 C 31.4 25.6 31.8 25.2 32.0 25.5 C 32.1 25.6 30.9 26.7 31.3 26.0 Z M 31.3 26.0 " fill="#FEFFFE"></path></g></svg>