<?xml version="1.0" encoding="UTF-8" standalone="no"?><svg xmlns="http://www.w3.org/2000/svg" xmlns:xlink="http://www.w3.org/1999/xlink" clip-rule="evenodd" stroke-miterlimit="10" viewBox="0 0 1024 768"><desc>SVG generated by Keynote</desc><defs></defs><g transform="matrix(1.00, 0.00, -0.00, -1.00, 0.0, 768.0)"><g><clipPath id="clip0x6080024b3a40"><path d="M 0.0 768.0 L 1024.0 768.0 L 1024.0 0.0 L 0.0 0.0 Z M 0.0 768.0 "></path></clipPath><g clip-path="url(#clip0x6080024b3a40)"><image xlink:href="../../384E26B0-0AD0-495F-BA75-267B55ABD0BD/assets/31D284A5C75E14674D2A89FDB99F8048.jpeg" width="2048.00" height="1536.00" transform="matrix(0.50, 0.00, -0.00, -0.50, 0.0, 768.0)"></image></g></g><image xlink:href="79E8BAC2DE38B5B70E8D428A5B284A33.png" width="684.00" height="67.00" transform="matrix(1.00, 0.00, -0.00, -1.00, 171.0, 692.0)"></image><text xml:space="preserve" font-family="HelveticaNeue-Bold,Helvetica Neue" font-weight="bold" font-size="64.0" fill="#FEFFFE" transform="matrix(1.00, 0.00, -0.00, -1.00, 174.3, 643.7)">J</text><text xml:space="preserve" font-family="HelveticaNeue-Bold,Helvetica Neue" font-weight="bold" font-size="64.0" fill="#FEFFFE" transform="matrix(1.00, 0.00, -0.00, -1.00, 209.9, 643.7)">D</text><text xml:space="preserve" font-family="HelveticaNeue-Bold,Helvetica Neue" font-weight="bold" font-size="64.0" fill="#FEFFFE" transform="matrix(1.00, 0.00, -0.00, -1.00, 257.3, 643.7)">’</text><text xml:space="preserve" font-family="HelveticaNeue-Bold,Helvetica Neue" font-weight="bold" font-size="64.0" fill="#FEFFFE" transform="matrix(1.00, 0.00, -0.00, -1.00, 270.3, 643.7)">s</text><text xml:space="preserve" font-family="HelveticaNeue-Bold,Helvetica Neue" font-weight="bold" font-size="64.0" fill="#FEFFFE" transform="matrix(1.00, 0.00, -0.00, -1.00, 304.7, 643.7)"> </text><text xml:space="preserve" font-family="HelveticaNeue-Bold,Helvetica Neue" font-weight="bold" font-size="64.0" fill="#FEFFFE" transform="matrix(1.00, 0.00, -0.00, -1.00, 322.5, 643.7)">o</text><text xml:space="preserve" font-family="HelveticaNeue-Bold,Helvetica Neue" font-weight="bold" font-size="64.0" fill="#FEFFFE" transform="matrix(1.00, 0.00, -0.00, -1.00, 361.6, 643.7)">n</text><text xml:space="preserve" font-family="HelveticaNeue-Bold,Helvetica Neue" font-weight="bold" font-size="64.0" fill="#FEFFFE" transform="matrix(1.00, 0.00, -0.00, -1.00, 399.6, 643.7)">c</text><text xml:space="preserve" font-family="HelveticaNeue-Bold,Helvetica Neue" font-weight="bold" font-size="64.0" fill="#FEFFFE" transform="matrix(1.00, 0.00, -0.00, -1.00, 436.3, 643.7)">o</text><text xml:space="preserve" font-family="HelveticaNeue-Bold,Helvetica Neue" font-weight="bold" font-size="64.0" fill="#FEFFFE" transform="matrix(1.00, 0.00, -0.00, -1.00, 475.4, 643.7)">l</text><text xml:space="preserve" font-family="HelveticaNeue-Bold,Helvetica Neue" font-weight="bold" font-size="64.0" fill="#FEFFFE" transform="matrix(1.00, 0.00, -0.00, -1.00, 491.9, 643.7)">o</text><text xml:space="preserve" font-family="HelveticaNeue-Bold,Helvetica Neue" font-weight="bold" font-size="64.0" fill="#FEFFFE" transform="matrix(1.00, 0.00, -0.00, -1.00, 531.0, 643.7)">g</text><text xml:space="preserve" font-family="HelveticaNeue-Bold,Helvetica Neue" font-weight="bold" font-size="64.0" fill="#FEFFFE" transform="matrix(1.00, 0.00, -0.00, -1.00, 570.1, 643.7)">i</text><text xml:space="preserve" font-family="HelveticaNeue-Bold,Helvetica Neue" font-weight="bold" font-size="64.0" fill="#FEFFFE" transform="matrix(1.00, 0.00, -0.00, -1.00, 586.6, 643.7)">c</text><text xml:space="preserve" font-family="HelveticaNeue-Bold,Helvetica Neue" font-weight="bold" font-size="64.0" fill="#FEFFFE" transform="matrix(1.00, 0.00, -0.00, -1.00, 623.4, 643.7)"> </text><text xml:space="preserve" font-family="HelveticaNeue-Bold,Helvetica Neue" font-weight="bold" font-size="64.0" fill="#FEFFFE" transform="matrix(1.00, 0.00, -0.00, -1.00, 641.2, 643.7)">h</text><text xml:space="preserve" font-family="HelveticaNeue-Bold,Helvetica Neue" font-weight="bold" font-size="64.0" fill="#FEFFFE" transform="matrix(1.00, 0.00, -0.00, -1.00, 679.1, 643.7)">i</text><text xml:space="preserve" font-family="HelveticaNeue-Bold,Helvetica Neue" font-weight="bold" font-size="64.0" fill="#FEFFFE" transform="matrix(1.00, 0.00, -0.00, -1.00, 695.6, 643.7)">s</text><text xml:space="preserve" font-family="HelveticaNeue-Bold,Helvetica Neue" font-weight="bold" font-size="64.0" fill="#FEFFFE" transform="matrix(1.00, 0.00, -0.00, -1.00, 730.0, 643.7)">t</text><text xml:space="preserve" font-family="HelveticaNeue-Bold,Helvetica Neue" font-weight="bold" font-size="64.0" fill="#FEFFFE" transform="matrix(1.00, 0.00, -0.00, -1.00, 752.5, 643.7)">o</text><text xml:space="preserve" font-family="HelveticaNeue-Bold,Helvetica Neue" font-weight="bold" font-size="64.0" fill="#FEFFFE" transform="matrix(1.00, 0.00, -0.00, -1.00, 791.6, 643.7)">r</text><text xml:space="preserve" font-family="HelveticaNeue-Bold,Helvetica Neue" font-weight="bold" font-size="64.0" fill="#FEFFFE" transform="matrix(1.00, 0.00, -0.00, -1.00, 816.5, 643.7)">y</text><image xlink:href="E0AC4864E69B8415570FD4B7173B00D7.png" width="842.00" height="40.00" transform="matrix(1.00, 0.00, -0.00, -1.00, 59.0, 425.0)"></image><text xml:space="preserve" font-family="HelveticaNeue-Medium,Helvetica Neue" font-size="34.0" fill="#EAEAEA" transform="matrix(1.00, 0.00, -0.00, -1.00, 64.0, 398.4)">A</text><text xml:space="preserve" font-family="HelveticaNeue-Medium,Helvetica Neue" font-size="34.0" fill="#EAEAEA" transform="matrix(1.00, 0.00, -0.00, -1.00, 86.7, 398.4)"> </text><text xml:space="preserve" font-family="HelveticaNeue-Medium,Helvetica Neue" font-size="34.0" fill="#EAEAEA" transform="matrix(1.00, 0.00, -0.00, -1.00, 96.1, 398.4)">y</text><text xml:space="preserve" font-family="HelveticaNeue-Medium,Helvetica Neue" font-size="34.0" fill="#EAEAEA" transform="matrix(1.00, 0.00, -0.00, -1.00, 113.8, 398.4)">o</text><text xml:space="preserve" font-family="HelveticaNeue-Medium,Helvetica Neue" font-size="34.0" fill="#EAEAEA" transform="matrix(1.00, 0.00, -0.00, -1.00, 133.9, 398.4)">u</text><text xml:space="preserve" font-family="HelveticaNeue-Medium,Helvetica Neue" font-size="34.0" fill="#EAEAEA" transform="matrix(1.00, 0.00, -0.00, -1.00, 153.5, 398.4)">n</text><text xml:space="preserve" font-family="HelveticaNeue-Medium,Helvetica Neue" font-size="34.0" fill="#EAEAEA" transform="matrix(1.00, 0.00, -0.00, -1.00, 173.0, 398.4)">g</text><text xml:space="preserve" font-family="HelveticaNeue-Medium,Helvetica Neue" font-size="34.0" fill="#EAEAEA" transform="matrix(1.00, 0.00, -0.00, -1.00, 193.1, 398.4)"> </text><text xml:space="preserve" font-family="HelveticaNeue-Medium,Helvetica Neue" font-size="34.0" fill="#EAEAEA" transform="matrix(1.00, 0.00, -0.00, -1.00, 202.6, 398.4)">m</text><text xml:space="preserve" font-family="HelveticaNeue-Medium,Helvetica Neue" font-size="34.0" fill="#EAEAEA" transform="matrix(1.00, 0.00, -0.00, -1.00, 232.2, 398.4)">a</text><text xml:space="preserve" font-family="HelveticaNeue-Medium,Helvetica Neue" font-size="34.0" fill="#EAEAEA" transform="matrix(1.00, 0.00, -0.00, -1.00, 251.1, 398.4)">n</text><text xml:space="preserve" font-family="HelveticaNeue-Medium,Helvetica Neue" font-size="34.0" fill="#EAEAEA" transform="matrix(1.00, 0.00, -0.00, -1.00, 270.6, 398.4)"> </text><text xml:space="preserve" font-family="HelveticaNeue-Medium,Helvetica Neue" font-size="34.0" fill="#EAEAEA" transform="matrix(1.00, 0.00, -0.00, -1.00, 280.0, 398.4)">w</text><text xml:space="preserve" font-family="HelveticaNeue-Medium,Helvetica Neue" font-size="34.0" fill="#EAEAEA" transform="matrix(1.00, 0.00, -0.00, -1.00, 306.5, 398.4)">i</text><text xml:space="preserve" font-family="HelveticaNeue-Medium,Helvetica Neue" font-size="34.0" fill="#EAEAEA" transform="matrix(1.00, 0.00, -0.00, -1.00, 314.7, 398.4)">t</text><text xml:space="preserve" font-family="HelveticaNeue-Medium,Helvetica Neue" font-size="34.0" fill="#EAEAEA" transform="matrix(1.00, 0.00, -0.00, -1.00, 326.0, 398.4)">h</text><text xml:space="preserve" font-family="HelveticaNeue-Medium,Helvetica Neue" font-size="34.0" fill="#EAEAEA" transform="matrix(1.00, 0.00, -0.00, -1.00, 345.5, 398.4)"> </text><text xml:space="preserve" font-family="HelveticaNeue-Medium,Helvetica Neue" font-size="34.0" fill="#EAEAEA" transform="matrix(1.00, 0.00, -0.00, -1.00, 355.0, 398.4)">n</text><text xml:space="preserve" font-family="HelveticaNeue-Medium,Helvetica Neue" font-size="34.0" fill="#EAEAEA" transform="matrix(1.00, 0.00, -0.00, -1.00, 374.5, 398.4)">o</text><text xml:space="preserve" font-family="HelveticaNeue-Medium,Helvetica Neue" font-size="34.0" fill="#EAEAEA" transform="matrix(1.00, 0.00, -0.00, -1.00, 394.6, 398.4)"> </text><text xml:space="preserve" font-family="HelveticaNeue-Medium,Helvetica Neue" font-size="34.0" fill="#EAEAEA" transform="matrix(1.00, 0.00, -0.00, -1.00, 404.1, 398.4)">s</text><text xml:space="preserve" font-family="HelveticaNeue-Medium,Helvetica Neue" font-size="34.0" fill="#EAEAEA" transform="matrix(1.00, 0.00, -0.00, -1.00, 421.7, 398.4)">i</text><text xml:space="preserve" font-family="HelveticaNeue-Medium,Helvetica Neue" font-size="34.0" fill="#EAEAEA" transform="matrix(1.00, 0.00, -0.00, -1.00, 429.9, 398.4)">g</text><text xml:space="preserve" font-family="HelveticaNeue-Medium,Helvetica Neue" font-size="34.0" fill="#EAEAEA" transform="matrix(1.00, 0.00, -0.00, -1.00, 450.1, 398.4)">n</text><text xml:space="preserve" font-family="HelveticaNeue-Medium,Helvetica Neue" font-size="34.0" fill="#EAEAEA" transform="matrix(1.00, 0.00, -0.00, -1.00, 469.6, 398.4)">i</text><text xml:space="preserve" font-family="HelveticaNeue-Medium,Helvetica Neue" font-size="34.0" fill="#EAEAEA" transform="matrix(1.00, 0.00, -0.00, -1.00, 477.8, 398.4)">ﬁ</text><text xml:space="preserve" font-family="HelveticaNeue-Medium,Helvetica Neue" font-size="34.0" fill="#EAEAEA" transform="matrix(1.00, 0.00, -0.00, -1.00, 496.7, 398.4)">c</text><text xml:space="preserve" font-family="HelveticaNeue-Medium,Helvetica Neue" font-size="34.0" fill="#EAEAEA" transform="matrix(1.00, 0.00, -0.00, -1.00, 515.6, 398.4)">a</text><text xml:space="preserve" font-family="HelveticaNeue-Medium,Helvetica Neue" font-size="34.0" fill="#EAEAEA" transform="matrix(1.00, 0.00, -0.00, -1.00, 534.5, 398.4)">n</text><text xml:space="preserve" font-family="HelveticaNeue-Medium,Helvetica Neue" font-size="34.0" fill="#EAEAEA" transform="matrix(1.00, 0.00, -0.00, -1.00, 554.0, 398.4)">t</text><text xml:space="preserve" font-family="HelveticaNeue-Medium,Helvetica Neue" font-size="34.0" fill="#EAEAEA" transform="matrix(1.00, 0.00, -0.00, -1.00, 565.4, 398.4)"> </text><text xml:space="preserve" font-family="HelveticaNeue-Medium,Helvetica Neue" font-size="34.0" fill="#EAEAEA" transform="matrix(1.00, 0.00, -0.00, -1.00, 574.8, 398.4)">p</text><text xml:space="preserve" font-family="HelveticaNeue-Medium,Helvetica Neue" font-size="34.0" fill="#EAEAEA" transform="matrix(1.00, 0.00, -0.00, -1.00, 595.6, 398.4)">a</text><text xml:space="preserve" font-family="HelveticaNeue-Medium,Helvetica Neue" font-size="34.0" fill="#EAEAEA" transform="matrix(1.00, 0.00, -0.00, -1.00, 614.5, 398.4)">s</text><text xml:space="preserve" font-family="HelveticaNeue-Medium,Helvetica Neue" font-size="34.0" fill="#EAEAEA" transform="matrix(1.00, 0.00, -0.00, -1.00, 632.1, 398.4)">t</text><text xml:space="preserve" font-family="HelveticaNeue-Medium,Helvetica Neue" font-size="34.0" fill="#EAEAEA" transform="matrix(1.00, 0.00, -0.00, -1.00, 643.5, 398.4)"> </text><text xml:space="preserve" font-family="HelveticaNeue-Medium,Helvetica Neue" font-size="34.0" fill="#EAEAEA" transform="matrix(1.00, 0.00, -0.00, -1.00, 652.9, 398.4)">m</text><text xml:space="preserve" font-family="HelveticaNeue-Medium,Helvetica Neue" font-size="34.0" fill="#EAEAEA" transform="matrix(1.00, 0.00, -0.00, -1.00, 682.5, 398.4)">e</text><text xml:space="preserve" font-family="HelveticaNeue-Medium,Helvetica Neue" font-size="34.0" fill="#EAEAEA" transform="matrix(1.00, 0.00, -0.00, -1.00, 701.4, 398.4)">d</text><text xml:space="preserve" font-family="HelveticaNeue-Medium,Helvetica Neue" font-size="34.0" fill="#EAEAEA" transform="matrix(1.00, 0.00, -0.00, -1.00, 722.2, 398.4)">i</text><text xml:space="preserve" font-family="HelveticaNeue-Medium,Helvetica Neue" font-size="34.0" fill="#EAEAEA" transform="matrix(1.00, 0.00, -0.00, -1.00, 730.4, 398.4)">c</text><text xml:space="preserve" font-family="HelveticaNeue-Medium,Helvetica Neue" font-size="34.0" fill="#EAEAEA" transform="matrix(1.00, 0.00, -0.00, -1.00, 749.3, 398.4)">a</text><text xml:space="preserve" font-family="HelveticaNeue-Medium,Helvetica Neue" font-size="34.0" fill="#EAEAEA" transform="matrix(1.00, 0.00, -0.00, -1.00, 768.2, 398.4)">l</text><text xml:space="preserve" font-family="HelveticaNeue-Medium,Helvetica Neue" font-size="34.0" fill="#EAEAEA" transform="matrix(1.00, 0.00, -0.00, -1.00, 776.4, 398.4)"> </text><text xml:space="preserve" font-family="HelveticaNeue-Medium,Helvetica Neue" font-size="34.0" fill="#EAEAEA" transform="matrix(1.00, 0.00, -0.00, -1.00, 785.8, 398.4)">h</text><text xml:space="preserve" font-family="HelveticaNeue-Medium,Helvetica Neue" font-size="34.0" fill="#EAEAEA" transform="matrix(1.00, 0.00, -0.00, -1.00, 805.3, 398.4)">i</text><text xml:space="preserve" font-family="HelveticaNeue-Medium,Helvetica Neue" font-size="34.0" fill="#EAEAEA" transform="matrix(1.00, 0.00, -0.00, -1.00, 813.5, 398.4)">s</text><text xml:space="preserve" font-family="HelveticaNeue-Medium,Helvetica Neue" font-size="34.0" fill="#EAEAEA" transform="matrix(1.00, 0.00, -0.00, -1.00, 831.2, 398.4)">t</text><text xml:space="preserve" font-family="HelveticaNeue-Medium,Helvetica Neue" font-size="34.0" fill="#EAEAEA" transform="matrix(1.00, 0.00, -0.00, -1.00, 842.5, 398.4)">o</text><text xml:space="preserve" font-family="HelveticaNeue-Medium,Helvetica Neue" font-size="34.0" fill="#EAEAEA" transform="matrix(1.00, 0.00, -0.00, -1.00, 862.7, 398.4)">r</text><text xml:space="preserve" font-family="HelveticaNeue-Medium,Helvetica Neue" font-size="34.0" fill="#EAEAEA" transform="matrix(1.00, 0.00, -0.00, -1.00, 874.6, 398.4)">y</text><text xml:space="preserve" font-family="HelveticaNeue-Medium,Helvetica Neue" font-size="34.0" fill="#EAEAEA" transform="matrix(1.00, 0.00, -0.00, -1.00, 889.1, 398.4)">.</text><text xml:space="preserve" font-family="HelveticaNeue-Medium,Helvetica Neue" font-size="34.0" fill="#EAEAEA" transform="matrix(1.00, 0.00, -0.00, -1.00, 898.6, 398.4)"> </text><image xlink:href="47FE998871171D8AFA09C831CCDACE32.png" width="702.00" height="40.00" transform="matrix(1.00, 0.00, -0.00, -1.00, 62.0, 342.0)"></image><text xml:space="preserve" font-family="HelveticaNeue-Medium,Helvetica Neue" font-size="34.0" fill="#EAEAEA" transform="matrix(1.00, 0.00, -0.00, -1.00, 64.0, 315.4)">N</text><text xml:space="preserve" font-family="HelveticaNeue-Medium,Helvetica Neue" font-size="34.0" fill="#EAEAEA" transform="matrix(1.00, 0.00, -0.00, -1.00, 88.5, 315.4)">o</text><text xml:space="preserve" font-family="HelveticaNeue-Medium,Helvetica Neue" font-size="34.0" fill="#EAEAEA" transform="matrix(1.00, 0.00, -0.00, -1.00, 108.7, 315.4)">t</text><text xml:space="preserve" font-family="HelveticaNeue-Medium,Helvetica Neue" font-size="34.0" fill="#EAEAEA" transform="matrix(1.00, 0.00, -0.00, -1.00, 120.0, 315.4)">i</text><text xml:space="preserve" font-family="HelveticaNeue-Medium,Helvetica Neue" font-size="34.0" fill="#EAEAEA" transform="matrix(1.00, 0.00, -0.00, -1.00, 128.2, 315.4)">c</text><text xml:space="preserve" font-family="HelveticaNeue-Medium,Helvetica Neue" font-size="34.0" fill="#EAEAEA" transform="matrix(1.00, 0.00, -0.00, -1.00, 147.1, 315.4)">e</text><text xml:space="preserve" font-family="HelveticaNeue-Medium,Helvetica Neue" font-size="34.0" fill="#EAEAEA" transform="matrix(1.00, 0.00, -0.00, -1.00, 166.0, 315.4)">d</text><text xml:space="preserve" font-family="HelveticaNeue-Medium,Helvetica Neue" font-size="34.0" fill="#EAEAEA" transform="matrix(1.00, 0.00, -0.00, -1.00, 186.8, 315.4)"> </text><text xml:space="preserve" font-family="HelveticaNeue-Medium,Helvetica Neue" font-size="34.0" fill="#EAEAEA" transform="matrix(1.00, 0.00, -0.00, -1.00, 196.3, 315.4)">a</text><text xml:space="preserve" font-family="HelveticaNeue-Medium,Helvetica Neue" font-size="34.0" fill="#EAEAEA" transform="matrix(1.00, 0.00, -0.00, -1.00, 215.2, 315.4)"> </text><text xml:space="preserve" font-family="HelveticaNeue-Medium,Helvetica Neue" font-size="34.0" fill="#EAEAEA" transform="matrix(1.00, 0.00, -0.00, -1.00, 224.6, 315.4)">m</text><text xml:space="preserve" font-family="HelveticaNeue-Medium,Helvetica Neue" font-size="34.0" fill="#EAEAEA" transform="matrix(1.00, 0.00, -0.00, -1.00, 254.2, 315.4)">a</text><text xml:space="preserve" font-family="HelveticaNeue-Medium,Helvetica Neue" font-size="34.0" fill="#EAEAEA" transform="matrix(1.00, 0.00, -0.00, -1.00, 273.1, 315.4)">s</text><text xml:space="preserve" font-family="HelveticaNeue-Medium,Helvetica Neue" font-size="34.0" fill="#EAEAEA" transform="matrix(1.00, 0.00, -0.00, -1.00, 290.7, 315.4)">s</text><text xml:space="preserve" font-family="HelveticaNeue-Medium,Helvetica Neue" font-size="34.0" fill="#EAEAEA" transform="matrix(1.00, 0.00, -0.00, -1.00, 308.4, 315.4)"> </text><text xml:space="preserve" font-family="HelveticaNeue-Medium,Helvetica Neue" font-size="34.0" fill="#EAEAEA" transform="matrix(1.00, 0.00, -0.00, -1.00, 317.8, 315.4)">i</text><text xml:space="preserve" font-family="HelveticaNeue-Medium,Helvetica Neue" font-size="34.0" fill="#EAEAEA" transform="matrix(1.00, 0.00, -0.00, -1.00, 326.0, 315.4)">n</text><text xml:space="preserve" font-family="HelveticaNeue-Medium,Helvetica Neue" font-size="34.0" fill="#EAEAEA" transform="matrix(1.00, 0.00, -0.00, -1.00, 345.6, 315.4)"> </text><text xml:space="preserve" font-family="HelveticaNeue-Medium,Helvetica Neue" font-size="34.0" fill="#EAEAEA" transform="matrix(1.00, 0.00, -0.00, -1.00, 355.0, 315.4)">t</text><text xml:space="preserve" font-family="HelveticaNeue-Medium,Helvetica Neue" font-size="34.0" fill="#EAEAEA" transform="matrix(1.00, 0.00, -0.00, -1.00, 366.3, 315.4)">h</text><text xml:space="preserve" font-family="HelveticaNeue-Medium,Helvetica Neue" font-size="34.0" fill="#EAEAEA" transform="matrix(1.00, 0.00, -0.00, -1.00, 385.8, 315.4)">e</text><text xml:space="preserve" font-family="HelveticaNeue-Medium,Helvetica Neue" font-size="34.0" fill="#EAEAEA" transform="matrix(1.00, 0.00, -0.00, -1.00, 404.7, 315.4)"> </text><text xml:space="preserve" font-family="HelveticaNeue-Medium,Helvetica Neue" font-size="34.0" fill="#EAEAEA" transform="matrix(1.00, 0.00, -0.00, -1.00, 414.2, 315.4)">a</text><text xml:space="preserve" font-family="HelveticaNeue-Medium,Helvetica Neue" font-size="34.0" fill="#EAEAEA" transform="matrix(1.00, 0.00, -0.00, -1.00, 433.1, 315.4)">x</text><text xml:space="preserve" font-family="HelveticaNeue-Medium,Helvetica Neue" font-size="34.0" fill="#EAEAEA" transform="matrix(1.00, 0.00, -0.00, -1.00, 451.4, 315.4)">i</text><text xml:space="preserve" font-family="HelveticaNeue-Medium,Helvetica Neue" font-size="34.0" fill="#EAEAEA" transform="matrix(1.00, 0.00, -0.00, -1.00, 459.6, 315.4)">l</text><text xml:space="preserve" font-family="HelveticaNeue-Medium,Helvetica Neue" font-size="34.0" fill="#EAEAEA" transform="matrix(1.00, 0.00, -0.00, -1.00, 467.8, 315.4)">l</text><text xml:space="preserve" font-family="HelveticaNeue-Medium,Helvetica Neue" font-size="34.0" fill="#EAEAEA" transform="matrix(1.00, 0.00, -0.00, -1.00, 475.9, 315.4)">a</text><text xml:space="preserve" font-family="HelveticaNeue-Medium,Helvetica Neue" font-size="34.0" fill="#EAEAEA" transform="matrix(1.00, 0.00, -0.00, -1.00, 494.8, 315.4)">,</text><text xml:space="preserve" font-family="HelveticaNeue-Medium,Helvetica Neue" font-size="34.0" fill="#EAEAEA" transform="matrix(1.00, 0.00, -0.00, -1.00, 504.3, 315.4)"> </text><text xml:space="preserve" font-family="HelveticaNeue-Medium,Helvetica Neue" font-size="34.0" fill="#EAEAEA" transform="matrix(1.00, 0.00, -0.00, -1.00, 513.8, 315.4)">n</text><text xml:space="preserve" font-family="HelveticaNeue-Medium,Helvetica Neue" font-size="34.0" fill="#EAEAEA" transform="matrix(1.00, 0.00, -0.00, -1.00, 533.3, 315.4)">o</text><text xml:space="preserve" font-family="HelveticaNeue-Medium,Helvetica Neue" font-size="34.0" fill="#EAEAEA" transform="matrix(1.00, 0.00, -0.00, -1.00, 553.4, 315.4)"> </text><text xml:space="preserve" font-family="HelveticaNeue-Medium,Helvetica Neue" font-size="34.0" fill="#EAEAEA" transform="matrix(1.00, 0.00, -0.00, -1.00, 562.9, 315.4)">B</text><text xml:space="preserve" font-family="HelveticaNeue-Medium,Helvetica Neue" font-size="34.0" fill="#EAEAEA" transform="matrix(1.00, 0.00, -0.00, -1.00, 586.8, 315.4)"> </text><text xml:space="preserve" font-family="HelveticaNeue-Medium,Helvetica Neue" font-size="34.0" fill="#EAEAEA" transform="matrix(1.00, 0.00, -0.00, -1.00, 596.3, 315.4)">s</text><text xml:space="preserve" font-family="HelveticaNeue-Medium,Helvetica Neue" font-size="34.0" fill="#EAEAEA" transform="matrix(1.00, 0.00, -0.00, -1.00, 613.9, 315.4)">y</text><text xml:space="preserve" font-family="HelveticaNeue-Medium,Helvetica Neue" font-size="34.0" fill="#EAEAEA" transform="matrix(1.00, 0.00, -0.00, -1.00, 631.6, 315.4)">m</text><text xml:space="preserve" font-family="HelveticaNeue-Medium,Helvetica Neue" font-size="34.0" fill="#EAEAEA" transform="matrix(1.00, 0.00, -0.00, -1.00, 661.1, 315.4)">p</text><text xml:space="preserve" font-family="HelveticaNeue-Medium,Helvetica Neue" font-size="34.0" fill="#EAEAEA" transform="matrix(1.00, 0.00, -0.00, -1.00, 681.9, 315.4)">t</text><text xml:space="preserve" font-family="HelveticaNeue-Medium,Helvetica Neue" font-size="34.0" fill="#EAEAEA" transform="matrix(1.00, 0.00, -0.00, -1.00, 693.2, 315.4)">o</text><text xml:space="preserve" font-family="HelveticaNeue-Medium,Helvetica Neue" font-size="34.0" fill="#EAEAEA" transform="matrix(1.00, 0.00, -0.00, -1.00, 713.4, 315.4)">m</text><text xml:space="preserve" font-family="HelveticaNeue-Medium,Helvetica Neue" font-size="34.0" fill="#EAEAEA" transform="matrix(1.00, 0.00, -0.00, -1.00, 743.0, 315.4)">s</text><text xml:space="preserve" font-family="HelveticaNeue-Medium,Helvetica Neue" font-size="34.0" fill="#EAEAEA" transform="matrix(1.00, 0.00, -0.00, -1.00, 760.6, 315.4)"> </text><image xlink:href="6C4E613992A6D8BD7C4E1F474A508917.png" width="405.00" height="40.00" transform="matrix(1.00, 0.00, -0.00, -1.00, 62.0, 259.0)"></image><text xml:space="preserve" font-family="HelveticaNeue-Medium,Helvetica Neue" font-size="34.0" fill="#EAEAEA" transform="matrix(1.00, 0.00, -0.00, -1.00, 64.0, 232.4)">E</text><text xml:space="preserve" font-family="HelveticaNeue-Medium,Helvetica Neue" font-size="34.0" fill="#EAEAEA" transform="matrix(1.00, 0.00, -0.00, -1.00, 85.4, 232.4)">x</text><text xml:space="preserve" font-family="HelveticaNeue-Medium,Helvetica Neue" font-size="34.0" fill="#EAEAEA" transform="matrix(1.00, 0.00, -0.00, -1.00, 103.7, 232.4)">c</text><text xml:space="preserve" font-family="HelveticaNeue-Medium,Helvetica Neue" font-size="34.0" fill="#EAEAEA" transform="matrix(1.00, 0.00, -0.00, -1.00, 122.6, 232.4)">i</text><text xml:space="preserve" font-family="HelveticaNeue-Medium,Helvetica Neue" font-size="34.0" fill="#EAEAEA" transform="matrix(1.00, 0.00, -0.00, -1.00, 130.8, 232.4)">s</text><text xml:space="preserve" font-family="HelveticaNeue-Medium,Helvetica Neue" font-size="34.0" fill="#EAEAEA" transform="matrix(1.00, 0.00, -0.00, -1.00, 148.4, 232.4)">i</text><text xml:space="preserve" font-family="HelveticaNeue-Medium,Helvetica Neue" font-size="34.0" fill="#EAEAEA" transform="matrix(1.00, 0.00, -0.00, -1.00, 156.6, 232.4)">o</text><text xml:space="preserve" font-family="HelveticaNeue-Medium,Helvetica Neue" font-size="34.0" fill="#EAEAEA" transform="matrix(1.00, 0.00, -0.00, -1.00, 176.8, 232.4)">n</text><text xml:space="preserve" font-family="HelveticaNeue-Medium,Helvetica Neue" font-size="34.0" fill="#EAEAEA" transform="matrix(1.00, 0.00, -0.00, -1.00, 196.3, 232.4)">a</text><text xml:space="preserve" font-family="HelveticaNeue-Medium,Helvetica Neue" font-size="34.0" fill="#EAEAEA" transform="matrix(1.00, 0.00, -0.00, -1.00, 215.2, 232.4)">l</text><text xml:space="preserve" font-family="HelveticaNeue-Medium,Helvetica Neue" font-size="34.0" fill="#EAEAEA" transform="matrix(1.00, 0.00, -0.00, -1.00, 223.4, 232.4)"> </text><text xml:space="preserve" font-family="HelveticaNeue-Medium,Helvetica Neue" font-size="34.0" fill="#EAEAEA" transform="matrix(1.00, 0.00, -0.00, -1.00, 232.8, 232.4)">b</text><text xml:space="preserve" font-family="HelveticaNeue-Medium,Helvetica Neue" font-size="34.0" fill="#EAEAEA" transform="matrix(1.00, 0.00, -0.00, -1.00, 253.6, 232.4)">i</text><text xml:space="preserve" font-family="HelveticaNeue-Medium,Helvetica Neue" font-size="34.0" fill="#EAEAEA" transform="matrix(1.00, 0.00, -0.00, -1.00, 261.8, 232.4)">o</text><text xml:space="preserve" font-family="HelveticaNeue-Medium,Helvetica Neue" font-size="34.0" fill="#EAEAEA" transform="matrix(1.00, 0.00, -0.00, -1.00, 282.0, 232.4)">p</text><text xml:space="preserve" font-family="HelveticaNeue-Medium,Helvetica Neue" font-size="34.0" fill="#EAEAEA" transform="matrix(1.00, 0.00, -0.00, -1.00, 302.7, 232.4)">s</text><text xml:space="preserve" font-family="HelveticaNeue-Medium,Helvetica Neue" font-size="34.0" fill="#EAEAEA" transform="matrix(1.00, 0.00, -0.00, -1.00, 320.4, 232.4)">y</text><text xml:space="preserve" font-family="HelveticaNeue-Medium,Helvetica Neue" font-size="34.0" fill="#EAEAEA" transform="matrix(1.00, 0.00, -0.00, -1.00, 338.0, 232.4)"> </text><text xml:space="preserve" font-family="HelveticaNeue-Medium,Helvetica Neue" font-size="34.0" fill="#EAEAEA" transform="matrix(1.00, 0.00, -0.00, -1.00, 347.5, 232.4)">o</text><text xml:space="preserve" font-family="HelveticaNeue-Medium,Helvetica Neue" font-size="34.0" fill="#EAEAEA" transform="matrix(1.00, 0.00, -0.00, -1.00, 367.7, 232.4)">f</text><text xml:space="preserve" font-family="HelveticaNeue-Medium,Helvetica Neue" font-size="34.0" fill="#EAEAEA" transform="matrix(1.00, 0.00, -0.00, -1.00, 378.4, 232.4)"> </text><text xml:space="preserve" font-family="HelveticaNeue-Medium,Helvetica Neue" font-size="34.0" fill="#EAEAEA" transform="matrix(1.00, 0.00, -0.00, -1.00, 387.8, 232.4)">a</text><text xml:space="preserve" font-family="HelveticaNeue-Medium,Helvetica Neue" font-size="34.0" fill="#EAEAEA" transform="matrix(1.00, 0.00, -0.00, -1.00, 406.7, 232.4)"> </text><text xml:space="preserve" font-family="HelveticaNeue-Medium,Helvetica Neue" font-size="34.0" fill="#EAEAEA" transform="matrix(1.00, 0.00, -0.00, -1.00, 416.2, 232.4)">7</text><text xml:space="preserve" font-family="HelveticaNeue-Medium,Helvetica Neue" font-size="34.0" fill="#EAEAEA" transform="matrix(1.00, 0.00, -0.00, -1.00, 435.1, 232.4)">.</text><text xml:space="preserve" font-family="HelveticaNeue-Medium,Helvetica Neue" font-size="34.0" fill="#EAEAEA" transform="matrix(1.00, 0.00, -0.00, -1.00, 444.5, 232.4)">5</text><text xml:space="preserve" font-family="HelveticaNeue-Medium,Helvetica Neue" font-size="34.0" fill="#EAEAEA" transform="matrix(1.00, 0.00, -0.00, -1.00, 463.4, 232.4)"> </text><image xlink:href="3F435D991926BBA8D7372D43FF13537C.png" width="27.00" height="27.00" transform="matrix(1.00, 0.00, -0.00, -1.00, 471.0, 253.0)"></image><text xml:space="preserve" font-family="AppleSymbols,Apple Symbols" font-size="34.0" fill="#EAEAEA" transform="matrix(1.00, 0.00, -0.00, -1.00, 472.9, 232.4)">⨉</text><image xlink:href="1B29D50A72A67F24E3E561E693F767C1.png" width="54.00" height="34.00" transform="matrix(1.00, 0.00, -0.00, -1.00, 502.0, 259.0)"></image><text xml:space="preserve" font-family="HelveticaNeue-Medium,Helvetica Neue" font-size="34.0" fill="#EAEAEA" transform="matrix(1.00, 0.00, -0.00, -1.00, 495.5, 232.4)"> </text><text xml:space="preserve" font-family="HelveticaNeue-Medium,Helvetica Neue" font-size="34.0" fill="#EAEAEA" transform="matrix(1.00, 0.00, -0.00, -1.00, 505.0, 232.4)">6</text><text xml:space="preserve" font-family="HelveticaNeue-Medium,Helvetica Neue" font-size="34.0" fill="#EAEAEA" transform="matrix(1.00, 0.00, -0.00, -1.00, 523.9, 232.4)">.</text><text xml:space="preserve" font-family="HelveticaNeue-Medium,Helvetica Neue" font-size="34.0" fill="#EAEAEA" transform="matrix(1.00, 0.00, -0.00, -1.00, 533.3, 232.4)">5</text><text xml:space="preserve" font-family="HelveticaNeue-Medium,Helvetica Neue" font-size="34.0" fill="#EAEAEA" transform="matrix(1.00, 0.00, -0.00, -1.00, 552.2, 232.4)"> </text><image xlink:href="1F53F1D1566B244C2D32BD3ECF84483D.png" width="28.00" height="27.00" transform="matrix(1.00, 0.00, -0.00, -1.00, 559.0, 253.0)"></image><text xml:space="preserve" font-family="AppleSymbols,Apple Symbols" font-size="34.0" fill="#EAEAEA" transform="matrix(1.00, 0.00, -0.00, -1.00, 561.7, 232.4)">⨉</text><image xlink:href="4DD9B9F80C9E03D16208F678C5005ED2.png" width="205.00" height="34.00" transform="matrix(1.00, 0.00, -0.00, -1.00, 591.0, 259.0)"></image><text xml:space="preserve" font-family="HelveticaNeue-Medium,Helvetica Neue" font-size="34.0" fill="#EAEAEA" transform="matrix(1.00, 0.00, -0.00, -1.00, 584.3, 232.4)"> </text><text xml:space="preserve" font-family="HelveticaNeue-Medium,Helvetica Neue" font-size="34.0" fill="#EAEAEA" transform="matrix(1.00, 0.00, -0.00, -1.00, 593.8, 232.4)">2</text><text xml:space="preserve" font-family="HelveticaNeue-Medium,Helvetica Neue" font-size="34.0" fill="#EAEAEA" transform="matrix(1.00, 0.00, -0.00, -1.00, 612.7, 232.4)">.</text><text xml:space="preserve" font-family="HelveticaNeue-Medium,Helvetica Neue" font-size="34.0" fill="#EAEAEA" transform="matrix(1.00, 0.00, -0.00, -1.00, 622.1, 232.4)">5</text><text xml:space="preserve" font-family="HelveticaNeue-Medium,Helvetica Neue" font-size="34.0" fill="#EAEAEA" transform="matrix(1.00, 0.00, -0.00, -1.00, 641.0, 232.4)"> </text><text xml:space="preserve" font-family="HelveticaNeue-Medium,Helvetica Neue" font-size="34.0" fill="#EAEAEA" transform="matrix(1.00, 0.00, -0.00, -1.00, 650.5, 232.4)">c</text><text xml:space="preserve" font-family="HelveticaNeue-Medium,Helvetica Neue" font-size="34.0" fill="#EAEAEA" transform="matrix(1.00, 0.00, -0.00, -1.00, 669.4, 232.4)">m</text><text xml:space="preserve" font-family="HelveticaNeue-Medium,Helvetica Neue" font-size="34.0" fill="#EAEAEA" transform="matrix(1.00, 0.00, -0.00, -1.00, 699.0, 232.4)"> </text><text xml:space="preserve" font-family="HelveticaNeue-Medium,Helvetica Neue" font-size="34.0" fill="#EAEAEA" transform="matrix(1.00, 0.00, -0.00, -1.00, 708.4, 232.4)">m</text><text xml:space="preserve" font-family="HelveticaNeue-Medium,Helvetica Neue" font-size="34.0" fill="#EAEAEA" transform="matrix(1.00, 0.00, -0.00, -1.00, 738.0, 232.4)">a</text><text xml:space="preserve" font-family="HelveticaNeue-Medium,Helvetica Neue" font-size="34.0" fill="#EAEAEA" transform="matrix(1.00, 0.00, -0.00, -1.00, 756.9, 232.4)">s</text><text xml:space="preserve" font-family="HelveticaNeue-Medium,Helvetica Neue" font-size="34.0" fill="#EAEAEA" transform="matrix(1.00, 0.00, -0.00, -1.00, 774.6, 232.4)">s</text><image xlink:href="52E91D5A359A441E9A52853F09037344.png" width="197.00" height="44.00" transform="matrix(1.00, 0.00, -0.00, -1.00, 158.0, 506.0)"></image><text xml:space="preserve" font-family="Chalkduster,Chalkduster" font-size="26.0" fill="#FEE55E" transform="matrix(1.00, 0.00, -0.00, -1.00, 160.7, 482.5)">i</text><text xml:space="preserve" font-family="Chalkduster,Chalkduster" font-size="26.0" fill="#FEE55E" transform="matrix(1.00, 0.00, -0.00, -1.00, 171.0, 482.5)">n</text><text xml:space="preserve" font-family="Chalkduster,Chalkduster" font-size="26.0" fill="#FEE55E" transform="matrix(1.00, 0.00, -0.00, -1.00, 189.1, 482.5)">t</text><text xml:space="preserve" font-family="Chalkduster,Chalkduster" font-size="26.0" fill="#FEE55E" transform="matrix(1.00, 0.00, -0.00, -1.00, 200.7, 482.5)">e</text><text xml:space="preserve" font-family="Chalkduster,Chalkduster" font-size="26.0" fill="#FEE55E" transform="matrix(1.00, 0.00, -0.00, -1.00, 217.1, 482.5)">n</text><text xml:space="preserve" font-family="Chalkduster,Chalkduster" font-size="26.0" fill="#FEE55E" transform="matrix(1.00, 0.00, -0.00, -1.00, 235.2, 482.5)">t</text><text xml:space="preserve" font-family="Chalkduster,Chalkduster" font-size="26.0" fill="#FEE55E" transform="matrix(1.00, 0.00, -0.00, -1.00, 247.2, 482.5)">i</text><text xml:space="preserve" font-family="Chalkduster,Chalkduster" font-size="26.0" fill="#FEE55E" transform="matrix(1.00, 0.00, -0.00, -1.00, 257.4, 482.5)">o</text><text xml:space="preserve" font-family="Chalkduster,Chalkduster" font-size="26.0" fill="#FEE55E" transform="matrix(1.00, 0.00, -0.00, -1.00, 276.8, 482.5)">n</text><text xml:space="preserve" font-family="Chalkduster,Chalkduster" font-size="26.0" fill="#FEE55E" transform="matrix(1.00, 0.00, -0.00, -1.00, 295.8, 482.5)">a</text><text xml:space="preserve" font-family="Chalkduster,Chalkduster" font-size="26.0" fill="#FEE55E" transform="matrix(1.00, 0.00, -0.00, -1.00, 312.7, 482.5)">l</text><text xml:space="preserve" font-family="Chalkduster,Chalkduster" font-size="26.0" fill="#FEE55E" transform="matrix(1.00, 0.00, -0.00, -1.00, 324.5, 482.5)">l</text><text xml:space="preserve" font-family="Chalkduster,Chalkduster" font-size="26.0" fill="#FEE55E" transform="matrix(1.00, 0.00, -0.00, -1.00, 335.1, 482.5)">y</text><image xlink:href="92F80F5E855D7B5EEB972EB0A85F9858.png" width="91.00" height="31.00" transform="matrix(1.00, 0.00, -0.00, -1.00, 360.0, 498.0)"></image><text xml:space="preserve" font-family="Chalkduster,Chalkduster" font-size="26.0" fill="#FEE55E" transform="matrix(1.00, 0.00, -0.00, -1.00, 350.9, 482.5)"> </text><text xml:space="preserve" font-family="Chalkduster,Chalkduster" font-size="26.0" fill="#FEE55E" transform="matrix(1.00, 0.00, -0.00, -1.00, 363.8, 482.5)">v</text><text xml:space="preserve" font-family="Chalkduster,Chalkduster" font-size="26.0" fill="#FEE55E" transform="matrix(1.00, 0.00, -0.00, -1.00, 378.6, 482.5)">a</text><text xml:space="preserve" font-family="Chalkduster,Chalkduster" font-size="26.0" fill="#FEE55E" transform="matrix(1.00, 0.00, -0.00, -1.00, 395.2, 482.5)">g</text><text xml:space="preserve" font-family="Chalkduster,Chalkduster" font-size="26.0" fill="#FEE55E" transform="matrix(1.00, 0.00, -0.00, -1.00, 412.9, 482.5)">u</text><text xml:space="preserve" font-family="Chalkduster,Chalkduster" font-size="26.0" fill="#FEE55E" transform="matrix(1.00, 0.00, -0.00, -1.00, 430.8, 482.5)">e</text><image xlink:href="BB4676E98BE24633C63CD2392C90EAFC.png" width="74.00" height="36.00" transform="matrix(0.70, 0.70, 0.70, -0.70, 159.0, 435.3)"></image><path d="M 197.6 448.5 C 197.2 448.4 196.9 447.8 196.6 447.7 M 197.6 448.5 C 197.8 447.2 196.9 446.3 195.8 444.9 C 194.5 443.5 195.2 445.6 194.7 445.8 C 192.6 444.3 193.2 443.8 194.3 443.2 C 193.0 443.1 192.0 440.1 191.4 441.5 C 194.2 444.4 189.1 439.8 190.9 442.8 C 191.0 443.2 190.0 442.8 189.8 442.5 C 190.1 443.7 188.3 442.9 189.2 444.5 C 188.7 445.3 188.8 444.8 189.1 446.1 C 189.4 446.5 189.4 446.2 189.6 446.0 C 190.5 445.3 190.1 447.4 191.3 447.6 C 190.8 449.2 192.7 448.6 192.6 447.6 C 193.0 448.4 192.7 450.1 194.0 450.0 C 193.9 450.9 195.8 452.1 195.5 450.5 C 195.2 449.4 196.3 449.9 196.6 449.8 C 196.6 449.3 195.3 448.6 195.3 448.3 C 195.8 448.4 197.4 449.3 196.0 448.0 C 196.8 448.1 196.4 447.2 197.6 448.5 C 197.6 448.5 197.6 448.5 197.6 448.5 Z M 193.3 443.1 C 193.6 442.9 193.8 443.6 193.3 443.1 C 193.3 443.1 193.3 443.1 193.3 443.1 Z M 193.0 450.0 C 193.3 449.7 193.4 450.5 193.0 450.0 C 193.0 450.0 193.0 450.0 193.0 450.0 Z M 189.8 446.2 C 190.0 445.9 190.2 446.7 189.8 446.2 C 189.8 446.2 189.8 446.2 189.8 446.2 Z M 194.4 444.6 C 194.9 445.6 193.4 444.3 193.5 444.0 C 193.7 444.1 194.4 444.2 194.4 444.6 C 194.4 444.6 194.4 444.6 194.4 444.6 Z M 193.0 446.2 C 193.1 446.2 193.5 446.5 193.2 446.7 C 192.9 446.6 192.8 446.3 193.0 446.2 C 193.0 446.2 193.0 446.2 193.0 446.2 Z M 190.3 441.4 C 190.5 441.3 190.8 441.6 190.5 441.9 C 190.2 441.7 190.2 441.4 190.3 441.4 C 190.3 441.4 190.3 441.4 190.3 441.4 Z M 194.6 446.1 C 194.7 446.4 194.5 446.7 194.3 446.5 C 194.3 446.3 193.8 445.7 194.6 446.1 C 194.6 446.1 194.6 446.1 194.6 446.1 Z M 196.6 446.4 C 197.1 447.2 195.4 446.3 195.6 446.2 C 195.6 445.8 196.5 445.9 196.6 446.4 C 196.6 446.4 196.6 446.4 196.6 446.4 Z M 194.5 446.9 C 194.9 447.5 194.1 446.8 194.5 446.9 C 194.5 446.9 194.5 446.9 194.5 446.9 Z M 188.8 443.9 C 189.2 444.5 188.4 443.9 188.8 443.9 C 188.8 443.9 188.8 443.9 188.8 443.9 Z M 190.8 447.5 C 191.2 448.1 190.4 447.5 190.8 447.5 C 190.8 447.5 190.8 447.5 190.8 447.5 Z M 192.5 443.7 C 191.6 442.8 193.0 442.9 192.5 443.7 C 192.5 443.7 192.5 443.7 192.5 443.7 Z M 198.2 447.8 C 197.3 446.9 198.7 447.0 198.2 447.8 C 198.2 447.8 198.2 447.8 198.2 447.8 Z M 218.9 469.0 C 219.8 469.7 217.5 465.6 217.7 467.9 C 217.1 469.1 215.0 466.8 216.4 466.6 C 215.8 465.8 215.9 465.8 215.1 465.8 C 215.6 465.1 214.4 463.2 213.5 463.0 C 212.7 463.2 214.5 464.1 213.0 463.8 C 211.0 462.0 212.6 464.5 211.1 464.5 C 211.0 464.4 211.3 464.1 211.0 464.1 C 210.2 464.7 210.9 466.2 209.9 466.3 C 210.3 466.4 210.9 468.6 210.9 467.4 C 211.4 466.6 211.7 469.7 212.6 468.5 C 212.6 469.5 213.7 469.3 213.6 470.3 C 213.8 470.8 214.3 470.2 214.4 470.0 C 214.9 469.5 213.7 471.5 215.2 471.2 C 214.9 471.5 216.6 473.0 215.8 471.4 C 216.1 471.8 217.6 473.8 217.6 472.0 C 216.8 470.3 219.9 472.3 218.5 470.8 C 217.4 469.6 217.0 469.5 218.4 469.9 C 218.6 470.2 219.9 471.4 219.3 469.9 C 218.9 469.7 218.5 469.1 218.9 469.0 C 218.9 469.0 218.9 469.0 218.9 469.0 Z M 217.7 470.6 C 217.0 470.0 218.0 470.2 217.7 470.6 C 217.7 470.6 217.7 470.6 217.7 470.6 Z M 213.3 470.4 C 212.6 469.8 213.6 470.0 213.3 470.4 C 213.3 470.4 213.3 470.4 213.3 470.4 Z M 217.1 466.8 C 216.5 466.7 217.4 465.7 217.1 466.8 C 217.1 466.8 217.1 466.8 217.1 466.8 Z M 215.1 470.7 C 215.1 470.7 215.4 470.7 215.5 470.8 C 215.5 470.8 215.2 470.8 215.1 470.7 C 215.1 470.7 215.1 470.7 215.1 470.7 Z M 216.0 465.7 C 214.6 465.2 216.6 464.7 216.0 465.7 C 216.0 465.7 216.0 465.7 216.0 465.7 Z M 213.1 464.7 C 212.0 465.5 212.3 463.4 213.1 464.7 C 213.1 464.7 213.1 464.7 213.1 464.7 Z M 212.3 468.1 C 212.7 468.1 212.4 468.4 212.3 468.1 C 212.3 468.1 212.3 468.1 212.3 468.1 Z M 216.4 472.5 C 216.8 472.4 216.5 472.8 216.4 472.5 C 216.4 472.5 216.4 472.5 216.4 472.5 Z M 211.2 466.8 C 211.7 466.6 211.4 467.4 211.2 466.8 C 211.2 466.8 211.2 466.8 211.2 466.8 Z M 216.5 467.0 C 218.2 467.1 216.5 469.2 216.5 467.0 C 216.5 467.0 216.5 467.0 216.5 467.0 Z M 218.2 468.5 C 218.9 468.9 217.6 468.9 217.4 468.5 C 217.5 468.4 218.0 468.4 218.2 468.5 C 218.2 468.5 218.2 468.5 218.2 468.5 Z M 215.5 466.1 C 216.5 466.4 215.9 466.9 215.5 466.1 C 215.5 466.1 215.5 466.1 215.5 466.1 Z M 217.5 467.2 C 217.7 467.6 217.1 467.1 217.5 467.2 C 217.5 467.2 217.5 467.2 217.5 467.2 Z M 215.1 464.1 C 215.3 464.5 214.8 464.0 215.1 464.1 C 215.1 464.1 215.1 464.1 215.1 464.1 Z M 219.3 468.8 C 219.5 469.2 219.0 468.7 219.3 468.8 C 219.3 468.8 219.3 468.8 219.3 468.8 Z M 214.9 464.9 C 214.4 465.2 214.5 466.8 213.6 464.6 C 213.6 464.1 214.7 464.2 214.9 464.9 C 214.9 464.9 214.9 464.9 214.9 464.9 Z M 198.8 449.9 C 197.8 446.7 196.4 449.1 196.0 449.3 C 195.2 449.6 195.1 450.2 195.2 450.9 C 194.4 452.6 197.1 450.4 196.2 451.9 C 195.2 454.1 198.2 451.1 196.8 453.1 C 196.3 453.4 197.4 453.9 197.5 453.7 C 197.1 454.9 199.1 454.0 199.2 453.9 C 199.3 454.4 197.8 455.9 199.8 455.6 C 200.8 455.9 199.6 457.7 200.5 456.5 C 199.8 458.1 201.1 456.5 201.2 457.3 C 200.9 458.3 202.2 456.4 201.6 458.2 C 202.8 457.5 200.7 458.6 203.0 459.5 C 202.3 458.6 204.5 459.4 203.6 459.8 C 202.3 459.9 204.6 460.3 204.9 461.4 C 205.5 461.3 207.2 461.3 206.1 462.1 C 205.7 464.0 207.6 462.2 207.0 463.4 C 206.8 464.1 207.8 463.3 207.9 463.6 C 207.4 464.5 208.1 464.3 208.9 465.4 C 210.6 467.9 211.0 464.0 212.0 464.5 C 212.4 464.3 213.6 460.9 212.3 463.1 C 212.6 462.5 209.2 462.5 211.9 461.5 C 210.5 461.6 212.8 460.9 210.6 460.5 C 211.1 463.6 208.1 459.0 210.4 460.1 C 210.5 459.4 209.7 458.8 209.9 459.6 C 208.9 461.0 209.3 457.8 208.5 460.0 C 207.8 458.5 206.8 460.1 207.4 458.9 C 208.7 457.0 207.1 459.3 207.0 458.3 C 205.7 457.0 208.5 456.2 206.5 456.6 C 206.1 454.6 205.6 457.1 204.9 456.8 C 203.7 457.8 204.5 454.7 205.6 455.5 C 204.5 455.6 206.0 454.9 204.8 455.0 C 204.2 456.4 205.1 453.2 204.4 454.2 C 203.7 453.9 203.3 454.8 203.2 454.7 C 202.4 453.9 203.6 453.2 202.7 453.7 C 202.1 454.0 203.1 452.3 202.7 452.5 C 203.4 453.4 200.9 452.9 201.4 452.3 C 202.0 452.7 202.5 450.8 201.4 451.2 C 199.6 453.8 201.3 450.0 200.1 450.4 C 199.3 452.0 198.3 448.8 199.6 449.0 C 199.5 449.1 198.8 449.9 198.8 449.9 M 202.2 452.5 C 202.8 453.2 201.3 452.0 202.2 452.5 M 202.6 452.1 C 202.4 452.8 202.2 451.2 202.7 452.0 C 202.7 452.0 202.5 452.1 202.6 452.1 M 205.3 454.8 C 204.8 455.0 205.1 454.2 205.3 454.8 M 205.0 456.0 C 205.1 456.8 204.4 455.5 205.0 456.0 M 211.2 461.7 C 208.8 462.9 211.6 460.1 211.2 461.7 M 207.6 457.4 C 206.7 456.9 208.6 456.9 207.6 457.4 M 207.0 457.7 C 206.3 457.6 207.3 457.2 207.0 457.7 M 210.0 460.6 C 210.1 460.7 210.1 460.7 210.0 460.6 C 210.0 460.6 210.0 460.6 210.0 460.6 Z M 211.8 462.4 C 211.8 462.4 211.8 462.4 211.8 462.4 C 211.8 462.4 211.8 462.4 211.8 462.4 Z M 208.2 459.1 C 208.0 458.1 209.2 459.8 208.2 459.1 C 208.2 459.1 208.2 459.1 208.2 459.1 Z M 208.2 464.3 C 208.1 464.3 208.1 464.3 208.2 464.3 C 208.2 464.3 208.2 464.3 208.2 464.3 Z M 200.9 452.8 C 200.9 452.8 200.9 452.8 200.9 452.8 C 200.9 452.8 200.9 452.8 200.9 452.8 Z M 199.6 450.1 C 199.4 450.4 199.4 449.6 199.6 450.1 C 199.6 450.1 199.6 450.1 199.6 450.1 Z M 195.9 450.6 C 195.9 450.6 195.9 450.6 195.9 450.6 C 195.9 450.6 195.9 450.6 195.9 450.6 Z M 199.3 453.1 C 199.2 453.1 199.2 453.1 199.3 453.1 C 199.3 453.1 199.3 453.1 199.3 453.1 Z M 200.9 452.0 C 201.6 450.7 201.4 453.0 200.9 452.0 C 200.9 452.0 200.9 452.0 200.9 452.0 Z M 205.0 460.9 C 205.4 460.5 205.3 461.5 205.0 460.9 C 205.0 460.9 205.0 460.9 205.0 460.9 Z M 204.7 456.5 C 205.0 456.4 204.9 456.9 204.7 456.5 C 204.7 456.5 204.7 456.5 204.7 456.5 Z M 205.0 454.1 C 205.3 453.9 205.1 454.5 205.0 454.1 C 205.0 454.1 205.0 454.1 205.0 454.1 Z M 199.9 449.9 C 200.0 449.9 200.0 449.9 199.9 449.9 C 199.9 449.9 199.9 449.9 199.9 449.9 Z M 199.9 451.3 C 200.3 449.9 200.1 452.6 199.9 451.3 C 199.9 451.3 199.9 451.3 199.9 451.3 Z M 198.8 450.8 C 198.7 451.4 198.3 450.0 198.8 450.8 M 197.8 452.7 C 198.8 452.9 195.6 453.8 197.8 452.7 C 197.8 452.7 197.8 452.7 197.8 452.7 Z M 200.5 456.1 C 200.5 456.2 200.5 456.2 200.5 456.1 C 200.5 456.1 200.5 456.1 200.5 456.1 Z M 202.9 453.1 C 203.4 453.6 202.3 453.0 202.9 453.1 C 202.9 453.1 202.9 453.1 202.9 453.1 Z M 198.5 448.2 C 199.0 448.8 197.9 448.1 198.5 448.2 C 198.5 448.2 198.5 448.2 198.5 448.2 Z M 203.2 457.0 C 204.2 457.7 202.2 457.0 203.2 457.0 C 203.2 457.0 203.2 457.0 203.2 457.0 Z M 207.5 459.1 C 207.5 459.2 207.5 459.2 207.5 459.1 C 207.5 459.1 207.5 459.1 207.5 459.1 Z M 208.5 459.3 C 208.5 459.4 208.5 459.4 208.5 459.3 C 208.5 459.3 208.5 459.3 208.5 459.3 Z M 210.0 462.8 C 210.0 462.9 210.0 462.9 210.0 462.8 C 210.0 462.8 210.0 462.8 210.0 462.8 Z M 209.5 459.4 C 209.5 459.5 209.5 459.5 209.5 459.4 C 209.5 459.4 209.5 459.4 209.5 459.4 Z M 210.9 461.4 C 210.9 461.5 210.9 461.5 210.9 461.4 C 210.9 461.4 210.9 461.4 210.9 461.4 Z M 211.5 460.3 C 211.5 460.4 211.5 460.4 211.5 460.3 C 211.5 460.3 211.5 460.3 211.5 460.3 Z M 203.6 460.6 C 203.6 460.7 203.6 460.7 203.6 460.6 C 203.6 460.6 203.6 460.6 203.6 460.6 Z M 201.2 450.5 C 201.1 450.6 201.1 450.6 201.2 450.5 C 201.2 450.5 201.2 450.5 201.2 450.5 Z M 210.4 461.6 C 210.4 461.7 210.4 461.7 210.4 461.6 C 210.4 461.6 210.4 461.6 210.4 461.6 Z M 205.5 458.2 C 204.7 459.0 206.2 456.7 205.6 458.2 C 205.6 458.2 205.6 458.0 205.5 458.2 M 204.7 460.0 C 204.7 460.0 204.7 460.0 204.7 460.0 C 204.7 460.0 204.7 460.0 204.7 460.0 Z M 202.3 458.6 C 202.3 458.6 202.3 458.6 202.3 458.6 C 202.3 458.6 202.3 458.6 202.3 458.6 Z M 209.3 459.0 C 209.7 458.4 209.4 459.8 209.2 458.9 M 208.6 464.2 C 209.0 463.7 208.7 465.0 208.5 464.1 M 197.6 447.9 C 197.2 448.2 197.4 447.4 197.6 447.9 M 201.5 458.6 C 201.1 458.9 201.3 458.1 201.5 458.6 M 203.4 458.5 C 203.8 458.0 203.5 459.3 203.3 458.5 M 207.3 462.9 C 207.4 462.9 207.4 462.9 207.3 462.9 C 207.3 462.9 207.3 462.9 207.3 462.9 Z M 203.6 454.0 C 203.7 454.0 203.7 454.0 203.6 454.0 C 203.6 454.0 203.6 454.0 203.6 454.0 Z M 205.0 457.2 C 205.3 456.3 205.0 458.1 205.0 457.2 M 201.9 454.4 C 202.2 453.1 202.4 455.3 201.9 454.4 M 209.4 465.4 C 209.8 463.9 209.3 466.2 209.4 465.4 M 209.2 460.5 C 209.6 459.1 209.0 461.4 209.2 460.5 M 203.7 454.8 C 204.2 454.3 204.0 455.6 203.7 454.8 M 198.9 449.1 C 198.5 448.5 199.9 449.3 198.9 449.1 M 206.0 461.6 C 206.0 461.7 206.0 461.7 206.0 461.6 C 206.0 461.6 206.0 461.6 206.0 461.6 Z M 197.0 454.2 C 197.0 454.2 197.0 454.2 197.0 454.2 C 197.0 454.2 197.0 454.2 197.0 454.2 Z M 213.1 463.0 C 213.1 463.1 213.1 463.1 213.1 463.0 C 213.1 463.0 213.1 463.0 213.1 463.0 Z M 208.4 460.6 C 208.4 460.7 208.4 460.7 208.4 460.6 C 208.4 460.6 208.4 460.6 208.4 460.6 Z M 212.2 461.9 C 212.2 462.0 212.2 462.0 212.2 461.9 C 212.2 461.9 212.2 461.9 212.2 461.9 Z M 206.1 459.7 C 206.1 459.8 206.1 459.8 206.1 459.7 C 206.1 459.7 206.1 459.7 206.1 459.7 Z M 208.1 457.1 C 208.1 457.1 208.1 457.1 208.1 457.1 C 208.1 457.1 208.1 457.1 208.1 457.1 Z M 205.4 456.3 C 205.3 456.3 205.3 456.3 205.4 456.3 C 205.4 456.3 205.4 456.3 205.4 456.3 Z M 208.7 458.1 C 209.9 459.0 207.4 458.3 208.7 458.1 C 208.7 458.1 208.7 458.1 208.7 458.1 Z M 204.6 458.6 C 204.6 458.6 204.6 458.6 204.6 458.6 C 204.6 458.6 204.6 458.6 204.6 458.6 Z M 206.1 456.8 C 207.4 456.8 205.3 458.3 206.1 456.8 M 203.7 453.3 C 204.3 453.1 203.3 453.9 203.7 453.3 M 199.5 455.2 C 199.4 455.2 199.4 455.2 199.5 455.2 C 199.5 455.2 199.5 455.2 199.5 455.2 Z M 200.0 455.3 C 200.0 455.3 200.0 455.3 200.0 455.3 C 200.0 455.3 200.0 455.3 200.0 455.3 Z M 203.1 452.4 C 203.1 452.5 203.1 452.5 203.1 452.4 C 203.1 452.4 203.1 452.4 203.1 452.4 Z M 199.2 456.2 C 199.2 456.2 199.2 456.2 199.2 456.2 C 199.2 456.2 199.2 456.2 199.2 456.2 Z M 207.6 456.7 C 207.6 456.8 207.6 456.8 207.6 456.7 C 207.6 456.7 207.6 456.7 207.6 456.7 Z M 213.1 462.1 C 213.1 462.1 213.1 462.1 213.1 462.1 C 213.1 462.1 213.1 462.1 213.1 462.1 Z M 196.6 451.7 C 196.6 451.7 196.6 451.7 196.6 451.7 C 196.6 451.7 196.6 451.7 196.6 451.7 Z M 207.3 458.2 C 207.3 458.3 207.3 458.3 207.3 458.2 C 207.3 458.2 207.3 458.2 207.3 458.2 Z M 198.8 454.3 C 198.8 454.3 198.8 454.3 198.8 454.3 C 198.8 454.3 198.8 454.3 198.8 454.3 Z M 207.1 457.7 C 207.1 457.7 207.1 457.7 207.1 457.7 C 207.1 457.7 207.1 457.7 207.1 457.7 Z M 205.7 461.7 C 205.7 461.7 205.7 461.7 205.7 461.7 C 205.7 461.7 205.7 461.7 205.7 461.7 Z M 206.3 463.3 C 206.3 463.4 206.3 463.4 206.3 463.3 C 206.3 463.3 206.3 463.3 206.3 463.3 Z M 207.2 459.9 C 207.2 460.0 207.2 460.0 207.2 459.9 C 207.2 459.9 207.2 459.9 207.2 459.9 Z M 199.5 452.9 C 198.1 450.0 201.5 454.2 199.5 452.9 M 207.4 460.5 C 206.1 458.8 209.5 460.8 207.4 460.5 C 207.8 460.4 207.4 460.5 207.4 460.5 " fill="#FEE55E"></path><path d="M 199.4 433.8 C 199.9 433.5 201.4 434.2 199.9 434.2 C 199.8 434.2 199.3 433.9 199.4 433.8 Z M 196.7 433.1 C 197.0 433.1 197.1 433.2 197.2 433.3 C 197.4 433.9 196.0 432.9 196.7 433.1 Z M 200.6 434.6 C 200.6 434.6 201.5 434.8 201.3 434.9 C 201.1 435.0 200.5 434.6 200.6 434.6 Z M 194.0 433.5 C 194.1 433.3 195.0 433.5 195.2 433.7 C 195.5 434.1 193.9 434.0 194.0 433.5 Z M 195.8 441.0 C 195.8 441.1 195.7 441.1 195.7 441.2 C 195.7 441.1 195.8 441.0 195.8 441.0 Z M 181.6 429.7 C 181.8 429.7 182.1 430.0 181.9 430.2 C 181.8 430.4 181.1 429.7 181.6 429.7 Z M 185.0 452.5 C 185.0 452.5 185.4 452.4 185.3 452.6 C 185.3 452.8 185.0 452.7 185.0 452.5 Z M 185.2 452.7 C 185.4 452.8 185.2 453.1 185.1 452.9 C 185.0 452.7 185.0 452.6 185.2 452.7 Z M 178.5 441.3 C 178.5 441.2 178.4 441.1 178.5 441.2 C 178.7 441.2 178.6 441.5 178.5 441.3 Z M 178.9 441.6 C 179.2 441.7 178.9 442.0 178.8 441.8 C 178.7 441.6 178.7 441.5 178.9 441.6 Z M 178.4 444.6 C 178.3 444.5 178.3 444.4 178.4 444.5 C 178.5 444.5 178.5 444.8 178.4 444.6 Z M 190.0 448.4 C 190.0 448.5 189.6 448.8 189.5 448.6 C 189.3 448.4 190.1 448.1 190.0 448.4 Z M 189.7 448.9 C 189.8 449.0 189.6 449.3 189.6 449.1 C 189.5 448.9 189.5 448.8 189.7 448.9 Z M 190.8 447.2 C 190.6 447.0 191.0 446.6 191.1 446.6 C 191.3 446.5 191.5 446.4 191.7 446.4 C 191.8 446.3 191.1 447.5 190.8 447.2 Z M 193.6 444.1 C 193.7 444.1 193.7 444.2 193.5 444.3 C 193.3 444.3 193.6 444.0 193.6 444.1 Z M 192.1 445.9 C 192.1 445.9 192.1 446.0 191.9 446.1 C 191.7 446.1 192.0 445.8 192.1 445.9 Z M 189.1 431.6 C 189.1 431.5 189.7 431.8 189.8 431.8 C 189.8 431.9 189.5 431.8 189.7 431.9 C 189.8 432.0 189.3 432.4 189.1 431.6 Z M 195.2 432.7 C 195.4 432.8 195.4 432.9 195.3 433.0 C 195.3 433.1 194.8 432.7 195.2 432.7 Z M 189.8 432.7 C 189.8 432.6 190.0 432.7 190.0 432.7 C 189.9 432.8 189.8 432.8 189.8 432.7 Z M 189.3 432.7 C 189.5 432.7 189.7 433.0 189.6 433.2 C 189.4 433.4 188.7 432.6 189.3 432.7 Z M 188.3 431.2 C 188.6 431.2 188.6 431.2 188.4 431.3 C 188.3 431.3 188.3 431.2 188.3 431.2 Z M 191.9 431.7 C 192.1 431.8 192.1 431.8 192.0 431.8 C 191.8 431.9 191.9 431.7 191.9 431.7 Z M 186.6 431.2 C 186.6 431.2 187.1 431.0 187.1 431.5 C 187.2 432.0 186.6 431.2 186.6 431.2 Z M 184.1 431.1 C 184.2 431.2 184.1 431.3 184.0 431.2 C 183.8 431.1 183.9 431.0 184.1 431.1 Z M 183.0 431.7 C 182.7 431.5 182.6 431.3 183.0 431.4 C 183.4 431.6 183.2 431.9 183.0 431.7 Z M 183.5 431.6 C 183.4 431.7 183.3 431.6 183.3 431.6 C 183.3 431.5 183.5 431.5 183.5 431.6 Z M 185.7 431.5 C 185.9 431.5 186.1 431.8 185.8 431.8 C 185.4 431.8 185.4 431.6 185.7 431.5 Z M 198.1 440.2 C 198.2 440.1 198.3 440.3 198.3 440.4 C 198.3 440.6 198.1 440.4 198.1 440.2 Z M 191.0 446.0 C 191.2 446.0 191.1 446.1 190.9 446.2 C 190.7 446.3 190.8 446.0 191.0 446.0 Z M 186.6 449.7 C 186.8 449.8 186.7 449.8 186.5 450.0 C 186.3 450.1 186.4 449.7 186.6 449.7 Z M 192.7 444.3 C 192.8 444.4 192.7 445.1 192.1 445.1 C 191.6 445.0 192.3 444.2 192.7 444.3 Z M 193.4 437.1 C 193.5 436.9 193.5 437.1 193.5 437.1 C 193.4 437.2 193.4 437.2 193.4 437.1 Z M 191.3 444.8 C 191.3 444.7 191.5 444.8 191.5 445.0 C 191.4 445.1 191.2 445.0 191.3 444.8 Z M 187.6 449.3 C 187.8 449.2 188.0 449.5 188.0 449.7 C 187.9 450.3 187.3 450.2 186.9 450.3 C 186.6 450.3 187.4 449.3 187.6 449.3 Z M 198.5 438.6 C 198.4 438.7 198.2 438.7 198.1 438.8 C 198.2 438.9 198.1 439.0 198.0 439.0 C 197.6 439.4 197.7 440.1 197.6 440.4 C 197.2 441.2 196.2 440.7 195.8 441.0 C 195.9 440.9 196.0 440.8 196.0 440.7 C 195.9 440.3 194.6 441.8 194.5 441.9 C 193.5 443.3 195.1 442.1 195.5 442.5 C 195.7 442.7 194.4 443.0 194.4 443.1 C 193.8 443.3 194.2 443.7 193.7 443.9 C 193.4 444.0 192.0 443.5 192.0 443.8 C 192.0 444.0 191.5 444.3 191.4 444.4 C 191.2 444.6 190.8 445.1 191.4 445.2 C 191.8 445.3 192.1 445.5 191.5 445.5 C 191.2 445.6 189.1 446.5 189.9 447.1 C 189.9 447.1 190.5 447.0 190.5 447.0 C 190.2 447.6 188.8 448.5 188.8 449.1 C 188.8 450.4 188.6 448.5 188.1 448.7 C 187.2 448.9 186.7 449.0 186.2 449.8 C 186.0 450.0 185.4 450.7 186.1 450.7 C 186.5 450.8 186.5 451.1 187.0 450.8 C 186.9 451.6 186.0 451.2 186.0 451.4 C 186.1 451.8 186.4 451.6 186.1 451.9 C 185.6 452.3 185.9 452.2 185.5 451.9 C 185.3 451.8 184.9 452.1 184.9 452.1 C 184.9 452.1 184.8 452.1 184.8 452.0 C 184.5 452.4 184.7 453.6 184.4 453.5 C 184.2 453.5 184.0 452.8 183.8 452.7 C 183.8 452.7 183.7 452.7 183.7 452.7 C 183.6 452.9 183.5 453.5 183.4 453.5 C 183.3 453.5 183.0 452.7 183.0 453.0 C 183.0 453.3 182.1 453.8 181.8 453.7 C 181.6 453.6 180.6 452.9 180.4 453.0 C 180.2 453.1 180.1 452.4 180.0 452.3 C 180.0 452.1 180.2 451.7 180.2 451.6 C 180.3 451.5 180.1 451.0 180.1 451.0 C 180.1 451.0 179.9 450.9 179.8 450.5 C 179.7 450.1 179.9 449.8 179.9 449.3 C 179.9 448.8 179.5 448.6 179.4 448.2 C 179.2 447.8 179.8 447.2 179.8 446.8 C 179.8 446.4 179.2 446.5 179.1 446.1 C 178.9 445.6 179.0 445.3 179.1 445.4 C 179.2 445.5 179.3 445.4 179.3 445.2 C 179.3 445.1 179.3 444.5 179.2 444.3 C 179.0 444.1 178.9 445.7 178.5 443.8 C 178.3 442.9 178.7 442.2 178.8 442.4 C 179.0 443.0 179.5 441.4 179.3 441.5 C 179.0 441.5 178.6 440.0 178.2 440.5 C 178.1 440.6 177.6 439.1 177.6 438.9 C 177.6 438.6 177.3 438.0 177.8 437.6 C 178.0 437.5 177.1 436.8 177.0 436.6 C 177.0 436.4 176.8 435.1 176.8 434.8 C 176.9 434.6 177.1 435.1 177.1 435.4 C 177.2 435.7 177.0 436.1 177.2 436.3 C 177.3 436.5 177.4 436.0 177.3 435.7 C 177.3 435.4 177.5 435.2 177.5 435.0 C 177.4 434.9 177.4 434.7 177.4 434.4 C 177.3 434.3 177.3 434.2 177.2 434.2 C 177.0 434.3 177.0 434.5 176.9 434.4 C 176.8 434.4 176.6 434.2 176.5 433.9 C 176.4 433.5 176.4 433.2 176.4 432.6 C 176.5 432.1 176.3 432.0 176.1 431.7 C 176.0 431.4 176.0 431.0 176.1 431.0 C 176.2 430.9 176.4 431.4 176.5 431.4 C 176.6 431.4 176.7 430.8 176.7 430.7 C 176.6 429.7 177.6 430.2 177.4 429.3 C 177.4 428.8 177.8 429.3 178.2 429.5 C 178.2 429.4 178.2 429.3 178.7 429.3 C 178.7 429.2 179.3 429.5 179.6 429.5 C 179.8 429.6 181.0 429.6 180.2 429.8 C 180.1 429.8 180.1 429.8 180.0 429.8 C 180.0 429.8 180.0 429.8 180.0 429.8 C 180.0 429.8 179.6 430.2 179.6 430.2 C 179.6 430.2 180.0 429.8 180.0 429.8 C 180.1 430.1 180.2 430.2 180.3 430.4 C 180.3 430.4 180.4 430.3 180.5 430.3 C 180.5 430.3 180.5 430.3 180.5 430.3 C 180.5 430.3 180.5 430.3 180.5 430.2 C 180.6 430.1 180.6 430.1 180.7 430.2 C 181.2 430.1 182.1 430.6 182.5 430.9 C 181.1 431.6 183.0 432.0 183.6 432.0 C 184.3 432.1 184.5 430.8 184.2 430.8 C 184.7 430.9 184.7 431.1 184.8 431.5 C 184.8 431.4 185.1 432.3 185.0 432.2 C 185.9 432.9 186.0 431.8 186.3 431.8 C 186.6 431.7 186.9 431.8 187.2 431.8 C 187.6 431.8 187.3 431.5 187.5 431.4 C 188.0 431.0 188.5 432.1 188.7 432.3 C 188.5 432.3 188.1 432.3 187.9 432.4 C 188.3 432.2 188.3 432.9 188.5 433.0 C 188.8 433.2 189.2 433.2 189.5 433.3 C 190.1 433.4 190.7 433.4 191.3 433.5 C 191.2 433.3 190.5 432.4 190.4 432.4 C 190.6 432.5 191.1 432.8 191.0 432.3 C 190.8 431.4 192.2 432.2 192.4 432.3 C 193.2 432.5 194.2 432.0 194.7 433.0 C 194.7 433.0 193.5 432.9 193.5 433.1 C 193.6 433.8 193.8 434.2 194.7 434.2 C 194.8 434.3 196.0 434.0 196.1 434.0 C 196.0 434.1 195.3 432.2 196.1 433.0 C 196.3 433.1 195.8 433.3 196.1 433.5 C 196.4 433.7 196.9 433.7 197.2 433.9 C 197.3 433.9 197.8 434.2 197.9 434.2 C 198.1 434.1 198.2 433.7 198.4 433.7 C 198.7 433.6 198.9 433.9 198.8 434.1 C 198.8 434.1 198.8 434.2 198.8 434.2 C 198.9 434.2 198.9 434.3 198.9 434.4 C 199.0 434.4 199.1 434.4 199.2 434.6 C 199.3 434.7 199.0 434.7 198.8 434.5 C 198.8 434.6 198.8 434.7 198.7 434.8 C 199.0 434.8 199.4 434.8 199.4 434.8 C 200.0 434.6 200.1 434.4 200.7 435.2 C 201.1 435.8 200.2 437.5 199.2 438.1 C 199.1 438.3 198.9 438.5 198.5 438.6 Z M 177.6 433.7 C 177.6 433.7 177.6 433.8 177.6 433.8 C 177.7 433.8 177.8 433.7 177.9 433.7 C 177.9 433.4 177.7 433.8 177.7 433.5 C 177.7 433.2 177.6 433.3 177.6 433.7 Z M 179.5 432.0 C 179.4 431.8 179.4 431.9 179.3 432.0 C 179.4 432.1 179.5 432.0 179.5 432.0 Z M 179.9 430.9 C 179.5 430.9 180.0 431.5 180.6 431.5 C 180.3 431.1 180.1 430.9 179.9 430.9 Z M 180.9 430.6 C 180.9 430.6 180.9 430.7 180.8 430.7 C 180.7 430.9 181.2 430.8 181.1 430.9 C 181.0 431.0 180.6 431.1 180.8 431.3 C 180.9 431.3 180.9 431.4 181.0 431.4 C 181.1 431.4 181.1 431.4 181.1 431.3 C 181.3 431.2 181.2 430.7 180.9 430.6 Z M 178.8 435.2 C 178.7 435.0 178.7 435.1 178.8 435.3 C 178.8 435.4 179.0 435.3 178.8 435.2 Z M 178.3 437.5 C 178.4 437.3 178.3 437.1 178.2 437.4 C 178.1 437.6 178.3 437.8 178.3 437.5 Z M 182.4 437.4 C 182.3 437.4 182.4 437.4 182.4 437.5 C 182.5 437.7 182.6 437.5 182.4 437.4 Z M 184.0 436.0 C 184.2 436.0 184.2 435.7 184.1 435.8 C 184.0 435.8 183.9 436.0 184.0 436.0 Z M 180.4 439.3 C 180.5 439.4 180.6 439.3 180.5 439.2 C 180.4 439.1 180.3 439.1 180.4 439.3 Z M 182.1 436.9 C 182.1 437.2 182.2 437.2 182.3 437.2 C 182.4 437.2 182.5 437.0 182.4 436.8 C 182.3 436.6 182.2 436.6 182.1 436.9 Z M 183.3 435.5 C 183.9 435.7 184.0 435.4 183.2 435.4 C 182.5 435.3 182.9 435.4 183.3 435.5 Z M 178.1 439.4 C 178.1 439.3 177.9 439.0 177.9 439.0 C 177.9 439.0 178.0 439.8 178.1 439.4 Z M 186.8 432.2 C 186.6 432.1 186.4 432.3 186.8 432.4 C 187.1 432.6 187.0 432.3 186.8 432.2 Z M 187.0 433.6 C 186.9 433.1 186.6 432.9 186.6 432.8 C 186.6 432.9 186.4 433.2 186.2 433.3 C 185.8 433.3 185.4 432.8 185.0 432.9 C 184.5 433.1 185.3 433.4 185.5 433.4 C 185.4 433.4 185.3 433.5 185.2 433.6 C 185.3 433.8 185.4 433.8 185.5 433.8 C 185.8 433.7 187.1 434.2 187.0 433.6 Z M 183.4 437.2 C 183.3 436.9 183.0 436.9 183.0 437.2 C 182.9 437.4 183.0 437.7 183.1 437.7 C 183.2 437.7 183.4 437.4 183.4 437.2 Z M 182.3 438.4 C 182.1 438.3 182.1 438.4 182.2 438.6 C 182.4 438.9 182.6 438.5 182.3 438.4 Z M 179.6 445.3 C 179.8 445.4 179.7 445.0 179.6 445.1 C 179.5 445.1 179.5 445.2 179.6 445.3 Z M 181.5 443.3 C 181.7 443.7 181.8 443.2 181.7 443.1 C 181.6 443.1 181.3 443.1 181.5 443.3 Z M 181.5 441.1 C 181.6 441.3 181.6 441.0 181.5 440.9 C 181.4 440.9 181.4 441.0 181.5 441.1 Z M 182.1 440.3 C 182.1 440.4 182.3 440.2 182.1 440.0 C 182.1 440.0 182.0 440.1 182.1 440.3 Z M 188.8 434.7 C 188.8 434.7 188.6 435.1 188.9 435.0 C 189.3 434.9 189.3 434.9 188.8 434.7 Z M 186.1 436.4 C 185.7 436.3 185.4 436.4 185.0 437.2 C 184.6 438.0 185.0 437.9 185.4 437.6 C 185.9 437.3 185.2 438.6 186.0 438.0 C 186.4 437.8 186.4 436.4 186.1 436.4 Z M 183.3 441.3 C 183.4 440.7 182.8 440.3 182.8 440.8 C 182.9 441.4 183.1 441.8 183.3 441.3 Z M 183.0 441.6 C 182.9 441.5 182.9 441.6 183.0 441.8 C 183.0 441.9 183.1 441.7 183.0 441.6 Z M 191.7 432.3 C 190.6 432.3 191.5 433.2 191.5 433.2 C 192.6 433.8 192.8 432.4 191.7 432.3 Z M 184.8 451.4 C 184.9 451.4 184.9 451.3 184.9 451.3 C 184.9 451.3 184.9 451.3 185.0 451.3 C 185.0 451.1 184.6 451.2 184.6 451.2 C 184.6 451.3 184.7 451.4 184.8 451.4 Z M 188.9 447.7 C 188.7 447.8 188.6 447.9 188.6 448.2 C 189.0 448.4 190.2 447.3 189.2 447.1 C 189.0 447.1 187.7 447.3 188.0 447.7 C 188.1 447.9 189.3 447.3 188.9 447.7 Z M 187.2 448.4 C 187.7 448.0 186.3 448.3 186.7 448.5 C 186.9 448.5 187.0 448.5 187.2 448.4 Z M 182.7 450.8 C 182.3 451.6 183.3 452.4 183.8 451.0 C 184.3 449.5 184.0 449.1 183.6 449.7 C 183.3 450.3 183.2 449.5 182.7 450.8 Z M 187.7 445.7 C 188.3 446.5 188.4 446.0 188.1 445.4 C 188.0 445.2 187.4 445.2 187.7 445.7 Z M 189.0 444.2 C 189.3 444.1 189.3 444.1 189.1 444.1 C 188.8 444.1 188.8 444.3 189.0 444.2 Z M 180.7 450.8 C 180.6 451.2 180.7 451.6 180.5 451.5 C 180.4 451.3 180.4 451.4 180.4 451.7 C 180.4 452.0 180.7 451.7 180.8 451.5 C 180.9 451.3 180.9 450.5 180.7 450.8 Z M 183.9 443.2 C 184.0 443.3 184.1 443.1 183.9 443.0 C 183.9 442.9 183.8 443.0 183.9 443.2 Z M 188.5 437.1 C 188.5 437.1 188.4 437.3 188.6 437.3 C 188.9 437.2 188.9 437.2 188.5 437.1 Z M 193.1 433.1 C 192.9 433.1 193.1 433.4 192.8 433.6 C 192.8 433.6 192.8 433.4 192.8 433.3 C 192.7 433.4 192.3 434.0 192.8 433.9 C 193.1 433.8 193.6 433.1 193.1 433.1 Z M 185.6 441.9 C 185.6 441.4 184.5 442.2 184.5 441.9 C 184.5 441.5 184.3 441.6 184.4 442.0 C 184.4 442.4 185.5 442.3 185.6 441.9 Z M 183.4 444.3 C 183.5 444.1 183.5 443.3 183.4 443.6 C 183.2 444.0 183.3 444.4 183.2 444.3 C 183.0 444.1 183.0 444.2 183.0 444.5 C 183.0 444.8 183.3 444.5 183.4 444.3 Z M 179.8 448.3 C 179.8 448.1 179.7 447.7 179.6 448.0 C 179.6 448.2 179.7 448.4 179.8 448.3 Z M 190.6 437.9 C 190.4 438.0 190.3 438.1 190.7 438.1 C 191.0 438.1 190.8 437.8 190.6 437.9 Z M 180.8 448.6 C 180.8 448.1 180.6 448.6 180.5 448.3 C 180.5 448.0 180.4 448.1 180.4 448.5 C 180.4 448.8 180.7 449.0 180.8 448.6 Z M 194.6 435.1 C 194.5 435.1 194.5 435.3 194.6 435.3 C 194.8 435.3 194.8 435.0 194.6 435.1 Z M 193.8 437.0 C 193.7 437.0 193.6 436.9 193.5 436.9 C 192.0 436.6 194.1 437.8 193.8 437.0 Z M 191.4 439.1 C 191.7 438.7 191.2 438.9 191.2 438.9 C 191.2 439.1 191.3 439.1 191.4 439.1 Z M 189.1 441.5 C 189.1 441.7 189.3 441.4 189.2 441.3 C 189.0 441.2 189.0 441.4 189.1 441.5 Z M 197.2 434.2 C 197.1 434.1 197.0 434.2 197.1 434.3 C 197.2 434.3 197.4 434.2 197.2 434.2 Z M 191.4 440.2 C 191.3 440.2 191.3 440.1 191.2 440.3 C 191.1 440.4 191.4 440.3 191.4 440.2 Z M 184.1 447.6 C 184.1 447.5 184.1 447.3 184.1 447.2 C 183.9 447.2 183.4 447.6 183.2 447.4 C 183.2 447.4 183.2 447.4 183.2 447.4 C 183.2 447.4 183.2 447.4 183.2 447.4 C 183.1 447.3 183.1 447.1 183.2 447.2 C 183.2 447.1 183.3 447.0 183.4 446.9 C 183.1 446.9 182.8 447.0 182.8 447.2 C 182.8 447.4 183.1 447.8 183.4 448.1 C 183.5 448.0 183.6 448.0 183.8 447.9 C 183.7 447.9 183.7 447.9 183.7 447.8 C 183.6 447.6 183.7 447.4 183.8 447.5 C 183.9 447.6 183.9 447.7 183.9 447.8 C 184.0 447.7 184.0 447.7 184.1 447.6 Z M 190.8 441.5 C 190.9 441.2 190.7 441.3 190.4 441.5 C 190.1 441.6 190.7 441.8 190.8 441.5 Z M 197.2 434.7 C 197.1 434.8 197.1 434.9 197.1 435.0 C 197.2 434.9 197.2 434.9 197.3 434.9 C 197.4 434.8 197.6 434.7 197.7 434.6 C 197.6 434.4 197.4 434.4 197.2 434.7 Z M 195.8 437.5 C 195.8 437.4 196.7 436.5 196.4 436.5 C 195.9 436.4 195.9 435.7 195.4 436.5 C 195.2 436.9 195.4 437.6 195.1 437.9 C 194.0 439.9 196.0 438.0 196.5 437.6 C 196.5 437.6 195.7 437.6 195.8 437.5 Z M 194.2 440.0 C 194.3 440.2 194.7 440.1 194.8 440.0 C 195.1 439.6 194.2 439.7 194.2 440.0 Z M 198.8 435.9 C 198.8 435.8 198.8 435.8 198.7 435.8 C 198.7 435.8 198.7 435.9 198.7 435.9 C 198.8 435.9 198.8 435.9 198.8 435.9 Z M 200.0 435.0 C 199.2 434.9 200.0 435.7 200.3 435.8 C 200.8 436.0 200.5 435.0 200.0 435.0 Z M 196.1 439.5 C 195.8 439.8 196.3 441.1 196.8 440.5 C 197.3 439.9 196.9 438.9 196.1 439.5 Z M 194.0 443.9 C 194.0 443.7 194.6 443.5 194.5 443.8 C 194.5 444.0 194.0 444.0 194.0 443.9 Z M 199.3 439.6 C 199.2 439.6 199.3 439.5 199.3 439.5 C 199.5 439.5 199.5 439.5 199.3 439.6 Z M 198.2 439.4 C 198.4 439.3 198.7 439.2 198.8 439.1 C 199.0 439.0 198.7 439.4 198.7 439.4 C 198.6 439.5 198.3 439.4 198.2 439.4 Z M 195.6 441.9 C 195.8 441.8 195.6 442.1 195.5 442.1 C 195.4 442.2 195.4 441.9 195.6 441.9 Z M 196.4 441.5 C 196.3 441.5 196.3 441.4 196.4 441.3 C 196.6 441.1 196.5 441.4 196.4 441.5 Z M 194.8 442.0 C 195.0 441.7 195.3 441.2 195.5 441.5 C 195.6 441.6 194.5 442.7 194.8 442.0 Z M 194.8 442.0 " fill="#FEE55E"></path></g></svg>