<?xml version="1.0" encoding="UTF-8" standalone="no"?><svg xmlns="http://www.w3.org/2000/svg" xmlns:xlink="http://www.w3.org/1999/xlink" clip-rule="evenodd" stroke-miterlimit="10" viewBox="0 0 1024 768"><desc>SVG generated by Keynote</desc><defs></defs><g transform="matrix(1.00, 0.00, -0.00, -1.00, 0.0, 768.0)"><g><clipPath id="clip0x7f8a7363d330"><path d="M 0.0 768.0 L 1024.0 768.0 L 1024.0 0.0 L 0.0 0.0 Z M 0.0 768.0 "></path></clipPath><g clip-path="url(#clip0x7f8a7363d330)"><image xlink:href="../../384E26B0-0AD0-495F-BA75-267B55ABD0BD/assets/31D284A5C75E14674D2A89FDB99F8048.jpeg" width="2048.00" height="1536.00" transform="matrix(0.50, 0.00, -0.00, -0.50, 0.0, 768.0)"></image></g></g><image xlink:href="../../4384037E-9443-44AF-9366-9F413B7AEFF4/assets/BE8D673971D7ED1E9BEC23FBCC9FB649.png" width="979.00" height="28.00" transform="matrix(1.00, 0.00, -0.00, -1.00, 23.0, 56.0)"></image><text xml:space="preserve" font-family="HelveticaNeue-Medium,Helvetica Neue" font-size="22.0" fill="#EAEAEA" transform="matrix(1.00, 0.00, -0.00, -1.00, 26.4, 37.6)">M</text><text xml:space="preserve" font-family="HelveticaNeue-Medium,Helvetica Neue" font-size="22.0" fill="#EAEAEA" transform="matrix(1.00, 0.00, -0.00, -1.00, 45.9, 37.6)">a</text><text xml:space="preserve" font-family="HelveticaNeue-Medium,Helvetica Neue" font-size="22.0" fill="#EAEAEA" transform="matrix(1.00, 0.00, -0.00, -1.00, 58.2, 37.6)">r</text><text xml:space="preserve" font-family="HelveticaNeue-Medium,Helvetica Neue" font-size="22.0" fill="#EAEAEA" transform="matrix(1.00, 0.00, -0.00, -1.00, 65.5, 37.6)">c</text><text xml:space="preserve" font-family="HelveticaNeue-Medium,Helvetica Neue" font-size="22.0" fill="#EAEAEA" transform="matrix(1.00, 0.00, -0.00, -1.00, 77.7, 37.6)">h</text><text xml:space="preserve" font-family="HelveticaNeue-Medium,Helvetica Neue" font-size="22.0" fill="#EAEAEA" transform="matrix(1.00, 0.00, -0.00, -1.00, 90.4, 37.6)">e</text><text xml:space="preserve" font-family="HelveticaNeue-Medium,Helvetica Neue" font-size="22.0" fill="#EAEAEA" transform="matrix(1.00, 0.00, -0.00, -1.00, 102.6, 37.6)">t</text><text xml:space="preserve" font-family="HelveticaNeue-Medium,Helvetica Neue" font-size="22.0" fill="#EAEAEA" transform="matrix(1.00, 0.00, -0.00, -1.00, 109.9, 37.6)">t</text><text xml:space="preserve" font-family="HelveticaNeue-Medium,Helvetica Neue" font-size="22.0" fill="#EAEAEA" transform="matrix(1.00, 0.00, -0.00, -1.00, 117.3, 37.6)">i</text><text xml:space="preserve" font-family="HelveticaNeue-Medium,Helvetica Neue" font-size="22.0" fill="#EAEAEA" transform="matrix(1.00, 0.00, -0.00, -1.00, 122.6, 37.6)"> </text><text xml:space="preserve" font-family="HelveticaNeue-Medium,Helvetica Neue" font-size="22.0" fill="#EAEAEA" transform="matrix(1.00, 0.00, -0.00, -1.00, 128.7, 37.6)">A</text><text xml:space="preserve" font-family="HelveticaNeue-Medium,Helvetica Neue" font-size="22.0" fill="#EAEAEA" transform="matrix(1.00, 0.00, -0.00, -1.00, 143.3, 37.6)">,</text><text xml:space="preserve" font-family="HelveticaNeue-Medium,Helvetica Neue" font-size="22.0" fill="#EAEAEA" transform="matrix(1.00, 0.00, -0.00, -1.00, 149.5, 37.6)"> </text><text xml:space="preserve" font-family="HelveticaNeue-Medium,Helvetica Neue" font-size="22.0" fill="#EAEAEA" transform="matrix(1.00, 0.00, -0.00, -1.00, 155.6, 37.6)">F</text><text xml:space="preserve" font-family="HelveticaNeue-Medium,Helvetica Neue" font-size="22.0" fill="#EAEAEA" transform="matrix(1.00, 0.00, -0.00, -1.00, 168.6, 37.6)">e</text><text xml:space="preserve" font-family="HelveticaNeue-Medium,Helvetica Neue" font-size="22.0" fill="#EAEAEA" transform="matrix(1.00, 0.00, -0.00, -1.00, 180.9, 37.6)">l</text><text xml:space="preserve" font-family="HelveticaNeue-Medium,Helvetica Neue" font-size="22.0" fill="#EAEAEA" transform="matrix(1.00, 0.00, -0.00, -1.00, 186.2, 37.6)">i</text><text xml:space="preserve" font-family="HelveticaNeue-Medium,Helvetica Neue" font-size="22.0" fill="#EAEAEA" transform="matrix(1.00, 0.00, -0.00, -1.00, 191.5, 37.6)">c</text><text xml:space="preserve" font-family="HelveticaNeue-Medium,Helvetica Neue" font-size="22.0" fill="#EAEAEA" transform="matrix(1.00, 0.00, -0.00, -1.00, 203.7, 37.6)">i</text><text xml:space="preserve" font-family="HelveticaNeue-Medium,Helvetica Neue" font-size="22.0" fill="#EAEAEA" transform="matrix(1.00, 0.00, -0.00, -1.00, 209.0, 37.6)">o</text><text xml:space="preserve" font-family="HelveticaNeue-Medium,Helvetica Neue" font-size="22.0" fill="#EAEAEA" transform="matrix(1.00, 0.00, -0.00, -1.00, 222.0, 37.6)">n</text><text xml:space="preserve" font-family="HelveticaNeue-Medium,Helvetica Neue" font-size="22.0" fill="#EAEAEA" transform="matrix(1.00, 0.00, -0.00, -1.00, 234.7, 37.6)">i</text><text xml:space="preserve" font-family="HelveticaNeue-Medium,Helvetica Neue" font-size="22.0" fill="#EAEAEA" transform="matrix(1.00, 0.00, -0.00, -1.00, 240.0, 37.6)"> </text><text xml:space="preserve" font-family="HelveticaNeue-Medium,Helvetica Neue" font-size="22.0" fill="#EAEAEA" transform="matrix(1.00, 0.00, -0.00, -1.00, 246.1, 37.6)">L</text><text xml:space="preserve" font-family="HelveticaNeue-Medium,Helvetica Neue" font-size="22.0" fill="#EAEAEA" transform="matrix(1.00, 0.00, -0.00, -1.00, 258.7, 37.6)">,</text><text xml:space="preserve" font-family="HelveticaNeue-Medium,Helvetica Neue" font-size="22.0" fill="#EAEAEA" transform="matrix(1.00, 0.00, -0.00, -1.00, 264.8, 37.6)"> </text><text xml:space="preserve" font-family="HelveticaNeue-Medium,Helvetica Neue" font-size="22.0" fill="#EAEAEA" transform="matrix(1.00, 0.00, -0.00, -1.00, 270.9, 37.6)">M</text><text xml:space="preserve" font-family="HelveticaNeue-Medium,Helvetica Neue" font-size="22.0" fill="#EAEAEA" transform="matrix(1.00, 0.00, -0.00, -1.00, 290.5, 37.6)">a</text><text xml:space="preserve" font-family="HelveticaNeue-Medium,Helvetica Neue" font-size="22.0" fill="#EAEAEA" transform="matrix(1.00, 0.00, -0.00, -1.00, 302.7, 37.6)">l</text><text xml:space="preserve" font-family="HelveticaNeue-Medium,Helvetica Neue" font-size="22.0" fill="#EAEAEA" transform="matrix(1.00, 0.00, -0.00, -1.00, 308.0, 37.6)">a</text><text xml:space="preserve" font-family="HelveticaNeue-Medium,Helvetica Neue" font-size="22.0" fill="#EAEAEA" transform="matrix(1.00, 0.00, -0.00, -1.00, 320.3, 37.6)">t</text><text xml:space="preserve" font-family="HelveticaNeue-Medium,Helvetica Neue" font-size="22.0" fill="#EAEAEA" transform="matrix(1.00, 0.00, -0.00, -1.00, 327.6, 37.6)">e</text><text xml:space="preserve" font-family="HelveticaNeue-Medium,Helvetica Neue" font-size="22.0" fill="#EAEAEA" transform="matrix(1.00, 0.00, -0.00, -1.00, 339.8, 37.6)">s</text><text xml:space="preserve" font-family="HelveticaNeue-Medium,Helvetica Neue" font-size="22.0" fill="#EAEAEA" transform="matrix(1.00, 0.00, -0.00, -1.00, 351.2, 37.6)">t</text><text xml:space="preserve" font-family="HelveticaNeue-Medium,Helvetica Neue" font-size="22.0" fill="#EAEAEA" transform="matrix(1.00, 0.00, -0.00, -1.00, 358.6, 37.6)">a</text><text xml:space="preserve" font-family="HelveticaNeue-Medium,Helvetica Neue" font-size="22.0" fill="#EAEAEA" transform="matrix(1.00, 0.00, -0.00, -1.00, 370.8, 37.6)"> </text><text xml:space="preserve" font-family="HelveticaNeue-Medium,Helvetica Neue" font-size="22.0" fill="#EAEAEA" transform="matrix(1.00, 0.00, -0.00, -1.00, 376.9, 37.6)">S</text><text xml:space="preserve" font-family="HelveticaNeue-Medium,Helvetica Neue" font-size="22.0" fill="#EAEAEA" transform="matrix(1.00, 0.00, -0.00, -1.00, 391.2, 37.6)">,</text><text xml:space="preserve" font-family="HelveticaNeue-Medium,Helvetica Neue" font-size="22.0" fill="#EAEAEA" transform="matrix(1.00, 0.00, -0.00, -1.00, 397.3, 37.6)"> </text><text xml:space="preserve" font-family="HelveticaNeue-Medium,Helvetica Neue" font-size="22.0" fill="#EAEAEA" transform="matrix(1.00, 0.00, -0.00, -1.00, 403.4, 37.6)">e</text><text xml:space="preserve" font-family="HelveticaNeue-Medium,Helvetica Neue" font-size="22.0" fill="#EAEAEA" transform="matrix(1.00, 0.00, -0.00, -1.00, 415.6, 37.6)">t</text><text xml:space="preserve" font-family="HelveticaNeue-Medium,Helvetica Neue" font-size="22.0" fill="#EAEAEA" transform="matrix(1.00, 0.00, -0.00, -1.00, 423.0, 37.6)"> </text><text xml:space="preserve" font-family="HelveticaNeue-Medium,Helvetica Neue" font-size="22.0" fill="#EAEAEA" transform="matrix(1.00, 0.00, -0.00, -1.00, 429.1, 37.6)">a</text><text xml:space="preserve" font-family="HelveticaNeue-Medium,Helvetica Neue" font-size="22.0" fill="#EAEAEA" transform="matrix(1.00, 0.00, -0.00, -1.00, 441.3, 37.6)">l</text><text xml:space="preserve" font-family="HelveticaNeue-Medium,Helvetica Neue" font-size="22.0" fill="#EAEAEA" transform="matrix(1.00, 0.00, -0.00, -1.00, 446.6, 37.6)">.</text><text xml:space="preserve" font-family="HelveticaNeue-Medium,Helvetica Neue" font-size="22.0" fill="#EAEAEA" transform="matrix(1.00, 0.00, -0.00, -1.00, 452.7, 37.6)"> </text><text xml:space="preserve" font-family="HelveticaNeue-Medium,Helvetica Neue" font-size="22.0" fill="#EAEAEA" transform="matrix(1.00, 0.00, -0.00, -1.00, 458.8, 37.6)">C</text><text xml:space="preserve" font-family="HelveticaNeue-Medium,Helvetica Neue" font-size="22.0" fill="#EAEAEA" transform="matrix(1.00, 0.00, -0.00, -1.00, 474.7, 37.6)">l</text><text xml:space="preserve" font-family="HelveticaNeue-Medium,Helvetica Neue" font-size="22.0" fill="#EAEAEA" transform="matrix(1.00, 0.00, -0.00, -1.00, 480.0, 37.6)">i</text><text xml:space="preserve" font-family="HelveticaNeue-Medium,Helvetica Neue" font-size="22.0" fill="#EAEAEA" transform="matrix(1.00, 0.00, -0.00, -1.00, 485.3, 37.6)">n</text><text xml:space="preserve" font-family="HelveticaNeue-Medium,Helvetica Neue" font-size="22.0" fill="#EAEAEA" transform="matrix(1.00, 0.00, -0.00, -1.00, 498.0, 37.6)">i</text><text xml:space="preserve" font-family="HelveticaNeue-Medium,Helvetica Neue" font-size="22.0" fill="#EAEAEA" transform="matrix(1.00, 0.00, -0.00, -1.00, 503.3, 37.6)">c</text><text xml:space="preserve" font-family="HelveticaNeue-Medium,Helvetica Neue" font-size="22.0" fill="#EAEAEA" transform="matrix(1.00, 0.00, -0.00, -1.00, 515.5, 37.6)">a</text><text xml:space="preserve" font-family="HelveticaNeue-Medium,Helvetica Neue" font-size="22.0" fill="#EAEAEA" transform="matrix(1.00, 0.00, -0.00, -1.00, 527.7, 37.6)">l</text><text xml:space="preserve" font-family="HelveticaNeue-Medium,Helvetica Neue" font-size="22.0" fill="#EAEAEA" transform="matrix(1.00, 0.00, -0.00, -1.00, 533.0, 37.6)"> </text><text xml:space="preserve" font-family="HelveticaNeue-Medium,Helvetica Neue" font-size="22.0" fill="#EAEAEA" transform="matrix(1.00, 0.00, -0.00, -1.00, 539.1, 37.6)">F</text><text xml:space="preserve" font-family="HelveticaNeue-Medium,Helvetica Neue" font-size="22.0" fill="#EAEAEA" transform="matrix(1.00, 0.00, -0.00, -1.00, 552.2, 37.6)">e</text><text xml:space="preserve" font-family="HelveticaNeue-Medium,Helvetica Neue" font-size="22.0" fill="#EAEAEA" transform="matrix(1.00, 0.00, -0.00, -1.00, 564.4, 37.6)">a</text><text xml:space="preserve" font-family="HelveticaNeue-Medium,Helvetica Neue" font-size="22.0" fill="#EAEAEA" transform="matrix(1.00, 0.00, -0.00, -1.00, 576.7, 37.6)">t</text><text xml:space="preserve" font-family="HelveticaNeue-Medium,Helvetica Neue" font-size="22.0" fill="#EAEAEA" transform="matrix(1.00, 0.00, -0.00, -1.00, 584.0, 37.6)">u</text><text xml:space="preserve" font-family="HelveticaNeue-Medium,Helvetica Neue" font-size="22.0" fill="#EAEAEA" transform="matrix(1.00, 0.00, -0.00, -1.00, 596.6, 37.6)">r</text><text xml:space="preserve" font-family="HelveticaNeue-Medium,Helvetica Neue" font-size="22.0" fill="#EAEAEA" transform="matrix(1.00, 0.00, -0.00, -1.00, 604.0, 37.6)">e</text><text xml:space="preserve" font-family="HelveticaNeue-Medium,Helvetica Neue" font-size="22.0" fill="#EAEAEA" transform="matrix(1.00, 0.00, -0.00, -1.00, 616.2, 37.6)">s</text><text xml:space="preserve" font-family="HelveticaNeue-Medium,Helvetica Neue" font-size="22.0" fill="#EAEAEA" transform="matrix(1.00, 0.00, -0.00, -1.00, 627.6, 37.6)"> </text><text xml:space="preserve" font-family="HelveticaNeue-Medium,Helvetica Neue" font-size="22.0" fill="#EAEAEA" transform="matrix(1.00, 0.00, -0.00, -1.00, 633.7, 37.6)">a</text><text xml:space="preserve" font-family="HelveticaNeue-Medium,Helvetica Neue" font-size="22.0" fill="#EAEAEA" transform="matrix(1.00, 0.00, -0.00, -1.00, 646.0, 37.6)">n</text><text xml:space="preserve" font-family="HelveticaNeue-Medium,Helvetica Neue" font-size="22.0" fill="#EAEAEA" transform="matrix(1.00, 0.00, -0.00, -1.00, 658.6, 37.6)">d</text><text xml:space="preserve" font-family="HelveticaNeue-Medium,Helvetica Neue" font-size="22.0" fill="#EAEAEA" transform="matrix(1.00, 0.00, -0.00, -1.00, 672.0, 37.6)"> </text><text xml:space="preserve" font-family="HelveticaNeue-Medium,Helvetica Neue" font-size="22.0" fill="#EAEAEA" transform="matrix(1.00, 0.00, -0.00, -1.00, 678.1, 37.6)">O</text><text xml:space="preserve" font-family="HelveticaNeue-Medium,Helvetica Neue" font-size="22.0" fill="#EAEAEA" transform="matrix(1.00, 0.00, -0.00, -1.00, 694.9, 37.6)">u</text><text xml:space="preserve" font-family="HelveticaNeue-Medium,Helvetica Neue" font-size="22.0" fill="#EAEAEA" transform="matrix(1.00, 0.00, -0.00, -1.00, 707.5, 37.6)">t</text><text xml:space="preserve" font-family="HelveticaNeue-Medium,Helvetica Neue" font-size="22.0" fill="#EAEAEA" transform="matrix(1.00, 0.00, -0.00, -1.00, 714.8, 37.6)">c</text><text xml:space="preserve" font-family="HelveticaNeue-Medium,Helvetica Neue" font-size="22.0" fill="#EAEAEA" transform="matrix(1.00, 0.00, -0.00, -1.00, 727.1, 37.6)">o</text><text xml:space="preserve" font-family="HelveticaNeue-Medium,Helvetica Neue" font-size="22.0" fill="#EAEAEA" transform="matrix(1.00, 0.00, -0.00, -1.00, 740.1, 37.6)">m</text><text xml:space="preserve" font-family="HelveticaNeue-Medium,Helvetica Neue" font-size="22.0" fill="#EAEAEA" transform="matrix(1.00, 0.00, -0.00, -1.00, 759.2, 37.6)">e</text><text xml:space="preserve" font-family="HelveticaNeue-Medium,Helvetica Neue" font-size="22.0" fill="#EAEAEA" transform="matrix(1.00, 0.00, -0.00, -1.00, 771.5, 37.6)"> </text><text xml:space="preserve" font-family="HelveticaNeue-Medium,Helvetica Neue" font-size="22.0" fill="#EAEAEA" transform="matrix(1.00, 0.00, -0.00, -1.00, 777.6, 37.6)">o</text><text xml:space="preserve" font-family="HelveticaNeue-Medium,Helvetica Neue" font-size="22.0" fill="#EAEAEA" transform="matrix(1.00, 0.00, -0.00, -1.00, 790.6, 37.6)">f</text><text xml:space="preserve" font-family="HelveticaNeue-Medium,Helvetica Neue" font-size="22.0" fill="#EAEAEA" transform="matrix(1.00, 0.00, -0.00, -1.00, 797.6, 37.6)"> </text><text xml:space="preserve" font-family="HelveticaNeue-Medium,Helvetica Neue" font-size="22.0" fill="#EAEAEA" transform="matrix(1.00, 0.00, -0.00, -1.00, 803.7, 37.6)">P</text><text xml:space="preserve" font-family="HelveticaNeue-Medium,Helvetica Neue" font-size="22.0" fill="#EAEAEA" transform="matrix(1.00, 0.00, -0.00, -1.00, 818.4, 37.6)">a</text><text xml:space="preserve" font-family="HelveticaNeue-Medium,Helvetica Neue" font-size="22.0" fill="#EAEAEA" transform="matrix(1.00, 0.00, -0.00, -1.00, 830.6, 37.6)">t</text><text xml:space="preserve" font-family="HelveticaNeue-Medium,Helvetica Neue" font-size="22.0" fill="#EAEAEA" transform="matrix(1.00, 0.00, -0.00, -1.00, 837.9, 37.6)">i</text><text xml:space="preserve" font-family="HelveticaNeue-Medium,Helvetica Neue" font-size="22.0" fill="#EAEAEA" transform="matrix(1.00, 0.00, -0.00, -1.00, 843.2, 37.6)">e</text><text xml:space="preserve" font-family="HelveticaNeue-Medium,Helvetica Neue" font-size="22.0" fill="#EAEAEA" transform="matrix(1.00, 0.00, -0.00, -1.00, 855.4, 37.6)">n</text><text xml:space="preserve" font-family="HelveticaNeue-Medium,Helvetica Neue" font-size="22.0" fill="#EAEAEA" transform="matrix(1.00, 0.00, -0.00, -1.00, 868.1, 37.6)">t</text><text xml:space="preserve" font-family="HelveticaNeue-Medium,Helvetica Neue" font-size="22.0" fill="#EAEAEA" transform="matrix(1.00, 0.00, -0.00, -1.00, 875.4, 37.6)">s</text><text xml:space="preserve" font-family="HelveticaNeue-Medium,Helvetica Neue" font-size="22.0" fill="#EAEAEA" transform="matrix(1.00, 0.00, -0.00, -1.00, 886.8, 37.6)"> </text><text xml:space="preserve" font-family="HelveticaNeue-Medium,Helvetica Neue" font-size="22.0" fill="#EAEAEA" transform="matrix(1.00, 0.00, -0.00, -1.00, 892.9, 37.6)">W</text><text xml:space="preserve" font-family="HelveticaNeue-Medium,Helvetica Neue" font-size="22.0" fill="#EAEAEA" transform="matrix(1.00, 0.00, -0.00, -1.00, 913.7, 37.6)">i</text><text xml:space="preserve" font-family="HelveticaNeue-Medium,Helvetica Neue" font-size="22.0" fill="#EAEAEA" transform="matrix(1.00, 0.00, -0.00, -1.00, 919.0, 37.6)">t</text><text xml:space="preserve" font-family="HelveticaNeue-Medium,Helvetica Neue" font-size="22.0" fill="#EAEAEA" transform="matrix(1.00, 0.00, -0.00, -1.00, 926.3, 37.6)">h</text><text xml:space="preserve" font-family="HelveticaNeue-Medium,Helvetica Neue" font-size="22.0" fill="#EAEAEA" transform="matrix(1.00, 0.00, -0.00, -1.00, 939.0, 37.6)"> </text><text xml:space="preserve" font-family="HelveticaNeue-Medium,Helvetica Neue" font-size="22.0" fill="#EAEAEA" transform="matrix(1.00, 0.00, -0.00, -1.00, 945.1, 37.6)">N</text><text xml:space="preserve" font-family="HelveticaNeue-Medium,Helvetica Neue" font-size="22.0" fill="#EAEAEA" transform="matrix(1.00, 0.00, -0.00, -1.00, 961.0, 37.6)">o</text><text xml:space="preserve" font-family="HelveticaNeue-Medium,Helvetica Neue" font-size="22.0" fill="#EAEAEA" transform="matrix(1.00, 0.00, -0.00, -1.00, 974.0, 37.6)">n</text><text xml:space="preserve" font-family="HelveticaNeue-Medium,Helvetica Neue" font-size="22.0" fill="#EAEAEA" transform="matrix(1.00, 0.00, -0.00, -1.00, 986.6, 37.6)">–</text><image xlink:href="../../4384037E-9443-44AF-9366-9F413B7AEFF4/assets/8B74550C8A2905627D578B531B733E02.png" width="872.00" height="29.00" transform="matrix(1.00, 0.00, -0.00, -1.00, 76.0, 29.0)"></image><text xml:space="preserve" font-family="HelveticaNeue-Medium,Helvetica Neue" font-size="22.0" fill="#EAEAEA" transform="matrix(1.00, 0.00, -0.00, -1.00, 79.3, 10.6)">S</text><text xml:space="preserve" font-family="HelveticaNeue-Medium,Helvetica Neue" font-size="22.0" fill="#EAEAEA" transform="matrix(1.00, 0.00, -0.00, -1.00, 93.6, 10.6)">m</text><text xml:space="preserve" font-family="HelveticaNeue-Medium,Helvetica Neue" font-size="22.0" fill="#EAEAEA" transform="matrix(1.00, 0.00, -0.00, -1.00, 112.7, 10.6)">a</text><text xml:space="preserve" font-family="HelveticaNeue-Medium,Helvetica Neue" font-size="22.0" fill="#EAEAEA" transform="matrix(1.00, 0.00, -0.00, -1.00, 125.0, 10.6)">l</text><text xml:space="preserve" font-family="HelveticaNeue-Medium,Helvetica Neue" font-size="22.0" fill="#EAEAEA" transform="matrix(1.00, 0.00, -0.00, -1.00, 130.3, 10.6)">l</text><text xml:space="preserve" font-family="HelveticaNeue-Medium,Helvetica Neue" font-size="22.0" fill="#EAEAEA" transform="matrix(1.00, 0.00, -0.00, -1.00, 135.6, 10.6)">-</text><text xml:space="preserve" font-family="HelveticaNeue-Medium,Helvetica Neue" font-size="22.0" fill="#EAEAEA" transform="matrix(1.00, 0.00, -0.00, -1.00, 144.1, 10.6)">C</text><text xml:space="preserve" font-family="HelveticaNeue-Medium,Helvetica Neue" font-size="22.0" fill="#EAEAEA" transform="matrix(1.00, 0.00, -0.00, -1.00, 160.0, 10.6)">e</text><text xml:space="preserve" font-family="HelveticaNeue-Medium,Helvetica Neue" font-size="22.0" fill="#EAEAEA" transform="matrix(1.00, 0.00, -0.00, -1.00, 172.3, 10.6)">l</text><text xml:space="preserve" font-family="HelveticaNeue-Medium,Helvetica Neue" font-size="22.0" fill="#EAEAEA" transform="matrix(1.00, 0.00, -0.00, -1.00, 177.6, 10.6)">l</text><text xml:space="preserve" font-family="HelveticaNeue-Medium,Helvetica Neue" font-size="22.0" fill="#EAEAEA" transform="matrix(1.00, 0.00, -0.00, -1.00, 182.9, 10.6)"> </text><text xml:space="preserve" font-family="HelveticaNeue-Medium,Helvetica Neue" font-size="22.0" fill="#EAEAEA" transform="matrix(1.00, 0.00, -0.00, -1.00, 189.0, 10.6)">L</text><text xml:space="preserve" font-family="HelveticaNeue-Medium,Helvetica Neue" font-size="22.0" fill="#EAEAEA" transform="matrix(1.00, 0.00, -0.00, -1.00, 201.6, 10.6)">u</text><text xml:space="preserve" font-family="HelveticaNeue-Medium,Helvetica Neue" font-size="22.0" fill="#EAEAEA" transform="matrix(1.00, 0.00, -0.00, -1.00, 214.2, 10.6)">n</text><text xml:space="preserve" font-family="HelveticaNeue-Medium,Helvetica Neue" font-size="22.0" fill="#EAEAEA" transform="matrix(1.00, 0.00, -0.00, -1.00, 226.9, 10.6)">g</text><text xml:space="preserve" font-family="HelveticaNeue-Medium,Helvetica Neue" font-size="22.0" fill="#EAEAEA" transform="matrix(1.00, 0.00, -0.00, -1.00, 239.9, 10.6)"> </text><text xml:space="preserve" font-family="HelveticaNeue-Medium,Helvetica Neue" font-size="22.0" fill="#EAEAEA" transform="matrix(1.00, 0.00, -0.00, -1.00, 246.0, 10.6)">C</text><text xml:space="preserve" font-family="HelveticaNeue-Medium,Helvetica Neue" font-size="22.0" fill="#EAEAEA" transform="matrix(1.00, 0.00, -0.00, -1.00, 261.9, 10.6)">a</text><text xml:space="preserve" font-family="HelveticaNeue-Medium,Helvetica Neue" font-size="22.0" fill="#EAEAEA" transform="matrix(1.00, 0.00, -0.00, -1.00, 274.1, 10.6)">n</text><text xml:space="preserve" font-family="HelveticaNeue-Medium,Helvetica Neue" font-size="22.0" fill="#EAEAEA" transform="matrix(1.00, 0.00, -0.00, -1.00, 286.8, 10.6)">c</text><text xml:space="preserve" font-family="HelveticaNeue-Medium,Helvetica Neue" font-size="22.0" fill="#EAEAEA" transform="matrix(1.00, 0.00, -0.00, -1.00, 299.0, 10.6)">e</text><text xml:space="preserve" font-family="HelveticaNeue-Medium,Helvetica Neue" font-size="22.0" fill="#EAEAEA" transform="matrix(1.00, 0.00, -0.00, -1.00, 311.2, 10.6)">r</text><text xml:space="preserve" font-family="HelveticaNeue-Medium,Helvetica Neue" font-size="22.0" fill="#EAEAEA" transform="matrix(1.00, 0.00, -0.00, -1.00, 319.0, 10.6)"> </text><text xml:space="preserve" font-family="HelveticaNeue-Medium,Helvetica Neue" font-size="22.0" fill="#EAEAEA" transform="matrix(1.00, 0.00, -0.00, -1.00, 325.1, 10.6)">H</text><text xml:space="preserve" font-family="HelveticaNeue-Medium,Helvetica Neue" font-size="22.0" fill="#EAEAEA" transform="matrix(1.00, 0.00, -0.00, -1.00, 341.0, 10.6)">a</text><text xml:space="preserve" font-family="HelveticaNeue-Medium,Helvetica Neue" font-size="22.0" fill="#EAEAEA" transform="matrix(1.00, 0.00, -0.00, -1.00, 353.2, 10.6)">r</text><text xml:space="preserve" font-family="HelveticaNeue-Medium,Helvetica Neue" font-size="22.0" fill="#EAEAEA" transform="matrix(1.00, 0.00, -0.00, -1.00, 360.9, 10.6)">b</text><text xml:space="preserve" font-family="HelveticaNeue-Medium,Helvetica Neue" font-size="22.0" fill="#EAEAEA" transform="matrix(1.00, 0.00, -0.00, -1.00, 374.4, 10.6)">o</text><text xml:space="preserve" font-family="HelveticaNeue-Medium,Helvetica Neue" font-size="22.0" fill="#EAEAEA" transform="matrix(1.00, 0.00, -0.00, -1.00, 387.4, 10.6)">r</text><text xml:space="preserve" font-family="HelveticaNeue-Medium,Helvetica Neue" font-size="22.0" fill="#EAEAEA" transform="matrix(1.00, 0.00, -0.00, -1.00, 395.2, 10.6)">i</text><text xml:space="preserve" font-family="HelveticaNeue-Medium,Helvetica Neue" font-size="22.0" fill="#EAEAEA" transform="matrix(1.00, 0.00, -0.00, -1.00, 400.5, 10.6)">n</text><text xml:space="preserve" font-family="HelveticaNeue-Medium,Helvetica Neue" font-size="22.0" fill="#EAEAEA" transform="matrix(1.00, 0.00, -0.00, -1.00, 413.1, 10.6)">g</text><text xml:space="preserve" font-family="HelveticaNeue-Medium,Helvetica Neue" font-size="22.0" fill="#EAEAEA" transform="matrix(1.00, 0.00, -0.00, -1.00, 426.2, 10.6)"> </text><text xml:space="preserve" font-family="HelveticaNeue-Medium,Helvetica Neue" font-size="22.0" fill="#EAEAEA" transform="matrix(1.00, 0.00, -0.00, -1.00, 432.3, 10.6)">B</text><text xml:space="preserve" font-family="HelveticaNeue-Medium,Helvetica Neue" font-size="22.0" fill="#EAEAEA" transform="matrix(1.00, 0.00, -0.00, -1.00, 447.8, 10.6)">R</text><text xml:space="preserve" font-family="HelveticaNeue-Medium,Helvetica Neue" font-size="22.0" fill="#EAEAEA" transform="matrix(1.00, 0.00, -0.00, -1.00, 463.2, 10.6)">A</text><text xml:space="preserve" font-family="HelveticaNeue-Medium,Helvetica Neue" font-size="22.0" fill="#EAEAEA" transform="matrix(1.00, 0.00, -0.00, -1.00, 477.9, 10.6)">F</text><text xml:space="preserve" font-family="HelveticaNeue-Medium,Helvetica Neue" font-size="22.0" fill="#EAEAEA" transform="matrix(1.00, 0.00, -0.00, -1.00, 491.0, 10.6)"> </text><text xml:space="preserve" font-family="HelveticaNeue-Medium,Helvetica Neue" font-size="22.0" fill="#EAEAEA" transform="matrix(1.00, 0.00, -0.00, -1.00, 497.1, 10.6)">M</text><text xml:space="preserve" font-family="HelveticaNeue-Medium,Helvetica Neue" font-size="22.0" fill="#EAEAEA" transform="matrix(1.00, 0.00, -0.00, -1.00, 516.6, 10.6)">u</text><text xml:space="preserve" font-family="HelveticaNeue-Medium,Helvetica Neue" font-size="22.0" fill="#EAEAEA" transform="matrix(1.00, 0.00, -0.00, -1.00, 529.3, 10.6)">t</text><text xml:space="preserve" font-family="HelveticaNeue-Medium,Helvetica Neue" font-size="22.0" fill="#EAEAEA" transform="matrix(1.00, 0.00, -0.00, -1.00, 536.6, 10.6)">a</text><text xml:space="preserve" font-family="HelveticaNeue-Medium,Helvetica Neue" font-size="22.0" fill="#EAEAEA" transform="matrix(1.00, 0.00, -0.00, -1.00, 548.8, 10.6)">t</text><text xml:space="preserve" font-family="HelveticaNeue-Medium,Helvetica Neue" font-size="22.0" fill="#EAEAEA" transform="matrix(1.00, 0.00, -0.00, -1.00, 556.2, 10.6)">i</text><text xml:space="preserve" font-family="HelveticaNeue-Medium,Helvetica Neue" font-size="22.0" fill="#EAEAEA" transform="matrix(1.00, 0.00, -0.00, -1.00, 561.5, 10.6)">o</text><text xml:space="preserve" font-family="HelveticaNeue-Medium,Helvetica Neue" font-size="22.0" fill="#EAEAEA" transform="matrix(1.00, 0.00, -0.00, -1.00, 574.5, 10.6)">n</text><text xml:space="preserve" font-family="HelveticaNeue-Medium,Helvetica Neue" font-size="22.0" fill="#EAEAEA" transform="matrix(1.00, 0.00, -0.00, -1.00, 587.1, 10.6)">s</text><text xml:space="preserve" font-family="HelveticaNeue-Medium,Helvetica Neue" font-size="22.0" fill="#EAEAEA" transform="matrix(1.00, 0.00, -0.00, -1.00, 598.5, 10.6)">.</text><text xml:space="preserve" font-family="HelveticaNeue-Medium,Helvetica Neue" font-size="22.0" fill="#EAEAEA" transform="matrix(1.00, 0.00, -0.00, -1.00, 604.7, 10.6)"> </text><text xml:space="preserve" font-family="HelveticaNeue-Medium,Helvetica Neue" font-size="22.0" fill="#EAEAEA" transform="matrix(1.00, 0.00, -0.00, -1.00, 610.8, 10.6)">J</text><text xml:space="preserve" font-family="HelveticaNeue-Medium,Helvetica Neue" font-size="22.0" fill="#EAEAEA" transform="matrix(1.00, 0.00, -0.00, -1.00, 622.6, 10.6)">C</text><text xml:space="preserve" font-family="HelveticaNeue-Medium,Helvetica Neue" font-size="22.0" fill="#EAEAEA" transform="matrix(1.00, 0.00, -0.00, -1.00, 638.5, 10.6)">O</text><text xml:space="preserve" font-family="HelveticaNeue-Medium,Helvetica Neue" font-size="22.0" fill="#EAEAEA" transform="matrix(1.00, 0.00, -0.00, -1.00, 655.2, 10.6)">.</text><text xml:space="preserve" font-family="HelveticaNeue-Medium,Helvetica Neue" font-size="22.0" fill="#EAEAEA" transform="matrix(1.00, 0.00, -0.00, -1.00, 661.3, 10.6)"> </text><text xml:space="preserve" font-family="HelveticaNeue-Medium,Helvetica Neue" font-size="22.0" fill="#EAEAEA" transform="matrix(1.00, 0.00, -0.00, -1.00, 667.4, 10.6)">2</text><text xml:space="preserve" font-family="HelveticaNeue-Medium,Helvetica Neue" font-size="22.0" fill="#EAEAEA" transform="matrix(1.00, 0.00, -0.00, -1.00, 679.7, 10.6)">0</text><text xml:space="preserve" font-family="HelveticaNeue-Medium,Helvetica Neue" font-size="22.0" fill="#EAEAEA" transform="matrix(1.00, 0.00, -0.00, -1.00, 691.9, 10.6)">1</text><text xml:space="preserve" font-family="HelveticaNeue-Medium,Helvetica Neue" font-size="22.0" fill="#EAEAEA" transform="matrix(1.00, 0.00, -0.00, -1.00, 704.1, 10.6)">1</text><text xml:space="preserve" font-family="HelveticaNeue-Medium,Helvetica Neue" font-size="22.0" fill="#EAEAEA" transform="matrix(1.00, 0.00, -0.00, -1.00, 716.4, 10.6)"> </text><text xml:space="preserve" font-family="HelveticaNeue-Medium,Helvetica Neue" font-size="22.0" fill="#EAEAEA" transform="matrix(1.00, 0.00, -0.00, -1.00, 722.5, 10.6)">S</text><text xml:space="preserve" font-family="HelveticaNeue-Medium,Helvetica Neue" font-size="22.0" fill="#EAEAEA" transform="matrix(1.00, 0.00, -0.00, -1.00, 736.7, 10.6)">e</text><text xml:space="preserve" font-family="HelveticaNeue-Medium,Helvetica Neue" font-size="22.0" fill="#EAEAEA" transform="matrix(1.00, 0.00, -0.00, -1.00, 749.0, 10.6)">p</text><text xml:space="preserve" font-family="HelveticaNeue-Medium,Helvetica Neue" font-size="22.0" fill="#EAEAEA" transform="matrix(1.00, 0.00, -0.00, -1.00, 762.4, 10.6)"> </text><text xml:space="preserve" font-family="HelveticaNeue-Medium,Helvetica Neue" font-size="22.0" fill="#EAEAEA" transform="matrix(1.00, 0.00, -0.00, -1.00, 768.5, 10.6)">1</text><text xml:space="preserve" font-family="HelveticaNeue-Medium,Helvetica Neue" font-size="22.0" fill="#EAEAEA" transform="matrix(1.00, 0.00, -0.00, -1.00, 780.8, 10.6)">0</text><text xml:space="preserve" font-family="HelveticaNeue-Medium,Helvetica Neue" font-size="22.0" fill="#EAEAEA" transform="matrix(1.00, 0.00, -0.00, -1.00, 793.0, 10.6)">;</text><text xml:space="preserve" font-family="HelveticaNeue-Medium,Helvetica Neue" font-size="22.0" fill="#EAEAEA" transform="matrix(1.00, 0.00, -0.00, -1.00, 799.1, 10.6)">2</text><text xml:space="preserve" font-family="HelveticaNeue-Medium,Helvetica Neue" font-size="22.0" fill="#EAEAEA" transform="matrix(1.00, 0.00, -0.00, -1.00, 811.3, 10.6)">9</text><text xml:space="preserve" font-family="HelveticaNeue-Medium,Helvetica Neue" font-size="22.0" fill="#EAEAEA" transform="matrix(1.00, 0.00, -0.00, -1.00, 823.6, 10.6)">(</text><text xml:space="preserve" font-family="HelveticaNeue-Medium,Helvetica Neue" font-size="22.0" fill="#EAEAEA" transform="matrix(1.00, 0.00, -0.00, -1.00, 829.7, 10.6)">2</text><text xml:space="preserve" font-family="HelveticaNeue-Medium,Helvetica Neue" font-size="22.0" fill="#EAEAEA" transform="matrix(1.00, 0.00, -0.00, -1.00, 841.9, 10.6)">6</text><text xml:space="preserve" font-family="HelveticaNeue-Medium,Helvetica Neue" font-size="22.0" fill="#EAEAEA" transform="matrix(1.00, 0.00, -0.00, -1.00, 854.1, 10.6)">)</text><text xml:space="preserve" font-family="HelveticaNeue-Medium,Helvetica Neue" font-size="22.0" fill="#EAEAEA" transform="matrix(1.00, 0.00, -0.00, -1.00, 860.3, 10.6)">:</text><text xml:space="preserve" font-family="HelveticaNeue-Medium,Helvetica Neue" font-size="22.0" fill="#EAEAEA" transform="matrix(1.00, 0.00, -0.00, -1.00, 866.4, 10.6)">3</text><text xml:space="preserve" font-family="HelveticaNeue-Medium,Helvetica Neue" font-size="22.0" fill="#EAEAEA" transform="matrix(1.00, 0.00, -0.00, -1.00, 878.6, 10.6)">5</text><text xml:space="preserve" font-family="HelveticaNeue-Medium,Helvetica Neue" font-size="22.0" fill="#EAEAEA" transform="matrix(1.00, 0.00, -0.00, -1.00, 890.8, 10.6)">7</text><text xml:space="preserve" font-family="HelveticaNeue-Medium,Helvetica Neue" font-size="22.0" fill="#EAEAEA" transform="matrix(1.00, 0.00, -0.00, -1.00, 903.1, 10.6)">4</text><text xml:space="preserve" font-family="HelveticaNeue-Medium,Helvetica Neue" font-size="22.0" fill="#EAEAEA" transform="matrix(1.00, 0.00, -0.00, -1.00, 915.3, 10.6)">–</text><text xml:space="preserve" font-family="HelveticaNeue-Medium,Helvetica Neue" font-size="22.0" fill="#EAEAEA" transform="matrix(1.00, 0.00, -0.00, -1.00, 926.3, 10.6)">9</text><text xml:space="preserve" font-family="HelveticaNeue-Medium,Helvetica Neue" font-size="22.0" fill="#EAEAEA" transform="matrix(1.00, 0.00, -0.00, -1.00, 938.5, 10.6)">.</text><text xml:space="preserve" font-family="HelveticaNeue-Medium,Helvetica Neue" font-size="22.0" fill="#EAEAEA" transform="matrix(1.00, 0.00, -0.00, -1.00, 944.7, 10.6)"> </text><image xlink:href="../../4384037E-9443-44AF-9366-9F413B7AEFF4/assets/1C2E2C4589F582819289AADD23598926.png" width="1216.00" height="772.00" transform="matrix(0.84, 0.00, -0.00, -0.84, 0.0, 745.0)"></image><image xlink:href="../../4384037E-9443-44AF-9366-9F413B7AEFF4/assets/261BC40208497B7A8431EA0988CF34EB.png" width="1068.00" height="700.00" transform="matrix(1.00, 0.00, -0.00, 1.00, -22.0, 71.0)"></image></g></svg>