<?xml version="1.0" encoding="UTF-8" standalone="no"?><svg xmlns="http://www.w3.org/2000/svg" xmlns:xlink="http://www.w3.org/1999/xlink" clip-rule="evenodd" stroke-miterlimit="10" viewBox="0 0 302 295"><desc>SVG generated by Keynote</desc><defs></defs><g transform="matrix(1.00, 0.00, -0.00, -1.00, 0.0, 295.0)"><image xlink:href="../../45D8F2E9-8A36-4722-9787-ED31D1BA1F12/assets/6DAD732EEAD042D3B3283459BF72A3E1.png" width="163.00" height="29.00" transform="matrix(1.00, 0.00, -0.00, -1.00, 2.0, 294.0)"></image><text xml:space="preserve" font-family="HelveticaNeue-Medium,Helvetica Neue" font-size="28.0" fill="#EAEAEA" transform="matrix(1.00, 0.00, -0.00, -1.00, 6.5, 271.9)">V</text><text xml:space="preserve" font-family="HelveticaNeue-Medium,Helvetica Neue" font-size="28.0" fill="#EAEAEA" transform="matrix(1.00, 0.00, -0.00, -1.00, 23.9, 271.9)">i</text><text xml:space="preserve" font-family="HelveticaNeue-Medium,Helvetica Neue" font-size="28.0" fill="#EAEAEA" transform="matrix(1.00, 0.00, -0.00, -1.00, 30.7, 271.9)">n</text><text xml:space="preserve" font-family="HelveticaNeue-Medium,Helvetica Neue" font-size="28.0" fill="#EAEAEA" transform="matrix(1.00, 0.00, -0.00, -1.00, 46.8, 271.9)">o</text><text xml:space="preserve" font-family="HelveticaNeue-Medium,Helvetica Neue" font-size="28.0" fill="#EAEAEA" transform="matrix(1.00, 0.00, -0.00, -1.00, 63.4, 271.9)">r</text><text xml:space="preserve" font-family="HelveticaNeue-Medium,Helvetica Neue" font-size="28.0" fill="#EAEAEA" transform="matrix(1.00, 0.00, -0.00, -1.00, 72.7, 271.9)">e</text><text xml:space="preserve" font-family="HelveticaNeue-Medium,Helvetica Neue" font-size="28.0" fill="#EAEAEA" transform="matrix(1.00, 0.00, -0.00, -1.00, 88.3, 271.9)">l</text><text xml:space="preserve" font-family="HelveticaNeue-Medium,Helvetica Neue" font-size="28.0" fill="#EAEAEA" transform="matrix(1.00, 0.00, -0.00, -1.00, 95.0, 271.9)">b</text><text xml:space="preserve" font-family="HelveticaNeue-Medium,Helvetica Neue" font-size="28.0" fill="#EAEAEA" transform="matrix(1.00, 0.00, -0.00, -1.00, 112.1, 271.9)">i</text><text xml:space="preserve" font-family="HelveticaNeue-Medium,Helvetica Neue" font-size="28.0" fill="#EAEAEA" transform="matrix(1.00, 0.00, -0.00, -1.00, 118.9, 271.9)">n</text><text xml:space="preserve" font-family="HelveticaNeue-Medium,Helvetica Neue" font-size="28.0" fill="#EAEAEA" transform="matrix(1.00, 0.00, -0.00, -1.00, 135.0, 271.9)">e</text><text xml:space="preserve" font-family="HelveticaNeue-Medium,Helvetica Neue" font-size="28.0" fill="#EAEAEA" transform="matrix(1.00, 0.00, -0.00, -1.00, 150.5, 271.9)">*</text><text xml:space="preserve" font-family="HelveticaNeue-Medium,Helvetica Neue" font-size="28.0" fill="#EAEAEA" transform="matrix(1.00, 0.00, -0.00, -1.00, 160.9, 271.9)"> </text><image xlink:href="../../45D8F2E9-8A36-4722-9787-ED31D1BA1F12/assets/5C7656B9E3F62ABC4082FB0E1C480055.png" width="296.00" height="30.00" transform="matrix(1.00, 0.00, -0.00, -1.00, 4.0, 229.0)"></image><text xml:space="preserve" font-family="HelveticaNeue-Medium,Helvetica Neue" font-size="28.0" fill="#EAEAEA" transform="matrix(1.00, 0.00, -0.00, -1.00, 6.5, 205.9)">P</text><text xml:space="preserve" font-family="HelveticaNeue-Medium,Helvetica Neue" font-size="28.0" fill="#EAEAEA" transform="matrix(1.00, 0.00, -0.00, -1.00, 25.2, 205.9)">a</text><text xml:space="preserve" font-family="HelveticaNeue-Medium,Helvetica Neue" font-size="28.0" fill="#EAEAEA" transform="matrix(1.00, 0.00, -0.00, -1.00, 40.8, 205.9)">c</text><text xml:space="preserve" font-family="HelveticaNeue-Medium,Helvetica Neue" font-size="28.0" fill="#EAEAEA" transform="matrix(1.00, 0.00, -0.00, -1.00, 56.4, 205.9)">l</text><text xml:space="preserve" font-family="HelveticaNeue-Medium,Helvetica Neue" font-size="28.0" fill="#EAEAEA" transform="matrix(1.00, 0.00, -0.00, -1.00, 63.1, 205.9)">i</text><text xml:space="preserve" font-family="HelveticaNeue-Medium,Helvetica Neue" font-size="28.0" fill="#EAEAEA" transform="matrix(1.00, 0.00, -0.00, -1.00, 69.9, 205.9)">t</text><text xml:space="preserve" font-family="HelveticaNeue-Medium,Helvetica Neue" font-size="28.0" fill="#EAEAEA" transform="matrix(1.00, 0.00, -0.00, -1.00, 79.2, 205.9)">a</text><text xml:space="preserve" font-family="HelveticaNeue-Medium,Helvetica Neue" font-size="28.0" fill="#EAEAEA" transform="matrix(1.00, 0.00, -0.00, -1.00, 94.7, 205.9)">x</text><text xml:space="preserve" font-family="HelveticaNeue-Medium,Helvetica Neue" font-size="28.0" fill="#EAEAEA" transform="matrix(1.00, 0.00, -0.00, -1.00, 109.8, 205.9)">e</text><text xml:space="preserve" font-family="HelveticaNeue-Medium,Helvetica Neue" font-size="28.0" fill="#EAEAEA" transform="matrix(1.00, 0.00, -0.00, -1.00, 125.3, 205.9)">l</text><text xml:space="preserve" font-family="HelveticaNeue-Medium,Helvetica Neue" font-size="28.0" fill="#EAEAEA" transform="matrix(1.00, 0.00, -0.00, -1.00, 132.1, 205.9)">*</text><text xml:space="preserve" font-family="HelveticaNeue-Medium,Helvetica Neue" font-size="28.0" fill="#EAEAEA" transform="matrix(1.00, 0.00, -0.00, -1.00, 142.5, 205.9)">/</text><text xml:space="preserve" font-family="HelveticaNeue-Medium,Helvetica Neue" font-size="28.0" fill="#EAEAEA" transform="matrix(1.00, 0.00, -0.00, -1.00, 152.3, 205.9)">A</text><text xml:space="preserve" font-family="HelveticaNeue-Medium,Helvetica Neue" font-size="28.0" fill="#EAEAEA" transform="matrix(1.00, 0.00, -0.00, -1.00, 171.0, 205.9)">b</text><text xml:space="preserve" font-family="HelveticaNeue-Medium,Helvetica Neue" font-size="28.0" fill="#EAEAEA" transform="matrix(1.00, 0.00, -0.00, -1.00, 188.1, 205.9)">r</text><text xml:space="preserve" font-family="HelveticaNeue-Medium,Helvetica Neue" font-size="28.0" fill="#EAEAEA" transform="matrix(1.00, 0.00, -0.00, -1.00, 198.0, 205.9)">a</text><text xml:space="preserve" font-family="HelveticaNeue-Medium,Helvetica Neue" font-size="28.0" fill="#EAEAEA" transform="matrix(1.00, 0.00, -0.00, -1.00, 213.5, 205.9)">x</text><text xml:space="preserve" font-family="HelveticaNeue-Medium,Helvetica Neue" font-size="28.0" fill="#EAEAEA" transform="matrix(1.00, 0.00, -0.00, -1.00, 228.6, 205.9)">a</text><text xml:space="preserve" font-family="HelveticaNeue-Medium,Helvetica Neue" font-size="28.0" fill="#EAEAEA" transform="matrix(1.00, 0.00, -0.00, -1.00, 244.1, 205.9)">n</text><text xml:space="preserve" font-family="HelveticaNeue-Medium,Helvetica Neue" font-size="28.0" fill="#EAEAEA" transform="matrix(1.00, 0.00, -0.00, -1.00, 260.2, 205.9)">e</text><text xml:space="preserve" font-family="HelveticaNeue-Medium,Helvetica Neue" font-size="28.0" fill="#EAEAEA" transform="matrix(1.00, 0.00, -0.00, -1.00, 275.8, 205.9)">*</text><text xml:space="preserve" font-family="HelveticaNeue-Medium,Helvetica Neue" font-size="28.0" fill="#EAEAEA" transform="matrix(1.00, 0.00, -0.00, -1.00, 286.1, 205.9)">*</text><text xml:space="preserve" font-family="HelveticaNeue-Medium,Helvetica Neue" font-size="28.0" fill="#EAEAEA" transform="matrix(1.00, 0.00, -0.00, -1.00, 296.5, 205.9)"> </text><image xlink:href="../../45D8F2E9-8A36-4722-9787-ED31D1BA1F12/assets/5E6CDAB78F1C7D7941D0C120162188BC.png" width="147.00" height="29.00" transform="matrix(1.00, 0.00, -0.00, -1.00, 4.0, 162.0)"></image><text xml:space="preserve" font-family="HelveticaNeue-Medium,Helvetica Neue" font-size="28.0" fill="#EAEAEA" transform="matrix(1.00, 0.00, -0.00, -1.00, 6.5, 139.9)">D</text><text xml:space="preserve" font-family="HelveticaNeue-Medium,Helvetica Neue" font-size="28.0" fill="#EAEAEA" transform="matrix(1.00, 0.00, -0.00, -1.00, 26.8, 139.9)">o</text><text xml:space="preserve" font-family="HelveticaNeue-Medium,Helvetica Neue" font-size="28.0" fill="#EAEAEA" transform="matrix(1.00, 0.00, -0.00, -1.00, 43.4, 139.9)">c</text><text xml:space="preserve" font-family="HelveticaNeue-Medium,Helvetica Neue" font-size="28.0" fill="#EAEAEA" transform="matrix(1.00, 0.00, -0.00, -1.00, 58.9, 139.9)">e</text><text xml:space="preserve" font-family="HelveticaNeue-Medium,Helvetica Neue" font-size="28.0" fill="#EAEAEA" transform="matrix(1.00, 0.00, -0.00, -1.00, 74.5, 139.9)">t</text><text xml:space="preserve" font-family="HelveticaNeue-Medium,Helvetica Neue" font-size="28.0" fill="#EAEAEA" transform="matrix(1.00, 0.00, -0.00, -1.00, 83.8, 139.9)">a</text><text xml:space="preserve" font-family="HelveticaNeue-Medium,Helvetica Neue" font-size="28.0" fill="#EAEAEA" transform="matrix(1.00, 0.00, -0.00, -1.00, 99.4, 139.9)">x</text><text xml:space="preserve" font-family="HelveticaNeue-Medium,Helvetica Neue" font-size="28.0" fill="#EAEAEA" transform="matrix(1.00, 0.00, -0.00, -1.00, 114.4, 139.9)">e</text><text xml:space="preserve" font-family="HelveticaNeue-Medium,Helvetica Neue" font-size="28.0" fill="#EAEAEA" transform="matrix(1.00, 0.00, -0.00, -1.00, 130.0, 139.9)">l</text><text xml:space="preserve" font-family="HelveticaNeue-Medium,Helvetica Neue" font-size="28.0" fill="#EAEAEA" transform="matrix(1.00, 0.00, -0.00, -1.00, 136.7, 139.9)">*</text><text xml:space="preserve" font-family="HelveticaNeue-Medium,Helvetica Neue" font-size="28.0" fill="#EAEAEA" transform="matrix(1.00, 0.00, -0.00, -1.00, 147.1, 139.9)"> </text><image xlink:href="../../45D8F2E9-8A36-4722-9787-ED31D1BA1F12/assets/49A13CF70ADBD473B19DD57CB9921E1F.png" width="171.00" height="30.00" transform="matrix(1.00, 0.00, -0.00, -1.00, 3.0, 97.0)"></image><text xml:space="preserve" font-family="HelveticaNeue-Medium,Helvetica Neue" font-size="28.0" fill="#EAEAEA" transform="matrix(1.00, 0.00, -0.00, -1.00, 6.5, 73.9)">G</text><text xml:space="preserve" font-family="HelveticaNeue-Medium,Helvetica Neue" font-size="28.0" fill="#EAEAEA" transform="matrix(1.00, 0.00, -0.00, -1.00, 27.8, 73.9)">e</text><text xml:space="preserve" font-family="HelveticaNeue-Medium,Helvetica Neue" font-size="28.0" fill="#EAEAEA" transform="matrix(1.00, 0.00, -0.00, -1.00, 43.4, 73.9)">m</text><text xml:space="preserve" font-family="HelveticaNeue-Medium,Helvetica Neue" font-size="28.0" fill="#EAEAEA" transform="matrix(1.00, 0.00, -0.00, -1.00, 67.7, 73.9)">c</text><text xml:space="preserve" font-family="HelveticaNeue-Medium,Helvetica Neue" font-size="28.0" fill="#EAEAEA" transform="matrix(1.00, 0.00, -0.00, -1.00, 83.3, 73.9)">i</text><text xml:space="preserve" font-family="HelveticaNeue-Medium,Helvetica Neue" font-size="28.0" fill="#EAEAEA" transform="matrix(1.00, 0.00, -0.00, -1.00, 90.0, 73.9)">t</text><text xml:space="preserve" font-family="HelveticaNeue-Medium,Helvetica Neue" font-size="28.0" fill="#EAEAEA" transform="matrix(1.00, 0.00, -0.00, -1.00, 99.4, 73.9)">a</text><text xml:space="preserve" font-family="HelveticaNeue-Medium,Helvetica Neue" font-size="28.0" fill="#EAEAEA" transform="matrix(1.00, 0.00, -0.00, -1.00, 114.9, 73.9)">b</text><text xml:space="preserve" font-family="HelveticaNeue-Medium,Helvetica Neue" font-size="28.0" fill="#EAEAEA" transform="matrix(1.00, 0.00, -0.00, -1.00, 132.0, 73.9)">i</text><text xml:space="preserve" font-family="HelveticaNeue-Medium,Helvetica Neue" font-size="28.0" fill="#EAEAEA" transform="matrix(1.00, 0.00, -0.00, -1.00, 138.8, 73.9)">n</text><text xml:space="preserve" font-family="HelveticaNeue-Medium,Helvetica Neue" font-size="28.0" fill="#EAEAEA" transform="matrix(1.00, 0.00, -0.00, -1.00, 154.9, 73.9)">e</text><text xml:space="preserve" font-family="HelveticaNeue-Medium,Helvetica Neue" font-size="28.0" fill="#EAEAEA" transform="matrix(1.00, 0.00, -0.00, -1.00, 170.4, 73.9)"> </text><image xlink:href="../../45D8F2E9-8A36-4722-9787-ED31D1BA1F12/assets/AC0EC84606A4495AEC6D3E67EB11A96E.png" width="161.00" height="29.00" transform="matrix(1.00, 0.00, -0.00, -1.00, 4.0, 30.0)"></image><text xml:space="preserve" font-family="HelveticaNeue-Medium,Helvetica Neue" font-size="28.0" fill="#EAEAEA" transform="matrix(1.00, 0.00, -0.00, -1.00, 6.5, 7.9)">P</text><text xml:space="preserve" font-family="HelveticaNeue-Medium,Helvetica Neue" font-size="28.0" fill="#EAEAEA" transform="matrix(1.00, 0.00, -0.00, -1.00, 25.2, 7.9)">e</text><text xml:space="preserve" font-family="HelveticaNeue-Medium,Helvetica Neue" font-size="28.0" fill="#EAEAEA" transform="matrix(1.00, 0.00, -0.00, -1.00, 40.8, 7.9)">m</text><text xml:space="preserve" font-family="HelveticaNeue-Medium,Helvetica Neue" font-size="28.0" fill="#EAEAEA" transform="matrix(1.00, 0.00, -0.00, -1.00, 65.1, 7.9)">e</text><text xml:space="preserve" font-family="HelveticaNeue-Medium,Helvetica Neue" font-size="28.0" fill="#EAEAEA" transform="matrix(1.00, 0.00, -0.00, -1.00, 80.7, 7.9)">t</text><text xml:space="preserve" font-family="HelveticaNeue-Medium,Helvetica Neue" font-size="28.0" fill="#EAEAEA" transform="matrix(1.00, 0.00, -0.00, -1.00, 90.0, 7.9)">r</text><text xml:space="preserve" font-family="HelveticaNeue-Medium,Helvetica Neue" font-size="28.0" fill="#EAEAEA" transform="matrix(1.00, 0.00, -0.00, -1.00, 99.4, 7.9)">e</text><text xml:space="preserve" font-family="HelveticaNeue-Medium,Helvetica Neue" font-size="28.0" fill="#EAEAEA" transform="matrix(1.00, 0.00, -0.00, -1.00, 115.0, 7.9)">x</text><text xml:space="preserve" font-family="HelveticaNeue-Medium,Helvetica Neue" font-size="28.0" fill="#EAEAEA" transform="matrix(1.00, 0.00, -0.00, -1.00, 130.0, 7.9)">e</text><text xml:space="preserve" font-family="HelveticaNeue-Medium,Helvetica Neue" font-size="28.0" fill="#EAEAEA" transform="matrix(1.00, 0.00, -0.00, -1.00, 145.6, 7.9)">d</text></g></svg>