<?xml version="1.0" encoding="UTF-8" standalone="no"?><svg xmlns="http://www.w3.org/2000/svg" xmlns:xlink="http://www.w3.org/1999/xlink" clip-rule="evenodd" stroke-miterlimit="10" viewBox="0 0 392 285"><desc>SVG generated by Keynote</desc><defs></defs><g transform="matrix(1.00, 0.00, -0.00, -1.00, 0.0, 285.0)"><image xlink:href="E3321670981FECBEBE97E2CA8C570940.png" width="390.00" height="282.00" transform="matrix(1.00, 0.00, -0.00, -1.00, 1.2, 282.3)"></image><path d="M 22.0 0.0 L 26.0 0.0 L 283.6 0.0 L 287.6 0.0 " fill="none" stroke="#F15945" stroke-width="8.00" transform="matrix(0.95, 0.30, 0.30, -0.95, 45.9, 94.4)"></path><path d="M 320.8 166.0 L 345.7 190.4 L 311.3 195.7 Z M 320.8 166.0 " fill="#F15945"></path><path d="M 62.3 86.0 C 55.5 83.8 48.1 87.6 45.9 94.4 C 43.8 101.3 47.5 108.6 54.4 110.8 C 61.2 113.0 68.5 109.2 70.7 102.3 C 72.9 95.5 69.1 88.2 62.3 86.0 Z M 62.3 86.0 " fill="#F15945"></path></g></svg>