<?xml version="1.0" encoding="UTF-8" standalone="no"?><svg xmlns="http://www.w3.org/2000/svg" xmlns:xlink="http://www.w3.org/1999/xlink" clip-rule="evenodd" stroke-miterlimit="4.00" viewBox="0 0 1024 768"><desc>SVG generated by Keynote</desc><defs></defs><g transform="matrix(1.00, 0.00, -0.00, -1.00, 0.0, 768.0)"><path d="M 0.0 768.0 L 1024.0 768.0 L 1024.0 0.0 L 0.0 0.0 Z M 0.0 768.0 " fill="#FEFFFE"></path><g><clipPath id="clip-1099"><path d="M 424.0 732.0 L 1019.0 732.0 L 1019.0 767.0 L 424.0 767.0 Z M 424.0 732.0 "></path></clipPath><g clip-path="url(#clip-1099)"><image xlink:href="../../7655F8F4-5494-4A22-86C1-EACD354E7E83/assets/A999AD7AC8FA136F970BE321B9294DDB.png" width="1190.00" height="70.00" transform="matrix(0.50, 0.00, -0.00, -0.50, 424.0, 767.0)"></image></g></g><g><clipPath id="clip-1100"><path d="M 10.0 760.0 L 321.0 760.0 L 321.0 740.0 L 10.0 740.0 Z M 9.6 760.2 "></path></clipPath><g clip-path="url(#clip-1100)"><g><clipPath id="clip-1101"><path d="M -240.0 718.0 L 784.0 718.0 L 784.0 1135.0 L -240.0 1135.0 Z M -240.0 718.0 "></path></clipPath><g clip-path="url(#clip-1101)"><image xlink:href="../../7655F8F4-5494-4A22-86C1-EACD354E7E83/assets/7A214510C15E02D4BC4699A54AFC6D73.png" width="2690.00" height="1096.00" transform="matrix(0.38, 0.00, -0.00, -0.38, -240.0, 1135.0)"></image></g></g></g></g><g><clipPath id="clip-1102"><path d="M 111.0 185.0 L 914.0 185.0 L 914.0 696.0 L 111.0 696.0 Z M 111.0 185.0 "></path></clipPath><g clip-path="url(#clip-1102)"><image xlink:href="F12BBCCAF60FED5E6BAF352161742D43.png" width="1606.00" height="1022.00" transform="matrix(0.50, 0.00, -0.00, -0.50, 111.0, 696.0)"></image></g></g><image xlink:href="072D3523EB0C203A1A36F3ADC14A83CE.png" width="847.00" height="561.00" transform="matrix(1.00, 0.00, -0.00, 1.00, 89.0, 161.0)"></image></g></svg>