<?xml version="1.0" encoding="UTF-8" standalone="no"?><svg xmlns="http://www.w3.org/2000/svg" xmlns:xlink="http://www.w3.org/1999/xlink" clip-rule="evenodd" stroke-miterlimit="4.00" viewBox="0 0 1024 768"><desc>SVG generated by Keynote</desc><defs></defs><g transform="matrix(1.00, 0.00, -0.00, -1.00, 0.0, 768.0)"><path d="M 0.0 768.0 L 1024.0 768.0 L 1024.0 0.0 L 0.0 0.0 Z M 0.0 768.0 " fill="#FEFFFE"></path><g><clipPath id="clip-1002"><path d="M 424.0 732.0 L 1019.0 732.0 L 1019.0 767.0 L 424.0 767.0 Z M 424.0 732.0 "></path></clipPath><g clip-path="url(#clip-1002)"><image xlink:href="../../7655F8F4-5494-4A22-86C1-EACD354E7E83/assets/A999AD7AC8FA136F970BE321B9294DDB.png" width="1190.00" height="70.00" transform="matrix(0.50, 0.00, -0.00, -0.50, 424.0, 767.0)"></image></g></g><g><clipPath id="clip-1003"><path d="M 10.0 760.0 L 321.0 760.0 L 321.0 740.0 L 10.0 740.0 Z M 9.6 760.2 "></path></clipPath><g clip-path="url(#clip-1003)"><g><clipPath id="clip-1004"><path d="M -240.0 718.0 L 784.0 718.0 L 784.0 1135.0 L -240.0 1135.0 Z M -240.0 718.0 "></path></clipPath><g clip-path="url(#clip-1004)"><image xlink:href="../../7655F8F4-5494-4A22-86C1-EACD354E7E83/assets/7A214510C15E02D4BC4699A54AFC6D73.png" width="2690.00" height="1096.00" transform="matrix(0.38, 0.00, -0.00, -0.38, -240.0, 1135.0)"></image></g></g></g></g><g><clipPath id="clip-1005"><path d="M 708.4 388.8 L 938.0 388.9 L 938.0 384.9 L 708.4 384.8 Z M 708.4 388.8 "></path></clipPath><g clip-path="url(#clip-1005)"><path d="M 0.0 0.0 L 227.6 0.0 " fill="none" stroke="#000000" stroke-width="2.00" transform="matrix(1.00, 0.00, 0.00, -1.00, 709.4, 386.8)"></path></g></g><g><clipPath id="clip-1006"><path d="M 923.7 374.9 L 923.7 532.4 L 962.8 532.4 L 962.8 374.9 Z M 923.7 374.9 "></path></clipPath><g clip-path="url(#clip-1006)"><path d="M 949.9 503.5 L 960.0 503.5 L 943.2 529.6 L 926.5 503.5 L 936.6 503.5 L 936.6 376.9 L 949.9 376.9 Z M 949.9 503.5 " fill="#FEFFFE"></path><path d="M 126.6 23.4 L 126.6 33.4 L 152.7 16.7 L 126.6 0.0 L 126.6 10.1 L 0.0 10.1 L 0.0 23.4 Z M 126.6 23.4 " fill="none" stroke="#000000" stroke-width="2.00" transform="matrix(0.00, 1.00, 1.00, 0.00, 926.5, 376.9)"></path></g></g><g><clipPath id="clip-1007"><path d="M 21.3 537.8 L 1002.7 537.8 L 1002.7 600.4 L 21.3 600.4 Z M 21.3 537.8 "></path></clipPath><g clip-path="url(#clip-1007)"><path d="M 959.3 538.8 L 959.3 538.8 L 1001.7 569.1 L 959.3 599.4 L 959.3 599.4 L 22.3 599.4 L 22.3 538.8 Z M 959.3 538.8 " fill="#325D6A"></path></g></g><g><clipPath id="clip-1008"><path d="M 15.7 535.8 L 1001.7 535.8 L 1001.7 601.0 L 15.7 601.0 Z M 15.7 535.8 "></path></clipPath><g clip-path="url(#clip-1008)"><text xml:space="preserve" font-family="HelveticaNeue-Light" font-size="36.0" fill="#FFFFFF" transform="matrix(1.00, 0.00, -0.00, -1.00, 26.0, 555.0)">-</text><text xml:space="preserve" font-family="HelveticaNeue-Light" font-size="36.0" fill="#FFFFFF" transform="matrix(1.00, 0.00, -0.00, -1.00, 39.3, 555.0)">7</text><text xml:space="preserve" font-family="HelveticaNeue-Light" font-size="36.0" fill="#FFFFFF" transform="matrix(1.00, 0.00, -0.00, -1.00, 59.3, 555.0)"> </text><text xml:space="preserve" font-family="HelveticaNeue-Light" font-size="36.0" fill="#FFFFFF" transform="matrix(1.00, 0.00, -0.00, -1.00, 69.3, 555.0)">-</text><text xml:space="preserve" font-family="HelveticaNeue-Light" font-size="36.0" fill="#FFFFFF" transform="matrix(1.00, 0.00, -0.00, -1.00, 82.7, 555.0)">6</text><text xml:space="preserve" font-family="HelveticaNeue-Light" font-size="36.0" fill="#FFFFFF" transform="matrix(1.00, 0.00, -0.00, -1.00, 102.7, 555.0)"> </text><text xml:space="preserve" font-family="HelveticaNeue-Light" font-size="36.0" fill="#FFFFFF" transform="matrix(1.00, 0.00, -0.00, -1.00, 112.7, 555.0)"> </text><text xml:space="preserve" font-family="HelveticaNeue-Light" font-size="36.0" fill="#FFFFFF" transform="matrix(1.00, 0.00, -0.00, -1.00, 122.7, 555.0)">-</text><text xml:space="preserve" font-family="HelveticaNeue-Light" font-size="36.0" fill="#FFFFFF" transform="matrix(1.00, 0.00, -0.00, -1.00, 136.0, 555.0)">5</text><text xml:space="preserve" font-family="HelveticaNeue-Light" font-size="36.0" fill="#FFFFFF" transform="matrix(1.00, 0.00, -0.00, -1.00, 156.0, 555.0)"> </text><text xml:space="preserve" font-family="HelveticaNeue-Light" font-size="36.0" fill="#FFFFFF" transform="matrix(1.00, 0.00, -0.00, -1.00, 166.0, 555.0)"> </text><text xml:space="preserve" font-family="HelveticaNeue-Light" font-size="36.0" fill="#FFFFFF" transform="matrix(1.00, 0.00, -0.00, -1.00, 176.0, 555.0)">-</text><text xml:space="preserve" font-family="HelveticaNeue-Light" font-size="36.0" fill="#FFFFFF" transform="matrix(1.00, 0.00, -0.00, -1.00, 189.4, 555.0)">4</text><text xml:space="preserve" font-family="HelveticaNeue-Light" font-size="36.0" fill="#FFFFFF" transform="matrix(1.00, 0.00, -0.00, -1.00, 209.4, 555.0)"> </text><text xml:space="preserve" font-family="HelveticaNeue-Light" font-size="36.0" fill="#FFFFFF" transform="matrix(1.00, 0.00, -0.00, -1.00, 219.4, 555.0)"> </text><text xml:space="preserve" font-family="HelveticaNeue-Light" font-size="36.0" fill="#FFFFFF" transform="matrix(1.00, 0.00, -0.00, -1.00, 229.4, 555.0)">-</text><text xml:space="preserve" font-family="HelveticaNeue-Light" font-size="36.0" fill="#FFFFFF" transform="matrix(1.00, 0.00, -0.00, -1.00, 242.7, 555.0)">3</text><text xml:space="preserve" font-family="HelveticaNeue-Light" font-size="36.0" fill="#FFFFFF" transform="matrix(1.00, 0.00, -0.00, -1.00, 262.7, 555.0)"> </text><text xml:space="preserve" font-family="HelveticaNeue-Light" font-size="36.0" fill="#FFFFFF" transform="matrix(1.00, 0.00, -0.00, -1.00, 272.7, 555.0)"> </text><text xml:space="preserve" font-family="HelveticaNeue-Light" font-size="36.0" fill="#FFFFFF" transform="matrix(1.00, 0.00, -0.00, -1.00, 282.8, 555.0)">-</text><text xml:space="preserve" font-family="HelveticaNeue-Light" font-size="36.0" fill="#FFFFFF" transform="matrix(1.00, 0.00, -0.00, -1.00, 296.1, 555.0)">2</text><text xml:space="preserve" font-family="HelveticaNeue-Light" font-size="36.0" fill="#FFFFFF" transform="matrix(1.00, 0.00, -0.00, -1.00, 316.1, 555.0)"> </text><text xml:space="preserve" font-family="HelveticaNeue-Light" font-size="36.0" fill="#FFFFFF" transform="matrix(1.00, 0.00, -0.00, -1.00, 326.1, 555.0)"> </text><text xml:space="preserve" font-family="HelveticaNeue-Light" font-size="36.0" fill="#FFFFFF" transform="matrix(1.00, 0.00, -0.00, -1.00, 336.1, 555.0)">-</text><text xml:space="preserve" font-family="HelveticaNeue-Light" font-size="36.0" fill="#FFFFFF" transform="matrix(1.00, 0.00, -0.00, -1.00, 349.4, 555.0)">1</text><text xml:space="preserve" font-family="HelveticaNeue-Light" font-size="36.0" fill="#FFFFFF" transform="matrix(1.00, 0.00, -0.00, -1.00, 369.4, 555.0)"> </text><text xml:space="preserve" font-family="HelveticaNeue-Light" font-size="36.0" fill="#FFFFFF" transform="matrix(1.00, 0.00, -0.00, -1.00, 379.4, 555.0)"> </text><text xml:space="preserve" font-family="HelveticaNeue-Light" font-size="36.0" fill="#FFFFFF" transform="matrix(1.00, 0.00, -0.00, -1.00, 389.5, 555.0)">•</text><text xml:space="preserve" font-family="HelveticaNeue-Light" font-size="36.0" fill="#FFFFFF" transform="matrix(1.00, 0.00, -0.00, -1.00, 407.5, 555.0)">0</text><text xml:space="preserve" font-family="HelveticaNeue-Light" font-size="36.0" fill="#FFFFFF" transform="matrix(1.00, 0.00, -0.00, -1.00, 427.5, 555.0)"> </text><text xml:space="preserve" font-family="HelveticaNeue-Light" font-size="36.0" fill="#FFFFFF" transform="matrix(1.00, 0.00, -0.00, -1.00, 437.5, 555.0)"> </text><text xml:space="preserve" font-family="HelveticaNeue-Light" font-size="36.0" fill="#FFFFFF" transform="matrix(1.00, 0.00, -0.00, -1.00, 447.5, 555.0)">+</text><text xml:space="preserve" font-family="HelveticaNeue-Light" font-size="36.0" fill="#FFFFFF" transform="matrix(1.00, 0.00, -0.00, -1.00, 469.1, 555.0)">1</text><text xml:space="preserve" font-family="HelveticaNeue-Light" font-size="36.0" fill="#FFFFFF" transform="matrix(1.00, 0.00, -0.00, -1.00, 489.1, 555.0)"> </text><text xml:space="preserve" font-family="HelveticaNeue-Light" font-size="36.0" fill="#FFFFFF" transform="matrix(1.00, 0.00, -0.00, -1.00, 499.1, 555.0)"> </text><text xml:space="preserve" font-family="HelveticaNeue-Light" font-size="36.0" fill="#FFFFFF" transform="matrix(1.00, 0.00, -0.00, -1.00, 509.1, 555.0)">+</text><text xml:space="preserve" font-family="HelveticaNeue-Light" font-size="36.0" fill="#FFFFFF" transform="matrix(1.00, 0.00, -0.00, -1.00, 530.7, 555.0)">2</text><text xml:space="preserve" font-family="HelveticaNeue-Light" font-size="36.0" fill="#FFFFFF" transform="matrix(1.00, 0.00, -0.00, -1.00, 550.7, 555.0)"> </text><text xml:space="preserve" font-family="HelveticaNeue-Light" font-size="36.0" fill="#FFFFFF" transform="matrix(1.00, 0.00, -0.00, -1.00, 560.7, 555.0)"> </text><text xml:space="preserve" font-family="HelveticaNeue-Light" font-size="36.0" fill="#FFFFFF" transform="matrix(1.00, 0.00, -0.00, -1.00, 570.8, 555.0)">+</text><text xml:space="preserve" font-family="HelveticaNeue-Light" font-size="36.0" fill="#FFFFFF" transform="matrix(1.00, 0.00, -0.00, -1.00, 592.4, 555.0)">3</text><text xml:space="preserve" font-family="HelveticaNeue-Light" font-size="36.0" fill="#FFFFFF" transform="matrix(1.00, 0.00, -0.00, -1.00, 612.4, 555.0)"> </text><text xml:space="preserve" font-family="HelveticaNeue-Light" font-size="36.0" fill="#FFFFFF" transform="matrix(1.00, 0.00, -0.00, -1.00, 622.4, 555.0)"> </text><text xml:space="preserve" font-family="HelveticaNeue-Light" font-size="36.0" fill="#FFFFFF" transform="matrix(1.00, 0.00, -0.00, -1.00, 632.4, 555.0)">+</text><text xml:space="preserve" font-family="HelveticaNeue-Light" font-size="36.0" fill="#FFFFFF" transform="matrix(1.00, 0.00, -0.00, -1.00, 654.0, 555.0)">4</text><text xml:space="preserve" font-family="HelveticaNeue-Light" font-size="36.0" fill="#FFFFFF" transform="matrix(1.00, 0.00, -0.00, -1.00, 674.0, 555.0)"> </text><text xml:space="preserve" font-family="HelveticaNeue-Light" font-size="36.0" fill="#FFFFFF" transform="matrix(1.00, 0.00, -0.00, -1.00, 684.0, 555.0)"> </text><text xml:space="preserve" font-family="HelveticaNeue-Light" font-size="36.0" fill="#FFFFFF" transform="matrix(1.00, 0.00, -0.00, -1.00, 694.0, 555.0)">+</text><text xml:space="preserve" font-family="HelveticaNeue-Light" font-size="36.0" fill="#FFFFFF" transform="matrix(1.00, 0.00, -0.00, -1.00, 715.6, 555.0)">5</text><text xml:space="preserve" font-family="HelveticaNeue-Light" font-size="36.0" fill="#FFFFFF" transform="matrix(1.00, 0.00, -0.00, -1.00, 735.6, 555.0)"> </text><text xml:space="preserve" font-family="HelveticaNeue-Light" font-size="36.0" fill="#FFFFFF" transform="matrix(1.00, 0.00, -0.00, -1.00, 745.6, 555.0)"> </text><text xml:space="preserve" font-family="HelveticaNeue-Light" font-size="36.0" fill="#FFFFFF" transform="matrix(1.00, 0.00, -0.00, -1.00, 755.6, 555.0)"> </text><text xml:space="preserve" font-family="HelveticaNeue-Light" font-size="36.0" fill="#FFFFFF" transform="matrix(1.00, 0.00, -0.00, -1.00, 765.7, 555.0)"> </text><text xml:space="preserve" font-family="HelveticaNeue-Light" font-size="36.0" fill="#FFFFFF" transform="matrix(1.00, 0.00, -0.00, -1.00, 775.7, 555.0)"> </text><text xml:space="preserve" font-family="HelveticaNeue-Light" font-size="36.0" fill="#FFFFFF" transform="matrix(1.00, 0.00, -0.00, -1.00, 785.7, 555.0)">3</text><text xml:space="preserve" font-family="HelveticaNeue-Light" font-size="36.0" fill="#FFFFFF" transform="matrix(1.00, 0.00, -0.00, -1.00, 805.7, 555.0)">5</text><text xml:space="preserve" font-family="HelveticaNeue-Light" font-size="36.0" fill="#FFFFFF" transform="matrix(1.00, 0.00, -0.00, -1.00, 825.7, 555.0)"> </text><text xml:space="preserve" font-family="HelveticaNeue-Light" font-size="36.0" fill="#FFFFFF" transform="matrix(1.00, 0.00, -0.00, -1.00, 835.7, 555.0)"> </text><text xml:space="preserve" font-family="HelveticaNeue-Light" font-size="36.0" fill="#FFFFFF" transform="matrix(1.00, 0.00, -0.00, -1.00, 845.7, 555.0)"> </text><text xml:space="preserve" font-family="HelveticaNeue-Light" font-size="36.0" fill="#FFFFFF" transform="matrix(1.00, 0.00, -0.00, -1.00, 855.7, 555.0)"> </text><text xml:space="preserve" font-family="HelveticaNeue-Light" font-size="36.0" fill="#FFFFFF" transform="matrix(1.00, 0.00, -0.00, -1.00, 865.7, 555.0)"> </text><text xml:space="preserve" font-family="HelveticaNeue-Light" font-size="36.0" fill="#FFFFFF" transform="matrix(1.00, 0.00, -0.00, -1.00, 875.7, 555.0)"> </text><text xml:space="preserve" font-family="HelveticaNeue-Light" font-size="36.0" fill="#FFFFFF" transform="matrix(1.00, 0.00, -0.00, -1.00, 885.8, 555.0)">1</text><text xml:space="preserve" font-family="HelveticaNeue-Light" font-size="36.0" fill="#FFFFFF" transform="matrix(1.00, 0.00, -0.00, -1.00, 905.8, 555.0)">8</text><text xml:space="preserve" font-family="HelveticaNeue-Light" font-size="36.0" fill="#FFFFFF" transform="matrix(1.00, 0.00, -0.00, -1.00, 925.8, 555.0)">0</text></g></g><g><clipPath id="clip-1009"><path d="M 850.2 646.2 L 850.2 489.4 L 630.4 489.4 L 630.4 646.2 Z M 850.2 646.2 "></path></clipPath><g clip-path="url(#clip-1009)"><text xml:space="preserve" font-family="AppleSymbols" font-size="150.0" fill="#FEFFFE" transform="matrix(0.00, -1.00, -1.00, -0.00, 715.0, 611.0)">⌁</text></g></g><g><clipPath id="clip-1010"><path d="M 943.8 646.2 L 943.8 489.4 L 724.1 489.4 L 724.1 646.2 Z M 943.8 646.2 "></path></clipPath><g clip-path="url(#clip-1010)"><text xml:space="preserve" font-family="AppleSymbols" font-size="150.0" fill="#FEFFFE" transform="matrix(0.00, -1.00, -1.00, -0.00, 808.0, 611.0)">⌁</text></g></g><g><clipPath id="clip-1011"><path d="M 114.9 676.8 L 114.9 600.7 L 75.8 600.7 L 75.8 676.8 Z M 114.9 676.8 "></path></clipPath><g clip-path="url(#clip-1011)"><path d="M 88.7 629.6 L 78.6 629.6 L 95.3 603.6 L 112.0 629.6 L 102.0 629.6 L 102.0 674.8 L 88.7 674.8 Z M 88.7 629.6 " fill="#FEFFFE"></path><path d="M 45.1 23.4 L 45.1 33.4 L 71.2 16.7 L 45.1 0.0 L 45.1 10.1 L 0.0 10.1 L 0.0 23.4 Z M 45.1 23.4 " fill="none" stroke="#163D40" stroke-width="2.00" transform="matrix(0.00, -1.00, -1.00, 0.00, 112.0, 674.8)"></path></g></g><g><clipPath id="clip-1012"><path d="M 73.4 671.3 L 117.2 671.3 L 117.2 736.8 L 73.4 736.8 Z M 73.4 671.3 "></path></clipPath><g clip-path="url(#clip-1012)"><text xml:space="preserve" font-family="HelveticaNeue-Bold" font-weight="bold" font-size="36.0" fill="#000000" transform="matrix(1.00, 0.00, -0.00, -1.00, 85.0, 691.0)">F</text></g></g><g><clipPath id="clip-1013"><path d="M 165.7 676.8 L 165.7 600.7 L 126.6 600.7 L 126.6 676.8 Z M 165.7 676.8 "></path></clipPath><g clip-path="url(#clip-1013)"><path d="M 139.5 629.6 L 129.5 629.6 L 146.2 603.6 L 162.9 629.6 L 152.8 629.6 L 152.8 674.8 L 139.5 674.8 Z M 139.5 629.6 " fill="#FEFFFE"></path><path d="M 45.1 23.4 L 45.1 33.4 L 71.2 16.7 L 45.1 0.0 L 45.1 10.1 L 0.0 10.1 L 0.0 23.4 Z M 45.1 23.4 " fill="none" stroke="#163D40" stroke-width="2.00" transform="matrix(0.00, -1.00, -1.00, 0.00, 162.9, 674.8)"></path></g></g><g><clipPath id="clip-1014"><path d="M 124.3 671.3 L 168.1 671.3 L 168.1 736.8 L 124.3 736.8 Z M 124.3 671.3 "></path></clipPath><g clip-path="url(#clip-1014)"><text xml:space="preserve" font-family="HelveticaNeue-Bold" font-weight="bold" font-size="36.0" fill="#000000" transform="matrix(1.00, 0.00, -0.00, -1.00, 136.0, 691.0)">F</text></g></g><g><clipPath id="clip-1015"><path d="M 220.8 676.8 L 220.8 600.7 L 181.8 600.7 L 181.8 676.8 Z M 220.8 676.8 "></path></clipPath><g clip-path="url(#clip-1015)"><path d="M 194.7 629.6 L 184.6 629.6 L 201.3 603.6 L 218.0 629.6 L 207.9 629.6 L 207.9 674.8 L 194.7 674.8 Z M 194.7 629.6 " fill="#FEFFFE"></path><path d="M 45.1 23.4 L 45.1 33.4 L 71.2 16.7 L 45.1 0.0 L 45.1 10.1 L 0.0 10.1 L 0.0 23.4 Z M 45.1 23.4 " fill="none" stroke="#163D40" stroke-width="2.00" transform="matrix(0.00, -1.00, -1.00, 0.00, 218.0, 674.8)"></path></g></g><g><clipPath id="clip-1016"><path d="M 179.4 671.3 L 223.2 671.3 L 223.2 736.8 L 179.4 736.8 Z M 179.4 671.3 "></path></clipPath><g clip-path="url(#clip-1016)"><text xml:space="preserve" font-family="HelveticaNeue-Bold" font-weight="bold" font-size="36.0" fill="#000000" transform="matrix(1.00, 0.00, -0.00, -1.00, 191.0, 691.0)">F</text></g></g><g><clipPath id="clip-1017"><path d="M 271.7 676.8 L 271.7 600.7 L 232.6 600.7 L 232.6 676.8 Z M 271.7 676.8 "></path></clipPath><g clip-path="url(#clip-1017)"><path d="M 245.5 629.6 L 235.4 629.6 L 252.2 603.6 L 268.9 629.6 L 258.8 629.6 L 258.8 674.8 L 245.5 674.8 Z M 245.5 629.6 " fill="#FEFFFE"></path><path d="M 45.1 23.4 L 45.1 33.4 L 71.2 16.7 L 45.1 0.0 L 45.1 10.1 L 0.0 10.1 L 0.0 23.4 Z M 45.1 23.4 " fill="none" stroke="#163D40" stroke-width="2.00" transform="matrix(0.00, -1.00, -1.00, 0.00, 268.9, 674.8)"></path></g></g><g><clipPath id="clip-1018"><path d="M 230.2 671.3 L 274.1 671.3 L 274.1 736.8 L 230.2 736.8 Z M 230.2 671.3 "></path></clipPath><g clip-path="url(#clip-1018)"><text xml:space="preserve" font-family="HelveticaNeue-Bold" font-weight="bold" font-size="36.0" fill="#000000" transform="matrix(1.00, 0.00, -0.00, -1.00, 241.0, 691.0)">F</text></g></g><g><clipPath id="clip-1019"><path d="M 326.8 676.8 L 326.8 600.7 L 287.7 600.7 L 287.7 676.8 Z M 326.8 676.8 "></path></clipPath><g clip-path="url(#clip-1019)"><path d="M 300.6 629.6 L 290.6 629.6 L 307.3 603.6 L 324.0 629.6 L 313.9 629.6 L 313.9 674.8 L 300.6 674.8 Z M 300.6 629.6 " fill="#FEFFFE"></path><path d="M 45.1 23.4 L 45.1 33.4 L 71.2 16.7 L 45.1 0.0 L 45.1 10.1 L 0.0 10.1 L 0.0 23.4 Z M 45.1 23.4 " fill="none" stroke="#163D40" stroke-width="2.00" transform="matrix(0.00, -1.00, -1.00, 0.00, 324.0, 674.8)"></path></g></g><g><clipPath id="clip-1020"><path d="M 285.4 671.3 L 329.2 671.3 L 329.2 736.8 L 285.4 736.8 Z M 285.4 671.3 "></path></clipPath><g clip-path="url(#clip-1020)"><text xml:space="preserve" font-family="HelveticaNeue-Bold" font-weight="bold" font-size="36.0" fill="#000000" transform="matrix(1.00, 0.00, -0.00, -1.00, 297.0, 691.0)">F</text></g></g><g><clipPath id="clip-1021"><path d="M 381.9 676.8 L 381.9 600.7 L 342.9 600.7 L 342.9 676.8 Z M 381.9 676.8 "></path></clipPath><g clip-path="url(#clip-1021)"><path d="M 355.8 629.6 L 345.7 629.6 L 362.4 603.6 L 379.1 629.6 L 369.0 629.6 L 369.0 674.8 L 355.8 674.8 Z M 355.8 629.6 " fill="#FEFB00"></path><path d="M 45.1 23.4 L 45.1 33.4 L 71.2 16.7 L 45.1 0.0 L 45.1 10.1 L 0.0 10.1 L 0.0 23.4 Z M 45.1 23.4 " fill="none" stroke="#000000" stroke-width="2.00" transform="matrix(0.00, -1.00, -1.00, 0.00, 379.1, 674.8)"></path></g></g><g><clipPath id="clip-1022"><path d="M 325.5 651.0 L 399.3 651.0 L 399.3 738.5 L 325.5 738.5 Z M 325.5 651.0 "></path></clipPath><g clip-path="url(#clip-1022)"><text xml:space="preserve" font-family="AppleSymbols" font-size="60.0" fill="#000000" transform="matrix(1.00, 0.00, -0.00, -1.00, 340.0, 685.0)">☢</text></g></g><g><clipPath id="clip-1023"><path d="M 611.3 676.8 L 611.3 600.7 L 572.2 600.7 L 572.2 676.8 Z M 611.3 676.8 "></path></clipPath><g clip-path="url(#clip-1023)"><path d="M 585.1 629.6 L 575.1 629.6 L 591.8 603.6 L 608.5 629.6 L 598.4 629.6 L 598.4 674.8 L 585.1 674.8 Z M 585.1 629.6 " fill="#A85648"></path><path d="M 45.1 23.4 L 45.1 33.4 L 71.2 16.7 L 45.1 0.0 L 45.1 10.1 L 0.0 10.1 L 0.0 23.4 Z M 45.1 23.4 " fill="none" stroke="#763A33" stroke-width="2.00" transform="matrix(0.00, -1.00, -1.00, 0.00, 608.5, 674.8)"></path></g></g><g><clipPath id="clip-1024"><path d="M 557.9 671.3 L 625.7 671.3 L 625.7 736.8 L 557.9 736.8 Z M 557.9 671.3 "></path></clipPath><g clip-path="url(#clip-1024)"><text xml:space="preserve" font-family="HelveticaNeue-Bold" font-weight="bold" font-size="36.0" fill="#000000" transform="matrix(1.00, 0.00, -0.00, -1.00, 569.0, 691.0)">C</text><text xml:space="preserve" font-family="HelveticaNeue-Bold" font-weight="bold" font-size="36.0" fill="#000000" transform="matrix(1.00, 0.00, -0.00, -1.00, 595.7, 691.0)">y</text></g></g><g><clipPath id="clip-1025"><path d="M 75.8 461.1 L 75.8 537.1 L 114.9 537.1 L 114.9 461.1 Z M 75.8 461.1 "></path></clipPath><g clip-path="url(#clip-1025)"><path d="M 102.0 508.2 L 112.0 508.2 L 95.3 534.3 L 78.6 508.2 L 88.7 508.2 L 88.7 463.1 L 102.0 463.1 Z M 102.0 508.2 " fill="#DBA486"></path><path d="M 45.1 23.4 L 45.1 33.4 L 71.2 16.7 L 45.1 0.0 L 45.1 10.1 L 0.0 10.1 L 0.0 23.4 Z M 45.1 23.4 " fill="none" stroke="#763A33" stroke-width="2.00" transform="matrix(0.00, 1.00, 1.00, 0.00, 78.6, 463.1)"></path></g></g><g><clipPath id="clip-1026"><path d="M 61.4 400.0 L 129.2 400.0 L 129.2 465.5 L 61.4 465.5 Z M 61.4 400.0 "></path></clipPath><g clip-path="url(#clip-1026)"><text xml:space="preserve" font-family="HelveticaNeue-Bold" font-weight="bold" font-size="36.0" fill="#000000" transform="matrix(1.00, 0.00, -0.00, -1.00, 73.0, 420.0)">C</text><text xml:space="preserve" font-family="HelveticaNeue-Bold" font-weight="bold" font-size="36.0" fill="#000000" transform="matrix(1.00, 0.00, -0.00, -1.00, 99.7, 420.0)">y</text></g></g><g><clipPath id="clip-1027"><path d="M 126.6 460.1 L 126.6 536.1 L 165.7 536.1 L 165.7 460.1 Z M 126.6 460.1 "></path></clipPath><g clip-path="url(#clip-1027)"><path d="M 152.8 507.2 L 162.9 507.2 L 146.2 533.3 L 129.5 507.2 L 139.5 507.2 L 139.5 462.1 L 152.8 462.1 Z M 152.8 507.2 " fill="#DBA486"></path><path d="M 45.1 23.4 L 45.1 33.4 L 71.2 16.7 L 45.1 0.0 L 45.1 10.1 L 0.0 10.1 L 0.0 23.4 Z M 45.1 23.4 " fill="none" stroke="#763A33" stroke-width="2.00" transform="matrix(0.00, 1.00, 1.00, 0.00, 129.5, 462.1)"></path></g></g><g><clipPath id="clip-1028"><path d="M 112.3 399.0 L 180.1 399.0 L 180.1 464.5 L 112.3 464.5 Z M 112.3 399.0 "></path></clipPath><g clip-path="url(#clip-1028)"><text xml:space="preserve" font-family="HelveticaNeue-Bold" font-weight="bold" font-size="36.0" fill="#000000" transform="matrix(1.00, 0.00, -0.00, -1.00, 123.0, 419.0)">C</text><text xml:space="preserve" font-family="HelveticaNeue-Bold" font-weight="bold" font-size="36.0" fill="#000000" transform="matrix(1.00, 0.00, -0.00, -1.00, 149.7, 419.0)">y</text></g></g><g><clipPath id="clip-1029"><path d="M 437.1 675.9 L 437.1 599.8 L 398.0 599.8 L 398.0 675.9 Z M 437.1 675.9 "></path></clipPath><g clip-path="url(#clip-1029)"><path d="M 410.9 628.8 L 400.8 628.8 L 417.5 602.7 L 434.2 628.8 L 424.2 628.8 L 424.2 673.9 L 410.9 673.9 Z M 410.9 628.8 " fill="#FF2600"></path><path d="M 45.1 23.4 L 45.1 33.4 L 71.2 16.7 L 45.1 0.0 L 45.1 10.1 L 0.0 10.1 L 0.0 23.4 Z M 45.1 23.4 " fill="none" stroke="#163D40" stroke-width="2.00" transform="matrix(0.00, -1.00, -1.00, 0.00, 434.2, 673.9)"></path></g></g><g><clipPath id="clip-1030"><path d="M 724.8 675.9 L 724.8 599.8 L 685.7 599.8 L 685.7 675.9 Z M 724.8 675.9 "></path></clipPath><g clip-path="url(#clip-1030)"><path d="M 698.6 628.8 L 688.5 628.8 L 705.2 602.7 L 721.9 628.8 L 711.9 628.8 L 711.9 673.9 L 698.6 673.9 Z M 698.6 628.8 " fill="#FEFFFE"></path><path d="M 45.1 23.4 L 45.1 33.4 L 71.2 16.7 L 45.1 0.0 L 45.1 10.1 L 0.0 10.1 L 0.0 23.4 Z M 45.1 23.4 " fill="none" stroke="#163D40" stroke-width="2.00" transform="matrix(0.00, -1.00, -1.00, 0.00, 721.9, 673.9)"></path></g></g><g><clipPath id="clip-1031"><path d="M 696.7 636.1 L 845.2 636.1 L 845.2 689.0 L 696.7 689.0 Z M 696.7 636.1 "></path></clipPath><g clip-path="url(#clip-1031)"><path d="M 698.7 687.0 L 843.2 687.0 L 843.2 638.1 L 698.7 638.1 Z M 698.7 687.0 " fill="#FEFFFE"></path><path d="M 0.0 0.0 L 144.5 0.0 L 144.5 49.0 L 0.0 49.0 Z M 0.0 0.0 " fill="none" stroke="#163D40" stroke-width="2.00" transform="matrix(1.00, 0.00, 0.00, -1.00, 698.7, 687.0)"></path></g></g><g><clipPath id="clip-1032"><path d="M 693.0 643.0 L 848.9 643.0 L 848.9 682.0 L 693.0 682.0 Z M 693.0 643.0 "></path></clipPath><g clip-path="url(#clip-1032)"><text xml:space="preserve" font-family="HelveticaNeue-Bold" font-weight="bold" font-size="36.0" fill="#000000" transform="matrix(1.00, 0.00, -0.00, -1.00, 714.0, 647.0)">G</text><text xml:space="preserve" font-family="HelveticaNeue-Bold" font-weight="bold" font-size="36.0" fill="#000000" transform="matrix(1.00, 0.00, -0.00, -1.00, 741.3, 647.0)">-</text><text xml:space="preserve" font-family="HelveticaNeue-Bold" font-weight="bold" font-size="36.0" fill="#000000" transform="matrix(1.00, 0.00, -0.00, -1.00, 756.0, 647.0)">C</text><text xml:space="preserve" font-family="HelveticaNeue-Bold" font-weight="bold" font-size="36.0" fill="#000000" transform="matrix(1.00, 0.00, -0.00, -1.00, 782.7, 647.0)">S</text><text xml:space="preserve" font-family="HelveticaNeue-Bold" font-weight="bold" font-size="36.0" fill="#000000" transform="matrix(1.00, 0.00, -0.00, -1.00, 806.0, 647.0)">F</text></g></g><g><clipPath id="clip-1033"><path d="M 698.7 626.0 L 712.3 626.0 L 712.3 649.7 L 698.7 649.7 Z M 698.7 626.0 "></path></clipPath><g clip-path="url(#clip-1033)"><path d="M 699.7 648.7 L 711.3 648.7 L 711.3 627.0 L 699.7 627.0 Z M 699.7 648.7 " fill="#FEFFFE"></path></g></g><g><clipPath id="clip-1034"><path d="M 783.4 676.6 L 860.4 676.6 L 860.4 713.6 L 783.4 713.6 Z M 783.4 676.6 "></path></clipPath><g clip-path="url(#clip-1034)"><path d="M 784.4 712.6 L 859.4 712.6 L 859.4 677.6 L 784.4 677.6 Z M 784.4 712.6 " fill="#FEFFFE"></path></g></g><g><clipPath id="clip-1035"><path d="M 783.4 603.3 L 860.4 603.3 L 860.4 640.3 L 783.4 640.3 Z M 783.4 603.3 "></path></clipPath><g clip-path="url(#clip-1035)"><path d="M 784.4 639.3 L 859.4 639.3 L 859.4 604.3 L 784.4 604.3 Z M 784.4 639.3 " fill="#FEFFFE"></path></g></g><g><clipPath id="clip-1036"><path d="M 828.1 615.1 L 905.1 615.1 L 905.1 691.2 L 828.1 691.2 Z M 828.1 615.1 "></path></clipPath><g clip-path="url(#clip-1036)"><path d="M 829.1 690.2 L 904.1 690.2 L 904.1 616.1 L 829.1 616.1 Z M 829.1 690.2 " fill="#FEFFFE"></path></g></g><g><clipPath id="clip-1037"><path d="M 683.8 379.6 L 683.8 537.1 L 722.8 537.1 L 722.8 379.6 Z M 683.8 379.6 "></path></clipPath><g clip-path="url(#clip-1037)"><path d="M 710.0 508.2 L 720.0 508.2 L 703.3 534.3 L 686.6 508.2 L 696.7 508.2 L 696.7 381.6 L 710.0 381.6 Z M 710.0 508.2 " fill="#FEFFFE"></path><path d="M 126.6 23.4 L 126.6 33.4 L 152.7 16.7 L 126.6 0.0 L 126.6 10.1 L 0.0 10.1 L 0.0 23.4 Z M 126.6 23.4 " fill="none" stroke="#000000" stroke-width="2.00" transform="matrix(0.00, 1.00, 1.00, 0.00, 686.6, 381.6)"></path></g></g><g><clipPath id="clip-1038"><path d="M 794.9 446.3 L 794.9 537.1 L 834.0 537.1 L 834.0 446.3 Z M 794.9 446.3 "></path></clipPath><g clip-path="url(#clip-1038)"><path d="M 821.1 508.2 L 831.1 508.2 L 814.4 534.3 L 797.7 508.2 L 807.8 508.2 L 807.8 448.3 L 821.1 448.3 Z M 821.1 508.2 " fill="#FEFFFE"></path><path d="M 59.9 23.4 L 59.9 33.4 L 86.0 16.7 L 59.9 0.0 L 59.9 10.1 L 0.0 10.1 L 0.0 23.4 Z M 59.9 23.4 " fill="none" stroke="#000000" stroke-width="2.00" transform="matrix(0.00, 1.00, 1.00, 0.00, 797.7, 448.3)"></path></g></g><g><clipPath id="clip-1039"><path d="M 698.6 452.1 L 819.8 452.1 L 819.8 505.1 L 698.6 505.1 Z M 698.6 452.1 "></path></clipPath><g clip-path="url(#clip-1039)"><path d="M 699.6 504.1 L 818.8 504.1 L 818.8 453.1 L 699.6 453.1 Z M 699.6 504.1 " fill="#FEFFFE"></path></g></g><g><clipPath id="clip-1040"><path d="M 692.9 445.4 L 825.6 445.4 L 825.6 510.8 L 692.9 510.8 Z M 692.9 445.4 "></path></clipPath><g clip-path="url(#clip-1040)"><text xml:space="preserve" font-family="HelveticaNeue-Bold" font-weight="bold" font-size="36.0" fill="#000000" transform="matrix(1.00, 0.00, -0.00, -1.00, 716.0, 465.0)">M</text><text xml:space="preserve" font-family="HelveticaNeue-Bold" font-weight="bold" font-size="36.0" fill="#000000" transform="matrix(1.00, 0.00, -0.00, -1.00, 748.7, 465.0)">M</text><text xml:space="preserve" font-family="HelveticaNeue-Bold" font-weight="bold" font-size="36.0" fill="#000000" transform="matrix(1.00, 0.00, -0.00, -1.00, 781.3, 465.0)">F</text></g></g><g><clipPath id="clip-1041"><path d="M 707.9 505.3 L 809.8 505.1 L 809.8 501.1 L 707.8 501.3 Z M 707.9 505.3 "></path></clipPath><g clip-path="url(#clip-1041)"><path d="M 0.0 0.0 L 100.0 0.0 " fill="none" stroke="#000000" stroke-width="2.00" transform="matrix(1.00, -0.00, -0.00, -1.00, 708.8, 503.3)"></path></g></g><g><clipPath id="clip-1042"><path d="M 707.9 455.8 L 809.8 455.6 L 809.8 451.6 L 707.8 451.8 Z M 707.9 455.8 "></path></clipPath><g clip-path="url(#clip-1042)"><path d="M 0.0 0.0 L 100.0 0.0 " fill="none" stroke="#000000" stroke-width="2.00" transform="matrix(1.00, -0.00, -0.00, -1.00, 708.8, 453.8)"></path></g></g><g><clipPath id="clip-1043"><path d="M 704.5 386.4 L 944.0 386.4 L 944.0 439.3 L 704.5 439.3 Z M 704.5 386.4 "></path></clipPath><g clip-path="url(#clip-1043)"><path d="M 705.5 438.3 L 943.0 438.3 L 943.0 387.4 L 705.5 387.4 Z M 705.5 438.3 " fill="#FEFFFE"></path></g></g><g><clipPath id="clip-1044"><path d="M 698.8 379.6 L 949.7 379.6 L 949.7 445.1 L 698.8 445.1 Z M 698.8 379.6 "></path></clipPath><g clip-path="url(#clip-1044)"><text xml:space="preserve" font-family="HelveticaNeue-Bold" font-weight="bold" font-size="36.0" fill="#000000" transform="matrix(1.00, 0.00, -0.00, -1.00, 734.0, 399.0)">t</text><text xml:space="preserve" font-family="HelveticaNeue-Bold" font-weight="bold" font-size="36.0" fill="#000000" transform="matrix(1.00, 0.00, -0.00, -1.00, 746.7, 399.0)">a</text><text xml:space="preserve" font-family="HelveticaNeue-Bold" font-weight="bold" font-size="36.0" fill="#000000" transform="matrix(1.00, 0.00, -0.00, -1.00, 767.3, 399.0)">c</text><text xml:space="preserve" font-family="HelveticaNeue-Bold" font-weight="bold" font-size="36.0" fill="#000000" transform="matrix(1.00, 0.00, -0.00, -1.00, 788.0, 399.0)">r</text><text xml:space="preserve" font-family="HelveticaNeue-Bold" font-weight="bold" font-size="36.0" fill="#000000" transform="matrix(1.00, 0.00, -0.00, -1.00, 801.4, 399.0)">o</text><text xml:space="preserve" font-family="HelveticaNeue-Bold" font-weight="bold" font-size="36.0" fill="#000000" transform="matrix(1.00, 0.00, -0.00, -1.00, 823.4, 399.0)">l</text><text xml:space="preserve" font-family="HelveticaNeue-Bold" font-weight="bold" font-size="36.0" fill="#000000" transform="matrix(1.00, 0.00, -0.00, -1.00, 832.6, 399.0)">i</text><text xml:space="preserve" font-family="HelveticaNeue-Bold" font-weight="bold" font-size="36.0" fill="#000000" transform="matrix(1.00, 0.00, -0.00, -1.00, 841.9, 399.0)">m</text><text xml:space="preserve" font-family="HelveticaNeue-Bold" font-weight="bold" font-size="36.0" fill="#000000" transform="matrix(1.00, 0.00, -0.00, -1.00, 874.5, 399.0)">u</text><text xml:space="preserve" font-family="HelveticaNeue-Bold" font-weight="bold" font-size="36.0" fill="#000000" transform="matrix(1.00, 0.00, -0.00, -1.00, 895.9, 399.0)">s</text></g></g><g><clipPath id="clip-1045"><path d="M 708.3 441.3 L 937.9 441.4 L 937.9 437.4 L 708.3 437.3 Z M 708.3 441.3 "></path></clipPath><g clip-path="url(#clip-1045)"><path d="M 0.0 0.0 L 227.6 0.0 " fill="none" stroke="#000000" stroke-width="2.00" transform="matrix(1.00, 0.00, 0.00, -1.00, 709.3, 439.3)"></path></g></g><g><clipPath id="clip-1046"><path d="M 377.3 669.2 L 457.8 669.2 L 457.8 734.7 L 377.3 734.7 Z M 377.3 669.2 "></path></clipPath><g clip-path="url(#clip-1046)"><text xml:space="preserve" font-family="HelveticaNeue-Bold" font-weight="bold" font-size="36.0" fill="#000000" transform="matrix(1.00, 0.00, -0.00, -1.00, 389.0, 689.0)">B</text><text xml:space="preserve" font-family="HelveticaNeue-Bold" font-weight="bold" font-size="36.0" fill="#000000" transform="matrix(1.00, 0.00, -0.00, -1.00, 414.3, 689.0)">M</text></g></g><g><clipPath id="clip-1047"><path d="M 673.3 675.9 L 673.3 599.8 L 634.2 599.8 L 634.2 675.9 Z M 673.3 675.9 "></path></clipPath><g clip-path="url(#clip-1047)"><path d="M 647.1 628.8 L 637.0 628.8 L 653.7 602.7 L 670.4 628.8 L 660.4 628.8 L 660.4 673.9 L 647.1 673.9 Z M 647.1 628.8 " fill="#A85648"></path><path d="M 45.1 23.4 L 45.1 33.4 L 71.2 16.7 L 45.1 0.0 L 45.1 10.1 L 0.0 10.1 L 0.0 23.4 Z M 45.1 23.4 " fill="none" stroke="#763A33" stroke-width="2.00" transform="matrix(0.00, -1.00, -1.00, 0.00, 670.4, 673.9)"></path></g></g><g><clipPath id="clip-1048"><path d="M 619.8 669.2 L 687.6 669.2 L 687.6 734.7 L 619.8 734.7 Z M 619.8 669.2 "></path></clipPath><g clip-path="url(#clip-1048)"><text xml:space="preserve" font-family="HelveticaNeue-Bold" font-weight="bold" font-size="36.0" fill="#000000" transform="matrix(1.00, 0.00, -0.00, -1.00, 631.0, 689.0)">C</text><text xml:space="preserve" font-family="HelveticaNeue-Bold" font-weight="bold" font-size="36.0" fill="#000000" transform="matrix(1.00, 0.00, -0.00, -1.00, 657.7, 689.0)">y</text></g></g><g><clipPath id="clip-1049"><path d="M 923.7 13.4 L 923.7 170.9 L 962.8 170.9 L 962.8 13.4 Z M 923.7 13.4 "></path></clipPath><g clip-path="url(#clip-1049)"><path d="M 949.9 142.0 L 960.0 142.0 L 943.2 168.1 L 926.5 142.0 L 936.6 142.0 L 936.6 15.4 L 949.9 15.4 Z M 949.9 142.0 " fill="#FEFFFE"></path><path d="M 126.6 23.4 L 126.6 33.4 L 152.7 16.7 L 126.6 0.0 L 126.6 10.1 L 0.0 10.1 L 0.0 23.4 Z M 126.6 23.4 " fill="none" stroke="#000000" stroke-width="2.00" transform="matrix(0.00, 1.00, 1.00, 0.00, 926.5, 15.4)"></path></g></g><g><clipPath id="clip-1050"><path d="M 21.3 176.3 L 1002.7 176.3 L 1002.7 238.9 L 21.3 238.9 Z M 21.3 176.3 "></path></clipPath><g clip-path="url(#clip-1050)"><path d="M 959.3 177.3 L 959.3 177.3 L 1001.7 207.6 L 959.3 237.9 L 959.3 237.9 L 22.3 237.9 L 22.3 177.3 Z M 959.3 177.3 " fill="#325D6A"></path></g></g><g><clipPath id="clip-1051"><path d="M 15.7 174.3 L 1001.7 174.3 L 1001.7 239.6 L 15.7 239.6 Z M 15.7 174.3 "></path></clipPath><g clip-path="url(#clip-1051)"><text xml:space="preserve" font-family="HelveticaNeue-Light" font-size="36.0" fill="#FFFFFF" transform="matrix(1.00, 0.00, -0.00, -1.00, 26.0, 194.0)">-</text><text xml:space="preserve" font-family="HelveticaNeue-Light" font-size="36.0" fill="#FFFFFF" transform="matrix(1.00, 0.00, -0.00, -1.00, 39.3, 194.0)">7</text><text xml:space="preserve" font-family="HelveticaNeue-Light" font-size="36.0" fill="#FFFFFF" transform="matrix(1.00, 0.00, -0.00, -1.00, 59.3, 194.0)"> </text><text xml:space="preserve" font-family="HelveticaNeue-Light" font-size="36.0" fill="#FFFFFF" transform="matrix(1.00, 0.00, -0.00, -1.00, 69.3, 194.0)">-</text><text xml:space="preserve" font-family="HelveticaNeue-Light" font-size="36.0" fill="#FFFFFF" transform="matrix(1.00, 0.00, -0.00, -1.00, 82.7, 194.0)">6</text><text xml:space="preserve" font-family="HelveticaNeue-Light" font-size="36.0" fill="#FFFFFF" transform="matrix(1.00, 0.00, -0.00, -1.00, 102.7, 194.0)"> </text><text xml:space="preserve" font-family="HelveticaNeue-Light" font-size="36.0" fill="#FFFFFF" transform="matrix(1.00, 0.00, -0.00, -1.00, 112.7, 194.0)"> </text><text xml:space="preserve" font-family="HelveticaNeue-Light" font-size="36.0" fill="#FFFFFF" transform="matrix(1.00, 0.00, -0.00, -1.00, 122.7, 194.0)">-</text><text xml:space="preserve" font-family="HelveticaNeue-Light" font-size="36.0" fill="#FFFFFF" transform="matrix(1.00, 0.00, -0.00, -1.00, 136.0, 194.0)">5</text><text xml:space="preserve" font-family="HelveticaNeue-Light" font-size="36.0" fill="#FFFFFF" transform="matrix(1.00, 0.00, -0.00, -1.00, 156.0, 194.0)"> </text><text xml:space="preserve" font-family="HelveticaNeue-Light" font-size="36.0" fill="#FFFFFF" transform="matrix(1.00, 0.00, -0.00, -1.00, 166.0, 194.0)"> </text><text xml:space="preserve" font-family="HelveticaNeue-Light" font-size="36.0" fill="#FFFFFF" transform="matrix(1.00, 0.00, -0.00, -1.00, 176.0, 194.0)">-</text><text xml:space="preserve" font-family="HelveticaNeue-Light" font-size="36.0" fill="#FFFFFF" transform="matrix(1.00, 0.00, -0.00, -1.00, 189.4, 194.0)">4</text><text xml:space="preserve" font-family="HelveticaNeue-Light" font-size="36.0" fill="#FFFFFF" transform="matrix(1.00, 0.00, -0.00, -1.00, 209.4, 194.0)"> </text><text xml:space="preserve" font-family="HelveticaNeue-Light" font-size="36.0" fill="#FFFFFF" transform="matrix(1.00, 0.00, -0.00, -1.00, 219.4, 194.0)"> </text><text xml:space="preserve" font-family="HelveticaNeue-Light" font-size="36.0" fill="#FFFFFF" transform="matrix(1.00, 0.00, -0.00, -1.00, 229.4, 194.0)">-</text><text xml:space="preserve" font-family="HelveticaNeue-Light" font-size="36.0" fill="#FFFFFF" transform="matrix(1.00, 0.00, -0.00, -1.00, 242.7, 194.0)">3</text><text xml:space="preserve" font-family="HelveticaNeue-Light" font-size="36.0" fill="#FFFFFF" transform="matrix(1.00, 0.00, -0.00, -1.00, 262.7, 194.0)"> </text><text xml:space="preserve" font-family="HelveticaNeue-Light" font-size="36.0" fill="#FFFFFF" transform="matrix(1.00, 0.00, -0.00, -1.00, 272.7, 194.0)"> </text><text xml:space="preserve" font-family="HelveticaNeue-Light" font-size="36.0" fill="#FFFFFF" transform="matrix(1.00, 0.00, -0.00, -1.00, 282.8, 194.0)">-</text><text xml:space="preserve" font-family="HelveticaNeue-Light" font-size="36.0" fill="#FFFFFF" transform="matrix(1.00, 0.00, -0.00, -1.00, 296.1, 194.0)">2</text><text xml:space="preserve" font-family="HelveticaNeue-Light" font-size="36.0" fill="#FFFFFF" transform="matrix(1.00, 0.00, -0.00, -1.00, 316.1, 194.0)"> </text><text xml:space="preserve" font-family="HelveticaNeue-Light" font-size="36.0" fill="#FFFFFF" transform="matrix(1.00, 0.00, -0.00, -1.00, 326.1, 194.0)"> </text><text xml:space="preserve" font-family="HelveticaNeue-Light" font-size="36.0" fill="#FFFFFF" transform="matrix(1.00, 0.00, -0.00, -1.00, 336.1, 194.0)">-</text><text xml:space="preserve" font-family="HelveticaNeue-Light" font-size="36.0" fill="#FFFFFF" transform="matrix(1.00, 0.00, -0.00, -1.00, 349.4, 194.0)">1</text><text xml:space="preserve" font-family="HelveticaNeue-Light" font-size="36.0" fill="#FFFFFF" transform="matrix(1.00, 0.00, -0.00, -1.00, 369.4, 194.0)"> </text><text xml:space="preserve" font-family="HelveticaNeue-Light" font-size="36.0" fill="#FFFFFF" transform="matrix(1.00, 0.00, -0.00, -1.00, 379.4, 194.0)"> </text><text xml:space="preserve" font-family="HelveticaNeue-Light" font-size="36.0" fill="#FFFFFF" transform="matrix(1.00, 0.00, -0.00, -1.00, 389.5, 194.0)">•</text><text xml:space="preserve" font-family="HelveticaNeue-Light" font-size="36.0" fill="#FFFFFF" transform="matrix(1.00, 0.00, -0.00, -1.00, 407.5, 194.0)">0</text><text xml:space="preserve" font-family="HelveticaNeue-Light" font-size="36.0" fill="#FFFFFF" transform="matrix(1.00, 0.00, -0.00, -1.00, 427.5, 194.0)"> </text><text xml:space="preserve" font-family="HelveticaNeue-Light" font-size="36.0" fill="#FFFFFF" transform="matrix(1.00, 0.00, -0.00, -1.00, 437.5, 194.0)"> </text><text xml:space="preserve" font-family="HelveticaNeue-Light" font-size="36.0" fill="#FFFFFF" transform="matrix(1.00, 0.00, -0.00, -1.00, 447.5, 194.0)">+</text><text xml:space="preserve" font-family="HelveticaNeue-Light" font-size="36.0" fill="#FFFFFF" transform="matrix(1.00, 0.00, -0.00, -1.00, 469.1, 194.0)">1</text><text xml:space="preserve" font-family="HelveticaNeue-Light" font-size="36.0" fill="#FFFFFF" transform="matrix(1.00, 0.00, -0.00, -1.00, 489.1, 194.0)"> </text><text xml:space="preserve" font-family="HelveticaNeue-Light" font-size="36.0" fill="#FFFFFF" transform="matrix(1.00, 0.00, -0.00, -1.00, 499.1, 194.0)"> </text><text xml:space="preserve" font-family="HelveticaNeue-Light" font-size="36.0" fill="#FFFFFF" transform="matrix(1.00, 0.00, -0.00, -1.00, 509.1, 194.0)">+</text><text xml:space="preserve" font-family="HelveticaNeue-Light" font-size="36.0" fill="#FFFFFF" transform="matrix(1.00, 0.00, -0.00, -1.00, 530.7, 194.0)">2</text><text xml:space="preserve" font-family="HelveticaNeue-Light" font-size="36.0" fill="#FFFFFF" transform="matrix(1.00, 0.00, -0.00, -1.00, 550.7, 194.0)"> </text><text xml:space="preserve" font-family="HelveticaNeue-Light" font-size="36.0" fill="#FFFFFF" transform="matrix(1.00, 0.00, -0.00, -1.00, 560.7, 194.0)"> </text><text xml:space="preserve" font-family="HelveticaNeue-Light" font-size="36.0" fill="#FFFFFF" transform="matrix(1.00, 0.00, -0.00, -1.00, 570.8, 194.0)">+</text><text xml:space="preserve" font-family="HelveticaNeue-Light" font-size="36.0" fill="#FFFFFF" transform="matrix(1.00, 0.00, -0.00, -1.00, 592.4, 194.0)">3</text><text xml:space="preserve" font-family="HelveticaNeue-Light" font-size="36.0" fill="#FFFFFF" transform="matrix(1.00, 0.00, -0.00, -1.00, 612.4, 194.0)"> </text><text xml:space="preserve" font-family="HelveticaNeue-Light" font-size="36.0" fill="#FFFFFF" transform="matrix(1.00, 0.00, -0.00, -1.00, 622.4, 194.0)"> </text><text xml:space="preserve" font-family="HelveticaNeue-Light" font-size="36.0" fill="#FFFFFF" transform="matrix(1.00, 0.00, -0.00, -1.00, 632.4, 194.0)">+</text><text xml:space="preserve" font-family="HelveticaNeue-Light" font-size="36.0" fill="#FFFFFF" transform="matrix(1.00, 0.00, -0.00, -1.00, 654.0, 194.0)">4</text><text xml:space="preserve" font-family="HelveticaNeue-Light" font-size="36.0" fill="#FFFFFF" transform="matrix(1.00, 0.00, -0.00, -1.00, 674.0, 194.0)"> </text><text xml:space="preserve" font-family="HelveticaNeue-Light" font-size="36.0" fill="#FFFFFF" transform="matrix(1.00, 0.00, -0.00, -1.00, 684.0, 194.0)"> </text><text xml:space="preserve" font-family="HelveticaNeue-Light" font-size="36.0" fill="#FFFFFF" transform="matrix(1.00, 0.00, -0.00, -1.00, 694.0, 194.0)">+</text><text xml:space="preserve" font-family="HelveticaNeue-Light" font-size="36.0" fill="#FFFFFF" transform="matrix(1.00, 0.00, -0.00, -1.00, 715.6, 194.0)">5</text><text xml:space="preserve" font-family="HelveticaNeue-Light" font-size="36.0" fill="#FFFFFF" transform="matrix(1.00, 0.00, -0.00, -1.00, 735.6, 194.0)"> </text><text xml:space="preserve" font-family="HelveticaNeue-Light" font-size="36.0" fill="#FFFFFF" transform="matrix(1.00, 0.00, -0.00, -1.00, 745.6, 194.0)"> </text><text xml:space="preserve" font-family="HelveticaNeue-Light" font-size="36.0" fill="#FFFFFF" transform="matrix(1.00, 0.00, -0.00, -1.00, 755.6, 194.0)"> </text><text xml:space="preserve" font-family="HelveticaNeue-Light" font-size="36.0" fill="#FFFFFF" transform="matrix(1.00, 0.00, -0.00, -1.00, 765.7, 194.0)"> </text><text xml:space="preserve" font-family="HelveticaNeue-Light" font-size="36.0" fill="#FFFFFF" transform="matrix(1.00, 0.00, -0.00, -1.00, 775.7, 194.0)"> </text><text xml:space="preserve" font-family="HelveticaNeue-Light" font-size="36.0" fill="#FFFFFF" transform="matrix(1.00, 0.00, -0.00, -1.00, 785.7, 194.0)">3</text><text xml:space="preserve" font-family="HelveticaNeue-Light" font-size="36.0" fill="#FFFFFF" transform="matrix(1.00, 0.00, -0.00, -1.00, 805.7, 194.0)">5</text><text xml:space="preserve" font-family="HelveticaNeue-Light" font-size="36.0" fill="#FFFFFF" transform="matrix(1.00, 0.00, -0.00, -1.00, 825.7, 194.0)"> </text><text xml:space="preserve" font-family="HelveticaNeue-Light" font-size="36.0" fill="#FFFFFF" transform="matrix(1.00, 0.00, -0.00, -1.00, 835.7, 194.0)"> </text><text xml:space="preserve" font-family="HelveticaNeue-Light" font-size="36.0" fill="#FFFFFF" transform="matrix(1.00, 0.00, -0.00, -1.00, 845.7, 194.0)"> </text><text xml:space="preserve" font-family="HelveticaNeue-Light" font-size="36.0" fill="#FFFFFF" transform="matrix(1.00, 0.00, -0.00, -1.00, 855.7, 194.0)"> </text><text xml:space="preserve" font-family="HelveticaNeue-Light" font-size="36.0" fill="#FFFFFF" transform="matrix(1.00, 0.00, -0.00, -1.00, 865.7, 194.0)"> </text><text xml:space="preserve" font-family="HelveticaNeue-Light" font-size="36.0" fill="#FFFFFF" transform="matrix(1.00, 0.00, -0.00, -1.00, 875.7, 194.0)"> </text><text xml:space="preserve" font-family="HelveticaNeue-Light" font-size="36.0" fill="#FFFFFF" transform="matrix(1.00, 0.00, -0.00, -1.00, 885.8, 194.0)">1</text><text xml:space="preserve" font-family="HelveticaNeue-Light" font-size="36.0" fill="#FFFFFF" transform="matrix(1.00, 0.00, -0.00, -1.00, 905.8, 194.0)">8</text><text xml:space="preserve" font-family="HelveticaNeue-Light" font-size="36.0" fill="#FFFFFF" transform="matrix(1.00, 0.00, -0.00, -1.00, 925.8, 194.0)">0</text></g></g><g><clipPath id="clip-1052"><path d="M 850.2 284.7 L 850.2 127.9 L 630.4 127.9 L 630.4 284.7 Z M 850.2 284.7 "></path></clipPath><g clip-path="url(#clip-1052)"><text xml:space="preserve" font-family="AppleSymbols" font-size="150.0" fill="#FEFFFE" transform="matrix(0.00, -1.00, -1.00, -0.00, 715.0, 250.0)">⌁</text></g></g><g><clipPath id="clip-1053"><path d="M 943.8 284.7 L 943.8 127.9 L 724.1 127.9 L 724.1 284.7 Z M 943.8 284.7 "></path></clipPath><g clip-path="url(#clip-1053)"><text xml:space="preserve" font-family="AppleSymbols" font-size="150.0" fill="#FEFFFE" transform="matrix(0.00, -1.00, -1.00, -0.00, 808.0, 250.0)">⌁</text></g></g><g><clipPath id="clip-1054"><path d="M 114.9 315.3 L 114.9 239.2 L 75.8 239.2 L 75.8 315.3 Z M 114.9 315.3 "></path></clipPath><g clip-path="url(#clip-1054)"><path d="M 88.7 268.1 L 78.6 268.1 L 95.3 242.1 L 112.0 268.1 L 102.0 268.1 L 102.0 313.3 L 88.7 313.3 Z M 88.7 268.1 " fill="#FEFFFE"></path><path d="M 45.1 23.4 L 45.1 33.4 L 71.2 16.7 L 45.1 0.0 L 45.1 10.1 L 0.0 10.1 L 0.0 23.4 Z M 45.1 23.4 " fill="none" stroke="#163D40" stroke-width="2.00" transform="matrix(0.00, -1.00, -1.00, 0.00, 112.0, 313.3)"></path></g></g><g><clipPath id="clip-1055"><path d="M 73.4 309.8 L 117.2 309.8 L 117.2 375.3 L 73.4 375.3 Z M 73.4 309.8 "></path></clipPath><g clip-path="url(#clip-1055)"><text xml:space="preserve" font-family="HelveticaNeue-Bold" font-weight="bold" font-size="36.0" fill="#000000" transform="matrix(1.00, 0.00, -0.00, -1.00, 85.0, 329.0)">F</text></g></g><g><clipPath id="clip-1056"><path d="M 165.7 315.3 L 165.7 239.2 L 126.6 239.2 L 126.6 315.3 Z M 165.7 315.3 "></path></clipPath><g clip-path="url(#clip-1056)"><path d="M 139.5 268.1 L 129.5 268.1 L 146.2 242.1 L 162.9 268.1 L 152.8 268.1 L 152.8 313.3 L 139.5 313.3 Z M 139.5 268.1 " fill="#FEFFFE"></path><path d="M 45.1 23.4 L 45.1 33.4 L 71.2 16.7 L 45.1 0.0 L 45.1 10.1 L 0.0 10.1 L 0.0 23.4 Z M 45.1 23.4 " fill="none" stroke="#163D40" stroke-width="2.00" transform="matrix(0.00, -1.00, -1.00, 0.00, 162.9, 313.3)"></path></g></g><g><clipPath id="clip-1057"><path d="M 124.3 309.8 L 168.1 309.8 L 168.1 375.3 L 124.3 375.3 Z M 124.3 309.8 "></path></clipPath><g clip-path="url(#clip-1057)"><text xml:space="preserve" font-family="HelveticaNeue-Bold" font-weight="bold" font-size="36.0" fill="#000000" transform="matrix(1.00, 0.00, -0.00, -1.00, 136.0, 329.0)">F</text></g></g><g><clipPath id="clip-1058"><path d="M 220.8 315.3 L 220.8 239.2 L 181.8 239.2 L 181.8 315.3 Z M 220.8 315.3 "></path></clipPath><g clip-path="url(#clip-1058)"><path d="M 194.7 268.1 L 184.6 268.1 L 201.3 242.1 L 218.0 268.1 L 207.9 268.1 L 207.9 313.3 L 194.7 313.3 Z M 194.7 268.1 " fill="#FEFFFE"></path><path d="M 45.1 23.4 L 45.1 33.4 L 71.2 16.7 L 45.1 0.0 L 45.1 10.1 L 0.0 10.1 L 0.0 23.4 Z M 45.1 23.4 " fill="none" stroke="#163D40" stroke-width="2.00" transform="matrix(0.00, -1.00, -1.00, 0.00, 218.0, 313.3)"></path></g></g><g><clipPath id="clip-1059"><path d="M 179.4 309.8 L 223.2 309.8 L 223.2 375.3 L 179.4 375.3 Z M 179.4 309.8 "></path></clipPath><g clip-path="url(#clip-1059)"><text xml:space="preserve" font-family="HelveticaNeue-Bold" font-weight="bold" font-size="36.0" fill="#000000" transform="matrix(1.00, 0.00, -0.00, -1.00, 191.0, 329.0)">F</text></g></g><g><clipPath id="clip-1060"><path d="M 271.7 315.3 L 271.7 239.2 L 232.6 239.2 L 232.6 315.3 Z M 271.7 315.3 "></path></clipPath><g clip-path="url(#clip-1060)"><path d="M 245.5 268.1 L 235.4 268.1 L 252.2 242.1 L 268.9 268.1 L 258.8 268.1 L 258.8 313.3 L 245.5 313.3 Z M 245.5 268.1 " fill="#FEFFFE"></path><path d="M 45.1 23.4 L 45.1 33.4 L 71.2 16.7 L 45.1 0.0 L 45.1 10.1 L 0.0 10.1 L 0.0 23.4 Z M 45.1 23.4 " fill="none" stroke="#163D40" stroke-width="2.00" transform="matrix(0.00, -1.00, -1.00, 0.00, 268.9, 313.3)"></path></g></g><g><clipPath id="clip-1061"><path d="M 230.2 309.8 L 274.1 309.8 L 274.1 375.3 L 230.2 375.3 Z M 230.2 309.8 "></path></clipPath><g clip-path="url(#clip-1061)"><text xml:space="preserve" font-family="HelveticaNeue-Bold" font-weight="bold" font-size="36.0" fill="#000000" transform="matrix(1.00, 0.00, -0.00, -1.00, 241.0, 329.0)">F</text></g></g><g><clipPath id="clip-1062"><path d="M 326.8 315.3 L 326.8 239.2 L 287.7 239.2 L 287.7 315.3 Z M 326.8 315.3 "></path></clipPath><g clip-path="url(#clip-1062)"><path d="M 300.6 268.1 L 290.6 268.1 L 307.3 242.1 L 324.0 268.1 L 313.9 268.1 L 313.9 313.3 L 300.6 313.3 Z M 300.6 268.1 " fill="#FEFFFE"></path><path d="M 45.1 23.4 L 45.1 33.4 L 71.2 16.7 L 45.1 0.0 L 45.1 10.1 L 0.0 10.1 L 0.0 23.4 Z M 45.1 23.4 " fill="none" stroke="#163D40" stroke-width="2.00" transform="matrix(0.00, -1.00, -1.00, 0.00, 324.0, 313.3)"></path></g></g><g><clipPath id="clip-1063"><path d="M 285.4 309.8 L 329.2 309.8 L 329.2 375.3 L 285.4 375.3 Z M 285.4 309.8 "></path></clipPath><g clip-path="url(#clip-1063)"><text xml:space="preserve" font-family="HelveticaNeue-Bold" font-weight="bold" font-size="36.0" fill="#000000" transform="matrix(1.00, 0.00, -0.00, -1.00, 297.0, 329.0)">F</text></g></g><g><clipPath id="clip-1064"><path d="M 611.3 315.3 L 611.3 239.2 L 572.2 239.2 L 572.2 315.3 Z M 611.3 315.3 "></path></clipPath><g clip-path="url(#clip-1064)"><path d="M 585.1 268.1 L 575.1 268.1 L 591.8 242.1 L 608.5 268.1 L 598.4 268.1 L 598.4 313.3 L 585.1 313.3 Z M 585.1 268.1 " fill="#A85648"></path><path d="M 45.1 23.4 L 45.1 33.4 L 71.2 16.7 L 45.1 0.0 L 45.1 10.1 L 0.0 10.1 L 0.0 23.4 Z M 45.1 23.4 " fill="none" stroke="#763A33" stroke-width="2.00" transform="matrix(0.00, -1.00, -1.00, 0.00, 608.5, 313.3)"></path></g></g><g><clipPath id="clip-1065"><path d="M 557.9 309.8 L 625.7 309.8 L 625.7 375.3 L 557.9 375.3 Z M 557.9 309.8 "></path></clipPath><g clip-path="url(#clip-1065)"><text xml:space="preserve" font-family="HelveticaNeue-Bold" font-weight="bold" font-size="36.0" fill="#000000" transform="matrix(1.00, 0.00, -0.00, -1.00, 569.0, 329.0)">C</text><text xml:space="preserve" font-family="HelveticaNeue-Bold" font-weight="bold" font-size="36.0" fill="#000000" transform="matrix(1.00, 0.00, -0.00, -1.00, 595.7, 329.0)">y</text></g></g><g><clipPath id="clip-1066"><path d="M 232.6 99.6 L 232.6 175.6 L 271.7 175.6 L 271.7 99.6 Z M 232.6 99.6 "></path></clipPath><g clip-path="url(#clip-1066)"><path d="M 258.8 146.7 L 268.9 146.7 L 252.2 172.8 L 235.4 146.7 L 245.5 146.7 L 245.5 101.6 L 258.8 101.6 Z M 258.8 146.7 " fill="#DBA486"></path><path d="M 45.1 23.4 L 45.1 33.4 L 71.2 16.7 L 45.1 0.0 L 45.1 10.1 L 0.0 10.1 L 0.0 23.4 Z M 45.1 23.4 " fill="none" stroke="#763A33" stroke-width="2.00" transform="matrix(0.00, 1.00, 1.00, 0.00, 235.4, 101.6)"></path></g></g><g><clipPath id="clip-1067"><path d="M 218.2 38.5 L 286.1 38.5 L 286.1 104.0 L 218.2 104.0 Z M 218.2 38.5 "></path></clipPath><g clip-path="url(#clip-1067)"><text xml:space="preserve" font-family="HelveticaNeue-Bold" font-weight="bold" font-size="36.0" fill="#000000" transform="matrix(1.00, 0.00, -0.00, -1.00, 229.0, 58.0)">C</text><text xml:space="preserve" font-family="HelveticaNeue-Bold" font-weight="bold" font-size="36.0" fill="#000000" transform="matrix(1.00, 0.00, -0.00, -1.00, 255.7, 58.0)">y</text></g></g><g><clipPath id="clip-1068"><path d="M 287.7 98.6 L 287.7 174.6 L 326.8 174.6 L 326.8 98.6 Z M 287.7 98.6 "></path></clipPath><g clip-path="url(#clip-1068)"><path d="M 313.9 145.7 L 324.0 145.7 L 307.3 171.8 L 290.6 145.7 L 300.6 145.7 L 300.6 100.6 L 313.9 100.6 Z M 313.9 145.7 " fill="#DBA486"></path><path d="M 45.1 23.4 L 45.1 33.4 L 71.2 16.7 L 45.1 0.0 L 45.1 10.1 L 0.0 10.1 L 0.0 23.4 Z M 45.1 23.4 " fill="none" stroke="#763A33" stroke-width="2.00" transform="matrix(0.00, 1.00, 1.00, 0.00, 290.6, 100.6)"></path></g></g><g><clipPath id="clip-1069"><path d="M 273.4 37.5 L 341.2 37.5 L 341.2 103.0 L 273.4 103.0 Z M 273.4 37.5 "></path></clipPath><g clip-path="url(#clip-1069)"><text xml:space="preserve" font-family="HelveticaNeue-Bold" font-weight="bold" font-size="36.0" fill="#000000" transform="matrix(1.00, 0.00, -0.00, -1.00, 285.0, 57.0)">C</text><text xml:space="preserve" font-family="HelveticaNeue-Bold" font-weight="bold" font-size="36.0" fill="#000000" transform="matrix(1.00, 0.00, -0.00, -1.00, 311.7, 57.0)">y</text></g></g><g><clipPath id="clip-1070"><path d="M 437.1 314.4 L 437.1 238.3 L 398.0 238.3 L 398.0 314.4 Z M 437.1 314.4 "></path></clipPath><g clip-path="url(#clip-1070)"><path d="M 410.9 267.3 L 400.8 267.3 L 417.5 241.2 L 434.2 267.3 L 424.2 267.3 L 424.2 312.4 L 410.9 312.4 Z M 410.9 267.3 " fill="#FF2600"></path><path d="M 45.1 23.4 L 45.1 33.4 L 71.2 16.7 L 45.1 0.0 L 45.1 10.1 L 0.0 10.1 L 0.0 23.4 Z M 45.1 23.4 " fill="none" stroke="#163D40" stroke-width="2.00" transform="matrix(0.00, -1.00, -1.00, 0.00, 434.2, 312.4)"></path></g></g><g><clipPath id="clip-1071"><path d="M 724.8 314.4 L 724.8 238.3 L 685.7 238.3 L 685.7 314.4 Z M 724.8 314.4 "></path></clipPath><g clip-path="url(#clip-1071)"><path d="M 698.6 267.3 L 688.5 267.3 L 705.2 241.2 L 721.9 267.3 L 711.9 267.3 L 711.9 312.4 L 698.6 312.4 Z M 698.6 267.3 " fill="#FEFFFE"></path><path d="M 45.1 23.4 L 45.1 33.4 L 71.2 16.7 L 45.1 0.0 L 45.1 10.1 L 0.0 10.1 L 0.0 23.4 Z M 45.1 23.4 " fill="none" stroke="#163D40" stroke-width="2.00" transform="matrix(0.00, -1.00, -1.00, 0.00, 721.9, 312.4)"></path></g></g><g><clipPath id="clip-1072"><path d="M 696.7 274.6 L 845.2 274.6 L 845.2 327.6 L 696.7 327.6 Z M 696.7 274.6 "></path></clipPath><g clip-path="url(#clip-1072)"><path d="M 698.7 325.6 L 843.2 325.6 L 843.2 276.6 L 698.7 276.6 Z M 698.7 325.6 " fill="#FEFFFE"></path><path d="M 0.0 0.0 L 144.5 0.0 L 144.5 49.0 L 0.0 49.0 Z M 0.0 0.0 " fill="none" stroke="#163D40" stroke-width="2.00" transform="matrix(1.00, 0.00, 0.00, -1.00, 698.7, 325.6)"></path></g></g><g><clipPath id="clip-1073"><path d="M 693.0 281.6 L 848.9 281.6 L 848.9 320.6 L 693.0 320.6 Z M 693.0 281.6 "></path></clipPath><g clip-path="url(#clip-1073)"><text xml:space="preserve" font-family="HelveticaNeue-Bold" font-weight="bold" font-size="36.0" fill="#000000" transform="matrix(1.00, 0.00, -0.00, -1.00, 714.0, 285.0)">G</text><text xml:space="preserve" font-family="HelveticaNeue-Bold" font-weight="bold" font-size="36.0" fill="#000000" transform="matrix(1.00, 0.00, -0.00, -1.00, 741.3, 285.0)">-</text><text xml:space="preserve" font-family="HelveticaNeue-Bold" font-weight="bold" font-size="36.0" fill="#000000" transform="matrix(1.00, 0.00, -0.00, -1.00, 756.0, 285.0)">C</text><text xml:space="preserve" font-family="HelveticaNeue-Bold" font-weight="bold" font-size="36.0" fill="#000000" transform="matrix(1.00, 0.00, -0.00, -1.00, 782.7, 285.0)">S</text><text xml:space="preserve" font-family="HelveticaNeue-Bold" font-weight="bold" font-size="36.0" fill="#000000" transform="matrix(1.00, 0.00, -0.00, -1.00, 806.0, 285.0)">F</text></g></g><g><clipPath id="clip-1074"><path d="M 698.7 264.5 L 712.3 264.5 L 712.3 288.2 L 698.7 288.2 Z M 698.7 264.5 "></path></clipPath><g clip-path="url(#clip-1074)"><path d="M 699.7 287.2 L 711.3 287.2 L 711.3 265.5 L 699.7 265.5 Z M 699.7 287.2 " fill="#FEFFFE"></path></g></g><g><clipPath id="clip-1075"><path d="M 783.4 315.1 L 860.4 315.1 L 860.4 352.1 L 783.4 352.1 Z M 783.4 315.1 "></path></clipPath><g clip-path="url(#clip-1075)"><path d="M 784.4 351.1 L 859.4 351.1 L 859.4 316.1 L 784.4 316.1 Z M 784.4 351.1 " fill="#FEFFFE"></path></g></g><g><clipPath id="clip-1076"><path d="M 783.4 241.8 L 860.4 241.8 L 860.4 278.8 L 783.4 278.8 Z M 783.4 241.8 "></path></clipPath><g clip-path="url(#clip-1076)"><path d="M 784.4 277.8 L 859.4 277.8 L 859.4 242.8 L 784.4 242.8 Z M 784.4 277.8 " fill="#FEFFFE"></path></g></g><g><clipPath id="clip-1077"><path d="M 828.1 253.6 L 905.1 253.6 L 905.1 329.7 L 828.1 329.7 Z M 828.1 253.6 "></path></clipPath><g clip-path="url(#clip-1077)"><path d="M 829.1 328.7 L 904.1 328.7 L 904.1 254.6 L 829.1 254.6 Z M 829.1 328.7 " fill="#FEFFFE"></path></g></g><g><clipPath id="clip-1078"><path d="M 683.8 18.1 L 683.8 175.6 L 722.8 175.6 L 722.8 18.1 Z M 683.8 18.1 "></path></clipPath><g clip-path="url(#clip-1078)"><path d="M 710.0 146.7 L 720.0 146.7 L 703.3 172.8 L 686.6 146.7 L 696.7 146.7 L 696.7 20.1 L 710.0 20.1 Z M 710.0 146.7 " fill="#FEFFFE"></path><path d="M 126.6 23.4 L 126.6 33.4 L 152.7 16.7 L 126.6 0.0 L 126.6 10.1 L 0.0 10.1 L 0.0 23.4 Z M 126.6 23.4 " fill="none" stroke="#000000" stroke-width="2.00" transform="matrix(0.00, 1.00, 1.00, 0.00, 686.6, 20.1)"></path></g></g><g><clipPath id="clip-1079"><path d="M 794.9 84.8 L 794.9 175.6 L 834.0 175.6 L 834.0 84.8 Z M 794.9 84.8 "></path></clipPath><g clip-path="url(#clip-1079)"><path d="M 821.1 146.7 L 831.1 146.7 L 814.4 172.8 L 797.7 146.7 L 807.8 146.7 L 807.8 86.8 L 821.1 86.8 Z M 821.1 146.7 " fill="#FEFFFE"></path><path d="M 59.9 23.4 L 59.9 33.4 L 86.0 16.7 L 59.9 0.0 L 59.9 10.1 L 0.0 10.1 L 0.0 23.4 Z M 59.9 23.4 " fill="none" stroke="#000000" stroke-width="2.00" transform="matrix(0.00, 1.00, 1.00, 0.00, 797.7, 86.8)"></path></g></g><g><clipPath id="clip-1080"><path d="M 698.6 90.6 L 819.8 90.6 L 819.8 143.6 L 698.6 143.6 Z M 698.6 90.6 "></path></clipPath><g clip-path="url(#clip-1080)"><path d="M 699.6 142.6 L 818.8 142.6 L 818.8 91.6 L 699.6 91.6 Z M 699.6 142.6 " fill="#FEFFFE"></path></g></g><g><clipPath id="clip-1081"><path d="M 692.9 83.9 L 825.6 83.9 L 825.6 149.3 L 692.9 149.3 Z M 692.9 83.9 "></path></clipPath><g clip-path="url(#clip-1081)"><text xml:space="preserve" font-family="HelveticaNeue-Bold" font-weight="bold" font-size="36.0" fill="#000000" transform="matrix(1.00, 0.00, -0.00, -1.00, 716.0, 103.0)">M</text><text xml:space="preserve" font-family="HelveticaNeue-Bold" font-weight="bold" font-size="36.0" fill="#000000" transform="matrix(1.00, 0.00, -0.00, -1.00, 748.7, 103.0)">M</text><text xml:space="preserve" font-family="HelveticaNeue-Bold" font-weight="bold" font-size="36.0" fill="#000000" transform="matrix(1.00, 0.00, -0.00, -1.00, 781.3, 103.0)">F</text></g></g><g><clipPath id="clip-1082"><path d="M 707.9 143.8 L 809.8 143.6 L 809.8 139.6 L 707.8 139.8 Z M 707.9 143.8 "></path></clipPath><g clip-path="url(#clip-1082)"><path d="M 0.0 0.0 L 100.0 0.0 " fill="none" stroke="#000000" stroke-width="2.00" transform="matrix(1.00, -0.00, -0.00, -1.00, 708.8, 141.8)"></path></g></g><g><clipPath id="clip-1083"><path d="M 707.9 94.3 L 809.8 94.1 L 809.8 90.1 L 707.8 90.3 Z M 707.9 94.3 "></path></clipPath><g clip-path="url(#clip-1083)"><path d="M 0.0 0.0 L 100.0 0.0 " fill="none" stroke="#000000" stroke-width="2.00" transform="matrix(1.00, -0.00, -0.00, -1.00, 708.8, 92.3)"></path></g></g><g><clipPath id="clip-1084"><path d="M 704.5 24.9 L 944.0 24.9 L 944.0 77.8 L 704.5 77.8 Z M 704.5 24.9 "></path></clipPath><g clip-path="url(#clip-1084)"><path d="M 705.5 76.8 L 943.0 76.8 L 943.0 25.9 L 705.5 25.9 Z M 705.5 76.8 " fill="#FEFFFE"></path></g></g><g><clipPath id="clip-1085"><path d="M 698.8 18.1 L 949.7 18.1 L 949.7 83.6 L 698.8 83.6 Z M 698.8 18.1 "></path></clipPath><g clip-path="url(#clip-1085)"><text xml:space="preserve" font-family="HelveticaNeue-Bold" font-weight="bold" font-size="36.0" fill="#000000" transform="matrix(1.00, 0.00, -0.00, -1.00, 734.0, 38.0)">t</text><text xml:space="preserve" font-family="HelveticaNeue-Bold" font-weight="bold" font-size="36.0" fill="#000000" transform="matrix(1.00, 0.00, -0.00, -1.00, 746.7, 38.0)">a</text><text xml:space="preserve" font-family="HelveticaNeue-Bold" font-weight="bold" font-size="36.0" fill="#000000" transform="matrix(1.00, 0.00, -0.00, -1.00, 767.3, 38.0)">c</text><text xml:space="preserve" font-family="HelveticaNeue-Bold" font-weight="bold" font-size="36.0" fill="#000000" transform="matrix(1.00, 0.00, -0.00, -1.00, 788.0, 38.0)">r</text><text xml:space="preserve" font-family="HelveticaNeue-Bold" font-weight="bold" font-size="36.0" fill="#000000" transform="matrix(1.00, 0.00, -0.00, -1.00, 801.4, 38.0)">o</text><text xml:space="preserve" font-family="HelveticaNeue-Bold" font-weight="bold" font-size="36.0" fill="#000000" transform="matrix(1.00, 0.00, -0.00, -1.00, 823.4, 38.0)">l</text><text xml:space="preserve" font-family="HelveticaNeue-Bold" font-weight="bold" font-size="36.0" fill="#000000" transform="matrix(1.00, 0.00, -0.00, -1.00, 832.6, 38.0)">i</text><text xml:space="preserve" font-family="HelveticaNeue-Bold" font-weight="bold" font-size="36.0" fill="#000000" transform="matrix(1.00, 0.00, -0.00, -1.00, 841.9, 38.0)">m</text><text xml:space="preserve" font-family="HelveticaNeue-Bold" font-weight="bold" font-size="36.0" fill="#000000" transform="matrix(1.00, 0.00, -0.00, -1.00, 874.5, 38.0)">u</text><text xml:space="preserve" font-family="HelveticaNeue-Bold" font-weight="bold" font-size="36.0" fill="#000000" transform="matrix(1.00, 0.00, -0.00, -1.00, 895.9, 38.0)">s</text></g></g><g><clipPath id="clip-1086"><path d="M 708.3 79.8 L 937.9 80.0 L 937.9 76.0 L 708.3 75.8 Z M 708.3 79.8 "></path></clipPath><g clip-path="url(#clip-1086)"><path d="M 0.0 0.0 L 227.6 0.0 " fill="none" stroke="#000000" stroke-width="2.00" transform="matrix(1.00, 0.00, 0.00, -1.00, 709.3, 77.8)"></path></g></g><g><clipPath id="clip-1087"><path d="M 708.4 27.3 L 938.0 27.4 L 938.0 23.4 L 708.4 23.3 Z M 708.4 27.3 "></path></clipPath><g clip-path="url(#clip-1087)"><path d="M 0.0 0.0 L 227.6 0.0 " fill="none" stroke="#000000" stroke-width="2.00" transform="matrix(1.00, 0.00, 0.00, -1.00, 709.4, 25.3)"></path></g></g><g><clipPath id="clip-1088"><path d="M 356.6 307.7 L 478.5 307.7 L 478.5 373.2 L 356.6 373.2 Z M 356.6 307.7 "></path></clipPath><g clip-path="url(#clip-1088)"><text xml:space="preserve" font-family="HelveticaNeue-Bold" font-weight="bold" font-size="36.0" fill="#000000" transform="matrix(1.00, 0.00, -0.00, -1.00, 368.0, 327.0)">P</text><text xml:space="preserve" font-family="HelveticaNeue-Bold" font-weight="bold" font-size="36.0" fill="#000000" transform="matrix(1.00, 0.00, -0.00, -1.00, 392.0, 327.0)">B</text><text xml:space="preserve" font-family="HelveticaNeue-Bold" font-weight="bold" font-size="36.0" fill="#000000" transform="matrix(1.00, 0.00, -0.00, -1.00, 417.4, 327.0)">S</text><text xml:space="preserve" font-family="HelveticaNeue-Bold" font-weight="bold" font-size="36.0" fill="#000000" transform="matrix(1.00, 0.00, -0.00, -1.00, 440.7, 327.0)">C</text></g></g><g><clipPath id="clip-1089"><path d="M 673.3 314.4 L 673.3 238.3 L 634.2 238.3 L 634.2 314.4 Z M 673.3 314.4 "></path></clipPath><g clip-path="url(#clip-1089)"><path d="M 647.1 267.3 L 637.0 267.3 L 653.7 241.2 L 670.4 267.3 L 660.4 267.3 L 660.4 312.4 L 647.1 312.4 Z M 647.1 267.3 " fill="#A85648"></path><path d="M 45.1 23.4 L 45.1 33.4 L 71.2 16.7 L 45.1 0.0 L 45.1 10.1 L 0.0 10.1 L 0.0 23.4 Z M 45.1 23.4 " fill="none" stroke="#763A33" stroke-width="2.00" transform="matrix(0.00, -1.00, -1.00, 0.00, 670.4, 312.4)"></path></g></g><g><clipPath id="clip-1090"><path d="M 619.8 307.7 L 687.6 307.7 L 687.6 373.2 L 619.8 373.2 Z M 619.8 307.7 "></path></clipPath><g clip-path="url(#clip-1090)"><text xml:space="preserve" font-family="HelveticaNeue-Bold" font-weight="bold" font-size="36.0" fill="#000000" transform="matrix(1.00, 0.00, -0.00, -1.00, 631.0, 327.0)">C</text><text xml:space="preserve" font-family="HelveticaNeue-Bold" font-weight="bold" font-size="36.0" fill="#000000" transform="matrix(1.00, 0.00, -0.00, -1.00, 657.7, 327.0)">y</text></g></g><g><clipPath id="clip-1091"><path d="M 25.8 100.9 L 25.8 177.0 L 64.9 177.0 L 64.9 100.9 Z M 25.8 100.9 "></path></clipPath><g clip-path="url(#clip-1091)"><path d="M 52.0 148.1 L 62.0 148.1 L 45.3 174.1 L 28.6 148.1 L 38.7 148.1 L 38.7 102.9 L 52.0 102.9 Z M 52.0 148.1 " fill="#878859"></path><path d="M 45.1 23.4 L 45.1 33.4 L 71.2 16.7 L 45.1 0.0 L 45.1 10.1 L 0.0 10.1 L 0.0 23.4 Z M 45.1 23.4 " fill="none" stroke="#3B3C1B" stroke-width="2.00" transform="matrix(0.00, 1.00, 1.00, 0.00, 28.6, 102.9)"></path></g></g><g><clipPath id="clip-1092"><path d="M 10.8 37.5 L 79.9 37.5 L 79.9 103.0 L 10.8 103.0 Z M 10.8 37.5 "></path></clipPath><g clip-path="url(#clip-1092)"><text xml:space="preserve" font-family="HelveticaNeue-Bold" font-weight="bold" font-size="36.0" fill="#000000" transform="matrix(1.00, 0.00, -0.00, -1.00, 22.0, 57.0)">B</text><text xml:space="preserve" font-family="HelveticaNeue-Bold" font-weight="bold" font-size="36.0" fill="#000000" transform="matrix(1.00, 0.00, -0.00, -1.00, 47.3, 57.0)">u</text></g></g><g><clipPath id="clip-1093"><path d="M 75.8 100.9 L 75.8 177.0 L 114.9 177.0 L 114.9 100.9 Z M 75.8 100.9 "></path></clipPath><g clip-path="url(#clip-1093)"><path d="M 102.0 148.1 L 112.0 148.1 L 95.3 174.1 L 78.6 148.1 L 88.7 148.1 L 88.7 102.9 L 102.0 102.9 Z M 102.0 148.1 " fill="#878859"></path><path d="M 45.1 23.4 L 45.1 33.4 L 71.2 16.7 L 45.1 0.0 L 45.1 10.1 L 0.0 10.1 L 0.0 23.4 Z M 45.1 23.4 " fill="none" stroke="#3B3C1B" stroke-width="2.00" transform="matrix(0.00, 1.00, 1.00, 0.00, 78.6, 102.9)"></path></g></g><g><clipPath id="clip-1094"><path d="M 60.7 37.5 L 129.9 37.5 L 129.9 103.0 L 60.7 103.0 Z M 60.7 37.5 "></path></clipPath><g clip-path="url(#clip-1094)"><text xml:space="preserve" font-family="HelveticaNeue-Bold" font-weight="bold" font-size="36.0" fill="#000000" transform="matrix(1.00, 0.00, -0.00, -1.00, 72.0, 57.0)">B</text><text xml:space="preserve" font-family="HelveticaNeue-Bold" font-weight="bold" font-size="36.0" fill="#000000" transform="matrix(1.00, 0.00, -0.00, -1.00, 97.3, 57.0)">u</text></g></g><g><clipPath id="clip-1095"><path d="M 125.8 100.9 L 125.8 177.0 L 164.9 177.0 L 164.9 100.9 Z M 125.8 100.9 "></path></clipPath><g clip-path="url(#clip-1095)"><path d="M 152.0 148.1 L 162.0 148.1 L 145.3 174.1 L 128.6 148.1 L 138.7 148.1 L 138.7 102.9 L 152.0 102.9 Z M 152.0 148.1 " fill="#878859"></path><path d="M 45.1 23.4 L 45.1 33.4 L 71.2 16.7 L 45.1 0.0 L 45.1 10.1 L 0.0 10.1 L 0.0 23.4 Z M 45.1 23.4 " fill="none" stroke="#3B3C1B" stroke-width="2.00" transform="matrix(0.00, 1.00, 1.00, 0.00, 128.6, 102.9)"></path></g></g><g><clipPath id="clip-1096"><path d="M 110.7 37.5 L 179.9 37.5 L 179.9 103.0 L 110.7 103.0 Z M 110.7 37.5 "></path></clipPath><g clip-path="url(#clip-1096)"><text xml:space="preserve" font-family="HelveticaNeue-Bold" font-weight="bold" font-size="36.0" fill="#000000" transform="matrix(1.00, 0.00, -0.00, -1.00, 122.0, 57.0)">B</text><text xml:space="preserve" font-family="HelveticaNeue-Bold" font-weight="bold" font-size="36.0" fill="#000000" transform="matrix(1.00, 0.00, -0.00, -1.00, 147.3, 57.0)">u</text></g></g><g><clipPath id="clip-1097"><path d="M 175.6 100.9 L 175.6 177.0 L 214.7 177.0 L 214.7 100.9 Z M 175.6 100.9 "></path></clipPath><g clip-path="url(#clip-1097)"><path d="M 201.8 148.1 L 211.9 148.1 L 195.2 174.1 L 178.5 148.1 L 188.5 148.1 L 188.5 102.9 L 201.8 102.9 Z M 201.8 148.1 " fill="#878859"></path><path d="M 45.1 23.4 L 45.1 33.4 L 71.2 16.7 L 45.1 0.0 L 45.1 10.1 L 0.0 10.1 L 0.0 23.4 Z M 45.1 23.4 " fill="none" stroke="#3B3C1B" stroke-width="2.00" transform="matrix(0.00, 1.00, 1.00, 0.00, 178.5, 102.9)"></path></g></g><g><clipPath id="clip-1098"><path d="M 160.6 37.5 L 229.8 37.5 L 229.8 103.0 L 160.6 103.0 Z M 160.6 37.5 "></path></clipPath><g clip-path="url(#clip-1098)"><text xml:space="preserve" font-family="HelveticaNeue-Bold" font-weight="bold" font-size="36.0" fill="#000000" transform="matrix(1.00, 0.00, -0.00, -1.00, 172.0, 57.0)">B</text><text xml:space="preserve" font-family="HelveticaNeue-Bold" font-weight="bold" font-size="36.0" fill="#000000" transform="matrix(1.00, 0.00, -0.00, -1.00, 197.3, 57.0)">u</text></g></g></g></svg>