<?xml version="1.0" encoding="UTF-8" standalone="no"?><svg xmlns="http://www.w3.org/2000/svg" xmlns:xlink="http://www.w3.org/1999/xlink" clip-rule="evenodd" stroke-miterlimit="4.00" viewBox="0 0 982 358"><desc>SVG generated by Keynote</desc><defs></defs><g transform="matrix(1.00, 0.00, -0.00, -1.00, 0.0, 358.0)"><g><clipPath id="clip-908"><path d="M 687.4 14.8 L 917.0 14.9 L 917.0 10.9 L 687.4 10.8 Z M 687.4 14.8 "></path></clipPath><g clip-path="url(#clip-908)"><path d="M 0.0 0.0 L 227.6 0.0 " fill="none" stroke="#000000" stroke-width="2.00" transform="matrix(1.00, 0.00, 0.00, -1.00, 688.4, 12.8)"></path></g></g><g><clipPath id="clip-909"><path d="M 902.7 0.9 L 902.7 158.4 L 941.8 158.4 L 941.8 0.9 Z M 902.7 0.9 "></path></clipPath><g clip-path="url(#clip-909)"><path d="M 928.9 129.5 L 939.0 129.5 L 922.2 155.6 L 905.5 129.5 L 915.6 129.5 L 915.6 2.9 L 928.9 2.9 Z M 928.9 129.5 " fill="#FEFFFE"></path><path d="M 126.6 23.4 L 126.6 33.4 L 152.7 16.7 L 126.6 0.0 L 126.6 10.1 L 0.0 10.1 L 0.0 23.4 Z M 126.6 23.4 " fill="none" stroke="#000000" stroke-width="2.00" transform="matrix(0.00, 1.00, 1.00, 0.00, 905.5, 2.9)"></path></g></g><g><clipPath id="clip-910"><path d="M 0.3 163.8 L 981.7 163.8 L 981.7 226.4 L 0.3 226.4 Z M 0.3 163.8 "></path></clipPath><g clip-path="url(#clip-910)"><path d="M 938.3 164.8 L 938.3 164.8 L 980.7 195.1 L 938.3 225.4 L 938.3 225.4 L 1.3 225.4 L 1.3 164.8 Z M 938.3 164.8 " fill="#325D6A"></path></g></g><g><clipPath id="clip-911"><path d="M -5.3 161.8 L 980.7 161.8 L 980.7 227.0 L -5.3 227.0 Z M -5.3 161.8 "></path></clipPath><g clip-path="url(#clip-911)"><text xml:space="preserve" font-family="HelveticaNeue-Light" font-size="36.0" fill="#FFFFFF" transform="matrix(1.00, 0.00, -0.00, -1.00, 5.0, 181.0)">-</text><text xml:space="preserve" font-family="HelveticaNeue-Light" font-size="36.0" fill="#FFFFFF" transform="matrix(1.00, 0.00, -0.00, -1.00, 18.3, 181.0)">7</text><text xml:space="preserve" font-family="HelveticaNeue-Light" font-size="36.0" fill="#FFFFFF" transform="matrix(1.00, 0.00, -0.00, -1.00, 38.3, 181.0)"> </text><text xml:space="preserve" font-family="HelveticaNeue-Light" font-size="36.0" fill="#FFFFFF" transform="matrix(1.00, 0.00, -0.00, -1.00, 48.3, 181.0)">-</text><text xml:space="preserve" font-family="HelveticaNeue-Light" font-size="36.0" fill="#FFFFFF" transform="matrix(1.00, 0.00, -0.00, -1.00, 61.7, 181.0)">6</text><text xml:space="preserve" font-family="HelveticaNeue-Light" font-size="36.0" fill="#FFFFFF" transform="matrix(1.00, 0.00, -0.00, -1.00, 81.7, 181.0)"> </text><text xml:space="preserve" font-family="HelveticaNeue-Light" font-size="36.0" fill="#FFFFFF" transform="matrix(1.00, 0.00, -0.00, -1.00, 91.7, 181.0)"> </text><text xml:space="preserve" font-family="HelveticaNeue-Light" font-size="36.0" fill="#FFFFFF" transform="matrix(1.00, 0.00, -0.00, -1.00, 101.7, 181.0)">-</text><text xml:space="preserve" font-family="HelveticaNeue-Light" font-size="36.0" fill="#FFFFFF" transform="matrix(1.00, 0.00, -0.00, -1.00, 115.0, 181.0)">5</text><text xml:space="preserve" font-family="HelveticaNeue-Light" font-size="36.0" fill="#FFFFFF" transform="matrix(1.00, 0.00, -0.00, -1.00, 135.0, 181.0)"> </text><text xml:space="preserve" font-family="HelveticaNeue-Light" font-size="36.0" fill="#FFFFFF" transform="matrix(1.00, 0.00, -0.00, -1.00, 145.0, 181.0)"> </text><text xml:space="preserve" font-family="HelveticaNeue-Light" font-size="36.0" fill="#FFFFFF" transform="matrix(1.00, 0.00, -0.00, -1.00, 155.0, 181.0)">-</text><text xml:space="preserve" font-family="HelveticaNeue-Light" font-size="36.0" fill="#FFFFFF" transform="matrix(1.00, 0.00, -0.00, -1.00, 168.4, 181.0)">4</text><text xml:space="preserve" font-family="HelveticaNeue-Light" font-size="36.0" fill="#FFFFFF" transform="matrix(1.00, 0.00, -0.00, -1.00, 188.4, 181.0)"> </text><text xml:space="preserve" font-family="HelveticaNeue-Light" font-size="36.0" fill="#FFFFFF" transform="matrix(1.00, 0.00, -0.00, -1.00, 198.4, 181.0)"> </text><text xml:space="preserve" font-family="HelveticaNeue-Light" font-size="36.0" fill="#FFFFFF" transform="matrix(1.00, 0.00, -0.00, -1.00, 208.4, 181.0)">-</text><text xml:space="preserve" font-family="HelveticaNeue-Light" font-size="36.0" fill="#FFFFFF" transform="matrix(1.00, 0.00, -0.00, -1.00, 221.7, 181.0)">3</text><text xml:space="preserve" font-family="HelveticaNeue-Light" font-size="36.0" fill="#FFFFFF" transform="matrix(1.00, 0.00, -0.00, -1.00, 241.7, 181.0)"> </text><text xml:space="preserve" font-family="HelveticaNeue-Light" font-size="36.0" fill="#FFFFFF" transform="matrix(1.00, 0.00, -0.00, -1.00, 251.7, 181.0)"> </text><text xml:space="preserve" font-family="HelveticaNeue-Light" font-size="36.0" fill="#FFFFFF" transform="matrix(1.00, 0.00, -0.00, -1.00, 261.8, 181.0)">-</text><text xml:space="preserve" font-family="HelveticaNeue-Light" font-size="36.0" fill="#FFFFFF" transform="matrix(1.00, 0.00, -0.00, -1.00, 275.1, 181.0)">2</text><text xml:space="preserve" font-family="HelveticaNeue-Light" font-size="36.0" fill="#FFFFFF" transform="matrix(1.00, 0.00, -0.00, -1.00, 295.1, 181.0)"> </text><text xml:space="preserve" font-family="HelveticaNeue-Light" font-size="36.0" fill="#FFFFFF" transform="matrix(1.00, 0.00, -0.00, -1.00, 305.1, 181.0)"> </text><text xml:space="preserve" font-family="HelveticaNeue-Light" font-size="36.0" fill="#FFFFFF" transform="matrix(1.00, 0.00, -0.00, -1.00, 315.1, 181.0)">-</text><text xml:space="preserve" font-family="HelveticaNeue-Light" font-size="36.0" fill="#FFFFFF" transform="matrix(1.00, 0.00, -0.00, -1.00, 328.4, 181.0)">1</text><text xml:space="preserve" font-family="HelveticaNeue-Light" font-size="36.0" fill="#FFFFFF" transform="matrix(1.00, 0.00, -0.00, -1.00, 348.4, 181.0)"> </text><text xml:space="preserve" font-family="HelveticaNeue-Light" font-size="36.0" fill="#FFFFFF" transform="matrix(1.00, 0.00, -0.00, -1.00, 358.4, 181.0)"> </text><text xml:space="preserve" font-family="HelveticaNeue-Light" font-size="36.0" fill="#FFFFFF" transform="matrix(1.00, 0.00, -0.00, -1.00, 368.5, 181.0)">•</text><text xml:space="preserve" font-family="HelveticaNeue-Light" font-size="36.0" fill="#FFFFFF" transform="matrix(1.00, 0.00, -0.00, -1.00, 386.5, 181.0)">0</text><text xml:space="preserve" font-family="HelveticaNeue-Light" font-size="36.0" fill="#FFFFFF" transform="matrix(1.00, 0.00, -0.00, -1.00, 406.5, 181.0)"> </text><text xml:space="preserve" font-family="HelveticaNeue-Light" font-size="36.0" fill="#FFFFFF" transform="matrix(1.00, 0.00, -0.00, -1.00, 416.5, 181.0)"> </text><text xml:space="preserve" font-family="HelveticaNeue-Light" font-size="36.0" fill="#FFFFFF" transform="matrix(1.00, 0.00, -0.00, -1.00, 426.5, 181.0)">+</text><text xml:space="preserve" font-family="HelveticaNeue-Light" font-size="36.0" fill="#FFFFFF" transform="matrix(1.00, 0.00, -0.00, -1.00, 448.1, 181.0)">1</text><text xml:space="preserve" font-family="HelveticaNeue-Light" font-size="36.0" fill="#FFFFFF" transform="matrix(1.00, 0.00, -0.00, -1.00, 468.1, 181.0)"> </text><text xml:space="preserve" font-family="HelveticaNeue-Light" font-size="36.0" fill="#FFFFFF" transform="matrix(1.00, 0.00, -0.00, -1.00, 478.1, 181.0)"> </text><text xml:space="preserve" font-family="HelveticaNeue-Light" font-size="36.0" fill="#FFFFFF" transform="matrix(1.00, 0.00, -0.00, -1.00, 488.1, 181.0)">+</text><text xml:space="preserve" font-family="HelveticaNeue-Light" font-size="36.0" fill="#FFFFFF" transform="matrix(1.00, 0.00, -0.00, -1.00, 509.7, 181.0)">2</text><text xml:space="preserve" font-family="HelveticaNeue-Light" font-size="36.0" fill="#FFFFFF" transform="matrix(1.00, 0.00, -0.00, -1.00, 529.7, 181.0)"> </text><text xml:space="preserve" font-family="HelveticaNeue-Light" font-size="36.0" fill="#FFFFFF" transform="matrix(1.00, 0.00, -0.00, -1.00, 539.7, 181.0)"> </text><text xml:space="preserve" font-family="HelveticaNeue-Light" font-size="36.0" fill="#FFFFFF" transform="matrix(1.00, 0.00, -0.00, -1.00, 549.8, 181.0)">+</text><text xml:space="preserve" font-family="HelveticaNeue-Light" font-size="36.0" fill="#FFFFFF" transform="matrix(1.00, 0.00, -0.00, -1.00, 571.4, 181.0)">3</text><text xml:space="preserve" font-family="HelveticaNeue-Light" font-size="36.0" fill="#FFFFFF" transform="matrix(1.00, 0.00, -0.00, -1.00, 591.4, 181.0)"> </text><text xml:space="preserve" font-family="HelveticaNeue-Light" font-size="36.0" fill="#FFFFFF" transform="matrix(1.00, 0.00, -0.00, -1.00, 601.4, 181.0)"> </text><text xml:space="preserve" font-family="HelveticaNeue-Light" font-size="36.0" fill="#FFFFFF" transform="matrix(1.00, 0.00, -0.00, -1.00, 611.4, 181.0)">+</text><text xml:space="preserve" font-family="HelveticaNeue-Light" font-size="36.0" fill="#FFFFFF" transform="matrix(1.00, 0.00, -0.00, -1.00, 633.0, 181.0)">4</text><text xml:space="preserve" font-family="HelveticaNeue-Light" font-size="36.0" fill="#FFFFFF" transform="matrix(1.00, 0.00, -0.00, -1.00, 653.0, 181.0)"> </text><text xml:space="preserve" font-family="HelveticaNeue-Light" font-size="36.0" fill="#FFFFFF" transform="matrix(1.00, 0.00, -0.00, -1.00, 663.0, 181.0)"> </text><text xml:space="preserve" font-family="HelveticaNeue-Light" font-size="36.0" fill="#FFFFFF" transform="matrix(1.00, 0.00, -0.00, -1.00, 673.0, 181.0)">+</text><text xml:space="preserve" font-family="HelveticaNeue-Light" font-size="36.0" fill="#FFFFFF" transform="matrix(1.00, 0.00, -0.00, -1.00, 694.6, 181.0)">5</text><text xml:space="preserve" font-family="HelveticaNeue-Light" font-size="36.0" fill="#FFFFFF" transform="matrix(1.00, 0.00, -0.00, -1.00, 714.6, 181.0)"> </text><text xml:space="preserve" font-family="HelveticaNeue-Light" font-size="36.0" fill="#FFFFFF" transform="matrix(1.00, 0.00, -0.00, -1.00, 724.6, 181.0)"> </text><text xml:space="preserve" font-family="HelveticaNeue-Light" font-size="36.0" fill="#FFFFFF" transform="matrix(1.00, 0.00, -0.00, -1.00, 734.6, 181.0)"> </text><text xml:space="preserve" font-family="HelveticaNeue-Light" font-size="36.0" fill="#FFFFFF" transform="matrix(1.00, 0.00, -0.00, -1.00, 744.7, 181.0)"> </text><text xml:space="preserve" font-family="HelveticaNeue-Light" font-size="36.0" fill="#FFFFFF" transform="matrix(1.00, 0.00, -0.00, -1.00, 754.7, 181.0)"> </text><text xml:space="preserve" font-family="HelveticaNeue-Light" font-size="36.0" fill="#FFFFFF" transform="matrix(1.00, 0.00, -0.00, -1.00, 764.7, 181.0)">3</text><text xml:space="preserve" font-family="HelveticaNeue-Light" font-size="36.0" fill="#FFFFFF" transform="matrix(1.00, 0.00, -0.00, -1.00, 784.7, 181.0)">5</text><text xml:space="preserve" font-family="HelveticaNeue-Light" font-size="36.0" fill="#FFFFFF" transform="matrix(1.00, 0.00, -0.00, -1.00, 804.7, 181.0)"> </text><text xml:space="preserve" font-family="HelveticaNeue-Light" font-size="36.0" fill="#FFFFFF" transform="matrix(1.00, 0.00, -0.00, -1.00, 814.7, 181.0)"> </text><text xml:space="preserve" font-family="HelveticaNeue-Light" font-size="36.0" fill="#FFFFFF" transform="matrix(1.00, 0.00, -0.00, -1.00, 824.7, 181.0)"> </text><text xml:space="preserve" font-family="HelveticaNeue-Light" font-size="36.0" fill="#FFFFFF" transform="matrix(1.00, 0.00, -0.00, -1.00, 834.7, 181.0)"> </text><text xml:space="preserve" font-family="HelveticaNeue-Light" font-size="36.0" fill="#FFFFFF" transform="matrix(1.00, 0.00, -0.00, -1.00, 844.7, 181.0)"> </text><text xml:space="preserve" font-family="HelveticaNeue-Light" font-size="36.0" fill="#FFFFFF" transform="matrix(1.00, 0.00, -0.00, -1.00, 854.7, 181.0)"> </text><text xml:space="preserve" font-family="HelveticaNeue-Light" font-size="36.0" fill="#FFFFFF" transform="matrix(1.00, 0.00, -0.00, -1.00, 864.8, 181.0)">1</text><text xml:space="preserve" font-family="HelveticaNeue-Light" font-size="36.0" fill="#FFFFFF" transform="matrix(1.00, 0.00, -0.00, -1.00, 884.8, 181.0)">8</text><text xml:space="preserve" font-family="HelveticaNeue-Light" font-size="36.0" fill="#FFFFFF" transform="matrix(1.00, 0.00, -0.00, -1.00, 904.8, 181.0)">0</text></g></g><g><clipPath id="clip-912"><path d="M 829.2 272.2 L 829.2 115.4 L 609.4 115.4 L 609.4 272.2 Z M 829.2 272.2 "></path></clipPath><g clip-path="url(#clip-912)"><text xml:space="preserve" font-family="AppleSymbols" font-size="150.0" fill="#FEFFFE" transform="matrix(0.00, -1.00, -1.00, -0.00, 694.0, 237.0)">⌁</text></g></g><g><clipPath id="clip-913"><path d="M 922.8 272.2 L 922.8 115.4 L 703.1 115.4 L 703.1 272.2 Z M 922.8 272.2 "></path></clipPath><g clip-path="url(#clip-913)"><text xml:space="preserve" font-family="AppleSymbols" font-size="150.0" fill="#FEFFFE" transform="matrix(0.00, -1.00, -1.00, -0.00, 787.0, 237.0)">⌁</text></g></g><g><clipPath id="clip-914"><path d="M 93.9 302.8 L 93.9 226.7 L 54.8 226.7 L 54.8 302.8 Z M 93.9 302.8 "></path></clipPath><g clip-path="url(#clip-914)"><path d="M 67.7 255.6 L 57.6 255.6 L 74.3 229.6 L 91.0 255.6 L 81.0 255.6 L 81.0 300.8 L 67.7 300.8 Z M 67.7 255.6 " fill="#FEFFFE"></path><path d="M 45.1 23.4 L 45.1 33.4 L 71.2 16.7 L 45.1 0.0 L 45.1 10.1 L 0.0 10.1 L 0.0 23.4 Z M 45.1 23.4 " fill="none" stroke="#163D40" stroke-width="2.00" transform="matrix(0.00, -1.00, -1.00, 0.00, 91.0, 300.8)"></path></g></g><g><clipPath id="clip-915"><path d="M 52.4 297.3 L 96.2 297.3 L 96.2 362.8 L 52.4 362.8 Z M 52.4 297.3 "></path></clipPath><g clip-path="url(#clip-915)"><text xml:space="preserve" font-family="HelveticaNeue-Bold" font-weight="bold" font-size="36.0" fill="#000000" transform="matrix(1.00, 0.00, -0.00, -1.00, 64.0, 317.0)">F</text></g></g><g><clipPath id="clip-916"><path d="M 144.7 302.8 L 144.7 226.7 L 105.6 226.7 L 105.6 302.8 Z M 144.7 302.8 "></path></clipPath><g clip-path="url(#clip-916)"><path d="M 118.5 255.6 L 108.5 255.6 L 125.2 229.6 L 141.9 255.6 L 131.8 255.6 L 131.8 300.8 L 118.5 300.8 Z M 118.5 255.6 " fill="#FEFFFE"></path><path d="M 45.1 23.4 L 45.1 33.4 L 71.2 16.7 L 45.1 0.0 L 45.1 10.1 L 0.0 10.1 L 0.0 23.4 Z M 45.1 23.4 " fill="none" stroke="#163D40" stroke-width="2.00" transform="matrix(0.00, -1.00, -1.00, 0.00, 141.9, 300.8)"></path></g></g><g><clipPath id="clip-917"><path d="M 103.3 297.3 L 147.1 297.3 L 147.1 362.8 L 103.3 362.8 Z M 103.3 297.3 "></path></clipPath><g clip-path="url(#clip-917)"><text xml:space="preserve" font-family="HelveticaNeue-Bold" font-weight="bold" font-size="36.0" fill="#000000" transform="matrix(1.00, 0.00, -0.00, -1.00, 115.0, 317.0)">F</text></g></g><g><clipPath id="clip-918"><path d="M 199.8 302.8 L 199.8 226.7 L 160.8 226.7 L 160.8 302.8 Z M 199.8 302.8 "></path></clipPath><g clip-path="url(#clip-918)"><path d="M 173.7 255.6 L 163.6 255.6 L 180.3 229.6 L 197.0 255.6 L 186.9 255.6 L 186.9 300.8 L 173.7 300.8 Z M 173.7 255.6 " fill="#FEFFFE"></path><path d="M 45.1 23.4 L 45.1 33.4 L 71.2 16.7 L 45.1 0.0 L 45.1 10.1 L 0.0 10.1 L 0.0 23.4 Z M 45.1 23.4 " fill="none" stroke="#163D40" stroke-width="2.00" transform="matrix(0.00, -1.00, -1.00, 0.00, 197.0, 300.8)"></path></g></g><g><clipPath id="clip-919"><path d="M 158.4 297.3 L 202.2 297.3 L 202.2 362.8 L 158.4 362.8 Z M 158.4 297.3 "></path></clipPath><g clip-path="url(#clip-919)"><text xml:space="preserve" font-family="HelveticaNeue-Bold" font-weight="bold" font-size="36.0" fill="#000000" transform="matrix(1.00, 0.00, -0.00, -1.00, 170.0, 317.0)">F</text></g></g><g><clipPath id="clip-920"><path d="M 250.7 302.8 L 250.7 226.7 L 211.6 226.7 L 211.6 302.8 Z M 250.7 302.8 "></path></clipPath><g clip-path="url(#clip-920)"><path d="M 224.5 255.6 L 214.4 255.6 L 231.2 229.6 L 247.9 255.6 L 237.8 255.6 L 237.8 300.8 L 224.5 300.8 Z M 224.5 255.6 " fill="#FEFFFE"></path><path d="M 45.1 23.4 L 45.1 33.4 L 71.2 16.7 L 45.1 0.0 L 45.1 10.1 L 0.0 10.1 L 0.0 23.4 Z M 45.1 23.4 " fill="none" stroke="#163D40" stroke-width="2.00" transform="matrix(0.00, -1.00, -1.00, 0.00, 247.9, 300.8)"></path></g></g><g><clipPath id="clip-921"><path d="M 209.2 297.3 L 253.1 297.3 L 253.1 362.8 L 209.2 362.8 Z M 209.2 297.3 "></path></clipPath><g clip-path="url(#clip-921)"><text xml:space="preserve" font-family="HelveticaNeue-Bold" font-weight="bold" font-size="36.0" fill="#000000" transform="matrix(1.00, 0.00, -0.00, -1.00, 220.0, 317.0)">F</text></g></g><g><clipPath id="clip-922"><path d="M 305.8 302.8 L 305.8 226.7 L 266.7 226.7 L 266.7 302.8 Z M 305.8 302.8 "></path></clipPath><g clip-path="url(#clip-922)"><path d="M 279.6 255.6 L 269.6 255.6 L 286.3 229.6 L 303.0 255.6 L 292.9 255.6 L 292.9 300.8 L 279.6 300.8 Z M 279.6 255.6 " fill="#FEFFFE"></path><path d="M 45.1 23.4 L 45.1 33.4 L 71.2 16.7 L 45.1 0.0 L 45.1 10.1 L 0.0 10.1 L 0.0 23.4 Z M 45.1 23.4 " fill="none" stroke="#163D40" stroke-width="2.00" transform="matrix(0.00, -1.00, -1.00, 0.00, 303.0, 300.8)"></path></g></g><g><clipPath id="clip-923"><path d="M 264.4 297.3 L 308.2 297.3 L 308.2 362.8 L 264.4 362.8 Z M 264.4 297.3 "></path></clipPath><g clip-path="url(#clip-923)"><text xml:space="preserve" font-family="HelveticaNeue-Bold" font-weight="bold" font-size="36.0" fill="#000000" transform="matrix(1.00, 0.00, -0.00, -1.00, 276.0, 317.0)">F</text></g></g><g><clipPath id="clip-924"><path d="M 360.9 302.8 L 360.9 226.7 L 321.9 226.7 L 321.9 302.8 Z M 360.9 302.8 "></path></clipPath><g clip-path="url(#clip-924)"><path d="M 334.8 255.6 L 324.7 255.6 L 341.4 229.6 L 358.1 255.6 L 348.0 255.6 L 348.0 300.8 L 334.8 300.8 Z M 334.8 255.6 " fill="#FEFB00"></path><path d="M 45.1 23.4 L 45.1 33.4 L 71.2 16.7 L 45.1 0.0 L 45.1 10.1 L 0.0 10.1 L 0.0 23.4 Z M 45.1 23.4 " fill="none" stroke="#000000" stroke-width="2.00" transform="matrix(0.00, -1.00, -1.00, 0.00, 358.1, 300.8)"></path></g></g><g><clipPath id="clip-925"><path d="M 304.5 277.0 L 378.3 277.0 L 378.3 364.5 L 304.5 364.5 Z M 304.5 277.0 "></path></clipPath><g clip-path="url(#clip-925)"><text xml:space="preserve" font-family="AppleSymbols" font-size="60.0" fill="#000000" transform="matrix(1.00, 0.00, -0.00, -1.00, 319.0, 311.0)">☢</text></g></g><g><clipPath id="clip-926"><path d="M 590.3 302.8 L 590.3 226.7 L 551.2 226.7 L 551.2 302.8 Z M 590.3 302.8 "></path></clipPath><g clip-path="url(#clip-926)"><path d="M 564.1 255.6 L 554.1 255.6 L 570.8 229.6 L 587.5 255.6 L 577.4 255.6 L 577.4 300.8 L 564.1 300.8 Z M 564.1 255.6 " fill="#A85648"></path><path d="M 45.1 23.4 L 45.1 33.4 L 71.2 16.7 L 45.1 0.0 L 45.1 10.1 L 0.0 10.1 L 0.0 23.4 Z M 45.1 23.4 " fill="none" stroke="#763A33" stroke-width="2.00" transform="matrix(0.00, -1.00, -1.00, 0.00, 587.5, 300.8)"></path></g></g><g><clipPath id="clip-927"><path d="M 536.9 297.3 L 604.7 297.3 L 604.7 362.8 L 536.9 362.8 Z M 536.9 297.3 "></path></clipPath><g clip-path="url(#clip-927)"><text xml:space="preserve" font-family="HelveticaNeue-Bold" font-weight="bold" font-size="36.0" fill="#000000" transform="matrix(1.00, 0.00, -0.00, -1.00, 548.0, 317.0)">C</text><text xml:space="preserve" font-family="HelveticaNeue-Bold" font-weight="bold" font-size="36.0" fill="#000000" transform="matrix(1.00, 0.00, -0.00, -1.00, 574.7, 317.0)">y</text></g></g><g><clipPath id="clip-928"><path d="M 54.8 87.1 L 54.8 163.1 L 93.9 163.1 L 93.9 87.1 Z M 54.8 87.1 "></path></clipPath><g clip-path="url(#clip-928)"><path d="M 81.0 134.2 L 91.0 134.2 L 74.3 160.3 L 57.6 134.2 L 67.7 134.2 L 67.7 89.1 L 81.0 89.1 Z M 81.0 134.2 " fill="#DBA486"></path><path d="M 45.1 23.4 L 45.1 33.4 L 71.2 16.7 L 45.1 0.0 L 45.1 10.1 L 0.0 10.1 L 0.0 23.4 Z M 45.1 23.4 " fill="none" stroke="#763A33" stroke-width="2.00" transform="matrix(0.00, 1.00, 1.00, 0.00, 57.6, 89.1)"></path></g></g><g><clipPath id="clip-929"><path d="M 40.4 26.0 L 108.2 26.0 L 108.2 91.5 L 40.4 91.5 Z M 40.4 26.0 "></path></clipPath><g clip-path="url(#clip-929)"><text xml:space="preserve" font-family="HelveticaNeue-Bold" font-weight="bold" font-size="36.0" fill="#000000" transform="matrix(1.00, 0.00, -0.00, -1.00, 52.0, 46.0)">C</text><text xml:space="preserve" font-family="HelveticaNeue-Bold" font-weight="bold" font-size="36.0" fill="#000000" transform="matrix(1.00, 0.00, -0.00, -1.00, 78.7, 46.0)">y</text></g></g><g><clipPath id="clip-930"><path d="M 105.6 86.1 L 105.6 162.1 L 144.7 162.1 L 144.7 86.1 Z M 105.6 86.1 "></path></clipPath><g clip-path="url(#clip-930)"><path d="M 131.8 133.2 L 141.9 133.2 L 125.2 159.3 L 108.5 133.2 L 118.5 133.2 L 118.5 88.1 L 131.8 88.1 Z M 131.8 133.2 " fill="#DBA486"></path><path d="M 45.1 23.4 L 45.1 33.4 L 71.2 16.7 L 45.1 0.0 L 45.1 10.1 L 0.0 10.1 L 0.0 23.4 Z M 45.1 23.4 " fill="none" stroke="#763A33" stroke-width="2.00" transform="matrix(0.00, 1.00, 1.00, 0.00, 108.5, 88.1)"></path></g></g><g><clipPath id="clip-931"><path d="M 91.3 25.0 L 159.1 25.0 L 159.1 90.5 L 91.3 90.5 Z M 91.3 25.0 "></path></clipPath><g clip-path="url(#clip-931)"><text xml:space="preserve" font-family="HelveticaNeue-Bold" font-weight="bold" font-size="36.0" fill="#000000" transform="matrix(1.00, 0.00, -0.00, -1.00, 102.0, 45.0)">C</text><text xml:space="preserve" font-family="HelveticaNeue-Bold" font-weight="bold" font-size="36.0" fill="#000000" transform="matrix(1.00, 0.00, -0.00, -1.00, 128.7, 45.0)">y</text></g></g><g><clipPath id="clip-932"><path d="M 416.1 301.9 L 416.1 225.8 L 377.0 225.8 L 377.0 301.9 Z M 416.1 301.9 "></path></clipPath><g clip-path="url(#clip-932)"><path d="M 389.9 254.8 L 379.8 254.8 L 396.5 228.7 L 413.2 254.8 L 403.2 254.8 L 403.2 299.9 L 389.9 299.9 Z M 389.9 254.8 " fill="#FF2600"></path><path d="M 45.1 23.4 L 45.1 33.4 L 71.2 16.7 L 45.1 0.0 L 45.1 10.1 L 0.0 10.1 L 0.0 23.4 Z M 45.1 23.4 " fill="none" stroke="#163D40" stroke-width="2.00" transform="matrix(0.00, -1.00, -1.00, 0.00, 413.2, 299.9)"></path></g></g><g><clipPath id="clip-933"><path d="M 703.8 301.9 L 703.8 225.8 L 664.7 225.8 L 664.7 301.9 Z M 703.8 301.9 "></path></clipPath><g clip-path="url(#clip-933)"><path d="M 677.6 254.8 L 667.5 254.8 L 684.2 228.7 L 700.9 254.8 L 690.9 254.8 L 690.9 299.9 L 677.6 299.9 Z M 677.6 254.8 " fill="#FEFFFE"></path><path d="M 45.1 23.4 L 45.1 33.4 L 71.2 16.7 L 45.1 0.0 L 45.1 10.1 L 0.0 10.1 L 0.0 23.4 Z M 45.1 23.4 " fill="none" stroke="#163D40" stroke-width="2.00" transform="matrix(0.00, -1.00, -1.00, 0.00, 700.9, 299.9)"></path></g></g><g><clipPath id="clip-934"><path d="M 675.7 262.1 L 824.2 262.1 L 824.2 315.0 L 675.7 315.0 Z M 675.7 262.1 "></path></clipPath><g clip-path="url(#clip-934)"><path d="M 677.7 313.0 L 822.2 313.0 L 822.2 264.1 L 677.7 264.1 Z M 677.7 313.0 " fill="#FEFFFE"></path><path d="M 0.0 0.0 L 144.5 0.0 L 144.5 49.0 L 0.0 49.0 Z M 0.0 0.0 " fill="none" stroke="#163D40" stroke-width="2.00" transform="matrix(1.00, 0.00, 0.00, -1.00, 677.7, 313.0)"></path></g></g><g><clipPath id="clip-935"><path d="M 672.0 269.0 L 827.9 269.0 L 827.9 308.0 L 672.0 308.0 Z M 672.0 269.0 "></path></clipPath><g clip-path="url(#clip-935)"><text xml:space="preserve" font-family="HelveticaNeue-Bold" font-weight="bold" font-size="36.0" fill="#000000" transform="matrix(1.00, 0.00, -0.00, -1.00, 693.0, 273.0)">G</text><text xml:space="preserve" font-family="HelveticaNeue-Bold" font-weight="bold" font-size="36.0" fill="#000000" transform="matrix(1.00, 0.00, -0.00, -1.00, 720.3, 273.0)">-</text><text xml:space="preserve" font-family="HelveticaNeue-Bold" font-weight="bold" font-size="36.0" fill="#000000" transform="matrix(1.00, 0.00, -0.00, -1.00, 735.0, 273.0)">C</text><text xml:space="preserve" font-family="HelveticaNeue-Bold" font-weight="bold" font-size="36.0" fill="#000000" transform="matrix(1.00, 0.00, -0.00, -1.00, 761.7, 273.0)">S</text><text xml:space="preserve" font-family="HelveticaNeue-Bold" font-weight="bold" font-size="36.0" fill="#000000" transform="matrix(1.00, 0.00, -0.00, -1.00, 785.0, 273.0)">F</text></g></g><g><clipPath id="clip-936"><path d="M 677.7 252.0 L 691.3 252.0 L 691.3 275.7 L 677.7 275.7 Z M 677.7 252.0 "></path></clipPath><g clip-path="url(#clip-936)"><path d="M 678.7 274.7 L 690.3 274.7 L 690.3 253.0 L 678.7 253.0 Z M 678.7 274.7 " fill="#FEFFFE"></path></g></g><g><clipPath id="clip-937"><path d="M 762.4 302.6 L 839.4 302.6 L 839.4 339.6 L 762.4 339.6 Z M 762.4 302.6 "></path></clipPath><g clip-path="url(#clip-937)"><path d="M 763.4 338.6 L 838.4 338.6 L 838.4 303.6 L 763.4 303.6 Z M 763.4 338.6 " fill="#FEFFFE"></path></g></g><g><clipPath id="clip-938"><path d="M 762.4 229.3 L 839.4 229.3 L 839.4 266.3 L 762.4 266.3 Z M 762.4 229.3 "></path></clipPath><g clip-path="url(#clip-938)"><path d="M 763.4 265.3 L 838.4 265.3 L 838.4 230.3 L 763.4 230.3 Z M 763.4 265.3 " fill="#FEFFFE"></path></g></g><g><clipPath id="clip-939"><path d="M 807.1 241.1 L 884.1 241.1 L 884.1 317.2 L 807.1 317.2 Z M 807.1 241.1 "></path></clipPath><g clip-path="url(#clip-939)"><path d="M 808.1 316.2 L 883.1 316.2 L 883.1 242.1 L 808.1 242.1 Z M 808.1 316.2 " fill="#FEFFFE"></path></g></g><g><clipPath id="clip-940"><path d="M 662.8 5.6 L 662.8 163.1 L 701.8 163.1 L 701.8 5.6 Z M 662.8 5.6 "></path></clipPath><g clip-path="url(#clip-940)"><path d="M 689.0 134.2 L 699.0 134.2 L 682.3 160.3 L 665.6 134.2 L 675.7 134.2 L 675.7 7.6 L 689.0 7.6 Z M 689.0 134.2 " fill="#FEFFFE"></path><path d="M 126.6 23.4 L 126.6 33.4 L 152.7 16.7 L 126.6 0.0 L 126.6 10.1 L 0.0 10.1 L 0.0 23.4 Z M 126.6 23.4 " fill="none" stroke="#000000" stroke-width="2.00" transform="matrix(0.00, 1.00, 1.00, 0.00, 665.6, 7.6)"></path></g></g><g><clipPath id="clip-941"><path d="M 773.9 72.3 L 773.9 163.1 L 813.0 163.1 L 813.0 72.3 Z M 773.9 72.3 "></path></clipPath><g clip-path="url(#clip-941)"><path d="M 800.1 134.2 L 810.1 134.2 L 793.4 160.3 L 776.7 134.2 L 786.8 134.2 L 786.8 74.3 L 800.1 74.3 Z M 800.1 134.2 " fill="#FEFFFE"></path><path d="M 59.9 23.4 L 59.9 33.4 L 86.0 16.7 L 59.9 0.0 L 59.9 10.1 L 0.0 10.1 L 0.0 23.4 Z M 59.9 23.4 " fill="none" stroke="#000000" stroke-width="2.00" transform="matrix(0.00, 1.00, 1.00, 0.00, 776.7, 74.3)"></path></g></g><g><clipPath id="clip-942"><path d="M 677.6 78.1 L 798.8 78.1 L 798.8 131.1 L 677.6 131.1 Z M 677.6 78.1 "></path></clipPath><g clip-path="url(#clip-942)"><path d="M 678.6 130.1 L 797.8 130.1 L 797.8 79.1 L 678.6 79.1 Z M 678.6 130.1 " fill="#FEFFFE"></path></g></g><g><clipPath id="clip-943"><path d="M 671.9 71.4 L 804.6 71.4 L 804.6 136.8 L 671.9 136.8 Z M 671.9 71.4 "></path></clipPath><g clip-path="url(#clip-943)"><text xml:space="preserve" font-family="HelveticaNeue-Bold" font-weight="bold" font-size="36.0" fill="#000000" transform="matrix(1.00, 0.00, -0.00, -1.00, 695.0, 91.0)">M</text><text xml:space="preserve" font-family="HelveticaNeue-Bold" font-weight="bold" font-size="36.0" fill="#000000" transform="matrix(1.00, 0.00, -0.00, -1.00, 727.7, 91.0)">M</text><text xml:space="preserve" font-family="HelveticaNeue-Bold" font-weight="bold" font-size="36.0" fill="#000000" transform="matrix(1.00, 0.00, -0.00, -1.00, 760.3, 91.0)">F</text></g></g><g><clipPath id="clip-944"><path d="M 686.9 131.3 L 788.8 131.1 L 788.8 127.1 L 686.8 127.3 Z M 686.9 131.3 "></path></clipPath><g clip-path="url(#clip-944)"><path d="M 0.0 0.0 L 100.0 0.0 " fill="none" stroke="#000000" stroke-width="2.00" transform="matrix(1.00, -0.00, -0.00, -1.00, 687.8, 129.3)"></path></g></g><g><clipPath id="clip-945"><path d="M 686.9 81.8 L 788.8 81.6 L 788.8 77.6 L 686.8 77.8 Z M 686.9 81.8 "></path></clipPath><g clip-path="url(#clip-945)"><path d="M 0.0 0.0 L 100.0 0.0 " fill="none" stroke="#000000" stroke-width="2.00" transform="matrix(1.00, -0.00, -0.00, -1.00, 687.8, 79.8)"></path></g></g><g><clipPath id="clip-946"><path d="M 683.5 12.4 L 923.0 12.4 L 923.0 65.3 L 683.5 65.3 Z M 683.5 12.4 "></path></clipPath><g clip-path="url(#clip-946)"><path d="M 684.5 64.3 L 922.0 64.3 L 922.0 13.4 L 684.5 13.4 Z M 684.5 64.3 " fill="#FEFFFE"></path></g></g><g><clipPath id="clip-947"><path d="M 677.8 5.6 L 928.7 5.6 L 928.7 71.1 L 677.8 71.1 Z M 677.8 5.6 "></path></clipPath><g clip-path="url(#clip-947)"><text xml:space="preserve" font-family="HelveticaNeue-Bold" font-weight="bold" font-size="36.0" fill="#000000" transform="matrix(1.00, 0.00, -0.00, -1.00, 713.0, 25.0)">t</text><text xml:space="preserve" font-family="HelveticaNeue-Bold" font-weight="bold" font-size="36.0" fill="#000000" transform="matrix(1.00, 0.00, -0.00, -1.00, 725.7, 25.0)">a</text><text xml:space="preserve" font-family="HelveticaNeue-Bold" font-weight="bold" font-size="36.0" fill="#000000" transform="matrix(1.00, 0.00, -0.00, -1.00, 746.3, 25.0)">c</text><text xml:space="preserve" font-family="HelveticaNeue-Bold" font-weight="bold" font-size="36.0" fill="#000000" transform="matrix(1.00, 0.00, -0.00, -1.00, 767.0, 25.0)">r</text><text xml:space="preserve" font-family="HelveticaNeue-Bold" font-weight="bold" font-size="36.0" fill="#000000" transform="matrix(1.00, 0.00, -0.00, -1.00, 780.4, 25.0)">o</text><text xml:space="preserve" font-family="HelveticaNeue-Bold" font-weight="bold" font-size="36.0" fill="#000000" transform="matrix(1.00, 0.00, -0.00, -1.00, 802.4, 25.0)">l</text><text xml:space="preserve" font-family="HelveticaNeue-Bold" font-weight="bold" font-size="36.0" fill="#000000" transform="matrix(1.00, 0.00, -0.00, -1.00, 811.6, 25.0)">i</text><text xml:space="preserve" font-family="HelveticaNeue-Bold" font-weight="bold" font-size="36.0" fill="#000000" transform="matrix(1.00, 0.00, -0.00, -1.00, 820.9, 25.0)">m</text><text xml:space="preserve" font-family="HelveticaNeue-Bold" font-weight="bold" font-size="36.0" fill="#000000" transform="matrix(1.00, 0.00, -0.00, -1.00, 853.5, 25.0)">u</text><text xml:space="preserve" font-family="HelveticaNeue-Bold" font-weight="bold" font-size="36.0" fill="#000000" transform="matrix(1.00, 0.00, -0.00, -1.00, 874.9, 25.0)">s</text></g></g><g><clipPath id="clip-948"><path d="M 687.3 67.3 L 916.9 67.4 L 916.9 63.4 L 687.3 63.3 Z M 687.3 67.3 "></path></clipPath><g clip-path="url(#clip-948)"><path d="M 0.0 0.0 L 227.6 0.0 " fill="none" stroke="#000000" stroke-width="2.00" transform="matrix(1.00, 0.00, 0.00, -1.00, 688.3, 65.3)"></path></g></g><g><clipPath id="clip-949"><path d="M 356.3 295.2 L 436.8 295.2 L 436.8 360.7 L 356.3 360.7 Z M 356.3 295.2 "></path></clipPath><g clip-path="url(#clip-949)"><text xml:space="preserve" font-family="HelveticaNeue-Bold" font-weight="bold" font-size="36.0" fill="#000000" transform="matrix(1.00, 0.00, -0.00, -1.00, 368.0, 315.0)">B</text><text xml:space="preserve" font-family="HelveticaNeue-Bold" font-weight="bold" font-size="36.0" fill="#000000" transform="matrix(1.00, 0.00, -0.00, -1.00, 393.3, 315.0)">M</text></g></g><g><clipPath id="clip-950"><path d="M 652.3 301.9 L 652.3 225.8 L 613.2 225.8 L 613.2 301.9 Z M 652.3 301.9 "></path></clipPath><g clip-path="url(#clip-950)"><path d="M 626.1 254.8 L 616.0 254.8 L 632.7 228.7 L 649.4 254.8 L 639.4 254.8 L 639.4 299.9 L 626.1 299.9 Z M 626.1 254.8 " fill="#A85648"></path><path d="M 45.1 23.4 L 45.1 33.4 L 71.2 16.7 L 45.1 0.0 L 45.1 10.1 L 0.0 10.1 L 0.0 23.4 Z M 45.1 23.4 " fill="none" stroke="#763A33" stroke-width="2.00" transform="matrix(0.00, -1.00, -1.00, 0.00, 649.4, 299.9)"></path></g></g><g><clipPath id="clip-951"><path d="M 598.8 295.2 L 666.6 295.2 L 666.6 360.7 L 598.8 360.7 Z M 598.8 295.2 "></path></clipPath><g clip-path="url(#clip-951)"><text xml:space="preserve" font-family="HelveticaNeue-Bold" font-weight="bold" font-size="36.0" fill="#000000" transform="matrix(1.00, 0.00, -0.00, -1.00, 610.0, 315.0)">C</text><text xml:space="preserve" font-family="HelveticaNeue-Bold" font-weight="bold" font-size="36.0" fill="#000000" transform="matrix(1.00, 0.00, -0.00, -1.00, 636.7, 315.0)">y</text></g></g></g></svg>