<?xml version="1.0" encoding="UTF-8" standalone="no"?><svg xmlns="http://www.w3.org/2000/svg" xmlns:xlink="http://www.w3.org/1999/xlink" clip-rule="evenodd" stroke-miterlimit="4.00" viewBox="0 0 1024 768"><desc>SVG generated by Keynote</desc><defs></defs><g transform="matrix(1.00, 0.00, -0.00, -1.00, 0.0, 768.0)"><path d="M 0.0 768.0 L 1024.0 768.0 L 1024.0 0.0 L 0.0 0.0 Z M 0.0 768.0 " fill="#FEFFFE"></path><g><clipPath id="clip-1513"><path d="M 0.0 507.0 L 1024.0 507.0 L 1024.0 774.0 L 0.0 774.0 Z M 0.0 507.0 "></path></clipPath><g clip-path="url(#clip-1513)"><image xlink:href="../../DFC3E949-7766-4B67-B058-99D98558BD32/assets/C9ABF5A1938C1DE3D28B5B169E217407.png" width="2706.00" height="704.00" transform="matrix(0.38, 0.00, -0.00, -0.38, 0.0, 774.0)"></image></g></g><g><clipPath id="clip-1514"><path d="M 589.0 521.0 L 1007.0 521.0 L 1007.0 475.0 L 589.0 475.0 Z M 588.8 520.8 "></path></clipPath><g clip-path="url(#clip-1514)"><g><clipPath id="clip-1515"><path d="M 589.0 470.0 L 1007.0 470.0 L 1007.0 521.0 L 589.0 521.0 Z M 589.0 470.0 "></path></clipPath><g clip-path="url(#clip-1515)"><image xlink:href="../../DFC3E949-7766-4B67-B058-99D98558BD32/assets/E94E68D8CA7A557A89BDF3FA3AA59A44.png" width="836.00" height="102.00" transform="matrix(0.50, 0.00, -0.00, -0.50, 589.0, 521.0)"></image></g></g></g></g><g><clipPath id="clip-1516"><path d="M 102.0 435.0 L 922.0 435.0 L 922.0 51.0 L 102.0 51.0 Z M 102.2 435.3 "></path></clipPath><g clip-path="url(#clip-1516)"><g><clipPath id="clip-1517"><path d="M 102.0 -502.0 L 922.0 -502.0 L 922.0 435.0 L 102.0 435.0 Z M 102.0 -502.0 "></path></clipPath><g clip-path="url(#clip-1517)"><image xlink:href="../../895C26E3-00EC-4522-ACA4-19C63AEF2F83/assets/7936A7AB87DC2E8123EB0906BFDCC89B.png" width="992.00" height="1134.00" transform="matrix(0.83, 0.00, -0.00, -0.83, 102.0, 435.0)"></image></g></g></g></g></g></svg>