<?xml version="1.0" encoding="UTF-8" standalone="no"?><svg xmlns="http://www.w3.org/2000/svg" xmlns:xlink="http://www.w3.org/1999/xlink" clip-rule="evenodd" stroke-miterlimit="10" viewBox="0 0 1024 768"><desc>SVG generated by Keynote</desc><defs></defs><g transform="matrix(1.00, 0.00, -0.00, -1.00, 0.0, 768.0)"><path d="M 0.0 768.0 L 1024.0 768.0 L 1024.0 0.0 L 0.0 0.0 Z M 0.0 768.0 " fill="#FEFFFE"></path><g><clipPath id="clip0x6080014b75e0"><path d="M 0.0 766.0 L 1024.0 766.0 L 1024.0 74.0 L 0.0 74.0 Z M 0.0 766.4 "></path></clipPath><g clip-path="url(#clip0x6080014b75e0)"><image xlink:href="BB091985433E4E03368014642F602F87.png" width="1286.00" height="870.00" transform="matrix(0.80, 0.00, -0.00, -0.80, 0.0, 766.0)"></image></g></g><text xml:space="preserve" font-family="HelveticaNeue-Light,Helvetica Neue" font-size="24.0" fill="#000000" transform="matrix(1.00, 0.00, -0.00, -1.00, 134.1, 45.5)">D</text><text xml:space="preserve" font-family="HelveticaNeue-Light,Helvetica Neue" font-size="24.0" fill="#000000" transform="matrix(1.00, 0.00, -0.00, -1.00, 150.6, 45.5)">a</text><text xml:space="preserve" font-family="HelveticaNeue-Light,Helvetica Neue" font-size="24.0" fill="#000000" transform="matrix(1.00, 0.00, -0.00, -1.00, 163.0, 45.5)">i</text><text xml:space="preserve" font-family="HelveticaNeue-Light,Helvetica Neue" font-size="24.0" fill="#000000" transform="matrix(1.00, 0.00, -0.00, -1.00, 167.5, 45.5)"> </text><text xml:space="preserve" font-family="HelveticaNeue-Light,Helvetica Neue" font-size="24.0" fill="#000000" transform="matrix(1.00, 0.00, -0.00, -1.00, 174.2, 45.5)">X</text><text xml:space="preserve" font-family="HelveticaNeue-Light,Helvetica Neue" font-size="24.0" fill="#000000" transform="matrix(1.00, 0.00, -0.00, -1.00, 187.9, 45.5)">,</text><text xml:space="preserve" font-family="HelveticaNeue-Light,Helvetica Neue" font-size="24.0" fill="#000000" transform="matrix(1.00, 0.00, -0.00, -1.00, 194.6, 45.5)"> </text><text xml:space="preserve" font-family="HelveticaNeue-Light,Helvetica Neue" font-size="24.0" fill="#000000" transform="matrix(1.00, 0.00, -0.00, -1.00, 201.3, 45.5)">e</text><text xml:space="preserve" font-family="HelveticaNeue-Light,Helvetica Neue" font-size="24.0" fill="#000000" transform="matrix(1.00, 0.00, -0.00, -1.00, 213.7, 45.5)">t</text><text xml:space="preserve" font-family="HelveticaNeue-Light,Helvetica Neue" font-size="24.0" fill="#000000" transform="matrix(1.00, 0.00, -0.00, -1.00, 220.8, 45.5)"> </text><text xml:space="preserve" font-family="HelveticaNeue-Light,Helvetica Neue" font-size="24.0" fill="#000000" transform="matrix(1.00, 0.00, -0.00, -1.00, 227.5, 45.5)">a</text><text xml:space="preserve" font-family="HelveticaNeue-Light,Helvetica Neue" font-size="24.0" fill="#000000" transform="matrix(1.00, 0.00, -0.00, -1.00, 240.0, 45.5)">l</text><text xml:space="preserve" font-family="HelveticaNeue-Light,Helvetica Neue" font-size="24.0" fill="#000000" transform="matrix(1.00, 0.00, -0.00, -1.00, 244.4, 45.5)">.</text><text xml:space="preserve" font-family="HelveticaNeue-Light,Helvetica Neue" font-size="24.0" fill="#000000" transform="matrix(1.00, 0.00, -0.00, -1.00, 251.1, 45.5)"> </text><text xml:space="preserve" font-family="HelveticaNeue-Light,Helvetica Neue" font-size="24.0" fill="#000000" transform="matrix(1.00, 0.00, -0.00, -1.00, 257.7, 45.5)">O</text><text xml:space="preserve" font-family="HelveticaNeue-Light,Helvetica Neue" font-size="24.0" fill="#000000" transform="matrix(1.00, 0.00, -0.00, -1.00, 275.5, 45.5)">r</text><text xml:space="preserve" font-family="HelveticaNeue-Light,Helvetica Neue" font-size="24.0" fill="#000000" transform="matrix(1.00, 0.00, -0.00, -1.00, 283.1, 45.5)">g</text><text xml:space="preserve" font-family="HelveticaNeue-Light,Helvetica Neue" font-size="24.0" fill="#000000" transform="matrix(1.00, 0.00, -0.00, -1.00, 296.4, 45.5)">a</text><text xml:space="preserve" font-family="HelveticaNeue-Light,Helvetica Neue" font-size="24.0" fill="#000000" transform="matrix(1.00, 0.00, -0.00, -1.00, 308.9, 45.5)">n</text><text xml:space="preserve" font-family="HelveticaNeue-Light,Helvetica Neue" font-size="24.0" fill="#000000" transform="matrix(1.00, 0.00, -0.00, -1.00, 321.8, 45.5)">i</text><text xml:space="preserve" font-family="HelveticaNeue-Light,Helvetica Neue" font-size="24.0" fill="#000000" transform="matrix(1.00, 0.00, -0.00, -1.00, 326.2, 45.5)">z</text><text xml:space="preserve" font-family="HelveticaNeue-Light,Helvetica Neue" font-size="24.0" fill="#000000" transform="matrix(1.00, 0.00, -0.00, -1.00, 337.3, 45.5)">a</text><text xml:space="preserve" font-family="HelveticaNeue-Light,Helvetica Neue" font-size="24.0" fill="#000000" transform="matrix(1.00, 0.00, -0.00, -1.00, 349.8, 45.5)">t</text><text xml:space="preserve" font-family="HelveticaNeue-Light,Helvetica Neue" font-size="24.0" fill="#000000" transform="matrix(1.00, 0.00, -0.00, -1.00, 356.9, 45.5)">i</text><text xml:space="preserve" font-family="HelveticaNeue-Light,Helvetica Neue" font-size="24.0" fill="#000000" transform="matrix(1.00, 0.00, -0.00, -1.00, 361.3, 45.5)">o</text><text xml:space="preserve" font-family="HelveticaNeue-Light,Helvetica Neue" font-size="24.0" fill="#000000" transform="matrix(1.00, 0.00, -0.00, -1.00, 374.7, 45.5)">n</text><text xml:space="preserve" font-family="HelveticaNeue-Light,Helvetica Neue" font-size="24.0" fill="#000000" transform="matrix(1.00, 0.00, -0.00, -1.00, 387.6, 45.5)"> </text><text xml:space="preserve" font-family="HelveticaNeue-Light,Helvetica Neue" font-size="24.0" fill="#000000" transform="matrix(1.00, 0.00, -0.00, -1.00, 394.2, 45.5)">o</text><text xml:space="preserve" font-family="HelveticaNeue-Light,Helvetica Neue" font-size="24.0" fill="#000000" transform="matrix(1.00, 0.00, -0.00, -1.00, 407.6, 45.5)">f</text><text xml:space="preserve" font-family="HelveticaNeue-Light,Helvetica Neue" font-size="24.0" fill="#000000" transform="matrix(1.00, 0.00, -0.00, -1.00, 413.8, 45.5)"> </text><text xml:space="preserve" font-family="HelveticaNeue-Light,Helvetica Neue" font-size="24.0" fill="#000000" transform="matrix(1.00, 0.00, -0.00, -1.00, 420.5, 45.5)">C</text><text xml:space="preserve" font-family="HelveticaNeue-Light,Helvetica Neue" font-size="24.0" fill="#000000" transform="matrix(1.00, 0.00, -0.00, -1.00, 437.4, 45.5)">a</text><text xml:space="preserve" font-family="HelveticaNeue-Light,Helvetica Neue" font-size="24.0" fill="#000000" transform="matrix(1.00, 0.00, -0.00, -1.00, 449.8, 45.5)">p</text><text xml:space="preserve" font-family="HelveticaNeue-Light,Helvetica Neue" font-size="24.0" fill="#000000" transform="matrix(1.00, 0.00, -0.00, -1.00, 463.6, 45.5)">s</text><text xml:space="preserve" font-family="HelveticaNeue-Light,Helvetica Neue" font-size="24.0" fill="#000000" transform="matrix(1.00, 0.00, -0.00, -1.00, 475.1, 45.5)">i</text><text xml:space="preserve" font-family="HelveticaNeue-Light,Helvetica Neue" font-size="24.0" fill="#000000" transform="matrix(1.00, 0.00, -0.00, -1.00, 479.6, 45.5)">d</text><text xml:space="preserve" font-family="HelveticaNeue-Light,Helvetica Neue" font-size="24.0" fill="#000000" transform="matrix(1.00, 0.00, -0.00, -1.00, 493.4, 45.5)">-</text><text xml:space="preserve" font-family="HelveticaNeue-Light,Helvetica Neue" font-size="24.0" fill="#000000" transform="matrix(1.00, 0.00, -0.00, -1.00, 502.2, 45.5)">A</text><text xml:space="preserve" font-family="HelveticaNeue-Light,Helvetica Neue" font-size="24.0" fill="#000000" transform="matrix(1.00, 0.00, -0.00, -1.00, 517.4, 45.5)">s</text><text xml:space="preserve" font-family="HelveticaNeue-Light,Helvetica Neue" font-size="24.0" fill="#000000" transform="matrix(1.00, 0.00, -0.00, -1.00, 528.9, 45.5)">s</text><text xml:space="preserve" font-family="HelveticaNeue-Light,Helvetica Neue" font-size="24.0" fill="#000000" transform="matrix(1.00, 0.00, -0.00, -1.00, 540.4, 45.5)">o</text><text xml:space="preserve" font-family="HelveticaNeue-Light,Helvetica Neue" font-size="24.0" fill="#000000" transform="matrix(1.00, 0.00, -0.00, -1.00, 553.8, 45.5)">c</text><text xml:space="preserve" font-family="HelveticaNeue-Light,Helvetica Neue" font-size="24.0" fill="#000000" transform="matrix(1.00, 0.00, -0.00, -1.00, 566.2, 45.5)">i</text><text xml:space="preserve" font-family="HelveticaNeue-Light,Helvetica Neue" font-size="24.0" fill="#000000" transform="matrix(1.00, 0.00, -0.00, -1.00, 570.7, 45.5)">a</text><text xml:space="preserve" font-family="HelveticaNeue-Light,Helvetica Neue" font-size="24.0" fill="#000000" transform="matrix(1.00, 0.00, -0.00, -1.00, 583.1, 45.5)">t</text><text xml:space="preserve" font-family="HelveticaNeue-Light,Helvetica Neue" font-size="24.0" fill="#000000" transform="matrix(1.00, 0.00, -0.00, -1.00, 590.2, 45.5)">e</text><text xml:space="preserve" font-family="HelveticaNeue-Light,Helvetica Neue" font-size="24.0" fill="#000000" transform="matrix(1.00, 0.00, -0.00, -1.00, 602.7, 45.5)">d</text><text xml:space="preserve" font-family="HelveticaNeue-Light,Helvetica Neue" font-size="24.0" fill="#000000" transform="matrix(1.00, 0.00, -0.00, -1.00, 616.5, 45.5)"> </text><text xml:space="preserve" font-family="HelveticaNeue-Light,Helvetica Neue" font-size="24.0" fill="#000000" transform="matrix(1.00, 0.00, -0.00, -1.00, 623.1, 45.5)">T</text><text xml:space="preserve" font-family="HelveticaNeue-Light,Helvetica Neue" font-size="24.0" fill="#000000" transform="matrix(1.00, 0.00, -0.00, -1.00, 633.8, 45.5)">e</text><text xml:space="preserve" font-family="HelveticaNeue-Light,Helvetica Neue" font-size="24.0" fill="#000000" transform="matrix(1.00, 0.00, -0.00, -1.00, 646.3, 45.5)">g</text><text xml:space="preserve" font-family="HelveticaNeue-Light,Helvetica Neue" font-size="24.0" fill="#000000" transform="matrix(1.00, 0.00, -0.00, -1.00, 659.6, 45.5)">u</text><text xml:space="preserve" font-family="HelveticaNeue-Light,Helvetica Neue" font-size="24.0" fill="#000000" transform="matrix(1.00, 0.00, -0.00, -1.00, 672.5, 45.5)">m</text><text xml:space="preserve" font-family="HelveticaNeue-Light,Helvetica Neue" font-size="24.0" fill="#000000" transform="matrix(1.00, 0.00, -0.00, -1.00, 692.5, 45.5)">e</text><text xml:space="preserve" font-family="HelveticaNeue-Light,Helvetica Neue" font-size="24.0" fill="#000000" transform="matrix(1.00, 0.00, -0.00, -1.00, 705.0, 45.5)">n</text><text xml:space="preserve" font-family="HelveticaNeue-Light,Helvetica Neue" font-size="24.0" fill="#000000" transform="matrix(1.00, 0.00, -0.00, -1.00, 717.8, 45.5)">t</text><text xml:space="preserve" font-family="HelveticaNeue-Light,Helvetica Neue" font-size="24.0" fill="#000000" transform="matrix(1.00, 0.00, -0.00, -1.00, 725.0, 45.5)"> </text><text xml:space="preserve" font-family="HelveticaNeue-Light,Helvetica Neue" font-size="24.0" fill="#000000" transform="matrix(1.00, 0.00, -0.00, -1.00, 731.6, 45.5)">C</text><text xml:space="preserve" font-family="HelveticaNeue-Light,Helvetica Neue" font-size="24.0" fill="#000000" transform="matrix(1.00, 0.00, -0.00, -1.00, 748.5, 45.5)">o</text><text xml:space="preserve" font-family="HelveticaNeue-Light,Helvetica Neue" font-size="24.0" fill="#000000" transform="matrix(1.00, 0.00, -0.00, -1.00, 761.9, 45.5)">m</text><text xml:space="preserve" font-family="HelveticaNeue-Light,Helvetica Neue" font-size="24.0" fill="#000000" transform="matrix(1.00, 0.00, -0.00, -1.00, 781.9, 45.5)">p</text><text xml:space="preserve" font-family="HelveticaNeue-Light,Helvetica Neue" font-size="24.0" fill="#000000" transform="matrix(1.00, 0.00, -0.00, -1.00, 795.6, 45.5)">o</text><text xml:space="preserve" font-family="HelveticaNeue-Light,Helvetica Neue" font-size="24.0" fill="#000000" transform="matrix(1.00, 0.00, -0.00, -1.00, 809.0, 45.5)">n</text><text xml:space="preserve" font-family="HelveticaNeue-Light,Helvetica Neue" font-size="24.0" fill="#000000" transform="matrix(1.00, 0.00, -0.00, -1.00, 821.9, 45.5)">e</text><text xml:space="preserve" font-family="HelveticaNeue-Light,Helvetica Neue" font-size="24.0" fill="#000000" transform="matrix(1.00, 0.00, -0.00, -1.00, 834.3, 45.5)">n</text><text xml:space="preserve" font-family="HelveticaNeue-Light,Helvetica Neue" font-size="24.0" fill="#000000" transform="matrix(1.00, 0.00, -0.00, -1.00, 847.2, 45.5)">t</text><text xml:space="preserve" font-family="HelveticaNeue-Light,Helvetica Neue" font-size="24.0" fill="#000000" transform="matrix(1.00, 0.00, -0.00, -1.00, 854.3, 45.5)">s</text><text xml:space="preserve" font-family="HelveticaNeue-Light,Helvetica Neue" font-size="24.0" fill="#000000" transform="matrix(1.00, 0.00, -0.00, -1.00, 865.9, 45.5)"> </text><text xml:space="preserve" font-family="HelveticaNeue-Light,Helvetica Neue" font-size="24.0" fill="#000000" transform="matrix(1.00, 0.00, -0.00, -1.00, 872.5, 45.5)">i</text><text xml:space="preserve" font-family="HelveticaNeue-Light,Helvetica Neue" font-size="24.0" fill="#000000" transform="matrix(1.00, 0.00, -0.00, -1.00, 877.0, 45.5)">n</text><text xml:space="preserve" font-family="LucidaGrande,Lucida Grande" font-size="24.0" fill="#000000" transform="matrix(1.00, 0.00, -0.00, -1.00, 889.9, 45.5)"> </text><text xml:space="preserve" font-family="HelveticaNeue-Light,Helvetica Neue" font-size="24.0" fill="#000000" transform="matrix(1.00, 0.00, -0.00, -1.00, 85.7, 16.5)">K</text><text xml:space="preserve" font-family="HelveticaNeue-Light,Helvetica Neue" font-size="24.0" fill="#000000" transform="matrix(1.00, 0.00, -0.00, -1.00, 101.3, 16.5)">a</text><text xml:space="preserve" font-family="HelveticaNeue-Light,Helvetica Neue" font-size="24.0" fill="#000000" transform="matrix(1.00, 0.00, -0.00, -1.00, 113.7, 16.5)">p</text><text xml:space="preserve" font-family="HelveticaNeue-Light,Helvetica Neue" font-size="24.0" fill="#000000" transform="matrix(1.00, 0.00, -0.00, -1.00, 127.5, 16.5)">o</text><text xml:space="preserve" font-family="HelveticaNeue-Light,Helvetica Neue" font-size="24.0" fill="#000000" transform="matrix(1.00, 0.00, -0.00, -1.00, 140.9, 16.5)">s</text><text xml:space="preserve" font-family="HelveticaNeue-Light,Helvetica Neue" font-size="24.0" fill="#000000" transform="matrix(1.00, 0.00, -0.00, -1.00, 152.4, 16.5)">i</text><text xml:space="preserve" font-family="HelveticaNeue-Light,Helvetica Neue" font-size="24.0" fill="#000000" transform="matrix(1.00, 0.00, -0.00, -1.00, 156.8, 16.5)">’</text><text xml:space="preserve" font-family="HelveticaNeue-Light,Helvetica Neue" font-size="24.0" fill="#000000" transform="matrix(1.00, 0.00, -0.00, -1.00, 160.9, 16.5)">s</text><text xml:space="preserve" font-family="HelveticaNeue-Light,Helvetica Neue" font-size="24.0" fill="#000000" transform="matrix(1.00, 0.00, -0.00, -1.00, 172.4, 16.5)"> </text><text xml:space="preserve" font-family="HelveticaNeue-Light,Helvetica Neue" font-size="24.0" fill="#000000" transform="matrix(1.00, 0.00, -0.00, -1.00, 179.1, 16.5)">S</text><text xml:space="preserve" font-family="HelveticaNeue-Light,Helvetica Neue" font-size="24.0" fill="#000000" transform="matrix(1.00, 0.00, -0.00, -1.00, 194.2, 16.5)">a</text><text xml:space="preserve" font-family="HelveticaNeue-Light,Helvetica Neue" font-size="24.0" fill="#000000" transform="matrix(1.00, 0.00, -0.00, -1.00, 206.6, 16.5)">r</text><text xml:space="preserve" font-family="HelveticaNeue-Light,Helvetica Neue" font-size="24.0" fill="#000000" transform="matrix(1.00, 0.00, -0.00, -1.00, 213.8, 16.5)">c</text><text xml:space="preserve" font-family="HelveticaNeue-Light,Helvetica Neue" font-size="24.0" fill="#000000" transform="matrix(1.00, 0.00, -0.00, -1.00, 226.2, 16.5)">o</text><text xml:space="preserve" font-family="HelveticaNeue-Light,Helvetica Neue" font-size="24.0" fill="#000000" transform="matrix(1.00, 0.00, -0.00, -1.00, 239.6, 16.5)">m</text><text xml:space="preserve" font-family="HelveticaNeue-Light,Helvetica Neue" font-size="24.0" fill="#000000" transform="matrix(1.00, 0.00, -0.00, -1.00, 259.6, 16.5)">a</text><text xml:space="preserve" font-family="HelveticaNeue-Light,Helvetica Neue" font-size="24.0" fill="#000000" transform="matrix(1.00, 0.00, -0.00, -1.00, 272.0, 16.5)">-</text><text xml:space="preserve" font-family="HelveticaNeue-Light,Helvetica Neue" font-size="24.0" fill="#000000" transform="matrix(1.00, 0.00, -0.00, -1.00, 280.9, 16.5)">A</text><text xml:space="preserve" font-family="HelveticaNeue-Light,Helvetica Neue" font-size="24.0" fill="#000000" transform="matrix(1.00, 0.00, -0.00, -1.00, 296.0, 16.5)">s</text><text xml:space="preserve" font-family="HelveticaNeue-Light,Helvetica Neue" font-size="24.0" fill="#000000" transform="matrix(1.00, 0.00, -0.00, -1.00, 307.6, 16.5)">s</text><text xml:space="preserve" font-family="HelveticaNeue-Light,Helvetica Neue" font-size="24.0" fill="#000000" transform="matrix(1.00, 0.00, -0.00, -1.00, 319.1, 16.5)">o</text><text xml:space="preserve" font-family="HelveticaNeue-Light,Helvetica Neue" font-size="24.0" fill="#000000" transform="matrix(1.00, 0.00, -0.00, -1.00, 332.5, 16.5)">c</text><text xml:space="preserve" font-family="HelveticaNeue-Light,Helvetica Neue" font-size="24.0" fill="#000000" transform="matrix(1.00, 0.00, -0.00, -1.00, 344.9, 16.5)">i</text><text xml:space="preserve" font-family="HelveticaNeue-Light,Helvetica Neue" font-size="24.0" fill="#000000" transform="matrix(1.00, 0.00, -0.00, -1.00, 349.4, 16.5)">a</text><text xml:space="preserve" font-family="HelveticaNeue-Light,Helvetica Neue" font-size="24.0" fill="#000000" transform="matrix(1.00, 0.00, -0.00, -1.00, 361.8, 16.5)">t</text><text xml:space="preserve" font-family="HelveticaNeue-Light,Helvetica Neue" font-size="24.0" fill="#000000" transform="matrix(1.00, 0.00, -0.00, -1.00, 368.9, 16.5)">e</text><text xml:space="preserve" font-family="HelveticaNeue-Light,Helvetica Neue" font-size="24.0" fill="#000000" transform="matrix(1.00, 0.00, -0.00, -1.00, 381.4, 16.5)">d</text><text xml:space="preserve" font-family="HelveticaNeue-Light,Helvetica Neue" font-size="24.0" fill="#000000" transform="matrix(1.00, 0.00, -0.00, -1.00, 395.1, 16.5)"> </text><text xml:space="preserve" font-family="HelveticaNeue-Light,Helvetica Neue" font-size="24.0" fill="#000000" transform="matrix(1.00, 0.00, -0.00, -1.00, 401.8, 16.5)">H</text><text xml:space="preserve" font-family="HelveticaNeue-Light,Helvetica Neue" font-size="24.0" fill="#000000" transform="matrix(1.00, 0.00, -0.00, -1.00, 418.7, 16.5)">e</text><text xml:space="preserve" font-family="HelveticaNeue-Light,Helvetica Neue" font-size="24.0" fill="#000000" transform="matrix(1.00, 0.00, -0.00, -1.00, 431.2, 16.5)">r</text><text xml:space="preserve" font-family="HelveticaNeue-Light,Helvetica Neue" font-size="24.0" fill="#000000" transform="matrix(1.00, 0.00, -0.00, -1.00, 438.7, 16.5)">p</text><text xml:space="preserve" font-family="HelveticaNeue-Light,Helvetica Neue" font-size="24.0" fill="#000000" transform="matrix(1.00, 0.00, -0.00, -1.00, 452.5, 16.5)">e</text><text xml:space="preserve" font-family="HelveticaNeue-Light,Helvetica Neue" font-size="24.0" fill="#000000" transform="matrix(1.00, 0.00, -0.00, -1.00, 465.0, 16.5)">s</text><text xml:space="preserve" font-family="HelveticaNeue-Light,Helvetica Neue" font-size="24.0" fill="#000000" transform="matrix(1.00, 0.00, -0.00, -1.00, 476.5, 16.5)">v</text><text xml:space="preserve" font-family="HelveticaNeue-Light,Helvetica Neue" font-size="24.0" fill="#000000" transform="matrix(1.00, 0.00, -0.00, -1.00, 487.6, 16.5)">i</text><text xml:space="preserve" font-family="HelveticaNeue-Light,Helvetica Neue" font-size="24.0" fill="#000000" transform="matrix(1.00, 0.00, -0.00, -1.00, 492.1, 16.5)">r</text><text xml:space="preserve" font-family="HelveticaNeue-Light,Helvetica Neue" font-size="24.0" fill="#000000" transform="matrix(1.00, 0.00, -0.00, -1.00, 499.6, 16.5)">u</text><text xml:space="preserve" font-family="HelveticaNeue-Light,Helvetica Neue" font-size="24.0" fill="#000000" transform="matrix(1.00, 0.00, -0.00, -1.00, 512.5, 16.5)">s</text><text xml:space="preserve" font-family="HelveticaNeue-Light,Helvetica Neue" font-size="24.0" fill="#000000" transform="matrix(1.00, 0.00, -0.00, -1.00, 524.0, 16.5)">.</text><text xml:space="preserve" font-family="HelveticaNeue-Light,Helvetica Neue" font-size="24.0" fill="#000000" transform="matrix(1.00, 0.00, -0.00, -1.00, 530.7, 16.5)"> </text><text xml:space="preserve" font-family="HelveticaNeue-Light,Helvetica Neue" font-size="24.0" fill="#000000" transform="matrix(1.00, 0.00, -0.00, -1.00, 537.4, 16.5)">J</text><text xml:space="preserve" font-family="HelveticaNeue-Light,Helvetica Neue" font-size="24.0" fill="#000000" transform="matrix(1.00, 0.00, -0.00, -1.00, 549.4, 16.5)"> </text><text xml:space="preserve" font-family="HelveticaNeue-Light,Helvetica Neue" font-size="24.0" fill="#000000" transform="matrix(1.00, 0.00, -0.00, -1.00, 556.1, 16.5)">V</text><text xml:space="preserve" font-family="HelveticaNeue-Light,Helvetica Neue" font-size="24.0" fill="#000000" transform="matrix(1.00, 0.00, -0.00, -1.00, 570.4, 16.5)">i</text><text xml:space="preserve" font-family="HelveticaNeue-Light,Helvetica Neue" font-size="24.0" fill="#000000" transform="matrix(1.00, 0.00, -0.00, -1.00, 574.9, 16.5)">r</text><text xml:space="preserve" font-family="HelveticaNeue-Light,Helvetica Neue" font-size="24.0" fill="#000000" transform="matrix(1.00, 0.00, -0.00, -1.00, 582.0, 16.5)">o</text><text xml:space="preserve" font-family="HelveticaNeue-Light,Helvetica Neue" font-size="24.0" fill="#000000" transform="matrix(1.00, 0.00, -0.00, -1.00, 595.4, 16.5)">l</text><text xml:space="preserve" font-family="HelveticaNeue-Light,Helvetica Neue" font-size="24.0" fill="#000000" transform="matrix(1.00, 0.00, -0.00, -1.00, 599.8, 16.5)">.</text><text xml:space="preserve" font-family="HelveticaNeue-Light,Helvetica Neue" font-size="24.0" fill="#000000" transform="matrix(1.00, 0.00, -0.00, -1.00, 606.5, 16.5)"> </text><text xml:space="preserve" font-family="HelveticaNeue-Light,Helvetica Neue" font-size="24.0" fill="#000000" transform="matrix(1.00, 0.00, -0.00, -1.00, 613.1, 16.5)">2</text><text xml:space="preserve" font-family="HelveticaNeue-Light,Helvetica Neue" font-size="24.0" fill="#000000" transform="matrix(1.00, 0.00, -0.00, -1.00, 626.5, 16.5)">0</text><text xml:space="preserve" font-family="HelveticaNeue-Light,Helvetica Neue" font-size="24.0" fill="#000000" transform="matrix(1.00, 0.00, -0.00, -1.00, 639.8, 16.5)">1</text><text xml:space="preserve" font-family="HelveticaNeue-Light,Helvetica Neue" font-size="24.0" fill="#000000" transform="matrix(1.00, 0.00, -0.00, -1.00, 653.2, 16.5)">4</text><text xml:space="preserve" font-family="HelveticaNeue-Light,Helvetica Neue" font-size="24.0" fill="#000000" transform="matrix(1.00, 0.00, -0.00, -1.00, 666.5, 16.5)"> </text><text xml:space="preserve" font-family="HelveticaNeue-Light,Helvetica Neue" font-size="24.0" fill="#000000" transform="matrix(1.00, 0.00, -0.00, -1.00, 673.2, 16.5)">N</text><text xml:space="preserve" font-family="HelveticaNeue-Light,Helvetica Neue" font-size="24.0" fill="#000000" transform="matrix(1.00, 0.00, -0.00, -1.00, 690.1, 16.5)">o</text><text xml:space="preserve" font-family="HelveticaNeue-Light,Helvetica Neue" font-size="24.0" fill="#000000" transform="matrix(1.00, 0.00, -0.00, -1.00, 703.4, 16.5)">v</text><text xml:space="preserve" font-family="HelveticaNeue-Light,Helvetica Neue" font-size="24.0" fill="#000000" transform="matrix(1.00, 0.00, -0.00, -1.00, 714.5, 16.5)"> </text><text xml:space="preserve" font-family="HelveticaNeue-Light,Helvetica Neue" font-size="24.0" fill="#000000" transform="matrix(1.00, 0.00, -0.00, -1.00, 721.2, 16.5)">1</text><text xml:space="preserve" font-family="HelveticaNeue-Light,Helvetica Neue" font-size="24.0" fill="#000000" transform="matrix(1.00, 0.00, -0.00, -1.00, 734.6, 16.5)">;</text><text xml:space="preserve" font-family="HelveticaNeue-Light,Helvetica Neue" font-size="24.0" fill="#000000" transform="matrix(1.00, 0.00, -0.00, -1.00, 741.2, 16.5)">8</text><text xml:space="preserve" font-family="HelveticaNeue-Light,Helvetica Neue" font-size="24.0" fill="#000000" transform="matrix(1.00, 0.00, -0.00, -1.00, 754.6, 16.5)">8</text><text xml:space="preserve" font-family="HelveticaNeue-Light,Helvetica Neue" font-size="24.0" fill="#000000" transform="matrix(1.00, 0.00, -0.00, -1.00, 767.9, 16.5)">(</text><text xml:space="preserve" font-family="HelveticaNeue-Light,Helvetica Neue" font-size="24.0" fill="#000000" transform="matrix(1.00, 0.00, -0.00, -1.00, 773.7, 16.5)">2</text><text xml:space="preserve" font-family="HelveticaNeue-Light,Helvetica Neue" font-size="24.0" fill="#000000" transform="matrix(1.00, 0.00, -0.00, -1.00, 787.0, 16.5)">1</text><text xml:space="preserve" font-family="HelveticaNeue-Light,Helvetica Neue" font-size="24.0" fill="#000000" transform="matrix(1.00, 0.00, -0.00, -1.00, 800.4, 16.5)">)</text><text xml:space="preserve" font-family="HelveticaNeue-Light,Helvetica Neue" font-size="24.0" fill="#000000" transform="matrix(1.00, 0.00, -0.00, -1.00, 806.2, 16.5)">:</text><text xml:space="preserve" font-family="HelveticaNeue-Light,Helvetica Neue" font-size="24.0" fill="#000000" transform="matrix(1.00, 0.00, -0.00, -1.00, 812.8, 16.5)">1</text><text xml:space="preserve" font-family="HelveticaNeue-Light,Helvetica Neue" font-size="24.0" fill="#000000" transform="matrix(1.00, 0.00, -0.00, -1.00, 826.2, 16.5)">2</text><text xml:space="preserve" font-family="HelveticaNeue-Light,Helvetica Neue" font-size="24.0" fill="#000000" transform="matrix(1.00, 0.00, -0.00, -1.00, 839.5, 16.5)">6</text><text xml:space="preserve" font-family="HelveticaNeue-Light,Helvetica Neue" font-size="24.0" fill="#000000" transform="matrix(1.00, 0.00, -0.00, -1.00, 852.9, 16.5)">9</text><text xml:space="preserve" font-family="HelveticaNeue-Light,Helvetica Neue" font-size="24.0" fill="#000000" transform="matrix(1.00, 0.00, -0.00, -1.00, 866.2, 16.5)">4</text><text xml:space="preserve" font-family="HelveticaNeue-Light,Helvetica Neue" font-size="24.0" fill="#000000" transform="matrix(1.00, 0.00, -0.00, -1.00, 879.6, 16.5)">–</text><text xml:space="preserve" font-family="HelveticaNeue-Light,Helvetica Neue" font-size="24.0" fill="#000000" transform="matrix(1.00, 0.00, -0.00, -1.00, 891.6, 16.5)">7</text><text xml:space="preserve" font-family="HelveticaNeue-Light,Helvetica Neue" font-size="24.0" fill="#000000" transform="matrix(1.00, 0.00, -0.00, -1.00, 904.9, 16.5)">0</text><text xml:space="preserve" font-family="HelveticaNeue-Light,Helvetica Neue" font-size="24.0" fill="#000000" transform="matrix(1.00, 0.00, -0.00, -1.00, 918.2, 16.5)">2</text><text xml:space="preserve" font-family="HelveticaNeue-Light,Helvetica Neue" font-size="24.0" fill="#000000" transform="matrix(1.00, 0.00, -0.00, -1.00, 931.6, 16.5)">.</text></g></svg>