<?xml version="1.0" encoding="UTF-8" standalone="no"?><svg xmlns="http://www.w3.org/2000/svg" xmlns:xlink="http://www.w3.org/1999/xlink" clip-rule="evenodd" stroke-miterlimit="10" viewBox="0 0 1024 768"><desc>SVG generated by Keynote</desc><defs></defs><g transform="matrix(1.00, 0.00, -0.00, -1.00, 0.0, 768.0)"><g><clipPath id="clip0x7fba7ffd8ac0"><path d="M 0.0 768.0 L 1024.0 768.0 L 1024.0 0.0 L 0.0 0.0 Z M 0.0 768.0 "></path></clipPath><g clip-path="url(#clip0x7fba7ffd8ac0)"><image xlink:href="../../384E26B0-0AD0-495F-BA75-267B55ABD0BD/assets/31D284A5C75E14674D2A89FDB99F8048.jpeg" width="2048.00" height="1536.00" transform="matrix(0.50, 0.00, -0.00, -0.50, 0.0, 768.0)"></image></g></g><image xlink:href="6F59C076AF1DFFFD4AE596D905FEEBCC.png" width="678.00" height="66.00" transform="matrix(1.00, 0.00, -0.00, -1.00, 171.0, 731.0)"></image><text xml:space="preserve" font-family="HelveticaNeue-Bold,Helvetica Neue" font-weight="bold" font-size="64.0" fill="#FEFFFE" transform="matrix(1.00, 0.00, -0.00, -1.00, 175.5, 682.7)">W</text><text xml:space="preserve" font-family="HelveticaNeue-Bold,Helvetica Neue" font-weight="bold" font-size="64.0" fill="#FEFFFE" transform="matrix(1.00, 0.00, -0.00, -1.00, 235.9, 682.7)">h</text><text xml:space="preserve" font-family="HelveticaNeue-Bold,Helvetica Neue" font-weight="bold" font-size="64.0" fill="#FEFFFE" transform="matrix(1.00, 0.00, -0.00, -1.00, 273.8, 682.7)">o</text><text xml:space="preserve" font-family="HelveticaNeue-Bold,Helvetica Neue" font-weight="bold" font-size="64.0" fill="#FEFFFE" transform="matrix(1.00, 0.00, -0.00, -1.00, 312.9, 682.7)"> </text><text xml:space="preserve" font-family="HelveticaNeue-Bold,Helvetica Neue" font-weight="bold" font-size="64.0" fill="#FEFFFE" transform="matrix(1.00, 0.00, -0.00, -1.00, 330.7, 682.7)">m</text><text xml:space="preserve" font-family="HelveticaNeue-Bold,Helvetica Neue" font-weight="bold" font-size="64.0" fill="#FEFFFE" transform="matrix(1.00, 0.00, -0.00, -1.00, 388.7, 682.7)">a</text><text xml:space="preserve" font-family="HelveticaNeue-Bold,Helvetica Neue" font-weight="bold" font-size="64.0" fill="#FEFFFE" transform="matrix(1.00, 0.00, -0.00, -1.00, 425.4, 682.7)">y</text><text xml:space="preserve" font-family="HelveticaNeue-Bold,Helvetica Neue" font-weight="bold" font-size="64.0" fill="#FEFFFE" transform="matrix(1.00, 0.00, -0.00, -1.00, 458.7, 682.7)"> </text><text xml:space="preserve" font-family="HelveticaNeue-Bold,Helvetica Neue" font-weight="bold" font-size="64.0" fill="#FEFFFE" transform="matrix(1.00, 0.00, -0.00, -1.00, 476.4, 682.7)">b</text><text xml:space="preserve" font-family="HelveticaNeue-Bold,Helvetica Neue" font-weight="bold" font-size="64.0" fill="#FEFFFE" transform="matrix(1.00, 0.00, -0.00, -1.00, 515.6, 682.7)">e</text><text xml:space="preserve" font-family="HelveticaNeue-Bold,Helvetica Neue" font-weight="bold" font-size="64.0" fill="#FEFFFE" transform="matrix(1.00, 0.00, -0.00, -1.00, 552.3, 682.7)">n</text><text xml:space="preserve" font-family="HelveticaNeue-Bold,Helvetica Neue" font-weight="bold" font-size="64.0" fill="#FEFFFE" transform="matrix(1.00, 0.00, -0.00, -1.00, 590.2, 682.7)">e</text><text xml:space="preserve" font-family="HelveticaNeue-Bold,Helvetica Neue" font-weight="bold" font-size="64.0" fill="#FEFFFE" transform="matrix(1.00, 0.00, -0.00, -1.00, 627.0, 682.7)">ﬁ</text><text xml:space="preserve" font-family="HelveticaNeue-Bold,Helvetica Neue" font-weight="bold" font-size="64.0" fill="#FEFFFE" transform="matrix(1.00, 0.00, -0.00, -1.00, 666.1, 682.7)">t</text><text xml:space="preserve" font-family="HelveticaNeue-Bold,Helvetica Neue" font-weight="bold" font-size="64.0" fill="#FEFFFE" transform="matrix(1.00, 0.00, -0.00, -1.00, 688.6, 682.7)"> </text><text xml:space="preserve" font-family="HelveticaNeue-Bold,Helvetica Neue" font-weight="bold" font-size="64.0" fill="#FEFFFE" transform="matrix(1.00, 0.00, -0.00, -1.00, 706.4, 682.7)">f</text><text xml:space="preserve" font-family="HelveticaNeue-Bold,Helvetica Neue" font-weight="bold" font-size="64.0" fill="#FEFFFE" transform="matrix(1.00, 0.00, -0.00, -1.00, 727.7, 682.7)">r</text><text xml:space="preserve" font-family="HelveticaNeue-Bold,Helvetica Neue" font-weight="bold" font-size="64.0" fill="#FEFFFE" transform="matrix(1.00, 0.00, -0.00, -1.00, 751.5, 682.7)">o</text><text xml:space="preserve" font-family="HelveticaNeue-Bold,Helvetica Neue" font-weight="bold" font-size="64.0" fill="#FEFFFE" transform="matrix(1.00, 0.00, -0.00, -1.00, 790.6, 682.7)">m</text><text xml:space="preserve" font-family="HelveticaNeue-Bold,Helvetica Neue" font-weight="bold" font-size="64.0" fill="#FEFFFE" transform="matrix(1.00, 0.00, -0.00, -1.00, 848.5, 682.7)"> </text><image xlink:href="D49DCA427452D11A6FDC147E049B8879.png" width="306.00" height="57.00" transform="matrix(1.00, 0.00, -0.00, -1.00, 359.0, 654.0)"></image><text xml:space="preserve" font-family="HelveticaNeue-Bold,Helvetica Neue" font-weight="bold" font-size="64.0" fill="#FEFFFE" transform="matrix(1.00, 0.00, -0.00, -1.00, 361.2, 604.7)">O</text><text xml:space="preserve" font-family="HelveticaNeue-Bold,Helvetica Neue" font-weight="bold" font-size="64.0" fill="#FEFFFE" transform="matrix(1.00, 0.00, -0.00, -1.00, 411.0, 604.7)">F</text><text xml:space="preserve" font-family="HelveticaNeue-Bold,Helvetica Neue" font-weight="bold" font-size="64.0" fill="#FEFFFE" transform="matrix(1.00, 0.00, -0.00, -1.00, 449.0, 604.7)">S</text><text xml:space="preserve" font-family="HelveticaNeue-Bold,Helvetica Neue" font-weight="bold" font-size="64.0" fill="#FEFFFE" transform="matrix(1.00, 0.00, -0.00, -1.00, 490.5, 604.7)"> </text><text xml:space="preserve" font-family="HelveticaNeue-Bold,Helvetica Neue" font-weight="bold" font-size="64.0" fill="#FEFFFE" transform="matrix(1.00, 0.00, -0.00, -1.00, 508.3, 604.7)">+</text><text xml:space="preserve" font-family="HelveticaNeue-Bold,Helvetica Neue" font-weight="bold" font-size="64.0" fill="#FEFFFE" transform="matrix(1.00, 0.00, -0.00, -1.00, 546.7, 604.7)"> </text><text xml:space="preserve" font-family="HelveticaNeue-Bold,Helvetica Neue" font-weight="bold" font-size="64.0" fill="#FEFFFE" transform="matrix(1.00, 0.00, -0.00, -1.00, 564.5, 604.7)">A</text><text xml:space="preserve" font-family="HelveticaNeue-Bold,Helvetica Neue" font-weight="bold" font-size="64.0" fill="#FEFFFE" transform="matrix(1.00, 0.00, -0.00, -1.00, 608.3, 604.7)">I</text><text xml:space="preserve" font-family="HelveticaNeue-Bold,Helvetica Neue" font-weight="bold" font-size="64.0" fill="#FEFFFE" transform="matrix(1.00, 0.00, -0.00, -1.00, 627.2, 604.7)">?</text><image xlink:href="../../2F6D434F-B743-45FC-B83E-DBBBA9BDACAB/assets/22338A021207344BFFC0BA20AE086817.png" width="18.00" height="18.00" transform="matrix(1.00, 0.00, -0.00, -1.00, 61.0, 396.0)"></image><text xml:space="preserve" font-family="HelveticaNeue-Medium,Helvetica Neue" font-size="25.5" fill="#EAEAEA" transform="matrix(1.00, 0.00, -0.00, -1.00, 64.0, 379.9)">•</text><image xlink:href="426AD334F08D5BAF4FF503E6CBA4264A.png" width="609.00" height="41.00" transform="matrix(1.00, 0.00, -0.00, -1.00, 92.0, 405.0)"></image><text xml:space="preserve" font-family="HelveticaNeue-Medium,Helvetica Neue" font-size="34.0" fill="#EAEAEA" transform="matrix(1.00, 0.00, -0.00, -1.00, 96.0, 377.4)">W</text><text xml:space="preserve" font-family="HelveticaNeue-Medium,Helvetica Neue" font-size="34.0" fill="#EAEAEA" transform="matrix(1.00, 0.00, -0.00, -1.00, 127.5, 377.4)">o</text><text xml:space="preserve" font-family="HelveticaNeue-Medium,Helvetica Neue" font-size="34.0" fill="#EAEAEA" transform="matrix(1.00, 0.00, -0.00, -1.00, 147.6, 377.4)">m</text><text xml:space="preserve" font-family="HelveticaNeue-Medium,Helvetica Neue" font-size="34.0" fill="#EAEAEA" transform="matrix(1.00, 0.00, -0.00, -1.00, 177.2, 377.4)">e</text><text xml:space="preserve" font-family="HelveticaNeue-Medium,Helvetica Neue" font-size="34.0" fill="#EAEAEA" transform="matrix(1.00, 0.00, -0.00, -1.00, 196.1, 377.4)">n</text><text xml:space="preserve" font-family="HelveticaNeue-Medium,Helvetica Neue" font-size="34.0" fill="#EAEAEA" transform="matrix(1.00, 0.00, -0.00, -1.00, 215.6, 377.4)"> </text><text xml:space="preserve" font-family="HelveticaNeue-Medium,Helvetica Neue" font-size="34.0" fill="#EAEAEA" transform="matrix(1.00, 0.00, -0.00, -1.00, 225.1, 377.4)">y</text><text xml:space="preserve" font-family="HelveticaNeue-Medium,Helvetica Neue" font-size="34.0" fill="#EAEAEA" transform="matrix(1.00, 0.00, -0.00, -1.00, 242.7, 377.4)">o</text><text xml:space="preserve" font-family="HelveticaNeue-Medium,Helvetica Neue" font-size="34.0" fill="#EAEAEA" transform="matrix(1.00, 0.00, -0.00, -1.00, 262.9, 377.4)">u</text><text xml:space="preserve" font-family="HelveticaNeue-Medium,Helvetica Neue" font-size="34.0" fill="#EAEAEA" transform="matrix(1.00, 0.00, -0.00, -1.00, 282.4, 377.4)">n</text><text xml:space="preserve" font-family="HelveticaNeue-Medium,Helvetica Neue" font-size="34.0" fill="#EAEAEA" transform="matrix(1.00, 0.00, -0.00, -1.00, 301.9, 377.4)">g</text><text xml:space="preserve" font-family="HelveticaNeue-Medium,Helvetica Neue" font-size="34.0" fill="#EAEAEA" transform="matrix(1.00, 0.00, -0.00, -1.00, 322.1, 377.4)">e</text><text xml:space="preserve" font-family="HelveticaNeue-Medium,Helvetica Neue" font-size="34.0" fill="#EAEAEA" transform="matrix(1.00, 0.00, -0.00, -1.00, 341.0, 377.4)">r</text><text xml:space="preserve" font-family="HelveticaNeue-Medium,Helvetica Neue" font-size="34.0" fill="#EAEAEA" transform="matrix(1.00, 0.00, -0.00, -1.00, 353.0, 377.4)"> </text><text xml:space="preserve" font-family="HelveticaNeue-Medium,Helvetica Neue" font-size="34.0" fill="#EAEAEA" transform="matrix(1.00, 0.00, -0.00, -1.00, 362.4, 377.4)">t</text><text xml:space="preserve" font-family="HelveticaNeue-Medium,Helvetica Neue" font-size="34.0" fill="#EAEAEA" transform="matrix(1.00, 0.00, -0.00, -1.00, 373.7, 377.4)">h</text><text xml:space="preserve" font-family="HelveticaNeue-Medium,Helvetica Neue" font-size="34.0" fill="#EAEAEA" transform="matrix(1.00, 0.00, -0.00, -1.00, 393.3, 377.4)">a</text><text xml:space="preserve" font-family="HelveticaNeue-Medium,Helvetica Neue" font-size="34.0" fill="#EAEAEA" transform="matrix(1.00, 0.00, -0.00, -1.00, 412.2, 377.4)">n</text><text xml:space="preserve" font-family="HelveticaNeue-Medium,Helvetica Neue" font-size="34.0" fill="#EAEAEA" transform="matrix(1.00, 0.00, -0.00, -1.00, 431.7, 377.4)"> </text><text xml:space="preserve" font-family="HelveticaNeue-Medium,Helvetica Neue" font-size="34.0" fill="#EAEAEA" transform="matrix(1.00, 0.00, -0.00, -1.00, 441.1, 377.4)">3</text><text xml:space="preserve" font-family="HelveticaNeue-Medium,Helvetica Neue" font-size="34.0" fill="#EAEAEA" transform="matrix(1.00, 0.00, -0.00, -1.00, 460.0, 377.4)">5</text><text xml:space="preserve" font-family="HelveticaNeue-Medium,Helvetica Neue" font-size="34.0" fill="#EAEAEA" transform="matrix(1.00, 0.00, -0.00, -1.00, 478.9, 377.4)"> </text><text xml:space="preserve" font-family="HelveticaNeue-Medium,Helvetica Neue" font-size="34.0" fill="#EAEAEA" transform="matrix(1.00, 0.00, -0.00, -1.00, 488.4, 377.4)">a</text><text xml:space="preserve" font-family="HelveticaNeue-Medium,Helvetica Neue" font-size="34.0" fill="#EAEAEA" transform="matrix(1.00, 0.00, -0.00, -1.00, 507.3, 377.4)">t</text><text xml:space="preserve" font-family="HelveticaNeue-Medium,Helvetica Neue" font-size="34.0" fill="#EAEAEA" transform="matrix(1.00, 0.00, -0.00, -1.00, 518.6, 377.4)"> </text><text xml:space="preserve" font-family="HelveticaNeue-Medium,Helvetica Neue" font-size="34.0" fill="#EAEAEA" transform="matrix(1.00, 0.00, -0.00, -1.00, 528.1, 377.4)">d</text><text xml:space="preserve" font-family="HelveticaNeue-Medium,Helvetica Neue" font-size="34.0" fill="#EAEAEA" transform="matrix(1.00, 0.00, -0.00, -1.00, 548.8, 377.4)">i</text><text xml:space="preserve" font-family="HelveticaNeue-Medium,Helvetica Neue" font-size="34.0" fill="#EAEAEA" transform="matrix(1.00, 0.00, -0.00, -1.00, 557.0, 377.4)">a</text><text xml:space="preserve" font-family="HelveticaNeue-Medium,Helvetica Neue" font-size="34.0" fill="#EAEAEA" transform="matrix(1.00, 0.00, -0.00, -1.00, 575.9, 377.4)">g</text><text xml:space="preserve" font-family="HelveticaNeue-Medium,Helvetica Neue" font-size="34.0" fill="#EAEAEA" transform="matrix(1.00, 0.00, -0.00, -1.00, 596.1, 377.4)">n</text><text xml:space="preserve" font-family="HelveticaNeue-Medium,Helvetica Neue" font-size="34.0" fill="#EAEAEA" transform="matrix(1.00, 0.00, -0.00, -1.00, 615.6, 377.4)">o</text><text xml:space="preserve" font-family="HelveticaNeue-Medium,Helvetica Neue" font-size="34.0" fill="#EAEAEA" transform="matrix(1.00, 0.00, -0.00, -1.00, 635.8, 377.4)">s</text><text xml:space="preserve" font-family="HelveticaNeue-Medium,Helvetica Neue" font-size="34.0" fill="#EAEAEA" transform="matrix(1.00, 0.00, -0.00, -1.00, 653.4, 377.4)">i</text><text xml:space="preserve" font-family="HelveticaNeue-Medium,Helvetica Neue" font-size="34.0" fill="#EAEAEA" transform="matrix(1.00, 0.00, -0.00, -1.00, 661.6, 377.4)">s</text><text xml:space="preserve" font-family="HelveticaNeue-Medium,Helvetica Neue" font-size="34.0" fill="#EAEAEA" transform="matrix(1.00, 0.00, -0.00, -1.00, 679.3, 377.4)">?</text><text xml:space="preserve" font-family="HelveticaNeue-Medium,Helvetica Neue" font-size="34.0" fill="#EAEAEA" transform="matrix(1.00, 0.00, -0.00, -1.00, 698.2, 377.4)"> </text><image xlink:href="../../2F6D434F-B743-45FC-B83E-DBBBA9BDACAB/assets/22338A021207344BFFC0BA20AE086817.png" width="18.00" height="18.00" transform="matrix(1.00, 0.00, -0.00, -1.00, 61.0, 313.0)"></image><text xml:space="preserve" font-family="HelveticaNeue-Medium,Helvetica Neue" font-size="25.5" fill="#EAEAEA" transform="matrix(1.00, 0.00, -0.00, -1.00, 64.0, 296.9)">•</text><image xlink:href="5D4BD4308259F87BBFDE832CE4051963.png" width="660.00" height="40.00" transform="matrix(1.00, 0.00, -0.00, -1.00, 92.0, 321.0)"></image><text xml:space="preserve" font-family="HelveticaNeue-Medium,Helvetica Neue" font-size="34.0" fill="#EAEAEA" transform="matrix(1.00, 0.00, -0.00, -1.00, 96.0, 294.4)">W</text><text xml:space="preserve" font-family="HelveticaNeue-Medium,Helvetica Neue" font-size="34.0" fill="#EAEAEA" transform="matrix(1.00, 0.00, -0.00, -1.00, 127.5, 294.4)">o</text><text xml:space="preserve" font-family="HelveticaNeue-Medium,Helvetica Neue" font-size="34.0" fill="#EAEAEA" transform="matrix(1.00, 0.00, -0.00, -1.00, 147.6, 294.4)">m</text><text xml:space="preserve" font-family="HelveticaNeue-Medium,Helvetica Neue" font-size="34.0" fill="#EAEAEA" transform="matrix(1.00, 0.00, -0.00, -1.00, 177.2, 294.4)">e</text><text xml:space="preserve" font-family="HelveticaNeue-Medium,Helvetica Neue" font-size="34.0" fill="#EAEAEA" transform="matrix(1.00, 0.00, -0.00, -1.00, 196.1, 294.4)">n</text><text xml:space="preserve" font-family="HelveticaNeue-Medium,Helvetica Neue" font-size="34.0" fill="#EAEAEA" transform="matrix(1.00, 0.00, -0.00, -1.00, 215.6, 294.4)"> </text><text xml:space="preserve" font-family="HelveticaNeue-Medium,Helvetica Neue" font-size="34.0" fill="#EAEAEA" transform="matrix(1.00, 0.00, -0.00, -1.00, 225.1, 294.4)">w</text><text xml:space="preserve" font-family="HelveticaNeue-Medium,Helvetica Neue" font-size="34.0" fill="#EAEAEA" transform="matrix(1.00, 0.00, -0.00, -1.00, 251.6, 294.4)">h</text><text xml:space="preserve" font-family="HelveticaNeue-Medium,Helvetica Neue" font-size="34.0" fill="#EAEAEA" transform="matrix(1.00, 0.00, -0.00, -1.00, 271.1, 294.4)">o</text><text xml:space="preserve" font-family="HelveticaNeue-Medium,Helvetica Neue" font-size="34.0" fill="#EAEAEA" transform="matrix(1.00, 0.00, -0.00, -1.00, 291.2, 294.4)"> </text><text xml:space="preserve" font-family="HelveticaNeue-Medium,Helvetica Neue" font-size="34.0" fill="#EAEAEA" transform="matrix(1.00, 0.00, -0.00, -1.00, 300.7, 294.4)">a</text><text xml:space="preserve" font-family="HelveticaNeue-Medium,Helvetica Neue" font-size="34.0" fill="#EAEAEA" transform="matrix(1.00, 0.00, -0.00, -1.00, 319.6, 294.4)">r</text><text xml:space="preserve" font-family="HelveticaNeue-Medium,Helvetica Neue" font-size="34.0" fill="#EAEAEA" transform="matrix(1.00, 0.00, -0.00, -1.00, 330.9, 294.4)">e</text><text xml:space="preserve" font-family="HelveticaNeue-Medium,Helvetica Neue" font-size="34.0" fill="#EAEAEA" transform="matrix(1.00, 0.00, -0.00, -1.00, 349.8, 294.4)"> </text><text xml:space="preserve" font-family="HelveticaNeue-Medium,Helvetica Neue" font-size="34.0" fill="#EAEAEA" transform="matrix(1.00, 0.00, -0.00, -1.00, 359.3, 294.4)">s</text><text xml:space="preserve" font-family="HelveticaNeue-Medium,Helvetica Neue" font-size="34.0" fill="#EAEAEA" transform="matrix(1.00, 0.00, -0.00, -1.00, 376.9, 294.4)">t</text><text xml:space="preserve" font-family="HelveticaNeue-Medium,Helvetica Neue" font-size="34.0" fill="#EAEAEA" transform="matrix(1.00, 0.00, -0.00, -1.00, 388.3, 294.4)">i</text><text xml:space="preserve" font-family="HelveticaNeue-Medium,Helvetica Neue" font-size="34.0" fill="#EAEAEA" transform="matrix(1.00, 0.00, -0.00, -1.00, 396.5, 294.4)">l</text><text xml:space="preserve" font-family="HelveticaNeue-Medium,Helvetica Neue" font-size="34.0" fill="#EAEAEA" transform="matrix(1.00, 0.00, -0.00, -1.00, 404.7, 294.4)">l</text><text xml:space="preserve" font-family="HelveticaNeue-Medium,Helvetica Neue" font-size="34.0" fill="#EAEAEA" transform="matrix(1.00, 0.00, -0.00, -1.00, 412.8, 294.4)"> </text><text xml:space="preserve" font-family="HelveticaNeue-Medium,Helvetica Neue" font-size="34.0" fill="#EAEAEA" transform="matrix(1.00, 0.00, -0.00, -1.00, 422.3, 294.4)">p</text><text xml:space="preserve" font-family="HelveticaNeue-Medium,Helvetica Neue" font-size="34.0" fill="#EAEAEA" transform="matrix(1.00, 0.00, -0.00, -1.00, 443.1, 294.4)">r</text><text xml:space="preserve" font-family="HelveticaNeue-Medium,Helvetica Neue" font-size="34.0" fill="#EAEAEA" transform="matrix(1.00, 0.00, -0.00, -1.00, 454.4, 294.4)">e</text><text xml:space="preserve" font-family="HelveticaNeue-Medium,Helvetica Neue" font-size="34.0" fill="#EAEAEA" transform="matrix(1.00, 0.00, -0.00, -1.00, 473.3, 294.4)">m</text><text xml:space="preserve" font-family="HelveticaNeue-Medium,Helvetica Neue" font-size="34.0" fill="#EAEAEA" transform="matrix(1.00, 0.00, -0.00, -1.00, 502.9, 294.4)">e</text><text xml:space="preserve" font-family="HelveticaNeue-Medium,Helvetica Neue" font-size="34.0" fill="#EAEAEA" transform="matrix(1.00, 0.00, -0.00, -1.00, 521.8, 294.4)">n</text><text xml:space="preserve" font-family="HelveticaNeue-Medium,Helvetica Neue" font-size="34.0" fill="#EAEAEA" transform="matrix(1.00, 0.00, -0.00, -1.00, 541.3, 294.4)">o</text><text xml:space="preserve" font-family="HelveticaNeue-Medium,Helvetica Neue" font-size="34.0" fill="#EAEAEA" transform="matrix(1.00, 0.00, -0.00, -1.00, 561.5, 294.4)">p</text><text xml:space="preserve" font-family="HelveticaNeue-Medium,Helvetica Neue" font-size="34.0" fill="#EAEAEA" transform="matrix(1.00, 0.00, -0.00, -1.00, 582.3, 294.4)">a</text><text xml:space="preserve" font-family="HelveticaNeue-Medium,Helvetica Neue" font-size="34.0" fill="#EAEAEA" transform="matrix(1.00, 0.00, -0.00, -1.00, 601.2, 294.4)">u</text><text xml:space="preserve" font-family="HelveticaNeue-Medium,Helvetica Neue" font-size="34.0" fill="#EAEAEA" transform="matrix(1.00, 0.00, -0.00, -1.00, 620.7, 294.4)">s</text><text xml:space="preserve" font-family="HelveticaNeue-Medium,Helvetica Neue" font-size="34.0" fill="#EAEAEA" transform="matrix(1.00, 0.00, -0.00, -1.00, 638.3, 294.4)">a</text><text xml:space="preserve" font-family="HelveticaNeue-Medium,Helvetica Neue" font-size="34.0" fill="#EAEAEA" transform="matrix(1.00, 0.00, -0.00, -1.00, 657.2, 294.4)">l</text><text xml:space="preserve" font-family="HelveticaNeue-Medium,Helvetica Neue" font-size="34.0" fill="#EAEAEA" transform="matrix(1.00, 0.00, -0.00, -1.00, 665.4, 294.4)"> </text><text xml:space="preserve" font-family="HelveticaNeue-Medium,Helvetica Neue" font-size="34.0" fill="#EAEAEA" transform="matrix(1.00, 0.00, -0.00, -1.00, 674.9, 294.4)">a</text><text xml:space="preserve" font-family="HelveticaNeue-Medium,Helvetica Neue" font-size="34.0" fill="#EAEAEA" transform="matrix(1.00, 0.00, -0.00, -1.00, 693.8, 294.4)">f</text><text xml:space="preserve" font-family="HelveticaNeue-Medium,Helvetica Neue" font-size="34.0" fill="#EAEAEA" transform="matrix(1.00, 0.00, -0.00, -1.00, 704.5, 294.4)">t</text><text xml:space="preserve" font-family="HelveticaNeue-Medium,Helvetica Neue" font-size="34.0" fill="#EAEAEA" transform="matrix(1.00, 0.00, -0.00, -1.00, 715.8, 294.4)">e</text><text xml:space="preserve" font-family="HelveticaNeue-Medium,Helvetica Neue" font-size="34.0" fill="#EAEAEA" transform="matrix(1.00, 0.00, -0.00, -1.00, 734.7, 294.4)">r</text><text xml:space="preserve" font-family="LucidaGrande-Bold,Lucida Grande" font-weight="bold" font-size="34.0" fill="#EAEAEA" transform="matrix(1.00, 0.00, -0.00, -1.00, 746.7, 294.4)"> </text><image xlink:href="30196F762958969E86B1B226EC3F07CF.png" width="459.00" height="40.00" transform="matrix(1.00, 0.00, -0.00, -1.00, 93.0, 280.0)"></image><text xml:space="preserve" font-family="HelveticaNeue-Medium,Helvetica Neue" font-size="34.0" fill="#EAEAEA" transform="matrix(1.00, 0.00, -0.00, -1.00, 96.0, 253.4)">c</text><text xml:space="preserve" font-family="HelveticaNeue-Medium,Helvetica Neue" font-size="34.0" fill="#EAEAEA" transform="matrix(1.00, 0.00, -0.00, -1.00, 114.9, 253.4)">o</text><text xml:space="preserve" font-family="HelveticaNeue-Medium,Helvetica Neue" font-size="34.0" fill="#EAEAEA" transform="matrix(1.00, 0.00, -0.00, -1.00, 135.1, 253.4)">m</text><text xml:space="preserve" font-family="HelveticaNeue-Medium,Helvetica Neue" font-size="34.0" fill="#EAEAEA" transform="matrix(1.00, 0.00, -0.00, -1.00, 164.6, 253.4)">p</text><text xml:space="preserve" font-family="HelveticaNeue-Medium,Helvetica Neue" font-size="34.0" fill="#EAEAEA" transform="matrix(1.00, 0.00, -0.00, -1.00, 185.4, 253.4)">l</text><text xml:space="preserve" font-family="HelveticaNeue-Medium,Helvetica Neue" font-size="34.0" fill="#EAEAEA" transform="matrix(1.00, 0.00, -0.00, -1.00, 193.6, 253.4)">e</text><text xml:space="preserve" font-family="HelveticaNeue-Medium,Helvetica Neue" font-size="34.0" fill="#EAEAEA" transform="matrix(1.00, 0.00, -0.00, -1.00, 212.5, 253.4)">t</text><text xml:space="preserve" font-family="HelveticaNeue-Medium,Helvetica Neue" font-size="34.0" fill="#EAEAEA" transform="matrix(1.00, 0.00, -0.00, -1.00, 223.8, 253.4)">i</text><text xml:space="preserve" font-family="HelveticaNeue-Medium,Helvetica Neue" font-size="34.0" fill="#EAEAEA" transform="matrix(1.00, 0.00, -0.00, -1.00, 232.0, 253.4)">o</text><text xml:space="preserve" font-family="HelveticaNeue-Medium,Helvetica Neue" font-size="34.0" fill="#EAEAEA" transform="matrix(1.00, 0.00, -0.00, -1.00, 252.2, 253.4)">n</text><text xml:space="preserve" font-family="HelveticaNeue-Medium,Helvetica Neue" font-size="34.0" fill="#EAEAEA" transform="matrix(1.00, 0.00, -0.00, -1.00, 271.7, 253.4)"> </text><text xml:space="preserve" font-family="HelveticaNeue-Medium,Helvetica Neue" font-size="34.0" fill="#EAEAEA" transform="matrix(1.00, 0.00, -0.00, -1.00, 281.2, 253.4)">o</text><text xml:space="preserve" font-family="HelveticaNeue-Medium,Helvetica Neue" font-size="34.0" fill="#EAEAEA" transform="matrix(1.00, 0.00, -0.00, -1.00, 301.3, 253.4)">f</text><text xml:space="preserve" font-family="HelveticaNeue-Medium,Helvetica Neue" font-size="34.0" fill="#EAEAEA" transform="matrix(1.00, 0.00, -0.00, -1.00, 312.0, 253.4)"> </text><text xml:space="preserve" font-family="HelveticaNeue-Medium,Helvetica Neue" font-size="34.0" fill="#EAEAEA" transform="matrix(1.00, 0.00, -0.00, -1.00, 321.5, 253.4)">c</text><text xml:space="preserve" font-family="HelveticaNeue-Medium,Helvetica Neue" font-size="34.0" fill="#EAEAEA" transform="matrix(1.00, 0.00, -0.00, -1.00, 340.4, 253.4)">h</text><text xml:space="preserve" font-family="HelveticaNeue-Medium,Helvetica Neue" font-size="34.0" fill="#EAEAEA" transform="matrix(1.00, 0.00, -0.00, -1.00, 359.9, 253.4)">e</text><text xml:space="preserve" font-family="HelveticaNeue-Medium,Helvetica Neue" font-size="34.0" fill="#EAEAEA" transform="matrix(1.00, 0.00, -0.00, -1.00, 378.8, 253.4)">m</text><text xml:space="preserve" font-family="HelveticaNeue-Medium,Helvetica Neue" font-size="34.0" fill="#EAEAEA" transform="matrix(1.00, 0.00, -0.00, -1.00, 408.4, 253.4)">o</text><text xml:space="preserve" font-family="HelveticaNeue-Medium,Helvetica Neue" font-size="34.0" fill="#EAEAEA" transform="matrix(1.00, 0.00, -0.00, -1.00, 428.6, 253.4)">t</text><text xml:space="preserve" font-family="HelveticaNeue-Medium,Helvetica Neue" font-size="34.0" fill="#EAEAEA" transform="matrix(1.00, 0.00, -0.00, -1.00, 439.9, 253.4)">h</text><text xml:space="preserve" font-family="HelveticaNeue-Medium,Helvetica Neue" font-size="34.0" fill="#EAEAEA" transform="matrix(1.00, 0.00, -0.00, -1.00, 459.4, 253.4)">e</text><text xml:space="preserve" font-family="HelveticaNeue-Medium,Helvetica Neue" font-size="34.0" fill="#EAEAEA" transform="matrix(1.00, 0.00, -0.00, -1.00, 478.3, 253.4)">r</text><text xml:space="preserve" font-family="HelveticaNeue-Medium,Helvetica Neue" font-size="34.0" fill="#EAEAEA" transform="matrix(1.00, 0.00, -0.00, -1.00, 490.3, 253.4)">a</text><text xml:space="preserve" font-family="HelveticaNeue-Medium,Helvetica Neue" font-size="34.0" fill="#EAEAEA" transform="matrix(1.00, 0.00, -0.00, -1.00, 509.2, 253.4)">p</text><text xml:space="preserve" font-family="HelveticaNeue-Medium,Helvetica Neue" font-size="34.0" fill="#EAEAEA" transform="matrix(1.00, 0.00, -0.00, -1.00, 529.9, 253.4)">y</text></g></svg>