<?xml version="1.0" encoding="UTF-8" standalone="no"?><svg xmlns="http://www.w3.org/2000/svg" xmlns:xlink="http://www.w3.org/1999/xlink" clip-rule="evenodd" stroke-miterlimit="10" viewBox="0 0 1024 768"><desc>SVG generated by Keynote</desc><defs></defs><g transform="matrix(1.00, 0.00, -0.00, -1.00, 0.0, 768.0)"><g><clipPath id="clip0x608000eb72e0"><path d="M 0.0 768.0 L 1024.0 768.0 L 1024.0 0.0 L 0.0 0.0 Z M 0.0 768.0 "></path></clipPath><g clip-path="url(#clip0x608000eb72e0)"><image xlink:href="../../BE4D2DDB-FBE4-467E-AE38-B34F9028D09E/assets/31D284A5C75E14674D2A89FDB99F8048.jpeg" width="2048.00" height="1536.00" transform="matrix(0.50, 0.00, -0.00, -0.50, 0.0, 768.0)"></image></g></g><image xlink:href="8994385ED50EB8B8CF2F8E7441134909.png" width="881.00" height="29.00" transform="matrix(1.00, 0.00, -0.00, -1.00, 72.0, 86.0)"></image><text xml:space="preserve" font-family="HelveticaNeue-Medium,Helvetica Neue" font-size="22.0" fill="#EAEAEA" transform="matrix(1.00, 0.00, -0.00, -1.00, 75.2, 67.6)">C</text><text xml:space="preserve" font-family="HelveticaNeue-Medium,Helvetica Neue" font-size="22.0" fill="#EAEAEA" transform="matrix(1.00, 0.00, -0.00, -1.00, 91.1, 67.6)">a</text><text xml:space="preserve" font-family="HelveticaNeue-Medium,Helvetica Neue" font-size="22.0" fill="#EAEAEA" transform="matrix(1.00, 0.00, -0.00, -1.00, 103.3, 67.6)">l</text><text xml:space="preserve" font-family="HelveticaNeue-Medium,Helvetica Neue" font-size="22.0" fill="#EAEAEA" transform="matrix(1.00, 0.00, -0.00, -1.00, 108.6, 67.6)">v</text><text xml:space="preserve" font-family="HelveticaNeue-Medium,Helvetica Neue" font-size="22.0" fill="#EAEAEA" transform="matrix(1.00, 0.00, -0.00, -1.00, 120.0, 67.6)">o</text><text xml:space="preserve" font-family="HelveticaNeue-Medium,Helvetica Neue" font-size="22.0" fill="#EAEAEA" transform="matrix(1.00, 0.00, -0.00, -1.00, 133.1, 67.6)"> </text><text xml:space="preserve" font-family="HelveticaNeue-Medium,Helvetica Neue" font-size="22.0" fill="#EAEAEA" transform="matrix(1.00, 0.00, -0.00, -1.00, 139.2, 67.6)">K</text><text xml:space="preserve" font-family="HelveticaNeue-Medium,Helvetica Neue" font-size="22.0" fill="#EAEAEA" transform="matrix(1.00, 0.00, -0.00, -1.00, 154.2, 67.6)">R</text><text xml:space="preserve" font-family="HelveticaNeue-Medium,Helvetica Neue" font-size="22.0" fill="#EAEAEA" transform="matrix(1.00, 0.00, -0.00, -1.00, 169.7, 67.6)">,</text><text xml:space="preserve" font-family="HelveticaNeue-Medium,Helvetica Neue" font-size="22.0" fill="#EAEAEA" transform="matrix(1.00, 0.00, -0.00, -1.00, 175.9, 67.6)"> </text><text xml:space="preserve" font-family="HelveticaNeue-Medium,Helvetica Neue" font-size="22.0" fill="#EAEAEA" transform="matrix(1.00, 0.00, -0.00, -1.00, 182.0, 67.6)">V</text><text xml:space="preserve" font-family="HelveticaNeue-Medium,Helvetica Neue" font-size="22.0" fill="#EAEAEA" transform="matrix(1.00, 0.00, -0.00, -1.00, 195.6, 67.6)">i</text><text xml:space="preserve" font-family="HelveticaNeue-Medium,Helvetica Neue" font-size="22.0" fill="#EAEAEA" transform="matrix(1.00, 0.00, -0.00, -1.00, 200.9, 67.6)">n</text><text xml:space="preserve" font-family="HelveticaNeue-Medium,Helvetica Neue" font-size="22.0" fill="#EAEAEA" transform="matrix(1.00, 0.00, -0.00, -1.00, 213.6, 67.6)">h</text><text xml:space="preserve" font-family="HelveticaNeue-Medium,Helvetica Neue" font-size="22.0" fill="#EAEAEA" transform="matrix(1.00, 0.00, -0.00, -1.00, 226.2, 67.6)"> </text><text xml:space="preserve" font-family="HelveticaNeue-Medium,Helvetica Neue" font-size="22.0" fill="#EAEAEA" transform="matrix(1.00, 0.00, -0.00, -1.00, 232.3, 67.6)">D</text><text xml:space="preserve" font-family="HelveticaNeue-Medium,Helvetica Neue" font-size="22.0" fill="#EAEAEA" transform="matrix(1.00, 0.00, -0.00, -1.00, 248.2, 67.6)">C</text><text xml:space="preserve" font-family="HelveticaNeue-Medium,Helvetica Neue" font-size="22.0" fill="#EAEAEA" transform="matrix(1.00, 0.00, -0.00, -1.00, 264.1, 67.6)">,</text><text xml:space="preserve" font-family="HelveticaNeue-Medium,Helvetica Neue" font-size="22.0" fill="#EAEAEA" transform="matrix(1.00, 0.00, -0.00, -1.00, 270.2, 67.6)"> </text><text xml:space="preserve" font-family="HelveticaNeue-Medium,Helvetica Neue" font-size="22.0" fill="#EAEAEA" transform="matrix(1.00, 0.00, -0.00, -1.00, 276.3, 67.6)">M</text><text xml:space="preserve" font-family="HelveticaNeue-Medium,Helvetica Neue" font-size="22.0" fill="#EAEAEA" transform="matrix(1.00, 0.00, -0.00, -1.00, 295.9, 67.6)">a</text><text xml:space="preserve" font-family="HelveticaNeue-Medium,Helvetica Neue" font-size="22.0" fill="#EAEAEA" transform="matrix(1.00, 0.00, -0.00, -1.00, 308.1, 67.6)">r</text><text xml:space="preserve" font-family="HelveticaNeue-Medium,Helvetica Neue" font-size="22.0" fill="#EAEAEA" transform="matrix(1.00, 0.00, -0.00, -1.00, 315.8, 67.6)">i</text><text xml:space="preserve" font-family="HelveticaNeue-Medium,Helvetica Neue" font-size="22.0" fill="#EAEAEA" transform="matrix(1.00, 0.00, -0.00, -1.00, 321.1, 67.6)">c</text><text xml:space="preserve" font-family="HelveticaNeue-Medium,Helvetica Neue" font-size="22.0" fill="#EAEAEA" transform="matrix(1.00, 0.00, -0.00, -1.00, 333.4, 67.6)"> </text><text xml:space="preserve" font-family="HelveticaNeue-Medium,Helvetica Neue" font-size="22.0" fill="#EAEAEA" transform="matrix(1.00, 0.00, -0.00, -1.00, 339.5, 67.6)">I</text><text xml:space="preserve" font-family="HelveticaNeue-Medium,Helvetica Neue" font-size="22.0" fill="#EAEAEA" transform="matrix(1.00, 0.00, -0.00, -1.00, 345.6, 67.6)">,</text><text xml:space="preserve" font-family="HelveticaNeue-Medium,Helvetica Neue" font-size="22.0" fill="#EAEAEA" transform="matrix(1.00, 0.00, -0.00, -1.00, 351.7, 67.6)"> </text><text xml:space="preserve" font-family="HelveticaNeue-Medium,Helvetica Neue" font-size="22.0" fill="#EAEAEA" transform="matrix(1.00, 0.00, -0.00, -1.00, 357.8, 67.6)">e</text><text xml:space="preserve" font-family="HelveticaNeue-Medium,Helvetica Neue" font-size="22.0" fill="#EAEAEA" transform="matrix(1.00, 0.00, -0.00, -1.00, 370.1, 67.6)">t</text><text xml:space="preserve" font-family="HelveticaNeue-Medium,Helvetica Neue" font-size="22.0" fill="#EAEAEA" transform="matrix(1.00, 0.00, -0.00, -1.00, 377.4, 67.6)"> </text><text xml:space="preserve" font-family="HelveticaNeue-Medium,Helvetica Neue" font-size="22.0" fill="#EAEAEA" transform="matrix(1.00, 0.00, -0.00, -1.00, 383.5, 67.6)">a</text><text xml:space="preserve" font-family="HelveticaNeue-Medium,Helvetica Neue" font-size="22.0" fill="#EAEAEA" transform="matrix(1.00, 0.00, -0.00, -1.00, 395.7, 67.6)">l</text><text xml:space="preserve" font-family="HelveticaNeue-Medium,Helvetica Neue" font-size="22.0" fill="#EAEAEA" transform="matrix(1.00, 0.00, -0.00, -1.00, 401.0, 67.6)">.</text><text xml:space="preserve" font-family="HelveticaNeue-Medium,Helvetica Neue" font-size="22.0" fill="#EAEAEA" transform="matrix(1.00, 0.00, -0.00, -1.00, 407.2, 67.6)"> </text><text xml:space="preserve" font-family="HelveticaNeue-Medium,Helvetica Neue" font-size="22.0" fill="#EAEAEA" transform="matrix(1.00, 0.00, -0.00, -1.00, 413.3, 67.6)">M</text><text xml:space="preserve" font-family="HelveticaNeue-Medium,Helvetica Neue" font-size="22.0" fill="#EAEAEA" transform="matrix(1.00, 0.00, -0.00, -1.00, 432.8, 67.6)">y</text><text xml:space="preserve" font-family="HelveticaNeue-Medium,Helvetica Neue" font-size="22.0" fill="#EAEAEA" transform="matrix(1.00, 0.00, -0.00, -1.00, 444.3, 67.6)">e</text><text xml:space="preserve" font-family="HelveticaNeue-Medium,Helvetica Neue" font-size="22.0" fill="#EAEAEA" transform="matrix(1.00, 0.00, -0.00, -1.00, 456.5, 67.6)">l</text><text xml:space="preserve" font-family="HelveticaNeue-Medium,Helvetica Neue" font-size="22.0" fill="#EAEAEA" transform="matrix(1.00, 0.00, -0.00, -1.00, 461.8, 67.6)">o</text><text xml:space="preserve" font-family="HelveticaNeue-Medium,Helvetica Neue" font-size="22.0" fill="#EAEAEA" transform="matrix(1.00, 0.00, -0.00, -1.00, 474.8, 67.6)">d</text><text xml:space="preserve" font-family="HelveticaNeue-Medium,Helvetica Neue" font-size="22.0" fill="#EAEAEA" transform="matrix(1.00, 0.00, -0.00, -1.00, 488.3, 67.6)">y</text><text xml:space="preserve" font-family="HelveticaNeue-Medium,Helvetica Neue" font-size="22.0" fill="#EAEAEA" transform="matrix(1.00, 0.00, -0.00, -1.00, 499.7, 67.6)">s</text><text xml:space="preserve" font-family="HelveticaNeue-Medium,Helvetica Neue" font-size="22.0" fill="#EAEAEA" transform="matrix(1.00, 0.00, -0.00, -1.00, 511.1, 67.6)">p</text><text xml:space="preserve" font-family="HelveticaNeue-Medium,Helvetica Neue" font-size="22.0" fill="#EAEAEA" transform="matrix(1.00, 0.00, -0.00, -1.00, 524.6, 67.6)">l</text><text xml:space="preserve" font-family="HelveticaNeue-Medium,Helvetica Neue" font-size="22.0" fill="#EAEAEA" transform="matrix(1.00, 0.00, -0.00, -1.00, 529.9, 67.6)">a</text><text xml:space="preserve" font-family="HelveticaNeue-Medium,Helvetica Neue" font-size="22.0" fill="#EAEAEA" transform="matrix(1.00, 0.00, -0.00, -1.00, 542.1, 67.6)">s</text><text xml:space="preserve" font-family="HelveticaNeue-Medium,Helvetica Neue" font-size="22.0" fill="#EAEAEA" transform="matrix(1.00, 0.00, -0.00, -1.00, 553.5, 67.6)">i</text><text xml:space="preserve" font-family="HelveticaNeue-Medium,Helvetica Neue" font-size="22.0" fill="#EAEAEA" transform="matrix(1.00, 0.00, -0.00, -1.00, 558.8, 67.6)">a</text><text xml:space="preserve" font-family="HelveticaNeue-Medium,Helvetica Neue" font-size="22.0" fill="#EAEAEA" transform="matrix(1.00, 0.00, -0.00, -1.00, 571.0, 67.6)"> </text><text xml:space="preserve" font-family="HelveticaNeue-Medium,Helvetica Neue" font-size="22.0" fill="#EAEAEA" transform="matrix(1.00, 0.00, -0.00, -1.00, 577.2, 67.6)">i</text><text xml:space="preserve" font-family="HelveticaNeue-Medium,Helvetica Neue" font-size="22.0" fill="#EAEAEA" transform="matrix(1.00, 0.00, -0.00, -1.00, 582.5, 67.6)">n</text><text xml:space="preserve" font-family="HelveticaNeue-Medium,Helvetica Neue" font-size="22.0" fill="#EAEAEA" transform="matrix(1.00, 0.00, -0.00, -1.00, 595.1, 67.6)"> </text><text xml:space="preserve" font-family="HelveticaNeue-Medium,Helvetica Neue" font-size="22.0" fill="#EAEAEA" transform="matrix(1.00, 0.00, -0.00, -1.00, 601.2, 67.6)">a</text><text xml:space="preserve" font-family="HelveticaNeue-Medium,Helvetica Neue" font-size="22.0" fill="#EAEAEA" transform="matrix(1.00, 0.00, -0.00, -1.00, 613.4, 67.6)">u</text><text xml:space="preserve" font-family="HelveticaNeue-Medium,Helvetica Neue" font-size="22.0" fill="#EAEAEA" transform="matrix(1.00, 0.00, -0.00, -1.00, 626.1, 67.6)">t</text><text xml:space="preserve" font-family="HelveticaNeue-Medium,Helvetica Neue" font-size="22.0" fill="#EAEAEA" transform="matrix(1.00, 0.00, -0.00, -1.00, 633.4, 67.6)">o</text><text xml:space="preserve" font-family="HelveticaNeue-Medium,Helvetica Neue" font-size="22.0" fill="#EAEAEA" transform="matrix(1.00, 0.00, -0.00, -1.00, 646.4, 67.6)">s</text><text xml:space="preserve" font-family="HelveticaNeue-Medium,Helvetica Neue" font-size="22.0" fill="#EAEAEA" transform="matrix(1.00, 0.00, -0.00, -1.00, 657.8, 67.6)">o</text><text xml:space="preserve" font-family="HelveticaNeue-Medium,Helvetica Neue" font-size="22.0" fill="#EAEAEA" transform="matrix(1.00, 0.00, -0.00, -1.00, 670.9, 67.6)">m</text><text xml:space="preserve" font-family="HelveticaNeue-Medium,Helvetica Neue" font-size="22.0" fill="#EAEAEA" transform="matrix(1.00, 0.00, -0.00, -1.00, 690.0, 67.6)">a</text><text xml:space="preserve" font-family="HelveticaNeue-Medium,Helvetica Neue" font-size="22.0" fill="#EAEAEA" transform="matrix(1.00, 0.00, -0.00, -1.00, 702.3, 67.6)">l</text><text xml:space="preserve" font-family="HelveticaNeue-Medium,Helvetica Neue" font-size="22.0" fill="#EAEAEA" transform="matrix(1.00, 0.00, -0.00, -1.00, 707.6, 67.6)"> </text><text xml:space="preserve" font-family="HelveticaNeue-Medium,Helvetica Neue" font-size="22.0" fill="#EAEAEA" transform="matrix(1.00, 0.00, -0.00, -1.00, 713.7, 67.6)">d</text><text xml:space="preserve" font-family="HelveticaNeue-Medium,Helvetica Neue" font-size="22.0" fill="#EAEAEA" transform="matrix(1.00, 0.00, -0.00, -1.00, 727.1, 67.6)">o</text><text xml:space="preserve" font-family="HelveticaNeue-Medium,Helvetica Neue" font-size="22.0" fill="#EAEAEA" transform="matrix(1.00, 0.00, -0.00, -1.00, 740.2, 67.6)">m</text><text xml:space="preserve" font-family="HelveticaNeue-Medium,Helvetica Neue" font-size="22.0" fill="#EAEAEA" transform="matrix(1.00, 0.00, -0.00, -1.00, 759.3, 67.6)">i</text><text xml:space="preserve" font-family="HelveticaNeue-Medium,Helvetica Neue" font-size="22.0" fill="#EAEAEA" transform="matrix(1.00, 0.00, -0.00, -1.00, 764.6, 67.6)">n</text><text xml:space="preserve" font-family="HelveticaNeue-Medium,Helvetica Neue" font-size="22.0" fill="#EAEAEA" transform="matrix(1.00, 0.00, -0.00, -1.00, 777.2, 67.6)">a</text><text xml:space="preserve" font-family="HelveticaNeue-Medium,Helvetica Neue" font-size="22.0" fill="#EAEAEA" transform="matrix(1.00, 0.00, -0.00, -1.00, 789.5, 67.6)">n</text><text xml:space="preserve" font-family="HelveticaNeue-Medium,Helvetica Neue" font-size="22.0" fill="#EAEAEA" transform="matrix(1.00, 0.00, -0.00, -1.00, 802.1, 67.6)">t</text><text xml:space="preserve" font-family="HelveticaNeue-Medium,Helvetica Neue" font-size="22.0" fill="#EAEAEA" transform="matrix(1.00, 0.00, -0.00, -1.00, 809.4, 67.6)"> </text><text xml:space="preserve" font-family="HelveticaNeue-Medium,Helvetica Neue" font-size="22.0" fill="#EAEAEA" transform="matrix(1.00, 0.00, -0.00, -1.00, 815.5, 67.6)">a</text><text xml:space="preserve" font-family="HelveticaNeue-Medium,Helvetica Neue" font-size="22.0" fill="#EAEAEA" transform="matrix(1.00, 0.00, -0.00, -1.00, 827.8, 67.6)">n</text><text xml:space="preserve" font-family="HelveticaNeue-Medium,Helvetica Neue" font-size="22.0" fill="#EAEAEA" transform="matrix(1.00, 0.00, -0.00, -1.00, 840.4, 67.6)">d</text><text xml:space="preserve" font-family="HelveticaNeue-Medium,Helvetica Neue" font-size="22.0" fill="#EAEAEA" transform="matrix(1.00, 0.00, -0.00, -1.00, 853.8, 67.6)"> </text><text xml:space="preserve" font-family="HelveticaNeue-Medium,Helvetica Neue" font-size="22.0" fill="#EAEAEA" transform="matrix(1.00, 0.00, -0.00, -1.00, 860.0, 67.6)">s</text><text xml:space="preserve" font-family="HelveticaNeue-Medium,Helvetica Neue" font-size="22.0" fill="#EAEAEA" transform="matrix(1.00, 0.00, -0.00, -1.00, 871.4, 67.6)">p</text><text xml:space="preserve" font-family="HelveticaNeue-Medium,Helvetica Neue" font-size="22.0" fill="#EAEAEA" transform="matrix(1.00, 0.00, -0.00, -1.00, 884.8, 67.6)">o</text><text xml:space="preserve" font-family="HelveticaNeue-Medium,Helvetica Neue" font-size="22.0" fill="#EAEAEA" transform="matrix(1.00, 0.00, -0.00, -1.00, 897.9, 67.6)">r</text><text xml:space="preserve" font-family="HelveticaNeue-Medium,Helvetica Neue" font-size="22.0" fill="#EAEAEA" transform="matrix(1.00, 0.00, -0.00, -1.00, 905.6, 67.6)">a</text><text xml:space="preserve" font-family="HelveticaNeue-Medium,Helvetica Neue" font-size="22.0" fill="#EAEAEA" transform="matrix(1.00, 0.00, -0.00, -1.00, 917.8, 67.6)">d</text><text xml:space="preserve" font-family="HelveticaNeue-Medium,Helvetica Neue" font-size="22.0" fill="#EAEAEA" transform="matrix(1.00, 0.00, -0.00, -1.00, 931.3, 67.6)">i</text><text xml:space="preserve" font-family="HelveticaNeue-Medium,Helvetica Neue" font-size="22.0" fill="#EAEAEA" transform="matrix(1.00, 0.00, -0.00, -1.00, 936.6, 67.6)">c</text><text xml:space="preserve" font-family="HelveticaNeue-Medium,Helvetica Neue" font-size="22.0" fill="#EAEAEA" transform="matrix(1.00, 0.00, -0.00, -1.00, 948.8, 67.6)"> </text><image xlink:href="FB76004F11CB4324C2D9546AA4DA1E4C.png" width="926.00" height="29.00" transform="matrix(1.00, 0.00, -0.00, -1.00, 49.0, 59.0)"></image><text xml:space="preserve" font-family="HelveticaNeue-Medium,Helvetica Neue" font-size="22.0" fill="#EAEAEA" transform="matrix(1.00, 0.00, -0.00, -1.00, 52.5, 40.6)">m</text><text xml:space="preserve" font-family="HelveticaNeue-Medium,Helvetica Neue" font-size="22.0" fill="#EAEAEA" transform="matrix(1.00, 0.00, -0.00, -1.00, 71.6, 40.6)">o</text><text xml:space="preserve" font-family="HelveticaNeue-Medium,Helvetica Neue" font-size="22.0" fill="#EAEAEA" transform="matrix(1.00, 0.00, -0.00, -1.00, 84.6, 40.6)">n</text><text xml:space="preserve" font-family="HelveticaNeue-Medium,Helvetica Neue" font-size="22.0" fill="#EAEAEA" transform="matrix(1.00, 0.00, -0.00, -1.00, 97.3, 40.6)">o</text><text xml:space="preserve" font-family="HelveticaNeue-Medium,Helvetica Neue" font-size="22.0" fill="#EAEAEA" transform="matrix(1.00, 0.00, -0.00, -1.00, 110.3, 40.6)">c</text><text xml:space="preserve" font-family="HelveticaNeue-Medium,Helvetica Neue" font-size="22.0" fill="#EAEAEA" transform="matrix(1.00, 0.00, -0.00, -1.00, 122.5, 40.6)">y</text><text xml:space="preserve" font-family="HelveticaNeue-Medium,Helvetica Neue" font-size="22.0" fill="#EAEAEA" transform="matrix(1.00, 0.00, -0.00, -1.00, 134.0, 40.6)">t</text><text xml:space="preserve" font-family="HelveticaNeue-Medium,Helvetica Neue" font-size="22.0" fill="#EAEAEA" transform="matrix(1.00, 0.00, -0.00, -1.00, 141.3, 40.6)">o</text><text xml:space="preserve" font-family="HelveticaNeue-Medium,Helvetica Neue" font-size="22.0" fill="#EAEAEA" transform="matrix(1.00, 0.00, -0.00, -1.00, 154.3, 40.6)">p</text><text xml:space="preserve" font-family="HelveticaNeue-Medium,Helvetica Neue" font-size="22.0" fill="#EAEAEA" transform="matrix(1.00, 0.00, -0.00, -1.00, 167.8, 40.6)">e</text><text xml:space="preserve" font-family="HelveticaNeue-Medium,Helvetica Neue" font-size="22.0" fill="#EAEAEA" transform="matrix(1.00, 0.00, -0.00, -1.00, 180.0, 40.6)">n</text><text xml:space="preserve" font-family="HelveticaNeue-Medium,Helvetica Neue" font-size="22.0" fill="#EAEAEA" transform="matrix(1.00, 0.00, -0.00, -1.00, 192.6, 40.6)">i</text><text xml:space="preserve" font-family="HelveticaNeue-Medium,Helvetica Neue" font-size="22.0" fill="#EAEAEA" transform="matrix(1.00, 0.00, -0.00, -1.00, 197.9, 40.6)">a</text><text xml:space="preserve" font-family="HelveticaNeue-Medium,Helvetica Neue" font-size="22.0" fill="#EAEAEA" transform="matrix(1.00, 0.00, -0.00, -1.00, 210.2, 40.6)"> </text><text xml:space="preserve" font-family="HelveticaNeue-Medium,Helvetica Neue" font-size="22.0" fill="#EAEAEA" transform="matrix(1.00, 0.00, -0.00, -1.00, 216.3, 40.6)">i</text><text xml:space="preserve" font-family="HelveticaNeue-Medium,Helvetica Neue" font-size="22.0" fill="#EAEAEA" transform="matrix(1.00, 0.00, -0.00, -1.00, 221.6, 40.6)">m</text><text xml:space="preserve" font-family="HelveticaNeue-Medium,Helvetica Neue" font-size="22.0" fill="#EAEAEA" transform="matrix(1.00, 0.00, -0.00, -1.00, 240.7, 40.6)">m</text><text xml:space="preserve" font-family="HelveticaNeue-Medium,Helvetica Neue" font-size="22.0" fill="#EAEAEA" transform="matrix(1.00, 0.00, -0.00, -1.00, 259.9, 40.6)">u</text><text xml:space="preserve" font-family="HelveticaNeue-Medium,Helvetica Neue" font-size="22.0" fill="#EAEAEA" transform="matrix(1.00, 0.00, -0.00, -1.00, 272.5, 40.6)">n</text><text xml:space="preserve" font-family="HelveticaNeue-Medium,Helvetica Neue" font-size="22.0" fill="#EAEAEA" transform="matrix(1.00, 0.00, -0.00, -1.00, 285.1, 40.6)">o</text><text xml:space="preserve" font-family="HelveticaNeue-Medium,Helvetica Neue" font-size="22.0" fill="#EAEAEA" transform="matrix(1.00, 0.00, -0.00, -1.00, 298.2, 40.6)">d</text><text xml:space="preserve" font-family="HelveticaNeue-Medium,Helvetica Neue" font-size="22.0" fill="#EAEAEA" transform="matrix(1.00, 0.00, -0.00, -1.00, 311.6, 40.6)">e</text><text xml:space="preserve" font-family="HelveticaNeue-Medium,Helvetica Neue" font-size="22.0" fill="#EAEAEA" transform="matrix(1.00, 0.00, -0.00, -1.00, 323.8, 40.6)">ﬁ</text><text xml:space="preserve" font-family="HelveticaNeue-Medium,Helvetica Neue" font-size="22.0" fill="#EAEAEA" transform="matrix(1.00, 0.00, -0.00, -1.00, 336.1, 40.6)">c</text><text xml:space="preserve" font-family="HelveticaNeue-Medium,Helvetica Neue" font-size="22.0" fill="#EAEAEA" transform="matrix(1.00, 0.00, -0.00, -1.00, 348.3, 40.6)">i</text><text xml:space="preserve" font-family="HelveticaNeue-Medium,Helvetica Neue" font-size="22.0" fill="#EAEAEA" transform="matrix(1.00, 0.00, -0.00, -1.00, 353.6, 40.6)">e</text><text xml:space="preserve" font-family="HelveticaNeue-Medium,Helvetica Neue" font-size="22.0" fill="#EAEAEA" transform="matrix(1.00, 0.00, -0.00, -1.00, 365.8, 40.6)">n</text><text xml:space="preserve" font-family="HelveticaNeue-Medium,Helvetica Neue" font-size="22.0" fill="#EAEAEA" transform="matrix(1.00, 0.00, -0.00, -1.00, 378.5, 40.6)">c</text><text xml:space="preserve" font-family="HelveticaNeue-Medium,Helvetica Neue" font-size="22.0" fill="#EAEAEA" transform="matrix(1.00, 0.00, -0.00, -1.00, 390.7, 40.6)">y</text><text xml:space="preserve" font-family="HelveticaNeue-Medium,Helvetica Neue" font-size="22.0" fill="#EAEAEA" transform="matrix(1.00, 0.00, -0.00, -1.00, 402.1, 40.6)"> </text><text xml:space="preserve" font-family="HelveticaNeue-Medium,Helvetica Neue" font-size="22.0" fill="#EAEAEA" transform="matrix(1.00, 0.00, -0.00, -1.00, 408.2, 40.6)">s</text><text xml:space="preserve" font-family="HelveticaNeue-Medium,Helvetica Neue" font-size="22.0" fill="#EAEAEA" transform="matrix(1.00, 0.00, -0.00, -1.00, 419.7, 40.6)">y</text><text xml:space="preserve" font-family="HelveticaNeue-Medium,Helvetica Neue" font-size="22.0" fill="#EAEAEA" transform="matrix(1.00, 0.00, -0.00, -1.00, 431.1, 40.6)">n</text><text xml:space="preserve" font-family="HelveticaNeue-Medium,Helvetica Neue" font-size="22.0" fill="#EAEAEA" transform="matrix(1.00, 0.00, -0.00, -1.00, 443.7, 40.6)">d</text><text xml:space="preserve" font-family="HelveticaNeue-Medium,Helvetica Neue" font-size="22.0" fill="#EAEAEA" transform="matrix(1.00, 0.00, -0.00, -1.00, 457.1, 40.6)">r</text><text xml:space="preserve" font-family="HelveticaNeue-Medium,Helvetica Neue" font-size="22.0" fill="#EAEAEA" transform="matrix(1.00, 0.00, -0.00, -1.00, 464.5, 40.6)">o</text><text xml:space="preserve" font-family="HelveticaNeue-Medium,Helvetica Neue" font-size="22.0" fill="#EAEAEA" transform="matrix(1.00, 0.00, -0.00, -1.00, 477.5, 40.6)">m</text><text xml:space="preserve" font-family="HelveticaNeue-Medium,Helvetica Neue" font-size="22.0" fill="#EAEAEA" transform="matrix(1.00, 0.00, -0.00, -1.00, 496.7, 40.6)">e</text><text xml:space="preserve" font-family="HelveticaNeue-Medium,Helvetica Neue" font-size="22.0" fill="#EAEAEA" transform="matrix(1.00, 0.00, -0.00, -1.00, 508.9, 40.6)">:</text><text xml:space="preserve" font-family="HelveticaNeue-Medium,Helvetica Neue" font-size="22.0" fill="#EAEAEA" transform="matrix(1.00, 0.00, -0.00, -1.00, 515.0, 40.6)"> </text><text xml:space="preserve" font-family="HelveticaNeue-Medium,Helvetica Neue" font-size="22.0" fill="#EAEAEA" transform="matrix(1.00, 0.00, -0.00, -1.00, 521.1, 40.6)">d</text><text xml:space="preserve" font-family="HelveticaNeue-Medium,Helvetica Neue" font-size="22.0" fill="#EAEAEA" transform="matrix(1.00, 0.00, -0.00, -1.00, 534.6, 40.6)">i</text><text xml:space="preserve" font-family="HelveticaNeue-Medium,Helvetica Neue" font-size="22.0" fill="#EAEAEA" transform="matrix(1.00, 0.00, -0.00, -1.00, 539.9, 40.6)">a</text><text xml:space="preserve" font-family="HelveticaNeue-Medium,Helvetica Neue" font-size="22.0" fill="#EAEAEA" transform="matrix(1.00, 0.00, -0.00, -1.00, 552.1, 40.6)">g</text><text xml:space="preserve" font-family="HelveticaNeue-Medium,Helvetica Neue" font-size="22.0" fill="#EAEAEA" transform="matrix(1.00, 0.00, -0.00, -1.00, 565.2, 40.6)">n</text><text xml:space="preserve" font-family="HelveticaNeue-Medium,Helvetica Neue" font-size="22.0" fill="#EAEAEA" transform="matrix(1.00, 0.00, -0.00, -1.00, 577.8, 40.6)">o</text><text xml:space="preserve" font-family="HelveticaNeue-Medium,Helvetica Neue" font-size="22.0" fill="#EAEAEA" transform="matrix(1.00, 0.00, -0.00, -1.00, 590.8, 40.6)">s</text><text xml:space="preserve" font-family="HelveticaNeue-Medium,Helvetica Neue" font-size="22.0" fill="#EAEAEA" transform="matrix(1.00, 0.00, -0.00, -1.00, 602.3, 40.6)">t</text><text xml:space="preserve" font-family="HelveticaNeue-Medium,Helvetica Neue" font-size="22.0" fill="#EAEAEA" transform="matrix(1.00, 0.00, -0.00, -1.00, 609.6, 40.6)">i</text><text xml:space="preserve" font-family="HelveticaNeue-Medium,Helvetica Neue" font-size="22.0" fill="#EAEAEA" transform="matrix(1.00, 0.00, -0.00, -1.00, 614.9, 40.6)">c</text><text xml:space="preserve" font-family="HelveticaNeue-Medium,Helvetica Neue" font-size="22.0" fill="#EAEAEA" transform="matrix(1.00, 0.00, -0.00, -1.00, 627.1, 40.6)"> </text><text xml:space="preserve" font-family="HelveticaNeue-Medium,Helvetica Neue" font-size="22.0" fill="#EAEAEA" transform="matrix(1.00, 0.00, -0.00, -1.00, 633.2, 40.6)">f</text><text xml:space="preserve" font-family="HelveticaNeue-Medium,Helvetica Neue" font-size="22.0" fill="#EAEAEA" transform="matrix(1.00, 0.00, -0.00, -1.00, 640.2, 40.6)">e</text><text xml:space="preserve" font-family="HelveticaNeue-Medium,Helvetica Neue" font-size="22.0" fill="#EAEAEA" transform="matrix(1.00, 0.00, -0.00, -1.00, 652.4, 40.6)">a</text><text xml:space="preserve" font-family="HelveticaNeue-Medium,Helvetica Neue" font-size="22.0" fill="#EAEAEA" transform="matrix(1.00, 0.00, -0.00, -1.00, 664.6, 40.6)">t</text><text xml:space="preserve" font-family="HelveticaNeue-Medium,Helvetica Neue" font-size="22.0" fill="#EAEAEA" transform="matrix(1.00, 0.00, -0.00, -1.00, 672.0, 40.6)">u</text><text xml:space="preserve" font-family="HelveticaNeue-Medium,Helvetica Neue" font-size="22.0" fill="#EAEAEA" transform="matrix(1.00, 0.00, -0.00, -1.00, 684.6, 40.6)">r</text><text xml:space="preserve" font-family="HelveticaNeue-Medium,Helvetica Neue" font-size="22.0" fill="#EAEAEA" transform="matrix(1.00, 0.00, -0.00, -1.00, 691.9, 40.6)">e</text><text xml:space="preserve" font-family="HelveticaNeue-Medium,Helvetica Neue" font-size="22.0" fill="#EAEAEA" transform="matrix(1.00, 0.00, -0.00, -1.00, 704.2, 40.6)">s</text><text xml:space="preserve" font-family="HelveticaNeue-Medium,Helvetica Neue" font-size="22.0" fill="#EAEAEA" transform="matrix(1.00, 0.00, -0.00, -1.00, 715.6, 40.6)"> </text><text xml:space="preserve" font-family="HelveticaNeue-Medium,Helvetica Neue" font-size="22.0" fill="#EAEAEA" transform="matrix(1.00, 0.00, -0.00, -1.00, 721.7, 40.6)">a</text><text xml:space="preserve" font-family="HelveticaNeue-Medium,Helvetica Neue" font-size="22.0" fill="#EAEAEA" transform="matrix(1.00, 0.00, -0.00, -1.00, 733.9, 40.6)">n</text><text xml:space="preserve" font-family="HelveticaNeue-Medium,Helvetica Neue" font-size="22.0" fill="#EAEAEA" transform="matrix(1.00, 0.00, -0.00, -1.00, 746.6, 40.6)">d</text><text xml:space="preserve" font-family="HelveticaNeue-Medium,Helvetica Neue" font-size="22.0" fill="#EAEAEA" transform="matrix(1.00, 0.00, -0.00, -1.00, 760.0, 40.6)"> </text><text xml:space="preserve" font-family="HelveticaNeue-Medium,Helvetica Neue" font-size="22.0" fill="#EAEAEA" transform="matrix(1.00, 0.00, -0.00, -1.00, 766.1, 40.6)">c</text><text xml:space="preserve" font-family="HelveticaNeue-Medium,Helvetica Neue" font-size="22.0" fill="#EAEAEA" transform="matrix(1.00, 0.00, -0.00, -1.00, 778.3, 40.6)">l</text><text xml:space="preserve" font-family="HelveticaNeue-Medium,Helvetica Neue" font-size="22.0" fill="#EAEAEA" transform="matrix(1.00, 0.00, -0.00, -1.00, 783.6, 40.6)">i</text><text xml:space="preserve" font-family="HelveticaNeue-Medium,Helvetica Neue" font-size="22.0" fill="#EAEAEA" transform="matrix(1.00, 0.00, -0.00, -1.00, 788.9, 40.6)">n</text><text xml:space="preserve" font-family="HelveticaNeue-Medium,Helvetica Neue" font-size="22.0" fill="#EAEAEA" transform="matrix(1.00, 0.00, -0.00, -1.00, 801.6, 40.6)">i</text><text xml:space="preserve" font-family="HelveticaNeue-Medium,Helvetica Neue" font-size="22.0" fill="#EAEAEA" transform="matrix(1.00, 0.00, -0.00, -1.00, 806.9, 40.6)">c</text><text xml:space="preserve" font-family="HelveticaNeue-Medium,Helvetica Neue" font-size="22.0" fill="#EAEAEA" transform="matrix(1.00, 0.00, -0.00, -1.00, 819.1, 40.6)">a</text><text xml:space="preserve" font-family="HelveticaNeue-Medium,Helvetica Neue" font-size="22.0" fill="#EAEAEA" transform="matrix(1.00, 0.00, -0.00, -1.00, 831.3, 40.6)">l</text><text xml:space="preserve" font-family="HelveticaNeue-Medium,Helvetica Neue" font-size="22.0" fill="#EAEAEA" transform="matrix(1.00, 0.00, -0.00, -1.00, 836.6, 40.6)"> </text><text xml:space="preserve" font-family="HelveticaNeue-Medium,Helvetica Neue" font-size="22.0" fill="#EAEAEA" transform="matrix(1.00, 0.00, -0.00, -1.00, 842.8, 40.6)">i</text><text xml:space="preserve" font-family="HelveticaNeue-Medium,Helvetica Neue" font-size="22.0" fill="#EAEAEA" transform="matrix(1.00, 0.00, -0.00, -1.00, 848.1, 40.6)">m</text><text xml:space="preserve" font-family="HelveticaNeue-Medium,Helvetica Neue" font-size="22.0" fill="#EAEAEA" transform="matrix(1.00, 0.00, -0.00, -1.00, 867.2, 40.6)">p</text><text xml:space="preserve" font-family="HelveticaNeue-Medium,Helvetica Neue" font-size="22.0" fill="#EAEAEA" transform="matrix(1.00, 0.00, -0.00, -1.00, 880.6, 40.6)">l</text><text xml:space="preserve" font-family="HelveticaNeue-Medium,Helvetica Neue" font-size="22.0" fill="#EAEAEA" transform="matrix(1.00, 0.00, -0.00, -1.00, 885.9, 40.6)">i</text><text xml:space="preserve" font-family="HelveticaNeue-Medium,Helvetica Neue" font-size="22.0" fill="#EAEAEA" transform="matrix(1.00, 0.00, -0.00, -1.00, 891.2, 40.6)">c</text><text xml:space="preserve" font-family="HelveticaNeue-Medium,Helvetica Neue" font-size="22.0" fill="#EAEAEA" transform="matrix(1.00, 0.00, -0.00, -1.00, 903.5, 40.6)">a</text><text xml:space="preserve" font-family="HelveticaNeue-Medium,Helvetica Neue" font-size="22.0" fill="#EAEAEA" transform="matrix(1.00, 0.00, -0.00, -1.00, 915.7, 40.6)">t</text><text xml:space="preserve" font-family="HelveticaNeue-Medium,Helvetica Neue" font-size="22.0" fill="#EAEAEA" transform="matrix(1.00, 0.00, -0.00, -1.00, 923.0, 40.6)">i</text><text xml:space="preserve" font-family="HelveticaNeue-Medium,Helvetica Neue" font-size="22.0" fill="#EAEAEA" transform="matrix(1.00, 0.00, -0.00, -1.00, 928.3, 40.6)">o</text><text xml:space="preserve" font-family="HelveticaNeue-Medium,Helvetica Neue" font-size="22.0" fill="#EAEAEA" transform="matrix(1.00, 0.00, -0.00, -1.00, 941.4, 40.6)">n</text><text xml:space="preserve" font-family="HelveticaNeue-Medium,Helvetica Neue" font-size="22.0" fill="#EAEAEA" transform="matrix(1.00, 0.00, -0.00, -1.00, 954.0, 40.6)">s</text><text xml:space="preserve" font-family="HelveticaNeue-Medium,Helvetica Neue" font-size="22.0" fill="#EAEAEA" transform="matrix(1.00, 0.00, -0.00, -1.00, 965.4, 40.6)">.</text><text xml:space="preserve" font-family="HelveticaNeue-Medium,Helvetica Neue" font-size="22.0" fill="#EAEAEA" transform="matrix(1.00, 0.00, -0.00, -1.00, 971.5, 40.6)"> </text><image xlink:href="2708B72336633078DBBD4AD31224D2E1.png" width="406.00" height="29.00" transform="matrix(1.00, 0.00, -0.00, -1.00, 309.0, 32.0)"></image><text xml:space="preserve" font-family="HelveticaNeue-Medium,Helvetica Neue" font-size="22.0" fill="#EAEAEA" transform="matrix(1.00, 0.00, -0.00, -1.00, 311.8, 13.6)">H</text><text xml:space="preserve" font-family="HelveticaNeue-Medium,Helvetica Neue" font-size="22.0" fill="#EAEAEA" transform="matrix(1.00, 0.00, -0.00, -1.00, 327.7, 13.6)">a</text><text xml:space="preserve" font-family="HelveticaNeue-Medium,Helvetica Neue" font-size="22.0" fill="#EAEAEA" transform="matrix(1.00, 0.00, -0.00, -1.00, 340.0, 13.6)">e</text><text xml:space="preserve" font-family="HelveticaNeue-Medium,Helvetica Neue" font-size="22.0" fill="#EAEAEA" transform="matrix(1.00, 0.00, -0.00, -1.00, 352.2, 13.6)">m</text><text xml:space="preserve" font-family="HelveticaNeue-Medium,Helvetica Neue" font-size="22.0" fill="#EAEAEA" transform="matrix(1.00, 0.00, -0.00, -1.00, 371.3, 13.6)">a</text><text xml:space="preserve" font-family="HelveticaNeue-Medium,Helvetica Neue" font-size="22.0" fill="#EAEAEA" transform="matrix(1.00, 0.00, -0.00, -1.00, 383.6, 13.6)">t</text><text xml:space="preserve" font-family="HelveticaNeue-Medium,Helvetica Neue" font-size="22.0" fill="#EAEAEA" transform="matrix(1.00, 0.00, -0.00, -1.00, 390.9, 13.6)">o</text><text xml:space="preserve" font-family="HelveticaNeue-Medium,Helvetica Neue" font-size="22.0" fill="#EAEAEA" transform="matrix(1.00, 0.00, -0.00, -1.00, 403.9, 13.6)">l</text><text xml:space="preserve" font-family="HelveticaNeue-Medium,Helvetica Neue" font-size="22.0" fill="#EAEAEA" transform="matrix(1.00, 0.00, -0.00, -1.00, 409.2, 13.6)">o</text><text xml:space="preserve" font-family="HelveticaNeue-Medium,Helvetica Neue" font-size="22.0" fill="#EAEAEA" transform="matrix(1.00, 0.00, -0.00, -1.00, 422.3, 13.6)">g</text><text xml:space="preserve" font-family="HelveticaNeue-Medium,Helvetica Neue" font-size="22.0" fill="#EAEAEA" transform="matrix(1.00, 0.00, -0.00, -1.00, 435.3, 13.6)">i</text><text xml:space="preserve" font-family="HelveticaNeue-Medium,Helvetica Neue" font-size="22.0" fill="#EAEAEA" transform="matrix(1.00, 0.00, -0.00, -1.00, 440.6, 13.6)">c</text><text xml:space="preserve" font-family="HelveticaNeue-Medium,Helvetica Neue" font-size="22.0" fill="#EAEAEA" transform="matrix(1.00, 0.00, -0.00, -1.00, 452.9, 13.6)">a</text><text xml:space="preserve" font-family="HelveticaNeue-Medium,Helvetica Neue" font-size="22.0" fill="#EAEAEA" transform="matrix(1.00, 0.00, -0.00, -1.00, 465.1, 13.6)">.</text><text xml:space="preserve" font-family="HelveticaNeue-Medium,Helvetica Neue" font-size="22.0" fill="#EAEAEA" transform="matrix(1.00, 0.00, -0.00, -1.00, 471.2, 13.6)"> </text><text xml:space="preserve" font-family="HelveticaNeue-Medium,Helvetica Neue" font-size="22.0" fill="#EAEAEA" transform="matrix(1.00, 0.00, -0.00, -1.00, 477.3, 13.6)">2</text><text xml:space="preserve" font-family="HelveticaNeue-Medium,Helvetica Neue" font-size="22.0" fill="#EAEAEA" transform="matrix(1.00, 0.00, -0.00, -1.00, 489.6, 13.6)">0</text><text xml:space="preserve" font-family="HelveticaNeue-Medium,Helvetica Neue" font-size="22.0" fill="#EAEAEA" transform="matrix(1.00, 0.00, -0.00, -1.00, 501.8, 13.6)">1</text><text xml:space="preserve" font-family="HelveticaNeue-Medium,Helvetica Neue" font-size="22.0" fill="#EAEAEA" transform="matrix(1.00, 0.00, -0.00, -1.00, 514.0, 13.6)">1</text><text xml:space="preserve" font-family="HelveticaNeue-Medium,Helvetica Neue" font-size="22.0" fill="#EAEAEA" transform="matrix(1.00, 0.00, -0.00, -1.00, 526.3, 13.6)"> </text><text xml:space="preserve" font-family="HelveticaNeue-Medium,Helvetica Neue" font-size="22.0" fill="#EAEAEA" transform="matrix(1.00, 0.00, -0.00, -1.00, 532.4, 13.6)">A</text><text xml:space="preserve" font-family="HelveticaNeue-Medium,Helvetica Neue" font-size="22.0" fill="#EAEAEA" transform="matrix(1.00, 0.00, -0.00, -1.00, 547.0, 13.6)">u</text><text xml:space="preserve" font-family="HelveticaNeue-Medium,Helvetica Neue" font-size="22.0" fill="#EAEAEA" transform="matrix(1.00, 0.00, -0.00, -1.00, 559.7, 13.6)">g</text><text xml:space="preserve" font-family="HelveticaNeue-Medium,Helvetica Neue" font-size="22.0" fill="#EAEAEA" transform="matrix(1.00, 0.00, -0.00, -1.00, 572.7, 13.6)">;</text><text xml:space="preserve" font-family="HelveticaNeue-Medium,Helvetica Neue" font-size="22.0" fill="#EAEAEA" transform="matrix(1.00, 0.00, -0.00, -1.00, 578.8, 13.6)">9</text><text xml:space="preserve" font-family="HelveticaNeue-Medium,Helvetica Neue" font-size="22.0" fill="#EAEAEA" transform="matrix(1.00, 0.00, -0.00, -1.00, 591.1, 13.6)">6</text><text xml:space="preserve" font-family="HelveticaNeue-Medium,Helvetica Neue" font-size="22.0" fill="#EAEAEA" transform="matrix(1.00, 0.00, -0.00, -1.00, 603.3, 13.6)">(</text><text xml:space="preserve" font-family="HelveticaNeue-Medium,Helvetica Neue" font-size="22.0" fill="#EAEAEA" transform="matrix(1.00, 0.00, -0.00, -1.00, 609.4, 13.6)">8</text><text xml:space="preserve" font-family="HelveticaNeue-Medium,Helvetica Neue" font-size="22.0" fill="#EAEAEA" transform="matrix(1.00, 0.00, -0.00, -1.00, 621.6, 13.6)">)</text><text xml:space="preserve" font-family="HelveticaNeue-Medium,Helvetica Neue" font-size="22.0" fill="#EAEAEA" transform="matrix(1.00, 0.00, -0.00, -1.00, 627.8, 13.6)">:</text><text xml:space="preserve" font-family="HelveticaNeue-Medium,Helvetica Neue" font-size="22.0" fill="#EAEAEA" transform="matrix(1.00, 0.00, -0.00, -1.00, 633.9, 13.6)">1</text><text xml:space="preserve" font-family="HelveticaNeue-Medium,Helvetica Neue" font-size="22.0" fill="#EAEAEA" transform="matrix(1.00, 0.00, -0.00, -1.00, 646.1, 13.6)">2</text><text xml:space="preserve" font-family="HelveticaNeue-Medium,Helvetica Neue" font-size="22.0" fill="#EAEAEA" transform="matrix(1.00, 0.00, -0.00, -1.00, 658.3, 13.6)">2</text><text xml:space="preserve" font-family="HelveticaNeue-Medium,Helvetica Neue" font-size="22.0" fill="#EAEAEA" transform="matrix(1.00, 0.00, -0.00, -1.00, 670.6, 13.6)">1</text><text xml:space="preserve" font-family="HelveticaNeue-Medium,Helvetica Neue" font-size="22.0" fill="#EAEAEA" transform="matrix(1.00, 0.00, -0.00, -1.00, 682.8, 13.6)">–</text><text xml:space="preserve" font-family="HelveticaNeue-Medium,Helvetica Neue" font-size="22.0" fill="#EAEAEA" transform="matrix(1.00, 0.00, -0.00, -1.00, 693.8, 13.6)">5</text><text xml:space="preserve" font-family="HelveticaNeue-Medium,Helvetica Neue" font-size="22.0" fill="#EAEAEA" transform="matrix(1.00, 0.00, -0.00, -1.00, 706.0, 13.6)">.</text><image xlink:href="CE1D963D8ED3A769004537951C50D594.png" width="2438.00" height="1154.00" transform="matrix(0.39, 0.00, -0.00, -0.39, 37.0, 665.0)"></image><image xlink:href="DEE8BA39C44CF93F22960AB47D989ACC.png" width="994.00" height="500.00" transform="matrix(1.00, 0.00, -0.00, 1.00, 15.0, 191.0)"></image></g></svg>