<?xml version="1.0" encoding="UTF-8" standalone="no"?><svg xmlns="http://www.w3.org/2000/svg" xmlns:xlink="http://www.w3.org/1999/xlink" clip-rule="evenodd" stroke-miterlimit="4.00" viewBox="0 0 967 52"><desc>SVG generated by Keynote</desc><defs></defs><g transform="matrix(1.00, 0.00, -0.00, -1.00, 0.0, 52.0)"><text xml:space="preserve" font-family="HelveticaNeue-Light" font-size="22.0" fill="#000000" transform="matrix(1.00, 0.00, -0.00, -1.00, 0.5, 33.8)">M</text><text xml:space="preserve" font-family="HelveticaNeue-Light" font-size="22.0" fill="#000000" transform="matrix(1.00, 0.00, -0.00, -1.00, 18.6, 33.8)">a</text><text xml:space="preserve" font-family="HelveticaNeue-Light" font-size="22.0" fill="#000000" transform="matrix(1.00, 0.00, -0.00, -1.00, 30.0, 33.8)">y</text><text xml:space="preserve" font-family="HelveticaNeue-Light" font-size="22.0" fill="#000000" transform="matrix(1.00, 0.00, -0.00, -1.00, 40.2, 33.8)">u</text><text xml:space="preserve" font-family="HelveticaNeue-Light" font-size="22.0" fill="#000000" transform="matrix(1.00, 0.00, -0.00, -1.00, 52.0, 33.8)">m</text><text xml:space="preserve" font-family="HelveticaNeue-Light" font-size="22.0" fill="#000000" transform="matrix(1.00, 0.00, -0.00, -1.00, 70.3, 33.8)">i</text><text xml:space="preserve" font-family="HelveticaNeue-Light" font-size="22.0" fill="#000000" transform="matrix(1.00, 0.00, -0.00, -1.00, 74.4, 33.8)"> </text><text xml:space="preserve" font-family="HelveticaNeue-Light" font-size="22.0" fill="#000000" transform="matrix(1.00, 0.00, -0.00, -1.00, 80.5, 33.8)">H</text><text xml:space="preserve" font-family="HelveticaNeue-Light" font-size="22.0" fill="#000000" transform="matrix(1.00, 0.00, -0.00, -1.00, 96.0, 33.8)">,</text><text xml:space="preserve" font-family="HelveticaNeue-Light" font-size="22.0" fill="#000000" transform="matrix(1.00, 0.00, -0.00, -1.00, 102.1, 33.8)"> </text><text xml:space="preserve" font-family="HelveticaNeue-Light" font-size="22.0" fill="#000000" transform="matrix(1.00, 0.00, -0.00, -1.00, 108.2, 33.8)">U</text><text xml:space="preserve" font-family="HelveticaNeue-Light" font-size="22.0" fill="#000000" transform="matrix(1.00, 0.00, -0.00, -1.00, 123.3, 33.8)">m</text><text xml:space="preserve" font-family="HelveticaNeue-Light" font-size="22.0" fill="#000000" transform="matrix(1.00, 0.00, -0.00, -1.00, 141.6, 33.8)">e</text><text xml:space="preserve" font-family="HelveticaNeue-Light" font-size="22.0" fill="#000000" transform="matrix(1.00, 0.00, -0.00, -1.00, 153.1, 33.8)">s</text><text xml:space="preserve" font-family="HelveticaNeue-Light" font-size="22.0" fill="#000000" transform="matrix(1.00, 0.00, -0.00, -1.00, 163.6, 33.8)">u</text><text xml:space="preserve" font-family="HelveticaNeue-Light" font-size="22.0" fill="#000000" transform="matrix(1.00, 0.00, -0.00, -1.00, 175.5, 33.8)">e</text><text xml:space="preserve" font-family="HelveticaNeue-Light" font-size="22.0" fill="#000000" transform="matrix(1.00, 0.00, -0.00, -1.00, 186.9, 33.8)"> </text><text xml:space="preserve" font-family="HelveticaNeue-Light" font-size="22.0" fill="#000000" transform="matrix(1.00, 0.00, -0.00, -1.00, 193.0, 33.8)">M</text><text xml:space="preserve" font-family="HelveticaNeue-Light" font-size="22.0" fill="#000000" transform="matrix(1.00, 0.00, -0.00, -1.00, 211.1, 33.8)">,</text><text xml:space="preserve" font-family="HelveticaNeue-Light" font-size="22.0" fill="#000000" transform="matrix(1.00, 0.00, -0.00, -1.00, 217.2, 33.8)"> </text><text xml:space="preserve" font-family="HelveticaNeue-Light" font-size="22.0" fill="#000000" transform="matrix(1.00, 0.00, -0.00, -1.00, 223.3, 33.8)">N</text><text xml:space="preserve" font-family="HelveticaNeue-Light" font-size="22.0" fill="#000000" transform="matrix(1.00, 0.00, -0.00, -1.00, 238.8, 33.8)">o</text><text xml:space="preserve" font-family="HelveticaNeue-Light" font-size="22.0" fill="#000000" transform="matrix(1.00, 0.00, -0.00, -1.00, 251.0, 33.8)">m</text><text xml:space="preserve" font-family="HelveticaNeue-Light" font-size="22.0" fill="#000000" transform="matrix(1.00, 0.00, -0.00, -1.00, 269.3, 33.8)">o</text><text xml:space="preserve" font-family="HelveticaNeue-Light" font-size="22.0" fill="#000000" transform="matrix(1.00, 0.00, -0.00, -1.00, 281.6, 33.8)">t</text><text xml:space="preserve" font-family="HelveticaNeue-Light" font-size="22.0" fill="#000000" transform="matrix(1.00, 0.00, -0.00, -1.00, 288.1, 33.8)">o</text><text xml:space="preserve" font-family="HelveticaNeue-Light" font-size="22.0" fill="#000000" transform="matrix(1.00, 0.00, -0.00, -1.00, 300.3, 33.8)"> </text><text xml:space="preserve" font-family="HelveticaNeue-Light" font-size="22.0" fill="#000000" transform="matrix(1.00, 0.00, -0.00, -1.00, 306.4, 33.8)">K</text><text xml:space="preserve" font-family="HelveticaNeue-Light" font-size="22.0" fill="#000000" transform="matrix(1.00, 0.00, -0.00, -1.00, 320.7, 33.8)">.</text><text xml:space="preserve" font-family="HelveticaNeue-Light" font-size="22.0" fill="#000000" transform="matrix(1.00, 0.00, -0.00, -1.00, 326.8, 33.8)"> </text><text xml:space="preserve" font-family="HelveticaNeue-Light" font-size="22.0" fill="#000000" transform="matrix(1.00, 0.00, -0.00, -1.00, 332.9, 33.8)">C</text><text xml:space="preserve" font-family="HelveticaNeue-Light" font-size="22.0" fill="#000000" transform="matrix(1.00, 0.00, -0.00, -1.00, 348.4, 33.8)">y</text><text xml:space="preserve" font-family="HelveticaNeue-Light" font-size="22.0" fill="#000000" transform="matrix(1.00, 0.00, -0.00, -1.00, 358.6, 33.8)">c</text><text xml:space="preserve" font-family="HelveticaNeue-Light" font-size="22.0" fill="#000000" transform="matrix(1.00, 0.00, -0.00, -1.00, 370.0, 33.8)">l</text><text xml:space="preserve" font-family="HelveticaNeue-Light" font-size="22.0" fill="#000000" transform="matrix(1.00, 0.00, -0.00, -1.00, 374.1, 33.8)">o</text><text xml:space="preserve" font-family="HelveticaNeue-Light" font-size="22.0" fill="#000000" transform="matrix(1.00, 0.00, -0.00, -1.00, 386.3, 33.8)">p</text><text xml:space="preserve" font-family="HelveticaNeue-Light" font-size="22.0" fill="#000000" transform="matrix(1.00, 0.00, -0.00, -1.00, 398.9, 33.8)">h</text><text xml:space="preserve" font-family="HelveticaNeue-Light" font-size="22.0" fill="#000000" transform="matrix(1.00, 0.00, -0.00, -1.00, 410.7, 33.8)">o</text><text xml:space="preserve" font-family="HelveticaNeue-Light" font-size="22.0" fill="#000000" transform="matrix(1.00, 0.00, -0.00, -1.00, 423.0, 33.8)">s</text><text xml:space="preserve" font-family="HelveticaNeue-Light" font-size="22.0" fill="#000000" transform="matrix(1.00, 0.00, -0.00, -1.00, 433.6, 33.8)">p</text><text xml:space="preserve" font-family="HelveticaNeue-Light" font-size="22.0" fill="#000000" transform="matrix(1.00, 0.00, -0.00, -1.00, 446.2, 33.8)">h</text><text xml:space="preserve" font-family="HelveticaNeue-Light" font-size="22.0" fill="#000000" transform="matrix(1.00, 0.00, -0.00, -1.00, 458.0, 33.8)">a</text><text xml:space="preserve" font-family="HelveticaNeue-Light" font-size="22.0" fill="#000000" transform="matrix(1.00, 0.00, -0.00, -1.00, 469.4, 33.8)">m</text><text xml:space="preserve" font-family="HelveticaNeue-Light" font-size="22.0" fill="#000000" transform="matrix(1.00, 0.00, -0.00, -1.00, 487.7, 33.8)">i</text><text xml:space="preserve" font-family="HelveticaNeue-Light" font-size="22.0" fill="#000000" transform="matrix(1.00, 0.00, -0.00, -1.00, 491.8, 33.8)">d</text><text xml:space="preserve" font-family="HelveticaNeue-Light" font-size="22.0" fill="#000000" transform="matrix(1.00, 0.00, -0.00, -1.00, 504.4, 33.8)">e</text><text xml:space="preserve" font-family="HelveticaNeue-Light" font-size="22.0" fill="#000000" transform="matrix(1.00, 0.00, -0.00, -1.00, 515.9, 33.8)">-</text><text xml:space="preserve" font-family="HelveticaNeue-Light" font-size="22.0" fill="#000000" transform="matrix(1.00, 0.00, -0.00, -1.00, 524.0, 33.8)">i</text><text xml:space="preserve" font-family="HelveticaNeue-Light" font-size="22.0" fill="#000000" transform="matrix(1.00, 0.00, -0.00, -1.00, 528.1, 33.8)">n</text><text xml:space="preserve" font-family="HelveticaNeue-Light" font-size="22.0" fill="#000000" transform="matrix(1.00, 0.00, -0.00, -1.00, 539.9, 33.8)">d</text><text xml:space="preserve" font-family="HelveticaNeue-Light" font-size="22.0" fill="#000000" transform="matrix(1.00, 0.00, -0.00, -1.00, 552.5, 33.8)">u</text><text xml:space="preserve" font-family="HelveticaNeue-Light" font-size="22.0" fill="#000000" transform="matrix(1.00, 0.00, -0.00, -1.00, 564.3, 33.8)">c</text><text xml:space="preserve" font-family="HelveticaNeue-Light" font-size="22.0" fill="#000000" transform="matrix(1.00, 0.00, -0.00, -1.00, 575.7, 33.8)">e</text><text xml:space="preserve" font-family="HelveticaNeue-Light" font-size="22.0" fill="#000000" transform="matrix(1.00, 0.00, -0.00, -1.00, 587.2, 33.8)">d</text><text xml:space="preserve" font-family="HelveticaNeue-Light" font-size="22.0" fill="#000000" transform="matrix(1.00, 0.00, -0.00, -1.00, 599.8, 33.8)"> </text><text xml:space="preserve" font-family="HelveticaNeue-Light" font-size="22.0" fill="#000000" transform="matrix(1.00, 0.00, -0.00, -1.00, 605.9, 33.8)">i</text><text xml:space="preserve" font-family="HelveticaNeue-Light" font-size="22.0" fill="#000000" transform="matrix(1.00, 0.00, -0.00, -1.00, 610.0, 33.8)">m</text><text xml:space="preserve" font-family="HelveticaNeue-Light" font-size="22.0" fill="#000000" transform="matrix(1.00, 0.00, -0.00, -1.00, 628.3, 33.8)">m</text><text xml:space="preserve" font-family="HelveticaNeue-Light" font-size="22.0" fill="#000000" transform="matrix(1.00, 0.00, -0.00, -1.00, 646.6, 33.8)">u</text><text xml:space="preserve" font-family="HelveticaNeue-Light" font-size="22.0" fill="#000000" transform="matrix(1.00, 0.00, -0.00, -1.00, 658.4, 33.8)">n</text><text xml:space="preserve" font-family="HelveticaNeue-Light" font-size="22.0" fill="#000000" transform="matrix(1.00, 0.00, -0.00, -1.00, 670.3, 33.8)">o</text><text xml:space="preserve" font-family="HelveticaNeue-Light" font-size="22.0" fill="#000000" transform="matrix(1.00, 0.00, -0.00, -1.00, 682.5, 33.8)">l</text><text xml:space="preserve" font-family="HelveticaNeue-Light" font-size="22.0" fill="#000000" transform="matrix(1.00, 0.00, -0.00, -1.00, 686.6, 33.8)">o</text><text xml:space="preserve" font-family="HelveticaNeue-Light" font-size="22.0" fill="#000000" transform="matrix(1.00, 0.00, -0.00, -1.00, 698.8, 33.8)">g</text><text xml:space="preserve" font-family="HelveticaNeue-Light" font-size="22.0" fill="#000000" transform="matrix(1.00, 0.00, -0.00, -1.00, 711.0, 33.8)">i</text><text xml:space="preserve" font-family="HelveticaNeue-Light" font-size="22.0" fill="#000000" transform="matrix(1.00, 0.00, -0.00, -1.00, 715.1, 33.8)">c</text><text xml:space="preserve" font-family="HelveticaNeue-Light" font-size="22.0" fill="#000000" transform="matrix(1.00, 0.00, -0.00, -1.00, 726.5, 33.8)">a</text><text xml:space="preserve" font-family="HelveticaNeue-Light" font-size="22.0" fill="#000000" transform="matrix(1.00, 0.00, -0.00, -1.00, 737.9, 33.8)">l</text><text xml:space="preserve" font-family="HelveticaNeue-Light" font-size="22.0" fill="#000000" transform="matrix(1.00, 0.00, -0.00, -1.00, 742.0, 33.8)"> </text><text xml:space="preserve" font-family="HelveticaNeue-Light" font-size="22.0" fill="#000000" transform="matrix(1.00, 0.00, -0.00, -1.00, 748.1, 33.8)">t</text><text xml:space="preserve" font-family="HelveticaNeue-Light" font-size="22.0" fill="#000000" transform="matrix(1.00, 0.00, -0.00, -1.00, 754.6, 33.8)">o</text><text xml:space="preserve" font-family="HelveticaNeue-Light" font-size="22.0" fill="#000000" transform="matrix(1.00, 0.00, -0.00, -1.00, 766.9, 33.8)">l</text><text xml:space="preserve" font-family="HelveticaNeue-Light" font-size="22.0" fill="#000000" transform="matrix(1.00, 0.00, -0.00, -1.00, 770.9, 33.8)">e</text><text xml:space="preserve" font-family="HelveticaNeue-Light" font-size="22.0" fill="#000000" transform="matrix(1.00, 0.00, -0.00, -1.00, 782.4, 33.8)">r</text><text xml:space="preserve" font-family="HelveticaNeue-Light" font-size="22.0" fill="#000000" transform="matrix(1.00, 0.00, -0.00, -1.00, 789.3, 33.8)">a</text><text xml:space="preserve" font-family="HelveticaNeue-Light" font-size="22.0" fill="#000000" transform="matrix(1.00, 0.00, -0.00, -1.00, 800.7, 33.8)">n</text><text xml:space="preserve" font-family="HelveticaNeue-Light" font-size="22.0" fill="#000000" transform="matrix(1.00, 0.00, -0.00, -1.00, 812.5, 33.8)">c</text><text xml:space="preserve" font-family="HelveticaNeue-Light" font-size="22.0" fill="#000000" transform="matrix(1.00, 0.00, -0.00, -1.00, 823.9, 33.8)">e</text><text xml:space="preserve" font-family="HelveticaNeue-Light" font-size="22.0" fill="#000000" transform="matrix(1.00, 0.00, -0.00, -1.00, 835.3, 33.8)">:</text><text xml:space="preserve" font-family="HelveticaNeue-Light" font-size="22.0" fill="#000000" transform="matrix(1.00, 0.00, -0.00, -1.00, 841.5, 33.8)"> </text><text xml:space="preserve" font-family="HelveticaNeue-Light" font-size="22.0" fill="#000000" transform="matrix(1.00, 0.00, -0.00, -1.00, 847.6, 33.8)">a</text><text xml:space="preserve" font-family="HelveticaNeue-Light" font-size="22.0" fill="#000000" transform="matrix(1.00, 0.00, -0.00, -1.00, 859.0, 33.8)">n</text><text xml:space="preserve" font-family="HelveticaNeue-Light" font-size="22.0" fill="#000000" transform="matrix(1.00, 0.00, -0.00, -1.00, 870.8, 33.8)"> </text><text xml:space="preserve" font-family="HelveticaNeue-Light" font-size="22.0" fill="#000000" transform="matrix(1.00, 0.00, -0.00, -1.00, 876.9, 33.8)">o</text><text xml:space="preserve" font-family="HelveticaNeue-Light" font-size="22.0" fill="#000000" transform="matrix(1.00, 0.00, -0.00, -1.00, 889.2, 33.8)">v</text><text xml:space="preserve" font-family="HelveticaNeue-Light" font-size="22.0" fill="#000000" transform="matrix(1.00, 0.00, -0.00, -1.00, 899.3, 33.8)">e</text><text xml:space="preserve" font-family="HelveticaNeue-Light" font-size="22.0" fill="#000000" transform="matrix(1.00, 0.00, -0.00, -1.00, 910.8, 33.8)">r</text><text xml:space="preserve" font-family="HelveticaNeue-Light" font-size="22.0" fill="#000000" transform="matrix(1.00, 0.00, -0.00, -1.00, 917.7, 33.8)">v</text><text xml:space="preserve" font-family="HelveticaNeue-Light" font-size="22.0" fill="#000000" transform="matrix(1.00, 0.00, -0.00, -1.00, 927.9, 33.8)">i</text><text xml:space="preserve" font-family="HelveticaNeue-Light" font-size="22.0" fill="#000000" transform="matrix(1.00, 0.00, -0.00, -1.00, 932.0, 33.8)">e</text><text xml:space="preserve" font-family="HelveticaNeue-Light" font-size="22.0" fill="#000000" transform="matrix(1.00, 0.00, -0.00, -1.00, 943.4, 33.8)">w</text><text xml:space="preserve" font-family="HelveticaNeue-Light" font-size="22.0" fill="#000000" transform="matrix(1.00, 0.00, -0.00, -1.00, 958.5, 33.8)">.</text><text xml:space="preserve" font-family="HelveticaNeue-Light" font-size="22.0" fill="#000000" transform="matrix(1.00, 0.00, -0.00, -1.00, 964.6, 33.8)"> </text><text xml:space="preserve" font-family="HelveticaNeue-Light" font-size="22.0" fill="#000000" transform="matrix(1.00, 0.00, -0.00, -1.00, 577.4, 6.8)">I</text><text xml:space="preserve" font-family="HelveticaNeue-Light" font-size="22.0" fill="#000000" transform="matrix(1.00, 0.00, -0.00, -1.00, 582.2, 6.8)">m</text><text xml:space="preserve" font-family="HelveticaNeue-Light" font-size="22.0" fill="#000000" transform="matrix(1.00, 0.00, -0.00, -1.00, 600.6, 6.8)">m</text><text xml:space="preserve" font-family="HelveticaNeue-Light" font-size="22.0" fill="#000000" transform="matrix(1.00, 0.00, -0.00, -1.00, 618.9, 6.8)">u</text><text xml:space="preserve" font-family="HelveticaNeue-Light" font-size="22.0" fill="#000000" transform="matrix(1.00, 0.00, -0.00, -1.00, 630.7, 6.8)">n</text><text xml:space="preserve" font-family="HelveticaNeue-Light" font-size="22.0" fill="#000000" transform="matrix(1.00, 0.00, -0.00, -1.00, 642.5, 6.8)">o</text><text xml:space="preserve" font-family="HelveticaNeue-Light" font-size="22.0" fill="#000000" transform="matrix(1.00, 0.00, -0.00, -1.00, 654.8, 6.8)">b</text><text xml:space="preserve" font-family="HelveticaNeue-Light" font-size="22.0" fill="#000000" transform="matrix(1.00, 0.00, -0.00, -1.00, 667.4, 6.8)">i</text><text xml:space="preserve" font-family="HelveticaNeue-Light" font-size="22.0" fill="#000000" transform="matrix(1.00, 0.00, -0.00, -1.00, 671.5, 6.8)">o</text><text xml:space="preserve" font-family="HelveticaNeue-Light" font-size="22.0" fill="#000000" transform="matrix(1.00, 0.00, -0.00, -1.00, 683.7, 6.8)">l</text><text xml:space="preserve" font-family="HelveticaNeue-Light" font-size="22.0" fill="#000000" transform="matrix(1.00, 0.00, -0.00, -1.00, 687.8, 6.8)">o</text><text xml:space="preserve" font-family="HelveticaNeue-Light" font-size="22.0" fill="#000000" transform="matrix(1.00, 0.00, -0.00, -1.00, 700.0, 6.8)">g</text><text xml:space="preserve" font-family="HelveticaNeue-Light" font-size="22.0" fill="#000000" transform="matrix(1.00, 0.00, -0.00, -1.00, 712.2, 6.8)">y</text><text xml:space="preserve" font-family="HelveticaNeue-Light" font-size="22.0" fill="#000000" transform="matrix(1.00, 0.00, -0.00, -1.00, 720.4, 6.8)">.</text><text xml:space="preserve" font-family="HelveticaNeue-Light" font-size="22.0" fill="#000000" transform="matrix(1.00, 0.00, -0.00, -1.00, 726.5, 6.8)"> </text><text xml:space="preserve" font-family="HelveticaNeue-Light" font-size="22.0" fill="#000000" transform="matrix(1.00, 0.00, -0.00, -1.00, 732.6, 6.8)">1</text><text xml:space="preserve" font-family="HelveticaNeue-Light" font-size="22.0" fill="#000000" transform="matrix(1.00, 0.00, -0.00, -1.00, 744.8, 6.8)">9</text><text xml:space="preserve" font-family="HelveticaNeue-Light" font-size="22.0" fill="#000000" transform="matrix(1.00, 0.00, -0.00, -1.00, 757.1, 6.8)">9</text><text xml:space="preserve" font-family="HelveticaNeue-Light" font-size="22.0" fill="#000000" transform="matrix(1.00, 0.00, -0.00, -1.00, 769.3, 6.8)">6</text><text xml:space="preserve" font-family="HelveticaNeue-Light" font-size="22.0" fill="#000000" transform="matrix(1.00, 0.00, -0.00, -1.00, 781.5, 6.8)"> </text><text xml:space="preserve" font-family="HelveticaNeue-Light" font-size="22.0" fill="#000000" transform="matrix(1.00, 0.00, -0.00, -1.00, 787.7, 6.8)">J</text><text xml:space="preserve" font-family="HelveticaNeue-Light" font-size="22.0" fill="#000000" transform="matrix(1.00, 0.00, -0.00, -1.00, 798.7, 6.8)">u</text><text xml:space="preserve" font-family="HelveticaNeue-Light" font-size="22.0" fill="#000000" transform="matrix(1.00, 0.00, -0.00, -1.00, 810.5, 6.8)">l</text><text xml:space="preserve" font-family="HelveticaNeue-Light" font-size="22.0" fill="#000000" transform="matrix(1.00, 0.00, -0.00, -1.00, 814.5, 6.8)">;</text><text xml:space="preserve" font-family="HelveticaNeue-Light" font-size="22.0" fill="#000000" transform="matrix(1.00, 0.00, -0.00, -1.00, 820.7, 6.8)">1</text><text xml:space="preserve" font-family="HelveticaNeue-Light" font-size="22.0" fill="#000000" transform="matrix(1.00, 0.00, -0.00, -1.00, 832.9, 6.8)">9</text><text xml:space="preserve" font-family="HelveticaNeue-Light" font-size="22.0" fill="#000000" transform="matrix(1.00, 0.00, -0.00, -1.00, 845.1, 6.8)">5</text><text xml:space="preserve" font-family="HelveticaNeue-Light" font-size="22.0" fill="#000000" transform="matrix(1.00, 0.00, -0.00, -1.00, 857.3, 6.8)">(</text><text xml:space="preserve" font-family="HelveticaNeue-Light" font-size="22.0" fill="#000000" transform="matrix(1.00, 0.00, -0.00, -1.00, 862.7, 6.8)">2</text><text xml:space="preserve" font-family="HelveticaNeue-Light" font-size="22.0" fill="#000000" transform="matrix(1.00, 0.00, -0.00, -1.00, 874.9, 6.8)">)</text><text xml:space="preserve" font-family="HelveticaNeue-Light" font-size="22.0" fill="#000000" transform="matrix(1.00, 0.00, -0.00, -1.00, 880.2, 6.8)">:</text><text xml:space="preserve" font-family="HelveticaNeue-Light" font-size="22.0" fill="#000000" transform="matrix(1.00, 0.00, -0.00, -1.00, 886.3, 6.8)">1</text><text xml:space="preserve" font-family="HelveticaNeue-Light" font-size="22.0" fill="#000000" transform="matrix(1.00, 0.00, -0.00, -1.00, 898.5, 6.8)">2</text><text xml:space="preserve" font-family="HelveticaNeue-Light" font-size="22.0" fill="#000000" transform="matrix(1.00, 0.00, -0.00, -1.00, 910.8, 6.8)">9</text><text xml:space="preserve" font-family="HelveticaNeue-Light" font-size="22.0" fill="#000000" transform="matrix(1.00, 0.00, -0.00, -1.00, 923.0, 6.8)">–</text><text xml:space="preserve" font-family="HelveticaNeue-Light" font-size="22.0" fill="#000000" transform="matrix(1.00, 0.00, -0.00, -1.00, 934.0, 6.8)">3</text><text xml:space="preserve" font-family="HelveticaNeue-Light" font-size="22.0" fill="#000000" transform="matrix(1.00, 0.00, -0.00, -1.00, 946.2, 6.8)">9</text><text xml:space="preserve" font-family="HelveticaNeue-Light" font-size="22.0" fill="#000000" transform="matrix(1.00, 0.00, -0.00, -1.00, 958.5, 6.8)">.</text></g></svg>