<?xml version="1.0" encoding="UTF-8" standalone="no"?><svg xmlns="http://www.w3.org/2000/svg" xmlns:xlink="http://www.w3.org/1999/xlink" clip-rule="evenodd" stroke-miterlimit="10" viewBox="0 0 1024 768"><desc>SVG generated by Keynote</desc><defs></defs><g transform="matrix(1.00, 0.00, -0.00, -1.00, 0.0, 768.0)"><path d="M 0.0 768.0 L 1024.0 768.0 L 1024.0 0.0 L 0.0 0.0 Z M 0.0 768.0 " fill="#000000"></path><image xlink:href="CCC2882D0C641DE722D50FC388DC6399.png" width="248.00" height="36.00" transform="matrix(1.00, 0.00, -0.00, -1.00, 122.0, 399.0)"></image><text xml:space="preserve" font-family="HelveticaNeue-Medium,Helvetica Neue" font-size="38.0" fill="#EAEAEA" transform="matrix(1.00, 0.00, -0.00, -1.00, 123.5, 369.7)">P</text><text xml:space="preserve" font-family="HelveticaNeue-Medium,Helvetica Neue" font-size="38.0" fill="#EAEAEA" transform="matrix(1.00, 0.00, -0.00, -1.00, 148.8, 369.7)">r</text><text xml:space="preserve" font-family="HelveticaNeue-Medium,Helvetica Neue" font-size="38.0" fill="#EAEAEA" transform="matrix(1.00, 0.00, -0.00, -1.00, 161.5, 369.7)">e</text><text xml:space="preserve" font-family="HelveticaNeue-Medium,Helvetica Neue" font-size="38.0" fill="#EAEAEA" transform="matrix(1.00, 0.00, -0.00, -1.00, 182.6, 369.7)">-</text><text xml:space="preserve" font-family="HelveticaNeue-Medium,Helvetica Neue" font-size="38.0" fill="#EAEAEA" transform="matrix(1.00, 0.00, -0.00, -1.00, 197.4, 369.7)">t</text><text xml:space="preserve" font-family="HelveticaNeue-Medium,Helvetica Neue" font-size="38.0" fill="#EAEAEA" transform="matrix(1.00, 0.00, -0.00, -1.00, 210.1, 369.7)">r</text><text xml:space="preserve" font-family="HelveticaNeue-Medium,Helvetica Neue" font-size="38.0" fill="#EAEAEA" transform="matrix(1.00, 0.00, -0.00, -1.00, 222.8, 369.7)">e</text><text xml:space="preserve" font-family="HelveticaNeue-Medium,Helvetica Neue" font-size="38.0" fill="#EAEAEA" transform="matrix(1.00, 0.00, -0.00, -1.00, 243.9, 369.7)">a</text><text xml:space="preserve" font-family="HelveticaNeue-Medium,Helvetica Neue" font-size="38.0" fill="#EAEAEA" transform="matrix(1.00, 0.00, -0.00, -1.00, 265.0, 369.7)">t</text><text xml:space="preserve" font-family="HelveticaNeue-Medium,Helvetica Neue" font-size="38.0" fill="#EAEAEA" transform="matrix(1.00, 0.00, -0.00, -1.00, 277.7, 369.7)">m</text><text xml:space="preserve" font-family="HelveticaNeue-Medium,Helvetica Neue" font-size="38.0" fill="#EAEAEA" transform="matrix(1.00, 0.00, -0.00, -1.00, 310.7, 369.7)">e</text><text xml:space="preserve" font-family="HelveticaNeue-Medium,Helvetica Neue" font-size="38.0" fill="#EAEAEA" transform="matrix(1.00, 0.00, -0.00, -1.00, 331.9, 369.7)">n</text><text xml:space="preserve" font-family="HelveticaNeue-Medium,Helvetica Neue" font-size="38.0" fill="#EAEAEA" transform="matrix(1.00, 0.00, -0.00, -1.00, 353.7, 369.7)">t</text><image xlink:href="B2D5EF6AB438C1226D96C19A9C40F70A.png" width="152.00" height="37.00" transform="matrix(1.00, 0.00, -0.00, -1.00, 662.0, 400.0)"></image><text xml:space="preserve" font-family="HelveticaNeue-Medium,Helvetica Neue" font-size="38.0" fill="#EAEAEA" transform="matrix(1.00, 0.00, -0.00, -1.00, 667.0, 369.7)">A</text><text xml:space="preserve" font-family="HelveticaNeue-Medium,Helvetica Neue" font-size="38.0" fill="#EAEAEA" transform="matrix(1.00, 0.00, -0.00, -1.00, 692.3, 369.7)">f</text><text xml:space="preserve" font-family="HelveticaNeue-Medium,Helvetica Neue" font-size="38.0" fill="#EAEAEA" transform="matrix(1.00, 0.00, -0.00, -1.00, 704.3, 369.7)">t</text><text xml:space="preserve" font-family="HelveticaNeue-Medium,Helvetica Neue" font-size="38.0" fill="#EAEAEA" transform="matrix(1.00, 0.00, -0.00, -1.00, 717.0, 369.7)">e</text><text xml:space="preserve" font-family="HelveticaNeue-Medium,Helvetica Neue" font-size="38.0" fill="#EAEAEA" transform="matrix(1.00, 0.00, -0.00, -1.00, 738.1, 369.7)">r</text><text xml:space="preserve" font-family="HelveticaNeue-Medium,Helvetica Neue" font-size="38.0" fill="#EAEAEA" transform="matrix(1.00, 0.00, -0.00, -1.00, 751.5, 369.7)"> </text><text xml:space="preserve" font-family="HelveticaNeue-Medium,Helvetica Neue" font-size="38.0" fill="#EAEAEA" transform="matrix(1.00, 0.00, -0.00, -1.00, 762.0, 369.7)">C</text><text xml:space="preserve" font-family="HelveticaNeue-Medium,Helvetica Neue" font-size="38.0" fill="#EAEAEA" transform="matrix(1.00, 0.00, -0.00, -1.00, 789.5, 369.7)">4</text><image xlink:href="0611BE7A6292A9FE4B0940EF84142726.png" width="352.00" height="92.00" transform="matrix(1.00, 0.00, -0.00, -1.00, 83.0, 612.0)"></image><text xml:space="preserve" font-family="Chalkduster,Chalkduster" font-size="26.0" fill="#FEE55E" transform="matrix(0.98, 0.18, 0.18, -0.98, 87.0, 526.3)">A</text><text xml:space="preserve" font-family="Chalkduster,Chalkduster" font-size="26.0" fill="#FEE55E" transform="matrix(0.98, 0.18, 0.18, -0.98, 105.5, 529.7)">c</text><text xml:space="preserve" font-family="Chalkduster,Chalkduster" font-size="26.0" fill="#FEE55E" transform="matrix(0.98, 0.18, 0.18, -0.98, 120.7, 532.4)">t</text><text xml:space="preserve" font-family="Chalkduster,Chalkduster" font-size="26.0" fill="#FEE55E" transform="matrix(0.98, 0.18, 0.18, -0.98, 132.4, 534.6)">u</text><text xml:space="preserve" font-family="Chalkduster,Chalkduster" font-size="26.0" fill="#FEE55E" transform="matrix(0.98, 0.18, 0.18, -0.98, 150.0, 537.7)">a</text><text xml:space="preserve" font-family="Chalkduster,Chalkduster" font-size="26.0" fill="#FEE55E" transform="matrix(0.98, 0.18, 0.18, -0.98, 166.6, 540.7)">l</text><text xml:space="preserve" font-family="Chalkduster,Chalkduster" font-size="26.0" fill="#FEE55E" transform="matrix(0.98, 0.18, 0.18, -0.98, 178.6, 542.9)"> </text><text xml:space="preserve" font-family="Chalkduster,Chalkduster" font-size="26.0" fill="#FEE55E" transform="matrix(0.98, 0.18, 0.18, -0.98, 191.3, 545.2)">i</text><text xml:space="preserve" font-family="Chalkduster,Chalkduster" font-size="26.0" fill="#FEE55E" transform="matrix(0.98, 0.18, 0.18, -0.98, 201.4, 547.0)">m</text><text xml:space="preserve" font-family="Chalkduster,Chalkduster" font-size="26.0" fill="#FEE55E" transform="matrix(0.98, 0.18, 0.18, -0.98, 227.3, 551.7)">a</text><text xml:space="preserve" font-family="Chalkduster,Chalkduster" font-size="26.0" fill="#FEE55E" transform="matrix(0.98, 0.18, 0.18, -0.98, 243.6, 554.7)">g</text><text xml:space="preserve" font-family="Chalkduster,Chalkduster" font-size="26.0" fill="#FEE55E" transform="matrix(0.98, 0.18, 0.18, -0.98, 261.4, 557.9)">e</text><text xml:space="preserve" font-family="Chalkduster,Chalkduster" font-size="26.0" fill="#FEE55E" transform="matrix(0.98, 0.18, 0.18, -0.98, 277.9, 560.9)">s</text><text xml:space="preserve" font-family="Chalkduster,Chalkduster" font-size="26.0" fill="#FEE55E" transform="matrix(0.98, 0.18, 0.18, -0.98, 290.8, 563.2)"> </text><text xml:space="preserve" font-family="Chalkduster,Chalkduster" font-size="26.0" fill="#FEE55E" transform="matrix(0.98, 0.18, 0.18, -0.98, 303.5, 565.5)">r</text><text xml:space="preserve" font-family="Chalkduster,Chalkduster" font-size="26.0" fill="#FEE55E" transform="matrix(0.98, 0.18, 0.18, -0.98, 316.5, 567.9)">e</text><text xml:space="preserve" font-family="Chalkduster,Chalkduster" font-size="26.0" fill="#FEE55E" transform="matrix(0.98, 0.18, 0.18, -0.98, 332.3, 570.7)">m</text><text xml:space="preserve" font-family="Chalkduster,Chalkduster" font-size="26.0" fill="#FEE55E" transform="matrix(0.98, 0.18, 0.18, -0.98, 358.2, 575.4)">o</text><text xml:space="preserve" font-family="Chalkduster,Chalkduster" font-size="26.0" fill="#FEE55E" transform="matrix(0.98, 0.18, 0.18, -0.98, 377.4, 578.9)">v</text><text xml:space="preserve" font-family="Chalkduster,Chalkduster" font-size="26.0" fill="#FEE55E" transform="matrix(0.98, 0.18, 0.18, -0.98, 393.1, 581.7)">e</text><text xml:space="preserve" font-family="Chalkduster,Chalkduster" font-size="26.0" fill="#FEE55E" transform="matrix(0.98, 0.18, 0.18, -0.98, 409.8, 584.8)">d</text><image xlink:href="B80DDC7B132DE81EC3D65231A47C30C6.png" width="352.00" height="92.00" transform="matrix(1.00, 0.00, -0.00, -1.00, 565.0, 612.0)"></image><text xml:space="preserve" font-family="Chalkduster,Chalkduster" font-size="26.0" fill="#FEE55E" transform="matrix(0.98, 0.18, 0.18, -0.98, 569.5, 526.3)">A</text><text xml:space="preserve" font-family="Chalkduster,Chalkduster" font-size="26.0" fill="#FEE55E" transform="matrix(0.98, 0.18, 0.18, -0.98, 588.0, 529.7)">c</text><text xml:space="preserve" font-family="Chalkduster,Chalkduster" font-size="26.0" fill="#FEE55E" transform="matrix(0.98, 0.18, 0.18, -0.98, 603.2, 532.4)">t</text><text xml:space="preserve" font-family="Chalkduster,Chalkduster" font-size="26.0" fill="#FEE55E" transform="matrix(0.98, 0.18, 0.18, -0.98, 614.9, 534.6)">u</text><text xml:space="preserve" font-family="Chalkduster,Chalkduster" font-size="26.0" fill="#FEE55E" transform="matrix(0.98, 0.18, 0.18, -0.98, 632.4, 537.7)">a</text><text xml:space="preserve" font-family="Chalkduster,Chalkduster" font-size="26.0" fill="#FEE55E" transform="matrix(0.98, 0.18, 0.18, -0.98, 649.0, 540.7)">l</text><text xml:space="preserve" font-family="Chalkduster,Chalkduster" font-size="26.0" fill="#FEE55E" transform="matrix(0.98, 0.18, 0.18, -0.98, 661.0, 542.9)"> </text><text xml:space="preserve" font-family="Chalkduster,Chalkduster" font-size="26.0" fill="#FEE55E" transform="matrix(0.98, 0.18, 0.18, -0.98, 673.8, 545.2)">i</text><text xml:space="preserve" font-family="Chalkduster,Chalkduster" font-size="26.0" fill="#FEE55E" transform="matrix(0.98, 0.18, 0.18, -0.98, 683.9, 547.0)">m</text><text xml:space="preserve" font-family="Chalkduster,Chalkduster" font-size="26.0" fill="#FEE55E" transform="matrix(0.98, 0.18, 0.18, -0.98, 709.8, 551.7)">a</text><text xml:space="preserve" font-family="Chalkduster,Chalkduster" font-size="26.0" fill="#FEE55E" transform="matrix(0.98, 0.18, 0.18, -0.98, 726.1, 554.7)">g</text><text xml:space="preserve" font-family="Chalkduster,Chalkduster" font-size="26.0" fill="#FEE55E" transform="matrix(0.98, 0.18, 0.18, -0.98, 743.9, 557.9)">e</text><text xml:space="preserve" font-family="Chalkduster,Chalkduster" font-size="26.0" fill="#FEE55E" transform="matrix(0.98, 0.18, 0.18, -0.98, 760.3, 560.9)">s</text><text xml:space="preserve" font-family="Chalkduster,Chalkduster" font-size="26.0" fill="#FEE55E" transform="matrix(0.98, 0.18, 0.18, -0.98, 773.3, 563.2)"> </text><text xml:space="preserve" font-family="Chalkduster,Chalkduster" font-size="26.0" fill="#FEE55E" transform="matrix(0.98, 0.18, 0.18, -0.98, 786.0, 565.5)">r</text><text xml:space="preserve" font-family="Chalkduster,Chalkduster" font-size="26.0" fill="#FEE55E" transform="matrix(0.98, 0.18, 0.18, -0.98, 798.9, 567.9)">e</text><text xml:space="preserve" font-family="Chalkduster,Chalkduster" font-size="26.0" fill="#FEE55E" transform="matrix(0.98, 0.18, 0.18, -0.98, 814.8, 570.7)">m</text><text xml:space="preserve" font-family="Chalkduster,Chalkduster" font-size="26.0" fill="#FEE55E" transform="matrix(0.98, 0.18, 0.18, -0.98, 840.7, 575.4)">o</text><text xml:space="preserve" font-family="Chalkduster,Chalkduster" font-size="26.0" fill="#FEE55E" transform="matrix(0.98, 0.18, 0.18, -0.98, 859.9, 578.9)">v</text><text xml:space="preserve" font-family="Chalkduster,Chalkduster" font-size="26.0" fill="#FEE55E" transform="matrix(0.98, 0.18, 0.18, -0.98, 875.6, 581.7)">e</text><text xml:space="preserve" font-family="Chalkduster,Chalkduster" font-size="26.0" fill="#FEE55E" transform="matrix(0.98, 0.18, 0.18, -0.98, 892.2, 584.8)">d</text><image xlink:href="1C0B744FE2D32EFD6C502EA6B68F23A8.png" width="352.00" height="92.00" transform="matrix(1.00, 0.00, -0.00, -1.00, 565.0, 242.0)"></image><text xml:space="preserve" font-family="Chalkduster,Chalkduster" font-size="26.0" fill="#FEE55E" transform="matrix(0.98, 0.18, 0.18, -0.98, 569.5, 156.9)">A</text><text xml:space="preserve" font-family="Chalkduster,Chalkduster" font-size="26.0" fill="#FEE55E" transform="matrix(0.98, 0.18, 0.18, -0.98, 588.0, 160.2)">c</text><text xml:space="preserve" font-family="Chalkduster,Chalkduster" font-size="26.0" fill="#FEE55E" transform="matrix(0.98, 0.18, 0.18, -0.98, 603.2, 163.0)">t</text><text xml:space="preserve" font-family="Chalkduster,Chalkduster" font-size="26.0" fill="#FEE55E" transform="matrix(0.98, 0.18, 0.18, -0.98, 614.9, 165.1)">u</text><text xml:space="preserve" font-family="Chalkduster,Chalkduster" font-size="26.0" fill="#FEE55E" transform="matrix(0.98, 0.18, 0.18, -0.98, 632.4, 168.3)">a</text><text xml:space="preserve" font-family="Chalkduster,Chalkduster" font-size="26.0" fill="#FEE55E" transform="matrix(0.98, 0.18, 0.18, -0.98, 649.0, 171.3)">l</text><text xml:space="preserve" font-family="Chalkduster,Chalkduster" font-size="26.0" fill="#FEE55E" transform="matrix(0.98, 0.18, 0.18, -0.98, 661.0, 173.4)"> </text><text xml:space="preserve" font-family="Chalkduster,Chalkduster" font-size="26.0" fill="#FEE55E" transform="matrix(0.98, 0.18, 0.18, -0.98, 673.8, 175.7)">i</text><text xml:space="preserve" font-family="Chalkduster,Chalkduster" font-size="26.0" fill="#FEE55E" transform="matrix(0.98, 0.18, 0.18, -0.98, 683.9, 177.6)">m</text><text xml:space="preserve" font-family="Chalkduster,Chalkduster" font-size="26.0" fill="#FEE55E" transform="matrix(0.98, 0.18, 0.18, -0.98, 709.8, 182.3)">a</text><text xml:space="preserve" font-family="Chalkduster,Chalkduster" font-size="26.0" fill="#FEE55E" transform="matrix(0.98, 0.18, 0.18, -0.98, 726.1, 185.2)">g</text><text xml:space="preserve" font-family="Chalkduster,Chalkduster" font-size="26.0" fill="#FEE55E" transform="matrix(0.98, 0.18, 0.18, -0.98, 743.9, 188.4)">e</text><text xml:space="preserve" font-family="Chalkduster,Chalkduster" font-size="26.0" fill="#FEE55E" transform="matrix(0.98, 0.18, 0.18, -0.98, 760.3, 191.4)">s</text><text xml:space="preserve" font-family="Chalkduster,Chalkduster" font-size="26.0" fill="#FEE55E" transform="matrix(0.98, 0.18, 0.18, -0.98, 773.3, 193.8)"> </text><text xml:space="preserve" font-family="Chalkduster,Chalkduster" font-size="26.0" fill="#FEE55E" transform="matrix(0.98, 0.18, 0.18, -0.98, 786.0, 196.1)">r</text><text xml:space="preserve" font-family="Chalkduster,Chalkduster" font-size="26.0" fill="#FEE55E" transform="matrix(0.98, 0.18, 0.18, -0.98, 798.9, 198.4)">e</text><text xml:space="preserve" font-family="Chalkduster,Chalkduster" font-size="26.0" fill="#FEE55E" transform="matrix(0.98, 0.18, 0.18, -0.98, 814.8, 201.3)">m</text><text xml:space="preserve" font-family="Chalkduster,Chalkduster" font-size="26.0" fill="#FEE55E" transform="matrix(0.98, 0.18, 0.18, -0.98, 840.7, 206.0)">o</text><text xml:space="preserve" font-family="Chalkduster,Chalkduster" font-size="26.0" fill="#FEE55E" transform="matrix(0.98, 0.18, 0.18, -0.98, 859.9, 209.4)">v</text><text xml:space="preserve" font-family="Chalkduster,Chalkduster" font-size="26.0" fill="#FEE55E" transform="matrix(0.98, 0.18, 0.18, -0.98, 875.6, 212.3)">e</text><text xml:space="preserve" font-family="Chalkduster,Chalkduster" font-size="26.0" fill="#FEE55E" transform="matrix(0.98, 0.18, 0.18, -0.98, 892.2, 215.3)">d</text><image xlink:href="15C1381801445A78B05C421DF5FE56E1.png" width="352.00" height="92.00" transform="matrix(1.00, 0.00, -0.00, -1.00, 71.0, 242.0)"></image><text xml:space="preserve" font-family="Chalkduster,Chalkduster" font-size="26.0" fill="#FEE55E" transform="matrix(0.98, 0.18, 0.18, -0.98, 75.6, 156.9)">A</text><text xml:space="preserve" font-family="Chalkduster,Chalkduster" font-size="26.0" fill="#FEE55E" transform="matrix(0.98, 0.18, 0.18, -0.98, 94.1, 160.2)">c</text><text xml:space="preserve" font-family="Chalkduster,Chalkduster" font-size="26.0" fill="#FEE55E" transform="matrix(0.98, 0.18, 0.18, -0.98, 109.3, 163.0)">t</text><text xml:space="preserve" font-family="Chalkduster,Chalkduster" font-size="26.0" fill="#FEE55E" transform="matrix(0.98, 0.18, 0.18, -0.98, 121.0, 165.1)">u</text><text xml:space="preserve" font-family="Chalkduster,Chalkduster" font-size="26.0" fill="#FEE55E" transform="matrix(0.98, 0.18, 0.18, -0.98, 138.5, 168.3)">a</text><text xml:space="preserve" font-family="Chalkduster,Chalkduster" font-size="26.0" fill="#FEE55E" transform="matrix(0.98, 0.18, 0.18, -0.98, 155.1, 171.3)">l</text><text xml:space="preserve" font-family="Chalkduster,Chalkduster" font-size="26.0" fill="#FEE55E" transform="matrix(0.98, 0.18, 0.18, -0.98, 167.1, 173.4)"> </text><text xml:space="preserve" font-family="Chalkduster,Chalkduster" font-size="26.0" fill="#FEE55E" transform="matrix(0.98, 0.18, 0.18, -0.98, 179.9, 175.7)">i</text><text xml:space="preserve" font-family="Chalkduster,Chalkduster" font-size="26.0" fill="#FEE55E" transform="matrix(0.98, 0.18, 0.18, -0.98, 190.0, 177.6)">m</text><text xml:space="preserve" font-family="Chalkduster,Chalkduster" font-size="26.0" fill="#FEE55E" transform="matrix(0.98, 0.18, 0.18, -0.98, 215.9, 182.3)">a</text><text xml:space="preserve" font-family="Chalkduster,Chalkduster" font-size="26.0" fill="#FEE55E" transform="matrix(0.98, 0.18, 0.18, -0.98, 232.2, 185.2)">g</text><text xml:space="preserve" font-family="Chalkduster,Chalkduster" font-size="26.0" fill="#FEE55E" transform="matrix(0.98, 0.18, 0.18, -0.98, 250.0, 188.4)">e</text><text xml:space="preserve" font-family="Chalkduster,Chalkduster" font-size="26.0" fill="#FEE55E" transform="matrix(0.98, 0.18, 0.18, -0.98, 266.4, 191.4)">s</text><text xml:space="preserve" font-family="Chalkduster,Chalkduster" font-size="26.0" fill="#FEE55E" transform="matrix(0.98, 0.18, 0.18, -0.98, 279.4, 193.8)"> </text><text xml:space="preserve" font-family="Chalkduster,Chalkduster" font-size="26.0" fill="#FEE55E" transform="matrix(0.98, 0.18, 0.18, -0.98, 292.1, 196.1)">r</text><text xml:space="preserve" font-family="Chalkduster,Chalkduster" font-size="26.0" fill="#FEE55E" transform="matrix(0.98, 0.18, 0.18, -0.98, 305.0, 198.4)">e</text><text xml:space="preserve" font-family="Chalkduster,Chalkduster" font-size="26.0" fill="#FEE55E" transform="matrix(0.98, 0.18, 0.18, -0.98, 320.9, 201.3)">m</text><text xml:space="preserve" font-family="Chalkduster,Chalkduster" font-size="26.0" fill="#FEE55E" transform="matrix(0.98, 0.18, 0.18, -0.98, 346.8, 206.0)">o</text><text xml:space="preserve" font-family="Chalkduster,Chalkduster" font-size="26.0" fill="#FEE55E" transform="matrix(0.98, 0.18, 0.18, -0.98, 366.0, 209.4)">v</text><text xml:space="preserve" font-family="Chalkduster,Chalkduster" font-size="26.0" fill="#FEE55E" transform="matrix(0.98, 0.18, 0.18, -0.98, 381.7, 212.3)">e</text><text xml:space="preserve" font-family="Chalkduster,Chalkduster" font-size="26.0" fill="#FEE55E" transform="matrix(0.98, 0.18, 0.18, -0.98, 398.3, 215.3)">d</text><image xlink:href="7406C559ED11775AEDA699D8FD5E2B35.png" width="269.00" height="42.00" transform="matrix(1.00, 0.00, -0.00, -1.00, 378.0, 457.0)"></image><text xml:space="preserve" font-family="Chalkduster,Chalkduster" font-size="26.0" fill="#FEE55E" transform="matrix(1.00, 0.00, -0.00, -1.00, 381.7, 429.4)">6</text><text xml:space="preserve" font-family="Chalkduster,Chalkduster" font-size="26.0" fill="#FEE55E" transform="matrix(1.00, 0.00, -0.00, -1.00, 399.0, 429.4)">0</text><text xml:space="preserve" font-family="Chalkduster,Chalkduster" font-size="26.0" fill="#FEE55E" transform="matrix(1.00, 0.00, -0.00, -1.00, 416.9, 429.4)">%</text><text xml:space="preserve" font-family="Chalkduster,Chalkduster" font-size="26.0" fill="#FEE55E" transform="matrix(1.00, 0.00, -0.00, -1.00, 439.1, 429.4)"> </text><text xml:space="preserve" font-family="Chalkduster,Chalkduster" font-size="26.0" fill="#FEE55E" transform="matrix(1.00, 0.00, -0.00, -1.00, 452.1, 429.4)">r</text><text xml:space="preserve" font-family="Chalkduster,Chalkduster" font-size="26.0" fill="#FEE55E" transform="matrix(1.00, 0.00, -0.00, -1.00, 465.2, 429.4)">e</text><text xml:space="preserve" font-family="Chalkduster,Chalkduster" font-size="26.0" fill="#FEE55E" transform="matrix(1.00, 0.00, -0.00, -1.00, 482.2, 429.4)">d</text><text xml:space="preserve" font-family="Chalkduster,Chalkduster" font-size="26.0" fill="#FEE55E" transform="matrix(1.00, 0.00, -0.00, -1.00, 503.0, 429.4)">u</text><text xml:space="preserve" font-family="Chalkduster,Chalkduster" font-size="26.0" fill="#FEE55E" transform="matrix(1.00, 0.00, -0.00, -1.00, 520.9, 429.4)">c</text><text xml:space="preserve" font-family="Chalkduster,Chalkduster" font-size="26.0" fill="#FEE55E" transform="matrix(1.00, 0.00, -0.00, -1.00, 536.3, 429.4)">t</text><text xml:space="preserve" font-family="Chalkduster,Chalkduster" font-size="26.0" fill="#FEE55E" transform="matrix(1.00, 0.00, -0.00, -1.00, 548.3, 429.4)">i</text><text xml:space="preserve" font-family="Chalkduster,Chalkduster" font-size="26.0" fill="#FEE55E" transform="matrix(1.00, 0.00, -0.00, -1.00, 558.6, 429.4)">o</text><text xml:space="preserve" font-family="Chalkduster,Chalkduster" font-size="26.0" fill="#FEE55E" transform="matrix(1.00, 0.00, -0.00, -1.00, 577.9, 429.4)">n</text><text xml:space="preserve" font-family="Chalkduster,Chalkduster" font-size="26.0" fill="#FEE55E" transform="matrix(1.00, 0.00, -0.00, -1.00, 597.0, 429.4)"> </text><text xml:space="preserve" font-family="Chalkduster,Chalkduster" font-size="26.0" fill="#FEE55E" transform="matrix(1.00, 0.00, -0.00, -1.00, 609.9, 429.4)">o</text><text xml:space="preserve" font-family="Chalkduster,Chalkduster" font-size="26.0" fill="#FEE55E" transform="matrix(1.00, 0.00, -0.00, -1.00, 628.6, 429.4)">f</text><text xml:space="preserve" font-family="Chalkduster,Chalkduster" font-size="26.0" fill="#FEE55E" transform="matrix(1.00, 0.00, -0.00, -1.00, 642.4, 429.4)"> </text><image xlink:href="D6700B261733B81671BF9812D4BED4E2.png" width="212.00" height="44.00" transform="matrix(1.00, 0.00, -0.00, -1.00, 406.0, 415.0)"></image><text xml:space="preserve" font-family="Chalkduster,Chalkduster" font-size="26.0" fill="#FEE55E" transform="matrix(1.00, 0.00, -0.00, -1.00, 409.3, 391.4)">a</text><text xml:space="preserve" font-family="Chalkduster,Chalkduster" font-size="26.0" fill="#FEE55E" transform="matrix(1.00, 0.00, -0.00, -1.00, 426.7, 391.4)">x</text><text xml:space="preserve" font-family="Chalkduster,Chalkduster" font-size="26.0" fill="#FEE55E" transform="matrix(1.00, 0.00, -0.00, -1.00, 442.9, 391.4)">i</text><text xml:space="preserve" font-family="Chalkduster,Chalkduster" font-size="26.0" fill="#FEE55E" transform="matrix(1.00, 0.00, -0.00, -1.00, 453.4, 391.4)">l</text><text xml:space="preserve" font-family="Chalkduster,Chalkduster" font-size="26.0" fill="#FEE55E" transform="matrix(1.00, 0.00, -0.00, -1.00, 465.2, 391.4)">l</text><text xml:space="preserve" font-family="Chalkduster,Chalkduster" font-size="26.0" fill="#FEE55E" transform="matrix(1.00, 0.00, -0.00, -1.00, 476.8, 391.4)">a</text><text xml:space="preserve" font-family="Chalkduster,Chalkduster" font-size="26.0" fill="#FEE55E" transform="matrix(1.00, 0.00, -0.00, -1.00, 493.4, 391.4)">r</text><text xml:space="preserve" font-family="Chalkduster,Chalkduster" font-size="26.0" fill="#FEE55E" transform="matrix(1.00, 0.00, -0.00, -1.00, 508.1, 391.4)">y</text><text xml:space="preserve" font-family="Chalkduster,Chalkduster" font-size="26.0" fill="#FEE55E" transform="matrix(1.00, 0.00, -0.00, -1.00, 523.9, 391.4)"> </text><text xml:space="preserve" font-family="Chalkduster,Chalkduster" font-size="26.0" fill="#FEE55E" transform="matrix(1.00, 0.00, -0.00, -1.00, 536.8, 391.4)">m</text><text xml:space="preserve" font-family="Chalkduster,Chalkduster" font-size="26.0" fill="#FEE55E" transform="matrix(1.00, 0.00, -0.00, -1.00, 563.1, 391.4)">a</text><text xml:space="preserve" font-family="Chalkduster,Chalkduster" font-size="26.0" fill="#FEE55E" transform="matrix(1.00, 0.00, -0.00, -1.00, 581.4, 391.4)">s</text><text xml:space="preserve" font-family="Chalkduster,Chalkduster" font-size="26.0" fill="#FEE55E" transform="matrix(1.00, 0.00, -0.00, -1.00, 594.5, 391.4)">s</text><text xml:space="preserve" font-family="Chalkduster,Chalkduster" font-size="26.0" fill="#FEE55E" transform="matrix(1.00, 0.00, -0.00, -1.00, 606.6, 391.4)">,</text><text xml:space="preserve" font-family=".HelveticaNeueDeskInterface-Regular,.Helvetica Neue DeskInterface" font-size="26.0" fill="#FEE55E" transform="matrix(1.00, 0.00, -0.00, -1.00, 614.7, 391.4)"> </text><image xlink:href="521B32720C6BC5CD3F9E97FAAEED5C0F.png" width="235.00" height="47.00" transform="matrix(1.00, 0.00, -0.00, -1.00, 394.0, 380.0)"></image><text xml:space="preserve" font-family="Chalkduster,Chalkduster" font-size="26.0" fill="#FEE55E" transform="matrix(1.00, 0.00, -0.00, -1.00, 398.0, 353.4)">s</text><text xml:space="preserve" font-family="Chalkduster,Chalkduster" font-size="26.0" fill="#FEE55E" transform="matrix(1.00, 0.00, -0.00, -1.00, 411.2, 353.4)">u</text><text xml:space="preserve" font-family="Chalkduster,Chalkduster" font-size="26.0" fill="#FEE55E" transform="matrix(1.00, 0.00, -0.00, -1.00, 429.1, 353.4)">b</text><text xml:space="preserve" font-family="Chalkduster,Chalkduster" font-size="26.0" fill="#FEE55E" transform="matrix(1.00, 0.00, -0.00, -1.00, 444.2, 353.4)">p</text><text xml:space="preserve" font-family="Chalkduster,Chalkduster" font-size="26.0" fill="#FEE55E" transform="matrix(1.00, 0.00, -0.00, -1.00, 460.5, 353.4)">e</text><text xml:space="preserve" font-family="Chalkduster,Chalkduster" font-size="26.0" fill="#FEE55E" transform="matrix(1.00, 0.00, -0.00, -1.00, 477.1, 353.4)">c</text><text xml:space="preserve" font-family="Chalkduster,Chalkduster" font-size="26.0" fill="#FEE55E" transform="matrix(1.00, 0.00, -0.00, -1.00, 492.5, 353.4)">t</text><text xml:space="preserve" font-family="Chalkduster,Chalkduster" font-size="26.0" fill="#FEE55E" transform="matrix(1.00, 0.00, -0.00, -1.00, 503.2, 353.4)">o</text><text xml:space="preserve" font-family="Chalkduster,Chalkduster" font-size="26.0" fill="#FEE55E" transform="matrix(1.00, 0.00, -0.00, -1.00, 522.1, 353.4)">r</text><text xml:space="preserve" font-family="Chalkduster,Chalkduster" font-size="26.0" fill="#FEE55E" transform="matrix(1.00, 0.00, -0.00, -1.00, 535.8, 353.4)">a</text><text xml:space="preserve" font-family="Chalkduster,Chalkduster" font-size="26.0" fill="#FEE55E" transform="matrix(1.00, 0.00, -0.00, -1.00, 552.7, 353.4)">l</text><text xml:space="preserve" font-family="Chalkduster,Chalkduster" font-size="26.0" fill="#FEE55E" transform="matrix(1.00, 0.00, -0.00, -1.00, 564.9, 353.4)"> </text><text xml:space="preserve" font-family="Chalkduster,Chalkduster" font-size="26.0" fill="#FEE55E" transform="matrix(1.00, 0.00, -0.00, -1.00, 577.8, 353.4)">n</text><text xml:space="preserve" font-family="Chalkduster,Chalkduster" font-size="26.0" fill="#FEE55E" transform="matrix(1.00, 0.00, -0.00, -1.00, 596.4, 353.4)">o</text><text xml:space="preserve" font-family="Chalkduster,Chalkduster" font-size="26.0" fill="#FEE55E" transform="matrix(1.00, 0.00, -0.00, -1.00, 614.1, 353.4)">t</text><text xml:space="preserve" font-family="Chalkduster,Chalkduster" font-size="26.0" fill="#FEE55E" transform="matrix(1.00, 0.00, -0.00, -1.00, 626.0, 353.4)"> </text><image xlink:href="F576360DBF45639415F36172D8C0F199.png" width="159.00" height="33.00" transform="matrix(1.00, 0.00, -0.00, -1.00, 433.0, 340.0)"></image><text xml:space="preserve" font-family="Chalkduster,Chalkduster" font-size="26.0" fill="#FEE55E" transform="matrix(1.00, 0.00, -0.00, -1.00, 437.0, 315.4)">v</text><text xml:space="preserve" font-family="Chalkduster,Chalkduster" font-size="26.0" fill="#FEE55E" transform="matrix(1.00, 0.00, -0.00, -1.00, 453.2, 315.4)">i</text><text xml:space="preserve" font-family="Chalkduster,Chalkduster" font-size="26.0" fill="#FEE55E" transform="matrix(1.00, 0.00, -0.00, -1.00, 463.5, 315.4)">s</text><text xml:space="preserve" font-family="Chalkduster,Chalkduster" font-size="26.0" fill="#FEE55E" transform="matrix(1.00, 0.00, -0.00, -1.00, 476.6, 315.4)">u</text><text xml:space="preserve" font-family="Chalkduster,Chalkduster" font-size="26.0" fill="#FEE55E" transform="matrix(1.00, 0.00, -0.00, -1.00, 494.5, 315.4)">a</text><text xml:space="preserve" font-family="Chalkduster,Chalkduster" font-size="26.0" fill="#FEE55E" transform="matrix(1.00, 0.00, -0.00, -1.00, 511.3, 315.4)">l</text><text xml:space="preserve" font-family="Chalkduster,Chalkduster" font-size="26.0" fill="#FEE55E" transform="matrix(1.00, 0.00, -0.00, -1.00, 523.8, 315.4)">i</text><text xml:space="preserve" font-family="Chalkduster,Chalkduster" font-size="26.0" fill="#FEE55E" transform="matrix(1.00, 0.00, -0.00, -1.00, 534.1, 315.4)">z</text><text xml:space="preserve" font-family="Chalkduster,Chalkduster" font-size="26.0" fill="#FEE55E" transform="matrix(1.00, 0.00, -0.00, -1.00, 549.7, 315.4)">e</text><text xml:space="preserve" font-family="Chalkduster,Chalkduster" font-size="26.0" fill="#FEE55E" transform="matrix(1.00, 0.00, -0.00, -1.00, 566.7, 315.4)">d</text><image xlink:href="94BCE344C734EF0DF6CE0419FC62FF0C.png" width="161.00" height="16.00" transform="matrix(1.00, 0.00, -0.00, -1.00, 656.5, 355.9)"></image><path d="M 678.4 348.0 C 678.1 348.2 677.1 347.9 676.8 348.1 M 678.4 348.0 C 677.5 346.5 675.7 346.4 673.4 346.1 C 670.8 346.1 673.5 347.5 673.1 348.1 C 669.8 348.7 669.8 347.6 670.3 346.0 C 669.0 347.1 665.2 345.2 666.0 347.2 C 671.4 347.2 662.3 347.6 666.7 348.8 C 667.2 349.1 665.9 349.6 665.4 349.6 C 666.9 350.4 664.4 351.4 666.8 352.0 C 667.1 353.2 666.7 352.7 668.2 353.7 C 668.8 353.8 668.6 353.4 668.5 353.1 C 668.7 351.6 670.3 353.9 671.6 353.0 C 672.7 354.9 673.9 352.6 672.9 351.8 C 674.0 352.1 675.3 354.1 676.5 352.7 C 677.1 353.6 680.2 353.0 678.4 351.8 C 677.0 351.0 678.5 350.5 678.7 350.0 C 678.3 349.6 676.4 350.2 676.1 349.9 C 676.7 349.5 679.1 348.9 676.5 348.9 C 677.3 348.3 676.1 347.9 678.4 348.0 C 678.4 348.0 678.4 348.0 678.4 348.0 Z M 669.4 346.9 C 669.4 346.4 670.2 346.9 669.4 346.9 C 669.4 346.9 669.4 346.9 669.4 346.9 Z M 675.5 353.6 C 675.5 353.1 676.4 353.7 675.5 353.6 C 675.5 353.6 675.5 353.6 675.5 353.6 Z M 668.9 353.1 C 668.9 352.6 669.8 353.1 668.9 353.1 C 668.9 353.1 668.9 353.1 668.9 353.1 Z M 671.7 347.2 C 673.2 347.6 670.5 347.9 670.3 347.4 C 670.6 347.5 671.4 346.8 671.7 347.2 C 671.7 347.2 671.7 347.2 671.7 347.2 Z M 671.9 350.1 C 672.0 349.9 672.6 349.9 672.6 350.4 C 672.2 350.5 671.8 350.3 671.9 350.1 C 671.9 350.1 671.9 350.1 671.9 350.1 Z M 664.9 348.0 C 665.0 347.9 665.6 347.8 665.5 348.3 C 665.1 348.4 664.8 348.2 664.9 348.0 C 664.9 348.0 664.9 348.0 664.9 348.0 Z M 673.3 348.5 C 673.7 348.6 673.8 349.1 673.4 349.1 C 673.2 348.9 672.2 348.8 673.3 348.5 C 673.3 348.5 673.3 348.5 673.3 348.5 Z M 675.6 346.8 C 676.8 347.1 674.4 347.9 674.4 347.6 C 674.0 347.3 674.9 346.4 675.6 346.8 C 675.6 346.8 675.6 346.8 675.6 346.8 Z M 674.0 349.2 C 675.0 349.5 673.6 349.6 674.0 349.2 C 674.0 349.2 674.0 349.2 674.0 349.2 Z M 665.8 351.8 C 666.8 352.0 665.4 352.2 665.8 351.8 C 665.8 351.8 665.8 351.8 665.8 351.8 Z M 671.0 353.4 C 672.0 353.6 670.6 353.7 671.0 353.4 C 671.0 353.4 671.0 353.4 671.0 353.4 Z M 669.1 348.2 C 667.4 348.2 668.9 346.9 669.1 348.2 C 669.1 348.2 669.1 348.2 669.1 348.2 Z M 678.3 346.7 C 676.6 346.7 678.1 345.4 678.3 346.7 C 678.3 346.7 678.3 346.7 678.3 346.7 Z M 806.8 347.2 C 808.4 346.9 802.2 345.3 804.6 347.2 C 805.2 348.9 801.1 348.7 802.1 347.2 C 800.9 347.0 800.9 346.9 800.2 347.7 C 800.0 346.5 797.1 345.9 796.1 346.5 C 795.5 347.5 798.0 346.7 796.4 347.8 C 792.8 348.1 796.6 348.9 795.2 350.3 C 795.1 350.3 795.0 349.6 794.7 350.0 C 794.6 351.2 796.7 352.1 795.7 353.0 C 796.3 352.9 798.9 354.2 797.8 353.1 C 797.4 351.9 800.6 354.6 800.4 352.6 C 801.3 353.5 802.2 352.3 803.0 353.4 C 803.7 353.6 803.6 352.6 803.6 352.3 C 803.5 351.4 804.3 354.4 805.4 352.8 C 805.5 353.2 808.4 353.0 806.2 352.3 C 806.8 352.5 810.2 352.9 808.4 351.1 C 806.1 350.3 810.8 349.3 808.1 349.2 C 806.0 349.0 805.5 349.4 807.1 348.5 C 807.6 348.6 810.0 348.4 808.0 347.6 C 807.5 347.8 806.5 347.7 806.8 347.2 C 806.8 347.2 806.8 347.2 806.8 347.2 Z M 807.2 349.8 C 806.0 349.8 807.1 349.1 807.2 349.8 C 807.2 349.8 807.2 349.8 807.2 349.8 Z M 802.8 353.8 C 801.6 353.9 802.7 353.1 802.8 353.8 C 802.8 353.8 802.8 353.8 802.8 353.8 Z M 803.0 346.7 C 802.4 347.3 802.2 345.4 803.0 346.7 C 803.0 346.7 803.0 346.7 803.0 346.7 Z M 804.9 352.3 C 804.8 352.3 805.1 352.1 805.3 352.0 C 805.3 352.1 805.0 352.3 804.9 352.3 C 804.9 352.3 804.9 352.3 804.9 352.3 Z M 800.9 346.7 C 799.1 347.6 800.6 345.3 800.9 346.7 C 800.9 346.7 800.9 346.7 800.9 346.7 Z M 797.3 348.5 C 797.1 350.3 795.4 348.1 797.3 348.5 C 797.3 348.5 797.3 348.5 797.3 348.5 Z M 799.8 352.5 C 800.1 352.1 800.1 352.7 799.8 352.5 C 799.8 352.5 799.8 352.5 799.8 352.5 Z M 807.7 352.8 C 808.0 352.4 808.0 353.0 807.7 352.8 C 807.7 352.8 807.7 352.8 807.7 352.8 Z M 797.5 352.3 C 797.7 351.7 798.2 352.7 797.5 352.3 C 797.5 352.3 797.5 352.3 797.5 352.3 Z M 802.6 347.5 C 804.3 346.0 804.7 349.6 802.6 347.5 C 802.6 347.5 802.6 347.5 802.6 347.5 Z M 805.6 347.3 C 806.8 347.0 805.4 348.2 804.9 348.0 C 805.0 347.9 805.4 347.4 805.6 347.3 C 805.6 347.3 805.6 347.3 805.6 347.3 Z M 800.9 347.6 C 802.0 346.9 802.0 348.0 800.9 347.6 C 800.9 347.6 800.9 347.6 800.9 347.6 Z M 803.8 346.8 C 804.4 347.0 803.3 347.0 803.8 346.8 C 803.8 346.8 803.8 346.8 803.8 346.8 Z M 798.7 346.1 C 799.2 346.3 798.2 346.3 798.7 346.1 C 798.7 346.1 798.7 346.1 798.7 346.1 Z M 807.0 346.6 C 807.6 346.7 806.6 346.8 807.0 346.6 C 807.0 346.6 807.0 346.6 807.0 346.6 Z M 799.1 347.1 C 799.0 347.7 800.6 349.2 797.7 348.0 C 797.2 347.5 798.4 346.5 799.1 347.1 C 799.1 347.1 799.1 347.1 799.1 347.1 Z M 682.0 348.0 C 676.6 346.0 677.9 349.5 677.7 350.2 C 677.0 351.2 677.7 351.8 678.7 352.5 C 679.8 354.7 680.4 350.1 681.2 352.4 C 682.7 355.4 682.8 349.7 683.5 352.9 C 683.2 353.8 685.3 353.1 685.1 352.9 C 686.2 354.4 687.6 351.7 687.7 351.4 C 688.4 351.8 688.4 354.7 690.6 352.6 C 692.2 351.8 693.0 354.6 692.5 352.7 C 693.7 354.9 693.4 352.1 694.6 352.8 C 695.4 354.0 694.6 350.9 696.1 353.2 C 696.8 351.4 695.4 354.5 699.6 353.1 C 697.6 353.0 701.5 351.7 700.7 352.9 C 699.3 354.2 702.6 352.4 704.5 353.2 C 705.0 352.5 707.3 350.9 706.9 352.7 C 708.8 354.8 708.8 351.4 709.7 353.1 C 710.3 353.9 710.6 352.3 711.0 352.4 C 711.7 353.7 712.3 352.9 714.7 353.2 C 720.0 353.9 715.5 349.9 717.5 349.4 C 717.8 348.8 714.9 344.6 716.1 347.8 C 715.7 346.9 711.4 350.2 713.5 346.7 C 711.9 348.1 713.9 345.2 710.6 346.9 C 715.1 349.4 705.5 347.9 709.8 346.7 C 709.1 346.0 707.3 346.1 708.6 346.7 C 709.1 349.0 705.5 345.7 707.3 348.4 C 704.5 347.7 705.2 350.1 704.5 348.4 C 703.8 345.5 704.6 349.2 703.2 348.3 C 699.9 348.3 702.4 344.9 700.5 347.1 C 697.3 345.7 699.8 348.4 698.6 348.8 C 698.3 350.9 695.4 347.2 697.8 347.0 C 696.5 348.1 697.6 346.0 696.1 347.3 C 697.2 349.2 694.2 345.3 694.7 346.8 C 693.4 347.3 694.0 348.4 693.6 348.5 C 691.7 348.5 692.3 346.6 691.9 348.0 C 691.4 348.8 690.5 346.3 690.3 346.9 C 692.3 347.0 688.6 348.9 688.4 347.9 C 689.6 347.8 687.8 345.4 687.0 346.9 C 688.0 351.0 685.2 345.8 684.3 347.3 C 685.2 349.6 680.0 347.6 681.9 346.5 C 681.8 346.7 682.0 348.0 682.0 348.0 M 689.7 347.3 C 691.3 347.4 687.9 347.7 689.7 347.3 M 689.6 346.6 C 690.3 347.4 688.1 346.1 689.7 346.4 C 689.7 346.4 689.5 346.6 689.6 346.6 M 696.4 346.6 C 696.2 347.2 695.5 346.2 696.4 346.6 M 697.8 348.0 C 698.8 348.6 696.3 348.1 697.8 348.0 M 712.8 347.5 C 711.3 351.0 711.2 345.6 712.8 347.5 M 702.9 346.8 C 701.0 347.3 703.5 345.4 702.9 346.8 M 702.3 347.7 C 701.5 348.3 702.1 346.9 702.3 347.7 M 710.0 347.5 C 710.1 347.6 710.1 347.6 710.0 347.5 C 710.0 347.5 710.0 347.5 710.0 347.5 Z M 714.4 347.6 C 714.5 347.6 714.5 347.6 714.4 347.6 C 714.4 347.6 714.4 347.6 714.4 347.6 Z M 705.6 347.9 C 704.2 347.1 707.9 347.6 705.6 347.9 C 705.6 347.9 705.6 347.9 705.6 347.9 Z M 712.3 352.8 C 712.2 352.9 712.2 352.9 712.3 352.8 C 712.3 352.8 712.3 352.8 712.3 352.8 Z M 688.4 348.8 C 688.3 348.9 688.3 348.9 688.4 348.8 C 688.4 348.8 688.4 348.8 688.4 348.8 Z M 683.3 347.5 C 683.4 348.0 682.4 347.2 683.3 347.5 C 683.3 347.5 683.3 347.5 683.3 347.5 Z M 679.2 351.4 C 679.1 351.5 679.1 351.5 679.2 351.4 C 679.2 351.4 679.2 351.4 679.2 351.4 Z M 686.7 350.6 C 686.6 350.7 686.6 350.7 686.7 350.6 C 686.7 350.6 686.7 350.6 686.7 350.6 Z M 687.4 348.1 C 686.6 346.2 689.3 348.6 687.4 348.1 C 687.4 348.1 687.4 348.1 687.4 348.1 Z M 703.9 352.6 C 704.0 351.8 705.1 352.9 703.9 352.6 C 703.9 352.6 703.9 352.6 703.9 352.6 Z M 697.9 348.7 C 698.2 348.3 698.7 348.9 697.9 348.7 C 697.9 348.7 697.9 348.7 697.9 348.7 Z M 695.1 346.2 C 695.4 345.8 695.9 346.4 695.1 346.2 C 695.1 346.2 695.1 346.2 695.1 346.2 Z M 683.4 347.0 C 683.5 346.9 683.5 346.9 683.4 347.0 C 683.4 347.0 683.4 347.0 683.4 347.0 Z M 685.2 348.4 C 683.9 346.7 687.1 349.4 685.2 348.4 C 685.2 348.4 685.2 348.4 685.2 348.4 Z M 683.0 348.9 C 683.7 349.6 681.4 348.6 683.0 348.9 M 684.3 351.6 C 685.8 350.9 682.9 354.8 684.3 351.6 C 684.3 351.6 684.3 351.6 684.3 351.6 Z M 692.1 352.3 C 692.2 352.4 692.2 352.4 692.1 352.3 C 692.1 352.3 692.1 352.3 692.1 352.3 Z M 691.3 347.2 C 692.7 347.3 690.4 347.6 691.3 347.2 C 691.3 347.2 691.3 347.2 691.3 347.2 Z M 679.5 346.8 C 680.9 346.9 678.6 347.2 679.5 346.8 C 679.5 346.8 679.5 346.8 679.5 346.8 Z M 696.7 350.6 C 698.9 350.3 695.3 351.6 696.7 350.6 C 696.7 350.6 696.7 350.6 696.7 350.6 Z M 704.9 348.6 C 704.9 348.6 704.9 348.6 704.9 348.6 C 704.9 348.6 704.9 348.6 704.9 348.6 Z M 706.4 347.8 C 706.4 347.9 706.4 347.9 706.4 347.8 C 706.4 347.8 706.4 347.8 706.4 347.8 Z M 712.7 349.7 C 712.8 349.7 712.8 349.7 712.7 349.7 C 712.7 349.7 712.7 349.7 712.7 349.7 Z M 707.8 347.0 C 707.8 347.0 707.8 347.0 707.8 347.0 C 707.8 347.0 707.8 347.0 707.8 347.0 Z M 712.1 347.5 C 712.2 347.5 712.2 347.5 712.1 347.5 C 712.1 347.5 712.1 347.5 712.1 347.5 Z M 711.5 345.9 C 711.6 346.0 711.6 346.0 711.5 345.9 C 711.5 345.9 711.5 345.9 711.5 345.9 Z M 701.8 353.6 C 701.9 353.7 701.9 353.7 701.8 353.6 C 701.8 353.6 701.8 353.6 701.8 353.6 Z M 685.8 346.4 C 685.9 346.6 685.9 346.6 685.8 346.4 C 685.8 346.4 685.8 346.4 685.8 346.4 Z M 711.8 348.1 C 711.8 348.2 711.8 348.2 711.8 348.1 C 711.8 348.1 711.8 348.1 711.8 348.1 Z M 701.1 349.5 C 701.1 351.1 700.2 347.6 701.3 349.5 C 701.3 349.6 701.0 349.3 701.1 349.5 M 702.5 352.0 C 702.5 352.1 702.5 352.1 702.5 352.0 C 702.5 352.0 702.5 352.0 702.5 352.0 Z M 697.7 353.0 C 697.6 353.0 697.6 353.0 697.7 353.0 C 697.7 353.0 697.7 353.0 697.7 353.0 Z M 707.0 346.7 C 706.8 345.9 708.2 347.3 706.8 346.7 M 712.8 352.3 C 712.6 351.5 714.0 352.9 712.6 352.3 M 677.9 347.4 C 677.8 348.0 677.0 347.0 677.9 347.4 M 696.6 353.8 C 696.4 354.4 695.7 353.4 696.6 353.8 M 698.8 351.9 C 698.6 351.0 700.0 352.5 698.7 351.9 M 709.4 352.2 C 709.5 352.3 709.5 352.3 709.4 352.2 C 709.4 352.2 709.4 352.2 709.4 352.2 Z M 693.4 347.4 C 693.4 347.4 693.4 347.4 693.4 347.4 C 693.4 347.4 693.4 347.4 693.4 347.4 Z M 699.3 349.1 C 698.5 348.0 700.4 349.9 699.3 349.1 M 691.6 349.4 C 690.5 347.9 693.5 349.8 691.6 349.4 M 715.3 352.7 C 714.0 350.9 716.2 353.6 715.3 352.7 M 708.8 348.3 C 707.4 346.6 709.7 349.3 708.8 348.3 M 694.6 348.1 C 694.5 347.2 695.9 348.6 694.6 348.1 M 681.0 347.2 C 679.8 347.1 682.7 346.5 681.0 347.2 M 706.2 352.3 C 706.3 352.4 706.3 352.4 706.2 352.3 C 706.2 352.3 706.2 352.3 706.2 352.3 Z M 685.1 353.8 C 685.2 353.9 685.2 353.9 685.1 353.8 C 685.1 353.8 685.1 353.8 685.1 353.8 Z M 717.0 347.0 C 717.0 347.0 717.0 347.0 717.0 347.0 C 717.0 347.0 717.0 347.0 717.0 347.0 Z M 708.0 349.1 C 708.0 349.2 708.0 349.2 708.0 349.1 C 708.0 349.1 708.0 349.1 708.0 349.1 Z M 714.4 346.7 C 714.5 346.9 714.5 346.9 714.4 346.7 C 714.4 346.7 714.4 346.7 714.4 346.7 Z M 703.9 350.5 C 703.9 350.5 703.9 350.5 703.9 350.5 C 703.9 350.5 703.9 350.5 703.9 350.5 Z M 703.0 346.1 C 703.1 346.1 703.1 346.1 703.0 346.1 C 703.0 346.1 703.0 346.1 703.0 346.1 Z M 698.5 347.9 C 698.6 348.0 698.6 348.0 698.5 347.9 C 698.5 347.9 698.5 347.9 698.5 347.9 Z M 705.1 346.4 C 707.8 346.1 703.7 347.9 705.1 346.4 C 705.1 346.4 705.1 346.4 705.1 346.4 Z M 700.4 350.8 C 700.5 350.9 700.5 350.9 700.4 350.8 C 700.4 350.8 700.4 350.8 700.4 350.8 Z M 700.1 347.7 C 701.8 346.4 701.0 349.8 700.1 347.7 M 692.6 346.7 C 693.1 346.0 692.8 347.7 692.6 346.7 M 689.6 352.4 C 689.6 352.5 689.6 352.5 689.6 352.4 C 689.6 352.4 689.6 352.4 689.6 352.4 Z M 690.4 352.0 C 690.5 352.0 690.5 352.0 690.4 352.0 C 690.4 352.0 690.4 352.0 690.4 352.0 Z M 690.8 346.4 C 690.8 346.4 690.8 346.4 690.8 346.4 C 690.8 346.4 690.8 346.4 690.8 346.4 Z M 690.5 353.6 C 690.6 353.7 690.6 353.7 690.5 353.6 C 690.5 353.6 690.5 353.6 690.5 353.6 Z M 702.0 346.2 C 702.0 346.2 702.0 346.2 702.0 346.2 C 702.0 346.2 702.0 346.2 702.0 346.2 Z M 715.8 346.1 C 715.8 346.1 715.8 346.1 715.8 346.1 C 715.8 346.1 715.8 346.1 715.8 346.1 Z M 681.4 351.8 C 681.5 351.9 681.5 351.9 681.4 351.8 C 681.4 351.8 681.4 351.8 681.4 351.8 Z M 703.4 347.9 C 703.5 348.0 703.5 348.0 703.4 347.9 C 703.4 347.9 703.4 347.9 703.4 347.9 Z M 687.7 352.2 C 687.7 352.2 687.7 352.2 687.7 352.2 C 687.7 352.2 687.7 352.2 687.7 352.2 Z M 702.5 347.6 C 702.6 347.6 702.6 347.6 702.5 347.6 C 702.5 347.6 702.5 347.6 702.5 347.6 Z M 705.8 352.7 C 705.8 352.7 705.8 352.7 705.8 352.7 C 705.8 352.7 705.8 352.7 705.8 352.7 Z M 708.7 353.7 C 708.8 353.7 708.8 353.7 708.7 353.7 C 708.7 353.7 708.7 353.7 708.7 353.7 Z M 705.6 349.6 C 705.6 349.6 705.6 349.6 705.6 349.6 C 705.6 349.6 705.6 349.6 705.6 349.6 Z M 686.7 350.3 C 681.3 348.8 691.0 349.6 686.7 350.3 M 706.5 350.0 C 702.7 349.6 709.5 348.2 706.5 350.0 C 706.9 349.5 706.5 349.9 706.5 350.0 M 718.3 346.3 C 716.7 347.9 716.8 349.4 717.4 351.1 C 718.2 351.9 718.2 348.7 718.2 351.5 C 716.4 352.0 719.0 355.6 718.9 352.0 C 721.3 351.5 719.3 354.3 720.7 352.9 C 723.2 352.5 721.9 353.6 723.8 353.4 C 725.0 351.4 725.0 354.3 725.5 352.5 C 724.5 354.5 727.5 351.9 727.6 352.8 C 725.8 354.1 734.2 352.9 729.7 352.3 C 731.5 351.3 731.2 353.0 731.8 353.2 C 732.6 352.1 734.9 354.2 736.0 353.0 C 735.8 352.7 735.2 352.7 735.1 352.3 C 734.7 351.5 736.3 352.4 736.2 352.4 C 736.9 352.0 740.0 350.7 736.7 352.8 C 736.6 353.8 739.3 352.4 739.3 353.3 C 742.1 353.3 739.9 351.4 741.2 352.8 C 743.2 352.8 744.6 352.8 744.6 352.6 C 745.8 352.8 746.1 353.9 747.1 352.8 C 749.6 354.9 748.9 348.8 749.8 352.9 C 750.5 351.9 751.2 354.6 751.1 352.1 C 750.2 353.2 755.2 354.1 753.1 352.2 C 753.6 351.6 756.8 354.8 756.3 352.2 C 757.5 350.4 757.3 348.5 754.8 346.7 C 755.1 348.1 752.2 345.1 754.1 347.7 C 756.2 348.5 750.2 348.6 751.5 347.7 C 751.8 344.6 748.6 349.5 747.3 347.4 C 748.3 348.6 743.5 349.2 744.9 346.9 C 744.0 346.7 743.8 347.8 742.8 346.5 C 745.7 346.7 741.7 348.9 741.9 347.5 C 742.4 346.6 738.0 345.9 738.5 347.2 C 740.0 350.3 737.3 346.6 736.6 347.8 C 734.2 348.5 737.0 345.2 735.2 347.4 C 734.7 347.0 731.5 347.0 733.6 346.4 C 734.3 346.7 731.7 349.8 731.3 347.2 C 734.7 345.7 727.4 346.3 728.6 347.2 C 733.8 348.6 723.0 348.8 727.1 347.4 C 724.8 345.9 727.8 346.8 724.9 347.4 C 725.3 348.2 723.1 349.1 723.6 347.4 C 723.1 344.8 722.8 350.7 721.0 347.3 C 720.8 345.8 717.5 348.4 718.8 346.7 C 718.9 346.6 718.4 346.3 718.3 346.3 M 719.3 346.6 C 719.0 347.1 718.7 345.9 719.3 346.6 M 718.9 347.1 C 718.9 347.1 718.9 347.1 718.9 347.1 C 718.9 347.1 718.9 347.1 718.9 347.1 Z M 724.5 347.5 C 724.5 347.4 724.5 347.4 724.5 347.5 C 724.5 347.5 724.5 347.5 724.5 347.5 Z M 728.9 353.8 C 728.9 353.8 728.9 353.8 728.9 353.8 C 728.9 353.8 728.9 353.8 728.9 353.8 Z M 728.2 347.6 C 728.2 347.6 728.2 347.6 728.2 347.6 C 728.2 347.6 728.2 347.6 728.2 347.6 Z M 722.5 347.9 C 722.5 347.9 722.5 347.9 722.5 347.9 C 722.5 347.9 722.5 347.9 722.5 347.9 Z M 727.9 346.7 C 728.2 347.7 726.6 346.0 727.9 346.6 C 728.0 346.6 727.7 346.6 727.9 346.7 M 732.7 346.3 C 732.8 346.5 732.8 346.5 732.7 346.3 M 743.4 353.8 C 743.5 353.9 743.5 353.9 743.4 353.8 M 744.3 346.3 C 744.4 346.4 744.4 346.4 744.3 346.3 M 737.6 347.3 C 739.1 347.2 737.9 347.8 737.6 347.3 M 748.2 346.8 C 746.4 346.2 750.2 346.3 748.2 346.8 M 750.0 346.2 C 750.2 346.3 750.2 346.3 750.0 346.2 M 741.6 346.6 C 741.6 346.7 741.6 346.7 741.6 346.6 C 741.6 346.6 741.6 346.6 741.6 346.6 Z M 736.9 346.9 C 735.0 346.4 738.9 346.0 736.9 346.9 M 725.2 346.6 C 726.2 346.1 725.2 347.8 725.2 346.6 M 723.0 347.1 C 722.9 347.2 722.9 347.2 723.0 347.1 C 723.0 347.1 723.0 347.1 723.0 347.1 Z M 745.2 346.7 C 745.2 346.8 745.2 346.8 745.2 346.7 C 745.2 346.7 745.2 346.7 745.2 346.7 Z M 747.4 346.6 C 747.3 346.6 747.3 346.6 747.4 346.6 C 747.4 346.6 747.4 346.6 747.4 346.6 Z M 751.0 353.5 C 750.9 353.6 750.9 353.6 751.0 353.5 C 751.0 353.5 751.0 353.5 751.0 353.5 Z M 724.6 350.0 C 723.2 349.5 726.1 347.7 725.8 349.4 C 725.9 350.1 724.8 349.9 724.6 350.0 M 735.5 349.0 C 735.9 351.4 734.1 345.8 735.5 349.0 M 750.3 347.8 C 751.7 350.6 748.5 345.8 750.3 347.8 M 753.2 347.3 C 754.1 347.9 747.8 347.6 752.2 346.9 C 752.6 346.4 752.9 347.0 753.2 347.3 M 732.8 347.5 C 733.2 348.8 730.5 346.9 732.8 347.5 M 741.7 351.4 C 742.4 350.6 744.3 349.8 743.5 351.3 C 743.5 353.1 740.9 352.1 741.7 351.4 M 719.8 347.9 C 721.0 345.8 719.7 349.7 719.8 347.9 M 725.4 348.1 C 725.5 348.0 725.5 348.0 725.4 348.1 C 725.4 348.1 725.4 348.1 725.4 348.1 Z M 727.7 347.7 C 727.8 347.9 727.8 347.9 727.7 347.7 M 720.7 346.1 C 720.8 346.2 720.8 346.2 720.7 346.1 M 741.7 349.2 C 741.8 349.4 741.8 349.4 741.7 349.2 M 737.1 347.8 C 739.3 349.9 736.0 348.3 737.1 347.8 M 731.8 351.8 C 732.5 352.8 730.5 351.9 731.8 351.8 M 740.7 347.1 C 742.2 349.0 738.6 348.9 740.7 347.1 M 736.1 347.6 C 736.2 347.6 736.2 347.6 736.1 347.6 C 736.1 347.6 736.1 347.6 736.1 347.6 Z M 742.3 351.6 C 742.3 351.7 742.3 351.7 742.3 351.6 C 742.3 351.6 742.3 351.6 742.3 351.6 Z M 743.0 351.5 C 742.9 351.6 742.9 351.6 743.0 351.5 C 743.0 351.5 743.0 351.5 743.0 351.5 Z M 742.6 346.8 C 742.5 346.9 742.5 346.9 742.6 346.8 C 742.6 346.8 742.6 346.8 742.6 346.8 Z M 722.8 352.5 C 724.4 352.7 721.6 352.9 722.8 352.5 C 722.8 352.5 722.8 352.5 722.8 352.5 Z M 729.6 346.7 C 732.2 348.3 727.9 348.2 729.6 346.7 C 729.6 346.7 729.6 346.7 729.6 346.7 Z M 732.5 349.3 C 732.5 349.4 732.5 349.4 732.5 349.3 C 732.5 349.3 732.5 349.3 732.5 349.3 Z M 739.7 345.8 C 739.7 346.0 739.7 346.0 739.7 345.8 C 739.7 345.8 739.7 345.8 739.7 345.8 Z M 723.6 352.8 C 723.6 352.9 723.6 352.9 723.6 352.8 C 723.6 352.8 723.6 352.8 723.6 352.8 Z M 747.0 347.9 C 747.0 348.0 747.0 348.0 747.0 347.9 C 747.0 347.9 747.0 347.9 747.0 347.9 Z M 738.1 351.9 C 738.7 351.2 738.2 352.6 738.1 351.9 C 738.1 351.9 738.1 351.9 738.1 351.9 Z M 740.4 352.0 C 740.5 351.9 740.5 351.9 740.4 352.0 C 740.4 352.0 740.4 352.0 740.4 352.0 Z M 750.6 346.1 C 750.7 346.1 750.7 346.1 750.6 346.1 C 750.6 346.1 750.6 346.1 750.6 346.1 Z M 746.3 353.8 C 746.4 353.8 746.4 353.8 746.3 353.8 C 746.3 353.8 746.3 353.8 746.3 353.8 Z M 748.2 351.5 C 748.2 351.5 748.2 351.5 748.2 351.5 C 748.2 351.5 748.2 351.5 748.2 351.5 Z M 742.2 347.3 C 744.5 346.9 741.7 348.2 742.2 347.3 C 742.2 347.3 742.2 347.3 742.2 347.3 Z M 753.9 350.9 C 754.0 351.0 754.0 351.0 753.9 350.9 C 753.9 350.9 753.9 350.9 753.9 350.9 Z M 755.1 348.2 C 755.2 348.3 755.2 348.3 755.1 348.2 C 755.1 348.2 755.1 348.2 755.1 348.2 Z M 755.7 346.7 C 755.7 346.9 755.7 346.9 755.7 346.7 C 755.7 346.7 755.7 346.7 755.7 346.7 Z M 727.6 350.6 C 727.6 350.5 727.6 350.5 727.6 350.6 C 727.6 350.6 727.6 350.6 727.6 350.6 Z M 726.7 346.3 C 726.7 346.2 726.7 346.2 726.7 346.3 C 726.7 346.3 726.7 346.3 726.7 346.3 Z M 729.8 346.1 C 729.8 346.0 729.8 346.0 729.8 346.1 C 729.8 346.1 729.8 346.1 729.8 346.1 Z M 727.1 353.3 C 727.0 353.2 727.0 353.2 727.1 353.3 C 727.1 353.3 727.1 353.3 727.1 353.3 Z M 738.8 349.6 C 738.7 349.5 738.7 349.5 738.8 349.6 C 738.8 349.6 738.8 349.6 738.8 349.6 Z M 739.8 351.3 C 739.8 351.3 739.8 351.3 739.8 351.3 C 739.8 351.3 739.8 351.3 739.8 351.3 Z M 737.2 353.7 C 737.1 353.7 737.1 353.7 737.2 353.7 C 737.2 353.7 737.2 353.7 737.2 353.7 Z M 740.7 352.9 C 740.7 352.8 740.7 352.8 740.7 352.9 C 740.7 352.9 740.7 352.9 740.7 352.9 Z M 719.2 352.5 C 719.2 352.5 719.2 352.5 719.2 352.5 C 719.2 352.5 719.2 352.5 719.2 352.5 Z M 719.0 349.1 C 718.9 349.2 718.9 349.2 719.0 349.1 C 719.0 349.1 719.0 349.1 719.0 349.1 Z M 739.1 347.1 C 739.6 346.4 740.2 348.1 739.1 347.1 M 734.7 347.6 C 734.6 347.6 734.6 347.6 734.7 347.6 C 734.7 347.6 734.7 347.6 734.7 347.6 Z M 746.6 347.3 C 747.2 348.6 744.5 346.6 746.6 347.3 C 746.6 347.3 746.6 347.3 746.6 347.3 Z M 744.2 352.9 C 744.3 352.9 744.3 352.9 744.2 352.9 C 744.2 352.9 744.2 352.9 744.2 352.9 Z M 745.4 352.3 C 745.5 352.4 745.5 352.4 745.4 352.3 C 745.4 352.3 745.4 352.3 745.4 352.3 Z M 751.9 348.7 C 752.0 348.8 752.0 348.8 751.9 348.7 M 734.1 346.4 C 734.8 347.0 734.6 346.8 734.1 346.4 M 748.1 347.3 C 748.0 347.3 748.0 347.3 748.1 347.3 C 748.1 347.3 748.1 347.3 748.1 347.3 Z M 753.3 347.9 C 753.2 348.0 753.2 348.0 753.3 347.9 C 753.3 347.9 753.3 347.9 753.3 347.9 Z M 730.9 347.3 C 731.0 348.9 730.4 348.5 730.9 347.3 M 722.1 347.8 C 722.1 347.9 722.1 347.9 722.1 347.8 C 722.1 347.8 722.1 347.8 722.1 347.8 Z M 760.3 346.8 C 757.9 345.0 757.9 347.5 757.9 347.6 C 758.2 344.2 755.8 348.9 756.3 349.6 C 756.2 350.0 758.0 356.0 759.7 352.4 C 760.2 351.9 760.5 353.0 760.8 353.1 C 763.8 352.9 758.8 351.2 762.4 351.2 C 763.0 351.7 762.3 354.5 764.4 352.6 C 764.5 352.8 766.9 353.9 766.0 352.6 C 767.1 353.9 767.9 352.3 768.9 352.0 C 769.9 352.8 768.1 354.1 771.6 352.5 C 773.1 354.9 773.6 350.8 775.0 353.3 C 775.8 353.4 777.2 349.2 775.2 351.6 C 775.4 351.3 774.2 349.3 776.9 350.0 C 776.5 350.6 775.0 354.9 779.3 352.8 C 780.0 352.9 781.7 351.8 782.1 352.3 C 779.8 352.8 785.1 354.2 784.6 352.9 C 788.0 353.8 786.0 351.8 788.5 353.3 C 790.6 353.3 787.8 351.3 790.4 352.5 C 792.3 352.2 791.0 353.3 790.8 353.2 C 792.5 353.5 793.1 352.7 793.6 352.7 C 794.0 352.9 794.8 353.8 795.2 352.7 C 796.9 350.8 795.3 348.8 796.1 346.9 C 794.8 346.0 795.5 348.4 794.6 346.9 C 794.0 348.1 794.5 346.8 791.0 347.1 C 791.1 347.4 792.0 348.2 791.1 348.4 C 789.8 348.2 790.7 344.9 788.5 347.2 C 791.1 347.9 784.8 348.3 787.2 349.0 C 784.2 349.4 786.4 348.7 784.1 347.9 C 784.3 350.2 784.0 345.5 783.1 347.3 C 782.9 346.4 779.4 346.8 781.9 348.2 C 778.3 348.8 780.6 347.5 779.3 346.3 C 777.6 346.2 779.2 349.9 778.1 347.2 C 776.0 346.0 778.0 348.6 776.5 346.4 C 777.2 348.3 774.9 346.4 775.5 348.5 C 771.7 348.6 775.9 346.3 773.3 347.7 C 774.1 347.8 773.8 345.0 772.2 346.8 C 772.9 350.1 770.1 343.9 771.3 348.3 C 766.1 349.5 770.4 346.4 767.5 346.4 C 766.8 346.4 768.3 347.9 767.7 347.9 C 764.0 347.3 767.0 346.2 765.1 348.3 C 761.5 348.8 764.1 346.4 762.3 346.3 C 762.1 347.3 760.7 349.0 760.3 346.8 M 763.6 347.8 C 764.3 347.1 764.1 348.5 763.6 347.8 M 756.3 346.8 C 757.0 346.1 756.7 347.5 756.3 346.8 M 766.6 347.2 C 767.6 346.5 766.9 348.3 766.6 347.2 M 786.2 348.2 C 784.8 348.2 786.8 347.7 786.2 348.2 M 759.2 346.7 C 760.3 345.8 759.5 347.8 759.2 346.7 M 757.9 348.3 C 757.9 348.4 757.9 348.4 757.9 348.3 M 788.1 346.5 C 788.2 346.5 788.2 346.5 788.1 346.5 M 782.9 346.4 C 784.0 346.5 782.2 346.9 782.9 346.4 M 782.7 353.6 C 783.8 353.7 782.0 354.1 782.7 353.6 M 791.0 346.4 C 792.1 345.8 791.3 347.2 791.0 346.4 M 793.9 348.0 C 794.9 347.3 794.6 348.7 793.9 348.0 M 762.9 350.3 C 762.9 350.4 762.9 350.4 762.9 350.3 C 762.9 350.3 762.9 350.3 762.9 350.3 Z M 772.5 352.1 C 771.4 351.4 774.0 353.0 772.5 352.1 M 770.8 347.4 C 771.5 348.9 769.3 347.3 770.8 347.4 C 770.8 347.4 770.8 347.4 770.8 347.4 Z M 769.1 348.1 C 769.1 348.1 769.1 348.1 769.1 348.1 C 769.1 348.1 769.1 348.1 769.1 348.1 Z M 774.5 348.1 C 774.5 348.2 774.5 348.2 774.5 348.1 C 774.5 348.1 774.5 348.1 774.5 348.1 Z M 773.4 348.3 C 773.0 348.6 772.8 348.0 773.4 348.3 C 773.4 348.3 773.4 348.3 773.4 348.3 Z M 781.3 352.9 C 780.8 353.2 780.7 352.6 781.3 352.9 C 781.3 352.9 781.3 352.9 781.3 352.9 Z M 771.7 348.8 C 771.5 350.2 770.9 347.8 771.7 348.8 C 771.7 348.8 771.7 348.8 771.7 348.8 Z M 777.5 352.2 C 778.0 351.9 778.5 353.6 777.5 352.2 M 789.2 346.7 C 789.7 346.3 790.2 348.1 789.2 346.7 M 777.7 346.3 C 778.2 345.9 778.7 347.7 777.7 346.3 M 764.2 347.2 C 764.3 347.3 764.3 347.3 764.2 347.2 M 770.6 353.5 C 771.3 352.9 771.0 354.1 770.6 353.5 M 759.8 353.0 C 760.5 352.5 760.1 353.7 759.8 353.0 M 787.6 353.5 C 787.5 353.1 788.8 353.6 787.6 353.5 M 779.1 348.6 C 780.1 348.8 781.1 349.6 779.0 349.5 C 778.9 349.2 779.5 349.0 779.1 348.6 C 779.1 348.6 779.1 348.6 779.1 348.6 Z M 782.7 352.0 C 782.8 352.1 782.8 352.1 782.7 352.0 M 780.9 347.3 C 781.0 347.4 781.0 347.4 780.9 347.3 M 786.7 347.4 C 786.9 347.7 786.9 347.7 786.7 347.4 M 787.5 347.0 C 787.5 347.1 787.5 347.1 787.5 347.0 C 787.5 347.0 787.5 347.0 787.5 347.0 Z M 793.9 346.4 C 793.9 346.5 793.9 346.5 793.9 346.4 C 793.9 346.4 793.9 346.4 793.9 346.4 Z M 784.9 347.6 C 784.8 347.7 784.8 347.7 784.9 347.6 C 784.9 347.6 784.9 347.6 784.9 347.6 Z M 790.2 353.2 C 790.2 353.2 790.2 353.2 790.2 353.2 C 790.2 353.2 790.2 353.2 790.2 353.2 Z M 789.5 352.3 C 789.5 352.4 789.5 352.4 789.5 352.3 C 789.5 352.3 789.5 352.3 789.5 352.3 Z M 760.9 346.8 C 761.8 345.8 761.3 349.3 760.9 346.8 M 792.4 352.3 C 793.2 353.3 790.9 352.5 792.4 352.3 C 792.4 352.3 792.4 352.3 792.4 352.3 Z M 784.2 348.8 C 784.2 349.0 784.2 349.0 784.2 348.8 M 787.8 347.2 C 787.9 347.4 787.9 347.4 787.8 347.2 M 770.7 346.1 C 770.8 346.3 770.8 346.3 770.7 346.1 M 792.4 347.5 C 795.1 347.8 791.1 349.5 792.4 347.5 M 769.5 347.5 C 769.4 347.3 769.4 347.3 769.5 347.5 M 775.6 350.2 C 777.5 350.1 775.0 351.0 775.6 350.2 M 780.3 348.3 C 780.3 348.4 780.3 348.4 780.3 348.3 C 780.3 348.3 780.3 348.3 780.3 348.3 Z M 777.6 348.3 C 776.3 348.5 777.3 347.9 777.6 348.3 C 777.6 348.3 777.6 348.3 777.6 348.3 Z M 762.2 348.1 C 763.9 348.3 760.4 348.6 762.2 348.1 C 762.2 348.1 762.2 348.1 762.2 348.1 Z M 791.1 350.8 C 791.1 350.9 791.1 350.9 791.1 350.8 C 791.1 350.8 791.1 350.8 791.1 350.8 Z M 784.5 346.6 C 783.7 347.0 784.1 346.2 784.5 346.6 C 784.5 346.6 784.5 346.6 784.5 346.6 Z M 794.9 346.4 C 794.1 346.8 794.5 346.0 794.9 346.4 C 794.9 346.4 794.9 346.4 794.9 346.4 Z M 760.1 347.9 C 766.4 350.3 751.6 347.2 760.1 347.9 C 760.1 347.9 760.1 347.9 760.1 347.9 Z M 778.7 347.3 C 778.7 347.4 778.7 347.4 778.7 347.3 C 778.7 347.3 778.7 347.3 778.7 347.3 Z M 766.9 346.3 C 766.9 346.4 766.9 346.4 766.9 346.3 C 766.9 346.3 766.9 346.3 766.9 346.3 Z M 764.9 347.7 C 764.9 347.7 764.9 347.7 764.9 347.7 C 764.9 347.7 764.9 347.7 764.9 347.7 Z M 765.5 353.4 C 765.5 353.4 765.5 353.4 765.5 353.4 C 765.5 353.4 765.5 353.4 765.5 353.4 Z M 766.2 350.7 C 766.1 350.9 766.1 350.9 766.2 350.7 C 766.2 350.7 766.2 350.7 766.2 350.7 Z M 762.1 351.7 C 762.0 351.8 762.0 351.8 762.1 351.7 C 762.1 351.7 762.1 351.7 762.1 351.7 Z M 762.2 352.5 C 762.2 352.5 762.2 352.5 762.2 352.5 C 762.2 352.5 762.2 352.5 762.2 352.5 Z M 787.8 348.8 C 787.8 348.9 787.8 348.9 787.8 348.8 C 787.8 348.8 787.8 348.8 787.8 348.8 Z M 785.7 351.1 C 787.1 350.3 785.2 352.4 785.7 351.1 C 785.7 351.1 785.7 351.1 785.7 351.1 Z M 772.5 350.0 C 773.9 349.7 771.6 350.7 772.5 350.0 C 772.5 350.0 772.5 350.0 772.5 350.0 Z M 774.0 353.1 C 774.0 353.1 774.0 353.1 774.0 353.1 C 774.0 353.1 774.0 353.1 774.0 353.1 Z M 765.0 346.3 C 764.9 346.4 764.9 346.4 765.0 346.3 C 765.0 346.3 765.0 346.3 765.0 346.3 Z M 762.5 347.3 C 762.4 348.5 761.7 346.7 762.5 347.3 M 775.1 346.6 C 775.1 346.7 775.1 346.7 775.1 346.6 C 775.1 346.6 775.1 346.6 775.1 346.6 Z M 783.0 348.5 C 783.0 348.5 783.0 348.5 783.0 348.5 C 783.0 348.5 783.0 348.5 783.0 348.5 Z M 790.9 347.7 C 790.9 347.8 790.9 347.8 790.9 347.7 C 790.9 347.7 790.9 347.7 790.9 347.7 Z M 780.0 346.7 C 780.0 346.9 780.0 346.9 780.0 346.7 C 780.0 346.7 780.0 346.7 780.0 346.7 Z M 776.2 347.8 C 776.2 348.0 776.2 348.0 776.2 347.8 C 776.2 347.8 776.2 347.8 776.2 347.8 Z M 792.7 349.4 C 792.6 349.4 792.6 349.4 792.7 349.4 C 792.7 349.4 792.7 349.4 792.7 349.4 Z M 780.9 346.6 C 780.9 346.6 780.9 346.6 780.9 346.6 C 780.9 346.6 780.9 346.6 780.9 346.6 Z M 783.2 350.4 C 783.1 350.5 783.1 350.5 783.2 350.4 C 783.2 350.4 783.2 350.4 783.2 350.4 Z M 762.8 345.6 C 762.8 345.6 762.8 345.6 762.8 345.6 C 762.8 345.6 762.8 345.6 762.8 345.6 Z M 792.8 347.8 C 792.7 347.8 792.7 347.8 792.8 347.8 C 792.8 347.8 792.8 347.8 792.8 347.8 Z M 793.2 346.7 C 793.2 346.8 793.2 346.8 793.2 346.7 C 793.2 346.7 793.2 346.7 793.2 346.7 Z M 787.6 352.4 C 784.9 351.7 790.1 352.1 788.1 350.8 C 792.1 350.5 788.2 352.5 787.6 352.4 C 787.6 352.4 787.6 352.4 787.6 352.4 Z M 787.6 352.4 " fill="#FEE55E"></path></g></svg>