<?xml version="1.0" encoding="UTF-8" standalone="no"?><svg xmlns="http://www.w3.org/2000/svg" xmlns:xlink="http://www.w3.org/1999/xlink" clip-rule="evenodd" stroke-miterlimit="4.00" viewBox="0 0 1024 768"><desc>SVG generated by Keynote</desc><defs></defs><g transform="matrix(1.00, 0.00, -0.00, -1.00, 0.0, 768.0)"><path d="M 0.0 768.0 L 1024.0 768.0 L 1024.0 0.0 L 0.0 0.0 Z M 0.0 768.0 " fill="#FEFFFE"></path><g><clipPath id="clip-1155"><path d="M 1.0 31.0 L 493.0 31.0 L 493.0 1.0 L 1.0 1.0 Z M 0.8 30.9 "></path></clipPath><g clip-path="url(#clip-1155)"><g><clipPath id="clip-1156"><path d="M 1.0 -95.0 L 1025.0 -95.0 L 1025.0 165.0 L 1.0 165.0 Z M 1.0 -95.0 "></path></clipPath><g clip-path="url(#clip-1156)"><image xlink:href="../../BA1B074C-C213-488C-80E6-70F5F384B25C/assets/B5D64A48B9F241EBA296AA092A4CBD9C.png" width="2588.00" height="656.00" transform="matrix(0.40, 0.00, -0.00, -0.40, 1.0, 165.0)"></image></g></g></g></g><g><clipPath id="clip-1157"><path d="M 546.0 -4.0 L 1023.0 -4.0 L 1023.0 32.0 L 546.0 32.0 Z M 546.0 -4.0 "></path></clipPath><g clip-path="url(#clip-1157)"><image xlink:href="../../BA1B074C-C213-488C-80E6-70F5F384B25C/assets/572DFD7BE4CC87D196FAACB04556FEF3.png" width="954.00" height="72.00" transform="matrix(0.50, 0.00, -0.00, -0.50, 546.0, 32.0)"></image></g></g><g><clipPath id="clip-1158"><path d="M 2.0 31.0 L 491.0 31.0 L 491.0 737.0 L 2.0 737.0 Z M 2.0 31.0 "></path></clipPath><g clip-path="url(#clip-1158)"><image xlink:href="F9BA88C5B6CC984197367D4C1963886A.png" width="978.00" height="1412.00" transform="matrix(0.50, 0.00, -0.00, -0.50, 2.0, 737.0)"></image></g></g><g><clipPath id="clip-1159"><path d="M 524.0 115.0 L 1008.0 115.0 L 1008.0 707.0 L 524.0 707.0 Z M 524.0 115.0 "></path></clipPath><g clip-path="url(#clip-1159)"><image xlink:href="007267A667ADA805E4E362C2D133B7C0.png" width="968.00" height="1184.00" transform="matrix(0.50, 0.00, -0.00, -0.50, 524.0, 707.0)"></image></g></g></g></svg>