<?xml version="1.0" encoding="UTF-8" standalone="no"?><svg xmlns="http://www.w3.org/2000/svg" xmlns:xlink="http://www.w3.org/1999/xlink" clip-rule="evenodd" stroke-miterlimit="10" viewBox="0 0 1024 768"><desc>SVG generated by Keynote</desc><defs></defs><g transform="matrix(1.00, 0.00, -0.00, -1.00, 0.0, 768.0)"><path d="M 0.0 768.0 L 1024.0 768.0 L 1024.0 0.0 L 0.0 0.0 Z M 0.0 768.0 " fill="#FEFFFE"></path><path d="M 0.5 0.5 L 934.5 0.5 L 934.5 0.5 L 0.5 0.5 Z M 0.0 0.0 " fill="none" stroke="#9A9A99" stroke-width="1.00" transform="matrix(1.00, 0.00, 0.00, -1.00, 45.0, 613.0)"></path><text xml:space="preserve" font-family="HelveticaNeue-Light,Helvetica Neue" font-size="42.0" fill="#000000" transform="matrix(1.00, 0.00, -0.00, -1.00, 49.0, 645.2)">S</text><text xml:space="preserve" font-family="HelveticaNeue-Light,Helvetica Neue" font-size="42.0" fill="#000000" transform="matrix(1.00, 0.00, -0.00, -1.00, 75.5, 645.2)">y</text><text xml:space="preserve" font-family="HelveticaNeue-Light,Helvetica Neue" font-size="42.0" fill="#000000" transform="matrix(1.00, 0.00, -0.00, -1.00, 94.9, 645.2)">s</text><text xml:space="preserve" font-family="HelveticaNeue-Light,Helvetica Neue" font-size="42.0" fill="#000000" transform="matrix(1.00, 0.00, -0.00, -1.00, 115.1, 645.2)">t</text><text xml:space="preserve" font-family="HelveticaNeue-Light,Helvetica Neue" font-size="42.0" fill="#000000" transform="matrix(1.00, 0.00, -0.00, -1.00, 127.5, 645.2)">e</text><text xml:space="preserve" font-family="HelveticaNeue-Light,Helvetica Neue" font-size="42.0" fill="#000000" transform="matrix(1.00, 0.00, -0.00, -1.00, 149.3, 645.2)">m</text><text xml:space="preserve" font-family="HelveticaNeue-Light,Helvetica Neue" font-size="42.0" fill="#000000" transform="matrix(1.00, 0.00, -0.00, -1.00, 184.3, 645.2)">i</text><text xml:space="preserve" font-family="HelveticaNeue-Light,Helvetica Neue" font-size="42.0" fill="#000000" transform="matrix(1.00, 0.00, -0.00, -1.00, 192.1, 645.2)">c</text><text xml:space="preserve" font-family="HelveticaNeue-Light,Helvetica Neue" font-size="42.0" fill="#000000" transform="matrix(1.00, 0.00, -0.00, -1.00, 213.9, 645.2)"> </text><text xml:space="preserve" font-family="HelveticaNeue-Light,Helvetica Neue" font-size="42.0" fill="#000000" transform="matrix(1.00, 0.00, -0.00, -1.00, 225.6, 645.2)">t</text><text xml:space="preserve" font-family="HelveticaNeue-Light,Helvetica Neue" font-size="42.0" fill="#000000" transform="matrix(1.00, 0.00, -0.00, -1.00, 238.0, 645.2)">r</text><text xml:space="preserve" font-family="HelveticaNeue-Light,Helvetica Neue" font-size="42.0" fill="#000000" transform="matrix(1.00, 0.00, -0.00, -1.00, 250.5, 645.2)">e</text><text xml:space="preserve" font-family="HelveticaNeue-Light,Helvetica Neue" font-size="42.0" fill="#000000" transform="matrix(1.00, 0.00, -0.00, -1.00, 272.3, 645.2)">a</text><text xml:space="preserve" font-family="HelveticaNeue-Light,Helvetica Neue" font-size="42.0" fill="#000000" transform="matrix(1.00, 0.00, -0.00, -1.00, 294.1, 645.2)">t</text><text xml:space="preserve" font-family="HelveticaNeue-Light,Helvetica Neue" font-size="42.0" fill="#000000" transform="matrix(1.00, 0.00, -0.00, -1.00, 306.5, 645.2)">m</text><text xml:space="preserve" font-family="HelveticaNeue-Light,Helvetica Neue" font-size="42.0" fill="#000000" transform="matrix(1.00, 0.00, -0.00, -1.00, 341.5, 645.2)">e</text><text xml:space="preserve" font-family="HelveticaNeue-Light,Helvetica Neue" font-size="42.0" fill="#000000" transform="matrix(1.00, 0.00, -0.00, -1.00, 363.3, 645.2)">n</text><text xml:space="preserve" font-family="HelveticaNeue-Light,Helvetica Neue" font-size="42.0" fill="#000000" transform="matrix(1.00, 0.00, -0.00, -1.00, 385.8, 645.2)">t</text><text xml:space="preserve" font-family="HelveticaNeue-Light,Helvetica Neue" font-size="42.0" fill="#000000" transform="matrix(1.00, 0.00, -0.00, -1.00, 398.3, 645.2)"> </text><text xml:space="preserve" font-family="HelveticaNeue-Light,Helvetica Neue" font-size="42.0" fill="#000000" transform="matrix(1.00, 0.00, -0.00, -1.00, 409.9, 645.2)">o</text><text xml:space="preserve" font-family="HelveticaNeue-Light,Helvetica Neue" font-size="42.0" fill="#000000" transform="matrix(1.00, 0.00, -0.00, -1.00, 433.3, 645.2)">f</text><text xml:space="preserve" font-family="HelveticaNeue-Light,Helvetica Neue" font-size="42.0" fill="#000000" transform="matrix(1.00, 0.00, -0.00, -1.00, 444.2, 645.2)"> </text><text xml:space="preserve" font-family="HelveticaNeue-Light,Helvetica Neue" font-size="42.0" fill="#000000" transform="matrix(1.00, 0.00, -0.00, -1.00, 455.9, 645.2)">e</text><text xml:space="preserve" font-family="HelveticaNeue-Light,Helvetica Neue" font-size="42.0" fill="#000000" transform="matrix(1.00, 0.00, -0.00, -1.00, 477.7, 645.2)">n</text><text xml:space="preserve" font-family="HelveticaNeue-Light,Helvetica Neue" font-size="42.0" fill="#000000" transform="matrix(1.00, 0.00, -0.00, -1.00, 500.2, 645.2)">d</text><text xml:space="preserve" font-family="HelveticaNeue-Light,Helvetica Neue" font-size="42.0" fill="#000000" transform="matrix(1.00, 0.00, -0.00, -1.00, 524.3, 645.2)">e</text><text xml:space="preserve" font-family="HelveticaNeue-Light,Helvetica Neue" font-size="42.0" fill="#000000" transform="matrix(1.00, 0.00, -0.00, -1.00, 546.1, 645.2)">m</text><text xml:space="preserve" font-family="HelveticaNeue-Light,Helvetica Neue" font-size="42.0" fill="#000000" transform="matrix(1.00, 0.00, -0.00, -1.00, 581.1, 645.2)">i</text><text xml:space="preserve" font-family="HelveticaNeue-Light,Helvetica Neue" font-size="42.0" fill="#000000" transform="matrix(1.00, 0.00, -0.00, -1.00, 588.9, 645.2)">c</text><text xml:space="preserve" font-family="HelveticaNeue-Light,Helvetica Neue" font-size="42.0" fill="#000000" transform="matrix(1.00, 0.00, -0.00, -1.00, 610.7, 645.2)"> </text><text xml:space="preserve" font-family="HelveticaNeue-Light,Helvetica Neue" font-size="42.0" fill="#000000" transform="matrix(1.00, 0.00, -0.00, -1.00, 622.3, 645.2)">K</text><text xml:space="preserve" font-family="HelveticaNeue-Light,Helvetica Neue" font-size="42.0" fill="#000000" transform="matrix(1.00, 0.00, -0.00, -1.00, 649.6, 645.2)">a</text><text xml:space="preserve" font-family="HelveticaNeue-Light,Helvetica Neue" font-size="42.0" fill="#000000" transform="matrix(1.00, 0.00, -0.00, -1.00, 671.4, 645.2)">p</text><text xml:space="preserve" font-family="HelveticaNeue-Light,Helvetica Neue" font-size="42.0" fill="#000000" transform="matrix(1.00, 0.00, -0.00, -1.00, 695.5, 645.2)">o</text><text xml:space="preserve" font-family="HelveticaNeue-Light,Helvetica Neue" font-size="42.0" fill="#000000" transform="matrix(1.00, 0.00, -0.00, -1.00, 718.8, 645.2)">s</text><text xml:space="preserve" font-family="HelveticaNeue-Light,Helvetica Neue" font-size="42.0" fill="#000000" transform="matrix(1.00, 0.00, -0.00, -1.00, 739.0, 645.2)">i</text><text xml:space="preserve" font-family="HelveticaNeue-Light,Helvetica Neue" font-size="42.0" fill="#000000" transform="matrix(1.00, 0.00, -0.00, -1.00, 746.8, 645.2)">’</text><text xml:space="preserve" font-family="HelveticaNeue-Light,Helvetica Neue" font-size="42.0" fill="#000000" transform="matrix(1.00, 0.00, -0.00, -1.00, 753.8, 645.2)">s</text><text xml:space="preserve" font-family="HelveticaNeue-Light,Helvetica Neue" font-size="42.0" fill="#000000" transform="matrix(1.00, 0.00, -0.00, -1.00, 774.0, 645.2)"> </text><text xml:space="preserve" font-family="HelveticaNeue-Light,Helvetica Neue" font-size="42.0" fill="#000000" transform="matrix(1.00, 0.00, -0.00, -1.00, 785.7, 645.2)">s</text><text xml:space="preserve" font-family="HelveticaNeue-Light,Helvetica Neue" font-size="42.0" fill="#000000" transform="matrix(1.00, 0.00, -0.00, -1.00, 805.9, 645.2)">a</text><text xml:space="preserve" font-family="HelveticaNeue-Light,Helvetica Neue" font-size="42.0" fill="#000000" transform="matrix(1.00, 0.00, -0.00, -1.00, 827.7, 645.2)">r</text><text xml:space="preserve" font-family="HelveticaNeue-Light,Helvetica Neue" font-size="42.0" fill="#000000" transform="matrix(1.00, 0.00, -0.00, -1.00, 840.2, 645.2)">c</text><text xml:space="preserve" font-family="HelveticaNeue-Light,Helvetica Neue" font-size="42.0" fill="#000000" transform="matrix(1.00, 0.00, -0.00, -1.00, 862.0, 645.2)">o</text><text xml:space="preserve" font-family="HelveticaNeue-Light,Helvetica Neue" font-size="42.0" fill="#000000" transform="matrix(1.00, 0.00, -0.00, -1.00, 885.3, 645.2)">m</text><text xml:space="preserve" font-family="HelveticaNeue-Light,Helvetica Neue" font-size="42.0" fill="#000000" transform="matrix(1.00, 0.00, -0.00, -1.00, 920.3, 645.2)">a</text><text xml:space="preserve" font-family="HelveticaNeue-Light,Helvetica Neue" font-size="36.0" fill="#747373" transform="matrix(1.00, 0.00, -0.00, -1.00, 49.0, 554.7)">R</text><text xml:space="preserve" font-family="HelveticaNeue-Light,Helvetica Neue" font-size="36.0" fill="#747373" transform="matrix(1.00, 0.00, -0.00, -1.00, 73.0, 554.7)">a</text><text xml:space="preserve" font-family="HelveticaNeue-Light,Helvetica Neue" font-size="36.0" fill="#747373" transform="matrix(1.00, 0.00, -0.00, -1.00, 91.7, 554.7)">n</text><text xml:space="preserve" font-family="HelveticaNeue-Light,Helvetica Neue" font-size="36.0" fill="#747373" transform="matrix(1.00, 0.00, -0.00, -1.00, 111.0, 554.7)">d</text><text xml:space="preserve" font-family="HelveticaNeue-Light,Helvetica Neue" font-size="36.0" fill="#747373" transform="matrix(1.00, 0.00, -0.00, -1.00, 131.7, 554.7)">o</text><text xml:space="preserve" font-family="HelveticaNeue-Light,Helvetica Neue" font-size="36.0" fill="#747373" transform="matrix(1.00, 0.00, -0.00, -1.00, 151.7, 554.7)">m</text><text xml:space="preserve" font-family="HelveticaNeue-Light,Helvetica Neue" font-size="36.0" fill="#747373" transform="matrix(1.00, 0.00, -0.00, -1.00, 181.7, 554.7)">i</text><text xml:space="preserve" font-family="HelveticaNeue-Light,Helvetica Neue" font-size="36.0" fill="#747373" transform="matrix(1.00, 0.00, -0.00, -1.00, 188.4, 554.7)">z</text><text xml:space="preserve" font-family="HelveticaNeue-Light,Helvetica Neue" font-size="36.0" fill="#747373" transform="matrix(1.00, 0.00, -0.00, -1.00, 205.0, 554.7)">e</text><text xml:space="preserve" font-family="HelveticaNeue-Light,Helvetica Neue" font-size="36.0" fill="#747373" transform="matrix(1.00, 0.00, -0.00, -1.00, 223.7, 554.7)">d</text><text xml:space="preserve" font-family="HelveticaNeue-Light,Helvetica Neue" font-size="36.0" fill="#747373" transform="matrix(1.00, 0.00, -0.00, -1.00, 244.4, 554.7)"> </text><text xml:space="preserve" font-family="HelveticaNeue-Light,Helvetica Neue" font-size="36.0" fill="#747373" transform="matrix(1.00, 0.00, -0.00, -1.00, 254.4, 554.7)">t</text><text xml:space="preserve" font-family="HelveticaNeue-Light,Helvetica Neue" font-size="36.0" fill="#747373" transform="matrix(1.00, 0.00, -0.00, -1.00, 265.0, 554.7)">r</text><text xml:space="preserve" font-family="HelveticaNeue-Light,Helvetica Neue" font-size="36.0" fill="#747373" transform="matrix(1.00, 0.00, -0.00, -1.00, 276.4, 554.7)">i</text><text xml:space="preserve" font-family="HelveticaNeue-Light,Helvetica Neue" font-size="36.0" fill="#747373" transform="matrix(1.00, 0.00, -0.00, -1.00, 283.0, 554.7)">a</text><text xml:space="preserve" font-family="HelveticaNeue-Light,Helvetica Neue" font-size="36.0" fill="#747373" transform="matrix(1.00, 0.00, -0.00, -1.00, 301.7, 554.7)">l</text><text xml:space="preserve" font-family="HelveticaNeue-Light,Helvetica Neue" font-size="36.0" fill="#747373" transform="matrix(1.00, 0.00, -0.00, -1.00, 308.4, 554.7)">s</text><text xml:space="preserve" font-family="HelveticaNeue-Light,Helvetica Neue" font-size="36.0" fill="#747373" transform="matrix(1.00, 0.00, -0.00, -1.00, 325.7, 554.7)"> </text><text xml:space="preserve" font-family="HelveticaNeue-Light,Helvetica Neue" font-size="36.0" fill="#747373" transform="matrix(1.00, 0.00, -0.00, -1.00, 335.7, 554.7)">m</text><text xml:space="preserve" font-family="HelveticaNeue-Light,Helvetica Neue" font-size="36.0" fill="#747373" transform="matrix(1.00, 0.00, -0.00, -1.00, 365.7, 554.7)">o</text><text xml:space="preserve" font-family="HelveticaNeue-Light,Helvetica Neue" font-size="36.0" fill="#747373" transform="matrix(1.00, 0.00, -0.00, -1.00, 385.7, 554.7)">s</text><text xml:space="preserve" font-family="HelveticaNeue-Light,Helvetica Neue" font-size="36.0" fill="#747373" transform="matrix(1.00, 0.00, -0.00, -1.00, 403.0, 554.7)">t</text><text xml:space="preserve" font-family="HelveticaNeue-Light,Helvetica Neue" font-size="36.0" fill="#747373" transform="matrix(1.00, 0.00, -0.00, -1.00, 413.7, 554.7)">l</text><text xml:space="preserve" font-family="HelveticaNeue-Light,Helvetica Neue" font-size="36.0" fill="#747373" transform="matrix(1.00, 0.00, -0.00, -1.00, 420.3, 554.7)">y</text><text xml:space="preserve" font-family="HelveticaNeue-Light,Helvetica Neue" font-size="36.0" fill="#747373" transform="matrix(1.00, 0.00, -0.00, -1.00, 437.0, 554.7)"> </text><text xml:space="preserve" font-family="HelveticaNeue-Light,Helvetica Neue" font-size="36.0" fill="#747373" transform="matrix(1.00, 0.00, -0.00, -1.00, 447.0, 554.7)">o</text><text xml:space="preserve" font-family="HelveticaNeue-Light,Helvetica Neue" font-size="36.0" fill="#747373" transform="matrix(1.00, 0.00, -0.00, -1.00, 467.0, 554.7)">r</text><text xml:space="preserve" font-family="HelveticaNeue-Light,Helvetica Neue" font-size="36.0" fill="#747373" transform="matrix(1.00, 0.00, -0.00, -1.00, 478.4, 554.7)"> </text><text xml:space="preserve" font-family="HelveticaNeue-Light,Helvetica Neue" font-size="36.0" fill="#747373" transform="matrix(1.00, 0.00, -0.00, -1.00, 488.4, 554.7)">e</text><text xml:space="preserve" font-family="HelveticaNeue-Light,Helvetica Neue" font-size="36.0" fill="#747373" transform="matrix(1.00, 0.00, -0.00, -1.00, 507.1, 554.7)">x</text><text xml:space="preserve" font-family="HelveticaNeue-Light,Helvetica Neue" font-size="36.0" fill="#747373" transform="matrix(1.00, 0.00, -0.00, -1.00, 524.4, 554.7)">c</text><text xml:space="preserve" font-family="HelveticaNeue-Light,Helvetica Neue" font-size="36.0" fill="#747373" transform="matrix(1.00, 0.00, -0.00, -1.00, 543.1, 554.7)">l</text><text xml:space="preserve" font-family="HelveticaNeue-Light,Helvetica Neue" font-size="36.0" fill="#747373" transform="matrix(1.00, 0.00, -0.00, -1.00, 549.7, 554.7)">u</text><text xml:space="preserve" font-family="HelveticaNeue-Light,Helvetica Neue" font-size="36.0" fill="#747373" transform="matrix(1.00, 0.00, -0.00, -1.00, 569.1, 554.7)">s</text><text xml:space="preserve" font-family="HelveticaNeue-Light,Helvetica Neue" font-size="36.0" fill="#747373" transform="matrix(1.00, 0.00, -0.00, -1.00, 586.4, 554.7)">i</text><text xml:space="preserve" font-family="HelveticaNeue-Light,Helvetica Neue" font-size="36.0" fill="#747373" transform="matrix(1.00, 0.00, -0.00, -1.00, 593.0, 554.7)">v</text><text xml:space="preserve" font-family="HelveticaNeue-Light,Helvetica Neue" font-size="36.0" fill="#747373" transform="matrix(1.00, 0.00, -0.00, -1.00, 609.7, 554.7)">e</text><text xml:space="preserve" font-family="HelveticaNeue-Light,Helvetica Neue" font-size="36.0" fill="#747373" transform="matrix(1.00, 0.00, -0.00, -1.00, 628.4, 554.7)">l</text><text xml:space="preserve" font-family="HelveticaNeue-Light,Helvetica Neue" font-size="36.0" fill="#747373" transform="matrix(1.00, 0.00, -0.00, -1.00, 635.0, 554.7)">y</text><text xml:space="preserve" font-family="HelveticaNeue-Light,Helvetica Neue" font-size="36.0" fill="#747373" transform="matrix(1.00, 0.00, -0.00, -1.00, 651.7, 554.7)"> </text><text xml:space="preserve" font-family="HelveticaNeue-Light,Helvetica Neue" font-size="36.0" fill="#747373" transform="matrix(1.00, 0.00, -0.00, -1.00, 661.7, 554.7)">i</text><text xml:space="preserve" font-family="HelveticaNeue-Light,Helvetica Neue" font-size="36.0" fill="#747373" transform="matrix(1.00, 0.00, -0.00, -1.00, 668.4, 554.7)">n</text><text xml:space="preserve" font-family="HelveticaNeue-Light,Helvetica Neue" font-size="36.0" fill="#747373" transform="matrix(1.00, 0.00, -0.00, -1.00, 687.7, 554.7)"> </text><text xml:space="preserve" font-family="HelveticaNeue-Light,Helvetica Neue" font-size="36.0" fill="#747373" transform="matrix(1.00, 0.00, -0.00, -1.00, 697.7, 554.7)">p</text><text xml:space="preserve" font-family="HelveticaNeue-Light,Helvetica Neue" font-size="36.0" fill="#747373" transform="matrix(1.00, 0.00, -0.00, -1.00, 718.4, 554.7)">a</text><text xml:space="preserve" font-family="HelveticaNeue-Light,Helvetica Neue" font-size="36.0" fill="#747373" transform="matrix(1.00, 0.00, -0.00, -1.00, 737.1, 554.7)">t</text><text xml:space="preserve" font-family="HelveticaNeue-Light,Helvetica Neue" font-size="36.0" fill="#747373" transform="matrix(1.00, 0.00, -0.00, -1.00, 747.7, 554.7)">i</text><text xml:space="preserve" font-family="HelveticaNeue-Light,Helvetica Neue" font-size="36.0" fill="#747373" transform="matrix(1.00, 0.00, -0.00, -1.00, 754.4, 554.7)">e</text><text xml:space="preserve" font-family="HelveticaNeue-Light,Helvetica Neue" font-size="36.0" fill="#747373" transform="matrix(1.00, 0.00, -0.00, -1.00, 773.1, 554.7)">n</text><text xml:space="preserve" font-family="HelveticaNeue-Light,Helvetica Neue" font-size="36.0" fill="#747373" transform="matrix(1.00, 0.00, -0.00, -1.00, 792.4, 554.7)">t</text><text xml:space="preserve" font-family="HelveticaNeue-Light,Helvetica Neue" font-size="36.0" fill="#747373" transform="matrix(1.00, 0.00, -0.00, -1.00, 803.1, 554.7)">s</text><text xml:space="preserve" font-family="HelveticaNeue-Light,Helvetica Neue" font-size="36.0" fill="#747373" transform="matrix(1.00, 0.00, -0.00, -1.00, 820.4, 554.7)"> </text><text xml:space="preserve" font-family="HelveticaNeue-Light,Helvetica Neue" font-size="36.0" fill="#747373" transform="matrix(1.00, 0.00, -0.00, -1.00, 830.4, 554.7)">w</text><text xml:space="preserve" font-family="HelveticaNeue-Light,Helvetica Neue" font-size="36.0" fill="#747373" transform="matrix(1.00, 0.00, -0.00, -1.00, 857.1, 554.7)">i</text><text xml:space="preserve" font-family="HelveticaNeue-Light,Helvetica Neue" font-size="36.0" fill="#747373" transform="matrix(1.00, 0.00, -0.00, -1.00, 863.7, 554.7)">t</text><text xml:space="preserve" font-family="HelveticaNeue-Light,Helvetica Neue" font-size="36.0" fill="#747373" transform="matrix(1.00, 0.00, -0.00, -1.00, 874.4, 554.7)">h</text><text xml:space="preserve" font-family="HelveticaNeue-Light,Helvetica Neue" font-size="36.0" fill="#747373" transform="matrix(1.00, 0.00, -0.00, -1.00, 893.7, 554.7)"> </text><text xml:space="preserve" font-family="HelveticaNeue-Light,Helvetica Neue" font-size="36.0" fill="#747373" transform="matrix(1.00, 0.00, -0.00, -1.00, 903.7, 554.7)">H</text><text xml:space="preserve" font-family="HelveticaNeue-Light,Helvetica Neue" font-size="36.0" fill="#747373" transform="matrix(1.00, 0.00, -0.00, -1.00, 929.1, 554.7)">I</text><text xml:space="preserve" font-family="HelveticaNeue-Light,Helvetica Neue" font-size="36.0" fill="#747373" transform="matrix(1.00, 0.00, -0.00, -1.00, 937.0, 554.7)">V</text><text xml:space="preserve" font-family="HelveticaNeue-Light,Helvetica Neue" font-size="36.0" fill="#747373" transform="matrix(1.00, 0.00, -0.00, -1.00, 958.4, 554.7)"> </text><text xml:space="preserve" font-family="HelveticaNeue-Light,Helvetica Neue" font-size="36.0" fill="#747373" transform="matrix(1.00, 0.00, -0.00, -1.00, 49.0, 468.7)">F</text><text xml:space="preserve" font-family="HelveticaNeue-Light,Helvetica Neue" font-size="36.0" fill="#747373" transform="matrix(1.00, 0.00, -0.00, -1.00, 68.3, 468.7)">D</text><text xml:space="preserve" font-family="HelveticaNeue-Light,Helvetica Neue" font-size="36.0" fill="#747373" transform="matrix(1.00, 0.00, -0.00, -1.00, 93.0, 468.7)">A</text><text xml:space="preserve" font-family="HelveticaNeue-Light,Helvetica Neue" font-size="36.0" fill="#747373" transform="matrix(1.00, 0.00, -0.00, -1.00, 115.7, 468.7)">-</text><text xml:space="preserve" font-family="HelveticaNeue-Light,Helvetica Neue" font-size="36.0" fill="#747373" transform="matrix(1.00, 0.00, -0.00, -1.00, 129.0, 468.7)">a</text><text xml:space="preserve" font-family="HelveticaNeue-Light,Helvetica Neue" font-size="36.0" fill="#747373" transform="matrix(1.00, 0.00, -0.00, -1.00, 147.7, 468.7)">p</text><text xml:space="preserve" font-family="HelveticaNeue-Light,Helvetica Neue" font-size="36.0" fill="#747373" transform="matrix(1.00, 0.00, -0.00, -1.00, 168.3, 468.7)">p</text><text xml:space="preserve" font-family="HelveticaNeue-Light,Helvetica Neue" font-size="36.0" fill="#747373" transform="matrix(1.00, 0.00, -0.00, -1.00, 189.0, 468.7)">r</text><text xml:space="preserve" font-family="HelveticaNeue-Light,Helvetica Neue" font-size="36.0" fill="#747373" transform="matrix(1.00, 0.00, -0.00, -1.00, 199.7, 468.7)">o</text><text xml:space="preserve" font-family="HelveticaNeue-Light,Helvetica Neue" font-size="36.0" fill="#747373" transform="matrix(1.00, 0.00, -0.00, -1.00, 219.7, 468.7)">v</text><text xml:space="preserve" font-family="HelveticaNeue-Light,Helvetica Neue" font-size="36.0" fill="#747373" transform="matrix(1.00, 0.00, -0.00, -1.00, 236.4, 468.7)">e</text><text xml:space="preserve" font-family="HelveticaNeue-Light,Helvetica Neue" font-size="36.0" fill="#747373" transform="matrix(1.00, 0.00, -0.00, -1.00, 255.1, 468.7)">d</text><text xml:space="preserve" font-family="HelveticaNeue-Light,Helvetica Neue" font-size="36.0" fill="#747373" transform="matrix(1.00, 0.00, -0.00, -1.00, 275.7, 468.7)"> </text><text xml:space="preserve" font-family="HelveticaNeue-Light,Helvetica Neue" font-size="36.0" fill="#747373" transform="matrix(1.00, 0.00, -0.00, -1.00, 285.7, 468.7)">d</text><text xml:space="preserve" font-family="HelveticaNeue-Light,Helvetica Neue" font-size="36.0" fill="#747373" transform="matrix(1.00, 0.00, -0.00, -1.00, 306.4, 468.7)">r</text><text xml:space="preserve" font-family="HelveticaNeue-Light,Helvetica Neue" font-size="36.0" fill="#747373" transform="matrix(1.00, 0.00, -0.00, -1.00, 317.7, 468.7)">u</text><text xml:space="preserve" font-family="HelveticaNeue-Light,Helvetica Neue" font-size="36.0" fill="#747373" transform="matrix(1.00, 0.00, -0.00, -1.00, 337.1, 468.7)">g</text><text xml:space="preserve" font-family="HelveticaNeue-Light,Helvetica Neue" font-size="36.0" fill="#747373" transform="matrix(1.00, 0.00, -0.00, -1.00, 357.1, 468.7)">s</text><text xml:space="preserve" font-family="HelveticaNeue-Light,Helvetica Neue" font-size="36.0" fill="#747373" transform="matrix(1.00, 0.00, -0.00, -1.00, 374.4, 468.7)">:</text><text xml:space="preserve" font-family="HelveticaNeue-Light,Helvetica Neue" font-size="36.0" fill="#747373" transform="matrix(1.00, 0.00, -0.00, -1.00, 384.4, 468.7)"> </text><text xml:space="preserve" font-family="HelveticaNeue,Helvetica Neue" font-size="27.0" fill="#747373" transform="matrix(1.00, 0.00, -0.00, -1.00, 85.0, 386.1)">•</text><text xml:space="preserve" font-family="HelveticaNeue-Light,Helvetica Neue" font-size="36.0" fill="#747373" transform="matrix(1.00, 0.00, -0.00, -1.00, 121.0, 382.7)">L</text><text xml:space="preserve" font-family="HelveticaNeue-Light,Helvetica Neue" font-size="36.0" fill="#747373" transform="matrix(1.00, 0.00, -0.00, -1.00, 140.3, 382.7)">i</text><text xml:space="preserve" font-family="HelveticaNeue-Light,Helvetica Neue" font-size="36.0" fill="#747373" transform="matrix(1.00, 0.00, -0.00, -1.00, 147.0, 382.7)">p</text><text xml:space="preserve" font-family="HelveticaNeue-Light,Helvetica Neue" font-size="36.0" fill="#747373" transform="matrix(1.00, 0.00, -0.00, -1.00, 167.7, 382.7)">o</text><text xml:space="preserve" font-family="HelveticaNeue-Light,Helvetica Neue" font-size="36.0" fill="#747373" transform="matrix(1.00, 0.00, -0.00, -1.00, 187.7, 382.7)">s</text><text xml:space="preserve" font-family="HelveticaNeue-Light,Helvetica Neue" font-size="36.0" fill="#747373" transform="matrix(1.00, 0.00, -0.00, -1.00, 205.0, 382.7)">o</text><text xml:space="preserve" font-family="HelveticaNeue-Light,Helvetica Neue" font-size="36.0" fill="#747373" transform="matrix(1.00, 0.00, -0.00, -1.00, 225.0, 382.7)">m</text><text xml:space="preserve" font-family="HelveticaNeue-Light,Helvetica Neue" font-size="36.0" fill="#747373" transform="matrix(1.00, 0.00, -0.00, -1.00, 255.0, 382.7)">a</text><text xml:space="preserve" font-family="HelveticaNeue-Light,Helvetica Neue" font-size="36.0" fill="#747373" transform="matrix(1.00, 0.00, -0.00, -1.00, 273.7, 382.7)">l</text><text xml:space="preserve" font-family="HelveticaNeue-Light,Helvetica Neue" font-size="36.0" fill="#747373" transform="matrix(1.00, 0.00, -0.00, -1.00, 280.3, 382.7)"> </text><text xml:space="preserve" font-family="HelveticaNeue-Light,Helvetica Neue" font-size="36.0" fill="#747373" transform="matrix(1.00, 0.00, -0.00, -1.00, 290.3, 382.7)">d</text><text xml:space="preserve" font-family="HelveticaNeue-Light,Helvetica Neue" font-size="36.0" fill="#747373" transform="matrix(1.00, 0.00, -0.00, -1.00, 311.0, 382.7)">o</text><text xml:space="preserve" font-family="HelveticaNeue-Light,Helvetica Neue" font-size="36.0" fill="#747373" transform="matrix(1.00, 0.00, -0.00, -1.00, 331.0, 382.7)">x</text><text xml:space="preserve" font-family="HelveticaNeue-Light,Helvetica Neue" font-size="36.0" fill="#747373" transform="matrix(1.00, 0.00, -0.00, -1.00, 348.3, 382.7)">o</text><text xml:space="preserve" font-family="HelveticaNeue-Light,Helvetica Neue" font-size="36.0" fill="#747373" transform="matrix(1.00, 0.00, -0.00, -1.00, 368.4, 382.7)">r</text><text xml:space="preserve" font-family="HelveticaNeue-Light,Helvetica Neue" font-size="36.0" fill="#747373" transform="matrix(1.00, 0.00, -0.00, -1.00, 379.7, 382.7)">u</text><text xml:space="preserve" font-family="HelveticaNeue-Light,Helvetica Neue" font-size="36.0" fill="#747373" transform="matrix(1.00, 0.00, -0.00, -1.00, 399.0, 382.7)">b</text><text xml:space="preserve" font-family="HelveticaNeue-Light,Helvetica Neue" font-size="36.0" fill="#747373" transform="matrix(1.00, 0.00, -0.00, -1.00, 419.7, 382.7)">i</text><text xml:space="preserve" font-family="HelveticaNeue-Light,Helvetica Neue" font-size="36.0" fill="#747373" transform="matrix(1.00, 0.00, -0.00, -1.00, 426.4, 382.7)">c</text><text xml:space="preserve" font-family="HelveticaNeue-Light,Helvetica Neue" font-size="36.0" fill="#747373" transform="matrix(1.00, 0.00, -0.00, -1.00, 445.0, 382.7)">i</text><text xml:space="preserve" font-family="HelveticaNeue-Light,Helvetica Neue" font-size="36.0" fill="#747373" transform="matrix(1.00, 0.00, -0.00, -1.00, 451.7, 382.7)">n</text><text xml:space="preserve" font-family="HelveticaNeue-Light,Helvetica Neue" font-size="36.0" fill="#747373" transform="matrix(1.00, 0.00, -0.00, -1.00, 471.0, 382.7)"> </text><text xml:space="preserve" font-family="HelveticaNeue,Helvetica Neue" font-size="27.0" fill="#747373" transform="matrix(1.00, 0.00, -0.00, -1.00, 85.0, 300.1)">•</text><text xml:space="preserve" font-family="HelveticaNeue-Light,Helvetica Neue" font-size="36.0" fill="#747373" transform="matrix(1.00, 0.00, -0.00, -1.00, 121.0, 296.7)">P</text><text xml:space="preserve" font-family="HelveticaNeue-Light,Helvetica Neue" font-size="36.0" fill="#747373" transform="matrix(1.00, 0.00, -0.00, -1.00, 143.7, 296.7)">a</text><text xml:space="preserve" font-family="HelveticaNeue-Light,Helvetica Neue" font-size="36.0" fill="#747373" transform="matrix(1.00, 0.00, -0.00, -1.00, 162.4, 296.7)">c</text><text xml:space="preserve" font-family="HelveticaNeue-Light,Helvetica Neue" font-size="36.0" fill="#747373" transform="matrix(1.00, 0.00, -0.00, -1.00, 181.0, 296.7)">l</text><text xml:space="preserve" font-family="HelveticaNeue-Light,Helvetica Neue" font-size="36.0" fill="#747373" transform="matrix(1.00, 0.00, -0.00, -1.00, 187.7, 296.7)">i</text><text xml:space="preserve" font-family="HelveticaNeue-Light,Helvetica Neue" font-size="36.0" fill="#747373" transform="matrix(1.00, 0.00, -0.00, -1.00, 194.4, 296.7)">t</text><text xml:space="preserve" font-family="HelveticaNeue-Light,Helvetica Neue" font-size="36.0" fill="#747373" transform="matrix(1.00, 0.00, -0.00, -1.00, 205.0, 296.7)">a</text><text xml:space="preserve" font-family="HelveticaNeue-Light,Helvetica Neue" font-size="36.0" fill="#747373" transform="matrix(1.00, 0.00, -0.00, -1.00, 223.7, 296.7)">x</text><text xml:space="preserve" font-family="HelveticaNeue-Light,Helvetica Neue" font-size="36.0" fill="#747373" transform="matrix(1.00, 0.00, -0.00, -1.00, 241.0, 296.7)">e</text><text xml:space="preserve" font-family="HelveticaNeue-Light,Helvetica Neue" font-size="36.0" fill="#747373" transform="matrix(1.00, 0.00, -0.00, -1.00, 259.7, 296.7)">l</text><text xml:space="preserve" font-family="HelveticaNeue-Light,Helvetica Neue" font-size="36.0" fill="#747373" transform="matrix(1.00, 0.00, -0.00, -1.00, 266.4, 296.7)"> </text><text xml:space="preserve" font-family="HelveticaNeue,Helvetica Neue" font-size="27.0" fill="#747373" transform="matrix(1.00, 0.00, -0.00, -1.00, 85.0, 214.1)">•</text><text xml:space="preserve" font-family="HelveticaNeue-Light,Helvetica Neue" font-size="36.0" fill="#747373" transform="matrix(1.00, 0.00, -0.00, -1.00, 121.0, 210.7)">I</text><text xml:space="preserve" font-family="HelveticaNeue-Light,Helvetica Neue" font-size="36.0" fill="#747373" transform="matrix(1.00, 0.00, -0.00, -1.00, 129.0, 210.7)">n</text><text xml:space="preserve" font-family="HelveticaNeue-Light,Helvetica Neue" font-size="36.0" fill="#747373" transform="matrix(1.00, 0.00, -0.00, -1.00, 148.3, 210.7)">t</text><text xml:space="preserve" font-family="HelveticaNeue-Light,Helvetica Neue" font-size="36.0" fill="#747373" transform="matrix(1.00, 0.00, -0.00, -1.00, 159.0, 210.7)">e</text><text xml:space="preserve" font-family="HelveticaNeue-Light,Helvetica Neue" font-size="36.0" fill="#747373" transform="matrix(1.00, 0.00, -0.00, -1.00, 177.7, 210.7)">r</text><text xml:space="preserve" font-family="HelveticaNeue-Light,Helvetica Neue" font-size="36.0" fill="#747373" transform="matrix(1.00, 0.00, -0.00, -1.00, 189.0, 210.7)">f</text><text xml:space="preserve" font-family="HelveticaNeue-Light,Helvetica Neue" font-size="36.0" fill="#747373" transform="matrix(1.00, 0.00, -0.00, -1.00, 198.3, 210.7)">e</text><text xml:space="preserve" font-family="HelveticaNeue-Light,Helvetica Neue" font-size="36.0" fill="#747373" transform="matrix(1.00, 0.00, -0.00, -1.00, 217.0, 210.7)">r</text><text xml:space="preserve" font-family="HelveticaNeue-Light,Helvetica Neue" font-size="36.0" fill="#747373" transform="matrix(1.00, 0.00, -0.00, -1.00, 227.7, 210.7)">o</text><text xml:space="preserve" font-family="HelveticaNeue-Light,Helvetica Neue" font-size="36.0" fill="#747373" transform="matrix(1.00, 0.00, -0.00, -1.00, 247.7, 210.7)">n</text><text xml:space="preserve" font-family="HelveticaNeue-Light,Helvetica Neue" font-size="36.0" fill="#747373" transform="matrix(1.00, 0.00, -0.00, -1.00, 267.1, 210.7)"> </text><text xml:space="preserve" font-family="HelveticaNeue-Light,Helvetica Neue" font-size="36.0" fill="#747373" transform="matrix(1.00, 0.00, -0.00, -1.00, 277.1, 210.7)">a</text><text xml:space="preserve" font-family="HelveticaNeue-Light,Helvetica Neue" font-size="36.0" fill="#747373" transform="matrix(1.00, 0.00, -0.00, -1.00, 295.7, 210.7)">l</text><text xml:space="preserve" font-family="HelveticaNeue-Light,Helvetica Neue" font-size="36.0" fill="#747373" transform="matrix(1.00, 0.00, -0.00, -1.00, 302.4, 210.7)">p</text><text xml:space="preserve" font-family="HelveticaNeue-Light,Helvetica Neue" font-size="36.0" fill="#747373" transform="matrix(1.00, 0.00, -0.00, -1.00, 323.1, 210.7)">h</text><text xml:space="preserve" font-family="HelveticaNeue-Light,Helvetica Neue" font-size="36.0" fill="#747373" transform="matrix(1.00, 0.00, -0.00, -1.00, 342.4, 210.7)">a</text><text xml:space="preserve" font-family="HelveticaNeue-Light,Helvetica Neue" font-size="36.0" fill="#747373" transform="matrix(1.00, 0.00, -0.00, -1.00, 361.1, 210.7)"> </text><text xml:space="preserve" font-family="HelveticaNeue-Light,Helvetica Neue" font-size="36.0" fill="#747373" transform="matrix(1.00, 0.00, -0.00, -1.00, 371.1, 210.7)"> </text><text xml:space="preserve" font-family="HelveticaNeue,Helvetica Neue" font-size="27.0" fill="#747373" transform="matrix(1.00, 0.00, -0.00, -1.00, 85.0, 128.1)">•</text><text xml:space="preserve" font-family="HelveticaNeue-Light,Helvetica Neue" font-size="36.0" fill="#747373" transform="matrix(1.00, 0.00, -0.00, -1.00, 121.0, 124.7)">V</text><text xml:space="preserve" font-family="HelveticaNeue-Light,Helvetica Neue" font-size="36.0" fill="#747373" transform="matrix(1.00, 0.00, -0.00, -1.00, 142.6, 124.7)">i</text><text xml:space="preserve" font-family="HelveticaNeue-Light,Helvetica Neue" font-size="36.0" fill="#747373" transform="matrix(1.00, 0.00, -0.00, -1.00, 149.2, 124.7)">n</text><text xml:space="preserve" font-family="HelveticaNeue-Light,Helvetica Neue" font-size="36.0" fill="#747373" transform="matrix(1.00, 0.00, -0.00, -1.00, 168.6, 124.7)">b</text><text xml:space="preserve" font-family="HelveticaNeue-Light,Helvetica Neue" font-size="36.0" fill="#747373" transform="matrix(1.00, 0.00, -0.00, -1.00, 189.2, 124.7)">l</text><text xml:space="preserve" font-family="HelveticaNeue-Light,Helvetica Neue" font-size="36.0" fill="#747373" transform="matrix(1.00, 0.00, -0.00, -1.00, 195.9, 124.7)">a</text><text xml:space="preserve" font-family="HelveticaNeue-Light,Helvetica Neue" font-size="36.0" fill="#747373" transform="matrix(1.00, 0.00, -0.00, -1.00, 214.6, 124.7)">s</text><text xml:space="preserve" font-family="HelveticaNeue-Light,Helvetica Neue" font-size="36.0" fill="#747373" transform="matrix(1.00, 0.00, -0.00, -1.00, 231.9, 124.7)">t</text><text xml:space="preserve" font-family="HelveticaNeue-Light,Helvetica Neue" font-size="36.0" fill="#747373" transform="matrix(1.00, 0.00, -0.00, -1.00, 242.5, 124.7)">i</text><text xml:space="preserve" font-family="HelveticaNeue-Light,Helvetica Neue" font-size="36.0" fill="#747373" transform="matrix(1.00, 0.00, -0.00, -1.00, 249.2, 124.7)">n</text><text xml:space="preserve" font-family="HelveticaNeue-Light,Helvetica Neue" font-size="36.0" fill="#747373" transform="matrix(1.00, 0.00, -0.00, -1.00, 268.5, 124.7)">e</text><text xml:space="preserve" font-family="HelveticaNeue-Light,Helvetica Neue" font-size="36.0" fill="#747373" transform="matrix(1.00, 0.00, -0.00, -1.00, 545.2, 468.7)">N</text><text xml:space="preserve" font-family="HelveticaNeue-Light,Helvetica Neue" font-size="36.0" fill="#747373" transform="matrix(1.00, 0.00, -0.00, -1.00, 570.5, 468.7)">e</text><text xml:space="preserve" font-family="HelveticaNeue-Light,Helvetica Neue" font-size="36.0" fill="#747373" transform="matrix(1.00, 0.00, -0.00, -1.00, 589.2, 468.7)">w</text><text xml:space="preserve" font-family="HelveticaNeue-Light,Helvetica Neue" font-size="36.0" fill="#747373" transform="matrix(1.00, 0.00, -0.00, -1.00, 615.9, 468.7)"> </text><text xml:space="preserve" font-family="HelveticaNeue-Light,Helvetica Neue" font-size="36.0" fill="#747373" transform="matrix(1.00, 0.00, -0.00, -1.00, 625.9, 468.7)">a</text><text xml:space="preserve" font-family="HelveticaNeue-Light,Helvetica Neue" font-size="36.0" fill="#747373" transform="matrix(1.00, 0.00, -0.00, -1.00, 644.5, 468.7)">n</text><text xml:space="preserve" font-family="HelveticaNeue-Light,Helvetica Neue" font-size="36.0" fill="#747373" transform="matrix(1.00, 0.00, -0.00, -1.00, 663.9, 468.7)">d</text><text xml:space="preserve" font-family="HelveticaNeue-Light,Helvetica Neue" font-size="36.0" fill="#747373" transform="matrix(1.00, 0.00, -0.00, -1.00, 684.5, 468.7)"> </text><text xml:space="preserve" font-family="HelveticaNeue-Light,Helvetica Neue" font-size="36.0" fill="#747373" transform="matrix(1.00, 0.00, -0.00, -1.00, 694.6, 468.7)">o</text><text xml:space="preserve" font-family="HelveticaNeue-Light,Helvetica Neue" font-size="36.0" fill="#747373" transform="matrix(1.00, 0.00, -0.00, -1.00, 714.6, 468.7)">f</text><text xml:space="preserve" font-family="HelveticaNeue-Light,Helvetica Neue" font-size="36.0" fill="#747373" transform="matrix(1.00, 0.00, -0.00, -1.00, 723.2, 468.7)">f</text><text xml:space="preserve" font-family="HelveticaNeue-Light,Helvetica Neue" font-size="36.0" fill="#747373" transform="matrix(1.00, 0.00, -0.00, -1.00, 732.6, 468.7)">-</text><text xml:space="preserve" font-family="HelveticaNeue-Light,Helvetica Neue" font-size="36.0" fill="#747373" transform="matrix(1.00, 0.00, -0.00, -1.00, 745.9, 468.7)">l</text><text xml:space="preserve" font-family="HelveticaNeue-Light,Helvetica Neue" font-size="36.0" fill="#747373" transform="matrix(1.00, 0.00, -0.00, -1.00, 752.5, 468.7)">a</text><text xml:space="preserve" font-family="HelveticaNeue-Light,Helvetica Neue" font-size="36.0" fill="#747373" transform="matrix(1.00, 0.00, -0.00, -1.00, 771.2, 468.7)">b</text><text xml:space="preserve" font-family="HelveticaNeue-Light,Helvetica Neue" font-size="36.0" fill="#747373" transform="matrix(1.00, 0.00, -0.00, -1.00, 791.9, 468.7)">e</text><text xml:space="preserve" font-family="HelveticaNeue-Light,Helvetica Neue" font-size="36.0" fill="#747373" transform="matrix(1.00, 0.00, -0.00, -1.00, 810.6, 468.7)">l</text><text xml:space="preserve" font-family="HelveticaNeue-Light,Helvetica Neue" font-size="36.0" fill="#747373" transform="matrix(1.00, 0.00, -0.00, -1.00, 817.2, 468.7)"> </text><text xml:space="preserve" font-family="HelveticaNeue-Light,Helvetica Neue" font-size="36.0" fill="#747373" transform="matrix(1.00, 0.00, -0.00, -1.00, 827.2, 468.7)">d</text><text xml:space="preserve" font-family="HelveticaNeue-Light,Helvetica Neue" font-size="36.0" fill="#747373" transform="matrix(1.00, 0.00, -0.00, -1.00, 847.9, 468.7)">r</text><text xml:space="preserve" font-family="HelveticaNeue-Light,Helvetica Neue" font-size="36.0" fill="#747373" transform="matrix(1.00, 0.00, -0.00, -1.00, 859.3, 468.7)">u</text><text xml:space="preserve" font-family="HelveticaNeue-Light,Helvetica Neue" font-size="36.0" fill="#747373" transform="matrix(1.00, 0.00, -0.00, -1.00, 878.6, 468.7)">g</text><text xml:space="preserve" font-family="HelveticaNeue-Light,Helvetica Neue" font-size="36.0" fill="#747373" transform="matrix(1.00, 0.00, -0.00, -1.00, 898.6, 468.7)">s</text><text xml:space="preserve" font-family="HelveticaNeue-Light,Helvetica Neue" font-size="36.0" fill="#747373" transform="matrix(1.00, 0.00, -0.00, -1.00, 915.9, 468.7)">:</text><text xml:space="preserve" font-family="HelveticaNeue-Light,Helvetica Neue" font-size="36.0" fill="#747373" transform="matrix(1.00, 0.00, -0.00, -1.00, 925.9, 468.7)"> </text><text xml:space="preserve" font-family="HelveticaNeue,Helvetica Neue" font-size="27.0" fill="#747373" transform="matrix(1.00, 0.00, -0.00, -1.00, 581.2, 386.1)">•</text><text xml:space="preserve" font-family="HelveticaNeue-Light,Helvetica Neue" font-size="36.0" fill="#747373" transform="matrix(1.00, 0.00, -0.00, -1.00, 617.2, 382.7)">E</text><text xml:space="preserve" font-family="HelveticaNeue-Light,Helvetica Neue" font-size="36.0" fill="#747373" transform="matrix(1.00, 0.00, -0.00, -1.00, 638.5, 382.7)">t</text><text xml:space="preserve" font-family="HelveticaNeue-Light,Helvetica Neue" font-size="36.0" fill="#747373" transform="matrix(1.00, 0.00, -0.00, -1.00, 649.2, 382.7)">o</text><text xml:space="preserve" font-family="HelveticaNeue-Light,Helvetica Neue" font-size="36.0" fill="#747373" transform="matrix(1.00, 0.00, -0.00, -1.00, 669.2, 382.7)">p</text><text xml:space="preserve" font-family="HelveticaNeue-Light,Helvetica Neue" font-size="36.0" fill="#747373" transform="matrix(1.00, 0.00, -0.00, -1.00, 689.8, 382.7)">o</text><text xml:space="preserve" font-family="HelveticaNeue-Light,Helvetica Neue" font-size="36.0" fill="#747373" transform="matrix(1.00, 0.00, -0.00, -1.00, 709.9, 382.7)">s</text><text xml:space="preserve" font-family="HelveticaNeue-Light,Helvetica Neue" font-size="36.0" fill="#747373" transform="matrix(1.00, 0.00, -0.00, -1.00, 727.2, 382.7)">i</text><text xml:space="preserve" font-family="HelveticaNeue-Light,Helvetica Neue" font-size="36.0" fill="#747373" transform="matrix(1.00, 0.00, -0.00, -1.00, 733.8, 382.7)">d</text><text xml:space="preserve" font-family="HelveticaNeue-Light,Helvetica Neue" font-size="36.0" fill="#747373" transform="matrix(1.00, 0.00, -0.00, -1.00, 754.5, 382.7)">e</text><text xml:space="preserve" font-family="HelveticaNeue-Light,Helvetica Neue" font-size="36.0" fill="#747373" transform="matrix(1.00, 0.00, -0.00, -1.00, 773.2, 382.7)"> </text><text xml:space="preserve" font-family="HelveticaNeue,Helvetica Neue" font-size="27.0" fill="#747373" transform="matrix(1.00, 0.00, -0.00, -1.00, 581.2, 300.1)">•</text><text xml:space="preserve" font-family="HelveticaNeue-Light,Helvetica Neue" font-size="36.0" fill="#747373" transform="matrix(1.00, 0.00, -0.00, -1.00, 617.2, 296.7)">T</text><text xml:space="preserve" font-family="HelveticaNeue-Light,Helvetica Neue" font-size="36.0" fill="#747373" transform="matrix(1.00, 0.00, -0.00, -1.00, 637.2, 296.7)">h</text><text xml:space="preserve" font-family="HelveticaNeue-Light,Helvetica Neue" font-size="36.0" fill="#747373" transform="matrix(1.00, 0.00, -0.00, -1.00, 656.5, 296.7)">a</text><text xml:space="preserve" font-family="HelveticaNeue-Light,Helvetica Neue" font-size="36.0" fill="#747373" transform="matrix(1.00, 0.00, -0.00, -1.00, 675.2, 296.7)">l</text><text xml:space="preserve" font-family="HelveticaNeue-Light,Helvetica Neue" font-size="36.0" fill="#747373" transform="matrix(1.00, 0.00, -0.00, -1.00, 681.8, 296.7)">i</text><text xml:space="preserve" font-family="HelveticaNeue-Light,Helvetica Neue" font-size="36.0" fill="#747373" transform="matrix(1.00, 0.00, -0.00, -1.00, 688.5, 296.7)">d</text><text xml:space="preserve" font-family="HelveticaNeue-Light,Helvetica Neue" font-size="36.0" fill="#747373" transform="matrix(1.00, 0.00, -0.00, -1.00, 709.2, 296.7)">o</text><text xml:space="preserve" font-family="HelveticaNeue-Light,Helvetica Neue" font-size="36.0" fill="#747373" transform="matrix(1.00, 0.00, -0.00, -1.00, 729.2, 296.7)">m</text><text xml:space="preserve" font-family="HelveticaNeue-Light,Helvetica Neue" font-size="36.0" fill="#747373" transform="matrix(1.00, 0.00, -0.00, -1.00, 759.2, 296.7)">i</text><text xml:space="preserve" font-family="HelveticaNeue-Light,Helvetica Neue" font-size="36.0" fill="#747373" transform="matrix(1.00, 0.00, -0.00, -1.00, 765.8, 296.7)">d</text><text xml:space="preserve" font-family="HelveticaNeue-Light,Helvetica Neue" font-size="36.0" fill="#747373" transform="matrix(1.00, 0.00, -0.00, -1.00, 786.5, 296.7)">e</text><text xml:space="preserve" font-family="HelveticaNeue-Light,Helvetica Neue" font-size="36.0" fill="#747373" transform="matrix(1.00, 0.00, -0.00, -1.00, 805.2, 296.7)"> </text><text xml:space="preserve" font-family="HelveticaNeue-Light,Helvetica Neue" font-size="36.0" fill="#747373" transform="matrix(1.00, 0.00, -0.00, -1.00, 815.2, 296.7)">e</text><text xml:space="preserve" font-family="HelveticaNeue-Light,Helvetica Neue" font-size="36.0" fill="#747373" transform="matrix(1.00, 0.00, -0.00, -1.00, 833.9, 296.7)">t</text><text xml:space="preserve" font-family="HelveticaNeue-Light,Helvetica Neue" font-size="36.0" fill="#747373" transform="matrix(1.00, 0.00, -0.00, -1.00, 844.5, 296.7)"> </text><text xml:space="preserve" font-family="HelveticaNeue-Light,Helvetica Neue" font-size="36.0" fill="#747373" transform="matrix(1.00, 0.00, -0.00, -1.00, 854.5, 296.7)">a</text><text xml:space="preserve" font-family="HelveticaNeue-Light,Helvetica Neue" font-size="36.0" fill="#747373" transform="matrix(1.00, 0.00, -0.00, -1.00, 873.2, 296.7)">l</text><text xml:space="preserve" font-family="HelveticaNeue-Light,Helvetica Neue" font-size="36.0" fill="#747373" transform="matrix(1.00, 0.00, -0.00, -1.00, 879.9, 296.7)">.</text><text xml:space="preserve" font-family="HelveticaNeue-Light,Helvetica Neue" font-size="36.0" fill="#747373" transform="matrix(1.00, 0.00, -0.00, -1.00, 889.9, 296.7)"> </text><text xml:space="preserve" font-family="HelveticaNeue,Helvetica Neue" font-size="27.0" fill="#747373" transform="matrix(1.00, 0.00, -0.00, -1.00, 581.2, 214.1)">•</text><text xml:space="preserve" font-family="HelveticaNeue-Light,Helvetica Neue" font-size="36.0" fill="#747373" transform="matrix(1.00, 0.00, -0.00, -1.00, 617.2, 210.7)">S</text><text xml:space="preserve" font-family="HelveticaNeue-Light,Helvetica Neue" font-size="36.0" fill="#747373" transform="matrix(1.00, 0.00, -0.00, -1.00, 639.8, 210.7)">i</text><text xml:space="preserve" font-family="HelveticaNeue-Light,Helvetica Neue" font-size="36.0" fill="#747373" transform="matrix(1.00, 0.00, -0.00, -1.00, 646.5, 210.7)">r</text><text xml:space="preserve" font-family="HelveticaNeue-Light,Helvetica Neue" font-size="36.0" fill="#747373" transform="matrix(1.00, 0.00, -0.00, -1.00, 657.2, 210.7)">o</text><text xml:space="preserve" font-family="HelveticaNeue-Light,Helvetica Neue" font-size="36.0" fill="#747373" transform="matrix(1.00, 0.00, -0.00, -1.00, 677.2, 210.7)">l</text><text xml:space="preserve" font-family="HelveticaNeue-Light,Helvetica Neue" font-size="36.0" fill="#747373" transform="matrix(1.00, 0.00, -0.00, -1.00, 683.9, 210.7)">i</text><text xml:space="preserve" font-family="HelveticaNeue-Light,Helvetica Neue" font-size="36.0" fill="#747373" transform="matrix(1.00, 0.00, -0.00, -1.00, 690.5, 210.7)">m</text><text xml:space="preserve" font-family="HelveticaNeue-Light,Helvetica Neue" font-size="36.0" fill="#747373" transform="matrix(1.00, 0.00, -0.00, -1.00, 720.5, 210.7)">u</text><text xml:space="preserve" font-family="HelveticaNeue-Light,Helvetica Neue" font-size="36.0" fill="#747373" transform="matrix(1.00, 0.00, -0.00, -1.00, 739.8, 210.7)">s</text><text xml:space="preserve" font-family="HelveticaNeue-Light,Helvetica Neue" font-size="36.0" fill="#747373" transform="matrix(1.00, 0.00, -0.00, -1.00, 757.2, 210.7)"> </text><text xml:space="preserve" font-family="HelveticaNeue-Light,Helvetica Neue" font-size="36.0" fill="#747373" transform="matrix(1.00, 0.00, -0.00, -1.00, 767.2, 210.7)">e</text><text xml:space="preserve" font-family="HelveticaNeue-Light,Helvetica Neue" font-size="36.0" fill="#747373" transform="matrix(1.00, 0.00, -0.00, -1.00, 785.8, 210.7)">t</text><text xml:space="preserve" font-family="HelveticaNeue-Light,Helvetica Neue" font-size="36.0" fill="#747373" transform="matrix(1.00, 0.00, -0.00, -1.00, 796.5, 210.7)"> </text><text xml:space="preserve" font-family="HelveticaNeue-Light,Helvetica Neue" font-size="36.0" fill="#747373" transform="matrix(1.00, 0.00, -0.00, -1.00, 806.5, 210.7)">a</text><text xml:space="preserve" font-family="HelveticaNeue-Light,Helvetica Neue" font-size="36.0" fill="#747373" transform="matrix(1.00, 0.00, -0.00, -1.00, 825.2, 210.7)">l</text><text xml:space="preserve" font-family="HelveticaNeue-Light,Helvetica Neue" font-size="36.0" fill="#747373" transform="matrix(1.00, 0.00, -0.00, -1.00, 831.9, 210.7)">.</text><text xml:space="preserve" font-family="HelveticaNeue-Light,Helvetica Neue" font-size="36.0" fill="#747373" transform="matrix(1.00, 0.00, -0.00, -1.00, 841.9, 210.7)"> </text><text xml:space="preserve" font-family="HelveticaNeue,Helvetica Neue" font-size="27.0" fill="#747373" transform="matrix(1.00, 0.00, -0.00, -1.00, 581.2, 128.1)">•</text><text xml:space="preserve" font-family="HelveticaNeue-Light,Helvetica Neue" font-size="36.0" fill="#747373" transform="matrix(1.00, 0.00, -0.00, -1.00, 617.2, 124.7)">B</text><text xml:space="preserve" font-family="HelveticaNeue-Light,Helvetica Neue" font-size="36.0" fill="#747373" transform="matrix(1.00, 0.00, -0.00, -1.00, 641.2, 124.7)">e</text><text xml:space="preserve" font-family="HelveticaNeue-Light,Helvetica Neue" font-size="36.0" fill="#747373" transform="matrix(1.00, 0.00, -0.00, -1.00, 659.8, 124.7)">v</text><text xml:space="preserve" font-family="HelveticaNeue-Light,Helvetica Neue" font-size="36.0" fill="#747373" transform="matrix(1.00, 0.00, -0.00, -1.00, 676.5, 124.7)">a</text><text xml:space="preserve" font-family="HelveticaNeue-Light,Helvetica Neue" font-size="36.0" fill="#747373" transform="matrix(1.00, 0.00, -0.00, -1.00, 695.2, 124.7)">c</text><text xml:space="preserve" font-family="HelveticaNeue-Light,Helvetica Neue" font-size="36.0" fill="#747373" transform="matrix(1.00, 0.00, -0.00, -1.00, 713.9, 124.7)">i</text><text xml:space="preserve" font-family="HelveticaNeue-Light,Helvetica Neue" font-size="36.0" fill="#747373" transform="matrix(1.00, 0.00, -0.00, -1.00, 720.5, 124.7)">z</text><text xml:space="preserve" font-family="HelveticaNeue-Light,Helvetica Neue" font-size="36.0" fill="#747373" transform="matrix(1.00, 0.00, -0.00, -1.00, 737.2, 124.7)">u</text><text xml:space="preserve" font-family="HelveticaNeue-Light,Helvetica Neue" font-size="36.0" fill="#747373" transform="matrix(1.00, 0.00, -0.00, -1.00, 756.5, 124.7)">m</text><text xml:space="preserve" font-family="HelveticaNeue-Light,Helvetica Neue" font-size="36.0" fill="#747373" transform="matrix(1.00, 0.00, -0.00, -1.00, 786.5, 124.7)">a</text><text xml:space="preserve" font-family="HelveticaNeue-Light,Helvetica Neue" font-size="36.0" fill="#747373" transform="matrix(1.00, 0.00, -0.00, -1.00, 805.2, 124.7)">b</text></g></svg>