<?xml version="1.0" encoding="UTF-8" standalone="no"?><svg xmlns="http://www.w3.org/2000/svg" xmlns:xlink="http://www.w3.org/1999/xlink" clip-rule="evenodd" stroke-miterlimit="10" viewBox="0 0 1024 768"><desc>SVG generated by Keynote</desc><defs></defs><g transform="matrix(1.00, 0.00, -0.00, -1.00, 0.0, 768.0)"><path d="M 0.0 768.0 L 1024.0 768.0 L 1024.0 0.0 L 0.0 0.0 Z M 0.0 768.0 " fill="#FEFFFE"></path><text xml:space="preserve" font-family="HelveticaNeue-Light,Helvetica Neue" font-size="40.0" fill="#747373" transform="matrix(1.00, 0.00, -0.00, -1.00, 417.5, 386.7)">T</text><text xml:space="preserve" font-family="HelveticaNeue-Light,Helvetica Neue" font-size="40.0" fill="#747373" transform="matrix(1.00, 0.00, -0.00, -1.00, 439.8, 386.7)">h</text><text xml:space="preserve" font-family="HelveticaNeue-Light,Helvetica Neue" font-size="40.0" fill="#747373" transform="matrix(1.00, 0.00, -0.00, -1.00, 461.2, 386.7)">a</text><text xml:space="preserve" font-family="HelveticaNeue-Light,Helvetica Neue" font-size="40.0" fill="#747373" transform="matrix(1.00, 0.00, -0.00, -1.00, 482.0, 386.7)">n</text><text xml:space="preserve" font-family="HelveticaNeue-Light,Helvetica Neue" font-size="40.0" fill="#747373" transform="matrix(1.00, 0.00, -0.00, -1.00, 503.5, 386.7)">k</text><text xml:space="preserve" font-family="HelveticaNeue-Light,Helvetica Neue" font-size="40.0" fill="#747373" transform="matrix(1.00, 0.00, -0.00, -1.00, 523.5, 386.7)"> </text><text xml:space="preserve" font-family="HelveticaNeue-Light,Helvetica Neue" font-size="40.0" fill="#747373" transform="matrix(1.00, 0.00, -0.00, -1.00, 534.6, 386.7)">y</text><text xml:space="preserve" font-family="HelveticaNeue-Light,Helvetica Neue" font-size="40.0" fill="#747373" transform="matrix(1.00, 0.00, -0.00, -1.00, 553.1, 386.7)">o</text><text xml:space="preserve" font-family="HelveticaNeue-Light,Helvetica Neue" font-size="40.0" fill="#747373" transform="matrix(1.00, 0.00, -0.00, -1.00, 575.4, 386.7)">u</text><text xml:space="preserve" font-family="HelveticaNeue-Light,Helvetica Neue" font-size="40.0" fill="#747373" transform="matrix(1.00, 0.00, -0.00, -1.00, 596.8, 386.7)">!</text></g></svg>