<?xml version="1.0" encoding="UTF-8" standalone="no"?><svg xmlns="http://www.w3.org/2000/svg" xmlns:xlink="http://www.w3.org/1999/xlink" clip-rule="evenodd" stroke-miterlimit="4.00" viewBox="0 0 874 97"><desc>SVG generated by Keynote</desc><defs></defs><g transform="matrix(1.00, 0.00, -0.00, -1.00, 0.0, 97.0)"><text xml:space="preserve" font-family="HelveticaNeue-Light" font-size="28.1" fill="#000000" transform="matrix(1.00, 0.00, -0.00, -1.00, 1.0, 75.0)">O</text><text xml:space="preserve" font-family="HelveticaNeue-Light" font-size="28.1" fill="#000000" transform="matrix(1.00, 0.00, -0.00, -1.00, 21.9, 75.0)">C</text><text xml:space="preserve" font-family="HelveticaNeue-Light" font-size="28.1" fill="#000000" transform="matrix(1.00, 0.00, -0.00, -1.00, 41.7, 75.0)">T</text><text xml:space="preserve" font-family="HelveticaNeue-Light" font-size="28.1" fill="#000000" transform="matrix(1.00, 0.00, -0.00, -1.00, 57.3, 75.0)">E</text><text xml:space="preserve" font-family="HelveticaNeue-Light" font-size="28.1" fill="#000000" transform="matrix(1.00, 0.00, -0.00, -1.00, 74.0, 75.0)">T</text><text xml:space="preserve" font-family="HelveticaNeue-Light" font-size="28.1" fill="#000000" transform="matrix(1.00, 0.00, -0.00, -1.00, 86.0, 75.0)">-</text><text xml:space="preserve" font-family="HelveticaNeue-Light" font-size="28.1" fill="#000000" transform="matrix(1.00, 0.00, -0.00, -1.00, 96.4, 75.0)">C</text><text xml:space="preserve" font-family="HelveticaNeue-Light" font-size="28.1" fill="#000000" transform="matrix(1.00, 0.00, -0.00, -1.00, 116.2, 75.0)">Y</text><text xml:space="preserve" font-family="HelveticaNeue-Light" font-size="28.1" fill="#000000" transform="matrix(1.00, 0.00, -0.00, -1.00, 130.8, 75.0)">:</text><text xml:space="preserve" font-family="HelveticaNeue-Light" font-size="28.1" fill="#000000" transform="matrix(1.00, 0.00, -0.00, -1.00, 138.7, 75.0)"> </text><text xml:space="preserve" font-family="HelveticaNeue-Light" font-size="28.1" fill="#000000" transform="matrix(1.00, 0.00, -0.00, -1.00, 146.5, 75.0)">a</text><text xml:space="preserve" font-family="HelveticaNeue-Light" font-size="28.1" fill="#000000" transform="matrix(1.00, 0.00, -0.00, -1.00, 161.1, 75.0)"> </text><text xml:space="preserve" font-family="HelveticaNeue-Light" font-size="28.1" fill="#000000" transform="matrix(1.00, 0.00, -0.00, -1.00, 168.9, 75.0)">p</text><text xml:space="preserve" font-family="HelveticaNeue-Light" font-size="28.1" fill="#000000" transform="matrix(1.00, 0.00, -0.00, -1.00, 185.1, 75.0)">h</text><text xml:space="preserve" font-family="HelveticaNeue-Light" font-size="28.1" fill="#000000" transform="matrix(1.00, 0.00, -0.00, -1.00, 200.2, 75.0)">a</text><text xml:space="preserve" font-family="HelveticaNeue-Light" font-size="28.1" fill="#000000" transform="matrix(1.00, 0.00, -0.00, -1.00, 214.8, 75.0)">s</text><text xml:space="preserve" font-family="HelveticaNeue-Light" font-size="28.1" fill="#000000" transform="matrix(1.00, 0.00, -0.00, -1.00, 228.3, 75.0)">e</text><text xml:space="preserve" font-family="HelveticaNeue-Light" font-size="28.1" fill="#000000" transform="matrix(1.00, 0.00, -0.00, -1.00, 242.9, 75.0)"> </text><text xml:space="preserve" font-family="HelveticaNeue-Light" font-size="28.1" fill="#000000" transform="matrix(1.00, 0.00, -0.00, -1.00, 250.7, 75.0)">I</text><text xml:space="preserve" font-family="HelveticaNeue-Light" font-size="28.1" fill="#000000" transform="matrix(1.00, 0.00, -0.00, -1.00, 257.0, 75.0)">I</text><text xml:space="preserve" font-family="HelveticaNeue-Light" font-size="28.1" fill="#000000" transform="matrix(1.00, 0.00, -0.00, -1.00, 263.2, 75.0)"> </text><text xml:space="preserve" font-family="HelveticaNeue-Light" font-size="28.1" fill="#000000" transform="matrix(1.00, 0.00, -0.00, -1.00, 271.1, 75.0)">s</text><text xml:space="preserve" font-family="HelveticaNeue-Light" font-size="28.1" fill="#000000" transform="matrix(1.00, 0.00, -0.00, -1.00, 284.6, 75.0)">t</text><text xml:space="preserve" font-family="HelveticaNeue-Light" font-size="28.1" fill="#000000" transform="matrix(1.00, 0.00, -0.00, -1.00, 292.9, 75.0)">u</text><text xml:space="preserve" font-family="HelveticaNeue-Light" font-size="28.1" fill="#000000" transform="matrix(1.00, 0.00, -0.00, -1.00, 308.0, 75.0)">d</text><text xml:space="preserve" font-family="HelveticaNeue-Light" font-size="28.1" fill="#000000" transform="matrix(1.00, 0.00, -0.00, -1.00, 324.2, 75.0)">y</text><text xml:space="preserve" font-family="HelveticaNeue-Light" font-size="28.1" fill="#000000" transform="matrix(1.00, 0.00, -0.00, -1.00, 337.2, 75.0)"> </text><text xml:space="preserve" font-family="HelveticaNeue-Light" font-size="28.1" fill="#000000" transform="matrix(1.00, 0.00, -0.00, -1.00, 345.0, 75.0)">t</text><text xml:space="preserve" font-family="HelveticaNeue-Light" font-size="28.1" fill="#000000" transform="matrix(1.00, 0.00, -0.00, -1.00, 353.4, 75.0)">o</text><text xml:space="preserve" font-family="HelveticaNeue-Light" font-size="28.1" fill="#000000" transform="matrix(1.00, 0.00, -0.00, -1.00, 369.0, 75.0)"> </text><text xml:space="preserve" font-family="HelveticaNeue-Light" font-size="28.1" fill="#000000" transform="matrix(1.00, 0.00, -0.00, -1.00, 376.8, 75.0)">i</text><text xml:space="preserve" font-family="HelveticaNeue-Light" font-size="28.1" fill="#000000" transform="matrix(1.00, 0.00, -0.00, -1.00, 382.0, 75.0)">n</text><text xml:space="preserve" font-family="HelveticaNeue-Light" font-size="28.1" fill="#000000" transform="matrix(1.00, 0.00, -0.00, -1.00, 397.2, 75.0)">v</text><text xml:space="preserve" font-family="HelveticaNeue-Light" font-size="28.1" fill="#000000" transform="matrix(1.00, 0.00, -0.00, -1.00, 410.2, 75.0)">e</text><text xml:space="preserve" font-family="HelveticaNeue-Light" font-size="28.1" fill="#000000" transform="matrix(1.00, 0.00, -0.00, -1.00, 424.8, 75.0)">s</text><text xml:space="preserve" font-family="HelveticaNeue-Light" font-size="28.1" fill="#000000" transform="matrix(1.00, 0.00, -0.00, -1.00, 438.3, 75.0)">t</text><text xml:space="preserve" font-family="HelveticaNeue-Light" font-size="28.1" fill="#000000" transform="matrix(1.00, 0.00, -0.00, -1.00, 446.7, 75.0)">i</text><text xml:space="preserve" font-family="HelveticaNeue-Light" font-size="28.1" fill="#000000" transform="matrix(1.00, 0.00, -0.00, -1.00, 451.9, 75.0)">g</text><text xml:space="preserve" font-family="HelveticaNeue-Light" font-size="28.1" fill="#000000" transform="matrix(1.00, 0.00, -0.00, -1.00, 467.5, 75.0)">a</text><text xml:space="preserve" font-family="HelveticaNeue-Light" font-size="28.1" fill="#000000" transform="matrix(1.00, 0.00, -0.00, -1.00, 482.1, 75.0)">t</text><text xml:space="preserve" font-family="HelveticaNeue-Light" font-size="28.1" fill="#000000" transform="matrix(1.00, 0.00, -0.00, -1.00, 490.4, 75.0)">e</text><text xml:space="preserve" font-family="HelveticaNeue-Light" font-size="28.1" fill="#000000" transform="matrix(1.00, 0.00, -0.00, -1.00, 505.0, 75.0)"> </text><text xml:space="preserve" font-family="HelveticaNeue-Light" font-size="28.1" fill="#000000" transform="matrix(1.00, 0.00, -0.00, -1.00, 512.9, 75.0)">t</text><text xml:space="preserve" font-family="HelveticaNeue-Light" font-size="28.1" fill="#000000" transform="matrix(1.00, 0.00, -0.00, -1.00, 521.2, 75.0)">h</text><text xml:space="preserve" font-family="HelveticaNeue-Light" font-size="28.1" fill="#000000" transform="matrix(1.00, 0.00, -0.00, -1.00, 536.3, 75.0)">e</text><text xml:space="preserve" font-family="HelveticaNeue-Light" font-size="28.1" fill="#000000" transform="matrix(1.00, 0.00, -0.00, -1.00, 550.9, 75.0)"> </text><text xml:space="preserve" font-family="HelveticaNeue-Light" font-size="28.1" fill="#000000" transform="matrix(1.00, 0.00, -0.00, -1.00, 558.7, 75.0)">e</text><text xml:space="preserve" font-family="HelveticaNeue-Light" font-size="28.1" fill="#000000" transform="matrix(1.00, 0.00, -0.00, -1.00, 573.3, 75.0)">f</text><text xml:space="preserve" font-family="HelveticaNeue-Light" font-size="28.1" fill="#000000" transform="matrix(1.00, 0.00, -0.00, -1.00, 580.6, 75.0)">ï¬</text><text xml:space="preserve" font-family="HelveticaNeue-Light" font-size="28.1" fill="#000000" transform="matrix(1.00, 0.00, -0.00, -1.00, 593.1, 75.0)">c</text><text xml:space="preserve" font-family="HelveticaNeue-Light" font-size="28.1" fill="#000000" transform="matrix(1.00, 0.00, -0.00, -1.00, 607.7, 75.0)">a</text><text xml:space="preserve" font-family="HelveticaNeue-Light" font-size="28.1" fill="#000000" transform="matrix(1.00, 0.00, -0.00, -1.00, 622.3, 75.0)">c</text><text xml:space="preserve" font-family="HelveticaNeue-Light" font-size="28.1" fill="#000000" transform="matrix(1.00, 0.00, -0.00, -1.00, 636.9, 75.0)">y</text><text xml:space="preserve" font-family="HelveticaNeue-Light" font-size="28.1" fill="#000000" transform="matrix(1.00, 0.00, -0.00, -1.00, 650.0, 75.0)"> </text><text xml:space="preserve" font-family="HelveticaNeue-Light" font-size="28.1" fill="#000000" transform="matrix(1.00, 0.00, -0.00, -1.00, 657.8, 75.0)">o</text><text xml:space="preserve" font-family="HelveticaNeue-Light" font-size="28.1" fill="#000000" transform="matrix(1.00, 0.00, -0.00, -1.00, 673.4, 75.0)">f</text><text xml:space="preserve" font-family="HelveticaNeue-Light" font-size="28.1" fill="#000000" transform="matrix(1.00, 0.00, -0.00, -1.00, 680.7, 75.0)"> </text><text xml:space="preserve" font-family="HelveticaNeue-Light" font-size="28.1" fill="#000000" transform="matrix(1.00, 0.00, -0.00, -1.00, 688.5, 75.0)">p</text><text xml:space="preserve" font-family="HelveticaNeue-Light" font-size="28.1" fill="#000000" transform="matrix(1.00, 0.00, -0.00, -1.00, 704.7, 75.0)">o</text><text xml:space="preserve" font-family="HelveticaNeue-Light" font-size="28.1" fill="#000000" transform="matrix(1.00, 0.00, -0.00, -1.00, 720.3, 75.0)">s</text><text xml:space="preserve" font-family="HelveticaNeue-Light" font-size="28.1" fill="#000000" transform="matrix(1.00, 0.00, -0.00, -1.00, 733.9, 75.0)">t</text><text xml:space="preserve" font-family="HelveticaNeue-Light" font-size="28.1" fill="#000000" transform="matrix(1.00, 0.00, -0.00, -1.00, 742.2, 75.0)">-</text><text xml:space="preserve" font-family="HelveticaNeue-Light" font-size="28.1" fill="#000000" transform="matrix(1.00, 0.00, -0.00, -1.00, 752.6, 75.0)">t</text><text xml:space="preserve" font-family="HelveticaNeue-Light" font-size="28.1" fill="#000000" transform="matrix(1.00, 0.00, -0.00, -1.00, 760.9, 75.0)">r</text><text xml:space="preserve" font-family="HelveticaNeue-Light" font-size="28.1" fill="#000000" transform="matrix(1.00, 0.00, -0.00, -1.00, 769.8, 75.0)">a</text><text xml:space="preserve" font-family="HelveticaNeue-Light" font-size="28.1" fill="#000000" transform="matrix(1.00, 0.00, -0.00, -1.00, 784.4, 75.0)">n</text><text xml:space="preserve" font-family="HelveticaNeue-Light" font-size="28.1" fill="#000000" transform="matrix(1.00, 0.00, -0.00, -1.00, 799.5, 75.0)">s</text><text xml:space="preserve" font-family="HelveticaNeue-Light" font-size="28.1" fill="#000000" transform="matrix(1.00, 0.00, -0.00, -1.00, 813.1, 75.0)">p</text><text xml:space="preserve" font-family="HelveticaNeue-Light" font-size="28.1" fill="#000000" transform="matrix(1.00, 0.00, -0.00, -1.00, 829.2, 75.0)">l</text><text xml:space="preserve" font-family="HelveticaNeue-Light" font-size="28.1" fill="#000000" transform="matrix(1.00, 0.00, -0.00, -1.00, 834.4, 75.0)">a</text><text xml:space="preserve" font-family="HelveticaNeue-Light" font-size="28.1" fill="#000000" transform="matrix(1.00, 0.00, -0.00, -1.00, 849.0, 75.0)">n</text><text xml:space="preserve" font-family="HelveticaNeue-Light" font-size="28.1" fill="#000000" transform="matrix(1.00, 0.00, -0.00, -1.00, 864.1, 75.0)">t</text><text xml:space="preserve" font-family="HelveticaNeue-Light" font-size="28.1" fill="#000000" transform="matrix(1.00, 0.00, -0.00, -1.00, 872.5, 75.0)"> </text><text xml:space="preserve" font-family="HelveticaNeue-Light" font-size="28.1" fill="#000000" transform="matrix(1.00, 0.00, -0.00, -1.00, 1.0, 41.0)">c</text><text xml:space="preserve" font-family="HelveticaNeue-Light" font-size="28.1" fill="#000000" transform="matrix(1.00, 0.00, -0.00, -1.00, 15.6, 41.0)">y</text><text xml:space="preserve" font-family="HelveticaNeue-Light" font-size="28.1" fill="#000000" transform="matrix(1.00, 0.00, -0.00, -1.00, 28.6, 41.0)">c</text><text xml:space="preserve" font-family="HelveticaNeue-Light" font-size="28.1" fill="#000000" transform="matrix(1.00, 0.00, -0.00, -1.00, 43.2, 41.0)">l</text><text xml:space="preserve" font-family="HelveticaNeue-Light" font-size="28.1" fill="#000000" transform="matrix(1.00, 0.00, -0.00, -1.00, 48.4, 41.0)">o</text><text xml:space="preserve" font-family="HelveticaNeue-Light" font-size="28.1" fill="#000000" transform="matrix(1.00, 0.00, -0.00, -1.00, 64.1, 41.0)">p</text><text xml:space="preserve" font-family="HelveticaNeue-Light" font-size="28.1" fill="#000000" transform="matrix(1.00, 0.00, -0.00, -1.00, 80.2, 41.0)">h</text><text xml:space="preserve" font-family="HelveticaNeue-Light" font-size="28.1" fill="#000000" transform="matrix(1.00, 0.00, -0.00, -1.00, 95.4, 41.0)">o</text><text xml:space="preserve" font-family="HelveticaNeue-Light" font-size="28.1" fill="#000000" transform="matrix(1.00, 0.00, -0.00, -1.00, 111.0, 41.0)">s</text><text xml:space="preserve" font-family="HelveticaNeue-Light" font-size="28.1" fill="#000000" transform="matrix(1.00, 0.00, -0.00, -1.00, 124.5, 41.0)">p</text><text xml:space="preserve" font-family="HelveticaNeue-Light" font-size="28.1" fill="#000000" transform="matrix(1.00, 0.00, -0.00, -1.00, 140.7, 41.0)">h</text><text xml:space="preserve" font-family="HelveticaNeue-Light" font-size="28.1" fill="#000000" transform="matrix(1.00, 0.00, -0.00, -1.00, 155.8, 41.0)">a</text><text xml:space="preserve" font-family="HelveticaNeue-Light" font-size="28.1" fill="#000000" transform="matrix(1.00, 0.00, -0.00, -1.00, 170.4, 41.0)">m</text><text xml:space="preserve" font-family="HelveticaNeue-Light" font-size="28.1" fill="#000000" transform="matrix(1.00, 0.00, -0.00, -1.00, 193.8, 41.0)">i</text><text xml:space="preserve" font-family="HelveticaNeue-Light" font-size="28.1" fill="#000000" transform="matrix(1.00, 0.00, -0.00, -1.00, 199.0, 41.0)">d</text><text xml:space="preserve" font-family="HelveticaNeue-Light" font-size="28.1" fill="#000000" transform="matrix(1.00, 0.00, -0.00, -1.00, 215.2, 41.0)">e</text><text xml:space="preserve" font-family="HelveticaNeue-Light" font-size="28.1" fill="#000000" transform="matrix(1.00, 0.00, -0.00, -1.00, 229.8, 41.0)"> </text><text xml:space="preserve" font-family="HelveticaNeue-Light" font-size="28.1" fill="#000000" transform="matrix(1.00, 0.00, -0.00, -1.00, 237.6, 41.0)">a</text><text xml:space="preserve" font-family="HelveticaNeue-Light" font-size="28.1" fill="#000000" transform="matrix(1.00, 0.00, -0.00, -1.00, 252.2, 41.0)">s</text><text xml:space="preserve" font-family="HelveticaNeue-Light" font-size="28.1" fill="#000000" transform="matrix(1.00, 0.00, -0.00, -1.00, 265.8, 41.0)"> </text><text xml:space="preserve" font-family="HelveticaNeue-Light" font-size="28.1" fill="#000000" transform="matrix(1.00, 0.00, -0.00, -1.00, 273.6, 41.0)">s</text><text xml:space="preserve" font-family="HelveticaNeue-Light" font-size="28.1" fill="#000000" transform="matrix(1.00, 0.00, -0.00, -1.00, 287.1, 41.0)">o</text><text xml:space="preserve" font-family="HelveticaNeue-Light" font-size="28.1" fill="#000000" transform="matrix(1.00, 0.00, -0.00, -1.00, 302.8, 41.0)">l</text><text xml:space="preserve" font-family="HelveticaNeue-Light" font-size="28.1" fill="#000000" transform="matrix(1.00, 0.00, -0.00, -1.00, 308.0, 41.0)">e</text><text xml:space="preserve" font-family="HelveticaNeue-Light" font-size="28.1" fill="#000000" transform="matrix(1.00, 0.00, -0.00, -1.00, 322.6, 41.0)"> </text><text xml:space="preserve" font-family="HelveticaNeue-Light" font-size="28.1" fill="#000000" transform="matrix(1.00, 0.00, -0.00, -1.00, 330.4, 41.0)">g</text><text xml:space="preserve" font-family="HelveticaNeue-Light" font-size="28.1" fill="#000000" transform="matrix(1.00, 0.00, -0.00, -1.00, 346.1, 41.0)">r</text><text xml:space="preserve" font-family="HelveticaNeue-Light" font-size="28.1" fill="#000000" transform="matrix(1.00, 0.00, -0.00, -1.00, 354.9, 41.0)">a</text><text xml:space="preserve" font-family="HelveticaNeue-Light" font-size="28.1" fill="#000000" transform="matrix(1.00, 0.00, -0.00, -1.00, 369.5, 41.0)">f</text><text xml:space="preserve" font-family="HelveticaNeue-Light" font-size="28.1" fill="#000000" transform="matrix(1.00, 0.00, -0.00, -1.00, 376.8, 41.0)">t</text><text xml:space="preserve" font-family="HelveticaNeue-Light" font-size="28.1" fill="#000000" transform="matrix(1.00, 0.00, -0.00, -1.00, 385.1, 41.0)">-</text><text xml:space="preserve" font-family="HelveticaNeue-Light" font-size="28.1" fill="#000000" transform="matrix(1.00, 0.00, -0.00, -1.00, 395.6, 41.0)">v</text><text xml:space="preserve" font-family="HelveticaNeue-Light" font-size="28.1" fill="#000000" transform="matrix(1.00, 0.00, -0.00, -1.00, 408.6, 41.0)">e</text><text xml:space="preserve" font-family="HelveticaNeue-Light" font-size="28.1" fill="#000000" transform="matrix(1.00, 0.00, -0.00, -1.00, 423.2, 41.0)">r</text><text xml:space="preserve" font-family="HelveticaNeue-Light" font-size="28.1" fill="#000000" transform="matrix(1.00, 0.00, -0.00, -1.00, 432.0, 41.0)">s</text><text xml:space="preserve" font-family="HelveticaNeue-Light" font-size="28.1" fill="#000000" transform="matrix(1.00, 0.00, -0.00, -1.00, 445.6, 41.0)">u</text><text xml:space="preserve" font-family="HelveticaNeue-Light" font-size="28.1" fill="#000000" transform="matrix(1.00, 0.00, -0.00, -1.00, 460.7, 41.0)">s</text><text xml:space="preserve" font-family="HelveticaNeue-Light" font-size="28.1" fill="#000000" transform="matrix(1.00, 0.00, -0.00, -1.00, 474.2, 41.0)">-</text><text xml:space="preserve" font-family="HelveticaNeue-Light" font-size="28.1" fill="#000000" transform="matrix(1.00, 0.00, -0.00, -1.00, 484.6, 41.0)">h</text><text xml:space="preserve" font-family="HelveticaNeue-Light" font-size="28.1" fill="#000000" transform="matrix(1.00, 0.00, -0.00, -1.00, 499.8, 41.0)">o</text><text xml:space="preserve" font-family="HelveticaNeue-Light" font-size="28.1" fill="#000000" transform="matrix(1.00, 0.00, -0.00, -1.00, 515.4, 41.0)">s</text><text xml:space="preserve" font-family="HelveticaNeue-Light" font-size="28.1" fill="#000000" transform="matrix(1.00, 0.00, -0.00, -1.00, 528.9, 41.0)">t</text><text xml:space="preserve" font-family="HelveticaNeue-Light" font-size="28.1" fill="#000000" transform="matrix(1.00, 0.00, -0.00, -1.00, 537.3, 41.0)"> </text><text xml:space="preserve" font-family="HelveticaNeue-Light" font-size="28.1" fill="#000000" transform="matrix(1.00, 0.00, -0.00, -1.00, 545.1, 41.0)">p</text><text xml:space="preserve" font-family="HelveticaNeue-Light" font-size="28.1" fill="#000000" transform="matrix(1.00, 0.00, -0.00, -1.00, 561.2, 41.0)">r</text><text xml:space="preserve" font-family="HelveticaNeue-Light" font-size="28.1" fill="#000000" transform="matrix(1.00, 0.00, -0.00, -1.00, 569.6, 41.0)">o</text><text xml:space="preserve" font-family="HelveticaNeue-Light" font-size="28.1" fill="#000000" transform="matrix(1.00, 0.00, -0.00, -1.00, 585.2, 41.0)">p</text><text xml:space="preserve" font-family="HelveticaNeue-Light" font-size="28.1" fill="#000000" transform="matrix(1.00, 0.00, -0.00, -1.00, 601.4, 41.0)">h</text><text xml:space="preserve" font-family="HelveticaNeue-Light" font-size="28.1" fill="#000000" transform="matrix(1.00, 0.00, -0.00, -1.00, 616.5, 41.0)">y</text><text xml:space="preserve" font-family="HelveticaNeue-Light" font-size="28.1" fill="#000000" transform="matrix(1.00, 0.00, -0.00, -1.00, 629.5, 41.0)">l</text><text xml:space="preserve" font-family="HelveticaNeue-Light" font-size="28.1" fill="#000000" transform="matrix(1.00, 0.00, -0.00, -1.00, 634.7, 41.0)">a</text><text xml:space="preserve" font-family="HelveticaNeue-Light" font-size="28.1" fill="#000000" transform="matrix(1.00, 0.00, -0.00, -1.00, 649.3, 41.0)">x</text><text xml:space="preserve" font-family="HelveticaNeue-Light" font-size="28.1" fill="#000000" transform="matrix(1.00, 0.00, -0.00, -1.00, 662.9, 41.0)">i</text><text xml:space="preserve" font-family="HelveticaNeue-Light" font-size="28.1" fill="#000000" transform="matrix(1.00, 0.00, -0.00, -1.00, 668.1, 41.0)">s</text><text xml:space="preserve" font-family="HelveticaNeue-Light" font-size="28.1" fill="#000000" transform="matrix(1.00, 0.00, -0.00, -1.00, 681.6, 41.0)"> </text><text xml:space="preserve" font-family="HelveticaNeue-Light" font-size="28.1" fill="#000000" transform="matrix(1.00, 0.00, -0.00, -1.00, 689.4, 41.0)">a</text><text xml:space="preserve" font-family="HelveticaNeue-Light" font-size="28.1" fill="#000000" transform="matrix(1.00, 0.00, -0.00, -1.00, 704.0, 41.0)">f</text><text xml:space="preserve" font-family="HelveticaNeue-Light" font-size="28.1" fill="#000000" transform="matrix(1.00, 0.00, -0.00, -1.00, 711.3, 41.0)">t</text><text xml:space="preserve" font-family="HelveticaNeue-Light" font-size="28.1" fill="#000000" transform="matrix(1.00, 0.00, -0.00, -1.00, 719.7, 41.0)">e</text><text xml:space="preserve" font-family="HelveticaNeue-Light" font-size="28.1" fill="#000000" transform="matrix(1.00, 0.00, -0.00, -1.00, 734.3, 41.0)">r</text><text xml:space="preserve" font-family="HelveticaNeue-Light" font-size="28.1" fill="#000000" transform="matrix(1.00, 0.00, -0.00, -1.00, 743.1, 41.0)"> </text><text xml:space="preserve" font-family="HelveticaNeue-Light" font-size="28.1" fill="#000000" transform="matrix(1.00, 0.00, -0.00, -1.00, 751.0, 41.0)">a</text><text xml:space="preserve" font-family="HelveticaNeue-Light" font-size="28.1" fill="#000000" transform="matrix(1.00, 0.00, -0.00, -1.00, 765.6, 41.0)">l</text><text xml:space="preserve" font-family="HelveticaNeue-Light" font-size="28.1" fill="#000000" transform="matrix(1.00, 0.00, -0.00, -1.00, 770.8, 41.0)">l</text><text xml:space="preserve" font-family="HelveticaNeue-Light" font-size="28.1" fill="#000000" transform="matrix(1.00, 0.00, -0.00, -1.00, 776.0, 41.0)">o</text><text xml:space="preserve" font-family="HelveticaNeue-Light" font-size="28.1" fill="#000000" transform="matrix(1.00, 0.00, -0.00, -1.00, 791.6, 41.0)">g</text><text xml:space="preserve" font-family="HelveticaNeue-Light" font-size="28.1" fill="#000000" transform="matrix(1.00, 0.00, -0.00, -1.00, 807.3, 41.0)">e</text><text xml:space="preserve" font-family="HelveticaNeue-Light" font-size="28.1" fill="#000000" transform="matrix(1.00, 0.00, -0.00, -1.00, 821.9, 41.0)">n</text><text xml:space="preserve" font-family="HelveticaNeue-Light" font-size="28.1" fill="#000000" transform="matrix(1.00, 0.00, -0.00, -1.00, 837.0, 41.0)">e</text><text xml:space="preserve" font-family="HelveticaNeue-Light" font-size="28.1" fill="#000000" transform="matrix(1.00, 0.00, -0.00, -1.00, 851.6, 41.0)">i</text><text xml:space="preserve" font-family="HelveticaNeue-Light" font-size="28.1" fill="#000000" transform="matrix(1.00, 0.00, -0.00, -1.00, 856.8, 41.0)">c</text><text xml:space="preserve" font-family="HelveticaNeue-Light" font-size="28.1" fill="#000000" transform="matrix(1.00, 0.00, -0.00, -1.00, 871.4, 41.0)"> </text><text xml:space="preserve" font-family="HelveticaNeue-Light" font-size="28.1" fill="#000000" transform="matrix(1.00, 0.00, -0.00, -1.00, 1.0, 7.0)">p</text><text xml:space="preserve" font-family="HelveticaNeue-Light" font-size="28.1" fill="#000000" transform="matrix(1.00, 0.00, -0.00, -1.00, 17.2, 7.0)">e</text><text xml:space="preserve" font-family="HelveticaNeue-Light" font-size="28.1" fill="#000000" transform="matrix(1.00, 0.00, -0.00, -1.00, 31.8, 7.0)">r</text><text xml:space="preserve" font-family="HelveticaNeue-Light" font-size="28.1" fill="#000000" transform="matrix(1.00, 0.00, -0.00, -1.00, 40.6, 7.0)">i</text><text xml:space="preserve" font-family="HelveticaNeue-Light" font-size="28.1" fill="#000000" transform="matrix(1.00, 0.00, -0.00, -1.00, 45.8, 7.0)">p</text><text xml:space="preserve" font-family="HelveticaNeue-Light" font-size="28.1" fill="#000000" transform="matrix(1.00, 0.00, -0.00, -1.00, 62.0, 7.0)">h</text><text xml:space="preserve" font-family="HelveticaNeue-Light" font-size="28.1" fill="#000000" transform="matrix(1.00, 0.00, -0.00, -1.00, 77.1, 7.0)">e</text><text xml:space="preserve" font-family="HelveticaNeue-Light" font-size="28.1" fill="#000000" transform="matrix(1.00, 0.00, -0.00, -1.00, 91.7, 7.0)">r</text><text xml:space="preserve" font-family="HelveticaNeue-Light" font-size="28.1" fill="#000000" transform="matrix(1.00, 0.00, -0.00, -1.00, 100.6, 7.0)">a</text><text xml:space="preserve" font-family="HelveticaNeue-Light" font-size="28.1" fill="#000000" transform="matrix(1.00, 0.00, -0.00, -1.00, 115.2, 7.0)">l</text><text xml:space="preserve" font-family="HelveticaNeue-Light" font-size="28.1" fill="#000000" transform="matrix(1.00, 0.00, -0.00, -1.00, 120.4, 7.0)"> </text><text xml:space="preserve" font-family="HelveticaNeue-Light" font-size="28.1" fill="#000000" transform="matrix(1.00, 0.00, -0.00, -1.00, 128.2, 7.0)">b</text><text xml:space="preserve" font-family="HelveticaNeue-Light" font-size="28.1" fill="#000000" transform="matrix(1.00, 0.00, -0.00, -1.00, 144.3, 7.0)">l</text><text xml:space="preserve" font-family="HelveticaNeue-Light" font-size="28.1" fill="#000000" transform="matrix(1.00, 0.00, -0.00, -1.00, 149.6, 7.0)">o</text><text xml:space="preserve" font-family="HelveticaNeue-Light" font-size="28.1" fill="#000000" transform="matrix(1.00, 0.00, -0.00, -1.00, 165.2, 7.0)">o</text><text xml:space="preserve" font-family="HelveticaNeue-Light" font-size="28.1" fill="#000000" transform="matrix(1.00, 0.00, -0.00, -1.00, 180.8, 7.0)">d</text><text xml:space="preserve" font-family="HelveticaNeue-Light" font-size="28.1" fill="#000000" transform="matrix(1.00, 0.00, -0.00, -1.00, 197.0, 7.0)"> </text><text xml:space="preserve" font-family="HelveticaNeue-Light" font-size="28.1" fill="#000000" transform="matrix(1.00, 0.00, -0.00, -1.00, 204.8, 7.0)">s</text><text xml:space="preserve" font-family="HelveticaNeue-Light" font-size="28.1" fill="#000000" transform="matrix(1.00, 0.00, -0.00, -1.00, 218.4, 7.0)">t</text><text xml:space="preserve" font-family="HelveticaNeue-Light" font-size="28.1" fill="#000000" transform="matrix(1.00, 0.00, -0.00, -1.00, 226.7, 7.0)">e</text><text xml:space="preserve" font-family="HelveticaNeue-Light" font-size="28.1" fill="#000000" transform="matrix(1.00, 0.00, -0.00, -1.00, 241.3, 7.0)">m</text><text xml:space="preserve" font-family="HelveticaNeue-Light" font-size="28.1" fill="#000000" transform="matrix(1.00, 0.00, -0.00, -1.00, 264.7, 7.0)"> </text><text xml:space="preserve" font-family="HelveticaNeue-Light" font-size="28.1" fill="#000000" transform="matrix(1.00, 0.00, -0.00, -1.00, 272.6, 7.0)">c</text><text xml:space="preserve" font-family="HelveticaNeue-Light" font-size="28.1" fill="#000000" transform="matrix(1.00, 0.00, -0.00, -1.00, 287.2, 7.0)">e</text><text xml:space="preserve" font-family="HelveticaNeue-Light" font-size="28.1" fill="#000000" transform="matrix(1.00, 0.00, -0.00, -1.00, 301.8, 7.0)">l</text><text xml:space="preserve" font-family="HelveticaNeue-Light" font-size="28.1" fill="#000000" transform="matrix(1.00, 0.00, -0.00, -1.00, 307.0, 7.0)">l</text><text xml:space="preserve" font-family="HelveticaNeue-Light" font-size="28.1" fill="#000000" transform="matrix(1.00, 0.00, -0.00, -1.00, 312.2, 7.0)"> </text><text xml:space="preserve" font-family="HelveticaNeue-Light" font-size="28.1" fill="#000000" transform="matrix(1.00, 0.00, -0.00, -1.00, 320.0, 7.0)">t</text><text xml:space="preserve" font-family="HelveticaNeue-Light" font-size="28.1" fill="#000000" transform="matrix(1.00, 0.00, -0.00, -1.00, 328.3, 7.0)">r</text><text xml:space="preserve" font-family="HelveticaNeue-Light" font-size="28.1" fill="#000000" transform="matrix(1.00, 0.00, -0.00, -1.00, 337.2, 7.0)">a</text><text xml:space="preserve" font-family="HelveticaNeue-Light" font-size="28.1" fill="#000000" transform="matrix(1.00, 0.00, -0.00, -1.00, 351.8, 7.0)">n</text><text xml:space="preserve" font-family="HelveticaNeue-Light" font-size="28.1" fill="#000000" transform="matrix(1.00, 0.00, -0.00, -1.00, 366.9, 7.0)">s</text><text xml:space="preserve" font-family="HelveticaNeue-Light" font-size="28.1" fill="#000000" transform="matrix(1.00, 0.00, -0.00, -1.00, 380.4, 7.0)">p</text><text xml:space="preserve" font-family="HelveticaNeue-Light" font-size="28.1" fill="#000000" transform="matrix(1.00, 0.00, -0.00, -1.00, 396.6, 7.0)">l</text><text xml:space="preserve" font-family="HelveticaNeue-Light" font-size="28.1" fill="#000000" transform="matrix(1.00, 0.00, -0.00, -1.00, 401.8, 7.0)">a</text><text xml:space="preserve" font-family="HelveticaNeue-Light" font-size="28.1" fill="#000000" transform="matrix(1.00, 0.00, -0.00, -1.00, 416.4, 7.0)">n</text><text xml:space="preserve" font-family="HelveticaNeue-Light" font-size="28.1" fill="#000000" transform="matrix(1.00, 0.00, -0.00, -1.00, 431.5, 7.0)">t</text><text xml:space="preserve" font-family="HelveticaNeue-Light" font-size="28.1" fill="#000000" transform="matrix(1.00, 0.00, -0.00, -1.00, 439.8, 7.0)">a</text><text xml:space="preserve" font-family="HelveticaNeue-Light" font-size="28.1" fill="#000000" transform="matrix(1.00, 0.00, -0.00, -1.00, 454.4, 7.0)">t</text><text xml:space="preserve" font-family="HelveticaNeue-Light" font-size="28.1" fill="#000000" transform="matrix(1.00, 0.00, -0.00, -1.00, 462.8, 7.0)">i</text><text xml:space="preserve" font-family="HelveticaNeue-Light" font-size="28.1" fill="#000000" transform="matrix(1.00, 0.00, -0.00, -1.00, 468.0, 7.0)">o</text><text xml:space="preserve" font-family="HelveticaNeue-Light" font-size="28.1" fill="#000000" transform="matrix(1.00, 0.00, -0.00, -1.00, 483.6, 7.0)">n</text></g></svg>