<?xml version="1.0" encoding="UTF-8" standalone="no"?><svg xmlns="http://www.w3.org/2000/svg" xmlns:xlink="http://www.w3.org/1999/xlink" clip-rule="evenodd" stroke-miterlimit="4.00" viewBox="0 0 1024 768"><desc>SVG generated by Keynote</desc><defs></defs><g transform="matrix(1.00, 0.00, -0.00, -1.00, 0.0, 768.0)"><path d="M 0.0 768.0 L 1024.0 768.0 L 1024.0 0.0 L 0.0 0.0 Z M 0.0 768.0 " fill="#FEFFFE"></path><path d="M 0.0 0.0 L 934.5 0.0 " fill="none" stroke="#9A9A9A" stroke-width="1.00" transform="matrix(1.00, 0.00, 0.00, -1.00, 45.0, 613.0)"></path><text xml:space="preserve" font-family="HelveticaNeue-Light" font-size="27.3" fill="#000000" transform="matrix(1.00, 0.00, -0.00, -1.00, 49.0, 708.0)">M</text><text xml:space="preserve" font-family="HelveticaNeue-Light" font-size="27.3" fill="#000000" transform="matrix(1.00, 0.00, -0.00, -1.00, 71.4, 708.0)">u</text><text xml:space="preserve" font-family="HelveticaNeue-Light" font-size="27.3" fill="#000000" transform="matrix(1.00, 0.00, -0.00, -1.00, 86.1, 708.0)">l</text><text xml:space="preserve" font-family="HelveticaNeue-Light" font-size="27.3" fill="#000000" transform="matrix(1.00, 0.00, -0.00, -1.00, 91.1, 708.0)">t</text><text xml:space="preserve" font-family="HelveticaNeue-Light" font-size="27.3" fill="#000000" transform="matrix(1.00, 0.00, -0.00, -1.00, 99.2, 708.0)">i</text><text xml:space="preserve" font-family="HelveticaNeue-Light" font-size="27.3" fill="#000000" transform="matrix(1.00, 0.00, -0.00, -1.00, 104.3, 708.0)">-</text><text xml:space="preserve" font-family="HelveticaNeue-Light" font-size="27.3" fill="#000000" transform="matrix(1.00, 0.00, -0.00, -1.00, 114.4, 708.0)">I</text><text xml:space="preserve" font-family="HelveticaNeue-Light" font-size="27.3" fill="#000000" transform="matrix(1.00, 0.00, -0.00, -1.00, 120.4, 708.0)">n</text><text xml:space="preserve" font-family="HelveticaNeue-Light" font-size="27.3" fill="#000000" transform="matrix(1.00, 0.00, -0.00, -1.00, 135.1, 708.0)">s</text><text xml:space="preserve" font-family="HelveticaNeue-Light" font-size="27.3" fill="#000000" transform="matrix(1.00, 0.00, -0.00, -1.00, 148.2, 708.0)">t</text><text xml:space="preserve" font-family="HelveticaNeue-Light" font-size="27.3" fill="#000000" transform="matrix(1.00, 0.00, -0.00, -1.00, 156.3, 708.0)">i</text><text xml:space="preserve" font-family="HelveticaNeue-Light" font-size="27.3" fill="#000000" transform="matrix(1.00, 0.00, -0.00, -1.00, 161.3, 708.0)">t</text><text xml:space="preserve" font-family="HelveticaNeue-Light" font-size="27.3" fill="#000000" transform="matrix(1.00, 0.00, -0.00, -1.00, 169.4, 708.0)">u</text><text xml:space="preserve" font-family="HelveticaNeue-Light" font-size="27.3" fill="#000000" transform="matrix(1.00, 0.00, -0.00, -1.00, 184.1, 708.0)">t</text><text xml:space="preserve" font-family="HelveticaNeue-Light" font-size="27.3" fill="#000000" transform="matrix(1.00, 0.00, -0.00, -1.00, 192.2, 708.0)">i</text><text xml:space="preserve" font-family="HelveticaNeue-Light" font-size="27.3" fill="#000000" transform="matrix(1.00, 0.00, -0.00, -1.00, 197.2, 708.0)">o</text><text xml:space="preserve" font-family="HelveticaNeue-Light" font-size="27.3" fill="#000000" transform="matrix(1.00, 0.00, -0.00, -1.00, 212.4, 708.0)">n</text><text xml:space="preserve" font-family="HelveticaNeue-Light" font-size="27.3" fill="#000000" transform="matrix(1.00, 0.00, -0.00, -1.00, 227.1, 708.0)">a</text><text xml:space="preserve" font-family="HelveticaNeue-Light" font-size="27.3" fill="#000000" transform="matrix(1.00, 0.00, -0.00, -1.00, 241.2, 708.0)">l</text><text xml:space="preserve" font-family="HelveticaNeue-Light" font-size="27.3" fill="#000000" transform="matrix(1.00, 0.00, -0.00, -1.00, 246.3, 708.0)"> </text><text xml:space="preserve" font-family="HelveticaNeue-Light" font-size="27.3" fill="#000000" transform="matrix(1.00, 0.00, -0.00, -1.00, 253.9, 708.0)">S</text><text xml:space="preserve" font-family="HelveticaNeue-Light" font-size="27.3" fill="#000000" transform="matrix(1.00, 0.00, -0.00, -1.00, 271.1, 708.0)">t</text><text xml:space="preserve" font-family="HelveticaNeue-Light" font-size="27.3" fill="#000000" transform="matrix(1.00, 0.00, -0.00, -1.00, 279.1, 708.0)">u</text><text xml:space="preserve" font-family="HelveticaNeue-Light" font-size="27.3" fill="#000000" transform="matrix(1.00, 0.00, -0.00, -1.00, 293.8, 708.0)">d</text><text xml:space="preserve" font-family="HelveticaNeue-Light" font-size="27.3" fill="#000000" transform="matrix(1.00, 0.00, -0.00, -1.00, 309.5, 708.0)">y</text><text xml:space="preserve" font-family="HelveticaNeue-Light" font-size="27.3" fill="#000000" transform="matrix(1.00, 0.00, -0.00, -1.00, 322.1, 708.0)"> </text><text xml:space="preserve" font-family="HelveticaNeue-Light" font-size="27.3" fill="#000000" transform="matrix(1.00, 0.00, -0.00, -1.00, 329.7, 708.0)">o</text><text xml:space="preserve" font-family="HelveticaNeue-Light" font-size="27.3" fill="#000000" transform="matrix(1.00, 0.00, -0.00, -1.00, 344.9, 708.0)">f</text><text xml:space="preserve" font-family="HelveticaNeue-Light" font-size="27.3" fill="#000000" transform="matrix(1.00, 0.00, -0.00, -1.00, 351.9, 708.0)"> </text><text xml:space="preserve" font-family="HelveticaNeue-Light" font-size="27.3" fill="#000000" transform="matrix(1.00, 0.00, -0.00, -1.00, 359.5, 708.0)">P</text><text xml:space="preserve" font-family="HelveticaNeue-Light" font-size="27.3" fill="#000000" transform="matrix(1.00, 0.00, -0.00, -1.00, 376.7, 708.0)">o</text><text xml:space="preserve" font-family="HelveticaNeue-Light" font-size="27.3" fill="#000000" transform="matrix(1.00, 0.00, -0.00, -1.00, 391.9, 708.0)">s</text><text xml:space="preserve" font-family="HelveticaNeue-Light" font-size="27.3" fill="#000000" transform="matrix(1.00, 0.00, -0.00, -1.00, 405.0, 708.0)">t</text><text xml:space="preserve" font-family="HelveticaNeue-Light" font-size="27.3" fill="#000000" transform="matrix(1.00, 0.00, -0.00, -1.00, 413.1, 708.0)">-</text><text xml:space="preserve" font-family="HelveticaNeue-Light" font-size="27.3" fill="#000000" transform="matrix(1.00, 0.00, -0.00, -1.00, 423.2, 708.0)">T</text><text xml:space="preserve" font-family="HelveticaNeue-Light" font-size="27.3" fill="#000000" transform="matrix(1.00, 0.00, -0.00, -1.00, 435.9, 708.0)">r</text><text xml:space="preserve" font-family="HelveticaNeue-Light" font-size="27.3" fill="#000000" transform="matrix(1.00, 0.00, -0.00, -1.00, 444.5, 708.0)">a</text><text xml:space="preserve" font-family="HelveticaNeue-Light" font-size="27.3" fill="#000000" transform="matrix(1.00, 0.00, -0.00, -1.00, 458.7, 708.0)">n</text><text xml:space="preserve" font-family="HelveticaNeue-Light" font-size="27.3" fill="#000000" transform="matrix(1.00, 0.00, -0.00, -1.00, 473.3, 708.0)">s</text><text xml:space="preserve" font-family="HelveticaNeue-Light" font-size="27.3" fill="#000000" transform="matrix(1.00, 0.00, -0.00, -1.00, 486.5, 708.0)">p</text><text xml:space="preserve" font-family="HelveticaNeue-Light" font-size="27.3" fill="#000000" transform="matrix(1.00, 0.00, -0.00, -1.00, 502.1, 708.0)">l</text><text xml:space="preserve" font-family="HelveticaNeue-Light" font-size="27.3" fill="#000000" transform="matrix(1.00, 0.00, -0.00, -1.00, 507.2, 708.0)">a</text><text xml:space="preserve" font-family="HelveticaNeue-Light" font-size="27.3" fill="#000000" transform="matrix(1.00, 0.00, -0.00, -1.00, 521.3, 708.0)">n</text><text xml:space="preserve" font-family="HelveticaNeue-Light" font-size="27.3" fill="#000000" transform="matrix(1.00, 0.00, -0.00, -1.00, 536.0, 708.0)">t</text><text xml:space="preserve" font-family="HelveticaNeue-Light" font-size="27.3" fill="#000000" transform="matrix(1.00, 0.00, -0.00, -1.00, 544.1, 708.0)">a</text><text xml:space="preserve" font-family="HelveticaNeue-Light" font-size="27.3" fill="#000000" transform="matrix(1.00, 0.00, -0.00, -1.00, 558.3, 708.0)">t</text><text xml:space="preserve" font-family="HelveticaNeue-Light" font-size="27.3" fill="#000000" transform="matrix(1.00, 0.00, -0.00, -1.00, 566.3, 708.0)">i</text><text xml:space="preserve" font-family="HelveticaNeue-Light" font-size="27.3" fill="#000000" transform="matrix(1.00, 0.00, -0.00, -1.00, 571.4, 708.0)">o</text><text xml:space="preserve" font-family="HelveticaNeue-Light" font-size="27.3" fill="#000000" transform="matrix(1.00, 0.00, -0.00, -1.00, 586.6, 708.0)">n</text><text xml:space="preserve" font-family="HelveticaNeue-Light" font-size="27.3" fill="#000000" transform="matrix(1.00, 0.00, -0.00, -1.00, 601.2, 708.0)"> </text><text xml:space="preserve" font-family="HelveticaNeue-Light" font-size="27.3" fill="#000000" transform="matrix(1.00, 0.00, -0.00, -1.00, 608.8, 708.0)">C</text><text xml:space="preserve" font-family="HelveticaNeue-Light" font-size="27.3" fill="#000000" transform="matrix(1.00, 0.00, -0.00, -1.00, 628.0, 708.0)">y</text><text xml:space="preserve" font-family="HelveticaNeue-Light" font-size="27.3" fill="#000000" transform="matrix(1.00, 0.00, -0.00, -1.00, 640.7, 708.0)">c</text><text xml:space="preserve" font-family="HelveticaNeue-Light" font-size="27.3" fill="#000000" transform="matrix(1.00, 0.00, -0.00, -1.00, 654.8, 708.0)">l</text><text xml:space="preserve" font-family="HelveticaNeue-Light" font-size="27.3" fill="#000000" transform="matrix(1.00, 0.00, -0.00, -1.00, 659.9, 708.0)">o</text><text xml:space="preserve" font-family="HelveticaNeue-Light" font-size="27.3" fill="#000000" transform="matrix(1.00, 0.00, -0.00, -1.00, 675.1, 708.0)">p</text><text xml:space="preserve" font-family="HelveticaNeue-Light" font-size="27.3" fill="#000000" transform="matrix(1.00, 0.00, -0.00, -1.00, 690.7, 708.0)">h</text><text xml:space="preserve" font-family="HelveticaNeue-Light" font-size="27.3" fill="#000000" transform="matrix(1.00, 0.00, -0.00, -1.00, 705.4, 708.0)">o</text><text xml:space="preserve" font-family="HelveticaNeue-Light" font-size="27.3" fill="#000000" transform="matrix(1.00, 0.00, -0.00, -1.00, 720.6, 708.0)">s</text><text xml:space="preserve" font-family="HelveticaNeue-Light" font-size="27.3" fill="#000000" transform="matrix(1.00, 0.00, -0.00, -1.00, 733.7, 708.0)">p</text><text xml:space="preserve" font-family="HelveticaNeue-Light" font-size="27.3" fill="#000000" transform="matrix(1.00, 0.00, -0.00, -1.00, 749.4, 708.0)">h</text><text xml:space="preserve" font-family="HelveticaNeue-Light" font-size="27.3" fill="#000000" transform="matrix(1.00, 0.00, -0.00, -1.00, 764.0, 708.0)">a</text><text xml:space="preserve" font-family="HelveticaNeue-Light" font-size="27.3" fill="#000000" transform="matrix(1.00, 0.00, -0.00, -1.00, 778.2, 708.0)">m</text><text xml:space="preserve" font-family="HelveticaNeue-Light" font-size="27.3" fill="#000000" transform="matrix(1.00, 0.00, -0.00, -1.00, 801.0, 708.0)">i</text><text xml:space="preserve" font-family="HelveticaNeue-Light" font-size="27.3" fill="#000000" transform="matrix(1.00, 0.00, -0.00, -1.00, 806.0, 708.0)">d</text><text xml:space="preserve" font-family="HelveticaNeue-Light" font-size="27.3" fill="#000000" transform="matrix(1.00, 0.00, -0.00, -1.00, 821.7, 708.0)">e</text><text xml:space="preserve" font-family="HelveticaNeue-Light" font-size="27.3" fill="#000000" transform="matrix(1.00, 0.00, -0.00, -1.00, 835.8, 708.0)"> </text><text xml:space="preserve" font-family="HelveticaNeue-Light" font-size="27.3" fill="#000000" transform="matrix(1.00, 0.00, -0.00, -1.00, 843.4, 708.0)">A</text><text xml:space="preserve" font-family="HelveticaNeue-Light" font-size="27.3" fill="#000000" transform="matrix(1.00, 0.00, -0.00, -1.00, 860.6, 708.0)">s</text><text xml:space="preserve" font-family="HelveticaNeue-Light" font-size="27.3" fill="#000000" transform="matrix(1.00, 0.00, -0.00, -1.00, 873.8, 708.0)"> </text><text xml:space="preserve" font-family="HelveticaNeue-Light" font-size="27.3" fill="#000000" transform="matrix(1.00, 0.00, -0.00, -1.00, 881.3, 708.0)">S</text><text xml:space="preserve" font-family="HelveticaNeue-Light" font-size="27.3" fill="#000000" transform="matrix(1.00, 0.00, -0.00, -1.00, 898.5, 708.0)">i</text><text xml:space="preserve" font-family="HelveticaNeue-Light" font-size="27.3" fill="#000000" transform="matrix(1.00, 0.00, -0.00, -1.00, 903.6, 708.0)">n</text><text xml:space="preserve" font-family="HelveticaNeue-Light" font-size="27.3" fill="#000000" transform="matrix(1.00, 0.00, -0.00, -1.00, 918.3, 708.0)">g</text><text xml:space="preserve" font-family="HelveticaNeue-Light" font-size="27.3" fill="#000000" transform="matrix(1.00, 0.00, -0.00, -1.00, 933.4, 708.0)">l</text><text xml:space="preserve" font-family="HelveticaNeue-Light" font-size="27.3" fill="#000000" transform="matrix(1.00, 0.00, -0.00, -1.00, 938.5, 708.0)">e</text><text xml:space="preserve" font-family="HelveticaNeue-Light" font-size="27.3" fill="#000000" transform="matrix(1.00, 0.00, -0.00, -1.00, 952.7, 708.0)">-</text><text xml:space="preserve" font-family="HelveticaNeue-Light" font-size="27.3" fill="#000000" transform="matrix(1.00, 0.00, -0.00, -1.00, 49.0, 675.0)">A</text><text xml:space="preserve" font-family="HelveticaNeue-Light" font-size="27.3" fill="#000000" transform="matrix(1.00, 0.00, -0.00, -1.00, 66.2, 675.0)">g</text><text xml:space="preserve" font-family="HelveticaNeue-Light" font-size="27.3" fill="#000000" transform="matrix(1.00, 0.00, -0.00, -1.00, 81.4, 675.0)">e</text><text xml:space="preserve" font-family="HelveticaNeue-Light" font-size="27.3" fill="#000000" transform="matrix(1.00, 0.00, -0.00, -1.00, 95.5, 675.0)">n</text><text xml:space="preserve" font-family="HelveticaNeue-Light" font-size="27.3" fill="#000000" transform="matrix(1.00, 0.00, -0.00, -1.00, 110.2, 675.0)">t</text><text xml:space="preserve" font-family="HelveticaNeue-Light" font-size="27.3" fill="#000000" transform="matrix(1.00, 0.00, -0.00, -1.00, 118.3, 675.0)"> </text><text xml:space="preserve" font-family="HelveticaNeue-Light" font-size="27.3" fill="#000000" transform="matrix(1.00, 0.00, -0.00, -1.00, 125.9, 675.0)">G</text><text xml:space="preserve" font-family="HelveticaNeue-Light" font-size="27.3" fill="#000000" transform="matrix(1.00, 0.00, -0.00, -1.00, 146.1, 675.0)">r</text><text xml:space="preserve" font-family="HelveticaNeue-Light" font-size="27.3" fill="#000000" transform="matrix(1.00, 0.00, -0.00, -1.00, 154.7, 675.0)">a</text><text xml:space="preserve" font-family="HelveticaNeue-Light" font-size="27.3" fill="#000000" transform="matrix(1.00, 0.00, -0.00, -1.00, 168.9, 675.0)">f</text><text xml:space="preserve" font-family="HelveticaNeue-Light" font-size="27.3" fill="#000000" transform="matrix(1.00, 0.00, -0.00, -1.00, 175.9, 675.0)">t</text><text xml:space="preserve" font-family="HelveticaNeue-Light" font-size="27.3" fill="#000000" transform="matrix(1.00, 0.00, -0.00, -1.00, 184.0, 675.0)">-</text><text xml:space="preserve" font-family="HelveticaNeue-Light" font-size="27.3" fill="#000000" transform="matrix(1.00, 0.00, -0.00, -1.00, 194.1, 675.0)">V</text><text xml:space="preserve" font-family="HelveticaNeue-Light" font-size="27.3" fill="#000000" transform="matrix(1.00, 0.00, -0.00, -1.00, 208.8, 675.0)">e</text><text xml:space="preserve" font-family="HelveticaNeue-Light" font-size="27.3" fill="#000000" transform="matrix(1.00, 0.00, -0.00, -1.00, 223.0, 675.0)">r</text><text xml:space="preserve" font-family="HelveticaNeue-Light" font-size="27.3" fill="#000000" transform="matrix(1.00, 0.00, -0.00, -1.00, 231.6, 675.0)">s</text><text xml:space="preserve" font-family="HelveticaNeue-Light" font-size="27.3" fill="#000000" transform="matrix(1.00, 0.00, -0.00, -1.00, 244.7, 675.0)">u</text><text xml:space="preserve" font-family="HelveticaNeue-Light" font-size="27.3" fill="#000000" transform="matrix(1.00, 0.00, -0.00, -1.00, 259.4, 675.0)">s</text><text xml:space="preserve" font-family="HelveticaNeue-Light" font-size="27.3" fill="#000000" transform="matrix(1.00, 0.00, -0.00, -1.00, 272.5, 675.0)">-</text><text xml:space="preserve" font-family="HelveticaNeue-Light" font-size="27.3" fill="#000000" transform="matrix(1.00, 0.00, -0.00, -1.00, 282.6, 675.0)">H</text><text xml:space="preserve" font-family="HelveticaNeue-Light" font-size="27.3" fill="#000000" transform="matrix(1.00, 0.00, -0.00, -1.00, 301.8, 675.0)">o</text><text xml:space="preserve" font-family="HelveticaNeue-Light" font-size="27.3" fill="#000000" transform="matrix(1.00, 0.00, -0.00, -1.00, 317.0, 675.0)">s</text><text xml:space="preserve" font-family="HelveticaNeue-Light" font-size="27.3" fill="#000000" transform="matrix(1.00, 0.00, -0.00, -1.00, 330.1, 675.0)">t</text><text xml:space="preserve" font-family="HelveticaNeue-Light" font-size="27.3" fill="#000000" transform="matrix(1.00, 0.00, -0.00, -1.00, 338.2, 675.0)"> </text><text xml:space="preserve" font-family="HelveticaNeue-Light" font-size="27.3" fill="#000000" transform="matrix(1.00, 0.00, -0.00, -1.00, 345.8, 675.0)">D</text><text xml:space="preserve" font-family="HelveticaNeue-Light" font-size="27.3" fill="#000000" transform="matrix(1.00, 0.00, -0.00, -1.00, 364.5, 675.0)">i</text><text xml:space="preserve" font-family="HelveticaNeue-Light" font-size="27.3" fill="#000000" transform="matrix(1.00, 0.00, -0.00, -1.00, 369.6, 675.0)">s</text><text xml:space="preserve" font-family="HelveticaNeue-Light" font-size="27.3" fill="#000000" transform="matrix(1.00, 0.00, -0.00, -1.00, 382.7, 675.0)">e</text><text xml:space="preserve" font-family="HelveticaNeue-Light" font-size="27.3" fill="#000000" transform="matrix(1.00, 0.00, -0.00, -1.00, 396.9, 675.0)">a</text><text xml:space="preserve" font-family="HelveticaNeue-Light" font-size="27.3" fill="#000000" transform="matrix(1.00, 0.00, -0.00, -1.00, 411.0, 675.0)">s</text><text xml:space="preserve" font-family="HelveticaNeue-Light" font-size="27.3" fill="#000000" transform="matrix(1.00, 0.00, -0.00, -1.00, 424.2, 675.0)">e</text><text xml:space="preserve" font-family="HelveticaNeue-Light" font-size="27.3" fill="#000000" transform="matrix(1.00, 0.00, -0.00, -1.00, 438.3, 675.0)"> </text><text xml:space="preserve" font-family="HelveticaNeue-Light" font-size="27.3" fill="#000000" transform="matrix(1.00, 0.00, -0.00, -1.00, 445.9, 675.0)">P</text><text xml:space="preserve" font-family="HelveticaNeue-Light" font-size="27.3" fill="#000000" transform="matrix(1.00, 0.00, -0.00, -1.00, 463.1, 675.0)">r</text><text xml:space="preserve" font-family="HelveticaNeue-Light" font-size="27.3" fill="#000000" transform="matrix(1.00, 0.00, -0.00, -1.00, 471.2, 675.0)">o</text><text xml:space="preserve" font-family="HelveticaNeue-Light" font-size="27.3" fill="#000000" transform="matrix(1.00, 0.00, -0.00, -1.00, 486.4, 675.0)">p</text><text xml:space="preserve" font-family="HelveticaNeue-Light" font-size="27.3" fill="#000000" transform="matrix(1.00, 0.00, -0.00, -1.00, 502.1, 675.0)">h</text><text xml:space="preserve" font-family="HelveticaNeue-Light" font-size="27.3" fill="#000000" transform="matrix(1.00, 0.00, -0.00, -1.00, 516.7, 675.0)">y</text><text xml:space="preserve" font-family="HelveticaNeue-Light" font-size="27.3" fill="#000000" transform="matrix(1.00, 0.00, -0.00, -1.00, 529.4, 675.0)">l</text><text xml:space="preserve" font-family="HelveticaNeue-Light" font-size="27.3" fill="#000000" transform="matrix(1.00, 0.00, -0.00, -1.00, 534.4, 675.0)">a</text><text xml:space="preserve" font-family="HelveticaNeue-Light" font-size="27.3" fill="#000000" transform="matrix(1.00, 0.00, -0.00, -1.00, 548.6, 675.0)">x</text><text xml:space="preserve" font-family="HelveticaNeue-Light" font-size="27.3" fill="#000000" transform="matrix(1.00, 0.00, -0.00, -1.00, 561.7, 675.0)">i</text><text xml:space="preserve" font-family="HelveticaNeue-Light" font-size="27.3" fill="#000000" transform="matrix(1.00, 0.00, -0.00, -1.00, 566.8, 675.0)">s</text><text xml:space="preserve" font-family="HelveticaNeue-Light" font-size="27.3" fill="#000000" transform="matrix(1.00, 0.00, -0.00, -1.00, 579.9, 675.0)"> </text><text xml:space="preserve" font-family="HelveticaNeue-Light" font-size="27.3" fill="#000000" transform="matrix(1.00, 0.00, -0.00, -1.00, 587.5, 675.0)">A</text><text xml:space="preserve" font-family="HelveticaNeue-Light" font-size="27.3" fill="#000000" transform="matrix(1.00, 0.00, -0.00, -1.00, 604.7, 675.0)">f</text><text xml:space="preserve" font-family="HelveticaNeue-Light" font-size="27.3" fill="#000000" transform="matrix(1.00, 0.00, -0.00, -1.00, 611.8, 675.0)">t</text><text xml:space="preserve" font-family="HelveticaNeue-Light" font-size="27.3" fill="#000000" transform="matrix(1.00, 0.00, -0.00, -1.00, 619.8, 675.0)">e</text><text xml:space="preserve" font-family="HelveticaNeue-Light" font-size="27.3" fill="#000000" transform="matrix(1.00, 0.00, -0.00, -1.00, 634.0, 675.0)">r</text><text xml:space="preserve" font-family="HelveticaNeue-Light" font-size="27.3" fill="#000000" transform="matrix(1.00, 0.00, -0.00, -1.00, 642.6, 675.0)"> </text><text xml:space="preserve" font-family="HelveticaNeue-Light" font-size="27.3" fill="#000000" transform="matrix(1.00, 0.00, -0.00, -1.00, 650.2, 675.0)">A</text><text xml:space="preserve" font-family="HelveticaNeue-Light" font-size="27.3" fill="#000000" transform="matrix(1.00, 0.00, -0.00, -1.00, 667.4, 675.0)">l</text><text xml:space="preserve" font-family="HelveticaNeue-Light" font-size="27.3" fill="#000000" transform="matrix(1.00, 0.00, -0.00, -1.00, 672.5, 675.0)">l</text><text xml:space="preserve" font-family="HelveticaNeue-Light" font-size="27.3" fill="#000000" transform="matrix(1.00, 0.00, -0.00, -1.00, 677.5, 675.0)">o</text><text xml:space="preserve" font-family="HelveticaNeue-Light" font-size="27.3" fill="#000000" transform="matrix(1.00, 0.00, -0.00, -1.00, 692.7, 675.0)">g</text><text xml:space="preserve" font-family="HelveticaNeue-Light" font-size="27.3" fill="#000000" transform="matrix(1.00, 0.00, -0.00, -1.00, 707.9, 675.0)">e</text><text xml:space="preserve" font-family="HelveticaNeue-Light" font-size="27.3" fill="#000000" transform="matrix(1.00, 0.00, -0.00, -1.00, 722.0, 675.0)">n</text><text xml:space="preserve" font-family="HelveticaNeue-Light" font-size="27.3" fill="#000000" transform="matrix(1.00, 0.00, -0.00, -1.00, 736.7, 675.0)">e</text><text xml:space="preserve" font-family="HelveticaNeue-Light" font-size="27.3" fill="#000000" transform="matrix(1.00, 0.00, -0.00, -1.00, 750.9, 675.0)">i</text><text xml:space="preserve" font-family="HelveticaNeue-Light" font-size="27.3" fill="#000000" transform="matrix(1.00, 0.00, -0.00, -1.00, 755.9, 675.0)">c</text><text xml:space="preserve" font-family="HelveticaNeue-Light" font-size="27.3" fill="#000000" transform="matrix(1.00, 0.00, -0.00, -1.00, 770.1, 675.0)"> </text><text xml:space="preserve" font-family="HelveticaNeue-Light" font-size="27.3" fill="#000000" transform="matrix(1.00, 0.00, -0.00, -1.00, 777.7, 675.0)">B</text><text xml:space="preserve" font-family="HelveticaNeue-Light" font-size="27.3" fill="#000000" transform="matrix(1.00, 0.00, -0.00, -1.00, 795.9, 675.0)">o</text><text xml:space="preserve" font-family="HelveticaNeue-Light" font-size="27.3" fill="#000000" transform="matrix(1.00, 0.00, -0.00, -1.00, 811.1, 675.0)">n</text><text xml:space="preserve" font-family="HelveticaNeue-Light" font-size="27.3" fill="#000000" transform="matrix(1.00, 0.00, -0.00, -1.00, 825.7, 675.0)">e</text><text xml:space="preserve" font-family="HelveticaNeue-Light" font-size="27.3" fill="#000000" transform="matrix(1.00, 0.00, -0.00, -1.00, 839.9, 675.0)"> </text><text xml:space="preserve" font-family="HelveticaNeue-Light" font-size="27.3" fill="#000000" transform="matrix(1.00, 0.00, -0.00, -1.00, 847.5, 675.0)">M</text><text xml:space="preserve" font-family="HelveticaNeue-Light" font-size="27.3" fill="#000000" transform="matrix(1.00, 0.00, -0.00, -1.00, 869.9, 675.0)">a</text><text xml:space="preserve" font-family="HelveticaNeue-Light" font-size="27.3" fill="#000000" transform="matrix(1.00, 0.00, -0.00, -1.00, 884.1, 675.0)">r</text><text xml:space="preserve" font-family="HelveticaNeue-Light" font-size="27.3" fill="#000000" transform="matrix(1.00, 0.00, -0.00, -1.00, 892.7, 675.0)">r</text><text xml:space="preserve" font-family="HelveticaNeue-Light" font-size="27.3" fill="#000000" transform="matrix(1.00, 0.00, -0.00, -1.00, 900.8, 675.0)">o</text><text xml:space="preserve" font-family="HelveticaNeue-Light" font-size="27.3" fill="#000000" transform="matrix(1.00, 0.00, -0.00, -1.00, 915.9, 675.0)">w</text><text xml:space="preserve" font-family="HelveticaNeue-Light" font-size="27.3" fill="#000000" transform="matrix(1.00, 0.00, -0.00, -1.00, 936.2, 675.0)"> </text><text xml:space="preserve" font-family="HelveticaNeue-Light" font-size="27.3" fill="#000000" transform="matrix(1.00, 0.00, -0.00, -1.00, 49.0, 642.0)">T</text><text xml:space="preserve" font-family="HelveticaNeue-Light" font-size="27.3" fill="#000000" transform="matrix(1.00, 0.00, -0.00, -1.00, 61.7, 642.0)">r</text><text xml:space="preserve" font-family="HelveticaNeue-Light" font-size="27.3" fill="#000000" transform="matrix(1.00, 0.00, -0.00, -1.00, 70.3, 642.0)">a</text><text xml:space="preserve" font-family="HelveticaNeue-Light" font-size="27.3" fill="#000000" transform="matrix(1.00, 0.00, -0.00, -1.00, 84.4, 642.0)">n</text><text xml:space="preserve" font-family="HelveticaNeue-Light" font-size="27.3" fill="#000000" transform="matrix(1.00, 0.00, -0.00, -1.00, 99.1, 642.0)">s</text><text xml:space="preserve" font-family="HelveticaNeue-Light" font-size="27.3" fill="#000000" transform="matrix(1.00, 0.00, -0.00, -1.00, 112.2, 642.0)">p</text><text xml:space="preserve" font-family="HelveticaNeue-Light" font-size="27.3" fill="#000000" transform="matrix(1.00, 0.00, -0.00, -1.00, 127.9, 642.0)">l</text><text xml:space="preserve" font-family="HelveticaNeue-Light" font-size="27.3" fill="#000000" transform="matrix(1.00, 0.00, -0.00, -1.00, 132.9, 642.0)">a</text><text xml:space="preserve" font-family="HelveticaNeue-Light" font-size="27.3" fill="#000000" transform="matrix(1.00, 0.00, -0.00, -1.00, 147.1, 642.0)">n</text><text xml:space="preserve" font-family="HelveticaNeue-Light" font-size="27.3" fill="#000000" transform="matrix(1.00, 0.00, -0.00, -1.00, 161.8, 642.0)">t</text><text xml:space="preserve" font-family="HelveticaNeue-Light" font-size="27.3" fill="#000000" transform="matrix(1.00, 0.00, -0.00, -1.00, 169.9, 642.0)">a</text><text xml:space="preserve" font-family="HelveticaNeue-Light" font-size="27.3" fill="#000000" transform="matrix(1.00, 0.00, -0.00, -1.00, 184.0, 642.0)">t</text><text xml:space="preserve" font-family="HelveticaNeue-Light" font-size="27.3" fill="#000000" transform="matrix(1.00, 0.00, -0.00, -1.00, 192.1, 642.0)">i</text><text xml:space="preserve" font-family="HelveticaNeue-Light" font-size="27.3" fill="#000000" transform="matrix(1.00, 0.00, -0.00, -1.00, 197.2, 642.0)">o</text><text xml:space="preserve" font-family="HelveticaNeue-Light" font-size="27.3" fill="#000000" transform="matrix(1.00, 0.00, -0.00, -1.00, 212.3, 642.0)">n</text><text xml:space="preserve" font-family="HelveticaNeue-Light" font-size="27.3" fill="#000000" transform="matrix(1.00, 0.00, -0.00, -1.00, 227.0, 642.0)"> </text><text xml:space="preserve" font-family="HelveticaNeue-Light" font-size="27.3" fill="#000000" transform="matrix(1.00, 0.00, -0.00, -1.00, 234.6, 642.0)">U</text><text xml:space="preserve" font-family="HelveticaNeue-Light" font-size="27.3" fill="#000000" transform="matrix(1.00, 0.00, -0.00, -1.00, 253.3, 642.0)">s</text><text xml:space="preserve" font-family="HelveticaNeue-Light" font-size="27.3" fill="#000000" transform="matrix(1.00, 0.00, -0.00, -1.00, 266.4, 642.0)">i</text><text xml:space="preserve" font-family="HelveticaNeue-Light" font-size="27.3" fill="#000000" transform="matrix(1.00, 0.00, -0.00, -1.00, 271.5, 642.0)">n</text><text xml:space="preserve" font-family="HelveticaNeue-Light" font-size="27.3" fill="#000000" transform="matrix(1.00, 0.00, -0.00, -1.00, 286.1, 642.0)">g</text><text xml:space="preserve" font-family="HelveticaNeue-Light" font-size="27.3" fill="#000000" transform="matrix(1.00, 0.00, -0.00, -1.00, 301.3, 642.0)"> </text><text xml:space="preserve" font-family="HelveticaNeue-Light" font-size="27.3" fill="#000000" transform="matrix(1.00, 0.00, -0.00, -1.00, 308.9, 642.0)">M</text><text xml:space="preserve" font-family="HelveticaNeue-Light" font-size="27.3" fill="#000000" transform="matrix(1.00, 0.00, -0.00, -1.00, 331.3, 642.0)">y</text><text xml:space="preserve" font-family="HelveticaNeue-Light" font-size="27.3" fill="#000000" transform="matrix(1.00, 0.00, -0.00, -1.00, 343.9, 642.0)">e</text><text xml:space="preserve" font-family="HelveticaNeue-Light" font-size="27.3" fill="#000000" transform="matrix(1.00, 0.00, -0.00, -1.00, 358.1, 642.0)">l</text><text xml:space="preserve" font-family="HelveticaNeue-Light" font-size="27.3" fill="#000000" transform="matrix(1.00, 0.00, -0.00, -1.00, 363.2, 642.0)">o</text><text xml:space="preserve" font-family="HelveticaNeue-Light" font-size="27.3" fill="#000000" transform="matrix(1.00, 0.00, -0.00, -1.00, 378.3, 642.0)">a</text><text xml:space="preserve" font-family="HelveticaNeue-Light" font-size="27.3" fill="#000000" transform="matrix(1.00, 0.00, -0.00, -1.00, 392.5, 642.0)">b</text><text xml:space="preserve" font-family="HelveticaNeue-Light" font-size="27.3" fill="#000000" transform="matrix(1.00, 0.00, -0.00, -1.00, 408.2, 642.0)">l</text><text xml:space="preserve" font-family="HelveticaNeue-Light" font-size="27.3" fill="#000000" transform="matrix(1.00, 0.00, -0.00, -1.00, 413.2, 642.0)">a</text><text xml:space="preserve" font-family="HelveticaNeue-Light" font-size="27.3" fill="#000000" transform="matrix(1.00, 0.00, -0.00, -1.00, 427.4, 642.0)">t</text><text xml:space="preserve" font-family="HelveticaNeue-Light" font-size="27.3" fill="#000000" transform="matrix(1.00, 0.00, -0.00, -1.00, 435.5, 642.0)">i</text><text xml:space="preserve" font-family="HelveticaNeue-Light" font-size="27.3" fill="#000000" transform="matrix(1.00, 0.00, -0.00, -1.00, 440.5, 642.0)">v</text><text xml:space="preserve" font-family="HelveticaNeue-Light" font-size="27.3" fill="#000000" transform="matrix(1.00, 0.00, -0.00, -1.00, 453.2, 642.0)">e</text><text xml:space="preserve" font-family="HelveticaNeue-Light" font-size="27.3" fill="#000000" transform="matrix(1.00, 0.00, -0.00, -1.00, 467.3, 642.0)"> </text><text xml:space="preserve" font-family="HelveticaNeue-Light" font-size="27.3" fill="#000000" transform="matrix(1.00, 0.00, -0.00, -1.00, 474.9, 642.0)">B</text><text xml:space="preserve" font-family="HelveticaNeue-Light" font-size="27.3" fill="#000000" transform="matrix(1.00, 0.00, -0.00, -1.00, 493.1, 642.0)">u</text><text xml:space="preserve" font-family="HelveticaNeue-Light" font-size="27.3" fill="#000000" transform="matrix(1.00, 0.00, -0.00, -1.00, 507.8, 642.0)">s</text><text xml:space="preserve" font-family="HelveticaNeue-Light" font-size="27.3" fill="#000000" transform="matrix(1.00, 0.00, -0.00, -1.00, 520.9, 642.0)">u</text><text xml:space="preserve" font-family="HelveticaNeue-Light" font-size="27.3" fill="#000000" transform="matrix(1.00, 0.00, -0.00, -1.00, 535.6, 642.0)">l</text><text xml:space="preserve" font-family="HelveticaNeue-Light" font-size="27.3" fill="#000000" transform="matrix(1.00, 0.00, -0.00, -1.00, 540.6, 642.0)">f</text><text xml:space="preserve" font-family="HelveticaNeue-Light" font-size="27.3" fill="#000000" transform="matrix(1.00, 0.00, -0.00, -1.00, 547.7, 642.0)">a</text><text xml:space="preserve" font-family="HelveticaNeue-Light" font-size="27.3" fill="#000000" transform="matrix(1.00, 0.00, -0.00, -1.00, 561.9, 642.0)">n</text><text xml:space="preserve" font-family="HelveticaNeue-Light" font-size="27.3" fill="#000000" transform="matrix(1.00, 0.00, -0.00, -1.00, 576.5, 642.0)"> </text><text xml:space="preserve" font-family="HelveticaNeue-Light" font-size="27.3" fill="#000000" transform="matrix(1.00, 0.00, -0.00, -1.00, 584.1, 642.0)">a</text><text xml:space="preserve" font-family="HelveticaNeue-Light" font-size="27.3" fill="#000000" transform="matrix(1.00, 0.00, -0.00, -1.00, 598.3, 642.0)">n</text><text xml:space="preserve" font-family="HelveticaNeue-Light" font-size="27.3" fill="#000000" transform="matrix(1.00, 0.00, -0.00, -1.00, 613.0, 642.0)">d</text><text xml:space="preserve" font-family="HelveticaNeue-Light" font-size="27.3" fill="#000000" transform="matrix(1.00, 0.00, -0.00, -1.00, 628.6, 642.0)"> </text><text xml:space="preserve" font-family="HelveticaNeue-Light" font-size="27.3" fill="#000000" transform="matrix(1.00, 0.00, -0.00, -1.00, 636.2, 642.0)">F</text><text xml:space="preserve" font-family="HelveticaNeue-Light" font-size="27.3" fill="#000000" transform="matrix(1.00, 0.00, -0.00, -1.00, 650.9, 642.0)">l</text><text xml:space="preserve" font-family="HelveticaNeue-Light" font-size="27.3" fill="#000000" transform="matrix(1.00, 0.00, -0.00, -1.00, 655.9, 642.0)">u</text><text xml:space="preserve" font-family="HelveticaNeue-Light" font-size="27.3" fill="#000000" transform="matrix(1.00, 0.00, -0.00, -1.00, 670.6, 642.0)">d</text><text xml:space="preserve" font-family="HelveticaNeue-Light" font-size="27.3" fill="#000000" transform="matrix(1.00, 0.00, -0.00, -1.00, 686.3, 642.0)">a</text><text xml:space="preserve" font-family="HelveticaNeue-Light" font-size="27.3" fill="#000000" transform="matrix(1.00, 0.00, -0.00, -1.00, 700.4, 642.0)">r</text><text xml:space="preserve" font-family="HelveticaNeue-Light" font-size="27.3" fill="#000000" transform="matrix(1.00, 0.00, -0.00, -1.00, 709.0, 642.0)">a</text><text xml:space="preserve" font-family="HelveticaNeue-Light" font-size="27.3" fill="#000000" transform="matrix(1.00, 0.00, -0.00, -1.00, 723.2, 642.0)">b</text><text xml:space="preserve" font-family="HelveticaNeue-Light" font-size="27.3" fill="#000000" transform="matrix(1.00, 0.00, -0.00, -1.00, 738.9, 642.0)">i</text><text xml:space="preserve" font-family="HelveticaNeue-Light" font-size="27.3" fill="#000000" transform="matrix(1.00, 0.00, -0.00, -1.00, 743.9, 642.0)">n</text><text xml:space="preserve" font-family="HelveticaNeue-Light" font-size="27.3" fill="#000000" transform="matrix(1.00, 0.00, -0.00, -1.00, 758.6, 642.0)">e</text><text xml:space="preserve" font-family="HelveticaNeue-Light" font-size="27.3" fill="#000000" transform="matrix(1.00, 0.00, -0.00, -1.00, 772.8, 642.0)"> </text><text xml:space="preserve" font-family="HelveticaNeue-Light" font-size="27.3" fill="#000000" transform="matrix(1.00, 0.00, -0.00, -1.00, 780.3, 642.0)">C</text><text xml:space="preserve" font-family="HelveticaNeue-Light" font-size="27.3" fill="#000000" transform="matrix(1.00, 0.00, -0.00, -1.00, 799.6, 642.0)">o</text><text xml:space="preserve" font-family="HelveticaNeue-Light" font-size="27.3" fill="#000000" transform="matrix(1.00, 0.00, -0.00, -1.00, 814.7, 642.0)">n</text><text xml:space="preserve" font-family="HelveticaNeue-Light" font-size="27.3" fill="#000000" transform="matrix(1.00, 0.00, -0.00, -1.00, 829.4, 642.0)">d</text><text xml:space="preserve" font-family="HelveticaNeue-Light" font-size="27.3" fill="#000000" transform="matrix(1.00, 0.00, -0.00, -1.00, 845.1, 642.0)">i</text><text xml:space="preserve" font-family="HelveticaNeue-Light" font-size="27.3" fill="#000000" transform="matrix(1.00, 0.00, -0.00, -1.00, 850.1, 642.0)">t</text><text xml:space="preserve" font-family="HelveticaNeue-Light" font-size="27.3" fill="#000000" transform="matrix(1.00, 0.00, -0.00, -1.00, 858.2, 642.0)">i</text><text xml:space="preserve" font-family="HelveticaNeue-Light" font-size="27.3" fill="#000000" transform="matrix(1.00, 0.00, -0.00, -1.00, 863.2, 642.0)">o</text><text xml:space="preserve" font-family="HelveticaNeue-Light" font-size="27.3" fill="#000000" transform="matrix(1.00, 0.00, -0.00, -1.00, 878.4, 642.0)">n</text><text xml:space="preserve" font-family="HelveticaNeue-Light" font-size="27.3" fill="#000000" transform="matrix(1.00, 0.00, -0.00, -1.00, 893.1, 642.0)">i</text><text xml:space="preserve" font-family="HelveticaNeue-Light" font-size="27.3" fill="#000000" transform="matrix(1.00, 0.00, -0.00, -1.00, 898.1, 642.0)">n</text><text xml:space="preserve" font-family="HelveticaNeue-Light" font-size="27.3" fill="#000000" transform="matrix(1.00, 0.00, -0.00, -1.00, 912.8, 642.0)">g</text><g><clipPath id="clip-1319"><path d="M -1.0 28.0 L 407.0 28.0 L 407.0 4.0 L -1.0 4.0 Z M -0.6 28.3 "></path></clipPath><g clip-path="url(#clip-1319)"><g><clipPath id="clip-1320"><path d="M -253.0 -20.0 L 771.0 -20.0 L 771.0 400.0 L -253.0 400.0 Z M -253.0 -20.0 "></path></clipPath><g clip-path="url(#clip-1320)"><image xlink:href="../../1A125B58-79F8-4AAE-B93F-62EA3D8F2646/assets/3098EE97F28A71B0052C05FDC0C77FDD.png" width="2582.00" height="1058.00" transform="matrix(0.40, 0.00, -0.00, -0.40, -253.0, 400.0)"></image></g></g></g></g><g><clipPath id="clip-1321"><path d="M 792.0 4.0 L 1025.0 4.0 L 1025.0 29.0 L 792.0 29.0 Z M 792.0 4.0 "></path></clipPath><g clip-path="url(#clip-1321)"><image xlink:href="../../1A125B58-79F8-4AAE-B93F-62EA3D8F2646/assets/9499503848631FC8D35B85ECA2A674A4.png" width="576.00" height="62.00" transform="matrix(0.40, 0.00, -0.00, -0.40, 792.0, 29.0)"></image></g></g></g></svg>