<?xml version="1.0" encoding="UTF-8" standalone="no"?><svg xmlns="http://www.w3.org/2000/svg" xmlns:xlink="http://www.w3.org/1999/xlink" clip-rule="evenodd" stroke-miterlimit="10" viewBox="0 0 1024 768"><desc>SVG generated by Keynote</desc><defs></defs><g transform="matrix(1.00, 0.00, -0.00, -1.00, 0.0, 768.0)"><path d="M 0.0 768.0 L 1024.0 768.0 L 1024.0 0.0 L 0.0 0.0 Z M 0.0 768.0 " fill="#FEFFFE"></path><path d="M 0.5 0.5 L 934.5 0.5 L 934.5 0.5 L 0.5 0.5 Z M 0.0 0.0 " fill="none" stroke="#9A9A99" stroke-width="1.00" transform="matrix(1.00, 0.00, 0.00, -1.00, 45.0, 613.0)"></path><text xml:space="preserve" font-family="HelveticaNeue-Light,Helvetica Neue" font-size="42.0" fill="#000000" transform="matrix(1.00, 0.00, -0.00, -1.00, 49.0, 645.2)">C</text><text xml:space="preserve" font-family="HelveticaNeue-Light,Helvetica Neue" font-size="42.0" fill="#000000" transform="matrix(1.00, 0.00, -0.00, -1.00, 78.6, 645.2)">l</text><text xml:space="preserve" font-family="HelveticaNeue-Light,Helvetica Neue" font-size="42.0" fill="#000000" transform="matrix(1.00, 0.00, -0.00, -1.00, 86.3, 645.2)">i</text><text xml:space="preserve" font-family="HelveticaNeue-Light,Helvetica Neue" font-size="42.0" fill="#000000" transform="matrix(1.00, 0.00, -0.00, -1.00, 94.1, 645.2)">n</text><text xml:space="preserve" font-family="HelveticaNeue-Light,Helvetica Neue" font-size="42.0" fill="#000000" transform="matrix(1.00, 0.00, -0.00, -1.00, 116.7, 645.2)">i</text><text xml:space="preserve" font-family="HelveticaNeue-Light,Helvetica Neue" font-size="42.0" fill="#000000" transform="matrix(1.00, 0.00, -0.00, -1.00, 124.4, 645.2)">c</text><text xml:space="preserve" font-family="HelveticaNeue-Light,Helvetica Neue" font-size="42.0" fill="#000000" transform="matrix(1.00, 0.00, -0.00, -1.00, 146.2, 645.2)">a</text><text xml:space="preserve" font-family="HelveticaNeue-Light,Helvetica Neue" font-size="42.0" fill="#000000" transform="matrix(1.00, 0.00, -0.00, -1.00, 168.0, 645.2)">l</text><text xml:space="preserve" font-family="HelveticaNeue-Light,Helvetica Neue" font-size="42.0" fill="#000000" transform="matrix(1.00, 0.00, -0.00, -1.00, 175.8, 645.2)"> </text><text xml:space="preserve" font-family="HelveticaNeue-Light,Helvetica Neue" font-size="42.0" fill="#000000" transform="matrix(1.00, 0.00, -0.00, -1.00, 187.5, 645.2)">p</text><text xml:space="preserve" font-family="HelveticaNeue-Light,Helvetica Neue" font-size="42.0" fill="#000000" transform="matrix(1.00, 0.00, -0.00, -1.00, 211.6, 645.2)">r</text><text xml:space="preserve" font-family="HelveticaNeue-Light,Helvetica Neue" font-size="42.0" fill="#000000" transform="matrix(1.00, 0.00, -0.00, -1.00, 224.1, 645.2)">e</text><text xml:space="preserve" font-family="HelveticaNeue-Light,Helvetica Neue" font-size="42.0" fill="#000000" transform="matrix(1.00, 0.00, -0.00, -1.00, 245.9, 645.2)">s</text><text xml:space="preserve" font-family="HelveticaNeue-Light,Helvetica Neue" font-size="42.0" fill="#000000" transform="matrix(1.00, 0.00, -0.00, -1.00, 266.1, 645.2)">e</text><text xml:space="preserve" font-family="HelveticaNeue-Light,Helvetica Neue" font-size="42.0" fill="#000000" transform="matrix(1.00, 0.00, -0.00, -1.00, 287.9, 645.2)">n</text><text xml:space="preserve" font-family="HelveticaNeue-Light,Helvetica Neue" font-size="42.0" fill="#000000" transform="matrix(1.00, 0.00, -0.00, -1.00, 310.4, 645.2)">t</text><text xml:space="preserve" font-family="HelveticaNeue-Light,Helvetica Neue" font-size="42.0" fill="#000000" transform="matrix(1.00, 0.00, -0.00, -1.00, 322.8, 645.2)">a</text><text xml:space="preserve" font-family="HelveticaNeue-Light,Helvetica Neue" font-size="42.0" fill="#000000" transform="matrix(1.00, 0.00, -0.00, -1.00, 344.6, 645.2)">t</text><text xml:space="preserve" font-family="HelveticaNeue-Light,Helvetica Neue" font-size="42.0" fill="#000000" transform="matrix(1.00, 0.00, -0.00, -1.00, 357.1, 645.2)">i</text><text xml:space="preserve" font-family="HelveticaNeue-Light,Helvetica Neue" font-size="42.0" fill="#000000" transform="matrix(1.00, 0.00, -0.00, -1.00, 364.8, 645.2)">o</text><text xml:space="preserve" font-family="HelveticaNeue-Light,Helvetica Neue" font-size="42.0" fill="#000000" transform="matrix(1.00, 0.00, -0.00, -1.00, 388.2, 645.2)">n</text><text xml:space="preserve" font-family="HelveticaNeue-Light,Helvetica Neue" font-size="36.0" fill="#747373" transform="matrix(1.00, 0.00, -0.00, -1.00, 49.0, 553.7)">O</text><text xml:space="preserve" font-family="HelveticaNeue-Light,Helvetica Neue" font-size="36.0" fill="#747373" transform="matrix(1.00, 0.00, -0.00, -1.00, 75.7, 553.7)">l</text><text xml:space="preserve" font-family="HelveticaNeue-Light,Helvetica Neue" font-size="36.0" fill="#747373" transform="matrix(1.00, 0.00, -0.00, -1.00, 82.3, 553.7)">d</text><text xml:space="preserve" font-family="HelveticaNeue-Light,Helvetica Neue" font-size="36.0" fill="#747373" transform="matrix(1.00, 0.00, -0.00, -1.00, 103.0, 553.7)">e</text><text xml:space="preserve" font-family="HelveticaNeue-Light,Helvetica Neue" font-size="36.0" fill="#747373" transform="matrix(1.00, 0.00, -0.00, -1.00, 121.7, 553.7)">r</text><text xml:space="preserve" font-family="HelveticaNeue-Light,Helvetica Neue" font-size="36.0" fill="#747373" transform="matrix(1.00, 0.00, -0.00, -1.00, 133.0, 553.7)"> </text><text xml:space="preserve" font-family="HelveticaNeue-Light,Helvetica Neue" font-size="36.0" fill="#747373" transform="matrix(1.00, 0.00, -0.00, -1.00, 143.0, 553.7)">a</text><text xml:space="preserve" font-family="HelveticaNeue-Light,Helvetica Neue" font-size="36.0" fill="#747373" transform="matrix(1.00, 0.00, -0.00, -1.00, 161.7, 553.7)">g</text><text xml:space="preserve" font-family="HelveticaNeue-Light,Helvetica Neue" font-size="36.0" fill="#747373" transform="matrix(1.00, 0.00, -0.00, -1.00, 181.7, 553.7)">e</text><text xml:space="preserve" font-family="HelveticaNeue-Light,Helvetica Neue" font-size="36.0" fill="#747373" transform="matrix(1.00, 0.00, -0.00, -1.00, 200.4, 553.7)"> </text><text xml:space="preserve" font-family="HelveticaNeue-Light,Helvetica Neue" font-size="36.0" fill="#747373" transform="matrix(1.00, 0.00, -0.00, -1.00, 49.0, 467.7)">L</text><text xml:space="preserve" font-family="HelveticaNeue-Light,Helvetica Neue" font-size="36.0" fill="#747373" transform="matrix(1.00, 0.00, -0.00, -1.00, 68.3, 467.7)">a</text><text xml:space="preserve" font-family="HelveticaNeue-Light,Helvetica Neue" font-size="36.0" fill="#747373" transform="matrix(1.00, 0.00, -0.00, -1.00, 87.0, 467.7)">t</text><text xml:space="preserve" font-family="HelveticaNeue-Light,Helvetica Neue" font-size="36.0" fill="#747373" transform="matrix(1.00, 0.00, -0.00, -1.00, 97.7, 467.7)">e</text><text xml:space="preserve" font-family="HelveticaNeue-Light,Helvetica Neue" font-size="36.0" fill="#747373" transform="matrix(1.00, 0.00, -0.00, -1.00, 116.4, 467.7)">r</text><text xml:space="preserve" font-family="HelveticaNeue-Light,Helvetica Neue" font-size="36.0" fill="#747373" transform="matrix(1.00, 0.00, -0.00, -1.00, 127.7, 467.7)"> </text><text xml:space="preserve" font-family="HelveticaNeue-Light,Helvetica Neue" font-size="36.0" fill="#747373" transform="matrix(1.00, 0.00, -0.00, -1.00, 137.7, 467.7)">s</text><text xml:space="preserve" font-family="HelveticaNeue-Light,Helvetica Neue" font-size="36.0" fill="#747373" transform="matrix(1.00, 0.00, -0.00, -1.00, 155.0, 467.7)">t</text><text xml:space="preserve" font-family="HelveticaNeue-Light,Helvetica Neue" font-size="36.0" fill="#747373" transform="matrix(1.00, 0.00, -0.00, -1.00, 165.7, 467.7)">a</text><text xml:space="preserve" font-family="HelveticaNeue-Light,Helvetica Neue" font-size="36.0" fill="#747373" transform="matrix(1.00, 0.00, -0.00, -1.00, 184.4, 467.7)">g</text><text xml:space="preserve" font-family="HelveticaNeue-Light,Helvetica Neue" font-size="36.0" fill="#747373" transform="matrix(1.00, 0.00, -0.00, -1.00, 204.4, 467.7)">e</text><text xml:space="preserve" font-family="HelveticaNeue-Light,Helvetica Neue" font-size="36.0" fill="#747373" transform="matrix(1.00, 0.00, -0.00, -1.00, 223.1, 467.7)"> </text><text xml:space="preserve" font-family="HelveticaNeue,Helvetica Neue" font-size="27.0" fill="#747373" transform="matrix(1.00, 0.00, -0.00, -1.00, 49.0, 385.2)">•</text><text xml:space="preserve" font-family="HelveticaNeue-Light,Helvetica Neue" font-size="36.0" fill="#747373" transform="matrix(1.00, 0.00, -0.00, -1.00, 85.0, 381.7)">&gt;</text><text xml:space="preserve" font-family="HelveticaNeue-Light,Helvetica Neue" font-size="36.0" fill="#747373" transform="matrix(1.00, 0.00, -0.00, -1.00, 106.6, 381.7)">2</text><text xml:space="preserve" font-family="HelveticaNeue-Light,Helvetica Neue" font-size="36.0" fill="#747373" transform="matrix(1.00, 0.00, -0.00, -1.00, 126.6, 381.7)">0</text><text xml:space="preserve" font-family="HelveticaNeue-Light,Helvetica Neue" font-size="36.0" fill="#747373" transform="matrix(1.00, 0.00, -0.00, -1.00, 146.6, 381.7)">%</text><text xml:space="preserve" font-family="HelveticaNeue-Light,Helvetica Neue" font-size="36.0" fill="#747373" transform="matrix(1.00, 0.00, -0.00, -1.00, 178.6, 381.7)"> </text><text xml:space="preserve" font-family="HelveticaNeue-Light,Helvetica Neue" font-size="36.0" fill="#747373" transform="matrix(1.00, 0.00, -0.00, -1.00, 188.6, 381.7)">w</text><text xml:space="preserve" font-family="HelveticaNeue-Light,Helvetica Neue" font-size="36.0" fill="#747373" transform="matrix(1.00, 0.00, -0.00, -1.00, 215.3, 381.7)">i</text><text xml:space="preserve" font-family="HelveticaNeue-Light,Helvetica Neue" font-size="36.0" fill="#747373" transform="matrix(1.00, 0.00, -0.00, -1.00, 222.0, 381.7)">t</text><text xml:space="preserve" font-family="HelveticaNeue-Light,Helvetica Neue" font-size="36.0" fill="#747373" transform="matrix(1.00, 0.00, -0.00, -1.00, 232.6, 381.7)">h</text><text xml:space="preserve" font-family="HelveticaNeue-Light,Helvetica Neue" font-size="36.0" fill="#747373" transform="matrix(1.00, 0.00, -0.00, -1.00, 252.0, 381.7)"> </text><text xml:space="preserve" font-family="HelveticaNeue-Light,Helvetica Neue" font-size="36.0" fill="#747373" transform="matrix(1.00, 0.00, -0.00, -1.00, 262.0, 381.7)">s</text><text xml:space="preserve" font-family="HelveticaNeue-Light,Helvetica Neue" font-size="36.0" fill="#747373" transform="matrix(1.00, 0.00, -0.00, -1.00, 279.3, 381.7)">t</text><text xml:space="preserve" font-family="HelveticaNeue-Light,Helvetica Neue" font-size="36.0" fill="#747373" transform="matrix(1.00, 0.00, -0.00, -1.00, 289.9, 381.7)">a</text><text xml:space="preserve" font-family="HelveticaNeue-Light,Helvetica Neue" font-size="36.0" fill="#747373" transform="matrix(1.00, 0.00, -0.00, -1.00, 308.6, 381.7)">g</text><text xml:space="preserve" font-family="HelveticaNeue-Light,Helvetica Neue" font-size="36.0" fill="#747373" transform="matrix(1.00, 0.00, -0.00, -1.00, 328.6, 381.7)">e</text><text xml:space="preserve" font-family="HelveticaNeue-Light,Helvetica Neue" font-size="36.0" fill="#747373" transform="matrix(1.00, 0.00, -0.00, -1.00, 347.3, 381.7)"> </text><text xml:space="preserve" font-family="HelveticaNeue-Light,Helvetica Neue" font-size="36.0" fill="#747373" transform="matrix(1.00, 0.00, -0.00, -1.00, 357.3, 381.7)">I</text><text xml:space="preserve" font-family="HelveticaNeue-Light,Helvetica Neue" font-size="36.0" fill="#747373" transform="matrix(1.00, 0.00, -0.00, -1.00, 365.3, 381.7)">I</text><text xml:space="preserve" font-family="HelveticaNeue-Light,Helvetica Neue" font-size="36.0" fill="#747373" transform="matrix(1.00, 0.00, -0.00, -1.00, 373.3, 381.7)">I</text><text xml:space="preserve" font-family="HelveticaNeue-Light,Helvetica Neue" font-size="36.0" fill="#747373" transform="matrix(1.00, 0.00, -0.00, -1.00, 381.3, 381.7)">/</text><text xml:space="preserve" font-family="HelveticaNeue-Light,Helvetica Neue" font-size="36.0" fill="#747373" transform="matrix(1.00, 0.00, -0.00, -1.00, 393.3, 381.7)">I</text><text xml:space="preserve" font-family="HelveticaNeue-Light,Helvetica Neue" font-size="36.0" fill="#747373" transform="matrix(1.00, 0.00, -0.00, -1.00, 401.3, 381.7)">V</text><text xml:space="preserve" font-family="HelveticaNeue-Light,Helvetica Neue" font-size="36.0" fill="#747373" transform="matrix(1.00, 0.00, -0.00, -1.00, 422.6, 381.7)"> </text><text xml:space="preserve" font-family="HelveticaNeue-Light,Helvetica Neue" font-size="36.0" fill="#747373" transform="matrix(1.00, 0.00, -0.00, -1.00, 432.7, 381.7)">d</text><text xml:space="preserve" font-family="HelveticaNeue-Light,Helvetica Neue" font-size="36.0" fill="#747373" transform="matrix(1.00, 0.00, -0.00, -1.00, 453.3, 381.7)">i</text><text xml:space="preserve" font-family="HelveticaNeue-Light,Helvetica Neue" font-size="36.0" fill="#747373" transform="matrix(1.00, 0.00, -0.00, -1.00, 460.0, 381.7)">s</text><text xml:space="preserve" font-family="HelveticaNeue-Light,Helvetica Neue" font-size="36.0" fill="#747373" transform="matrix(1.00, 0.00, -0.00, -1.00, 477.3, 381.7)">e</text><text xml:space="preserve" font-family="HelveticaNeue-Light,Helvetica Neue" font-size="36.0" fill="#747373" transform="matrix(1.00, 0.00, -0.00, -1.00, 496.0, 381.7)">a</text><text xml:space="preserve" font-family="HelveticaNeue-Light,Helvetica Neue" font-size="36.0" fill="#747373" transform="matrix(1.00, 0.00, -0.00, -1.00, 514.7, 381.7)">s</text><text xml:space="preserve" font-family="HelveticaNeue-Light,Helvetica Neue" font-size="36.0" fill="#747373" transform="matrix(1.00, 0.00, -0.00, -1.00, 532.0, 381.7)">e</text><text xml:space="preserve" font-family="HelveticaNeue-Light,Helvetica Neue" font-size="36.0" fill="#747373" transform="matrix(1.00, 0.00, -0.00, -1.00, 550.7, 381.7)"> </text><text xml:space="preserve" font-family="HelveticaNeue-Light,Helvetica Neue" font-size="36.0" fill="#747373" transform="matrix(1.00, 0.00, -0.00, -1.00, 49.0, 295.7)">P</text><text xml:space="preserve" font-family="HelveticaNeue-Light,Helvetica Neue" font-size="36.0" fill="#747373" transform="matrix(1.00, 0.00, -0.00, -1.00, 71.7, 295.7)">a</text><text xml:space="preserve" font-family="HelveticaNeue-Light,Helvetica Neue" font-size="36.0" fill="#747373" transform="matrix(1.00, 0.00, -0.00, -1.00, 90.4, 295.7)">l</text><text xml:space="preserve" font-family="HelveticaNeue-Light,Helvetica Neue" font-size="36.0" fill="#747373" transform="matrix(1.00, 0.00, -0.00, -1.00, 97.0, 295.7)">p</text><text xml:space="preserve" font-family="HelveticaNeue-Light,Helvetica Neue" font-size="36.0" fill="#747373" transform="matrix(1.00, 0.00, -0.00, -1.00, 117.7, 295.7)">a</text><text xml:space="preserve" font-family="HelveticaNeue-Light,Helvetica Neue" font-size="36.0" fill="#747373" transform="matrix(1.00, 0.00, -0.00, -1.00, 136.4, 295.7)">b</text><text xml:space="preserve" font-family="HelveticaNeue-Light,Helvetica Neue" font-size="36.0" fill="#747373" transform="matrix(1.00, 0.00, -0.00, -1.00, 157.0, 295.7)">l</text><text xml:space="preserve" font-family="HelveticaNeue-Light,Helvetica Neue" font-size="36.0" fill="#747373" transform="matrix(1.00, 0.00, -0.00, -1.00, 163.7, 295.7)">e</text><text xml:space="preserve" font-family="HelveticaNeue-Light,Helvetica Neue" font-size="36.0" fill="#747373" transform="matrix(1.00, 0.00, -0.00, -1.00, 182.4, 295.7)"> </text><text xml:space="preserve" font-family="HelveticaNeue-Light,Helvetica Neue" font-size="36.0" fill="#747373" transform="matrix(1.00, 0.00, -0.00, -1.00, 192.4, 295.7)">l</text><text xml:space="preserve" font-family="HelveticaNeue-Light,Helvetica Neue" font-size="36.0" fill="#747373" transform="matrix(1.00, 0.00, -0.00, -1.00, 199.0, 295.7)">u</text><text xml:space="preserve" font-family="HelveticaNeue-Light,Helvetica Neue" font-size="36.0" fill="#747373" transform="matrix(1.00, 0.00, -0.00, -1.00, 218.4, 295.7)">m</text><text xml:space="preserve" font-family="HelveticaNeue-Light,Helvetica Neue" font-size="36.0" fill="#747373" transform="matrix(1.00, 0.00, -0.00, -1.00, 248.4, 295.7)">p</text><text xml:space="preserve" font-family="HelveticaNeue-Light,Helvetica Neue" font-size="36.0" fill="#747373" transform="matrix(1.00, 0.00, -0.00, -1.00, 269.0, 295.7)"> </text><text xml:space="preserve" font-family="HelveticaNeue,Helvetica Neue" font-size="27.0" fill="#747373" transform="matrix(1.00, 0.00, -0.00, -1.00, 49.0, 213.2)">•</text><text xml:space="preserve" font-family="HelveticaNeue-Light,Helvetica Neue" font-size="36.0" fill="#747373" transform="matrix(1.00, 0.00, -0.00, -1.00, 85.0, 209.7)">e</text><text xml:space="preserve" font-family="HelveticaNeue-Light,Helvetica Neue" font-size="36.0" fill="#747373" transform="matrix(1.00, 0.00, -0.00, -1.00, 103.7, 209.7)">a</text><text xml:space="preserve" font-family="HelveticaNeue-Light,Helvetica Neue" font-size="36.0" fill="#747373" transform="matrix(1.00, 0.00, -0.00, -1.00, 122.4, 209.7)">r</text><text xml:space="preserve" font-family="HelveticaNeue-Light,Helvetica Neue" font-size="36.0" fill="#747373" transform="matrix(1.00, 0.00, -0.00, -1.00, 133.7, 209.7)">l</text><text xml:space="preserve" font-family="HelveticaNeue-Light,Helvetica Neue" font-size="36.0" fill="#747373" transform="matrix(1.00, 0.00, -0.00, -1.00, 140.4, 209.7)">y</text><text xml:space="preserve" font-family="HelveticaNeue-Light,Helvetica Neue" font-size="36.0" fill="#747373" transform="matrix(1.00, 0.00, -0.00, -1.00, 157.0, 209.7)"> </text><text xml:space="preserve" font-family="HelveticaNeue-Light,Helvetica Neue" font-size="36.0" fill="#747373" transform="matrix(1.00, 0.00, -0.00, -1.00, 167.0, 209.7)">c</text><text xml:space="preserve" font-family="HelveticaNeue-Light,Helvetica Neue" font-size="36.0" fill="#747373" transform="matrix(1.00, 0.00, -0.00, -1.00, 185.7, 209.7)">h</text><text xml:space="preserve" font-family="HelveticaNeue-Light,Helvetica Neue" font-size="36.0" fill="#747373" transform="matrix(1.00, 0.00, -0.00, -1.00, 205.1, 209.7)">e</text><text xml:space="preserve" font-family="HelveticaNeue-Light,Helvetica Neue" font-size="36.0" fill="#747373" transform="matrix(1.00, 0.00, -0.00, -1.00, 223.7, 209.7)">s</text><text xml:space="preserve" font-family="HelveticaNeue-Light,Helvetica Neue" font-size="36.0" fill="#747373" transform="matrix(1.00, 0.00, -0.00, -1.00, 241.1, 209.7)">t</text><text xml:space="preserve" font-family="HelveticaNeue-Light,Helvetica Neue" font-size="36.0" fill="#747373" transform="matrix(1.00, 0.00, -0.00, -1.00, 251.7, 209.7)"> </text><text xml:space="preserve" font-family="HelveticaNeue-Light,Helvetica Neue" font-size="36.0" fill="#747373" transform="matrix(1.00, 0.00, -0.00, -1.00, 261.7, 209.7)">w</text><text xml:space="preserve" font-family="HelveticaNeue-Light,Helvetica Neue" font-size="36.0" fill="#747373" transform="matrix(1.00, 0.00, -0.00, -1.00, 288.4, 209.7)">a</text><text xml:space="preserve" font-family="HelveticaNeue-Light,Helvetica Neue" font-size="36.0" fill="#747373" transform="matrix(1.00, 0.00, -0.00, -1.00, 307.1, 209.7)">l</text><text xml:space="preserve" font-family="HelveticaNeue-Light,Helvetica Neue" font-size="36.0" fill="#747373" transform="matrix(1.00, 0.00, -0.00, -1.00, 313.7, 209.7)">l</text><text xml:space="preserve" font-family="HelveticaNeue-Light,Helvetica Neue" font-size="36.0" fill="#747373" transform="matrix(1.00, 0.00, -0.00, -1.00, 320.4, 209.7)">,</text><text xml:space="preserve" font-family="HelveticaNeue-Light,Helvetica Neue" font-size="36.0" fill="#747373" transform="matrix(1.00, 0.00, -0.00, -1.00, 330.4, 209.7)"> </text><text xml:space="preserve" font-family="HelveticaNeue-Light,Helvetica Neue" font-size="36.0" fill="#747373" transform="matrix(1.00, 0.00, -0.00, -1.00, 340.4, 209.7)">s</text><text xml:space="preserve" font-family="HelveticaNeue-Light,Helvetica Neue" font-size="36.0" fill="#747373" transform="matrix(1.00, 0.00, -0.00, -1.00, 357.7, 209.7)">k</text><text xml:space="preserve" font-family="HelveticaNeue-Light,Helvetica Neue" font-size="36.0" fill="#747373" transform="matrix(1.00, 0.00, -0.00, -1.00, 375.7, 209.7)">i</text><text xml:space="preserve" font-family="HelveticaNeue-Light,Helvetica Neue" font-size="36.0" fill="#747373" transform="matrix(1.00, 0.00, -0.00, -1.00, 382.4, 209.7)">n</text><text xml:space="preserve" font-family="HelveticaNeue-Light,Helvetica Neue" font-size="36.0" fill="#747373" transform="matrix(1.00, 0.00, -0.00, -1.00, 401.7, 209.7)">,</text><text xml:space="preserve" font-family="HelveticaNeue-Light,Helvetica Neue" font-size="36.0" fill="#747373" transform="matrix(1.00, 0.00, -0.00, -1.00, 411.7, 209.7)"> </text><text xml:space="preserve" font-family="HelveticaNeue-Light,Helvetica Neue" font-size="36.0" fill="#747373" transform="matrix(1.00, 0.00, -0.00, -1.00, 421.7, 209.7)">a</text><text xml:space="preserve" font-family="HelveticaNeue-Light,Helvetica Neue" font-size="36.0" fill="#747373" transform="matrix(1.00, 0.00, -0.00, -1.00, 440.4, 209.7)">n</text><text xml:space="preserve" font-family="HelveticaNeue-Light,Helvetica Neue" font-size="36.0" fill="#747373" transform="matrix(1.00, 0.00, -0.00, -1.00, 459.8, 209.7)">d</text><text xml:space="preserve" font-family="HelveticaNeue-Light,Helvetica Neue" font-size="36.0" fill="#747373" transform="matrix(1.00, 0.00, -0.00, -1.00, 480.4, 209.7)"> </text><text xml:space="preserve" font-family="HelveticaNeue-Light,Helvetica Neue" font-size="36.0" fill="#747373" transform="matrix(1.00, 0.00, -0.00, -1.00, 490.4, 209.7)">L</text><text xml:space="preserve" font-family="HelveticaNeue-Light,Helvetica Neue" font-size="36.0" fill="#747373" transform="matrix(1.00, 0.00, -0.00, -1.00, 509.8, 209.7)">N</text><text xml:space="preserve" font-family="HelveticaNeue-Light,Helvetica Neue" font-size="36.0" fill="#747373" transform="matrix(1.00, 0.00, -0.00, -1.00, 535.1, 209.7)"> </text><text xml:space="preserve" font-family="HelveticaNeue-Light,Helvetica Neue" font-size="36.0" fill="#747373" transform="matrix(1.00, 0.00, -0.00, -1.00, 545.1, 209.7)">i</text><text xml:space="preserve" font-family="HelveticaNeue-Light,Helvetica Neue" font-size="36.0" fill="#747373" transform="matrix(1.00, 0.00, -0.00, -1.00, 551.8, 209.7)">n</text><text xml:space="preserve" font-family="HelveticaNeue-Light,Helvetica Neue" font-size="36.0" fill="#747373" transform="matrix(1.00, 0.00, -0.00, -1.00, 571.1, 209.7)">v</text><text xml:space="preserve" font-family="HelveticaNeue-Light,Helvetica Neue" font-size="36.0" fill="#747373" transform="matrix(1.00, 0.00, -0.00, -1.00, 587.8, 209.7)">o</text><text xml:space="preserve" font-family="HelveticaNeue-Light,Helvetica Neue" font-size="36.0" fill="#747373" transform="matrix(1.00, 0.00, -0.00, -1.00, 607.8, 209.7)">l</text><text xml:space="preserve" font-family="HelveticaNeue-Light,Helvetica Neue" font-size="36.0" fill="#747373" transform="matrix(1.00, 0.00, -0.00, -1.00, 614.5, 209.7)">v</text><text xml:space="preserve" font-family="HelveticaNeue-Light,Helvetica Neue" font-size="36.0" fill="#747373" transform="matrix(1.00, 0.00, -0.00, -1.00, 631.1, 209.7)">e</text><text xml:space="preserve" font-family="HelveticaNeue-Light,Helvetica Neue" font-size="36.0" fill="#747373" transform="matrix(1.00, 0.00, -0.00, -1.00, 649.8, 209.7)">m</text><text xml:space="preserve" font-family="HelveticaNeue-Light,Helvetica Neue" font-size="36.0" fill="#747373" transform="matrix(1.00, 0.00, -0.00, -1.00, 679.8, 209.7)">e</text><text xml:space="preserve" font-family="HelveticaNeue-Light,Helvetica Neue" font-size="36.0" fill="#747373" transform="matrix(1.00, 0.00, -0.00, -1.00, 698.5, 209.7)">n</text><text xml:space="preserve" font-family="HelveticaNeue-Light,Helvetica Neue" font-size="36.0" fill="#747373" transform="matrix(1.00, 0.00, -0.00, -1.00, 717.8, 209.7)">t</text><text xml:space="preserve" font-family="HelveticaNeue-Light,Helvetica Neue" font-size="36.0" fill="#747373" transform="matrix(1.00, 0.00, -0.00, -1.00, 728.5, 209.7)"> </text><text xml:space="preserve" font-family="HelveticaNeue,Helvetica Neue" font-size="27.0" fill="#747373" transform="matrix(1.00, 0.00, -0.00, -1.00, 49.0, 127.2)">•</text><text xml:space="preserve" font-family="HelveticaNeue-Light,Helvetica Neue" font-size="36.0" fill="#747373" transform="matrix(1.00, 0.00, -0.00, -1.00, 85.0, 123.7)">l</text><text xml:space="preserve" font-family="HelveticaNeue-Light,Helvetica Neue" font-size="36.0" fill="#747373" transform="matrix(1.00, 0.00, -0.00, -1.00, 91.7, 123.7)">a</text><text xml:space="preserve" font-family="HelveticaNeue-Light,Helvetica Neue" font-size="36.0" fill="#747373" transform="matrix(1.00, 0.00, -0.00, -1.00, 110.3, 123.7)">c</text><text xml:space="preserve" font-family="HelveticaNeue-Light,Helvetica Neue" font-size="36.0" fill="#747373" transform="matrix(1.00, 0.00, -0.00, -1.00, 129.0, 123.7)">k</text><text xml:space="preserve" font-family="HelveticaNeue-Light,Helvetica Neue" font-size="36.0" fill="#747373" transform="matrix(1.00, 0.00, -0.00, -1.00, 147.0, 123.7)"> </text><text xml:space="preserve" font-family="HelveticaNeue-Light,Helvetica Neue" font-size="36.0" fill="#747373" transform="matrix(1.00, 0.00, -0.00, -1.00, 157.0, 123.7)">o</text><text xml:space="preserve" font-family="HelveticaNeue-Light,Helvetica Neue" font-size="36.0" fill="#747373" transform="matrix(1.00, 0.00, -0.00, -1.00, 177.1, 123.7)">f</text><text xml:space="preserve" font-family="HelveticaNeue-Light,Helvetica Neue" font-size="36.0" fill="#747373" transform="matrix(1.00, 0.00, -0.00, -1.00, 186.4, 123.7)"> </text><text xml:space="preserve" font-family="HelveticaNeue-Light,Helvetica Neue" font-size="36.0" fill="#747373" transform="matrix(1.00, 0.00, -0.00, -1.00, 196.4, 123.7)">a</text><text xml:space="preserve" font-family="HelveticaNeue-Light,Helvetica Neue" font-size="36.0" fill="#747373" transform="matrix(1.00, 0.00, -0.00, -1.00, 215.1, 123.7)">w</text><text xml:space="preserve" font-family="HelveticaNeue-Light,Helvetica Neue" font-size="36.0" fill="#747373" transform="matrix(1.00, 0.00, -0.00, -1.00, 241.7, 123.7)">a</text><text xml:space="preserve" font-family="HelveticaNeue-Light,Helvetica Neue" font-size="36.0" fill="#747373" transform="matrix(1.00, 0.00, -0.00, -1.00, 260.4, 123.7)">r</text><text xml:space="preserve" font-family="HelveticaNeue-Light,Helvetica Neue" font-size="36.0" fill="#747373" transform="matrix(1.00, 0.00, -0.00, -1.00, 271.1, 123.7)">e</text><text xml:space="preserve" font-family="HelveticaNeue-Light,Helvetica Neue" font-size="36.0" fill="#747373" transform="matrix(1.00, 0.00, -0.00, -1.00, 289.8, 123.7)">n</text><text xml:space="preserve" font-family="HelveticaNeue-Light,Helvetica Neue" font-size="36.0" fill="#747373" transform="matrix(1.00, 0.00, -0.00, -1.00, 309.1, 123.7)">e</text><text xml:space="preserve" font-family="HelveticaNeue-Light,Helvetica Neue" font-size="36.0" fill="#747373" transform="matrix(1.00, 0.00, -0.00, -1.00, 327.8, 123.7)">s</text><text xml:space="preserve" font-family="HelveticaNeue-Light,Helvetica Neue" font-size="36.0" fill="#747373" transform="matrix(1.00, 0.00, -0.00, -1.00, 345.1, 123.7)">s</text></g></svg>