<?xml version="1.0" encoding="UTF-8" standalone="no"?><svg xmlns="http://www.w3.org/2000/svg" xmlns:xlink="http://www.w3.org/1999/xlink" clip-rule="evenodd" stroke-miterlimit="10" viewBox="0 0 1024 768"><desc>SVG generated by Keynote</desc><defs></defs><g transform="matrix(1.00, 0.00, -0.00, -1.00, 0.0, 768.0)"><g><clipPath id="clip0x6000010b2180"><path d="M 0.0 768.0 L 1024.0 768.0 L 1024.0 0.0 L 0.0 0.0 Z M 0.0 768.0 "></path></clipPath><g clip-path="url(#clip0x6000010b2180)"><image xlink:href="../../BE4D2DDB-FBE4-467E-AE38-B34F9028D09E/assets/9397CAD6F20342ACC2646ABBCA758461.jpeg" width="2048.00" height="1536.00" transform="matrix(0.50, 0.00, -0.00, -0.50, 0.0, 768.0)"></image></g></g><g><clipPath id="clip0x600000aa37e0"><path d="M 0.0 768.0 L 1024.0 768.0 L 1024.0 0.0 L 0.0 0.0 Z M 0.0 768.0 "></path></clipPath><g clip-path="url(#clip0x600000aa37e0)"><g><clipPath id="clip0x6000010b2420"><path d="M 0.0 0.0 L 1024.0 0.0 L 1024.0 768.0 L 0.0 768.0 Z M 0.0 0.0 "></path></clipPath><g clip-path="url(#clip0x6000010b2420)"><path d="M 0.0 768.0 L 1024.0 768.0 L 1024.0 0.0 L 0.0 0.0 Z M 0.0 768.0 " fill="#FEFFFF" fill-opacity="0.00"></path></g></g></g></g><g><clipPath id="clip0x6000010b20c0"><path d="M 0.0 768.0 L 1024.0 768.0 L 1024.0 0.0 L 0.0 0.0 Z M 0.0 768.0 "></path></clipPath><g clip-path="url(#clip0x6000010b20c0)"><g><clipPath id="clip0x6000010b1e20"><path d="M 0.0 768.0 L 1024.0 768.0 L 1024.0 -0.0 L 0.0 -0.0 Z M 0.0 768.0 "></path></clipPath><g clip-path="url(#clip0x6000010b1e20)"><g><clipPath id="clip0x6000010b2300"><path d="M 0.0 0.0 L 1024.0 0.0 L 1024.0 768.0 L 0.0 768.0 Z M 0.0 0.0 "></path></clipPath><g clip-path="url(#clip0x6000010b2300)"><image xlink:href="../../8A856C68-775B-4263-B8D2-504830E4283E/assets/30FA373797A8FCCE365C7F7FA9BD5586.jpeg" width="1600.00" height="1200.00" transform="matrix(0.64, 0.00, -0.00, -0.64, 0.0, 768.0)"></image></g></g></g></g></g></g></g></svg>