<?xml version="1.0" encoding="UTF-8" standalone="no"?><svg xmlns="http://www.w3.org/2000/svg" xmlns:xlink="http://www.w3.org/1999/xlink" clip-rule="evenodd" stroke-miterlimit="4.00" viewBox="0 0 1024 768"><desc>SVG generated by Keynote</desc><defs></defs><g transform="matrix(1.00, 0.00, -0.00, -1.00, 0.0, 768.0)"><path d="M 0.0 768.0 L 1024.0 768.0 L 1024.0 0.0 L 0.0 0.0 Z M 0.0 768.0 " fill="#FEFFFE"></path><path d="M 0.0 0.0 L 934.5 0.0 " fill="none" stroke="#9A9A9A" stroke-width="1.00" transform="matrix(1.00, 0.00, 0.00, -1.00, 45.0, 613.0)"></path><text xml:space="preserve" font-family="HelveticaNeue-Light" font-size="42.0" fill="#000000" transform="matrix(1.00, 0.00, -0.00, -1.00, 49.0, 696.0)">P</text><text xml:space="preserve" font-family="HelveticaNeue-Light" font-size="42.0" fill="#000000" transform="matrix(1.00, 0.00, -0.00, -1.00, 75.5, 696.0)">a</text><text xml:space="preserve" font-family="HelveticaNeue-Light" font-size="42.0" fill="#000000" transform="matrix(1.00, 0.00, -0.00, -1.00, 97.3, 696.0)">t</text><text xml:space="preserve" font-family="HelveticaNeue-Light" font-size="42.0" fill="#000000" transform="matrix(1.00, 0.00, -0.00, -1.00, 109.7, 696.0)">i</text><text xml:space="preserve" font-family="HelveticaNeue-Light" font-size="42.0" fill="#000000" transform="matrix(1.00, 0.00, -0.00, -1.00, 117.5, 696.0)">e</text><text xml:space="preserve" font-family="HelveticaNeue-Light" font-size="42.0" fill="#000000" transform="matrix(1.00, 0.00, -0.00, -1.00, 139.3, 696.0)">n</text><text xml:space="preserve" font-family="HelveticaNeue-Light" font-size="42.0" fill="#000000" transform="matrix(1.00, 0.00, -0.00, -1.00, 161.8, 696.0)">t</text><text xml:space="preserve" font-family="HelveticaNeue-Light" font-size="42.0" fill="#000000" transform="matrix(1.00, 0.00, -0.00, -1.00, 174.2, 696.0)">s</text><text xml:space="preserve" font-family="HelveticaNeue-Light" font-size="42.0" fill="#000000" transform="matrix(1.00, 0.00, -0.00, -1.00, 194.4, 696.0)"> </text><text xml:space="preserve" font-family="HelveticaNeue-Light" font-size="42.0" fill="#000000" transform="matrix(1.00, 0.00, -0.00, -1.00, 206.1, 696.0)">2</text><text xml:space="preserve" font-family="HelveticaNeue-Light" font-size="42.0" fill="#000000" transform="matrix(1.00, 0.00, -0.00, -1.00, 229.5, 696.0)">3</text><text xml:space="preserve" font-family="HelveticaNeue-Light" font-size="42.0" fill="#000000" transform="matrix(1.00, 0.00, -0.00, -1.00, 252.8, 696.0)">-</text><text xml:space="preserve" font-family="HelveticaNeue-Light" font-size="42.0" fill="#000000" transform="matrix(1.00, 0.00, -0.00, -1.00, 268.4, 696.0)">6</text><text xml:space="preserve" font-family="HelveticaNeue-Light" font-size="42.0" fill="#000000" transform="matrix(1.00, 0.00, -0.00, -1.00, 291.7, 696.0)">3</text><text xml:space="preserve" font-family="HelveticaNeue-Light" font-size="42.0" fill="#000000" transform="matrix(1.00, 0.00, -0.00, -1.00, 315.1, 696.0)"> </text><text xml:space="preserve" font-family="HelveticaNeue-Light" font-size="42.0" fill="#000000" transform="matrix(1.00, 0.00, -0.00, -1.00, 326.7, 696.0)">(</text><text xml:space="preserve" font-family="HelveticaNeue-Light" font-size="42.0" fill="#000000" transform="matrix(1.00, 0.00, -0.00, -1.00, 336.9, 696.0)">m</text><text xml:space="preserve" font-family="HelveticaNeue-Light" font-size="42.0" fill="#000000" transform="matrix(1.00, 0.00, -0.00, -1.00, 371.9, 696.0)">e</text><text xml:space="preserve" font-family="HelveticaNeue-Light" font-size="42.0" fill="#000000" transform="matrix(1.00, 0.00, -0.00, -1.00, 393.7, 696.0)">d</text><text xml:space="preserve" font-family="HelveticaNeue-Light" font-size="42.0" fill="#000000" transform="matrix(1.00, 0.00, -0.00, -1.00, 417.8, 696.0)">i</text><text xml:space="preserve" font-family="HelveticaNeue-Light" font-size="42.0" fill="#000000" transform="matrix(1.00, 0.00, -0.00, -1.00, 425.5, 696.0)">a</text><text xml:space="preserve" font-family="HelveticaNeue-Light" font-size="42.0" fill="#000000" transform="matrix(1.00, 0.00, -0.00, -1.00, 447.3, 696.0)">n</text><text xml:space="preserve" font-family="HelveticaNeue-Light" font-size="42.0" fill="#000000" transform="matrix(1.00, 0.00, -0.00, -1.00, 469.9, 696.0)"> </text><text xml:space="preserve" font-family="HelveticaNeue-Light" font-size="42.0" fill="#000000" transform="matrix(1.00, 0.00, -0.00, -1.00, 481.6, 696.0)">5</text><text xml:space="preserve" font-family="HelveticaNeue-Light" font-size="42.0" fill="#000000" transform="matrix(1.00, 0.00, -0.00, -1.00, 504.9, 696.0)">3</text><text xml:space="preserve" font-family="HelveticaNeue-Light" font-size="42.0" fill="#000000" transform="matrix(1.00, 0.00, -0.00, -1.00, 528.3, 696.0)">)</text><text xml:space="preserve" font-family="HelveticaNeue-Light" font-size="42.0" fill="#000000" transform="matrix(1.00, 0.00, -0.00, -1.00, 538.4, 696.0)"> </text><text xml:space="preserve" font-family="HelveticaNeue-Light" font-size="42.0" fill="#000000" transform="matrix(1.00, 0.00, -0.00, -1.00, 550.1, 696.0)">w</text><text xml:space="preserve" font-family="HelveticaNeue-Light" font-size="42.0" fill="#000000" transform="matrix(1.00, 0.00, -0.00, -1.00, 581.2, 696.0)">i</text><text xml:space="preserve" font-family="HelveticaNeue-Light" font-size="42.0" fill="#000000" transform="matrix(1.00, 0.00, -0.00, -1.00, 589.0, 696.0)">t</text><text xml:space="preserve" font-family="HelveticaNeue-Light" font-size="42.0" fill="#000000" transform="matrix(1.00, 0.00, -0.00, -1.00, 601.4, 696.0)">h</text><text xml:space="preserve" font-family="HelveticaNeue-Light" font-size="42.0" fill="#000000" transform="matrix(1.00, 0.00, -0.00, -1.00, 623.9, 696.0)"> </text><text xml:space="preserve" font-family="HelveticaNeue-Light" font-size="42.0" fill="#000000" transform="matrix(1.00, 0.00, -0.00, -1.00, 635.6, 696.0)">h</text><text xml:space="preserve" font-family="HelveticaNeue-Light" font-size="42.0" fill="#000000" transform="matrix(1.00, 0.00, -0.00, -1.00, 658.2, 696.0)">i</text><text xml:space="preserve" font-family="HelveticaNeue-Light" font-size="42.0" fill="#000000" transform="matrix(1.00, 0.00, -0.00, -1.00, 665.9, 696.0)">g</text><text xml:space="preserve" font-family="HelveticaNeue-Light" font-size="42.0" fill="#000000" transform="matrix(1.00, 0.00, -0.00, -1.00, 689.3, 696.0)">h</text><text xml:space="preserve" font-family="HelveticaNeue-Light" font-size="42.0" fill="#000000" transform="matrix(1.00, 0.00, -0.00, -1.00, 711.8, 696.0)">-</text><text xml:space="preserve" font-family="HelveticaNeue-Light" font-size="42.0" fill="#000000" transform="matrix(1.00, 0.00, -0.00, -1.00, 727.4, 696.0)">r</text><text xml:space="preserve" font-family="HelveticaNeue-Light" font-size="42.0" fill="#000000" transform="matrix(1.00, 0.00, -0.00, -1.00, 740.6, 696.0)">i</text><text xml:space="preserve" font-family="HelveticaNeue-Light" font-size="42.0" fill="#000000" transform="matrix(1.00, 0.00, -0.00, -1.00, 748.4, 696.0)">s</text><text xml:space="preserve" font-family="HelveticaNeue-Light" font-size="42.0" fill="#000000" transform="matrix(1.00, 0.00, -0.00, -1.00, 768.6, 696.0)">k</text><text xml:space="preserve" font-family="HelveticaNeue-Light" font-size="42.0" fill="#000000" transform="matrix(1.00, 0.00, -0.00, -1.00, 789.6, 696.0)"> </text><text xml:space="preserve" font-family="HelveticaNeue-Light" font-size="42.0" fill="#000000" transform="matrix(1.00, 0.00, -0.00, -1.00, 801.3, 696.0)">o</text><text xml:space="preserve" font-family="HelveticaNeue-Light" font-size="42.0" fill="#000000" transform="matrix(1.00, 0.00, -0.00, -1.00, 824.6, 696.0)">r</text><text xml:space="preserve" font-family="HelveticaNeue-Light" font-size="42.0" fill="#000000" transform="matrix(1.00, 0.00, -0.00, -1.00, 837.8, 696.0)"> </text><text xml:space="preserve" font-family="HelveticaNeue-Light" font-size="42.0" fill="#000000" transform="matrix(1.00, 0.00, -0.00, -1.00, 49.0, 645.0)">r</text><text xml:space="preserve" font-family="HelveticaNeue-Light" font-size="42.0" fill="#000000" transform="matrix(1.00, 0.00, -0.00, -1.00, 61.5, 645.0)">e</text><text xml:space="preserve" font-family="HelveticaNeue-Light" font-size="42.0" fill="#000000" transform="matrix(1.00, 0.00, -0.00, -1.00, 83.3, 645.0)">l</text><text xml:space="preserve" font-family="HelveticaNeue-Light" font-size="42.0" fill="#000000" transform="matrix(1.00, 0.00, -0.00, -1.00, 91.0, 645.0)">a</text><text xml:space="preserve" font-family="HelveticaNeue-Light" font-size="42.0" fill="#000000" transform="matrix(1.00, 0.00, -0.00, -1.00, 112.8, 645.0)">p</text><text xml:space="preserve" font-family="HelveticaNeue-Light" font-size="42.0" fill="#000000" transform="matrix(1.00, 0.00, -0.00, -1.00, 136.9, 645.0)">s</text><text xml:space="preserve" font-family="HelveticaNeue-Light" font-size="42.0" fill="#000000" transform="matrix(1.00, 0.00, -0.00, -1.00, 157.2, 645.0)">e</text><text xml:space="preserve" font-family="HelveticaNeue-Light" font-size="42.0" fill="#000000" transform="matrix(1.00, 0.00, -0.00, -1.00, 178.9, 645.0)">d</text><text xml:space="preserve" font-family="HelveticaNeue-Light" font-size="42.0" fill="#000000" transform="matrix(1.00, 0.00, -0.00, -1.00, 203.1, 645.0)">/</text><text xml:space="preserve" font-family="HelveticaNeue-Light" font-size="42.0" fill="#000000" transform="matrix(1.00, 0.00, -0.00, -1.00, 217.0, 645.0)">r</text><text xml:space="preserve" font-family="HelveticaNeue-Light" font-size="42.0" fill="#000000" transform="matrix(1.00, 0.00, -0.00, -1.00, 229.5, 645.0)">e</text><text xml:space="preserve" font-family="HelveticaNeue-Light" font-size="42.0" fill="#000000" transform="matrix(1.00, 0.00, -0.00, -1.00, 251.3, 645.0)">f</text><text xml:space="preserve" font-family="HelveticaNeue-Light" font-size="42.0" fill="#000000" transform="matrix(1.00, 0.00, -0.00, -1.00, 262.2, 645.0)">r</text><text xml:space="preserve" font-family="HelveticaNeue-Light" font-size="42.0" fill="#000000" transform="matrix(1.00, 0.00, -0.00, -1.00, 275.4, 645.0)">a</text><text xml:space="preserve" font-family="HelveticaNeue-Light" font-size="42.0" fill="#000000" transform="matrix(1.00, 0.00, -0.00, -1.00, 297.2, 645.0)">c</text><text xml:space="preserve" font-family="HelveticaNeue-Light" font-size="42.0" fill="#000000" transform="matrix(1.00, 0.00, -0.00, -1.00, 319.0, 645.0)">t</text><text xml:space="preserve" font-family="HelveticaNeue-Light" font-size="42.0" fill="#000000" transform="matrix(1.00, 0.00, -0.00, -1.00, 331.5, 645.0)">o</text><text xml:space="preserve" font-family="HelveticaNeue-Light" font-size="42.0" fill="#000000" transform="matrix(1.00, 0.00, -0.00, -1.00, 354.8, 645.0)">r</text><text xml:space="preserve" font-family="HelveticaNeue-Light" font-size="42.0" fill="#000000" transform="matrix(1.00, 0.00, -0.00, -1.00, 368.0, 645.0)">y</text><text xml:space="preserve" font-family="HelveticaNeue-Light" font-size="42.0" fill="#000000" transform="matrix(1.00, 0.00, -0.00, -1.00, 387.5, 645.0)"> </text><text xml:space="preserve" font-family="HelveticaNeue-Light" font-size="42.0" fill="#000000" transform="matrix(1.00, 0.00, -0.00, -1.00, 399.2, 645.0)">d</text><text xml:space="preserve" font-family="HelveticaNeue-Light" font-size="42.0" fill="#000000" transform="matrix(1.00, 0.00, -0.00, -1.00, 423.3, 645.0)">i</text><text xml:space="preserve" font-family="HelveticaNeue-Light" font-size="42.0" fill="#000000" transform="matrix(1.00, 0.00, -0.00, -1.00, 431.0, 645.0)">s</text><text xml:space="preserve" font-family="HelveticaNeue-Light" font-size="42.0" fill="#000000" transform="matrix(1.00, 0.00, -0.00, -1.00, 451.2, 645.0)">e</text><text xml:space="preserve" font-family="HelveticaNeue-Light" font-size="42.0" fill="#000000" transform="matrix(1.00, 0.00, -0.00, -1.00, 473.0, 645.0)">a</text><text xml:space="preserve" font-family="HelveticaNeue-Light" font-size="42.0" fill="#000000" transform="matrix(1.00, 0.00, -0.00, -1.00, 494.8, 645.0)">s</text><text xml:space="preserve" font-family="HelveticaNeue-Light" font-size="42.0" fill="#000000" transform="matrix(1.00, 0.00, -0.00, -1.00, 515.0, 645.0)">e</text><g><clipPath id="clip-615"><path d="M 0.0 86.0 L 1024.0 86.0 L 1024.0 607.0 L 0.0 607.0 Z M 0.0 86.0 "></path></clipPath><g clip-path="url(#clip-615)"><image xlink:href="../../D07242FE-2908-40FD-A755-AEA99627AD8D/assets/17952FAB4B9343D74E0F1C4D3C9C9A85.png" width="2470.00" height="1256.00" transform="matrix(0.41, 0.00, -0.00, -0.41, 0.0, 607.0)"></image></g></g><g><clipPath id="clip-616"><path d="M 5.0 36.0 L 476.0 36.0 L 476.0 2.0 L 5.0 2.0 Z M 4.5 35.8 "></path></clipPath><g clip-path="url(#clip-616)"><g><clipPath id="clip-617"><path d="M 5.0 -425.0 L 1029.0 -425.0 L 1029.0 36.0 L 5.0 36.0 Z M 5.0 -425.0 "></path></clipPath><g clip-path="url(#clip-617)"><image xlink:href="../../F02C7FE5-7F36-4514-BB5D-D97307E17BEC/assets/89254EFDAE83B2B42F520AE5FE88786F.png" width="2372.00" height="1068.00" transform="matrix(0.43, 0.00, -0.00, -0.43, 5.0, 36.0)"></image></g></g></g></g><g><clipPath id="clip-618"><path d="M 548.0 34.0 L 1019.0 34.0 L 1019.0 2.0 L 548.0 2.0 Z M 548.2 33.7 "></path></clipPath><g clip-path="url(#clip-618)"><g><clipPath id="clip-619"><path d="M 443.0 -70.0 L 1467.0 -70.0 L 1467.0 391.0 L 443.0 391.0 Z M 443.0 -70.0 "></path></clipPath><g clip-path="url(#clip-619)"><image xlink:href="../../F02C7FE5-7F36-4514-BB5D-D97307E17BEC/assets/89254EFDAE83B2B42F520AE5FE88786F.png" width="2372.00" height="1068.00" transform="matrix(0.43, 0.00, -0.00, -0.43, 443.0, 391.0)"></image></g></g></g></g></g></svg>